<?xml version="1.0" encoding="utf-8" ?>
<svg baseProfile="full" height="553" version="1.1" width="800" xmlns="http://www.w3.org/2000/svg" xmlns:ev="http://www.w3.org/2001/xml-events" xmlns:xlink="http://www.w3.org/1999/xlink"><defs /><g id="4Y01" stroke="red"><polyline fill="#FFFFFF" points="21,182 21,100 71,100 112,113 112,182" stroke="#6d725c" /></g><g id="4Y02" stroke="red"><polyline fill="#FFFFFF" points="21,309 21,182 112,182 112,309" stroke="#6d725c" /></g><g id="4Y03" stroke="red"><polyline fill="#FFFFFF" points="112,309 112,428 21,428 21,309" stroke="#6d725c" /></g><g id="4Y04" stroke="red"><polyline fill="#FFFFFF" points="317,411 455,411 460,411 460,478 386,478 386,505 369,505 369,510 330,510 330,505 297,505 297,510 257,510 257,505 237,505 237,510 218,510 218,502 152,502 152,478 152,443 134,420 134,353 286,353 286,406 309,406 309,411 310,411" stroke="#6d725c" /></g><g id="4Y05" stroke="red"><polyline fill="#FFFFFF" points="605,477 605,505 587,505 587,510 548,510 548,505 514,505 514,510 483,510 483,478 485,478 485,406 618,406 618,453 618,477" stroke="#6d725c" /></g><g id="4Y06" stroke="red"><polyline fill="#FFFFFF" points="618,453 618,406 485,406 485,241 650,241 650,189 650,150 714,150 714,173 694,173 694,212 673,212 672,212 672,241 672,271 787,271 787,453 652,453 652,477 618,477" stroke="#6d725c" /></g><g id="4Y07" stroke="red"><polyline fill="#FFFFFF" points="650,150 650,189 650,241 485,241 485,114 714,114 714,150" stroke="#6d725c" /></g><g id="4Y08" stroke="red"><polyline fill="#FFFFFF" points="662,22 679,22 679,18 734,18 786,18 786,59 736,59 736,92 493,92 493,18 662,18" stroke="#6d725c" /></g><g id="4Y09" stroke="red"><polyline fill="#FFFFFF" points="370,22 385,22 385,50 479,50 479,96 244,96 244,22 257,22 257,18 297,18 297,22 329,22 329,18 370,18" stroke="#6d725c" /></g><g id="4Y10" stroke="red"><polyline fill="#FFFFFF" points="139,54 188,54 188,91 134,91 134,50 139,50" stroke="#6d725c" /></g><g id="4Y11" stroke="red"><polyline fill="#FFFFFF" points="134,220 134,113 286,113 286,220" stroke="#6d725c" /></g><g id="4Y12" stroke="red"><polyline fill="#FFFFFF" points="309,292 309,177 454,177 454,292" stroke="#6d725c" /></g><g id="4Y13" stroke="red"><polyline fill="#FFFFFF" points="134,336 134,237 286,237 286,336" stroke="#6d725c" /></g></svg>