<?xml version="1.0" encoding="utf-8" ?>
<svg baseProfile="full" height="553" version="1.1" width="800" xmlns="http://www.w3.org/2000/svg" xmlns:ev="http://www.w3.org/2001/xml-events" xmlns:xlink="http://www.w3.org/1999/xlink"><defs /><g id="4Y01" stroke="red"><polyline fill="#FFFFFF" points="21,182 21,100 71,100 112,113 112,182" stroke="#6d725c" /></g><g id="4Y02" stroke="red"><polyline fill="#FFFFFF" points="21,309 21,182 112,182 112,309" stroke="#6d725c" /></g><g id="4Y03" stroke="red"><polyline fill="#FFFFFF" points="112,309 112,428 21,428 21,309" stroke="#6d725c" /></g><g id="4Y05" stroke="red"><polyline fill="#FFFFFF" points="286,434 617,434 636,450 636,477 605,477 605,505 587,505 587,510 548,510 548,505 514,505 514,510 483,510 483,478 386,478 386,505 370,505 369,505 369,510 330,510 330,505 297,505 297,510 257,510 257,505 237,505 237,510 218,510 218,502 152,502 152,479 134,479 134,353 286,353" stroke="#6d725c" /></g><g id="4Y06A" stroke="red"><polyline fill="#FFFFFF" points="786,59 746,59 746,153 680,153 680,197 658,197 658,220 485,220 485,114 493,114 493,18 662,18 662,22 679,22 679,18 786,18" stroke="#6d725c" /></g><g id="4Y06B" stroke="red"><polyline fill="#FFFFFF" points="658,285 787,285 787,434 646,434 624,415 485,415 485,242 658,242" stroke="#6d725c" /></g><g id="4Y09" stroke="red"><polyline fill="#FFFFFF" points="370,22 385,22 385,50 479,50 479,96 244,96 244,22 257,22 257,18 297,18 297,22 329,22 329,18 370,18" stroke="#6d725c" /></g><g id="4Y10" stroke="red"><polyline fill="#FFFFFF" points="139,54 188,54 188,91 134,91 134,50 139,50" stroke="#6d725c" /></g><g id="4Y11" stroke="red"><polyline fill="#FFFFFF" points="134,220 134,113 286,113 286,220" stroke="#6d725c" /></g><g id="4Y12" stroke="red"><polyline fill="#FFFFFF" points="309,292 309,177 454,177 454,292" stroke="#6d725c" /></g><g id="4Y13" stroke="red"><polyline fill="#FFFFFF" points="134,336 134,237 286,237 286,336" stroke="#6d725c" /></g></svg>