<?xml version="1.0" encoding="utf-8" ?>
<svg baseProfile="full" height="553" version="1.1" width="800" xmlns="http://www.w3.org/2000/svg" xmlns:ev="http://www.w3.org/2001/xml-events" xmlns:xlink="http://www.w3.org/1999/xlink"><defs /><g id="2A01" stroke="red"><polyline fill="#FFFFFF" points="254,180 254,181 254,181 254,181 254,182 254,182 253,182 253,182 253,183 252,183 252,183 228,183 228,162 228,140 254,140" stroke="#6d725c" /></g><g id="2A03" stroke="red"><polyline fill="#FFFFFF" points="318,151 293,151 270,151 270,150 270,148 270,146 271,144 271,142 272,140 274,139 275,137 276,136 278,135 280,134 317,118 318,118 318,118 319,118 319,118 319,118 320,118 320,119 320,119 321,120 321,120 321,151" stroke="#6d725c" /></g><g id="2A07" stroke="red"><polyline fill="#FFFFFF" points="277,108 277,115 277,116 270,116 254,140 228,140 228,130 237,130 237,95 277,95" stroke="#6d725c" /></g><g id="2A11" stroke="red"><polyline fill="#FFFFFF" points="277,116 277,115 277,108 277,95 277,24 320,24 320,97" stroke="#6d725c" /></g><g id="2A13" stroke="red"><polyline fill="#FFFFFF" points="336,90 320,97 320,24 371,24 371,90" stroke="#6d725c" /></g><g id="2A14" stroke="red"><polyline fill="#FFFFFF" points="339,127 339,127 338,127 338,127 338,127 337,126 337,126 337,126 337,125 337,125 337,125 337,108 406,108 406,109 406,127" stroke="#6d725c" /></g><g id="2A15" stroke="red"><polyline fill="#FFFFFF" points="371,24 406,24 406,46 406,90 371,90" stroke="#6d725c" /></g><g id="2A16" stroke="red"><polyline fill="#FFFFFF" points="406,109 406,108 476,108 476,125 476,125 476,125 476,126 475,126 475,126 475,127 475,127 474,127 474,127 473,127 406,127" stroke="#6d725c" /></g><g id="2A17" stroke="red"><polyline fill="#FFFFFF" points="407,90 407,49 440,49 440,51 440,90" stroke="#6d725c" /></g><g id="2A19" stroke="red"><polyline fill="#FFFFFF" points="440,90 440,51 440,49 472,49 472,51 472,90" stroke="#6d725c" /></g><g id="2A21" stroke="red"><polyline fill="#FFFFFF" points="472,51 472,49 505,49 505,51 505,88 505,88 505,88 505,89 504,89 504,89 504,90 503,90 503,90 503,90 502,90 472,90" stroke="#6d725c" /></g><g id="2A22" stroke="red"><polyline fill="#FFFFFF" points="495,145 495,111 495,110 495,110 495,109 495,109 495,109 496,109 496,108 496,108 497,108 497,108 535,108 535,145" stroke="#6d725c" /></g><g id="2A23" stroke="red"><polyline fill="#FFFFFF" points="523,90 522,90 522,90 522,90 521,90 521,89 521,89 520,89 520,88 520,88 520,88 520,51 520,49 563,49 563,51 563,90" stroke="#6d725c" /></g><g id="2A24" stroke="red"><polyline fill="#FFFFFF" points="535,145 535,108 562,108 563,108 563,108 563,108 564,109 564,109 564,109 564,109 565,110 565,110 565,111 565,145" stroke="#6d725c" /></g><g id="2A25" stroke="red"><polyline fill="#FFFFFF" points="563,90 563,51 563,49 606,49 606,51 606,90" stroke="#6d725c" /></g><g id="2A26" stroke="red"><polyline fill="#FFFFFF" points="580,145 580,111 580,110 580,110 580,109 580,109 581,109 581,109 581,108 582,108 582,108 583,108 615,108 615,145" stroke="#6d725c" /></g><g id="2A27" stroke="red"><polyline fill="#FFFFFF" points="606,90 606,51 606,49 606,24 619,24 637,24 637,90" stroke="#6d725c" /></g><g id="2A28" stroke="red"><polyline fill="#FFFFFF" points="615,145 615,108 647,108 648,108 648,108 649,108 649,109 649,109 650,109 650,109 650,110 650,110 650,111 650,145" stroke="#6d725c" /></g><g id="2A29" stroke="red"><polyline fill="#FFFFFF" points="669,90 637,90 637,24 657,24 669,24 669,49" stroke="#6d725c" /></g><g id="2A30" stroke="red"><polyline fill="#FFFFFF" points="668,142 668,108 711,108 711,142" stroke="#6d725c" /></g><g id="2B02" stroke="red"><polyline fill="#FFFFFF" points="228,237 228,232 228,196 252,196 252,196 253,197 253,197 253,197 254,197 254,197 254,198 254,198 254,199 254,199 254,237" stroke="#6d725c" /></g><g id="2B03" stroke="red"><polyline fill="#FFFFFF" points="293,151 318,151 321,151 321,180 321,181 320,181 320,181 320,182 320,182 320,182 319,182 319,183 318,183 318,183 272,183 272,183 271,183 271,182 271,182 270,182 270,182 270,181 270,181 270,181 270,180 270,151" stroke="#6d725c" /></g><g id="2B04" stroke="red"><polyline fill="#FFFFFF" points="289,227 289,196 318,196 318,196 319,196 319,197 320,197 320,197 320,197 320,198 320,198 321,198 321,199 321,227" stroke="#6d725c" /></g><g id="2B10" stroke="red"><polyline fill="#FFFFFF" points="336,227 336,197 367,197 367,227" stroke="#6d725c" /></g><g id="2B11" stroke="red"><polyline fill="#FFFFFF" points="337,183 337,167 337,167 337,166 337,166 337,165 337,165 338,165 338,165 338,165 339,164 339,164 406,164 406,183" stroke="#6d725c" /></g><g id="2B12" stroke="red"><polyline fill="#FFFFFF" points="367,227 367,197 406,197 406,227" stroke="#6d725c" /></g><g id="2B13" stroke="red"><polyline fill="#FFFFFF" points="406,164 473,164 474,164 474,165 475,165 475,165 475,165 475,165 476,166 476,166 476,167 476,167 476,183 474,183 406,183" stroke="#6d725c" /></g><g id="2B14" stroke="red"><polyline fill="#FFFFFF" points="406,227 406,197 441,197 441,227" stroke="#6d725c" /></g><g id="2B16" stroke="red"><polyline fill="#FFFFFF" points="441,227 441,197 477,197 477,227" stroke="#6d725c" /></g><g id="2B17" stroke="red"><polyline fill="#FFFFFF" points="497,183 497,183 496,183 496,182 496,182 495,182 495,182 495,181 495,181 495,181 495,180 495,145 535,145 535,183" stroke="#6d725c" /></g><g id="2B18" stroke="red"><polyline fill="#FFFFFF" points="497,257 497,257 496,257 496,257 496,257 495,257 495,256 495,256 495,256 495,255 495,255 495,200 495,199 495,199 495,199 495,198 495,198 496,198 496,197 496,197 497,197 497,197 562,197 563,197 563,197 563,197 564,198 564,198 564,198 564,199 565,199 565,199 565,200 565,255 565,255 565,256 564,256 564,256 564,257 564,257 563,257 563,257 563,257 562,257" stroke="#6d725c" /></g><g id="2B19" stroke="red"><polyline fill="#FFFFFF" points="535,145 565,145 565,180 565,181 565,181 564,181 564,182 564,182 564,182 563,182 563,183 563,183 562,183 535,183" stroke="#6d725c" /></g><g id="2B21" stroke="red"><polyline fill="#FFFFFF" points="583,183 582,183 582,183 581,182 581,182 581,182 580,182 580,181 580,181 580,181 580,180 580,145 615,145 615,183" stroke="#6d725c" /></g><g id="2B22" stroke="red"><polyline fill="#FFFFFF" points="580,227 580,200 580,199 580,199 580,199 580,198 581,198 581,198 581,197 582,197 582,197 583,197 615,197 615,227" stroke="#6d725c" /></g><g id="2B23" stroke="red"><polyline fill="#FFFFFF" points="615,145 650,145 650,180 650,181 650,181 650,181 650,182 649,182 649,182 649,182 648,183 648,183 647,183 615,183" stroke="#6d725c" /></g><g id="2B24" stroke="red"><polyline fill="#FFFFFF" points="615,227 615,197 647,197 648,197 648,197 649,197 649,198 649,198 650,198 650,199 650,199 650,199 650,200 650,227" stroke="#6d725c" /></g><g id="2B25A" stroke="red"><polyline fill="#FFFFFF" points="668,162 668,142 711,142 711,162 687,162" stroke="#6d725c" /></g><g id="2B25B" stroke="red"><polyline fill="#FFFFFF" points="687,162 687,197 668,197 668,162" stroke="#6d725c" /></g><g id="2C01" stroke="red"><polyline fill="#FFFFFF" points="228,278 228,237 254,237 254,278" stroke="#6d725c" /></g><g id="2C02" stroke="red"><polyline fill="#FFFFFF" points="289,227 321,227 321,255 321,255 320,256 320,256 320,256 320,257 320,257 319,257 319,257 318,257 318,257 289,257" stroke="#6d725c" /></g><g id="2C03" stroke="red"><polyline fill="#FFFFFF" points="289,257 272,257 272,257 271,257 271,257 271,257 270,257 270,256 270,256 270,256 270,255 270,255 270,196 289,196 289,227" stroke="#6d725c" /></g><g id="2C04" stroke="red"><polyline fill="#FFFFFF" points="228,318 228,278 254,278 254,318" stroke="#6d725c" /></g><g id="2C05" stroke="red"><polyline fill="#FFFFFF" points="272,327 272,327 271,327 271,326 271,326 270,326 270,326 270,325 270,325 270,325 270,324 270,275 270,275 270,274 270,274 270,274 270,273 271,273 271,273 271,273 272,273 272,273 318,273 318,273 319,273 319,273 320,273 320,273 320,274 320,274 320,274 321,275 321,275 321,324 321,325 320,325 320,325 320,326 320,326 320,326 319,326 319,327 318,327 318,327" stroke="#6d725c" /></g><g id="2C11" stroke="red"><polyline fill="#FFFFFF" points="338,257 336,257 336,227 367,227 367,257" stroke="#6d725c" /></g><g id="2C12" stroke="red"><polyline fill="#FFFFFF" points="406,289 337,289 336,289 336,275 336,275 336,275 336,274 336,274 337,274 337,273 337,273 338,273 338,273 338,273 406,273 406,273" stroke="#6d725c" /></g><g id="2C13" stroke="red"><polyline fill="#FFFFFF" points="367,257 367,227 406,227 406,257" stroke="#6d725c" /></g><g id="2C14" stroke="red"><polyline fill="#FFFFFF" points="406,273 474,273 475,273 475,273 475,273 476,273 476,274 476,274 477,274 477,275 477,275 477,275 477,289 406,289" stroke="#6d725c" /></g><g id="2C15" stroke="red"><polyline fill="#FFFFFF" points="406,257 406,227 441,227 441,257" stroke="#6d725c" /></g><g id="2C17" stroke="red"><polyline fill="#FFFFFF" points="441,227 477,227 477,257 474,257 441,257" stroke="#6d725c" /></g><g id="2C20" stroke="red"><polyline fill="#FFFFFF" points="497,327 497,327 496,327 496,326 496,326 495,326 495,326 495,325 495,325 495,325 495,324 495,275 495,275 495,275 495,274 495,274 495,274 496,273 496,273 496,273 497,273 497,273 562,273 563,273 563,273 563,273 564,273 564,274 564,274 564,274 565,275 565,275 565,275 565,324 565,325 565,325 564,325 564,326 564,326 564,326 563,326 563,327 563,327 562,327" stroke="#6d725c" /></g><g id="2C23" stroke="red"><polyline fill="#FFFFFF" points="583,257 582,257 582,257 581,257 581,257 581,257 580,256 580,256 580,256 580,255 580,255 580,227 615,227 615,257" stroke="#6d725c" /></g><g id="2C24A" stroke="red"><polyline fill="#FFFFFF" points="580,300 580,275 580,275 580,275 580,274 580,274 581,274 581,273 581,273 582,273 582,273 583,273 615,273 615,300" stroke="#6d725c" /></g><g id="2C24B" stroke="red"><polyline fill="#FFFFFF" points="615,300 615,273 649,273 649,300" stroke="#6d725c" /></g><g id="2C25" stroke="red"><polyline fill="#FFFFFF" points="615,227 650,227 650,255 650,255 650,256 650,256 650,256 649,257 649,257 649,257 648,257 648,257 647,257 615,257" stroke="#6d725c" /></g><g id="2C26" stroke="red"><polyline fill="#FFFFFF" points="665,300 665,273 699,273 700,273 701,273 702,273 702,274 703,274 703,275 704,276 704,276 704,277 704,278 704,300" stroke="#6d725c" /></g><g id="2C30" stroke="red"><polyline fill="#FFFFFF" points="722,293 722,269 722,268 722,268 722,267 723,267 723,267 723,266 724,266 724,266 724,266 725,266 759,266 759,252 773,252 773,293" stroke="#6d725c" /></g><g id="2D01" stroke="red"><polyline fill="#FFFFFF" points="228,359 228,318 254,318 254,359" stroke="#6d725c" /></g><g id="2D03" stroke="red"><polyline fill="#FFFFFF" points="275,399 274,399 273,399 272,399 272,398 271,398 271,397 270,396 270,396 270,395 270,394 270,347 270,346 270,345 270,345 271,344 271,343 272,343 272,342 273,342 274,342 275,342 316,342 316,342 317,342 318,342 319,343 319,343 320,344 320,345 320,345 321,346 321,347 321,394 321,395 320,396 320,396 320,397 319,398 319,398 318,399 317,399 316,399 316,399" stroke="#6d725c" /></g><g id="2D09" stroke="red"><polyline fill="#FFFFFF" points="336,356 335,356 335,356 335,356 334,356 334,355 334,355 334,355 333,354 333,354 333,354 333,315 333,315 333,314 334,314 334,314 334,313 334,313 335,313 335,313 335,313 336,313 346,313 346,356" stroke="#6d725c" /></g><g id="2D11" stroke="red"><polyline fill="#FFFFFF" points="462,356 462,313 477,313 477,313 478,313 478,313 478,313 479,313 479,314 479,314 479,314 479,315 479,315 479,354 479,354 479,354 479,355 479,355 479,355 478,356 478,356 478,356 477,356 477,356" stroke="#6d725c" /></g><g id="2D16" stroke="red"><polyline fill="#FFFFFF" points="497,399 497,399 496,399 496,399 496,399 495,399 495,398 495,398 495,398 495,397 495,397 495,345 495,344 495,344 495,343 495,343 495,343 496,342 496,342 496,342 497,342 497,342 562,342 563,342 563,342 563,342 564,342 564,343 564,343 564,343 565,344 565,344 565,345 565,397 565,397 565,398 564,398 564,398 564,399 564,399 563,399 563,399 563,399 562,399" stroke="#6d725c" /></g><g id="2D17A" stroke="red"><polyline fill="#FFFFFF" points="583,327 582,327 582,327 581,326 581,326 581,326 580,326 580,325 580,325 580,325 580,324 580,300 615,300 615,327" stroke="#6d725c" /></g><g id="2D17B" stroke="red"><polyline fill="#FFFFFF" points="615,300 649,300 649,327 615,327" stroke="#6d725c" /></g><g id="2D18" stroke="red"><polyline fill="#FFFFFF" points="646,375 615,375 580,375 580,345 580,344 580,344 580,343 580,343 581,343 581,342 581,342 582,342 582,342 583,342 649,342 649,375" stroke="#6d725c" /></g><g id="2D19" stroke="red"><polyline fill="#FFFFFF" points="704,300 704,324 704,325 704,325 704,325 704,326 704,326 703,326 703,326 703,327 702,327 702,327 665,327 665,300" stroke="#6d725c" /></g><g id="2D20" stroke="red"><polyline fill="#FFFFFF" points="665,375 665,342 702,342 702,342 703,342 703,342 703,342 704,343 704,343 704,343 704,344 704,344 704,345 704,375" stroke="#6d725c" /></g><g id="2D23" stroke="red"><polyline fill="#FFFFFF" points="722,334 722,293 773,293 773,334" stroke="#6d725c" /></g><g id="2D24" stroke="red"><polyline fill="#FFFFFF" points="722,362 722,334 773,334 773,362" stroke="#6d725c" /></g><g id="2D26" stroke="red"><polyline fill="#FFFFFF" points="773,362 773,417 759,417 759,402 725,402 724,402 724,402 724,402 723,401 723,401 723,401 722,400 722,400 722,400 722,399 722,362" stroke="#6d725c" /></g><g id="2E01" stroke="red"><polyline fill="#FFFFFF" points="228,359 254,359 254,397 254,397 254,398 254,398 254,398 254,399 253,399 253,399 253,399 252,399 252,399 228,399" stroke="#6d725c" /></g><g id="2E02" stroke="red"><polyline fill="#FFFFFF" points="228,462 228,417 254,417 254,462" stroke="#6d725c" /></g><g id="2E06" stroke="red"><polyline fill="#FFFFFF" points="271,465 271,470 254,470 254,462 254,417 289,417 289,465" stroke="#6d725c" /></g><g id="2E08" stroke="red"><polyline fill="#FFFFFF" points="325,465 325,470 289,470 289,465 289,417 337,417 337,465" stroke="#6d725c" /></g><g id="2E11" stroke="red"><polyline fill="#FFFFFF" points="338,399 338,399 338,399 337,399 337,399 337,399 336,398 336,398 336,398 336,397 336,397 336,380 406,380 406,399" stroke="#6d725c" /></g><g id="2E12A" stroke="red"><polyline fill="#FFFFFF" points="355,470 355,465 337,465 337,417 372,417 372,417 372,470" stroke="#6d725c" /></g><g id="2E12B" stroke="red"><polyline fill="#FFFFFF" points="372,417 406,417 406,465 391,465 391,470 372,470" stroke="#6d725c" /></g><g id="2E13" stroke="red"><polyline fill="#FFFFFF" points="406,380 476,380 477,380 477,397 477,397 477,398 477,398 476,398 476,399 476,399 475,399 475,399 475,399 474,399 406,399" stroke="#6d725c" /></g><g id="2E14" stroke="red"><polyline fill="#FFFFFF" points="408,440 408,417 473,417 473,417 474,417 474,417 475,418 475,418 475,418 475,419 475,419 476,419 476,420 476,440" stroke="#6d725c" /></g><g id="2E16" stroke="red"><polyline fill="#FFFFFF" points="524,470 495,470 495,444 495,440 491,440 491,420 491,419 491,419 491,419 491,418 492,418 492,418 492,417 493,417 493,417 493,417 524,417 524,465" stroke="#6d725c" /></g><g id="2E18" stroke="red"><polyline fill="#FFFFFF" points="524,465 524,417 554,417 554,465" stroke="#6d725c" /></g><g id="2E19A" stroke="red"><polyline fill="#FFFFFF" points="585,399 584,399 584,399 583,399 582,398 581,398 581,397 581,397 580,396 580,395 580,394 580,375 615,375 615,399" stroke="#6d725c" /></g><g id="2E19B" stroke="red"><polyline fill="#FFFFFF" points="649,394 649,395 649,396 649,397 648,397 648,398 647,398 647,399 646,399 645,399 644,399 615,399 615,375 646,375 649,375" stroke="#6d725c" /></g><g id="2E20" stroke="red"><polyline fill="#FFFFFF" points="590,470 554,470 554,465 554,417 590,417 590,465" stroke="#6d725c" /></g><g id="2E21" stroke="red"><polyline fill="#FFFFFF" points="704,375 704,397 704,397 704,398 704,398 704,398 704,399 703,399 703,399 703,399 702,399 702,399 665,399 665,375" stroke="#6d725c" /></g><g id="2E22" stroke="red"><polyline fill="#FFFFFF" points="607,439 607,465 590,465 590,417 614,417 614,439" stroke="#6d725c" /></g><g id="2E24" stroke="red"><polyline fill="#FFFFFF" points="614,417 634,417 634,439 614,439" stroke="#6d725c" /></g><g id="2Y01" stroke="red"><polyline fill="#FFFFFF" points="228,183 228,183 228,196 228,232 152,232 152,94 119,94 119,49 182,49 182,21 228,21 228,162" stroke="#6d725c" /></g><g id="2Y02" stroke="red"><polyline fill="#FFFFFF" points="228,278 228,318 228,359 228,399 228,417 228,462 193,462 193,441 155,441 155,395 152,395 152,232 228,232 228,237 228,237" stroke="#6d725c" /></g><g id="2Y03" stroke="red"><polyline fill="#FFFFFF" points="669,49 711,49 711,90 669,90" stroke="#6d725c" /></g></svg>