<?xml version="1.0" encoding="utf-8" ?>
<svg baseProfile="full" height="553" version="1.1" width="800" xmlns="http://www.w3.org/2000/svg" xmlns:ev="http://www.w3.org/2001/xml-events" xmlns:xlink="http://www.w3.org/1999/xlink"><defs /><g id="2A01" stroke="red"><polyline fill="#ebf7d1" points="220,174 220,154 246,154 246,193 246,193 246,193 246,194 245,194 245,194 245,195 245,195 244,195 244,195 243,195 220,195" stroke="#6d725c" /></g><g id="2A03" stroke="red"><polyline fill="#ebf7d1" points="308,164 284,164 261,164 261,163 261,161 261,159 262,157 263,155 263,154 265,152 266,151 267,150 269,149 271,148 307,132 307,132 308,132 308,132 309,132 309,132 309,133 310,133 310,133 310,134 310,134 310,164" stroke="#6d725c" /></g><g id="2A07" stroke="red"><polyline fill="#ebf7d1" points="261,130 257,135 229,135 229,110 268,110 268,123 268,129 268,130" stroke="#6d725c" /></g><g id="2A11" stroke="red"><polyline fill="#ebf7d1" points="268,130 268,129 268,123 268,110 268,41 309,41 309,112" stroke="#6d725c" /></g><g id="2A13" stroke="red"><polyline fill="#ebf7d1" points="325,105 309,112 309,41 330,41 342,41 359,41 359,105" stroke="#6d725c" /></g><g id="2A14" stroke="red"><polyline fill="#ebf7d1" points="328,141 328,141 328,141 327,141 327,141 327,140 326,140 326,140 326,139 326,139 326,139 326,123 393,123 393,123 393,139 393,141" stroke="#6d725c" /></g><g id="2A15" stroke="red"><polyline fill="#ebf7d1" points="359,41 393,41 393,67 393,105 359,105" stroke="#6d725c" /></g><g id="2A16" stroke="red"><polyline fill="#ebf7d1" points="393,139 393,123 393,123 461,123 461,139 461,139 461,139 461,140 461,140 460,140 460,141 460,141 459,141 459,141 459,141 393,141" stroke="#6d725c" /></g><g id="2A17" stroke="red"><polyline fill="#ebf7d1" points="394,105 394,67 426,67 426,105" stroke="#6d725c" /></g><g id="2A19" stroke="red"><polyline fill="#ebf7d1" points="426,105 426,67 457,67 457,105" stroke="#6d725c" /></g><g id="2A21" stroke="red"><polyline fill="#ebf7d1" points="457,67 476,67 489,67 489,103 489,103 489,103 489,104 489,104 488,104 488,105 488,105 487,105 487,105 487,105 457,105" stroke="#6d725c" /></g><g id="2A22" stroke="red"><polyline fill="#ebf7d1" points="479,159 479,125 479,125 479,124 479,124 480,124 480,123 480,123 480,123 481,123 481,123 482,123 519,123 519,159" stroke="#6d725c" /></g><g id="2A23" stroke="red"><polyline fill="#ebf7d1" points="506,105 506,105 506,105 505,105 505,105 505,104 504,104 504,104 504,103 504,103 504,103 504,67 545,67 545,105" stroke="#6d725c" /></g><g id="2A24" stroke="red"><polyline fill="#ebf7d1" points="519,159 519,123 545,123 545,123 545,123 546,123 546,123 546,123 547,124 547,124 547,124 547,125 547,125 547,159" stroke="#6d725c" /></g><g id="2A25" stroke="red"><polyline fill="#ebf7d1" points="545,105 545,67 587,67 587,105" stroke="#6d725c" /></g><g id="2A26" stroke="red"><polyline fill="#ebf7d1" points="562,159 562,125 562,125 562,124 562,124 562,124 563,123 563,123 563,123 564,123 564,123 564,123 596,123 596,159" stroke="#6d725c" /></g><g id="2A27" stroke="red"><polyline fill="#ebf7d1" points="587,105 587,67 587,41 600,41 618,41 618,105" stroke="#6d725c" /></g><g id="2A28" stroke="red"><polyline fill="#ebf7d1" points="596,159 596,123 627,123 628,123 628,123 629,123 629,123 629,123 629,124 630,124 630,124 630,125 630,125 630,159" stroke="#6d725c" /></g><g id="2A29" stroke="red"><polyline fill="#ebf7d1" points="648,105 618,105 618,41 637,41 648,41 648,66" stroke="#6d725c" /></g><g id="2A30" stroke="red"><polyline fill="#ebf7d1" points="647,155 647,123 689,123 689,155" stroke="#6d725c" /></g><g id="2B02" stroke="red"><polyline fill="#ebf7d1" points="220,248 220,243 220,208 243,208 244,208 244,208 245,209 245,209 245,209 246,209 246,210 246,210 246,210 246,211 246,248" stroke="#6d725c" /></g><g id="2B03" stroke="red"><polyline fill="#ebf7d1" points="284,164 308,164 310,164 310,193 310,193 310,193 310,194 310,194 309,194 309,195 309,195 309,195 308,195 308,195 263,195 263,195 262,195 262,195 262,195 261,194 261,194 261,194 261,193 261,193 261,193 261,164" stroke="#6d725c" /></g><g id="2B04" stroke="red"><polyline fill="#ebf7d1" points="280,238 280,208 308,208 308,208 309,208 309,208 309,209 309,209 310,209 310,210 310,210 310,210 310,211 310,238" stroke="#6d725c" /></g><g id="2B10" stroke="red"><polyline fill="#ebf7d1" points="325,238 325,209 356,209 356,238" stroke="#6d725c" /></g><g id="2B11" stroke="red"><polyline fill="#ebf7d1" points="326,195 326,180 326,179 326,179 326,179 326,178 327,178 327,178 327,177 328,177 328,177 328,177 393,177 393,179 393,195" stroke="#6d725c" /></g><g id="2B12" stroke="red"><polyline fill="#ebf7d1" points="356,238 356,209 393,209 393,238" stroke="#6d725c" /></g><g id="2B13" stroke="red"><polyline fill="#ebf7d1" points="393,179 393,177 459,177 459,177 459,177 460,177 460,178 460,178 461,178 461,179 461,179 461,179 461,180 461,184 461,195 459,195 393,195" stroke="#6d725c" /></g><g id="2B14" stroke="red"><polyline fill="#ebf7d1" points="393,238 393,209 427,209 427,238" stroke="#6d725c" /></g><g id="2B16" stroke="red"><polyline fill="#ebf7d1" points="427,238 427,209 461,209 462,209 462,238" stroke="#6d725c" /></g><g id="2B17" stroke="red"><polyline fill="#ebf7d1" points="482,195 481,195 481,195 480,195 480,195 480,194 480,194 479,194 479,193 479,193 479,193 479,159 519,159 519,195" stroke="#6d725c" /></g><g id="2B18" stroke="red"><polyline fill="#ebf7d1" points="482,268 481,268 481,267 480,267 480,267 480,267 480,267 479,266 479,266 479,265 479,265 479,212 479,211 479,211 479,210 480,210 480,210 480,210 480,209 481,209 481,209 482,209 545,209 545,209 545,209 546,209 546,210 546,210 547,210 547,210 547,211 547,211 547,212 547,265 547,265 547,266 547,266 547,267 546,267 546,267 546,267 545,267 545,268 545,268" stroke="#6d725c" /></g><g id="2B19" stroke="red"><polyline fill="#ebf7d1" points="519,159 547,159 547,193 547,193 547,193 547,194 547,194 546,194 546,195 546,195 545,195 545,195 545,195 519,195" stroke="#6d725c" /></g><g id="2B21" stroke="red"><polyline fill="#ebf7d1" points="564,195 564,195 564,195 563,195 563,195 563,194 562,194 562,194 562,193 562,193 562,193 562,159 596,159 596,195" stroke="#6d725c" /></g><g id="2B22" stroke="red"><polyline fill="#ebf7d1" points="562,238 562,212 562,211 562,211 562,210 562,210 563,210 563,210 563,209 564,209 564,209 564,209 596,209 596,238" stroke="#6d725c" /></g><g id="2B23" stroke="red"><polyline fill="#ebf7d1" points="596,159 630,159 630,193 630,193 630,193 630,194 629,194 629,194 629,195 629,195 628,195 628,195 627,195 596,195" stroke="#6d725c" /></g><g id="2B24" stroke="red"><polyline fill="#ebf7d1" points="596,238 596,209 627,209 628,209 628,209 629,209 629,210 629,210 629,210 630,210 630,211 630,211 630,212 630,238" stroke="#6d725c" /></g><g id="2B25A" stroke="red"><polyline fill="#ebf7d1" points="647,174 647,155 689,155 689,174 666,174" stroke="#6d725c" /></g><g id="2B25B" stroke="red"><polyline fill="#ebf7d1" points="666,174 666,209 647,209 647,174" stroke="#6d725c" /></g><g id="2C01" stroke="red"><polyline fill="#ebf7d1" points="220,287 220,248 246,248 246,287" stroke="#6d725c" /></g><g id="2C02" stroke="red"><polyline fill="#ebf7d1" points="280,238 310,238 310,265 310,265 310,266 310,266 310,266 309,267 309,267 309,267 309,267 308,267 308,267 280,267" stroke="#6d725c" /></g><g id="2C03" stroke="red"><polyline fill="#ebf7d1" points="280,267 263,267 263,267 262,267 262,267 262,267 261,267 261,266 261,266 261,266 261,265 261,265 261,208 280,208 280,238" stroke="#6d725c" /></g><g id="2C04" stroke="red"><polyline fill="#ebf7d1" points="220,326 220,287 246,287 246,326" stroke="#6d725c" /></g><g id="2C05" stroke="red"><polyline fill="#ebf7d1" points="263,335 263,335 262,335 262,334 262,334 261,334 261,334 261,333 261,333 261,333 261,332 261,285 261,284 261,284 261,284 261,283 261,283 262,283 262,283 262,282 263,282 263,282 308,282 308,282 309,282 309,283 309,283 309,283 310,283 310,284 310,284 310,284 310,285 310,332 310,333 310,333 310,333 310,334 309,334 309,334 309,334 309,335 308,335 308,335" stroke="#6d725c" /></g><g id="2C11" stroke="red"><polyline fill="#ebf7d1" points="328,268 325,268 325,265 325,238 356,238 356,268" stroke="#6d725c" /></g><g id="2C12" stroke="red"><polyline fill="#ebf7d1" points="393,298 326,298 325,298 325,285 325,284 325,284 325,284 326,283 326,283 326,283 326,283 327,283 327,282 328,282 393,282 393,282" stroke="#6d725c" /></g><g id="2C13" stroke="red"><polyline fill="#ebf7d1" points="356,268 356,238 393,238 393,268" stroke="#6d725c" /></g><g id="2C14" stroke="red"><polyline fill="#ebf7d1" points="393,282 459,282 460,282 460,283 460,283 461,283 461,283 461,283 462,284 462,284 462,284 462,285 462,298 393,298" stroke="#6d725c" /></g><g id="2C15" stroke="red"><polyline fill="#ebf7d1" points="393,268 393,238 427,238 427,268" stroke="#6d725c" /></g><g id="2C17" stroke="red"><polyline fill="#ebf7d1" points="427,238 462,238 462,265 462,268 459,268 427,268" stroke="#6d725c" /></g><g id="2C20" stroke="red"><polyline fill="#ebf7d1" points="482,335 481,335 481,335 480,334 480,334 480,334 480,334 479,333 479,333 479,333 479,332 479,285 479,284 479,284 479,284 480,283 480,283 480,283 480,283 481,282 481,282 482,282 545,282 545,282 545,282 546,283 546,283 546,283 547,283 547,284 547,284 547,284 547,285 547,332 547,333 547,333 547,333 547,334 546,334 546,334 546,334 545,335 545,335 545,335" stroke="#6d725c" /></g><g id="2C23" stroke="red"><polyline fill="#ebf7d1" points="564,268 564,268 564,267 563,267 563,267 563,267 562,267 562,266 562,266 562,265 562,265 562,238 596,238 596,268" stroke="#6d725c" /></g><g id="2C24A" stroke="red"><polyline fill="#ebf7d1" points="562,309 562,285 562,284 562,284 562,284 562,283 563,283 563,283 563,283 564,282 564,282 564,282 596,282 596,309" stroke="#6d725c" /></g><g id="2C24B" stroke="red"><polyline fill="#ebf7d1" points="596,309 596,282 629,282 629,309" stroke="#6d725c" /></g><g id="2C25" stroke="red"><polyline fill="#ebf7d1" points="596,238 630,238 630,265 630,265 630,266 630,266 629,267 629,267 629,267 629,267 628,267 628,268 627,268 596,268" stroke="#6d725c" /></g><g id="2C26" stroke="red"><polyline fill="#ebf7d1" points="644,309 644,282 678,282 679,282 679,283 680,283 681,283 681,284 682,284 682,285 682,286 683,287 683,287 683,309" stroke="#6d725c" /></g><g id="2C30" stroke="red"><polyline fill="#ebf7d1" points="700,302 700,279 700,279 700,278 700,278 700,278 701,277 701,277 701,277 702,277 702,277 702,277 735,277 735,262 749,262 749,302" stroke="#6d725c" /></g><g id="2D01" stroke="red"><polyline fill="#ebf7d1" points="220,366 220,326 246,326 246,366" stroke="#6d725c" /></g><g id="2D03" stroke="red"><polyline fill="#ebf7d1" points="266,405 265,405 264,405 263,405 263,404 262,404 262,403 261,402 261,402 261,401 261,400 261,354 261,354 261,353 261,352 262,352 262,351 263,350 263,350 264,350 265,350 266,349 305,349 306,350 307,350 308,350 308,350 309,351 309,352 310,352 310,353 310,354 310,354 310,400 310,401 310,402 310,402 309,403 309,404 308,404 308,405 307,405 306,405 305,405" stroke="#6d725c" /></g><g id="2D09" stroke="red"><polyline fill="#ebf7d1" points="325,363 325,363 324,363 324,363 324,363 323,362 323,362 323,362 323,362 323,361 323,361 323,323 323,323 323,323 323,322 323,322 323,322 324,321 324,321 324,321 325,321 325,321 335,321 335,363" stroke="#6d725c" /></g><g id="2D11" stroke="red"><polyline fill="#ebf7d1" points="448,363 448,321 462,321 462,321 463,321 463,321 463,321 464,322 464,322 464,322 464,323 464,323 464,323 464,361 464,361 464,362 464,362 464,362 464,362 463,363 463,363 463,363 462,363 462,363" stroke="#6d725c" /></g><g id="2D16" stroke="red"><polyline fill="#ebf7d1" points="482,405 481,405 481,405 480,405 480,405 480,404 480,404 479,404 479,403 479,403 479,403 479,352 479,352 479,351 479,351 480,351 480,350 480,350 480,350 481,350 481,350 482,350 545,350 545,350 545,350 546,350 546,350 546,350 547,351 547,351 547,351 547,352 547,352 547,403 547,403 547,403 547,404 547,404 546,404 546,405 546,405 545,405 545,405 545,405" stroke="#6d725c" /></g><g id="2D17A" stroke="red"><polyline fill="#ebf7d1" points="564,335 564,335 564,335 563,334 563,334 563,334 562,334 562,333 562,333 562,333 562,332 562,309 596,309 596,335" stroke="#6d725c" /></g><g id="2D17B" stroke="red"><polyline fill="#ebf7d1" points="596,309 629,309 629,335 596,335" stroke="#6d725c" /></g><g id="2D18" stroke="red"><polyline fill="#ebf7d1" points="594,381 562,381 562,352 562,352 562,351 562,351 562,351 563,350 563,350 563,350 564,350 564,350 564,350 626,350 626,365 626,381" stroke="#6d725c" /></g><g id="2D19" stroke="red"><polyline fill="#ebf7d1" points="683,309 683,332 683,333 683,333 682,333 682,334 682,334 682,334 681,334 681,335 681,335 680,335 644,335 644,309" stroke="#6d725c" /></g><g id="2D20" stroke="red"><polyline fill="#ebf7d1" points="644,381 644,350 680,350 681,350 681,350 681,350 682,350 682,350 682,351 682,351 683,351 683,352 683,352 683,381" stroke="#6d725c" /></g><g id="2D23" stroke="red"><polyline fill="#ebf7d1" points="700,342 700,302 749,302 749,342" stroke="#6d725c" /></g><g id="2D24" stroke="red"><polyline fill="#ebf7d1" points="700,369 700,342 749,342 749,369" stroke="#6d725c" /></g><g id="2D26" stroke="red"><polyline fill="#ebf7d1" points="749,369 749,422 735,422 735,408 702,408 702,408 702,408 701,407 701,407 701,407 700,407 700,406 700,406 700,406 700,405 700,369" stroke="#6d725c" /></g><g id="2E01" stroke="red"><polyline fill="#ebf7d1" points="220,366 246,366 246,403 246,403 246,403 246,404 245,404 245,404 245,405 245,405 244,405 244,405 243,405 220,405" stroke="#6d725c" /></g><g id="2E02" stroke="red"><polyline fill="#ebf7d1" points="220,466 220,422 245,422 245,466" stroke="#6d725c" /></g><g id="2E06" stroke="red"><polyline fill="#ebf7d1" points="262,469 262,474 245,474 245,466 245,422 280,422 280,469" stroke="#6d725c" /></g><g id="2E08" stroke="red"><polyline fill="#ebf7d1" points="314,469 314,474 280,474 280,469 280,422 326,422 326,469" stroke="#6d725c" /></g><g id="2E11" stroke="red"><polyline fill="#ebf7d1" points="328,405 327,405 327,405 326,405 326,405 326,404 326,404 325,404 325,403 325,403 325,403 325,386 393,386 393,405" stroke="#6d725c" /></g><g id="2E12A" stroke="red"><polyline fill="#ebf7d1" points="344,474 344,469 328,469 326,469 326,422 360,422 360,422 360,474" stroke="#6d725c" /></g><g id="2E12B" stroke="red"><polyline fill="#ebf7d1" points="360,422 393,422 393,444 393,469 379,469 379,474 360,474" stroke="#6d725c" /></g><g id="2E13" stroke="red"><polyline fill="#ebf7d1" points="393,386 461,386 462,386 462,386 462,403 462,403 462,403 462,404 461,404 461,404 461,405 460,405 460,405 460,405 459,405 393,405" stroke="#6d725c" /></g><g id="2E14" stroke="red"><polyline fill="#ebf7d1" points="395,444 395,422 458,422 459,423 459,423 459,423 460,423 460,423 460,423 460,424 460,424 461,425 461,425 461,444" stroke="#6d725c" /></g><g id="2E16" stroke="red"><polyline fill="#ebf7d1" points="507,474 479,474 479,444 477,444 475,444 475,425 475,425 476,424 476,424 476,423 476,423 476,423 477,423 477,423 478,423 478,422 507,422 507,469" stroke="#6d725c" /></g><g id="2E18" stroke="red"><polyline fill="#ebf7d1" points="507,469 507,422 537,422 537,469" stroke="#6d725c" /></g><g id="2E19A" stroke="red"><polyline fill="#ebf7d1" points="567,405 566,405 565,405 565,405 564,404 563,404 563,403 563,402 562,402 562,401 562,400 562,381 594,381 594,405" stroke="#6d725c" /></g><g id="2E19B" stroke="red"><polyline fill="#ebf7d1" points="626,400 626,401 626,402 626,402 625,403 625,404 624,404 623,405 623,405 622,405 621,405 594,405 594,381 626,381" stroke="#6d725c" /></g><g id="2E20" stroke="red"><polyline fill="#ebf7d1" points="571,469 571,474 537,474 537,469 537,422 571,422 571,444" stroke="#6d725c" /></g><g id="2E21" stroke="red"><polyline fill="#ebf7d1" points="683,381 683,403 683,403 683,403 682,404 682,404 682,404 682,405 681,405 681,405 681,405 680,405 644,405 644,381" stroke="#6d725c" /></g><g id="2E22" stroke="red"><polyline fill="#ebf7d1" points="572,444 571,444 571,422 614,422 614,444 588,444" stroke="#6d725c" /></g><g id="2E24" stroke="red"><polyline fill="#ebf7d1" points="571,444 572,444 588,444 588,469 571,469" stroke="#6d725c" /></g><g id="2Y01" stroke="red"><polyline fill="#ebf7d1" points="220,195 220,195 220,208 220,243 146,243 146,108 131,108 131,66 176,66 176,38 220,38 220,174" stroke="#6d725c" /></g><g id="2Y02" stroke="red"><polyline fill="#ebf7d1" points="220,287 220,326 220,366 220,405 220,422 220,466 187,466 187,446 150,446 150,401 146,401 146,243 220,243 220,248 220,248" stroke="#6d725c" /></g><g id="2Y03" stroke="red"><polyline fill="#ebf7d1" points="648,66 689,66 689,103 689,105 648,105" stroke="#6d725c" /></g></svg>