<?xml version="1.0" encoding="utf-8" ?>
<svg baseProfile="full" height="531" version="1.1" width="800" xmlns="http://www.w3.org/2000/svg" xmlns:ev="http://www.w3.org/2001/xml-events" xmlns:xlink="http://www.w3.org/1999/xlink"><defs /><g id="1A01" stroke="red"><polyline fill="#FFFFFF" points="82,109 77,109 77,55 98,55 98,109" stroke="#6d725c" /></g><g id="1A02" stroke="red"><polyline fill="#FFFFFF" points="102,190 102,166 161,166 161,166 161,167 162,167 162,167 162,167 162,167 163,168 163,168 163,168 163,169 163,190" stroke="#6d725c" /></g><g id="1A03" stroke="red"><polyline fill="#FFFFFF" points="162,99 201,99 201,142 248,142 248,128 304,128 304,163 177,163 162,139" stroke="#6d725c" /></g><g id="1A04" stroke="red"><polyline fill="#FFFFFF" points="180,203 180,179 180,179 180,179 180,178 180,178 180,178 181,177 181,177 181,177 182,177 182,177 231,177 231,177 231,177 232,177 232,177 232,178 233,178 233,178 233,179 233,179 233,179 233,203" stroke="#6d725c" /></g><g id="1A05" stroke="red"><polyline fill="#FFFFFF" points="387,31 399,31 400,31 400,57 489,57 489,111 467,111 467,147 398,147 398,132 336,132 336,126 309,98 278,98 278,31 290,31 290,28 324,28 324,31 352,31 352,28 359,28 360,28 361,28 387,28" stroke="#6d725c" /></g><g id="1A06" stroke="red"><polyline fill="#FFFFFF" points="248,206 248,179 248,179 248,179 248,178 248,178 249,177 249,177 249,177 250,177 250,177 250,177 315,177 315,177 315,177 316,177 316,177 316,177 317,178 317,178 317,178 317,179 317,179 317,206" stroke="#6d725c" /></g><g id="1A25" stroke="red"><polyline fill="#FFFFFF" points="487,234 487,234 487,234 486,234 486,234 486,233 485,233 485,233 485,232 485,232 485,232 485,179 485,179 485,178 485,178 485,178 486,177 486,177 486,177 487,177 487,177 487,177 586,177 586,234" stroke="#6d725c" /></g><g id="1A27" stroke="red"><polyline fill="#FFFFFF" points="586,177 628,177 628,262 586,262 586,234" stroke="#6d725c" /></g><g id="1B02" stroke="red"><polyline fill="#FFFFFF" points="334,203 334,177 400,177 400,203" stroke="#6d725c" /></g><g id="1B04" stroke="red"><polyline fill="#FFFFFF" points="400,203 400,177 468,177 468,203" stroke="#6d725c" /></g><g id="1C01A" stroke="red"><polyline fill="#FFFFFF" points="150,203 163,203 163,217 161,217 150,217" stroke="#6d725c" /></g><g id="1C01B" stroke="red"><polyline fill="#FFFFFF" points="150,203 150,217 102,217 102,190 163,190 163,203" stroke="#6d725c" /></g><g id="1C02" stroke="red"><polyline fill="#FFFFFF" points="102,294 102,288 102,281 102,266 161,266 161,266 161,266 162,266 162,266 162,267 162,267 163,267 163,268 163,268 163,268 163,270 163,294" stroke="#6d725c" /></g><g id="1C03" stroke="red"><polyline fill="#FFFFFF" points="233,203 233,232 233,232 233,232 233,233 233,233 232,233 232,234 232,234 231,234 231,234 231,234 182,234 182,234 182,234 181,234 181,234 181,233 180,233 180,233 180,232 180,232 180,232 180,203" stroke="#6d725c" /></g><g id="1C04" stroke="red"><polyline fill="#FFFFFF" points="180,288 180,253 180,253 180,253 180,252 180,252 181,252 181,251 181,251 182,251 182,251 182,251 231,251 231,251 231,251 232,251 232,251 232,252 233,252 233,252 233,253 233,253 233,253 233,288" stroke="#6d725c" /></g><g id="1C05" stroke="red"><polyline fill="#FFFFFF" points="317,206 317,232 317,232 317,232 317,233 317,233 316,233 316,234 316,234 315,234 315,234 315,234 250,234 250,234 249,234 249,234 249,234 248,233 248,233 248,233 248,232 248,232 248,232 248,206" stroke="#6d725c" /></g><g id="1C06" stroke="red"><polyline fill="#FFFFFF" points="248,288 248,253 248,253 248,253 248,252 248,252 248,252 249,251 249,251 249,251 250,251 250,251 282,251 282,288" stroke="#6d725c" /></g><g id="1C08" stroke="red"><polyline fill="#FFFFFF" points="282,288 282,251 315,251 315,251 315,251 316,251 316,251 316,252 317,252 317,252 317,253 317,253 317,253 317,288" stroke="#6d725c" /></g><g id="1C11" stroke="red"><polyline fill="#FFFFFF" points="336,234 336,234 336,234 335,234 335,234 335,233 334,233 334,233 334,232 334,232 334,232 334,203 400,203 400,234" stroke="#6d725c" /></g><g id="1C12" stroke="red"><polyline fill="#FFFFFF" points="400,288 367,288 334,288 334,256 334,255 334,254 335,254 335,253 335,252 336,252 337,251 337,251 338,251 339,251 367,251 400,251 401,251 401,288" stroke="#6d725c" /></g><g id="1C13" stroke="red"><polyline fill="#FFFFFF" points="400,203 468,203 468,232 468,232 468,232 468,233 468,233 467,233 467,234 467,234 466,234 466,234 466,234 400,234" stroke="#6d725c" /></g><g id="1C16" stroke="red"><polyline fill="#FFFFFF" points="401,251 463,251 464,251 465,251 465,251 466,252 467,252 467,253 467,254 468,254 468,255 468,256 468,288 401,288" stroke="#6d725c" /></g><g id="1C18" stroke="red"><polyline fill="#FFFFFF" points="485,288 485,253 485,253 485,253 485,252 485,252 486,252 486,251 486,251 487,251 487,251 487,251 531,251 531,288" stroke="#6d725c" /></g><g id="1C20" stroke="red"><polyline fill="#FFFFFF" points="531,288 531,251 569,251 569,251 570,251 570,251 570,251 571,252 571,252 571,252 571,253 571,253 571,253 571,288" stroke="#6d725c" /></g><g id="1C26" stroke="red"><polyline fill="#FFFFFF" points="674,287 674,262 724,262 724,287" stroke="#6d725c" /></g><g id="1D01" stroke="red"><polyline fill="#FFFFFF" points="163,294 163,318 163,318 163,319 163,319 162,319 162,320 162,320 162,320 161,320 161,320 161,320 102,320 102,294" stroke="#6d725c" /></g><g id="1D02" stroke="red"><polyline fill="#FFFFFF" points="121,343 161,343 161,343 161,343 162,343 162,343 162,344 162,344 163,344 163,345 163,345 163,345 163,372 134,372 121,372" stroke="#6d725c" /></g><g id="1D03" stroke="red"><polyline fill="#FFFFFF" points="233,288 233,326 233,326 233,327 233,327 233,327 232,328 232,328 232,328 231,328 231,328 231,328 182,328 182,328 182,328 181,328 181,328 181,328 180,327 180,327 180,327 180,326 180,326 180,288" stroke="#6d725c" /></g><g id="1D04" stroke="red"><polyline fill="#FFFFFF" points="182,388 182,388 182,388 181,388 181,388 181,387 180,387 180,387 180,386 180,386 180,386 180,345 180,345 180,345 180,344 180,344 181,344 181,343 181,343 182,343 182,343 182,343 231,343 231,343 231,343 232,343 232,343 232,344 233,344 233,344 233,345 233,345 233,345 233,386 233,386 233,386 233,387 233,387 232,387 232,388 232,388 231,388 231,388 231,388" stroke="#6d725c" /></g><g id="1D05" stroke="red"><polyline fill="#FFFFFF" points="250,328 250,328 249,328 249,328 249,328 248,328 248,327 248,327 248,327 248,326 248,326 248,288 282,288 282,328" stroke="#6d725c" /></g><g id="1D06" stroke="red"><polyline fill="#FFFFFF" points="250,388 250,388 249,388 249,388 249,388 248,387 248,387 248,387 248,386 248,386 248,386 248,345 248,345 248,345 248,344 248,344 248,344 249,343 249,343 249,343 250,343 250,343 282,343 282,388" stroke="#6d725c" /></g><g id="1D07" stroke="red"><polyline fill="#FFFFFF" points="282,288 317,288 317,326 317,326 317,327 317,327 317,327 316,328 316,328 316,328 315,328 315,328 315,328 282,328" stroke="#6d725c" /></g><g id="1D08" stroke="red"><polyline fill="#FFFFFF" points="282,343 315,343 315,343 315,343 316,343 316,343 316,344 317,344 317,344 317,345 317,345 317,345 317,386 317,386 317,386 317,387 317,387 316,387 316,388 316,388 315,388 315,388 315,388 282,388" stroke="#6d725c" /></g><g id="1D09" stroke="red"><polyline fill="#FFFFFF" points="336,328 336,328 336,328 335,328 335,328 335,328 334,327 334,327 334,327 334,326 334,326 334,288 367,288 367,328" stroke="#6d725c" /></g><g id="1D11" stroke="red"><polyline fill="#FFFFFF" points="400,328 367,328 367,288 400,288 400,306" stroke="#6d725c" /></g><g id="1D12" stroke="red"><polyline fill="#FFFFFF" points="401,368 401,343 466,343 466,343 466,343 467,343 467,343 467,344 468,344 468,344 468,345 468,345 468,345 468,368" stroke="#6d725c" /></g><g id="1D13" stroke="red"><polyline fill="#FFFFFF" points="400,306 466,306 466,306 466,306 467,306 467,306 467,306 468,307 468,307 468,307 468,308 468,308 468,326 468,326 468,327 468,327 468,327 467,328 467,328 467,328 466,328 466,328 466,328 400,328" stroke="#6d725c" /></g><g id="1D15" stroke="red"><polyline fill="#FFFFFF" points="487,328 487,328 487,328 486,328 486,328 486,328 485,327 485,327 485,327 485,326 485,326 485,288 531,288 531,328" stroke="#6d725c" /></g><g id="1D16" stroke="red"><polyline fill="#FFFFFF" points="487,388 487,388 487,388 486,388 486,388 486,387 485,387 485,387 485,386 485,386 485,386 485,345 485,345 485,345 485,344 485,344 486,344 486,343 486,343 487,343 487,343 487,343 531,343 531,388" stroke="#6d725c" /></g><g id="1D17" stroke="red"><polyline fill="#FFFFFF" points="531,288 571,288 571,326 571,326 571,327 571,327 571,327 571,328 570,328 570,328 570,328 569,328 569,328 531,328" stroke="#6d725c" /></g><g id="1D18" stroke="red"><polyline fill="#FFFFFF" points="531,343 569,343 569,343 570,343 570,343 570,343 571,344 571,344 571,344 571,345 571,345 571,345 571,386 571,386 571,386 571,387 571,387 571,387 570,388 570,388 570,388 569,388 569,388 531,388" stroke="#6d725c" /></g><g id="1D19" stroke="red"><polyline fill="#FFFFFF" points="588,328 588,328 587,328 587,328 587,328 587,328 586,327 586,327 586,327 586,326 586,326 586,280 621,280 621,328" stroke="#6d725c" /></g><g id="1D20" stroke="red"><polyline fill="#FFFFFF" points="588,388 588,388 587,388 587,388 587,388 587,387 586,387 586,387 586,386 586,386 586,386 586,345 586,345 586,345 586,344 586,344 587,344 587,343 587,343 587,343 588,343 588,343 621,343 621,388" stroke="#6d725c" /></g><g id="1D21" stroke="red"><polyline fill="#FFFFFF" points="621,280 657,280 657,326 657,326 657,327 657,327 656,327 656,328 656,328 655,328 655,328 655,328 654,328 621,328" stroke="#6d725c" /></g><g id="1D22" stroke="red"><polyline fill="#FFFFFF" points="621,343 654,343 655,343 655,343 655,343 656,343 656,344 656,344 657,344 657,345 657,345 657,345 657,386 657,386 657,386 657,387 656,387 656,387 656,388 655,388 655,388 655,388 654,388 621,388" stroke="#6d725c" /></g><g id="1D23" stroke="red"><polyline fill="#FFFFFF" points="674,326 674,287 724,287 724,302 724,326" stroke="#6d725c" /></g><g id="1D24" stroke="red"><polyline fill="#FFFFFF" points="674,366 674,326 724,326 724,335 724,366" stroke="#6d725c" /></g><g id="1D26" stroke="red"><polyline fill="#FFFFFF" points="724,366 724,405 674,405 674,366" stroke="#6d725c" /></g><g id="1E02" stroke="red"><polyline fill="#FFFFFF" points="197,455 162,455 162,405 197,405 197,448" stroke="#6d725c" /></g><g id="1E04" stroke="red"><polyline fill="#FFFFFF" points="197,448 197,405 222,405 233,405 233,448" stroke="#6d725c" /></g><g id="1E06" stroke="red"><polyline fill="#FFFFFF" points="271,449 271,455 256,455 256,448 233,448 233,405 256,405 278,405 278,449" stroke="#6d725c" /></g><g id="1E10" stroke="red"><polyline fill="#FFFFFF" points="324,455 290,455 290,450 278,450 278,449 278,405 324,405 324,450" stroke="#6d725c" /></g><g id="1E12" stroke="red"><polyline fill="#FFFFFF" points="353,455 353,450 341,450 335,450 324,450 324,405 372,405 372,455" stroke="#6d725c" /></g><g id="1E13" stroke="red"><polyline fill="#FFFFFF" points="336,388 336,388 336,388 335,388 335,388 335,387 334,387 334,387 334,386 334,386 334,386 334,369 401,369 401,388" stroke="#6d725c" /></g><g id="1E14" stroke="red"><polyline fill="#FFFFFF" points="372,405 401,405 401,426 401,450 398,450 386,450 386,455 372,455" stroke="#6d725c" /></g><g id="1E15" stroke="red"><polyline fill="#FFFFFF" points="402,388 402,369 468,369 468,386 468,386 468,386 468,387 468,387 467,387 467,388 467,388 466,388 466,388 466,388" stroke="#6d725c" /></g><g id="1E16" stroke="red"><polyline fill="#FFFFFF" points="403,426 403,405 464,405 465,405 465,405 465,405 466,406 466,406 466,406 466,406 467,407 467,407 467,407 467,426" stroke="#6d725c" /></g><g id="1E18" stroke="red"><polyline fill="#FFFFFF" points="512,455 485,455 485,426 483,426 483,407 483,407 483,407 483,406 483,406 484,406 484,406 484,405 485,405 485,405 485,405 512,405 512,450" stroke="#6d725c" /></g><g id="1E20" stroke="red"><polyline fill="#FFFFFF" points="541,455 541,450 530,450 524,450 512,450 512,405 553,405 553,455" stroke="#6d725c" /></g><g id="1E22" stroke="red"><polyline fill="#FFFFFF" points="587,450 584,450 582,450 579,450 575,450 575,455 553,455 553,405 587,405 587,426" stroke="#6d725c" /></g><g id="1E24" stroke="red"><polyline fill="#FFFFFF" points="616,405 616,405 616,406 616,406 617,406 617,407 617,407 617,408 617,426 587,426 587,405 615,405 615,405" stroke="#6d725c" /></g><g id="1Y01" stroke="red"><polyline fill="#FFFFFF" points="121,384 102,384 98,384 98,372 83,372 82,369 82,343 121,343 121,372" stroke="#6d725c" /></g><g id="1Y02" stroke="red"><polyline fill="#FFFFFF" points="102,139 82,139 82,109 98,109 102,109 102,99 127,99 162,99 162,139" stroke="#6d725c" /></g><g id="1Y06" stroke="red"><polyline fill="#FFFFFF" points="704,31 704,31 704,66 705,66 705,145 721,145 721,162 668,162 638,162 482,162 482,125 504,125 504,57 591,57 591,31 592,31 604,31 604,28 639,28 639,31 650,31 655,31 655,28 704,28" stroke="#6d725c" /></g></svg>