<?xml version="1.0" encoding="utf-8" ?>
<svg baseProfile="full" height="553" version="1.1" width="800" xmlns="http://www.w3.org/2000/svg" xmlns:ev="http://www.w3.org/2001/xml-events" xmlns:xlink="http://www.w3.org/1999/xlink"><defs /><g id="3A01" stroke="red"><polyline fill="#FFFFFF" points="21,157 21,115 37,115 70,115 79,115 80,115 80,115 81,115 81,115 81,116 82,116 82,116 82,117 82,117 82,118 82,157" stroke="#6d725c" /></g><g id="3A02" stroke="red"><polyline fill="#FFFFFF" points="21,191 21,157 82,157 82,191" stroke="#6d725c" /></g><g id="3A03" stroke="red"><polyline fill="#FFFFFF" points="102,137 102,85 135,85 135,137" stroke="#6d725c" /></g><g id="3A04" stroke="red"><polyline fill="#FFFFFF" points="102,184 102,159 102,159 102,159 102,158 102,158 102,157 103,157 103,157 103,157 104,157 104,157 144,157 144,184" stroke="#6d725c" /></g><g id="3A05" stroke="red"><polyline fill="#FFFFFF" points="135,137 135,85 169,85 169,137" stroke="#6d725c" /></g><g id="3A06" stroke="red"><polyline fill="#FFFFFF" points="144,184 144,157 184,157 184,157 185,157 185,157 185,157 186,157 186,158 186,158 187,159 187,159 187,159 187,184" stroke="#6d725c" /></g><g id="3A07" stroke="red"><polyline fill="#FFFFFF" points="205,137 169,137 169,85 199,85 199,115 205,115" stroke="#6d725c" /></g><g id="3A08" stroke="red"><polyline fill="#FFFFFF" points="203,184 203,159 203,159 204,159 204,158 204,158 204,157 205,157 205,157 205,157 206,157 206,157 286,157 286,157 287,157 287,157 287,157 288,157 288,158 288,158 288,159 288,159 288,159 288,184" stroke="#6d725c" /></g><g id="3A09" stroke="red"><polyline fill="#FFFFFF" points="205,137 205,115 244,115 244,129 244,136 244,137" stroke="#6d725c" /></g><g id="3A11" stroke="red"><polyline fill="#FFFFFF" points="245,137 244,137 244,136 244,129 244,115 244,37 257,37 257,33 276,33 276,123" stroke="#6d725c" /></g><g id="3A13" stroke="red"><polyline fill="#FFFFFF" points="308,109 276,123 276,33 297,33 297,37 308,37" stroke="#6d725c" /></g><g id="3A15A" stroke="red"><polyline fill="#FFFFFF" points="308,109 308,37 328,37 328,109" stroke="#6d725c" /></g><g id="3A15B" stroke="red"><polyline fill="#FFFFFF" points="328,109 328,37 346,37 346,109" stroke="#6d725c" /></g><g id="3A16" stroke="red"><polyline fill="#FFFFFF" points="311,150 310,150 310,150 310,149 309,149 309,149 309,149 308,148 308,148 308,147 308,147 308,129 385,129 385,130 385,150" stroke="#6d725c" /></g><g id="3A17" stroke="red"><polyline fill="#FFFFFF" points="346,37 384,37 384,66 384,109 346,109" stroke="#6d725c" /></g><g id="3A18" stroke="red"><polyline fill="#FFFFFF" points="385,130 385,129 462,129 462,147 462,147 462,148 462,148 462,149 462,149 461,149 461,149 460,150 460,150 460,150 385,150" stroke="#6d725c" /></g><g id="3A19" stroke="red"><polyline fill="#FFFFFF" points="386,109 386,66 422,66 422,109" stroke="#6d725c" /></g><g id="3A21" stroke="red"><polyline fill="#FFFFFF" points="422,109 422,66 457,66 457,109" stroke="#6d725c" /></g><g id="3A23" stroke="red"><polyline fill="#FFFFFF" points="457,66 478,66 493,66 493,106 493,109 457,109" stroke="#6d725c" /></g><g id="3A25" stroke="red"><polyline fill="#FFFFFF" points="510,109 510,66 510,66 555,66 557,66 557,109" stroke="#6d725c" /></g><g id="3A26A" stroke="red"><polyline fill="#FFFFFF" points="482,170 482,132 482,131 482,131 482,130 482,130 483,130 483,129 483,129 484,129 484,129 485,129 526,129 526,170" stroke="#6d725c" /></g><g id="3A26B" stroke="red"><polyline fill="#FFFFFF" points="526,170 526,129 556,129 556,129 557,129 557,129 557,129 558,130 558,130 558,130 558,131 559,131 559,132 559,170" stroke="#6d725c" /></g><g id="3A27A1" stroke="red"><polyline fill="#FFFFFF" points="557,109 557,66 598,66 598,109" stroke="#6d725c" /></g><g id="3A27A2" stroke="red"><polyline fill="#FFFFFF" points="598,109 598,66 604,66 639,66 639,109" stroke="#6d725c" /></g><g id="3A27B" stroke="red"><polyline fill="#FFFFFF" points="639,66 719,66 719,109 639,109" stroke="#6d725c" /></g><g id="3A28" stroke="red"><polyline fill="#FFFFFF" points="575,170 575,132 575,131 575,131 576,130 576,130 576,130 576,129 577,129 577,129 578,129 578,129 613,129 613,170" stroke="#6d725c" /></g><g id="3A30" stroke="red"><polyline fill="#FFFFFF" points="613,170 613,129 648,129 649,129 649,129 650,129 650,129 650,130 651,130 651,130 651,131 651,131 651,132 651,170" stroke="#6d725c" /></g><g id="3A32" stroke="red"><polyline fill="#FFFFFF" points="671,166 671,129 719,129 719,166" stroke="#6d725c" /></g><g id="3B01" stroke="red"><polyline fill="#FFFFFF" points="21,226 21,191 82,191 82,226" stroke="#6d725c" /></g><g id="3B02" stroke="red"><polyline fill="#FFFFFF" points="21,259 21,226 82,226 82,259" stroke="#6d725c" /></g><g id="3B03" stroke="red"><polyline fill="#FFFFFF" points="104,211 104,211 103,210 103,210 103,210 102,210 102,209 102,209 102,209 102,208 102,208 102,184 144,184 144,211" stroke="#6d725c" /></g><g id="3B04" stroke="red"><polyline fill="#FFFFFF" points="102,259 102,229 102,226 144,226 144,259" stroke="#6d725c" /></g><g id="3B05" stroke="red"><polyline fill="#FFFFFF" points="144,184 187,184 187,208 187,208 187,209 186,209 186,209 186,210 185,210 185,210 185,210 184,211 184,211 144,211" stroke="#6d725c" /></g><g id="3B06" stroke="red"><polyline fill="#FFFFFF" points="144,259 144,226 184,226 184,226 185,227 185,227 185,227 186,227 186,228 186,228 187,228 187,229 187,229 187,259" stroke="#6d725c" /></g><g id="3B07" stroke="red"><polyline fill="#FFFFFF" points="288,184 288,208 288,208 288,209 288,209 288,209 288,210 287,210 287,210 287,210 286,211 286,211 206,211 206,211 205,210 205,210 205,210 204,210 204,209 204,209 204,209 203,208 203,208 203,184" stroke="#6d725c" /></g><g id="3B08" stroke="red"><polyline fill="#FFFFFF" points="203,259 203,229 203,229 204,228 204,228 204,228 204,227 205,227 205,227 205,227 206,226 206,226 286,226 286,226 287,227 287,227 287,227 288,227 288,228 288,228 288,228 288,229 288,229 288,259" stroke="#6d725c" /></g><g id="3B10" stroke="red"><polyline fill="#FFFFFF" points="308,259 308,226 346,226 346,259" stroke="#6d725c" /></g><g id="3B11" stroke="red"><polyline fill="#FFFFFF" points="382,211 315,211 310,211 308,211 308,193 308,193 308,192 308,192 309,192 309,191 309,191 310,191 310,191 310,191 311,190 385,190 385,211" stroke="#6d725c" /></g><g id="3B12" stroke="red"><polyline fill="#FFFFFF" points="346,259 346,226 381,226 384,226 384,259" stroke="#6d725c" /></g><g id="3B13" stroke="red"><polyline fill="#FFFFFF" points="385,190 460,190 460,191 460,191 461,191 461,191 462,191 462,192 462,192 462,192 462,193 462,193 462,211 460,211 459,211 455,211 388,211 385,211" stroke="#6d725c" /></g><g id="3B14" stroke="red"><polyline fill="#FFFFFF" points="384,259 384,226 389,226 423,226 423,259" stroke="#6d725c" /></g><g id="3B16" stroke="red"><polyline fill="#FFFFFF" points="423,259 423,226 454,226 461,226 462,226 462,259" stroke="#6d725c" /></g><g id="3B17A" stroke="red"><polyline fill="#FFFFFF" points="485,211 484,211 484,210 483,210 483,210 483,210 482,209 482,209 482,209 482,208 482,208 482,170 526,170 526,211" stroke="#6d725c" /></g><g id="3B17B" stroke="red"><polyline fill="#FFFFFF" points="526,170 559,170 559,208 559,208 558,209 558,209 558,209 558,210 557,210 557,210 557,210 556,211 556,211 526,211" stroke="#6d725c" /></g><g id="3B18A" stroke="red"><polyline fill="#FFFFFF" points="482,259 482,232 482,231 482,230 482,229 483,229 483,228 484,227 485,227 486,227 487,226 487,226 526,226 526,259" stroke="#6d725c" /></g><g id="3B18B" stroke="red"><polyline fill="#FFFFFF" points="526,259 526,226 526,226 534,226 553,226 554,226 555,227 556,227 556,227 557,228 557,229 558,229 558,230 558,231 559,232 559,259" stroke="#6d725c" /></g><g id="3B19" stroke="red"><polyline fill="#FFFFFF" points="578,211 578,211 577,210 577,210 576,210 576,210 576,209 576,209 575,209 575,208 575,208 575,170 613,170 613,211" stroke="#6d725c" /></g><g id="3B20" stroke="red"><polyline fill="#FFFFFF" points="575,259 575,229 575,229 575,228 576,228 576,228 576,227 576,227 577,227 577,227 578,226 578,226 613,226 613,259" stroke="#6d725c" /></g><g id="3B21" stroke="red"><polyline fill="#FFFFFF" points="613,170 651,170 651,208 651,208 651,209 651,209 651,209 650,210 650,210 650,210 649,210 649,211 648,211 613,211" stroke="#6d725c" /></g><g id="3B22" stroke="red"><polyline fill="#FFFFFF" points="613,259 613,226 648,226 649,226 649,227 650,227 650,227 650,227 651,228 651,228 651,228 651,229 651,229 651,259" stroke="#6d725c" /></g><g id="3B23" stroke="red"><polyline fill="#FFFFFF" points="719,166 719,187 693,187 693,226 672,226 671,226 671,166" stroke="#6d725c" /></g><g id="3C01" stroke="red"><polyline fill="#FFFFFF" points="21,291 21,259 82,259 82,291" stroke="#6d725c" /></g><g id="3C02" stroke="red"><polyline fill="#FFFFFF" points="21,324 21,291 82,291 82,324" stroke="#6d725c" /></g><g id="3C03" stroke="red"><polyline fill="#FFFFFF" points="104,292 104,292 103,292 103,292 103,292 102,292 102,291 102,291 102,290 102,290 102,290 102,259 144,259 144,292" stroke="#6d725c" /></g><g id="3C04" stroke="red"><polyline fill="#FFFFFF" points="102,339 102,312 102,311 102,311 102,311 102,310 102,310 103,310 103,309 103,309 104,309 104,309 144,309 144,339" stroke="#6d725c" /></g><g id="3C05" stroke="red"><polyline fill="#FFFFFF" points="144,259 187,259 187,290 187,290 187,290 186,291 186,291 186,292 185,292 185,292 185,292 184,292 184,292 144,292" stroke="#6d725c" /></g><g id="3C06" stroke="red"><polyline fill="#FFFFFF" points="144,339 144,309 184,309 184,309 185,309 185,309 185,310 186,310 186,310 186,311 187,311 187,311 187,312 187,339" stroke="#6d725c" /></g><g id="3C07" stroke="red"><polyline fill="#FFFFFF" points="288,259 288,290 288,290 288,290 288,291 288,291 288,292 287,292 287,292 287,292 286,292 286,292 206,292 206,292 205,292 205,292 205,292 204,292 204,291 204,291 204,290 203,290 203,290 203,259" stroke="#6d725c" /></g><g id="3C08A" stroke="red"><polyline fill="#FFFFFF" points="245,339 245,309 286,309 286,309 287,309 287,309 287,310 288,310 288,310 288,311 288,311 288,311 288,312 288,339" stroke="#6d725c" /></g><g id="3C08B" stroke="red"><polyline fill="#FFFFFF" points="203,339 203,312 203,311 204,311 204,311 204,310 204,310 205,310 205,309 205,309 206,309 206,309 245,309 245,339" stroke="#6d725c" /></g><g id="3C09" stroke="red"><polyline fill="#FFFFFF" points="311,292 310,292 310,292 310,292 309,292 309,292 309,291 308,291 308,290 308,290 308,290 308,259 346,259 346,292" stroke="#6d725c" /></g><g id="3C10" stroke="red"><polyline fill="#FFFFFF" points="309,327 308,327 308,312 308,311 308,311 308,311 309,310 309,310 309,310 310,309 310,309 310,309 311,309 384,309 384,327" stroke="#6d725c" /></g><g id="3C11" stroke="red"><polyline fill="#FFFFFF" points="346,292 346,259 384,259 384,292" stroke="#6d725c" /></g><g id="3C12" stroke="red"><polyline fill="#FFFFFF" points="385,327 384,327 384,309 460,309 460,309 460,309 461,309 461,310 462,310 462,310 462,311 462,311 462,311 462,312 462,327 461,327" stroke="#6d725c" /></g><g id="3C13" stroke="red"><polyline fill="#FFFFFF" points="384,292 384,259 423,259 423,292" stroke="#6d725c" /></g><g id="3C15" stroke="red"><polyline fill="#FFFFFF" points="423,259 462,259 462,290 462,290 462,290 462,291 462,291 462,292 461,292 461,292 460,292 460,292 460,292 423,292" stroke="#6d725c" /></g><g id="3C16" stroke="red"><polyline fill="#FFFFFF" points="482,339 482,312 482,311 482,311 482,311 482,310 483,310 483,310 483,309 484,309 484,309 485,309 556,309 556,309 557,309 557,309 557,310 558,310 558,310 558,311 558,311 559,311 559,312 559,339" stroke="#6d725c" /></g><g id="3C17A" stroke="red"><polyline fill="#FFFFFF" points="487,292 487,292 486,292 485,292 484,291 483,291 483,290 482,289 482,289 482,288 482,287 482,259 526,259 526,292" stroke="#6d725c" /></g><g id="3C17B" stroke="red"><polyline fill="#FFFFFF" points="526,259 559,259 559,287 558,288 558,289 558,289 557,290 557,291 556,291 556,292 555,292 554,292 553,292 526,292" stroke="#6d725c" /></g><g id="3C18" stroke="red"><polyline fill="#FFFFFF" points="575,339 575,312 575,311 575,311 576,311 576,310 576,310 576,310 577,309 577,309 578,309 578,309 613,309 613,339" stroke="#6d725c" /></g><g id="3C19" stroke="red"><polyline fill="#FFFFFF" points="578,292 578,292 577,292 577,292 576,292 576,292 576,291 576,291 575,290 575,290 575,290 575,259 613,259 613,292" stroke="#6d725c" /></g><g id="3C20" stroke="red"><polyline fill="#FFFFFF" points="613,339 613,309 648,309 649,309 649,309 650,309 650,310 650,310 651,310 651,311 651,311 651,311 651,312 651,339" stroke="#6d725c" /></g><g id="3C21" stroke="red"><polyline fill="#FFFFFF" points="613,259 651,259 651,290 651,290 651,290 651,291 651,291 650,292 650,292 650,292 649,292 649,292 648,292 613,292" stroke="#6d725c" /></g><g id="3C22" stroke="red"><polyline fill="#FFFFFF" points="671,332 671,303 751,303 751,332" stroke="#6d725c" /></g><g id="3C24" stroke="red"><polyline fill="#FFFFFF" points="671,362 671,332 751,332 751,362" stroke="#6d725c" /></g><g id="3D01" stroke="red"><polyline fill="#FFFFFF" points="21,354 21,324 82,324 82,354" stroke="#6d725c" /></g><g id="3D02" stroke="red"><polyline fill="#FFFFFF" points="63,385 43,385 21,385 21,354 82,354 82,385" stroke="#6d725c" /></g><g id="3D03" stroke="red"><polyline fill="#FFFFFF" points="104,368 104,368 103,368 103,368 103,368 102,367 102,367 102,367 102,366 102,366 102,365 102,339 144,339 144,368" stroke="#6d725c" /></g><g id="3D04" stroke="red"><polyline fill="#FFFFFF" points="63,385 82,385 111,421 111,443 43,443 43,385" stroke="#6d725c" /></g><g id="3D05" stroke="red"><polyline fill="#FFFFFF" points="144,339 187,339 187,365 187,366 187,366 186,367 186,367 186,367 185,368 185,368 185,368 184,368 184,368 144,368" stroke="#6d725c" /></g><g id="3D06" stroke="red"><polyline fill="#FFFFFF" points="129,412 112,390 112,388 112,387 112,387 112,386 112,386 112,386 113,385 113,385 114,385 114,385 114,385 184,385 184,385 185,385 185,385 185,385 186,386 186,386 186,386 187,387 187,387 187,388 187,412" stroke="#6d725c" /></g><g id="3D07A" stroke="red"><polyline fill="#FFFFFF" points="245,339 288,339 288,365 288,366 288,366 288,367 288,367 288,367 287,368 287,368 287,368 286,368 286,368 245,368" stroke="#6d725c" /></g><g id="3D07B" stroke="red"><polyline fill="#FFFFFF" points="206,368 206,368 205,368 205,368 205,368 204,367 204,367 204,367 204,366 203,366 203,365 203,339 245,339 245,368" stroke="#6d725c" /></g><g id="3D08" stroke="red"><polyline fill="#FFFFFF" points="245,416 245,385 286,385 286,385 287,385 287,385 287,385 288,386 288,386 288,386 288,387 288,387 288,388 288,416" stroke="#6d725c" /></g><g id="3D09" stroke="red"><polyline fill="#FFFFFF" points="308,400 308,400 307,400 307,400 306,400 306,400 306,399 305,399 305,398 305,398 305,398 305,356 305,355 305,355 305,354 306,354 306,354 306,353 307,353 307,353 308,353 308,353 319,353 319,400" stroke="#6d725c" /></g><g id="3D10" stroke="red"><polyline fill="#FFFFFF" points="203,416 203,388 203,387 204,387 204,386 204,386 204,386 205,385 205,385 205,385 206,385 206,385 245,385 245,416" stroke="#6d725c" /></g><g id="3D11" stroke="red"><polyline fill="#FFFFFF" points="447,400 447,353 462,353 463,353 463,353 464,353 464,353 464,354 465,354 465,354 465,355 465,355 465,356 465,398 465,398 465,398 465,399 465,399 464,400 464,400 464,400 463,400 463,400 462,400" stroke="#6d725c" /></g><g id="3D13" stroke="red"><polyline fill="#FFFFFF" points="559,339 559,365 559,366 558,366 558,367 558,367 558,367 557,368 557,368 557,368 556,368 556,368 485,368 484,368 484,368 483,368 483,368 483,367 482,367 482,367 482,366 482,366 482,365 482,339" stroke="#6d725c" /></g><g id="3D14A" stroke="red"><polyline fill="#FFFFFF" points="482,416 482,388 482,387 482,387 482,386 482,386 483,386 483,385 483,385 484,385 484,385 485,385 526,385 526,416" stroke="#6d725c" /></g><g id="3D14B" stroke="red"><polyline fill="#FFFFFF" points="526,416 526,385 556,385 556,385 557,385 557,385 557,385 558,386 558,386 558,386 558,387 559,387 559,388 559,416" stroke="#6d725c" /></g><g id="3D15" stroke="red"><polyline fill="#FFFFFF" points="578,368 578,368 577,368 577,368 576,368 576,367 576,367 576,367 575,366 575,366 575,365 575,339 613,339 613,368" stroke="#6d725c" /></g><g id="3D16" stroke="red"><polyline fill="#FFFFFF" points="575,416 575,388 575,387 575,387 576,386 576,386 576,386 576,385 577,385 577,385 578,385 578,385 613,385 613,416" stroke="#6d725c" /></g><g id="3D17" stroke="red"><polyline fill="#FFFFFF" points="613,339 651,339 651,365 651,366 651,366 651,367 651,367 650,367 650,368 650,368 649,368 649,368 648,368 613,368" stroke="#6d725c" /></g><g id="3D18" stroke="red"><polyline fill="#FFFFFF" points="613,416 613,385 648,385 649,385 649,385 650,385 650,385 650,386 651,386 651,386 651,387 651,387 651,388 651,416" stroke="#6d725c" /></g><g id="3D19A" stroke="red"><polyline fill="#FFFFFF" points="744,397 671,397 671,397 671,395 671,395 671,393 671,362 751,362 751,397" stroke="#6d725c" /></g><g id="3D19B" stroke="red"><polyline fill="#FFFFFF" points="671,450 671,421 671,402 671,398 671,397 744,397 744,450" stroke="#6d725c" /></g><g id="3E01" stroke="red"><polyline fill="#FFFFFF" points="187,412 187,445 187,445 187,446 186,446 186,447 186,447 185,447 185,447 185,448 184,448 184,448 159,448 159,448 158,448 158,448 158,447 158,447 158,447 157,447 157,447 157,447 157,447 129,412" stroke="#6d725c" /></g><g id="3E02" stroke="red"><polyline fill="#FFFFFF" points="152,516 152,493 136,493 136,467 179,467 179,516" stroke="#6d725c" /></g><g id="3E04" stroke="red"><polyline fill="#FFFFFF" points="179,516 179,467 218,467 218,516" stroke="#6d725c" /></g><g id="3E05" stroke="red"><polyline fill="#FFFFFF" points="245,416 288,416 288,445 288,445 288,446 288,446 288,447 288,447 287,447 287,447 287,448 286,448 286,448 245,448" stroke="#6d725c" /></g><g id="3E06" stroke="red"><polyline fill="#FFFFFF" points="236,519 236,525 218,525 218,516 218,467 257,467 257,519" stroke="#6d725c" /></g><g id="3E07" stroke="red"><polyline fill="#FFFFFF" points="206,448 206,448 205,448 205,447 205,447 204,447 204,447 204,446 204,446 203,445 203,445 203,416 245,416 245,448" stroke="#6d725c" /></g><g id="3E08" stroke="red"><polyline fill="#FFFFFF" points="296,525 257,525 257,519 257,467 296,467 296,519" stroke="#6d725c" /></g><g id="3E10" stroke="red"><polyline fill="#FFFFFF" points="329,525 329,519 296,519 296,467 341,467 341,525" stroke="#6d725c" /></g><g id="3E11" stroke="red"><polyline fill="#FFFFFF" points="311,448 310,448 310,448 310,447 309,447 309,447 309,447 308,446 308,446 308,445 308,445 308,426 385,426 385,448" stroke="#6d725c" /></g><g id="3E12" stroke="red"><polyline fill="#FFFFFF" points="341,467 385,467 385,491 385,519 368,519 368,525 341,525" stroke="#6d725c" /></g><g id="3E13" stroke="red"><polyline fill="#FFFFFF" points="385,426 461,426 462,426 462,445 462,445 462,446 462,446 462,447 462,447 461,447 461,447 460,448 460,448 460,448 385,448" stroke="#6d725c" /></g><g id="3E14" stroke="red"><polyline fill="#FFFFFF" points="387,491 387,467 458,467 459,467 459,467 459,467 460,468 460,468 460,468 461,469 461,469 461,470 461,470 461,491 461,491" stroke="#6d725c" /></g><g id="3E16" stroke="red"><polyline fill="#FFFFFF" points="513,525 482,525 482,491 479,491 478,491 478,491 478,470 478,470 478,469 478,469 478,468 478,468 479,468 479,467 480,467 480,467 480,467 513,467 513,519" stroke="#6d725c" /></g><g id="3E17" stroke="red"><polyline fill="#FFFFFF" points="526,416 559,416 559,445 559,445 558,446 558,446 558,447 558,447 557,447 557,447 557,448 556,448 556,448 485,448 484,448 484,448 483,447 483,447 483,447 482,447 482,446 482,446 482,445 482,445 482,416" stroke="#6d725c" /></g><g id="3E18" stroke="red"><polyline fill="#FFFFFF" points="513,519 513,467 547,467 547,519" stroke="#6d725c" /></g><g id="3E19" stroke="red"><polyline fill="#FFFFFF" points="578,448 578,448 577,448 577,447 576,447 576,447 576,447 576,446 575,446 575,445 575,445 575,416 613,416 613,448" stroke="#6d725c" /></g><g id="3E20" stroke="red"><polyline fill="#FFFFFF" points="586,525 547,525 547,519 547,467 586,467 586,519" stroke="#6d725c" /></g><g id="3E21" stroke="red"><polyline fill="#FFFFFF" points="613,416 651,416 651,445 651,445 651,446 651,446 651,447 650,447 650,447 650,447 649,448 649,448 648,448 613,448" stroke="#6d725c" /></g><g id="3E22" stroke="red"><polyline fill="#FFFFFF" points="586,467 634,467 634,491 605,491 605,519 586,519" stroke="#6d725c" /></g></svg>