<?xml version="1.0" encoding="utf-8" ?>
<svg baseProfile="full" height="488" version="1.1" width="800" xmlns="http://www.w3.org/2000/svg" xmlns:ev="http://www.w3.org/2001/xml-events" xmlns:xlink="http://www.w3.org/1999/xlink"><defs /><g id="1A01" stroke="red"><polyline points="83,133 78,133 78,79 99,79 99,133" stroke="#6d725c" /></g><g id="1A02" stroke="red"><polyline points="103,190 162,190 162,190 162,190 163,190 163,191 163,191 164,191 164,192 164,192 164,192 164,193 164,214 103,214" stroke="#6d725c" /></g><g id="1A03A" stroke="red"><polyline points="248,184 179,184 163,163 163,125 163,123 163,123 198,123 198,142 248,142" stroke="#6d725c" /></g><g id="1A03B" stroke="red"><polyline points="248,184 248,142 248,123 279,123 306,123 308,123 308,184" stroke="#6d725c" /></g><g id="1A04" stroke="red"><polyline points="181,227 181,203 181,203 181,202 181,202 181,202 182,201 182,201 182,201 183,201 183,201 183,201 232,201 232,201 233,201 233,201 233,201 234,201 234,202 234,202 234,202 234,203 234,203 234,227" stroke="#6d725c" /></g><g id="1A05" stroke="red"><polyline points="400,171 400,142 336,142 308,184 308,123 306,123 279,123 279,55 291,55 291,52 325,52 325,55 353,55 353,52 388,52 388,55 401,55 401,79 490,79 490,136 468,136 468,171 402,171" stroke="#6d725c" /></g><g id="1A06" stroke="red"><polyline points="249,229 249,203 249,203 249,202 249,202 249,202 250,201 250,201 250,201 251,201 251,201 252,201 316,201 316,201 316,201 317,201 317,201 317,201 318,202 318,202 318,202 318,203 318,203 318,229" stroke="#6d725c" /></g><g id="1A25" stroke="red"><polyline points="488,258 488,258 488,258 487,258 487,257 487,257 486,257 486,256 486,256 486,256 486,255 486,201 587,201 587,258" stroke="#6d725c" /></g><g id="1A27" stroke="red"><polyline points="587,201 629,201 629,286 587,286 587,258" stroke="#6d725c" /></g><g id="1B01" stroke="red"><polyline points="402,171 402,186 338,186 337,186 337,186 336,186 336,186 336,185 336,185 335,185 335,184 335,184 335,184 335,173 335,173 335,173 335,172 336,172 336,172 336,172 336,171 337,171 337,171 338,171 400,171" stroke="#6d725c" /></g><g id="1B02" stroke="red"><polyline points="335,227 335,201 401,201 401,227" stroke="#6d725c" /></g><g id="1B04" stroke="red"><polyline points="401,227 401,201 469,201 469,227" stroke="#6d725c" /></g><g id="1C01A" stroke="red"><polyline points="151,227 164,227 164,241 151,241" stroke="#6d725c" /></g><g id="1C01B" stroke="red"><polyline points="151,227 151,241 103,241 103,214 164,214 164,227" stroke="#6d725c" /></g><g id="1C02" stroke="red"><polyline points="103,317 103,290 162,290 162,290 162,290 163,290 163,290 163,290 164,291 164,291 164,291 164,292 164,292 164,317" stroke="#6d725c" /></g><g id="1C03" stroke="red"><polyline points="234,227 234,255 234,256 234,256 234,256 234,257 234,257 233,257 233,258 233,258 232,258 232,258 183,258 183,258 183,258 182,258 182,257 182,257 181,257 181,256 181,256 181,256 181,255 181,227" stroke="#6d725c" /></g><g id="1C04" stroke="red"><polyline points="181,312 181,277 181,277 181,276 181,276 181,276 182,275 182,275 182,275 183,275 183,275 183,275 232,275 232,275 233,275 233,275 233,275 234,275 234,276 234,276 234,276 234,277 234,277 234,312" stroke="#6d725c" /></g><g id="1C05" stroke="red"><polyline points="318,229 318,255 318,256 318,256 318,256 318,257 317,257 317,257 317,258 316,258 316,258 316,258 251,258 251,258 250,258 250,258 250,257 249,257 249,257 249,256 249,256 249,256 249,255 249,229" stroke="#6d725c" /></g><g id="1C06" stroke="red"><polyline points="249,312 249,277 249,277 249,276 249,276 249,276 249,275 250,275 250,275 250,275 251,275 251,275 283,275 283,312" stroke="#6d725c" /></g><g id="1C08" stroke="red"><polyline points="283,312 283,275 316,275 316,275 316,275 317,275 317,275 317,275 318,276 318,276 318,276 318,277 318,277 318,312" stroke="#6d725c" /></g><g id="1C11" stroke="red"><polyline points="338,258 337,258 337,258 336,258 336,257 336,257 336,257 335,256 335,256 335,256 335,255 335,227 401,227 401,258" stroke="#6d725c" /></g><g id="1C12" stroke="red"><polyline points="401,312 368,312 335,312 335,280 335,279 335,278 336,277 336,277 337,276 337,276 338,275 338,275 339,275 340,275 402,275 402,312" stroke="#6d725c" /></g><g id="1C13" stroke="red"><polyline points="401,227 469,227 469,255 469,256 469,256 469,256 469,257 468,257 468,257 468,258 467,258 467,258 467,258 401,258" stroke="#6d725c" /></g><g id="1C16" stroke="red"><polyline points="402,275 464,275 465,275 466,275 466,275 467,276 468,276 468,277 469,277 469,278 469,279 469,280 469,312 402,312" stroke="#6d725c" /></g><g id="1C18" stroke="red"><polyline points="486,312 486,277 486,277 486,276 486,276 486,276 487,275 487,275 487,275 488,275 488,275 488,275 532,275 532,312" stroke="#6d725c" /></g><g id="1C20" stroke="red"><polyline points="532,312 532,275 570,275 570,275 571,275 571,275 571,275 572,275 572,276 572,276 572,276 572,277 572,277 572,312" stroke="#6d725c" /></g><g id="1C26" stroke="red"><polyline points="675,311 675,286 725,286 725,311" stroke="#6d725c" /></g><g id="1D01" stroke="red"><polyline points="164,317 164,342 164,342 164,342 164,343 164,343 163,343 163,344 163,344 162,344 162,344 162,344 103,344 103,317" stroke="#6d725c" /></g><g id="1D02" stroke="red"><polyline points="122,367 162,367 162,367 162,367 163,367 163,367 163,368 164,368 164,368 164,368 164,369 164,369 164,396 135,396 122,396" stroke="#6d725c" /></g><g id="1D03" stroke="red"><polyline points="234,312 234,350 234,350 234,351 234,351 234,351 234,352 233,352 233,352 233,352 232,352 232,352 183,352 183,352 183,352 182,352 182,352 182,352 181,351 181,351 181,351 181,350 181,350 181,312" stroke="#6d725c" /></g><g id="1D04" stroke="red"><polyline points="183,412 183,412 183,412 182,412 182,411 182,411 181,411 181,411 181,410 181,410 181,410 181,369 181,369 181,368 181,368 181,368 182,368 182,367 182,367 183,367 183,367 183,367 232,367 232,367 233,367 233,367 233,367 234,368 234,368 234,368 234,368 234,369 234,369 234,410 234,410 234,410 234,411 234,411 234,411 233,411 233,412 233,412 232,412 232,412" stroke="#6d725c" /></g><g id="1D05" stroke="red"><polyline points="251,352 251,352 250,352 250,352 250,352 249,352 249,351 249,351 249,351 249,350 249,350 249,312 283,312 283,352" stroke="#6d725c" /></g><g id="1D06" stroke="red"><polyline points="251,412 251,412 250,412 250,412 250,411 249,411 249,411 249,411 249,410 249,410 249,410 249,369 249,369 249,368 249,368 249,368 249,368 250,367 250,367 250,367 251,367 251,367 283,367 283,412" stroke="#6d725c" /></g><g id="1D07" stroke="red"><polyline points="283,312 318,312 318,350 318,350 318,351 318,351 318,351 317,352 317,352 317,352 316,352 316,352 316,352 283,352" stroke="#6d725c" /></g><g id="1D08" stroke="red"><polyline points="283,367 316,367 316,367 316,367 317,367 317,367 317,368 318,368 318,368 318,368 318,369 318,369 318,410 318,410 318,410 318,411 318,411 317,411 317,411 317,412 316,412 316,412 316,412 283,412" stroke="#6d725c" /></g><g id="1D09" stroke="red"><polyline points="338,352 337,352 337,352 336,352 336,352 336,352 336,351 335,351 335,351 335,350 335,350 335,312 368,312 368,352" stroke="#6d725c" /></g><g id="1D11" stroke="red"><polyline points="401,352 368,352 368,312 401,312 401,330" stroke="#6d725c" /></g><g id="1D12" stroke="red"><polyline points="402,391 402,367 467,367 467,367 467,367 468,367 468,367 468,368 469,368 469,368 469,368 469,369 469,369 469,391" stroke="#6d725c" /></g><g id="1D13" stroke="red"><polyline points="401,330 467,330 467,330 467,330 468,330 468,330 468,330 469,331 469,331 469,331 469,332 469,332 469,350 469,350 469,351 469,351 469,351 468,352 468,352 468,352 467,352 467,352 467,352 401,352" stroke="#6d725c" /></g><g id="1D15" stroke="red"><polyline points="488,352 488,352 488,352 487,352 487,352 487,352 486,351 486,351 486,351 486,350 486,350 486,312 532,312 532,352" stroke="#6d725c" /></g><g id="1D16" stroke="red"><polyline points="488,412 488,412 488,412 487,412 487,411 487,411 486,411 486,411 486,410 486,410 486,410 486,369 486,369 486,368 486,368 486,368 487,368 487,367 487,367 488,367 488,367 488,367 532,367 532,412" stroke="#6d725c" /></g><g id="1D17" stroke="red"><polyline points="532,312 572,312 572,350 572,350 572,351 572,351 572,351 572,352 571,352 571,352 571,352 570,352 570,352 532,352" stroke="#6d725c" /></g><g id="1D18" stroke="red"><polyline points="532,367 570,367 570,367 571,367 571,367 571,367 572,368 572,368 572,368 572,368 572,369 572,369 572,410 572,410 572,410 572,411 572,411 572,411 571,411 571,412 571,412 570,412 570,412 532,412" stroke="#6d725c" /></g><g id="1D19" stroke="red"><polyline points="589,352 589,352 589,352 588,352 588,352 588,352 587,351 587,351 587,351 587,350 587,350 587,304 622,304 622,352" stroke="#6d725c" /></g><g id="1D20" stroke="red"><polyline points="589,412 589,412 589,412 588,412 588,411 588,411 587,411 587,411 587,410 587,410 587,410 587,369 587,369 587,368 587,368 587,368 588,368 588,367 588,367 589,367 589,367 589,367 622,367 622,412" stroke="#6d725c" /></g><g id="1D21" stroke="red"><polyline points="622,304 658,304 658,350 658,350 658,351 658,351 657,351 657,352 657,352 657,352 656,352 656,352 655,352 622,352" stroke="#6d725c" /></g><g id="1D22" stroke="red"><polyline points="622,367 655,367 656,367 656,367 657,367 657,367 657,368 657,368 658,368 658,368 658,369 658,369 658,410 658,410 658,410 658,411 657,411 657,411 657,411 657,412 656,412 656,412 655,412 622,412" stroke="#6d725c" /></g><g id="1D23" stroke="red"><polyline points="675,350 675,311 725,311 725,350" stroke="#6d725c" /></g><g id="1D24" stroke="red"><polyline points="675,389 675,350 725,350 725,389" stroke="#6d725c" /></g><g id="1D26" stroke="red"><polyline points="725,389 725,429 675,429 675,389" stroke="#6d725c" /></g><g id="1E02" stroke="red"><polyline points="198,479 171,479 171,451 163,451 163,429 198,429 198,472" stroke="#6d725c" /></g><g id="1E04" stroke="red"><polyline points="198,472 198,429 234,429 234,472" stroke="#6d725c" /></g><g id="1E06" stroke="red"><polyline points="272,473 272,479 257,479 257,472 234,472 234,429 279,429 279,473" stroke="#6d725c" /></g><g id="1E10" stroke="red"><polyline points="325,479 291,479 291,474 279,474 279,473 279,429 325,429 325,474" stroke="#6d725c" /></g><g id="1E12" stroke="red"><polyline points="354,479 354,474 325,474 325,429 373,429 373,479" stroke="#6d725c" /></g><g id="1E13" stroke="red"><polyline points="338,412 337,412 337,412 336,412 336,411 336,411 336,411 335,411 335,410 335,410 335,410 335,392 403,392 403,412" stroke="#6d725c" /></g><g id="1E14" stroke="red"><polyline points="373,429 402,429 402,474 388,474 388,479 373,479" stroke="#6d725c" /></g><g id="1E15" stroke="red"><polyline points="403,412 403,392 469,392 469,410 469,410 469,410 469,411 469,411 468,411 468,411 468,412 467,412 467,412 467,412" stroke="#6d725c" /></g><g id="1E16" stroke="red"><polyline points="404,451 404,429 465,429 466,429 466,429 467,429 467,429 467,430 467,430 468,430 468,431 468,431 468,431 468,451" stroke="#6d725c" /></g><g id="1E18" stroke="red"><polyline points="513,479 486,479 486,451 484,451 484,431 484,431 484,431 484,430 484,430 485,430 485,429 485,429 486,429 486,429 486,429 513,429 513,474" stroke="#6d725c" /></g><g id="1E20" stroke="red"><polyline points="543,479 543,474 513,474 513,429 554,429 554,479" stroke="#6d725c" /></g><g id="1E22" stroke="red"><polyline points="588,474 576,474 576,479 554,479 554,429 588,429 588,450" stroke="#6d725c" /></g><g id="1E24" stroke="red"><polyline points="588,429 616,429 616,429 617,429 618,430 618,430 618,431 618,432 618,450 588,450" stroke="#6d725c" /></g><g id="1Y01" stroke="red"><polyline points="122,408 99,408 99,396 84,396 83,393 83,367 122,367 122,396" stroke="#6d725c" /></g><g id="1Y02" stroke="red"><polyline points="103,163 83,163 83,133 99,133 103,133 103,123 163,123 163,125 163,163" stroke="#6d725c" /></g><g id="1Y06" stroke="red"><polyline points="705,55 705,55 705,90 706,90 706,169 722,169 722,186 639,186 484,186 484,149 505,149 505,79 592,79 592,55 605,55 605,52 640,52 640,55 656,55 656,52 705,52" stroke="#6d725c" /></g></svg>