<?xml version="1.0" encoding="utf-8" ?>
<svg baseProfile="full" height="430" version="1.1" width="800" xmlns="http://www.w3.org/2000/svg" xmlns:ev="http://www.w3.org/2001/xml-events" xmlns:xlink="http://www.w3.org/1999/xlink"><defs /><g id="2A01" stroke="red"><polyline points="258,402 228,402 131,402 131,301 129,301 111,301 111,299 91,299 91,244 163,244 164,244 165,244 166,244 166,245 167,245 168,245 168,246 169,246 169,247 170,248 228,352 258,352" stroke="#6d725c" /></g><g id="2A05" stroke="red"><polyline points="258,402 258,352 288,352 288,402" stroke="#6d725c" /></g><g id="2A06" stroke="red"><polyline points="245,330 244,330 243,330 243,330 242,330 241,330 241,329 240,329 240,328 239,327 239,327 222,297 222,297 268,297 268,330" stroke="#6d725c" /></g><g id="2A08" stroke="red"><polyline points="268,330 268,297 268,297 302,297 302,330" stroke="#6d725c" /></g><g id="2A09" stroke="red"><polyline points="288,402 288,352 359,352 359,402" stroke="#6d725c" /></g><g id="2A10" stroke="red"><polyline points="302,297 337,297 337,330 302,330" stroke="#6d725c" /></g><g id="2A11" stroke="red"><polyline points="359,402 359,352 395,352 395,402" stroke="#6d725c" /></g><g id="2A12" stroke="red"><polyline points="354,330 354,273 393,273 393,330" stroke="#6d725c" /></g><g id="2A13" stroke="red"><polyline points="395,402 395,352 431,352 431,402" stroke="#6d725c" /></g><g id="2A14" stroke="red"><polyline points="393,330 393,273 431,273 431,330" stroke="#6d725c" /></g><g id="2A17" stroke="red"><polyline points="431,402 431,352 467,352 467,402" stroke="#6d725c" /></g><g id="2A18" stroke="red"><polyline points="431,330 431,273 469,273 469,330" stroke="#6d725c" /></g><g id="2A19" stroke="red"><polyline points="467,402 467,352 503,352 503,402" stroke="#6d725c" /></g><g id="2A20" stroke="red"><polyline points="469,273 507,273 507,330 469,330" stroke="#6d725c" /></g><g id="2A21" stroke="red"><polyline points="503,402 503,352 538,352 538,402" stroke="#6d725c" /></g><g id="2A23" stroke="red"><polyline points="538,402 538,352 584,352 584,402" stroke="#6d725c" /></g><g id="2A24" stroke="red"><polyline points="562,298 562,318 562,318 562,319 562,319 562,319 562,319 562,320 562,320 562,320 562,321 562,321 559,326 559,327 559,328 558,328 557,329 557,329 556,330 555,330 554,330 554,330 553,330 533,330 532,330 531,330 531,330 530,330 530,329 530,329 529,328 529,328 529,327 529,327 529,298" stroke="#6d725c" /></g><g id="2A25" stroke="red"><polyline points="627,402 584,402 584,352 584,324 584,324 627,324 627,402" stroke="#6d725c" /></g><g id="2B02" stroke="red"><polyline points="178,192 178,226 131,226 131,192" stroke="#6d725c" /></g><g id="2B03" stroke="red"><polyline points="222,297 210,275 209,274 209,272 209,271 209,269 210,268 210,267 212,266 213,265 214,264 216,264 268,264 268,297" stroke="#6d725c" /></g><g id="2B04" stroke="red"><polyline points="200,246 200,213 234,213 234,246" stroke="#6d725c" /></g><g id="2B06" stroke="red"><polyline points="234,213 268,213 268,246 234,246" stroke="#6d725c" /></g><g id="2B07" stroke="red"><polyline points="268,297 268,264 302,264 302,297" stroke="#6d725c" /></g><g id="2B08" stroke="red"><polyline points="268,246 268,213 302,213 302,246" stroke="#6d725c" /></g><g id="2B09" stroke="red"><polyline points="302,297 302,264 337,264 337,297" stroke="#6d725c" /></g><g id="2B10" stroke="red"><polyline points="302,213 337,213 337,246 302,246" stroke="#6d725c" /></g><g id="2C01" stroke="red"><polyline points="131,192 131,159 178,159 178,192" stroke="#6d725c" /></g><g id="2C02" stroke="red"><polyline points="131,159 131,125 178,125 178,159" stroke="#6d725c" /></g><g id="2C03" stroke="red"><polyline points="200,213 200,180 234,180 234,213" stroke="#6d725c" /></g><g id="2C04" stroke="red"><polyline points="234,131 234,162 200,162 200,131" stroke="#6d725c" /></g><g id="2C05" stroke="red"><polyline points="234,213 234,180 268,180 268,213" stroke="#6d725c" /></g><g id="2C06" stroke="red"><polyline points="234,162 234,131 268,131 268,162" stroke="#6d725c" /></g><g id="2C07" stroke="red"><polyline points="268,213 268,213 268,180 302,180 302,196 302,213" stroke="#6d725c" /></g><g id="2C08" stroke="red"><polyline points="268,162 268,131 302,131 302,162" stroke="#6d725c" /></g><g id="2C09" stroke="red"><polyline points="302,213 302,196 302,180 319,180 337,180 337,213" stroke="#6d725c" /></g><g id="2C10" stroke="red"><polyline points="302,131 337,131 337,162 302,162" stroke="#6d725c" /></g><g id="2C12" stroke="red"><polyline points="354,162 354,131 393,131 393,162" stroke="#6d725c" /></g><g id="2C13A" stroke="red"><polyline points="354,204 354,180 393,180 393,204" stroke="#6d725c" /></g><g id="2C13B" stroke="red"><polyline points="393,204 393,180 431,180 431,204" stroke="#6d725c" /></g><g id="2C14" stroke="red"><polyline points="393,162 393,131 431,131 431,162" stroke="#6d725c" /></g><g id="2C16" stroke="red"><polyline points="431,162 431,131 469,131 469,162" stroke="#6d725c" /></g><g id="2C17A" stroke="red"><polyline points="431,204 431,180 469,180 469,204" stroke="#6d725c" /></g><g id="2C17B" stroke="red"><polyline points="469,180 507,180 507,204 469,204" stroke="#6d725c" /></g><g id="2C18" stroke="red"><polyline points="469,131 507,131 507,162 469,162" stroke="#6d725c" /></g><g id="2C19" stroke="red"><polyline points="584,298 562,298 529,298 529,163 584,163 627,163 627,180 627,302 584,302" stroke="#6d725c" /></g><g id="2C20" stroke="red"><polyline points="529,163 529,131 584,131 584,163" stroke="#6d725c" /></g><g id="2D02" stroke="red"><polyline points="178,77 178,104 140,104 131,104 131,42 131,34 131,30 207,30 207,77" stroke="#6d725c" /></g><g id="2D03" stroke="red"><polyline points="200,131 200,99 234,99 234,131" stroke="#6d725c" /></g><g id="2D04" stroke="red"><polyline points="207,77 207,30 245,30 245,77" stroke="#6d725c" /></g><g id="2D05" stroke="red"><polyline points="234,131 234,131 234,99 268,99 268,131" stroke="#6d725c" /></g><g id="2D06" stroke="red"><polyline points="245,77 245,30 281,30 281,77" stroke="#6d725c" /></g><g id="2D07" stroke="red"><polyline points="268,131 268,99 302,99 302,131" stroke="#6d725c" /></g><g id="2D08" stroke="red"><polyline points="281,77 281,30 317,30 317,77" stroke="#6d725c" /></g><g id="2D09" stroke="red"><polyline points="302,131 302,99 337,99 337,131" stroke="#6d725c" /></g><g id="2D10" stroke="red"><polyline points="317,77 317,30 353,30 353,77" stroke="#6d725c" /></g><g id="2D11" stroke="red"><polyline points="354,131 354,99 393,99 393,131" stroke="#6d725c" /></g><g id="2D12" stroke="red"><polyline points="353,77 353,30 390,30 390,77" stroke="#6d725c" /></g><g id="2D13" stroke="red"><polyline points="393,131 393,99 431,99 431,131" stroke="#6d725c" /></g><g id="2D14" stroke="red"><polyline points="390,30 426,30 426,77 390,77" stroke="#6d725c" /></g><g id="2D15" stroke="red"><polyline points="431,131 431,99 469,99 469,131" stroke="#6d725c" /></g><g id="2D16" stroke="red"><polyline points="426,77 426,30 463,30 463,77" stroke="#6d725c" /></g><g id="2D17" stroke="red"><polyline points="469,131 469,99 507,99 507,131" stroke="#6d725c" /></g><g id="2D18" stroke="red"><polyline points="463,77 463,30 499,30 499,77" stroke="#6d725c" /></g><g id="2D19" stroke="red"><polyline points="529,131 529,99 584,99 584,131" stroke="#6d725c" /></g><g id="2D20" stroke="red"><polyline points="499,77 499,30 535,30 535,77 529,77" stroke="#6d725c" /></g><g id="2D22" stroke="red"><polyline points="529,99 529,77 535,77 535,30 584,30 584,77 584,99" stroke="#6d725c" /></g><g id="2Y01" stroke="red"><polyline points="627,324 584,324 584,302 627,302 627,180 627,163 584,163 584,131 584,99 584,77 584,30 731,30 731,37 767,37 767,125 731,125 731,200 733,200 733,371 699,371 699,397 729,397 729,426 634,426 634,402 627,402" stroke="#6d725c" /></g></svg>