<?xml version="1.0" encoding="utf-8" ?>
<svg baseProfile="full" height="457" version="1.1" width="800" xmlns="http://www.w3.org/2000/svg" xmlns:ev="http://www.w3.org/2001/xml-events" xmlns:xlink="http://www.w3.org/1999/xlink"><defs /><g id="1A01" stroke="red"><polyline points="221,345 221,397 215,403 189,403 187,403 187,408 184,408 181,408 181,402 178,402 178,345 221,345" stroke="#6d725c" /></g><g id="1A02" stroke="red"><polyline points="185,345 185,326 185,325 185,312 221,312 221,345" stroke="#6d725c" /></g><g id="1A04" stroke="red"><polyline points="240,326 240,290 284,290 284,326" stroke="#6d725c" /></g><g id="1A05" stroke="red"><polyline points="246,403 240,397 240,345 299,345 299,403" stroke="#6d725c" /></g><g id="1A06" stroke="red"><polyline points="284,290 329,290 329,326 284,326" stroke="#6d725c" /></g><g id="1A07" stroke="red"><polyline points="299,345 353,345 360,351 360,403 299,403" stroke="#6d725c" /></g><g id="1A08" stroke="red"><polyline points="344,326 344,262 385,262 385,326" stroke="#6d725c" /></g><g id="1A10" stroke="red"><polyline points="435,326 385,326 385,262 435,262 435,280" stroke="#6d725c" /></g><g id="1A11" stroke="red"><polyline points="425,403 425,351 425,350 425,349 426,348 426,347 427,346 428,346 429,345 429,345 430,345 431,345 476,345 476,403" stroke="#6d725c" /></g><g id="1A12" stroke="red"><polyline points="435,326 435,280 481,280 481,326" stroke="#6d725c" /></g><g id="1A13" stroke="red"><polyline points="476,345 521,345 521,345 522,345 523,345 524,346 525,346 526,347 526,348 526,349 527,350 527,351 527,403 476,403" stroke="#6d725c" /></g><g id="1A14" stroke="red"><polyline points="481,280 527,280 527,326 481,326" stroke="#6d725c" /></g><g id="1A15" stroke="red"><polyline points="551,403 551,357 548,326 604,326 604,403" stroke="#6d725c" /></g><g id="1B01" stroke="red"><polyline points="185,312 185,278 221,278 221,312" stroke="#6d725c" /></g><g id="1B02" stroke="red"><polyline points="221,218 221,260 178,260 178,218" stroke="#6d725c" /></g><g id="1B05" stroke="red"><polyline points="240,290 240,254 284,254 284,290" stroke="#6d725c" /></g><g id="1B06" stroke="red"><polyline points="240,239 240,198 284,198 284,239" stroke="#6d725c" /></g><g id="1B07" stroke="red"><polyline points="284,290 284,254 329,254 329,290" stroke="#6d725c" /></g><g id="1B08" stroke="red"><polyline points="284,198 329,198 329,239 284,239" stroke="#6d725c" /></g><g id="1B09" stroke="red"><polyline points="548,326 548,281 604,281 604,326" stroke="#6d725c" /></g><g id="1B10" stroke="red"><polyline points="345,239 345,198 383,198 422,198 422,239" stroke="#6d725c" /></g><g id="1B11" stroke="red"><polyline points="638,281 604,281 548,281 548,231 638,231 638,256" stroke="#6d725c" /></g><g id="1B12" stroke="red"><polyline points="526,262 436,262 436,239 422,239 422,198 457,198 491,198 526,198" stroke="#6d725c" /></g><g id="1C01" stroke="red"><polyline points="178,218 178,176 221,176 221,218" stroke="#6d725c" /></g><g id="1C02" stroke="red"><polyline points="221,137 221,157 180,157 180,153 180,97 242,97 242,137" stroke="#6d725c" /></g><g id="1C04" stroke="red"><polyline points="242,137 242,97 285,97 285,137" stroke="#6d725c" /></g><g id="1C05" stroke="red"><polyline points="240,198 240,156 284,156 284,198" stroke="#6d725c" /></g><g id="1C06" stroke="red"><polyline points="285,137 285,97 311,97 311,137" stroke="#6d725c" /></g><g id="1C07" stroke="red"><polyline points="284,198 284,156 329,156 329,198" stroke="#6d725c" /></g><g id="1C08" stroke="red"><polyline points="311,137 311,97 372,97 372,137" stroke="#6d725c" /></g><g id="1C10" stroke="red"><polyline points="372,137 372,97 432,97 432,137" stroke="#6d725c" /></g><g id="1C11" stroke="red"><polyline points="345,198 345,156 383,156 383,198" stroke="#6d725c" /></g><g id="1C12" stroke="red"><polyline points="432,137 432,97 437,97 485,97 485,137" stroke="#6d725c" /></g><g id="1C13" stroke="red"><polyline points="383,198 383,156 422,156 422,198" stroke="#6d725c" /></g><g id="1C15" stroke="red"><polyline points="422,198 422,156 457,156 457,198" stroke="#6d725c" /></g><g id="1C17" stroke="red"><polyline points="457,198 457,156 491,156 491,198" stroke="#6d725c" /></g><g id="1C18" stroke="red"><polyline points="568,137 485,137 485,97 437,97 437,73 568,73 568,97" stroke="#6d725c" /></g><g id="1C19" stroke="red"><polyline points="491,198 491,156 526,156 526,198 526,198" stroke="#6d725c" /></g><g id="1C21" stroke="red"><polyline points="638,231 548,231 548,163 548,162 549,161 549,160 549,159 550,158 551,158 552,157 552,157 553,157 554,156 638,156 638,194" stroke="#6d725c" /></g><g id="1Y03" stroke="red"><polyline points="604,326 604,281 638,281 638,281 638,256 638,231 638,194 638,156 679,156 679,164 693,164 693,231 695,231 695,384 666,384 666,403 604,403" stroke="#6d725c" /></g><g id="1Y04" stroke="red"><polyline points="568,97 695,97 695,137 568,137" stroke="#6d725c" /></g></svg>