<?xml version="1.0" encoding="utf-8" ?>
<svg baseProfile="full" height="430" version="1.1" width="800" xmlns="http://www.w3.org/2000/svg" xmlns:ev="http://www.w3.org/2001/xml-events" xmlns:xlink="http://www.w3.org/1999/xlink"><defs /><g id="4A05" stroke="red"><polyline fill="#FFFFFF" points="141,394 141,399 37,399 37,345 48,345 48,325 105,325 105,288 141,288 141,259 183,259 255,259 282,259 282,328 282,350 282,394" stroke="#6d725c" /></g><g id="4A06" stroke="red"><polyline fill="#FFFFFF" points="345,328 400,328 455,328 494,328 494,350 494,394 282,394 282,350 282,328 282,259 345,259 345,285" stroke="#6d725c" /></g><g id="4A08" stroke="red"><polyline fill="#FFFFFF" points="400,328 345,328 345,285 400,285 400,286" stroke="#6d725c" /></g><g id="4A10" stroke="red"><polyline fill="#FFFFFF" points="400,328 400,286 455,286 455,328" stroke="#6d725c" /></g><g id="4A12" stroke="red"><polyline fill="#FFFFFF" points="494,328 455,328 455,286 509,286 509,328" stroke="#6d725c" /></g><g id="4A14" stroke="red"><polyline fill="#FFFFFF" points="509,328 509,286 509,285 564,285 564,298 564,328" stroke="#6d725c" /></g><g id="4A17" stroke="red"><polyline fill="#FFFFFF" points="574,394 494,394 494,350 494,328 509,328 564,328 564,350 574,350" stroke="#6d725c" /></g><g id="4A18" stroke="red"><polyline fill="#FFFFFF" points="634,293 634,328 582,328 582,293" stroke="#6d725c" /></g><g id="4A19B" stroke="red"><polyline fill="#FFFFFF" points="574,394 574,350 615,350 615,394" stroke="#6d725c" /></g><g id="4A19C" stroke="red"><polyline fill="#FFFFFF" points="615,394 615,350 656,350 656,394" stroke="#6d725c" /></g><g id="4A21" stroke="red"><polyline fill="#FFFFFF" points="656,350 656,216 765,216 765,394 656,394" stroke="#6d725c" /></g><g id="4B04" stroke="red"><polyline fill="#FFFFFF" points="282,206 323,206 323,240 286,240 282,240" stroke="#6d725c" /></g><g id="4B07" stroke="red"><polyline fill="#FFFFFF" points="582,269 582,224 582,222 583,221 583,220 584,219 584,218 585,218 586,217 587,217 588,216 590,216 626,216 628,216 629,217 630,217 631,218 632,218 632,219 633,220 633,221 634,222 634,224 634,269" stroke="#6d725c" /></g><g id="4B09" stroke="red"><polyline fill="#FFFFFF" points="582,293 582,269 634,269 634,293" stroke="#6d725c" /></g><g id="4C05" stroke="red"><polyline fill="#FFFFFF" points="282,206 282,171 323,171 323,206" stroke="#6d725c" /></g><g id="4C07" stroke="red"><polyline fill="#FFFFFF" points="345,196 345,171 455,171 455,196" stroke="#6d725c" /></g><g id="4C09" stroke="red"><polyline fill="#FFFFFF" points="455,171 564,171 564,196 455,196" stroke="#6d725c" /></g><g id="4D08" stroke="red"><polyline fill="#FFFFFF" points="356,153 323,153 323,171 282,171 282,206 282,240 147,240 147,116 40,116 40,29 356,28 356,29" stroke="#6d725c" /></g><g id="4D10" stroke="red"><polyline fill="#FFFFFF" points="459,114 459,153 356,153 356,29 407,29 407,67 459,67" stroke="#6d725c" /></g><g id="4D12" stroke="red"><polyline fill="#FFFFFF" points="459,153 459,114 459,67 459,29 582,29 582,153" stroke="#6d725c" /></g><g id="4D14" stroke="red"><polyline fill="#FFFFFF" points="582,29 767,29 767,24 799,24 799,115 765,115 765,194 582,194 582,153" stroke="#6d725c" /></g><g id="NJA4D10A" stroke="red"><polyline fill="#FFFFFF" points="407,67 407,29 459,29 459,67" stroke="#6d725c" /></g></svg>