<?xml version="1.0" encoding="utf-8" ?>
<svg baseProfile="full" height="430" version="1.1" width="800" xmlns="http://www.w3.org/2000/svg" xmlns:ev="http://www.w3.org/2001/xml-events" xmlns:xlink="http://www.w3.org/1999/xlink"><defs /><g id="2A05" stroke="red"><polyline fill="#FFFFFF" points="258,402 258,352 288,352 288,402" stroke="#6d725c" /></g><g id="2A06" stroke="red"><polyline fill="#FFFFFF" points="245,330 244,330 243,330 243,330 242,330 241,330 241,329 240,329 240,328 239,327 239,327 222,297 222,297 268,297 268,330" stroke="#6d725c" /></g><g id="2A07" stroke="red"><polyline fill="#FFFFFF" points="288,402 288,352 323,352 323,402" stroke="#6d725c" /></g><g id="2A08" stroke="red"><polyline fill="#FFFFFF" points="268,330 268,297 268,297 302,297 302,330" stroke="#6d725c" /></g><g id="2A09" stroke="red"><polyline fill="#FFFFFF" points="323,402 323,352 359,352 359,402" stroke="#6d725c" /></g><g id="2A10" stroke="red"><polyline fill="#FFFFFF" points="302,297 337,297 337,330 302,330" stroke="#6d725c" /></g><g id="2A11" stroke="red"><polyline fill="#FFFFFF" points="359,402 359,352 395,352 395,402" stroke="#6d725c" /></g><g id="2A12" stroke="red"><polyline fill="#FFFFFF" points="354,330 354,273 393,273 393,330" stroke="#6d725c" /></g><g id="2A13" stroke="red"><polyline fill="#FFFFFF" points="395,402 395,352 431,352 431,402" stroke="#6d725c" /></g><g id="2A14" stroke="red"><polyline fill="#FFFFFF" points="393,330 393,273 431,273 431,330" stroke="#6d725c" /></g><g id="2A17" stroke="red"><polyline fill="#FFFFFF" points="431,402 431,352 467,352 467,402" stroke="#6d725c" /></g><g id="2A18" stroke="red"><polyline fill="#FFFFFF" points="431,330 431,273 469,273 469,330" stroke="#6d725c" /></g><g id="2A19" stroke="red"><polyline fill="#FFFFFF" points="467,402 467,352 503,352 503,402" stroke="#6d725c" /></g><g id="2A20" stroke="red"><polyline fill="#FFFFFF" points="469,273 507,273 507,330 469,330" stroke="#6d725c" /></g><g id="2A21" stroke="red"><polyline fill="#FFFFFF" points="503,402 503,352 538,352 538,402" stroke="#6d725c" /></g><g id="2A22" stroke="red"><polyline fill="#FFFFFF" points="525,297 525,271 525,270 526,269 526,268 527,267 527,266 528,266 529,265 530,265 531,264 532,264 555,264 556,264 557,265 558,265 559,266 560,266 561,267 561,268 562,269 562,270 562,271 562,297" stroke="#6d725c" /></g><g id="2A23" stroke="red"><polyline fill="#FFFFFF" points="538,402 538,352 584,352 584,402" stroke="#6d725c" /></g><g id="2A24" stroke="red"><polyline fill="#FFFFFF" points="562,297 562,318 562,318 562,319 562,319 562,319 562,319 562,320 562,320 562,320 562,321 562,321 559,326 559,327 559,328 558,328 557,329 557,329 556,330 555,330 554,330 554,330 553,330 532,330 531,330 530,330 529,330 528,329 527,328 527,328 526,327 526,326 525,324 525,323 525,297" stroke="#6d725c" /></g><g id="2A25" stroke="red"><polyline fill="#FFFFFF" points="584,402 584,352 584,324 627,324 627,402" stroke="#6d725c" /></g><g id="2B02" stroke="red"><polyline fill="#FFFFFF" points="178,192 178,226 131,226 131,192" stroke="#6d725c" /></g><g id="2B03" stroke="red"><polyline fill="#FFFFFF" points="222,297 210,275 209,274 209,272 209,271 209,269 210,268 210,267 212,266 213,265 214,264 216,264 268,264 268,297" stroke="#6d725c" /></g><g id="2B04" stroke="red"><polyline fill="#FFFFFF" points="200,246 200,213 234,213 234,246" stroke="#6d725c" /></g><g id="2B06" stroke="red"><polyline fill="#FFFFFF" points="234,213 268,213 268,246 234,246" stroke="#6d725c" /></g><g id="2B07" stroke="red"><polyline fill="#FFFFFF" points="268,297 268,264 302,264 302,297" stroke="#6d725c" /></g><g id="2B08" stroke="red"><polyline fill="#FFFFFF" points="268,246 268,213 302,213 302,246" stroke="#6d725c" /></g><g id="2B09" stroke="red"><polyline fill="#FFFFFF" points="302,297 302,264 337,264 337,297" stroke="#6d725c" /></g><g id="2B10" stroke="red"><polyline fill="#FFFFFF" points="302,213 337,213 337,246 302,246" stroke="#6d725c" /></g><g id="2B12" stroke="red"><polyline fill="#FFFFFF" points="562,213 562,239 562,240 562,241 561,242 561,243 560,244 559,245 558,246 557,246 556,246 555,246 532,246 531,246 530,246 529,246 528,245 527,244 527,243 526,242 526,241 525,240 525,239 525,213" stroke="#6d725c" /></g><g id="2B14" stroke="red"><polyline fill="#FFFFFF" points="605,250 584,250 584,215 627,215 627,250" stroke="#6d725c" /></g><g id="2C01" stroke="red"><polyline fill="#FFFFFF" points="131,192 131,159 131,159 178,159 178,192" stroke="#6d725c" /></g><g id="2C02" stroke="red"><polyline fill="#FFFFFF" points="131,159 131,158 131,125 133,125 178,125 178,159" stroke="#6d725c" /></g><g id="2C03" stroke="red"><polyline fill="#FFFFFF" points="200,213 200,180 234,180 234,213" stroke="#6d725c" /></g><g id="2C04" stroke="red"><polyline fill="#FFFFFF" points="234,131 234,162 200,162 200,131" stroke="#6d725c" /></g><g id="2C05" stroke="red"><polyline fill="#FFFFFF" points="234,213 234,180 268,180 268,213" stroke="#6d725c" /></g><g id="2C06" stroke="red"><polyline fill="#FFFFFF" points="234,162 234,131 268,131 268,162" stroke="#6d725c" /></g><g id="2C07" stroke="red"><polyline fill="#FFFFFF" points="268,213 268,213 268,180 302,180 302,196 302,213" stroke="#6d725c" /></g><g id="2C08" stroke="red"><polyline fill="#FFFFFF" points="268,162 268,131 302,131 302,162" stroke="#6d725c" /></g><g id="2C09" stroke="red"><polyline fill="#FFFFFF" points="302,213 302,196 302,180 319,180 337,180 337,213" stroke="#6d725c" /></g><g id="2C10" stroke="red"><polyline fill="#FFFFFF" points="302,131 337,131 337,162 302,162" stroke="#6d725c" /></g><g id="2C12" stroke="red"><polyline fill="#FFFFFF" points="354,162 354,131 393,131 393,162" stroke="#6d725c" /></g><g id="2C13A" stroke="red"><polyline fill="#FFFFFF" points="354,204 354,180 393,180 393,204" stroke="#6d725c" /></g><g id="2C13B" stroke="red"><polyline fill="#FFFFFF" points="393,204 393,180 431,180 431,204" stroke="#6d725c" /></g><g id="2C14" stroke="red"><polyline fill="#FFFFFF" points="393,162 393,131 431,131 431,162" stroke="#6d725c" /></g><g id="2C16" stroke="red"><polyline fill="#FFFFFF" points="431,162 431,131 469,131 469,162" stroke="#6d725c" /></g><g id="2C17A" stroke="red"><polyline fill="#FFFFFF" points="431,204 431,180 469,180 469,204" stroke="#6d725c" /></g><g id="2C17B" stroke="red"><polyline fill="#FFFFFF" points="469,180 507,180 507,204 469,204" stroke="#6d725c" /></g><g id="2C18" stroke="red"><polyline fill="#FFFFFF" points="469,131 507,131 507,162 469,162" stroke="#6d725c" /></g><g id="2C19" stroke="red"><polyline fill="#FFFFFF" points="525,213 525,187 525,186 526,185 526,184 527,183 527,182 528,181 529,181 530,180 531,180 532,180 555,180 556,180 557,180 558,181 559,181 560,182 561,183 561,184 562,185 562,186 562,187 562,213" stroke="#6d725c" /></g><g id="2C20" stroke="red"><polyline fill="#FFFFFF" points="562,131 562,155 562,156 562,157 561,158 561,159 560,160 559,161 558,161 557,162 556,162 555,162 532,162 531,162 530,162 529,161 528,161 527,160 527,159 526,158 526,157 525,156 525,155 525,131" stroke="#6d725c" /></g><g id="2C21" stroke="red"><polyline fill="#FFFFFF" points="584,215 584,187 584,186 584,185 584,184 585,183 586,182 587,181 588,181 589,180 590,180 591,180 627,180 627,215" stroke="#6d725c" /></g><g id="2D02" stroke="red"><polyline fill="#FFFFFF" points="178,77 178,104 140,104 131,104 131,42 131,34 131,30 207,30 207,77" stroke="#6d725c" /></g><g id="2D03" stroke="red"><polyline fill="#FFFFFF" points="200,131 200,99 234,99 234,131" stroke="#6d725c" /></g><g id="2D04" stroke="red"><polyline fill="#FFFFFF" points="207,77 207,30 245,30 245,77" stroke="#6d725c" /></g><g id="2D05" stroke="red"><polyline fill="#FFFFFF" points="234,131 234,131 234,99 268,99 268,131" stroke="#6d725c" /></g><g id="2D06" stroke="red"><polyline fill="#FFFFFF" points="245,77 245,30 281,30 281,77" stroke="#6d725c" /></g><g id="2D07" stroke="red"><polyline fill="#FFFFFF" points="268,131 268,99 302,99 302,131" stroke="#6d725c" /></g><g id="2D08" stroke="red"><polyline fill="#FFFFFF" points="281,77 281,30 317,30 317,77" stroke="#6d725c" /></g><g id="2D09" stroke="red"><polyline fill="#FFFFFF" points="302,131 302,99 337,99 337,131" stroke="#6d725c" /></g><g id="2D10" stroke="red"><polyline fill="#FFFFFF" points="317,77 317,30 353,30 353,77" stroke="#6d725c" /></g><g id="2D11" stroke="red"><polyline fill="#FFFFFF" points="354,131 354,99 393,99 393,131" stroke="#6d725c" /></g><g id="2D12" stroke="red"><polyline fill="#FFFFFF" points="353,77 353,30 390,30 390,77" stroke="#6d725c" /></g><g id="2D13" stroke="red"><polyline fill="#FFFFFF" points="393,131 393,99 431,99 431,131" stroke="#6d725c" /></g><g id="2D14" stroke="red"><polyline fill="#FFFFFF" points="390,30 426,30 426,77 390,77" stroke="#6d725c" /></g><g id="2D15" stroke="red"><polyline fill="#FFFFFF" points="431,131 431,99 469,99 469,131" stroke="#6d725c" /></g><g id="2D16" stroke="red"><polyline fill="#FFFFFF" points="426,77 426,30 463,30 463,77" stroke="#6d725c" /></g><g id="2D17" stroke="red"><polyline fill="#FFFFFF" points="469,131 469,99 507,99 507,131" stroke="#6d725c" /></g><g id="2D18" stroke="red"><polyline fill="#FFFFFF" points="463,77 463,30 499,30 499,77" stroke="#6d725c" /></g><g id="2D19" stroke="red"><polyline fill="#FFFFFF" points="525,131 525,106 525,105 526,104 526,103 527,102 527,101 528,100 529,100 530,99 531,99 532,99 555,99 556,99 557,99 558,100 559,100 560,101 561,102 561,103 562,104 562,105 562,106 562,131" stroke="#6d725c" /></g><g id="2D20" stroke="red"><polyline fill="#FFFFFF" points="499,77 499,30 535,30 535,77" stroke="#6d725c" /></g><g id="2D22" stroke="red"><polyline fill="#FFFFFF" points="535,77 535,30 572,30 572,77" stroke="#6d725c" /></g><g id="2Y01" stroke="red"><polyline fill="#FFFFFF" points="627,324 584,324 584,250 584,250 584,267 584,271 584,274 584,278 584,282 584,285 584,289 584,292 584,296 594,296 594,296 594,296 594,296 594,296 594,296 595,296 595,296 595,296 595,296 595,296 605,296 605,292 605,289 605,285 605,282 616,282 627,282 627,278 627,274 627,271 627,267 627,250 627,215 627,180 627,180 627,162 591,162 590,162 589,162 588,161 587,161 586,160 585,159 584,158 584,157 584,156 584,155 584,99 572,77 572,30 731,30 731,37 767,37 767,125 733,125 733,402 627,402" stroke="#6d725c" /></g><g id="2Y02" stroke="red"><polyline fill="#FFFFFF" points="258,402 228,402 131,402 131,301 129,301 111,301 111,299 91,299 91,244 163,244 164,244 165,244 166,244 166,245 167,245 168,245 168,246 169,246 169,247 170,248 228,352 258,352" stroke="#6d725c" /></g></svg>