<?xml version="1.0" encoding="utf-8" ?>
<svg baseProfile="full" height="430" version="1.1" width="800" xmlns="http://www.w3.org/2000/svg" xmlns:ev="http://www.w3.org/2001/xml-events" xmlns:xlink="http://www.w3.org/1999/xlink"><defs /><g id="3A01" stroke="red"><polyline points="211,403 211,410 131,410 131,250 180,250 180,354 211,354" stroke="#6d725c" /></g><g id="3A03" stroke="red"><polyline points="211,410 211,403 211,354 257,354 257,403 257,410" stroke="#6d725c" /></g><g id="3A05" stroke="red"><polyline points="257,410 257,403 257,354 304,354 304,403 304,410" stroke="#6d725c" /></g><g id="3A06" stroke="red"><polyline points="249,332 249,292 296,292 296,332" stroke="#6d725c" /></g><g id="3A07" stroke="red"><polyline points="304,410 304,403 304,354 350,354 350,397 350,410" stroke="#6d725c" /></g><g id="3A08" stroke="red"><polyline points="296,292 342,292 342,332 296,332" stroke="#6d725c" /></g><g id="3A09" stroke="red"><polyline points="350,410 350,397 350,354 397,354 397,403 397,410" stroke="#6d725c" /></g><g id="3A10" stroke="red"><polyline points="361,332 361,273 400,273 400,332" stroke="#6d725c" /></g><g id="3A11" stroke="red"><polyline points="397,410 397,403 397,354 443,354 443,410" stroke="#6d725c" /></g><g id="3A12" stroke="red"><polyline points="400,332 400,273 439,273 439,332" stroke="#6d725c" /></g><g id="3A13" stroke="red"><polyline points="443,410 443,354 443,354 490,354 490,403 490,410" stroke="#6d725c" /></g><g id="3A14" stroke="red"><polyline points="439,332 439,273 478,273 478,332" stroke="#6d725c" /></g><g id="3A15" stroke="red"><polyline points="490,410 490,403 490,354 530,354 530,410" stroke="#6d725c" /></g><g id="3A16" stroke="red"><polyline points="478,273 518,273 518,332 478,332" stroke="#6d725c" /></g><g id="3A17" stroke="red"><polyline points="530,410 530,354 561,354 561,410" stroke="#6d725c" /></g><g id="3A18" stroke="red"><polyline points="536,332 536,277 586,277 586,332" stroke="#6d725c" /></g><g id="3A19A" stroke="red"><polyline points="561,410 561,354 601,354 601,410" stroke="#6d725c" /></g><g id="3A19B" stroke="red"><polyline points="601,410 601,354 641,354 641,410" stroke="#6d725c" /></g><g id="3A20" stroke="red"><polyline points="635,332 586,332 586,277 635,277 635,295" stroke="#6d725c" /></g><g id="3A22A" stroke="red"><polyline points="635,295 635,277 635,259 685,259 685,295" stroke="#6d725c" /></g><g id="3A22B" stroke="red"><polyline points="635,295 685,295 685,332 635,332" stroke="#6d725c" /></g><g id="3A23" stroke="red"><polyline points="641,354 698,354 714,370 714,410 641,410" stroke="#6d725c" /></g><g id="3A24" stroke="red"><polyline points="750,294 750,345 723,345 707,325 707,294" stroke="#6d725c" /></g><g id="3A26" stroke="red"><polyline points="707,294 707,257 750,257 750,294" stroke="#6d725c" /></g><g id="3B02" stroke="red"><polyline points="180,172 180,222 131,222 131,172" stroke="#6d725c" /></g><g id="3B03" stroke="red"><polyline points="249,332 202,332 202,222 249,222 249,292" stroke="#6d725c" /></g><g id="3B04" stroke="red"><polyline points="202,200 202,147 249,147 249,200" stroke="#6d725c" /></g><g id="3B05" stroke="red"><polyline points="249,292 249,222 296,222 296,292" stroke="#6d725c" /></g><g id="3B06" stroke="red"><polyline points="249,200 249,147 296,147 296,200" stroke="#6d725c" /></g><g id="3B07" stroke="red"><polyline points="296,292 296,222 342,222 342,292" stroke="#6d725c" /></g><g id="3B08" stroke="red"><polyline points="296,147 342,147 342,200 296,200" stroke="#6d725c" /></g><g id="3B10" stroke="red"><polyline points="361,198 361,146 400,146 439,146 439,198" stroke="#6d725c" /></g><g id="3B12" stroke="red"><polyline points="439,146 478,146 518,146 518,146 518,198 439,198" stroke="#6d725c" /></g><g id="3B13" stroke="red"><polyline points="536,277 536,222 586,222 586,277" stroke="#6d725c" /></g><g id="3B14" stroke="red"><polyline points="536,200 536,147 586,147 586,200" stroke="#6d725c" /></g><g id="3B15" stroke="red"><polyline points="635,277 586,277 586,222 635,222 635,259" stroke="#6d725c" /></g><g id="3B16" stroke="red"><polyline points="635,200 586,200 586,147 635,147 635,165" stroke="#6d725c" /></g><g id="3B17" stroke="red"><polyline points="635,259 635,222 685,222 685,259" stroke="#6d725c" /></g><g id="3B18A" stroke="red"><polyline points="635,165 635,147 635,106 685,134 685,165" stroke="#6d725c" /></g><g id="3B18B" stroke="red"><polyline points="635,165 685,165 685,200 635,200" stroke="#6d725c" /></g><g id="3B19" stroke="red"><polyline points="707,257 707,220 750,220 750,257" stroke="#6d725c" /></g><g id="3B20A" stroke="red"><polyline points="707,158 707,121 750,121 750,158" stroke="#6d725c" /></g><g id="3B20B" stroke="red"><polyline points="750,158 750,195 707,195 707,158" stroke="#6d725c" /></g><g id="3C01" stroke="red"><polyline points="131,172 131,121 180,121 180,172" stroke="#6d725c" /></g><g id="3C02" stroke="red"><polyline points="180,121 131,121 78,121 78,23 180,23 180,72" stroke="#6d725c" /></g><g id="3C03" stroke="red"><polyline points="202,147 202,94 249,94 249,147" stroke="#6d725c" /></g><g id="3C04" stroke="red"><polyline points="180,72 180,23 233,23 233,72" stroke="#6d725c" /></g><g id="3C05" stroke="red"><polyline points="249,147 249,94 296,94 296,147" stroke="#6d725c" /></g><g id="3C06" stroke="red"><polyline points="233,72 233,23 272,23 272,72" stroke="#6d725c" /></g><g id="3C07" stroke="red"><polyline points="296,147 296,94 342,94 342,147" stroke="#6d725c" /></g><g id="3C08" stroke="red"><polyline points="272,72 272,23 311,23 311,72" stroke="#6d725c" /></g><g id="3C10" stroke="red"><polyline points="311,72 311,23 349,23 349,72" stroke="#6d725c" /></g><g id="3C12" stroke="red"><polyline points="349,72 349,23 388,23 388,72" stroke="#6d725c" /></g><g id="3C13" stroke="red"><polyline points="361,146 361,94 400,94 400,146" stroke="#6d725c" /></g><g id="3C14" stroke="red"><polyline points="388,72 388,23 427,23 427,72" stroke="#6d725c" /></g><g id="3C15" stroke="red"><polyline points="400,146 400,94 439,94 439,146" stroke="#6d725c" /></g><g id="3C16" stroke="red"><polyline points="427,72 427,23 466,23 466,72" stroke="#6d725c" /></g><g id="3C17" stroke="red"><polyline points="439,146 439,94 478,94 478,146" stroke="#6d725c" /></g><g id="3C18" stroke="red"><polyline points="466,72 466,23 504,23 504,72" stroke="#6d725c" /></g><g id="3C19" stroke="red"><polyline points="478,146 478,94 518,94 518,146" stroke="#6d725c" /></g><g id="3C20" stroke="red"><polyline points="504,72 504,23 543,23 543,72" stroke="#6d725c" /></g><g id="3C21" stroke="red"><polyline points="536,147 536,94 586,94 586,147" stroke="#6d725c" /></g><g id="3C22" stroke="red"><polyline points="543,72 543,23 582,23 582,72" stroke="#6d725c" /></g><g id="3C23" stroke="red"><polyline points="635,147 586,147 586,94 615,94 635,106" stroke="#6d725c" /></g><g id="3C24" stroke="red"><polyline points="582,72 582,23 621,23 621,72" stroke="#6d725c" /></g><g id="3C26" stroke="red"><polyline points="707,121 621,72 621,23 747,23 747,28 752,28 752,30 781,30 781,35 784,35 784,121 750,121" stroke="#6d725c" /></g></svg>