<?xml version="1.0" encoding="utf-8" ?>
<svg baseProfile="full" height="457" version="1.1" width="800" xmlns="http://www.w3.org/2000/svg" xmlns:ev="http://www.w3.org/2001/xml-events" xmlns:xlink="http://www.w3.org/1999/xlink"><defs /><g id="1A01" stroke="red"><polyline fill="#ebf7d1" points="231,350 231,408 225,415 196,415 194,415 194,420 190,420 187,420 187,414 184,414 184,350 231,350" stroke="#6d725c" /></g><g id="1A02" stroke="red"><polyline fill="#ebf7d1" points="192,350 192,329 192,329 192,320 192,320 192,315 231,315 231,350" stroke="#6d725c" /></g><g id="1A04" stroke="red"><polyline fill="#ebf7d1" points="252,330 252,290 301,290 301,330" stroke="#6d725c" /></g><g id="1A05" stroke="red"><polyline fill="#ebf7d1" points="258,415 252,408 252,350 317,350 317,415" stroke="#6d725c" /></g><g id="1A06" stroke="red"><polyline fill="#ebf7d1" points="301,290 350,290 350,330 301,330" stroke="#6d725c" /></g><g id="1A07" stroke="red"><polyline fill="#ebf7d1" points="317,350 377,350 384,357 384,362 384,415 317,415" stroke="#6d725c" /></g><g id="1A08" stroke="red"><polyline fill="#ebf7d1" points="367,330 367,319 367,259 412,259 412,330" stroke="#6d725c" /></g><g id="1A10" stroke="red"><polyline fill="#ebf7d1" points="468,330 412,330 412,259 418,259 468,259 468,278" stroke="#6d725c" /></g><g id="1A11" stroke="red"><polyline fill="#ebf7d1" points="456,415 456,358 456,357 457,356 457,355 458,354 458,353 459,353 460,352 461,352 462,352 463,351 533,351 533,415" stroke="#6d725c" /></g><g id="1A12" stroke="red"><polyline fill="#ebf7d1" points="468,330 468,330 468,278 518,278 518,330" stroke="#6d725c" /></g><g id="1A13" stroke="red"><polyline fill="#ebf7d1" points="533,351 603,351 604,352 605,352 606,352 607,353 608,353 609,354 609,355 610,356 610,357 610,358 610,415 533,415" stroke="#6d725c" /></g><g id="1A14" stroke="red"><polyline fill="#ebf7d1" points="518,278 568,278 568,330 518,330" stroke="#6d725c" /></g><g id="1B01" stroke="red"><polyline fill="#ebf7d1" points="192,315 192,279 231,279 231,315" stroke="#6d725c" /></g><g id="1B02" stroke="red"><polyline fill="#ebf7d1" points="231,210 231,256 184,256 184,210" stroke="#6d725c" /></g><g id="1B05" stroke="red"><polyline fill="#ebf7d1" points="252,290 252,251 301,251 301,290" stroke="#6d725c" /></g><g id="1B06" stroke="red"><polyline fill="#ebf7d1" points="252,234 252,188 301,188 301,234" stroke="#6d725c" /></g><g id="1B07" stroke="red"><polyline fill="#ebf7d1" points="301,290 301,251 350,251 350,290" stroke="#6d725c" /></g><g id="1B08" stroke="red"><polyline fill="#ebf7d1" points="301,188 351,188 351,234 301,234" stroke="#6d725c" /></g><g id="1B09" stroke="red"><polyline fill="#ebf7d1" points="633,287 633,294 588,294 588,259 633,259 633,279 633,280" stroke="#6d725c" /></g><g id="1B10" stroke="red"><polyline fill="#ebf7d1" points="368,234 368,188 410,188 453,188 453,234" stroke="#6d725c" /></g><g id="1B12" stroke="red"><polyline fill="#ebf7d1" points="453,188 468,188 491,188 529,188 568,188 568,259 468,259 468,234 453,234" stroke="#6d725c" /></g><g id="1B14" stroke="red"><polyline fill="#ebf7d1" points="588,259 588,218 633,218 633,259" stroke="#6d725c" /></g><g id="1B16" stroke="red"><polyline fill="#ebf7d1" points="633,299 633,303 633,306 633,310 633,313 633,316 633,320 633,330 595,330 594,330 593,330 592,329 591,329 590,328 589,327 589,326 588,325 588,324 588,323 588,294 633,294 633,296" stroke="#6d725c" /></g><g id="1C01" stroke="red"><polyline fill="#ebf7d1" points="184,210 184,164 231,164 231,210" stroke="#6d725c" /></g><g id="1C02" stroke="red"><polyline fill="#ebf7d1" points="231,122 231,144 186,144 186,77 254,77 254,122" stroke="#6d725c" /></g><g id="1C04" stroke="red"><polyline fill="#ebf7d1" points="254,122 254,77 302,77 302,122" stroke="#6d725c" /></g><g id="1C05" stroke="red"><polyline fill="#ebf7d1" points="252,188 252,143 301,143 301,188" stroke="#6d725c" /></g><g id="1C06" stroke="red"><polyline fill="#ebf7d1" points="302,122 302,77 331,77 331,122" stroke="#6d725c" /></g><g id="1C07" stroke="red"><polyline fill="#ebf7d1" points="301,188 301,143 351,143 351,188" stroke="#6d725c" /></g><g id="1C08" stroke="red"><polyline fill="#ebf7d1" points="331,122 331,77 398,77 398,122" stroke="#6d725c" /></g><g id="1C10" stroke="red"><polyline fill="#ebf7d1" points="398,122 398,77 464,77 464,122" stroke="#6d725c" /></g><g id="1C11" stroke="red"><polyline fill="#ebf7d1" points="368,188 368,143 410,143 410,188" stroke="#6d725c" /></g><g id="1C12" stroke="red"><polyline fill="#ebf7d1" points="464,122 464,77 522,77 522,122" stroke="#6d725c" /></g><g id="1C13" stroke="red"><polyline fill="#ebf7d1" points="410,188 410,143 453,143 453,188" stroke="#6d725c" /></g><g id="1C15" stroke="red"><polyline fill="#ebf7d1" points="468,188 453,188 453,143 491,143 491,188" stroke="#6d725c" /></g><g id="1C17" stroke="red"><polyline fill="#ebf7d1" points="491,188 491,143 529,143 529,188" stroke="#6d725c" /></g><g id="1C19" stroke="red"><polyline fill="#ebf7d1" points="568,188 529,188 529,143 568,143" stroke="#6d725c" /></g><g id="1C21" stroke="red"><polyline fill="#ebf7d1" points="588,218 588,150 588,149 588,148 589,147 589,146 590,145 591,144 592,144 593,143 594,143 595,143 633,143 633,218" stroke="#6d725c" /></g><g id="1Y03" stroke="red"><polyline fill="#ebf7d1" points="653,354 653,350 653,347 653,343 653,340 653,320 653,316 653,313 653,310 653,306 653,303 653,299 653,296 653,280 633,280 633,279 633,259 633,218 633,143 737,143 737,151 754,151 754,415 653,415 653,374 653,371 653,367 653,364 653,360 653,357" stroke="#6d725c" /></g><g id="1Y04" stroke="red"><polyline fill="#ebf7d1" points="661,77 754,77 754,122 661,122" stroke="#6d725c" /></g><g id="1Y05" stroke="red"><polyline fill="#ebf7d1" points="661,122 522,122 522,77 522,75 470,75 470,51 613,51 613,77 661,77" stroke="#6d725c" /></g></svg>