<?xml version="1.0" encoding="utf-8" ?>
<svg baseProfile="full" height="430" version="1.1" width="800" xmlns="http://www.w3.org/2000/svg" xmlns:ev="http://www.w3.org/2001/xml-events" xmlns:xlink="http://www.w3.org/1999/xlink"><defs /><g id="4A08" stroke="red"><polyline points="345,301 345,266 535,266 515,301" stroke="#6d725c" /></g><g id="4D06" stroke="red"><polyline points="37,399 37,345 48,345 48,325 105,325 105,288 141,288 141,240 244,240 244,399" stroke="#6d725c" /></g><g id="4D08" stroke="red"><polyline points="352,399 244,399 244,240 323,240 323,323 352,323" stroke="#6d725c" /></g><g id="4D10" stroke="red"><polyline points="352,399 352,323 516,323 516,399" stroke="#6d725c" /></g><g id="4D12" stroke="red"><polyline points="516,399 516,323 669,323 669,399" stroke="#6d725c" /></g><g id="4D16" stroke="red"><polyline points="669,323 714,323 714,366 730,366 730,399 713,399 669,399" stroke="#6d725c" /></g><g id="4D18" stroke="red"><polyline points="655,268 655,301 564,301 564,268" stroke="#6d725c" /></g><g id="4Y01" stroke="red"><polyline points="564,268 561,268 561,193 346,193 346,182 328,182 328,217 147,217 147,116 40,116 40,29 767,29 767,24 799,24 799,115 765,115 765,193 747,193 747,268 655,268" stroke="#6d725c" /></g></svg>