<?xml version="1.0" encoding="utf-8" ?>
<svg baseProfile="full" height="735" version="1.1" width="800" xmlns="http://www.w3.org/2000/svg" xmlns:ev="http://www.w3.org/2001/xml-events" xmlns:xlink="http://www.w3.org/1999/xlink"><defs /><g id="1A01" stroke="red"><polyline fill="#FFFFFF" points="709,109 709,47 709,37 778,37 786,37 786,102 755,102 755,109 712,109" stroke="#6d725c" /></g><g id="1A02" stroke="red"><polyline fill="#FFFFFF" points="699,194 699,139 699,138 699,137 699,137 700,136 700,135 701,134 702,134 703,134 704,133 705,133 755,133 755,140 787,140 787,134 787,134 787,194" stroke="#6d725c" /></g><g id="1A04A" stroke="red"><polyline fill="#FFFFFF" points="644,133 669,133 670,133 671,134 671,134 672,134 673,135 674,136 674,137 674,137 675,138 675,139 675,200 675,201 674,202 674,203 674,204 673,204 672,205 671,205 671,206 670,206 669,206 644,206" stroke="#6d725c" /></g><g id="1A04B" stroke="red"><polyline fill="#FFFFFF" points="620,206 619,206 618,206 617,205 617,205 616,204 615,204 615,203 614,202 614,201 614,200 614,139 614,138 614,137 615,137 615,136 616,135 617,134 617,134 618,134 619,133 620,133 644,133 644,206" stroke="#6d725c" /></g><g id="1A05" stroke="red"><polyline fill="#FFFFFF" points="691,102 700,102 700,109 665,109 628,109 628,47 628,47 628,40 691,40" stroke="#6d725c" /></g><g id="1A06" stroke="red"><polyline fill="#FFFFFF" points="537,206 536,206 535,206 534,205 533,205 532,204 532,204 531,203 531,202 531,201 531,200 531,139 531,138 531,137 531,137 532,136 532,135 533,134 534,134 535,134 536,133 537,133 584,133 585,133 586,134 587,134 588,134 588,135 589,136 589,137 590,137 590,138 590,139 590,200 590,201 590,202 589,203 589,204 588,204 588,205 587,205 586,206 585,206 584,206" stroke="#6d725c" /></g><g id="1A09" stroke="red"><polyline fill="#FFFFFF" points="539,109 539,78 623,78 623,109 618,109" stroke="#6d725c" /></g><g id="1A10" stroke="red"><polyline fill="#FFFFFF" points="331,206 330,206 329,206 328,205 327,205 326,204 326,204 325,203 325,202 325,201 325,200 325,139 325,138 325,137 325,137 326,136 326,135 327,134 328,134 329,134 330,133 331,133 399,133 400,133 401,134 401,134 402,134 403,135 404,136 404,137 404,137 405,138 405,139 405,200 405,201 404,202 404,203 404,204 403,204 402,205 401,205 401,206 400,206 399,206" stroke="#6d725c" /></g><g id="1A11" stroke="red"><polyline fill="#FFFFFF" points="462,49 462,40 521,40 521,109 521,109 462,109" stroke="#6d725c" /></g><g id="1A12" stroke="red"><polyline fill="#FFFFFF" points="207,206 206,206 205,206 204,205 203,205 202,204 202,204 201,203 201,202 201,201 201,200 201,139 201,138 201,137 201,137 202,136 202,135 203,134 204,134 205,134 206,133 207,133 295,133 296,133 297,134 297,134 298,134 299,135 300,136 300,137 300,137 301,138 301,139 301,200 301,201 300,202 300,203 300,204 299,204 298,205 297,205 297,206 296,206 295,206" stroke="#6d725c" /></g><g id="1A13" stroke="red"><polyline fill="#FFFFFF" points="412,109 412,78 419,78 419,40 450,40 462,40 462,49 462,109" stroke="#6d725c" /></g><g id="1A15" stroke="red"><polyline fill="#FFFFFF" points="198,109 198,41 262,41 262,56 262,56 262,89 262,89 262,103 262,104 261,105 261,106 261,107 260,108 259,108 258,109 258,109 257,109 256,109 200,109 198,109" stroke="#6d725c" /></g><g id="1A16" stroke="red"><polyline fill="#FFFFFF" points="124,109 124,107 124,70 170,70 170,41 198,41 198,109 198,109" stroke="#6d725c" /></g><g id="1A26" stroke="red"><polyline fill="#FFFFFF" points="124,134 92,134 92,107 124,107 124,109" stroke="#6d725c" /></g><g id="1B01" stroke="red"><polyline fill="#FFFFFF" points="787,194 787,265 786,265 786,266 714,266 714,263 699,263 699,194" stroke="#6d725c" /></g><g id="1B02" stroke="red"><polyline fill="#FFFFFF" points="620,297 619,297 618,297 617,297 617,296 616,296 615,295 615,294 614,293 614,292 614,291 614,236 614,235 614,234 615,233 615,233 616,232 617,231 617,231 618,230 619,230 620,230 669,230 670,230 671,230 671,231 672,231 673,232 674,233 674,233 674,234 675,235 675,236 675,291 675,292 674,293 674,294 674,295 673,296 672,296 671,297 671,297 670,297 669,297" stroke="#6d725c" /></g><g id="1B03" stroke="red"><polyline fill="#FFFFFF" points="429,206 428,206 427,206 426,205 425,205 424,204 424,204 423,203 423,202 423,201 423,200 423,139 423,138 423,137 423,137 424,136 424,135 425,134 426,134 427,134 428,133 429,133 501,133 502,133 503,134 503,134 504,134 505,135 506,136 506,137 506,137 507,138 507,139 507,200 507,201 506,202 506,203 506,204 505,204 504,205 503,205 503,206 502,206 501,206" stroke="#6d725c" /></g><g id="1B04" stroke="red"><polyline fill="#FFFFFF" points="537,297 536,297 535,297 534,297 533,296 532,296 532,295 531,294 531,293 531,292 531,291 531,236 531,235 531,234 531,233 532,233 532,232 533,231 534,231 535,230 536,230 537,230 584,230 585,230 586,230 587,231 588,231 588,232 589,233 589,233 590,234 590,235 590,236 590,291 590,292 590,293 589,294 589,295 588,296 588,296 587,297 586,297 585,297 584,297" stroke="#6d725c" /></g><g id="1B06" stroke="red"><polyline fill="#FFFFFF" points="417,230 501,230 502,230 503,230 503,231 504,231 505,232 506,233 506,233 506,234 507,235 507,236 507,269 417,269" stroke="#6d725c" /></g><g id="1B08" stroke="red"><polyline fill="#FFFFFF" points="374,269 362,269 362,272 362,272 331,272 330,272 329,272 328,272 327,271 326,271 326,270 325,269 325,268 325,267 325,266 325,236 325,235 325,234 325,233 326,233 326,232 327,231 328,231 329,230 330,230 331,230 417,230 417,269" stroke="#6d725c" /></g><g id="1B10" stroke="red"><polyline fill="#FFFFFF" points="207,300 206,300 205,300 204,300 203,299 202,299 202,298 201,297 201,296 201,295 201,294 201,236 201,235 201,234 201,233 202,233 202,232 203,231 204,231 205,230 206,230 207,230 295,230 296,230 297,230 297,231 298,231 299,232 300,233 300,233 300,234 301,235 301,236 301,294 301,295 300,296 300,297 300,298 299,299 298,299 297,300 297,300 296,300 295,300" stroke="#6d725c" /></g><g id="1C01" stroke="red"><polyline fill="#FFFFFF" points="620,392 619,392 618,392 617,392 617,391 616,391 615,390 615,389 614,388 614,387 614,386 614,333 614,332 614,331 615,331 615,330 616,329 617,328 617,328 618,328 619,327 620,327 664,327 665,327 666,328 667,328 667,328 668,329 669,330 669,331 670,331 670,332 670,333 670,386 670,387 670,388 669,389 669,390 668,391 667,391 667,392 666,392 665,392 664,392" stroke="#6d725c" /></g><g id="1C03" stroke="red"><polyline fill="#FFFFFF" points="537,407 536,407 535,407 534,407 533,406 532,406 532,405 531,404 531,403 531,402 531,401 531,333 531,332 531,331 531,331 532,330 532,329 533,328 534,328 535,328 536,327 537,327 584,327 585,327 586,328 587,328 588,328 588,329 589,330 589,331 590,331 590,332 590,333 590,395 590,395 590,396 590,397 589,397 589,398 588,399 588,399 587,400 587,400 586,400 564,407 564,407 564,407 564,407 564,407 564,407 563,407 563,407 563,407 563,407 563,407" stroke="#6d725c" /></g><g id="1C05" stroke="red"><polyline fill="#FFFFFF" points="417,358 501,358 502,358 503,359 503,359 504,359 505,360 506,361 506,362 506,362 507,363 507,364 507,401 507,402 506,403 506,404 506,405 505,406 504,406 503,407 503,407 502,407 501,407 417,407" stroke="#6d725c" /></g><g id="1C09" stroke="red"><polyline fill="#FFFFFF" points="331,407 330,407 329,407 328,407 327,406 326,406 326,405 325,404 325,403 325,402 325,401 325,364 325,363 325,362 325,362 326,361 326,360 327,359 328,359 329,359 330,358 331,358 417,358 417,407" stroke="#6d725c" /></g><g id="1C13" stroke="red"><polyline fill="#FFFFFF" points="251,366 251,324 295,324 296,324 297,325 297,325 298,325 299,326 300,327 300,328 300,328 301,329 301,330 301,366" stroke="#6d725c" /></g><g id="1C13A" stroke="red"><polyline fill="#FFFFFF" points="201,366 201,330 201,329 201,328 201,328 202,327 202,326 203,325 204,325 205,325 206,324 207,324 251,324 251,366" stroke="#6d725c" /></g><g id="1D01A" stroke="red"><polyline fill="#FFFFFF" points="796,482 796,517 786,517 786,529 714,529 714,515 693,515 693,438 786,438 786,443 796,443 796,471 796,481" stroke="#6d725c" /></g><g id="1D01B" stroke="red"><polyline fill="#FFFFFF" points="693,438 693,365 740,365 740,421 740,421 787,421 787,433 786,433 786,438" stroke="#6d725c" /></g><g id="1D03" stroke="red"><polyline fill="#FFFFFF" points="626,478 626,478 626,467 567,467 567,431 614,417 616,416 666,416 667,416 668,417 668,417 669,417 670,418 671,419 671,420 671,420 672,421 672,422 672,478 672,478" stroke="#6d725c" /></g><g id="1D03A" stroke="red"><polyline fill="#FFFFFF" points="672,478 672,529 626,529 626,478" stroke="#6d725c" /></g><g id="1D05" stroke="red"><polyline fill="#FFFFFF" points="539,467 539,431 567,431 567,467" stroke="#6d725c" /></g><g id="1D07" stroke="red"><polyline fill="#FFFFFF" points="482,467 482,431 539,431 539,467" stroke="#6d725c" /></g><g id="1D09" stroke="red"><polyline fill="#FFFFFF" points="482,468 425,468 425,467 425,431 482,431 482,467" stroke="#6d725c" /></g><g id="1D11" stroke="red"><polyline fill="#FFFFFF" points="367,467 367,437 368,436 368,435 368,435 369,434 369,433 370,432 371,432 372,432 373,431 373,431 425,431 425,467" stroke="#6d725c" /></g><g id="1D13" stroke="red"><polyline fill="#FFFFFF" points="280,525 280,431 340,431 341,431 342,432 343,432 344,432 345,433 345,434 346,435 346,435 346,436 346,437 346,521 346,522 346,523 346,524 345,525 345,526 344,526 343,527 342,527 341,527 340,527 301,527 280,527" stroke="#6d725c" /></g><g id="1D15" stroke="red"><polyline fill="#FFFFFF" points="210,527 201,527 201,431 280,431 280,525 280,527" stroke="#6d725c" /></g><g id="1E02" stroke="red"><polyline fill="#FFFFFF" points="366,678 364,678 364,695 141,695 141,676 121,676 121,628 138,628 138,613 242,613 346,613 346,635 366,635" stroke="#6d725c" /></g><g id="1F-C08" stroke="red"><polyline fill="#FFFFFF" points="787,529 787,606 787,643 683,643 683,683 694,683 694,688 630,688 616,688 536,688 536,678 536,600 595,600 595,577 626,577 626,529 714,529" stroke="#6d725c" /></g><g id="1G01A" stroke="red"><polyline fill="#FFFFFF" points="138,613 138,547 242,547 242,613" stroke="#6d725c" /></g><g id="1G01B" stroke="red"><polyline fill="#FFFFFF" points="242,613 242,547 340,547 341,547 342,548 343,548 344,548 345,549 345,550 346,551 346,551 346,552 346,553 346,613" stroke="#6d725c" /></g><g id="1G03" stroke="red"><polyline fill="#FFFFFF" points="251,366 301,366 301,401 301,402 300,403 300,404 300,405 299,406 298,406 297,407 297,407 296,407 295,407 251,407" stroke="#6d725c" /></g><g id="1G03A" stroke="red"><polyline fill="#FFFFFF" points="207,407 206,407 205,407 204,407 203,406 202,406 202,405 201,404 201,403 201,402 201,401 201,366 251,366 251,407" stroke="#6d725c" /></g><g id="1G04" stroke="red"><polyline fill="#FFFFFF" points="66,380 66,349 49,349 49,347 48,347 48,331 85,331 85,324 171,324 172,324 173,325 173,325 174,326 175,326 176,327 176,328 176,329 177,329 177,330 177,380" stroke="#6d725c" /></g><g id="1G04A" stroke="red"><polyline fill="#FFFFFF" points="49,431 49,380 66,380 177,380 177,431" stroke="#6d725c" /></g><g id="1G05" stroke="red"><polyline fill="#FFFFFF" points="177,294 177,295 176,296 176,297 176,298 175,299 174,299 173,300 173,300 172,300 171,300 85,300 85,293 63,293 63,270 87,270 87,191 126,191 126,186 92,186 92,160 171,160 172,160 173,160 173,160 174,161 175,161 176,162 176,163 176,164 177,165 177,166" stroke="#6d725c" /></g><g id="1G06" stroke="red"><polyline fill="#FFFFFF" points="177,431 177,523 177,524 176,525 176,526 176,527 175,528 174,528 173,529 173,529 172,529 171,529 120,529 120,578 70,578 70,495 49,495 49,431" stroke="#6d725c" /></g></svg>