<?xml version="1.0" encoding="utf-8" ?>
<svg baseProfile="full" height="735" version="1.1" width="800" xmlns="http://www.w3.org/2000/svg" xmlns:ev="http://www.w3.org/2001/xml-events" xmlns:xlink="http://www.w3.org/1999/xlink"><defs /><g id="1A01" stroke="red"><polyline points="689,106 689,36 764,36 764,99 734,99 734,106" stroke="#6d725c" /></g><g id="1A02" stroke="red"><polyline points="679,188 679,135 679,135 679,134 680,133 680,132 681,131 682,131 682,130 683,130 684,130 685,130 734,130 734,136 765,136 765,131 765,131 765,188" stroke="#6d725c" /></g><g id="1A04" stroke="red"><polyline points="603,200 602,200 601,200 600,200 599,199 599,199 598,198 598,197 597,196 597,195 597,194 597,135 597,135 597,134 598,133 598,132 599,131 599,131 600,130 601,130 602,130 603,130 650,130 651,130 652,130 653,130 653,131 654,131 655,132 655,133 656,134 656,135 656,135 656,194 656,195 656,196 655,197 655,198 654,199 653,199 653,200 652,200 651,200 650,200" stroke="#6d725c" /></g><g id="1A05" stroke="red"><polyline points="671,99 680,99 680,106 646,106 610,106 610,46 611,46 611,39 671,39" stroke="#6d725c" /></g><g id="1A06" stroke="red"><polyline points="522,200 521,200 520,200 519,200 518,199 518,199 517,198 516,197 516,196 516,195 516,194 516,135 516,135 516,134 516,133 517,132 518,131 518,131 519,130 520,130 521,130 522,130 568,130 569,130 570,130 570,130 571,131 572,131 572,132 573,133 573,134 574,135 574,135 574,194 574,195 573,196 573,197 572,198 572,199 571,199 570,200 570,200 569,200 568,200" stroke="#6d725c" /></g><g id="1A09" stroke="red"><polyline points="524,106 524,76 605,76 605,106 600,106" stroke="#6d725c" /></g><g id="1A10" stroke="red"><polyline points="321,200 321,200 320,200 319,200 318,199 317,199 317,198 316,197 316,196 316,195 316,194 316,135 316,135 316,134 316,133 317,132 317,131 318,131 319,130 320,130 321,130 321,130 388,130 388,130 389,130 390,130 391,131 392,131 392,132 393,133 393,134 393,135 393,135 393,194 393,195 393,196 393,197 392,198 392,199 391,199 390,200 389,200 388,200 388,200" stroke="#6d725c" /></g><g id="1A11" stroke="red"><polyline points="449,39 506,39 506,106 449,106" stroke="#6d725c" /></g><g id="1A12" stroke="red"><polyline points="201,200 200,200 199,200 198,200 197,199 197,199 196,198 196,197 195,196 195,195 195,194 195,135 195,135 195,134 196,133 196,132 197,131 197,131 198,130 199,130 200,130 201,130 286,130 287,130 288,130 289,130 290,131 291,131 291,132 292,133 292,134 292,135 292,135 292,194 292,195 292,196 292,197 291,198 291,199 290,199 289,200 288,200 287,200 286,200" stroke="#6d725c" /></g><g id="1A13" stroke="red"><polyline points="400,106 400,76 407,76 407,39 437,39 449,39 449,106" stroke="#6d725c" /></g><g id="1A15" stroke="red"><polyline points="192,40 254,40 254,55 254,55 254,87 254,87 254,100 254,101 254,102 254,103 253,104 253,105 252,105 251,106 250,106 249,106 249,106 192,106" stroke="#6d725c" /></g><g id="1A16" stroke="red"><polyline points="120,106 120,104 120,68 165,68 165,40 192,40 192,106" stroke="#6d725c" /></g><g id="1A26" stroke="red"><polyline points="120,130 89,130 89,104 120,104 120,106" stroke="#6d725c" /></g><g id="1B01" stroke="red"><polyline points="765,188 765,258 764,258 764,259 694,259 694,256 679,256 679,188" stroke="#6d725c" /></g><g id="1B02" stroke="red"><polyline points="603,289 602,289 601,289 600,288 599,288 599,287 598,287 598,286 597,285 597,284 597,283 597,229 597,229 597,228 598,227 598,226 599,225 599,225 600,224 601,224 602,224 603,224 650,224 651,224 652,224 653,224 653,225 654,225 655,226 655,227 656,228 656,229 656,229 656,283 656,284 656,285 655,286 655,287 654,287 653,288 653,288 652,289 651,289 650,289" stroke="#6d725c" /></g><g id="1B03" stroke="red"><polyline points="417,200 416,200 415,200 414,200 413,199 413,199 412,198 411,197 411,196 411,195 411,194 411,135 411,135 411,134 411,133 412,132 413,131 413,131 414,130 415,130 416,130 417,130 487,130 488,130 488,130 489,130 490,131 491,131 491,132 492,133 492,134 492,135 493,135 493,194 492,195 492,196 492,197 491,198 491,199 490,199 489,200 488,200 488,200 487,200" stroke="#6d725c" /></g><g id="1B04" stroke="red"><polyline points="522,289 521,289 520,289 519,288 518,288 518,287 517,287 516,286 516,285 516,284 516,283 516,229 516,229 516,228 516,227 517,226 518,225 518,225 519,224 520,224 521,224 522,224 568,224 569,224 570,224 570,224 571,225 572,225 572,226 573,227 573,228 574,229 574,229 574,283 574,284 573,285 573,286 572,287 572,287 571,288 570,288 570,289 569,289 568,289" stroke="#6d725c" /></g><g id="1B06" stroke="red"><polyline points="405,224 487,224 488,224 488,224 489,224 490,225 491,225 491,226 492,227 492,228 492,229 493,229 493,261 405,261" stroke="#6d725c" /></g><g id="1B08" stroke="red"><polyline points="363,261 352,261 352,265 352,265 321,265 321,265 320,265 319,264 318,264 317,263 317,262 316,262 316,261 316,260 316,259 316,229 316,229 316,228 316,227 317,226 317,225 318,225 319,224 320,224 321,224 321,224 405,224 405,261" stroke="#6d725c" /></g><g id="1B10" stroke="red"><polyline points="201,292 200,292 199,292 198,291 197,291 197,290 196,289 196,289 195,288 195,287 195,286 195,229 195,229 195,228 196,227 196,226 197,225 197,225 198,224 199,224 200,224 201,224 286,224 287,224 288,224 289,224 290,225 291,225 291,226 292,227 292,228 292,229 292,229 292,286 292,287 292,288 292,289 291,289 291,290 290,291 289,291 288,292 287,292 286,292" stroke="#6d725c" /></g><g id="1C01" stroke="red"><polyline points="603,381 602,381 601,381 600,381 599,380 599,380 598,379 598,378 597,377 597,376 597,376 597,324 597,323 597,322 598,321 598,321 599,320 599,319 600,319 601,318 602,318 603,318 645,318 646,318 647,318 648,319 649,319 649,320 650,321 651,321 651,322 651,323 651,324 651,376 651,376 651,377 651,378 650,379 649,380 649,380 648,381 647,381 646,381 645,381" stroke="#6d725c" /></g><g id="1C03" stroke="red"><polyline points="522,396 521,396 520,396 519,395 518,395 518,394 517,394 516,393 516,392 516,391 516,390 516,324 516,323 516,322 516,321 517,321 518,320 518,319 519,319 520,318 521,318 522,318 568,318 569,318 570,318 570,319 571,319 572,320 572,321 573,321 573,322 574,323 574,324 574,384 574,384 573,385 573,386 573,386 572,387 572,388 571,388 571,388 570,389 570,389 549,396 548,396 548,396 548,396 548,396 548,396 548,396 547,396 547,396 547,396 547,396" stroke="#6d725c" /></g><g id="1C05" stroke="red"><polyline points="405,348 487,348 488,348 488,349 489,349 490,349 491,350 491,351 492,351 492,352 492,353 493,354 493,390 492,391 492,392 492,393 491,394 491,394 490,395 489,395 488,396 488,396 487,396 405,396" stroke="#6d725c" /></g><g id="1C09" stroke="red"><polyline points="321,396 321,396 320,396 319,395 318,395 317,394 317,394 316,393 316,392 316,391 316,390 316,354 316,353 316,352 316,351 317,351 317,350 318,349 319,349 320,349 321,348 321,348 405,348 405,396" stroke="#6d725c" /></g><g id="1C13" stroke="red"><polyline points="272,346 204,346 195,346 195,321 195,320 195,319 196,318 196,318 197,317 197,316 198,316 199,315 200,315 201,315 286,315 287,315 288,315 289,316 290,316 291,317 291,318 292,318 292,319 292,320 292,321 292,346" stroke="#6d725c" /></g><g id="1D01A" stroke="red"><polyline points="694,501 673,501 673,426 764,426 764,431 774,431 774,503 764,503 764,514 694,514" stroke="#6d725c" /></g><g id="1D01B" stroke="red"><polyline points="673,426 673,355 719,355 719,409 765,409 765,421 764,421 764,426" stroke="#6d725c" /></g><g id="1D03" stroke="red"><polyline points="608,465 608,454 551,454 551,419 597,405 599,405 647,405 648,405 649,405 650,405 651,406 651,406 652,407 652,408 653,409 653,410 653,411 653,465 653,465" stroke="#6d725c" /></g><g id="1D03A" stroke="red"><polyline points="653,465 653,514 608,514 608,465" stroke="#6d725c" /></g><g id="1D05" stroke="red"><polyline points="524,454 524,419 551,419 551,454" stroke="#6d725c" /></g><g id="1D07" stroke="red"><polyline points="468,454 468,419 524,419 524,454" stroke="#6d725c" /></g><g id="1D08" stroke="red"><polyline points="357,454 357,419 413,419 413,454" stroke="#6d725c" /></g><g id="1D09" stroke="red"><polyline points="413,454 413,419 468,419 468,454" stroke="#6d725c" /></g><g id="1D13" stroke="red"><polyline points="357,510 316,510 316,422 316,422 316,421 316,421 316,421 317,420 317,420 317,420 318,419 318,419 319,419 357,419 357,454" stroke="#6d725c" /></g><g id="1D14" stroke="red"><polyline points="357,510 357,561 356,561 356,589 316,589 316,510" stroke="#6d725c" /></g><g id="1D15" stroke="red"><polyline points="195,515 195,419 292,419 292,515" stroke="#6d725c" /></g><g id="1D16" stroke="red"><polyline points="195,596 195,532 292,532 292,596" stroke="#6d725c" /></g><g id="1D18" stroke="red"><polyline points="116,562 116,515 172,515 172,599 118,599 118,583 114,583 114,562" stroke="#6d725c" /></g><g id="1E13" stroke="red"><polyline points="237,620 356,620 356,676 237,676" stroke="#6d725c" /></g><g id="1E15" stroke="red"><polyline points="237,676 136,676 136,658 118,658 118,613 172,613 172,620 237,620" stroke="#6d725c" /></g><g id="1F-C08" stroke="red"><polyline points="765,514 765,589 765,625 664,625 664,664 675,664 675,669 612,669 598,669 521,669 521,584 578,584 578,561 608,561 608,514 694,514" stroke="#6d725c" /></g><g id="1G03" stroke="red"><polyline points="244,349 272,349 272,346 292,346 292,390 292,391 292,392 292,393 291,394 291,394 290,395 289,395 288,396 287,396 286,396 244,396" stroke="#6d725c" /></g><g id="1G03A" stroke="red"><polyline points="204,349 244,349 244,396 201,396 200,396 199,396 198,395 197,395 197,394 196,394 196,393 195,392 195,391 195,390 195,346 204,346" stroke="#6d725c" /></g><g id="1G04" stroke="red"><polyline points="64,369 64,340 47,340 47,338 46,338 46,322 83,322 83,315 166,315 167,315 168,316 169,316 169,316 170,317 171,318 171,318 171,319 172,320 172,321 172,369" stroke="#6d725c" /></g><g id="1G04A" stroke="red"><polyline points="47,419 47,369 64,369 172,369 172,419" stroke="#6d725c" /></g><g id="1G05" stroke="red"><polyline points="172,286 172,287 171,288 171,289 171,289 170,290 169,291 169,291 168,292 167,292 166,292 83,292 83,285 61,285 61,263 84,263 84,186 122,186 122,181 89,181 89,155 166,155 167,155 168,155 169,156 169,156 170,157 171,158 171,158 171,159 172,160 172,161" stroke="#6d725c" /></g><g id="1G06" stroke="red"><polyline points="116,515 116,562 114,562 68,562 68,481 47,481 47,419 172,419 172,515" stroke="#6d725c" /></g></svg>