<?xml version="1.0" encoding="utf-8" ?>
<svg baseProfile="full" height="779" version="1.1" width="800" xmlns="http://www.w3.org/2000/svg" xmlns:ev="http://www.w3.org/2001/xml-events" xmlns:xlink="http://www.w3.org/1999/xlink"><defs /><g id="0A06" stroke="red"><polyline fill="#FFFFFF" points="595,174 595,174 595,142 613,142 631,142 631,161 641,161 641,174" stroke="#6d725c" /></g><g id="0A08" stroke="red"><polyline fill="#FFFFFF" points="613,142 595,142 595,110 599,105 618,105 618,111 631,111 631,142 631,142" stroke="#6d725c" /></g><g id="0A09" stroke="red"><polyline fill="#FFFFFF" points="574,56 574,17 609,17 609,56" stroke="#6d725c" /></g><g id="0A13A" stroke="red"><polyline fill="#FFFFFF" points="502,66 502,17 520,17 520,66" stroke="#6d725c" /></g><g id="0A13B" stroke="red"><polyline fill="#FFFFFF" points="520,17 538,17 538,66 520,66" stroke="#6d725c" /></g><g id="0A14" stroke="red"><polyline fill="#FFFFFF" points="532,106 485,106 485,91 490,87 532,87" stroke="#6d725c" /></g><g id="0A15" stroke="red"><polyline fill="#FFFFFF" points="502,66 472,66 467,66 467,17 502,17 502,66" stroke="#6d725c" /></g><g id="0A17" stroke="red"><polyline fill="#FFFFFF" points="467,66 436,66 431,66 431,17 467,17 467,66" stroke="#6d725c" /></g><g id="0A20A" stroke="red"><polyline fill="#FFFFFF" points="427,124 427,111 470,111 470,124" stroke="#6d725c" /></g><g id="0A20B" stroke="red"><polyline fill="#FFFFFF" points="427,138 427,124 470,124 470,138" stroke="#6d725c" /></g><g id="0A22" stroke="red"><polyline fill="#FFFFFF" points="427,152 427,138 470,138 470,152" stroke="#6d725c" /></g><g id="0A22A" stroke="red"><polyline fill="#FFFFFF" points="437,166 427,166 427,152 470,152 470,166" stroke="#6d725c" /></g><g id="0A24" stroke="red"><polyline fill="#FFFFFF" points="427,166 427,171 381,171 381,138 404,138 427,138 427,152" stroke="#6d725c" /></g><g id="0A26" stroke="red"><polyline fill="#FFFFFF" points="381,138 381,111 404,111 404,138" stroke="#6d725c" /></g><g id="0A26A" stroke="red"><polyline fill="#FFFFFF" points="427,138 404,138 404,111 427,111 427,124" stroke="#6d725c" /></g><g id="0A27" stroke="red"><polyline fill="#FFFFFF" points="401,66 396,66 396,66 396,66 396,17 431,17 431,66" stroke="#6d725c" /></g><g id="0A28A" stroke="red"><polyline fill="#FFFFFF" points="404,111 404,87 427,87 427,111" stroke="#6d725c" /></g><g id="0A28B" stroke="red"><polyline fill="#FFFFFF" points="381,111 381,91 386,87 404,87 404,111" stroke="#6d725c" /></g><g id="0A29" stroke="red"><polyline fill="#FFFFFF" points="396,17 396,66 365,66 360,66 360,56 360,17 396,17 396,17" stroke="#6d725c" /></g><g id="0A31" stroke="red"><polyline fill="#FFFFFF" points="325,17 360,17 360,66 330,66 325,66" stroke="#6d725c" /></g><g id="0A33" stroke="red"><polyline fill="#FFFFFF" points="294,66 289,66 289,56 289,17 325,17 325,66" stroke="#6d725c" /></g><g id="0A34" stroke="red"><polyline fill="#FFFFFF" points="315,111 293,111 293,107 278,107 278,123 264,123 264,91 269,87 315,87" stroke="#6d725c" /></g><g id="0A35" stroke="red"><polyline fill="#FFFFFF" points="218,56 218,17 289,17 289,56" stroke="#6d725c" /></g><g id="0A36" stroke="red"><polyline fill="#FFFFFF" points="190,168 190,139 244,139 244,168" stroke="#6d725c" /></g><g id="0B01" stroke="red"><polyline fill="#FFFFFF" points="710,234 710,201 780,201 780,234" stroke="#6d725c" /></g><g id="0B02A" stroke="red"><polyline fill="#FFFFFF" points="780,234 780,261 710,261 710,234" stroke="#6d725c" /></g><g id="0B03" stroke="red"><polyline fill="#FFFFFF" points="710,201 710,174 710,166 712,166 780,166 780,201" stroke="#6d725c" /></g><g id="0B05" stroke="red"><polyline fill="#FFFFFF" points="642,201 641,201 641,174 689,174 689,201" stroke="#6d725c" /></g><g id="0B07" stroke="red"><polyline fill="#FFFFFF" points="641,227 641,201 642,201 689,201 689,230 685,235 651,235 641,235" stroke="#6d725c" /></g><g id="0B09" stroke="red"><polyline fill="#FFFFFF" points="595,235 595,201 641,201 641,227 641,235" stroke="#6d725c" /></g><g id="0B11" stroke="red"><polyline fill="#FFFFFF" points="641,201 595,201 595,174 641,174 641,174" stroke="#6d725c" /></g><g id="0B13" stroke="red"><polyline fill="#FFFFFF" points="532,172 532,142 532,142 574,142 574,158 574,166 579,166 579,201 532,201" stroke="#6d725c" /></g><g id="0B17" stroke="red"><polyline fill="#FFFFFF" points="507,235 507,235 496,235 490,235 485,230 485,201 507,201 507,218" stroke="#6d725c" /></g><g id="0B17A" stroke="red"><polyline fill="#FFFFFF" points="507,201 532,201 532,235 507,235 507,218" stroke="#6d725c" /></g><g id="0B19" stroke="red"><polyline fill="#FFFFFF" points="532,172 532,172 532,201 507,201 507,201 485,201 485,164 498,164 498,166 507,166 507,158 502,158 502,142 532,142" stroke="#6d725c" /></g><g id="0B20" stroke="red"><polyline fill="#FFFFFF" points="540,310 510,310 502,310 502,299 502,276 541,276 541,276 541,310" stroke="#6d725c" /></g><g id="0B21" stroke="red"><polyline fill="#FFFFFF" points="428,201 427,201 427,171 427,166 437,166 470,166 470,201" stroke="#6d725c" /></g><g id="0B22" stroke="red"><polyline fill="#FFFFFF" points="441,277 470,277 470,303 441,303" stroke="#6d725c" /></g><g id="0B23" stroke="red"><polyline fill="#FFFFFF" points="428,201 470,201 470,230 466,235 437,235 427,235 427,227 427,201" stroke="#6d725c" /></g><g id="0B24" stroke="red"><polyline fill="#FFFFFF" points="441,277 441,255 466,255 470,259 470,277" stroke="#6d725c" /></g><g id="0B26" stroke="red"><polyline fill="#FFFFFF" points="441,303 412,303 412,255 441,255 441,277" stroke="#6d725c" /></g><g id="0B27" stroke="red"><polyline fill="#FFFFFF" points="381,201 381,171 427,171 427,201" stroke="#6d725c" /></g><g id="0B28" stroke="red"><polyline fill="#FFFFFF" points="382,303 382,255 412,255 412,303" stroke="#6d725c" /></g><g id="0B29" stroke="red"><polyline fill="#FFFFFF" points="315,201 315,201 315,187 315,163 356,163 356,166 357,166 366,166 366,201" stroke="#6d725c" /></g><g id="0B31" stroke="red"><polyline fill="#FFFFFF" points="366,227 366,235 315,235 315,201 366,201" stroke="#6d725c" /></g><g id="0B32" stroke="red"><polyline fill="#FFFFFF" points="294,294 294,284 294,269 294,255 328,255 333,259 333,294" stroke="#6d725c" /></g><g id="0B33A" stroke="red"><polyline fill="#FFFFFF" points="290,235 269,235 264,230 264,201 290,201" stroke="#6d725c" /></g><g id="0B33B" stroke="red"><polyline fill="#FFFFFF" points="290,201 315,201 315,235 290,235" stroke="#6d725c" /></g><g id="0B34A" stroke="red"><polyline fill="#FFFFFF" points="299,335 294,335 294,323 294,314 333,314 333,335" stroke="#6d725c" /></g><g id="0B34B" stroke="red"><polyline fill="#FFFFFF" points="294,314 294,311 294,299 294,294 333,294 333,314" stroke="#6d725c" /></g><g id="0B35" stroke="red"><polyline fill="#FFFFFF" points="315,201 264,201 264,164 278,164 278,166 293,166 293,163 315,163 315,187" stroke="#6d725c" /></g><g id="0B36" stroke="red"><polyline fill="#FFFFFF" points="264,311 264,299 294,299 294,311" stroke="#6d725c" /></g><g id="0B36A" stroke="red"><polyline fill="#FFFFFF" points="294,323 264,323 264,311 294,311 294,314" stroke="#6d725c" /></g><g id="0B36B" stroke="red"><polyline fill="#FFFFFF" points="264,335 264,323 294,323 294,335" stroke="#6d725c" /></g><g id="0B37" stroke="red"><polyline fill="#FFFFFF" points="201,201 201,183 244,183 244,201" stroke="#6d725c" /></g><g id="0B37A" stroke="red"><polyline fill="#FFFFFF" points="201,219 201,201 244,201 244,219" stroke="#6d725c" /></g><g id="0B37B" stroke="red"><polyline fill="#FFFFFF" points="224,238 224,232 201,232 201,219 244,219 244,238 244,238" stroke="#6d725c" /></g><g id="0B38" stroke="red"><polyline fill="#FFFFFF" points="264,269 264,259 269,255 294,255 294,269" stroke="#6d725c" /></g><g id="0B38A" stroke="red"><polyline fill="#FFFFFF" points="264,284 264,269 294,269 294,284" stroke="#6d725c" /></g><g id="0B38B" stroke="red"><polyline fill="#FFFFFF" points="294,299 264,299 264,284 294,284 294,294" stroke="#6d725c" /></g><g id="0B39A" stroke="red"><polyline fill="#FFFFFF" points="244,238 244,255 201,255 201,236 214,236 214,238 224,238" stroke="#6d725c" /></g><g id="0B39B" stroke="red"><polyline fill="#FFFFFF" points="244,255 244,272 201,272 201,255" stroke="#6d725c" /></g><g id="0B43" stroke="red"><polyline fill="#FFFFFF" points="201,339 201,304 244,304 244,339" stroke="#6d725c" /></g><g id="0C07" stroke="red"><polyline fill="#FFFFFF" points="565,310 579,310 579,329 541,329 541,310 541,310 550,310" stroke="#6d725c" /></g><g id="0C08" stroke="red"><polyline fill="#FFFFFF" points="553,369 540,369 540,339 579,339 579,369" stroke="#6d725c" /></g><g id="0C09" stroke="red"><polyline fill="#FFFFFF" points="541,310 540,329 502,329 502,310 541,310" stroke="#6d725c" /></g><g id="0D01" stroke="red"><polyline fill="#FFFFFF" points="651,504 696,504 696,519 696,520 696,520 696,521 695,522 695,522 694,523 694,523 693,524 692,524 691,524 651,524" stroke="#6d725c" /></g><g id="0D03" stroke="red"><polyline fill="#FFFFFF" points="604,524 603,524 603,524 602,523 601,523 601,522 600,522 600,521 599,520 599,520 599,519 599,504 651,504 651,524" stroke="#6d725c" /></g><g id="0D04" stroke="red"><polyline fill="#FFFFFF" points="712,521 712,409 722,409 722,402 722,396 780,396 780,521" stroke="#6d725c" /></g><g id="0D06" stroke="red"><polyline fill="#FFFFFF" points="651,504 651,453 696,453 696,504" stroke="#6d725c" /></g><g id="0D08" stroke="red"><polyline fill="#FFFFFF" points="599,504 599,453 651,453 651,504" stroke="#6d725c" /></g><g id="0D10A" stroke="red"><polyline fill="#FFFFFF" points="565,447 565,424 573,424 577,428 577,447" stroke="#6d725c" /></g><g id="0D10B" stroke="red"><polyline fill="#FFFFFF" points="577,447 577,471 565,471 565,447" stroke="#6d725c" /></g><g id="0D11" stroke="red"><polyline fill="#FFFFFF" points="553,369 579,369 579,404 575,408 553,408" stroke="#6d725c" /></g><g id="0D12" stroke="red"><polyline fill="#FFFFFF" points="553,408 540,408 540,369 540,369 540,369 553,369" stroke="#6d725c" /></g><g id="0D13" stroke="red"><polyline fill="#FFFFFF" points="528,389 528,408 506,408 502,404 502,369 528,369" stroke="#6d725c" /></g><g id="0D14A" stroke="red"><polyline fill="#FFFFFF" points="541,293 541,276 579,276 579,293" stroke="#6d725c" /></g><g id="0D14B" stroke="red"><polyline fill="#FFFFFF" points="541,310 541,310 541,293 541,293 579,293 579,293 579,310 550,310" stroke="#6d725c" /></g><g id="0D15" stroke="red"><polyline fill="#FFFFFF" points="528,408 528,389 528,369 540,369 540,408" stroke="#6d725c" /></g><g id="0D16A" stroke="red"><polyline fill="#FFFFFF" points="421,435 421,424 453,424 453,435" stroke="#6d725c" /></g><g id="0D16B" stroke="red"><polyline fill="#FFFFFF" points="421,447 421,435 453,435 453,447" stroke="#6d725c" /></g><g id="0D16C" stroke="red"><polyline fill="#FFFFFF" points="421,447 453,447 453,471 421,471" stroke="#6d725c" /></g><g id="0D17" stroke="red"><polyline fill="#FFFFFF" points="412,408 412,377 424,377 438,377 441,377 441,408" stroke="#6d725c" /></g><g id="0D18" stroke="red"><polyline fill="#FFFFFF" points="421,435 421,447 421,471 386,471 386,424 421,424" stroke="#6d725c" /></g><g id="0D20" stroke="red"><polyline fill="#FFFFFF" points="386,471 354,471 354,428 359,424 386,424" stroke="#6d725c" /></g><g id="0D23" stroke="red"><polyline fill="#FFFFFF" points="299,335 333,335 333,378 299,378" stroke="#6d725c" /></g><g id="0D32" stroke="red"><polyline fill="#FFFFFF" points="264,523 264,490 299,490 299,490 299,523" stroke="#6d725c" /></g><g id="0D34" stroke="red"><polyline fill="#FFFFFF" points="264,490 264,457 299,457 299,490" stroke="#6d725c" /></g><g id="0D35" stroke="red"><polyline fill="#FFFFFF" points="282,393 299,393 299,408 282,408" stroke="#6d725c" /></g><g id="0D35A" stroke="red"><polyline fill="#FFFFFF" points="282,408 269,408 264,404 264,393 264,378 282,378 282,393" stroke="#6d725c" /></g><g id="0D35B" stroke="red"><polyline fill="#FFFFFF" points="282,393 282,378 299,378 299,393" stroke="#6d725c" /></g><g id="0D36" stroke="red"><polyline fill="#FFFFFF" points="264,457 264,428 269,424 299,424 299,441 299,453 299,457" stroke="#6d725c" /></g><g id="0D41" stroke="red"><polyline fill="#FFFFFF" points="201,410 201,375 244,375 244,410" stroke="#6d725c" /></g><g id="0D44" stroke="red"><polyline fill="#FFFFFF" points="201,482 201,446 244,446 244,482" stroke="#6d725c" /></g><g id="0D46" stroke="red"><polyline fill="#FFFFFF" points="244,517 201,517 201,482 244,482 244,517 244,517" stroke="#6d725c" /></g><g id="0G01A" stroke="red"><polyline fill="#FFFFFF" points="710,534 710,521 712,521 780,521 780,521 780,534" stroke="#6d725c" /></g><g id="0G01B" stroke="red"><polyline fill="#FFFFFF" points="710,547 710,534 780,534 780,547" stroke="#6d725c" /></g><g id="0G01C" stroke="red"><polyline fill="#FFFFFF" points="780,547 780,559 710,559 710,547" stroke="#6d725c" /></g><g id="0G03A" stroke="red"><polyline fill="#FFFFFF" points="665,539 691,539 692,539 693,539 693,540 694,540 695,541 695,541 696,542 696,543 696,544 696,544 696,566 665,566" stroke="#6d725c" /></g><g id="0G03B" stroke="red"><polyline fill="#FFFFFF" points="635,566 635,539 665,539 665,566" stroke="#6d725c" /></g><g id="0G05" stroke="red"><polyline fill="#FFFFFF" points="599,576 599,544 599,544 599,543 600,542 600,541 601,541 601,540 602,540 603,539 604,539 604,539 634,539 634,576" stroke="#6d725c" /></g><g id="0G07" stroke="red"><polyline fill="#FFFFFF" points="547,595 547,565 577,565 577,591 573,595" stroke="#6d725c" /></g><g id="0G08" stroke="red"><polyline fill="#FFFFFF" points="431,642 431,610 472,610 476,615 476,642" stroke="#6d725c" /></g><g id="0G09B" stroke="red"><polyline fill="#FFFFFF" points="500,595 500,565 522,565 522,595" stroke="#6d725c" /></g><g id="0G09C" stroke="red"><polyline fill="#FFFFFF" points="481,595 481,565 497,565 497,565 497,595" stroke="#6d725c" /></g><g id="0G10A" stroke="red"><polyline fill="#FFFFFF" points="505,677 501,673 501,615 505,610 540,610 540,677" stroke="#6d725c" /></g><g id="0G10B" stroke="red"><polyline fill="#FFFFFF" points="540,610 575,610 579,615 579,673 575,677 540,677" stroke="#6d725c" /></g><g id="0G11" stroke="red"><polyline fill="#FFFFFF" points="415,578 453,578 453,591 449,595 432,595 415,595" stroke="#6d725c" /></g><g id="0G12" stroke="red"><polyline fill="#FFFFFF" points="282,378 264,378 264,335 294,335 299,335 299,378" stroke="#6d725c" /></g><g id="0G13" stroke="red"><polyline fill="#FFFFFF" points="398,595 398,578 415,578 415,595" stroke="#6d725c" /></g><g id="0G13A" stroke="red"><polyline fill="#FFFFFF" points="398,595 382,595 382,578 398,578 398,595" stroke="#6d725c" /></g><g id="0G14" stroke="red"><polyline fill="#FFFFFF" points="396,642 396,610 431,610 431,642" stroke="#6d725c" /></g><g id="0G15" stroke="red"><polyline fill="#FFFFFF" points="382,595 370,595 358,595 354,591 354,565 368,565 368,578 382,578" stroke="#6d725c" /></g><g id="0G19" stroke="red"><polyline fill="#FFFFFF" points="333,576 333,576 333,591 328,595 299,595 299,576" stroke="#6d725c" /></g><g id="0G19A" stroke="red"><polyline fill="#FFFFFF" points="299,576 299,556 333,556 333,576" stroke="#6d725c" /></g><g id="0G22" stroke="red"><polyline fill="#FFFFFF" points="278,650 264,650 264,615 269,610 280,610 291,610 291,650" stroke="#6d725c" /></g><g id="0G23" stroke="red"><polyline fill="#FFFFFF" points="264,556 264,523 299,523 299,556" stroke="#6d725c" /></g><g id="0G25" stroke="red"><polyline fill="#FFFFFF" points="244,532 244,556 182,556 182,522 201,522 201,517 201,517 201,517 244,517" stroke="#6d725c" /></g><g id="0H01A" stroke="red"><polyline fill="#FFFFFF" points="601,742 574,742 574,698 601,698 601,698" stroke="#6d725c" /></g><g id="0H01B" stroke="red"><polyline fill="#FFFFFF" points="601,698 628,698 628,725 640,725 640,742 601,742" stroke="#6d725c" /></g><g id="0H11" stroke="red"><polyline fill="#FFFFFF" points="476,642 476,642 476,673 472,677 431,677 431,666 431,650 431,642" stroke="#6d725c" /></g><g id="0H14" stroke="red"><polyline fill="#FFFFFF" points="396,698 426,698 431,698 431,708 431,742 396,742" stroke="#6d725c" /></g><g id="0H16" stroke="red"><polyline fill="#FFFFFF" points="360,742 360,698 365,698 396,698 396,742" stroke="#6d725c" /></g><g id="0H18A" stroke="red"><polyline fill="#FFFFFF" points="325,742 325,698 342,698 342,742" stroke="#6d725c" /></g><g id="0H18B" stroke="red"><polyline fill="#FFFFFF" points="342,742 342,698 360,698 360,742" stroke="#6d725c" /></g><g id="0H20" stroke="red"><polyline fill="#FFFFFF" points="325,742 289,742 289,741 289,708 289,698 325,698" stroke="#6d725c" /></g><g id="0H21A" stroke="red"><polyline fill="#FFFFFF" points="269,677 264,673 264,661 264,650 278,650 278,677" stroke="#6d725c" /></g><g id="0H21B" stroke="red"><polyline fill="#FFFFFF" points="278,650 291,650 291,677 278,677" stroke="#6d725c" /></g><g id="0H22" stroke="red"><polyline fill="#FFFFFF" points="289,741 289,742 289,742 182,742 182,722 204,722 204,701 244,701 244,698 264,698 289,698 289,708" stroke="#6d725c" /></g><g id="0H24" stroke="red"><polyline fill="#FFFFFF" points="244,701 204,701 204,682 244,682 244,698" stroke="#6d725c" /></g><g id="0H24A" stroke="red"><polyline fill="#FFFFFF" points="204,682 204,664 244,664 244,682" stroke="#6d725c" /></g><g id="0Y01" stroke="red"><polyline fill="#FFFFFF" points="710,166 710,174 689,174 641,174 641,161 641,161 641,159 646,159 646,111 689,111 689,80 609,80 609,56 609,17 609,16 780,16 780,133 712,133 712,166" stroke="#6d725c" /></g><g id="0Y02" stroke="red"><polyline fill="#FFFFFF" points="722,396 722,402 695,402 695,387 595,387 595,261 780,261 780,393 780,396" stroke="#6d725c" /></g></svg>