<?xml version="1.0" encoding="utf-8" ?>
<svg baseProfile="full" height="723" version="1.1" width="800" xmlns="http://www.w3.org/2000/svg" xmlns:ev="http://www.w3.org/2001/xml-events" xmlns:xlink="http://www.w3.org/1999/xlink"><defs /><g id="3A01" stroke="red"><polyline fill="#FFFFFF" points="728,110 728,108 730,108 730,106 728,106 728,78 779,78 779,108 785,108 785,110" stroke="#6d725c" /></g><g id="3A01A" stroke="red"><polyline fill="#FFFFFF" points="728,149 728,110 785,110 785,149" stroke="#6d725c" /></g><g id="3A02" stroke="red"><polyline fill="#FFFFFF" points="680,171 653,171 653,131 707,131 707,171" stroke="#6d725c" /></g><g id="3A03A" stroke="red"><polyline fill="#FFFFFF" points="659,110 659,41 699,41 699,110" stroke="#6d725c" /></g><g id="3A03B" stroke="red"><polyline fill="#FFFFFF" points="728,78 728,106 728,106 728,108 728,108 728,110 699,110 699,41 779,41 779,42 779,52 779,78 779,47 777,47 777,49 779,49 730,47 728,47 728,49 730,49" stroke="#6d725c" /></g><g id="3A04A" stroke="red"><polyline fill="#FFFFFF" points="613,171 613,131 613,131 613,131 638,131 638,171" stroke="#6d725c" /></g><g id="3A04B" stroke="red"><polyline fill="#FFFFFF" points="613,171 588,171 588,131 613,131" stroke="#6d725c" /></g><g id="3A05A" stroke="red"><polyline fill="#FFFFFF" points="619,110 619,41 659,41 659,110" stroke="#6d725c" /></g><g id="3A05B" stroke="red"><polyline fill="#FFFFFF" points="595,110 535,110 535,98 530,98 530,80 595,80" stroke="#6d725c" /></g><g id="3A06A" stroke="red"><polyline fill="#FFFFFF" points="548,171 548,131 573,131 573,171 573,171" stroke="#6d725c" /></g><g id="3A06B" stroke="red"><polyline fill="#FFFFFF" points="548,171 522,171 522,171 522,131 548,131" stroke="#6d725c" /></g><g id="3A07" stroke="red"><polyline fill="#FFFFFF" points="494,42 512,42 512,110 494,110" stroke="#6d725c" /></g><g id="3A07A" stroke="red"><polyline fill="#FFFFFF" points="476,110 476,42 494,42 494,110" stroke="#6d725c" /></g><g id="3A07B" stroke="red"><polyline fill="#FFFFFF" points="441,110 441,42 476,42 476,110" stroke="#6d725c" /></g><g id="3A09" stroke="red"><polyline fill="#FFFFFF" points="441,110 403,110 366,110 366,98 354,98 354,49 366,49 366,42 441,42 441,42" stroke="#6d725c" /></g><g id="3A11A" stroke="red"><polyline fill="#FFFFFF" points="354,98 354,110 318,110 318,42 354,42 354,49" stroke="#6d725c" /></g><g id="3A11B" stroke="red"><polyline fill="#FFFFFF" points="270,110 270,66 305,66 305,42 318,42 318,110" stroke="#6d725c" /></g><g id="3A12" stroke="red"><polyline fill="#FFFFFF" points="238,171 238,131 290,131 290,171" stroke="#6d725c" /></g><g id="3A13A" stroke="red"><polyline fill="#FFFFFF" points="198,110 198,98 191,98 191,66 224,66 224,110" stroke="#6d725c" /></g><g id="3A13B" stroke="red"><polyline fill="#FFFFFF" points="224,66 257,66 257,110 224,110" stroke="#6d725c" /></g><g id="3A14" stroke="red"><polyline fill="#FFFFFF" points="185,171 185,131 238,131 238,171" stroke="#6d725c" /></g><g id="3A15" stroke="red"><polyline fill="#FFFFFF" points="191,66 191,98 186,98 186,110 153,110 153,109 153,42 171,42 171,53 173,53 173,66 191,66 191,66" stroke="#6d725c" /></g><g id="3A16" stroke="red"><polyline fill="#FFFFFF" points="133,171 133,131 185,131 185,171" stroke="#6d725c" /></g><g id="3A17" stroke="red"><polyline fill="#FFFFFF" points="79,188 79,161 112,161 112,181 101,181 101,188" stroke="#6d725c" /></g><g id="3A19" stroke="red"><polyline fill="#FFFFFF" points="153,109 153,110 111,110 111,69 117,69 117,53 117,53 126,53 126,41 153,41 153,42 152,105 150,105 150,108 152,108" stroke="#6d725c" /></g><g id="3A19A" stroke="red"><polyline fill="#FFFFFF" points="117,53 117,69 111,69 36,69 36,41 111,41 111,47 111,53 117,53" stroke="#6d725c" /></g><g id="3B01A" stroke="red"><polyline fill="#FFFFFF" points="728,184 728,149 785,149 785,184" stroke="#6d725c" /></g><g id="3B01B" stroke="red"><polyline fill="#FFFFFF" points="728,254 728,219 785,219 785,254" stroke="#6d725c" /></g><g id="3B01C" stroke="red"><polyline fill="#FFFFFF" points="728,219 728,184 785,184 785,219" stroke="#6d725c" /></g><g id="3B01D" stroke="red"><polyline fill="#FFFFFF" points="728,289 728,254 785,254 785,289" stroke="#6d725c" /></g><g id="3B02" stroke="red"><polyline fill="#FFFFFF" points="675,269 656,269 653,269 653,238 653,237 654,236 654,235 654,234 655,234 656,233 657,232 657,232 658,232 659,232 680,232 680,269" stroke="#6d725c" /></g><g id="3B02A" stroke="red"><polyline fill="#FFFFFF" points="704,269 704,269 685,269 685,269 681,269 680,269 680,232 701,232 702,232 703,232 704,232 704,233 705,234 706,234 706,235 707,236 707,237 707,238 707,269" stroke="#6d725c" /></g><g id="3B03" stroke="red"><polyline fill="#FFFFFF" points="659,214 658,214 657,213 657,213 656,212 655,212 654,211 654,210 654,209 653,209 653,208 653,171 653,171 680,171 680,214" stroke="#6d725c" /></g><g id="3B03A" stroke="red"><polyline fill="#FFFFFF" points="707,208 707,209 707,209 706,210 706,211 705,212 704,212 704,213 703,213 702,214 701,214 680,214 680,171 707,171" stroke="#6d725c" /></g><g id="3B04A" stroke="red"><polyline fill="#FFFFFF" points="635,269 635,269 618,269 618,269 613,269 613,232 632,232 633,232 634,232 635,232 636,233 636,234 637,234 637,235 638,236 638,237 638,238 638,269" stroke="#6d725c" /></g><g id="3B04B" stroke="red"><polyline fill="#FFFFFF" points="613,269 609,269 600,269 591,269 588,269 588,269 588,238 589,237 589,236 589,235 590,234 590,234 591,233 592,232 593,232 594,232 595,232 613,232 613,269" stroke="#6d725c" /></g><g id="3B05A" stroke="red"><polyline fill="#FFFFFF" points="638,208 638,209 638,209 637,210 637,211 636,212 636,212 635,213 634,213 633,214 632,214 613,214 613,171 638,171" stroke="#6d725c" /></g><g id="3B05B" stroke="red"><polyline fill="#FFFFFF" points="595,214 594,214 593,213 592,213 591,212 590,212 590,211 589,210 589,209 589,209 588,208 588,171 613,171 613,214" stroke="#6d725c" /></g><g id="3B06A" stroke="red"><polyline fill="#FFFFFF" points="553,269 548,269 548,269 548,269 548,232 567,232 568,232 569,232 570,232 571,233 572,234 572,234 573,235 573,236 573,237 573,238 573,269 573,269 570,269" stroke="#6d725c" /></g><g id="3B06B" stroke="red"><polyline fill="#FFFFFF" points="531,269 528,269 528,269 528,269 525,269 522,269 522,269 522,238 522,237 522,236 522,235 523,234 523,234 524,233 525,232 526,232 527,232 528,232 548,232 548,269" stroke="#6d725c" /></g><g id="3B07A" stroke="red"><polyline fill="#FFFFFF" points="548,192 548,171 573,171 573,208 573,209 573,209 573,210 572,211 572,212 571,212 570,213 569,213 568,214 567,214 548,214" stroke="#6d725c" /></g><g id="3B07B" stroke="red"><polyline fill="#FFFFFF" points="548,192 548,214 528,214 527,214 526,213 525,213 524,212 523,212 523,211 522,210 522,209 522,209 522,208 522,171 548,171" stroke="#6d725c" /></g><g id="3B08" stroke="red"><polyline fill="#FFFFFF" points="455,232 504,232 504,271 455,271" stroke="#6d725c" /></g><g id="3B08A" stroke="red"><polyline fill="#FFFFFF" points="406,271 406,232 455,232 455,271" stroke="#6d725c" /></g><g id="3B09A" stroke="red"><polyline fill="#FFFFFF" points="418,172 418,131 504,131 504,172" stroke="#6d725c" /></g><g id="3B09B" stroke="red"><polyline fill="#FFFFFF" points="504,172 504,214 477,214 418,214 418,172" stroke="#6d725c" /></g><g id="3B10A" stroke="red"><polyline fill="#FFFFFF" points="357,271 357,232 383,232 383,271" stroke="#6d725c" /></g><g id="3B10B" stroke="red"><polyline fill="#FFFFFF" points="308,271 308,232 357,232 357,271" stroke="#6d725c" /></g><g id="3B10C" stroke="red"><polyline fill="#FFFFFF" points="383,232 406,232 406,271 383,271" stroke="#6d725c" /></g><g id="3B11" stroke="red"><polyline fill="#FFFFFF" points="331,172 331,152 354,152 354,172" stroke="#6d725c" /></g><g id="3B11A" stroke="red"><polyline fill="#FFFFFF" points="331,152 331,131 354,131 354,152" stroke="#6d725c" /></g><g id="3B11B" stroke="red"><polyline fill="#FFFFFF" points="331,193 331,172 354,172 354,193" stroke="#6d725c" /></g><g id="3B11C" stroke="red"><polyline fill="#FFFFFF" points="377,172 377,131 400,131 400,172" stroke="#6d725c" /></g><g id="3B11D" stroke="red"><polyline fill="#FFFFFF" points="377,172 400,172 400,214 377,214" stroke="#6d725c" /></g><g id="3B12" stroke="red"><polyline fill="#FFFFFF" points="331,214 331,193 354,193 354,214" stroke="#6d725c" /></g><g id="3B12A" stroke="red"><polyline fill="#FFFFFF" points="238,232 264,232 290,232 290,269 283,269 283,266 271,266 271,269 238,269" stroke="#6d725c" /></g><g id="3B12B" stroke="red"><polyline fill="#FFFFFF" points="198,269 198,266 186,266 186,269 185,269 185,269 185,232 211,232 238,232 238,269" stroke="#6d725c" /></g><g id="3B12C" stroke="red"><polyline fill="#FFFFFF" points="354,172 354,152 354,131 377,131 377,172" stroke="#6d725c" /></g><g id="3B12D" stroke="red"><polyline fill="#FFFFFF" points="354,214 354,193 354,172 377,172 377,214" stroke="#6d725c" /></g><g id="3B13" stroke="red"><polyline fill="#FFFFFF" points="238,171 290,171 290,214 238,214" stroke="#6d725c" /></g><g id="3B13A" stroke="red"><polyline fill="#FFFFFF" points="331,172 308,172 308,131 331,131 331,152" stroke="#6d725c" /></g><g id="3B13B" stroke="red"><polyline fill="#FFFFFF" points="331,214 308,214 308,172 331,172 331,193" stroke="#6d725c" /></g><g id="3B14" stroke="red"><polyline fill="#FFFFFF" points="133,269 133,232 185,232 185,269" stroke="#6d725c" /></g><g id="3B15" stroke="red"><polyline fill="#FFFFFF" points="185,214 185,171 238,171 238,214" stroke="#6d725c" /></g><g id="3B16A" stroke="red"><polyline fill="#FFFFFF" points="74,244 36,244 36,215 112,215 112,244" stroke="#6d725c" /></g><g id="3B16B" stroke="red"><polyline fill="#FFFFFF" points="42,273 42,268 36,268 36,244 74,244 112,244 112,244 112,244 112,266 100,266 100,273" stroke="#6d725c" /></g><g id="3B17" stroke="red"><polyline fill="#FFFFFF" points="133,214 133,171 185,171 185,214" stroke="#6d725c" /></g><g id="3B18" stroke="red"><polyline fill="#FFFFFF" points="58,215 58,193 112,193 112,215" stroke="#6d725c" /></g><g id="3C01A" stroke="red"><polyline fill="#FFFFFF" points="728,313 728,289 785,289 785,313" stroke="#6d725c" /></g><g id="3C01B" stroke="red"><polyline fill="#FFFFFF" points="728,337 728,313 785,313 785,337" stroke="#6d725c" /></g><g id="3C01C" stroke="red"><polyline fill="#FFFFFF" points="728,360 728,337 785,337 785,360 778,360" stroke="#6d725c" /></g><g id="3C02A" stroke="red"><polyline fill="#FFFFFF" points="680,324 701,324 702,324 703,325 704,325 704,325 705,326 706,327 706,328 707,328 707,329 707,330 707,349 707,350 707,351 706,352 706,353 705,354 704,354 704,355 703,355 702,355 701,355 680,355" stroke="#6d725c" /></g><g id="3C02B" stroke="red"><polyline fill="#FFFFFF" points="680,355 659,355 658,355 657,355 657,355 656,354 655,354 654,353 654,352 654,351 653,350 653,349 653,330 653,329 654,328 654,328 654,327 655,326 656,325 657,325 657,325 658,324 659,324 680,324" stroke="#6d725c" /></g><g id="3C03" stroke="red"><polyline fill="#FFFFFF" points="685,280 704,280 704,269 707,269 707,300 707,301 707,302 706,303 706,304 705,304 704,305 704,305 703,306 702,306 701,306 680,306 659,306 658,306 657,306 657,305 656,305 655,304 654,304 654,303 654,302 653,301 653,300 653,269 675,269 680,269 681,269 685,269" stroke="#6d725c" /></g><g id="3C04A" stroke="red"><polyline fill="#FFFFFF" points="613,324 632,324 633,324 634,325 635,325 636,325 636,326 637,327 638,328 638,328 638,329 638,330 638,350 638,351 638,351 638,352 637,353 636,354 636,354 635,355 634,355 633,356 632,356 613,356" stroke="#6d725c" /></g><g id="3C04B" stroke="red"><polyline fill="#FFFFFF" points="595,356 594,356 593,355 592,355 591,354 590,354 590,353 589,352 589,351 589,351 588,350 588,330 589,329 589,328 589,328 590,327 590,326 591,325 592,325 593,325 594,324 595,324 613,324 613,356" stroke="#6d725c" /></g><g id="3C05A" stroke="red"><polyline fill="#FFFFFF" points="638,269 638,300 638,301 638,302 638,303 637,304 636,304 636,305 635,305 634,306 633,306 632,306 613,306 613,269 618,269 618,269 635,269 635,269" stroke="#6d725c" /></g><g id="3C05B" stroke="red"><polyline fill="#FFFFFF" points="595,306 594,306 593,306 592,305 591,305 590,304 590,304 589,303 589,302 589,301 588,300 588,269 588,269 591,269 600,269 609,269 613,269 613,269 613,306" stroke="#6d725c" /></g><g id="3C06A" stroke="red"><polyline fill="#FFFFFF" points="567,324 568,324 569,325 570,325 571,325 572,326 572,327 573,328 573,328 573,329 573,330 573,356 551,356 551,324" stroke="#6d725c" /></g><g id="3C06B" stroke="red"><polyline fill="#FFFFFF" points="551,356 528,356 528,330 528,329 528,328 528,328 529,327 529,326 530,325 531,325 532,325 533,324 534,324 551,324" stroke="#6d725c" /></g><g id="3C07A" stroke="red"><polyline fill="#FFFFFF" points="573,269 573,269 573,300 573,301 573,302 573,303 572,304 572,304 571,305 570,305 569,306 568,306 567,306 548,306 548,269 553,269 570,269" stroke="#6d725c" /></g><g id="3C07B" stroke="red"><polyline fill="#FFFFFF" points="534,306 533,306 532,306 531,305 530,305 529,304 529,304 528,303 528,302 528,301 528,300 528,269 542,269 548,269 548,306" stroke="#6d725c" /></g><g id="3C08" stroke="red"><polyline fill="#FFFFFF" points="211,324 251,324 290,324 290,350 269,350 269,355 211,355" stroke="#6d725c" /></g><g id="3C09" stroke="red"><polyline fill="#FFFFFF" points="211,306 185,306 185,269 186,269 186,278 198,278 198,269 211,269" stroke="#6d725c" /></g><g id="3C09A" stroke="red"><polyline fill="#FFFFFF" points="238,288 238,269 271,269 271,278 283,278 283,269 290,269 290,306 238,306 238,306" stroke="#6d725c" /></g><g id="3C09B" stroke="red"><polyline fill="#FFFFFF" points="211,306 211,269 238,269 238,288 238,306" stroke="#6d725c" /></g><g id="3C10" stroke="red"><polyline fill="#FFFFFF" points="198,355 198,350 186,350 186,355 133,355 133,324 211,324 211,355" stroke="#6d725c" /></g><g id="3C11" stroke="red"><polyline fill="#FFFFFF" points="133,306 133,269 150,269 150,306" stroke="#6d725c" /></g><g id="3C11A" stroke="red"><polyline fill="#FFFFFF" points="150,306 150,269 168,269 168,306" stroke="#6d725c" /></g><g id="3C11B" stroke="red"><polyline fill="#FFFFFF" points="168,306 168,269 185,269 185,306" stroke="#6d725c" /></g><g id="3C12A" stroke="red"><polyline fill="#FFFFFF" points="36,313 36,278 42,278 42,273 100,273 100,278 112,278 112,278 112,313" stroke="#6d725c" /></g><g id="3C12B" stroke="red"><polyline fill="#FFFFFF" points="54,354 54,352 36,352 36,313 112,313 112,313 112,350 100,350 100,354" stroke="#6d725c" /></g><g id="3D01A" stroke="red"><polyline fill="#FFFFFF" points="728,416 728,416 728,360 778,360 778,363 785,363 785,416" stroke="#6d725c" /></g><g id="3D01B" stroke="red"><polyline fill="#FFFFFF" points="728,465 728,449 728,416 785,416 785,465" stroke="#6d725c" /></g><g id="3D05" stroke="red"><polyline fill="#FFFFFF" points="680,389 680,417 659,417 658,417 657,416 657,416 656,416 655,415 654,414 654,413 654,413 653,412 653,411 653,389 653,368 653,367 654,366 654,365 654,365 655,364 656,363 657,363 657,362 658,362 659,362 680,362 680,380" stroke="#6d725c" /></g><g id="3D05A" stroke="red"><polyline fill="#FFFFFF" points="680,380 680,362 680,362 680,362 707,362 707,411 707,412 707,413 706,413 706,414 705,415 704,416 704,416 703,416 702,417 701,417 680,417 680,417" stroke="#6d725c" /></g><g id="3D08" stroke="red"><polyline fill="#FFFFFF" points="728,465 728,465 785,465 785,650 692,650 692,684 687,684 687,699 618,699 618,582 618,470 604,470 604,454 604,454 604,435 604,435 707,435 707,449 728,449" stroke="#6d725c" /></g><g id="3D09A" stroke="red"><polyline fill="#FFFFFF" points="613,362 632,362 633,362 634,362 635,363 636,363 636,364 637,365 638,365 638,366 638,367 638,368 638,389 638,411 638,412 638,413 637,413 637,414 636,415 636,416 635,416 634,416 633,417 632,417 613,417" stroke="#6d725c" /></g><g id="3D09B" stroke="red"><polyline fill="#FFFFFF" points="595,417 594,417 593,416 592,416 591,416 590,415 590,414 589,413 589,413 589,412 588,411 588,389 588,368 589,367 589,366 589,365 590,365 590,364 591,363 592,363 593,362 594,362 595,362 613,362 613,417" stroke="#6d725c" /></g><g id="3D10" stroke="red"><polyline fill="#FFFFFF" points="579,445 579,454 554,454 554,454 554,454 554,445 554,435 579,435" stroke="#6d725c" /></g><g id="3D10A" stroke="red"><polyline fill="#FFFFFF" points="579,454 579,445 579,435 579,435 579,435 604,435 604,454" stroke="#6d725c" /></g><g id="3D11" stroke="red"><polyline fill="#FFFFFF" points="527,417 522,412 522,370 538,370 538,362 547,362 547,417" stroke="#6d725c" /></g><g id="3D11A" stroke="red"><polyline fill="#FFFFFF" points="547,362 573,362 573,417 547,417" stroke="#6d725c" /></g><g id="3D12" stroke="red"><polyline fill="#FFFFFF" points="529,454 504,454 504,440 509,435 529,435 529,445" stroke="#6d725c" /></g><g id="3D12A" stroke="red"><polyline fill="#FFFFFF" points="554,454 529,454 529,445 529,435 554,435 554,445" stroke="#6d725c" /></g><g id="3D13" stroke="red"><polyline fill="#FFFFFF" points="451,417 425,417 425,362 437,362 437,371 451,371" stroke="#6d725c" /></g><g id="3D13A" stroke="red"><polyline fill="#FFFFFF" points="451,417 451,371 453,371 453,362 476,362 476,417" stroke="#6d725c" /></g><g id="3D13B" stroke="red"><polyline fill="#FFFFFF" points="476,362 497,362 497,412 492,417 476,417" stroke="#6d725c" /></g><g id="3D14A" stroke="red"><polyline fill="#FFFFFF" points="391,470 391,435 410,435 410,470" stroke="#6d725c" /></g><g id="3D14B" stroke="red"><polyline fill="#FFFFFF" points="431,470 431,435 451,435 451,470" stroke="#6d725c" /></g><g id="3D14C" stroke="red"><polyline fill="#FFFFFF" points="410,470 410,435 431,435 431,470" stroke="#6d725c" /></g><g id="3D14D" stroke="red"><polyline fill="#FFFFFF" points="451,435 466,435 471,440 471,470 451,470" stroke="#6d725c" /></g><g id="3D15" stroke="red"><polyline fill="#FFFFFF" points="425,417 357,417 352,412 352,371 369,371 369,362 425,362" stroke="#6d725c" /></g><g id="3D16" stroke="red"><polyline fill="#FFFFFF" points="363,470 363,435 391,435 391,470" stroke="#6d725c" /></g><g id="3D18" stroke="red"><polyline fill="#FFFFFF" points="356,470 308,470 308,440 313,435 363,435 363,470" stroke="#6d725c" /></g><g id="3D20" stroke="red"><polyline fill="#FFFFFF" points="308,512 308,470 356,470 356,512" stroke="#6d725c" /></g><g id="3D22" stroke="red"><polyline fill="#FFFFFF" points="257,520 225,520 225,477 254,477 257,477 290,477 290,520" stroke="#6d725c" /></g><g id="3D23" stroke="red"><polyline fill="#FFFFFF" points="203,362 269,362 269,370 290,370 290,418 203,418" stroke="#6d725c" /></g><g id="3D24" stroke="red"><polyline fill="#FFFFFF" points="225,477 225,440 230,435 254,435 254,477" stroke="#6d725c" /></g><g id="3D24A" stroke="red"><polyline fill="#FFFFFF" points="257,477 254,477 254,435 269,435 269,449 290,449 290,477" stroke="#6d725c" /></g><g id="3D26" stroke="red"><polyline fill="#FFFFFF" points="171,456 171,435 210,435 210,456" stroke="#6d725c" /></g><g id="3D26A" stroke="red"><polyline fill="#FFFFFF" points="171,477 171,456 210,456 210,477" stroke="#6d725c" /></g><g id="3D27" stroke="red"><polyline fill="#FFFFFF" points="186,418 186,362 203,362 203,418" stroke="#6d725c" /></g><g id="3D27A" stroke="red"><polyline fill="#FFFFFF" points="168,418 168,362 186,362 186,418" stroke="#6d725c" /></g><g id="3D27B" stroke="red"><polyline fill="#FFFFFF" points="133,418 133,362 168,362 168,418" stroke="#6d725c" /></g><g id="3D28A" stroke="red"><polyline fill="#FFFFFF" points="171,499 171,477 210,477 210,499" stroke="#6d725c" /></g><g id="3D28B" stroke="red"><polyline fill="#FFFFFF" points="198,520 186,520 171,520 171,499 210,499 210,520" stroke="#6d725c" /></g><g id="3D30" stroke="red"><polyline fill="#FFFFFF" points="171,477 133,477 133,435 171,435 171,456" stroke="#6d725c" /></g><g id="3D32" stroke="red"><polyline fill="#FFFFFF" points="133,499 133,477 171,477 171,499" stroke="#6d725c" /></g><g id="3D32A" stroke="red"><polyline fill="#FFFFFF" points="133,520 133,499 171,499 171,520" stroke="#6d725c" /></g><g id="3D33" stroke="red"><polyline fill="#FFFFFF" points="83,367 54,367 54,354 100,354 100,363 112,363 112,367" stroke="#6d725c" /></g><g id="3D33A" stroke="red"><polyline fill="#FFFFFF" points="36,401 36,386 54,386 54,379 54,379 112,379 112,401 112,401" stroke="#6d725c" /></g><g id="3D33B" stroke="red"><polyline fill="#FFFFFF" points="112,401 112,420 36,420 36,401" stroke="#6d725c" /></g><g id="3D33C" stroke="red"><polyline fill="#FFFFFF" points="54,367 83,367 112,367 112,367 112,367 112,379 54,379" stroke="#6d725c" /></g><g id="3D34" stroke="red"><polyline fill="#FFFFFF" points="36,483 36,461 56,461 56,435 100,435 112,435 112,447 112,483 36,483" stroke="#6d725c" /></g><g id="3D36" stroke="red"><polyline fill="#FFFFFF" points="57,500 57,505 36,505 36,483 112,483 112,500" stroke="#6d725c" /></g><g id="3D36A" stroke="red"><polyline fill="#FFFFFF" points="57,526 57,505 57,500 112,500 112,526" stroke="#6d725c" /></g><g id="3F08" stroke="red"><polyline fill="#FFFFFF" points="487,699 487,639 487,639 505,639 505,582 618,582 618,699" stroke="#6d725c" /></g><g id="3F13" stroke="red"><polyline fill="#FFFFFF" points="421,599 446,599 471,599 471,613 466,618 421,618" stroke="#6d725c" /></g><g id="3F14" stroke="red"><polyline fill="#FFFFFF" points="487,699 454,699 454,684 445,684 445,639 487,639 487,699" stroke="#6d725c" /></g><g id="3F15" stroke="red"><polyline fill="#FFFFFF" points="370,618 370,599 421,599 421,618" stroke="#6d725c" /></g><g id="3F16" stroke="red"><polyline fill="#FFFFFF" points="438,684 438,699 403,699 403,639 445,639 445,684" stroke="#6d725c" /></g><g id="3F17" stroke="red"><polyline fill="#FFFFFF" points="324,618 324,582 339,582 339,618" stroke="#6d725c" /></g><g id="3F17A" stroke="red"><polyline fill="#FFFFFF" points="308,618 308,582 324,582 324,618" stroke="#6d725c" /></g><g id="3F17B" stroke="red"><polyline fill="#FFFFFF" points="370,618 339,618 339,582 356,582 370,582 370,599" stroke="#6d725c" /></g><g id="3F18" stroke="red"><polyline fill="#FFFFFF" points="368,699 368,684 361,684 361,639 403,639 403,699" stroke="#6d725c" /></g><g id="3F19A" stroke="red"><polyline fill="#FFFFFF" points="308,550 308,512 356,512 356,550" stroke="#6d725c" /></g><g id="3F19B" stroke="red"><polyline fill="#FFFFFF" points="308,566 308,550 356,550 356,566" stroke="#6d725c" /></g><g id="3F19C" stroke="red"><polyline fill="#FFFFFF" points="339,582 324,582 308,582 308,566 356,566 356,582" stroke="#6d725c" /></g><g id="3F20" stroke="red"><polyline fill="#FFFFFF" points="353,684 353,699 318,699 318,639 361,639 361,684" stroke="#6d725c" /></g><g id="3F21" stroke="red"><polyline fill="#FFFFFF" points="225,569 225,544 257,544 257,569" stroke="#6d725c" /></g><g id="3F21A" stroke="red"><polyline fill="#FFFFFF" points="225,544 225,520 257,520 257,544" stroke="#6d725c" /></g><g id="3F21B" stroke="red"><polyline fill="#FFFFFF" points="257,569 257,544 257,520 290,520 290,569 290,569" stroke="#6d725c" /></g><g id="3F22" stroke="red"><polyline fill="#FFFFFF" points="288,699 288,684 276,684 276,639 318,639 318,699" stroke="#6d725c" /></g><g id="3F23A" stroke="red"><polyline fill="#FFFFFF" points="230,618 225,613 225,569 257,569 257,618" stroke="#6d725c" /></g><g id="3F23B" stroke="red"><polyline fill="#FFFFFF" points="257,569 290,569 290,618 257,618" stroke="#6d725c" /></g><g id="3F24" stroke="red"><polyline fill="#FFFFFF" points="269,684 269,703 284,703 284,723 234,723 234,639 276,639 276,684" stroke="#6d725c" /></g><g id="3F25" stroke="red"><polyline fill="#FFFFFF" points="171,600 171,569 190,569 210,569 210,600" stroke="#6d725c" /></g><g id="3F25A" stroke="red"><polyline fill="#FFFFFF" points="171,600 210,600 210,618 171,618" stroke="#6d725c" /></g><g id="3F26" stroke="red"><polyline fill="#FFFFFF" points="191,723 191,701 198,701 198,691 191,691 191,639 234,639 234,723" stroke="#6d725c" /></g><g id="3F27" stroke="red"><polyline fill="#FFFFFF" points="190,569 171,569 171,520 186,520 186,534 198,534 198,520 210,520 210,569" stroke="#6d725c" /></g><g id="3F28" stroke="red"><polyline fill="#FFFFFF" points="186,691 186,701 191,701 191,723 156,723 156,699 135,699 135,639 191,639 191,691" stroke="#6d725c" /></g><g id="3F29" stroke="red"><polyline fill="#FFFFFF" points="171,618 133,618 133,569 171,569 171,600" stroke="#6d725c" /></g><g id="3F31" stroke="red"><polyline fill="#FFFFFF" points="133,569 133,520 171,520 171,569" stroke="#6d725c" /></g><g id="3F33A" stroke="red"><polyline fill="#FFFFFF" points="36,562 36,544 38,544 38,542 36,542 36,526 57,526 57,526 112,526 112,562 80,542 78,542 78,544 80,544" stroke="#6d725c" /></g><g id="3F33B" stroke="red"><polyline fill="#FFFFFF" points="52,598 36,598 36,562 112,562 112,589 78,589 78,607 52,607" stroke="#6d725c" /></g></svg>