<?xml version="1.0" encoding="utf-8" ?>
<svg baseProfile="full" height="779" version="1.1" width="800" xmlns="http://www.w3.org/2000/svg" xmlns:ev="http://www.w3.org/2001/xml-events" xmlns:xlink="http://www.w3.org/1999/xlink"><defs /><g id="R02" stroke="red"><polyline fill="#FFFFFF" points="675,299 675,251 767,251 767,299" stroke="#6d725c" /></g><g id="R06" stroke="red"><polyline fill="#FFFFFF" points="675,342 675,299 767,299 767,342" stroke="#6d725c" /></g><g id="R08" stroke="red"><polyline fill="#FFFFFF" points="599,288 599,251 646,251 651,255 651,288" stroke="#6d725c" /></g><g id="R12" stroke="red"><polyline fill="#FFFFFF" points="651,288 651,332 599,332 599,288" stroke="#6d725c" /></g><g id="S01" stroke="red"><polyline fill="#FFFFFF" points="675,422 675,383 767,383 767,422" stroke="#6d725c" /></g><g id="S02" stroke="red"><polyline fill="#FFFFFF" points="767,422 767,463 675,463 675,422" stroke="#6d725c" /></g><g id="S03" stroke="red"><polyline fill="#FFFFFF" points="675,383 675,342 767,342 767,383" stroke="#6d725c" /></g><g id="S25" stroke="red"><polyline fill="#FFFFFF" points="44,509 44,459 120,459 120,509" stroke="#6d725c" /></g><g id="T03" stroke="red"><polyline fill="#FFFFFF" points="675,545 675,504 767,504 767,545" stroke="#6d725c" /></g><g id="T41" stroke="red"><polyline fill="#FFFFFF" points="120,509 120,565 85,565 85,521 44,521 44,509" stroke="#6d725c" /></g></svg>