<?xml version="1.0" encoding="utf-8" ?>
<svg baseProfile="full" height="738" version="1.1" width="800" xmlns="http://www.w3.org/2000/svg" xmlns:ev="http://www.w3.org/2001/xml-events" xmlns:xlink="http://www.w3.org/1999/xlink"><defs /><g id="2A02" stroke="red"><polyline points="687,158 612,158 612,112 624,112 624,100 622,100 622,49 624,49 624,45 687,45 687,45" stroke="#6d725c" /></g><g id="2A03" stroke="red"><polyline points="687,279 687,238 687,229 687,220 687,158 687,45 693,45 693,49 705,49 705,43 781,43 781,109 787,109 786,279" stroke="#6d725c" /></g><g id="2A04" stroke="red"><polyline points="687,314 687,302 687,280 687,279 786,279 786,314" stroke="#6d725c" /></g><g id="2A09" stroke="red"><polyline points="533,108 533,81 597,81 597,112 538,112 533,112" stroke="#6d725c" /></g><g id="2A10" stroke="red"><polyline points="558,169 558,133 591,133 591,169" stroke="#6d725c" /></g><g id="2A10A" stroke="red"><polyline points="525,169 525,133 558,133 558,169" stroke="#6d725c" /></g><g id="2A13A" stroke="red"><polyline points="500,79 486,79 486,44 515,44 515,79" stroke="#6d725c" /></g><g id="2A13B" stroke="red"><polyline points="533,112 533,112 486,112 486,79 500,79 515,79 515,79 515,108 533,108" stroke="#6d725c" /></g><g id="2A15" stroke="red"><polyline points="486,112 450,112 450,44 486,44 486,79" stroke="#6d725c" /></g><g id="2A17" stroke="red"><polyline points="408,44 444,44 450,44 450,50 450,100 450,112 444,112 408,112" stroke="#6d725c" /></g><g id="2A18" stroke="red"><polyline points="390,152 390,133 406,133 406,152" stroke="#6d725c" /></g><g id="2A18A" stroke="red"><polyline points="390,170 390,152 406,152 406,170" stroke="#6d725c" /></g><g id="2A19" stroke="red"><polyline points="366,112 366,112 366,44 408,44 408,112" stroke="#6d725c" /></g><g id="2A20" stroke="red"><polyline points="390,170 383,170 360,170 354,170 354,133 390,133 390,152" stroke="#6d725c" /></g><g id="2A21" stroke="red"><polyline points="360,112 334,112 334,44 366,44 366,112" stroke="#6d725c" /></g><g id="2A22" stroke="red"><polyline points="313,170 313,138 318,133 354,133 354,170" stroke="#6d725c" /></g><g id="2A23" stroke="red"><polyline points="334,112 302,112 302,67 309,67 309,44 334,44 334,44" stroke="#6d725c" /></g><g id="2A24" stroke="red"><polyline points="261,148 261,133 295,133 295,148" stroke="#6d725c" /></g><g id="2A24A" stroke="red"><polyline points="261,167 261,148 295,148 295,167" stroke="#6d725c" /></g><g id="2A24B" stroke="red"><polyline points="261,182 261,178 261,167 295,167 295,182" stroke="#6d725c" /></g><g id="2A25" stroke="red"><polyline points="240,112 240,68 287,68 287,68 287,100 287,112 276,112" stroke="#6d725c" /></g><g id="2A26" stroke="red"><polyline points="261,167 261,178 241,178 241,133 261,133 261,148" stroke="#6d725c" /></g><g id="2A26A" stroke="red"><polyline points="222,178 222,133 241,133 241,178" stroke="#6d725c" /></g><g id="2A27" stroke="red"><polyline points="192,68 240,68 240,112 204,112 192,112" stroke="#6d725c" /></g><g id="2A28" stroke="red"><polyline points="188,182 188,182 173,182 158,182 156,182 195,133 204,133 204,182" stroke="#6d725c" /></g><g id="2A29" stroke="red"><polyline points="192,112 159,112 159,44 177,44 177,55 179,55 179,68 192,68" stroke="#6d725c" /></g><g id="2A30" stroke="red"><polyline points="86,176 86,163 140,163 142,166 135,176" stroke="#6d725c" /></g><g id="2A30A" stroke="red"><polyline points="109,194 109,189 86,189 86,176 135,176 120,194" stroke="#6d725c" /></g><g id="2A31" stroke="red"><polyline points="159,44 159,112 159,136 109,136 109,109 117,109 117,71 43,71 43,43 159,43 159,44" stroke="#6d725c" /></g><g id="2B01" stroke="red"><polyline points="612,220 612,158 687,158 687,220" stroke="#6d725c" /></g><g id="2B02" stroke="red"><polyline points="687,280 612,280 612,238 687,238 687,279" stroke="#6d725c" /></g><g id="2B09A" stroke="red"><polyline points="530,220 525,215 525,169 558,169 558,220" stroke="#6d725c" /></g><g id="2B09B" stroke="red"><polyline points="558,169 591,169 591,220 558,220" stroke="#6d725c" /></g><g id="2B10A" stroke="red"><polyline points="525,280 525,243 530,238 561,238 561,280" stroke="#6d725c" /></g><g id="2B10B" stroke="red"><polyline points="561,280 561,238 591,238 591,280" stroke="#6d725c" /></g><g id="2B11" stroke="red"><polyline points="482,167 507,167 507,220 482,220" stroke="#6d725c" /></g><g id="2B11A" stroke="red"><polyline points="457,150 457,133 507,133 507,150" stroke="#6d725c" /></g><g id="2B11B" stroke="red"><polyline points="482,167 457,167 457,150 507,150 507,167" stroke="#6d725c" /></g><g id="2B11C" stroke="red"><polyline points="457,220 457,172 457,167 482,167 482,220" stroke="#6d725c" /></g><g id="2B12A" stroke="red"><polyline points="470,238 496,238 501,243 501,271 470,271" stroke="#6d725c" /></g><g id="2B13A" stroke="red"><polyline points="424,172 424,133 441,133 441,172" stroke="#6d725c" /></g><g id="2B13B" stroke="red"><polyline points="457,167 457,172 441,172 441,133 457,133 457,150" stroke="#6d725c" /></g><g id="2B13C" stroke="red"><polyline points="424,220 424,172 441,172 457,172 457,220" stroke="#6d725c" /></g><g id="2B15" stroke="red"><polyline points="441,271 410,271 410,238 441,238 441,266" stroke="#6d725c" /></g><g id="2B16" stroke="red"><polyline points="410,271 380,271 380,238 410,238 410,238" stroke="#6d725c" /></g><g id="2B16A" stroke="red"><polyline points="470,271 457,271 457,266 441,266 441,238 441,238 441,238 470,238" stroke="#6d725c" /></g><g id="2B17" stroke="red"><polyline points="383,170 390,170 406,170 406,220 383,220" stroke="#6d725c" /></g><g id="2B17A" stroke="red"><polyline points="360,220 360,170 383,170 383,220" stroke="#6d725c" /></g><g id="2B18A" stroke="red"><polyline points="364,266 357,266 357,267 349,267 349,238 364,238" stroke="#6d725c" /></g><g id="2B18B" stroke="red"><polyline points="364,238 364,238 380,238 380,271 373,271 373,266 364,266" stroke="#6d725c" /></g><g id="2B19" stroke="red"><polyline points="318,220 313,215 313,170 354,170 360,170 360,220" stroke="#6d725c" /></g><g id="2B20" stroke="red"><polyline points="319,267 319,238 349,238 349,267" stroke="#6d725c" /></g><g id="2B21" stroke="red"><polyline points="253,201 253,182 261,182 295,182 295,215 290,220 253,220" stroke="#6d725c" /></g><g id="2B22" stroke="red"><polyline points="258,272 258,238 290,238 295,243 295,272 259,272" stroke="#6d725c" /></g><g id="2B23" stroke="red"><polyline points="253,182 253,201 253,220 222,220 222,199 222,178 241,178 261,178 261,182" stroke="#6d725c" /></g><g id="2B24" stroke="red"><polyline points="258,272 222,272 222,238 258,238 258,272" stroke="#6d725c" /></g><g id="2B25" stroke="red"><polyline points="188,182 204,182 204,220 188,220 188,220" stroke="#6d725c" /></g><g id="2B25A" stroke="red"><polyline points="188,220 173,220 173,182 188,182" stroke="#6d725c" /></g><g id="2B26A" stroke="red"><polyline points="180,272 156,272 156,238 180,238" stroke="#6d725c" /></g><g id="2B26B" stroke="red"><polyline points="180,272 180,238 204,238 204,243 204,272" stroke="#6d725c" /></g><g id="2B27" stroke="red"><polyline points="158,220 158,182 173,182 173,220" stroke="#6d725c" /></g><g id="2B27A" stroke="red"><polyline points="157,220 135,220 135,209 156,182 158,182 158,220" stroke="#6d725c" /></g><g id="2B28" stroke="red"><polyline points="132,272 120,272 108,272 108,248 116,238 156,238 156,272" stroke="#6d725c" /></g><g id="2B30" stroke="red"><polyline points="43,288 43,216 65,216 65,194 109,194 120,194 87,238 87,288" stroke="#6d725c" /></g><g id="2C01A" stroke="red"><polyline points="612,302 612,280 687,280 687,302" stroke="#6d725c" /></g><g id="2C01B" stroke="red"><polyline points="687,325 649,325 612,325 612,302 687,302 687,314" stroke="#6d725c" /></g><g id="2C02" stroke="red"><polyline points="612,361 612,325 649,325 649,361" stroke="#6d725c" /></g><g id="2C03" stroke="red"><polyline points="687,361 649,361 649,325 687,325 687,350" stroke="#6d725c" /></g><g id="2C09A" stroke="red"><polyline points="531,311 531,280 561,280 561,311" stroke="#6d725c" /></g><g id="2C09B" stroke="red"><polyline points="561,280 591,280 591,311 561,311" stroke="#6d725c" /></g><g id="2C10A" stroke="red"><polyline points="531,357 531,326 561,326 561,357" stroke="#6d725c" /></g><g id="2C10B" stroke="red"><polyline points="561,357 561,326 591,326 591,357" stroke="#6d725c" /></g><g id="2C11" stroke="red"><polyline points="258,290 258,272 259,272 295,272 295,302 290,307 258,307" stroke="#6d725c" /></g><g id="2C12" stroke="red"><polyline points="258,325 290,325 295,330 295,350 295,355 258,355" stroke="#6d725c" /></g><g id="2C13" stroke="red"><polyline points="258,290 258,307 222,307 222,272 258,272" stroke="#6d725c" /></g><g id="2C14" stroke="red"><polyline points="222,355 222,325 240,325 240,355" stroke="#6d725c" /></g><g id="2C14A" stroke="red"><polyline points="240,355 240,325 258,325 258,355" stroke="#6d725c" /></g><g id="2C15" stroke="red"><polyline points="204,278 204,307 180,307 180,272 204,272" stroke="#6d725c" /></g><g id="2C15A" stroke="red"><polyline points="156,307 156,272 180,272 180,307" stroke="#6d725c" /></g><g id="2C16" stroke="red"><polyline points="156,325 204,325 204,350 204,355 156,355" stroke="#6d725c" /></g><g id="2C17" stroke="red"><polyline points="132,307 132,272 156,272 156,307" stroke="#6d725c" /></g><g id="2C17A" stroke="red"><polyline points="108,307 108,272 120,272 132,272 132,307" stroke="#6d725c" /></g><g id="2C18" stroke="red"><polyline points="108,355 108,325 156,325 156,355" stroke="#6d725c" /></g><g id="2C20" stroke="red"><polyline points="60,356 60,352 43,352 43,288 43,288 87,288 87,322 87,356" stroke="#6d725c" /></g><g id="2D02" stroke="red"><polyline points="612,388 612,361 649,361 687,361 687,388" stroke="#6d725c" /></g><g id="2D03" stroke="red"><polyline points="612,416 612,388 687,388 687,416" stroke="#6d725c" /></g><g id="2D08" stroke="red"><polyline points="708,525 687,525 687,416 687,388 687,361 687,350 786,350 786,525" stroke="#6d725c" /></g><g id="2D08A" stroke="red"><polyline points="687,350 687,325 687,314 786,314 786,350" stroke="#6d725c" /></g><g id="2D12A" stroke="red"><polyline points="621,476 621,470 608,470 608,453 608,434 635,434 635,476" stroke="#6d725c" /></g><g id="2D12B" stroke="red"><polyline points="635,434 663,434 663,476 635,476" stroke="#6d725c" /></g><g id="2D14" stroke="red"><polyline points="558,453 558,434 574,434 574,453" stroke="#6d725c" /></g><g id="2D14A" stroke="red"><polyline points="574,453 574,434 591,434 591,453" stroke="#6d725c" /></g><g id="2D14B" stroke="red"><polyline points="591,453 591,434 608,434 608,453" stroke="#6d725c" /></g><g id="2D15A" stroke="red"><polyline points="525,386 525,357 531,357 561,357 561,386" stroke="#6d725c" /></g><g id="2D15B" stroke="red"><polyline points="561,386 561,357 591,357 591,386" stroke="#6d725c" /></g><g id="2D15C" stroke="red"><polyline points="530,416 525,411 525,386 561,386 561,416" stroke="#6d725c" /></g><g id="2D15D" stroke="red"><polyline points="561,386 591,386 591,416 561,416" stroke="#6d725c" /></g><g id="2D16" stroke="red"><polyline points="533,444 533,453 507,453 507,439 512,434 533,434" stroke="#6d725c" /></g><g id="2D16A" stroke="red"><polyline points="558,453 533,453 533,444 533,434 533,434 533,434 558,434 558,434" stroke="#6d725c" /></g><g id="2D17A" stroke="red"><polyline points="457,389 457,362 472,362 472,389" stroke="#6d725c" /></g><g id="2D17B" stroke="red"><polyline points="457,416 457,389 472,389 479,389 479,416" stroke="#6d725c" /></g><g id="2D17C" stroke="red"><polyline points="479,389 486,389 501,389 501,411 496,416 479,416" stroke="#6d725c" /></g><g id="2D17D" stroke="red"><polyline points="479,389 472,389 472,362 486,362 486,389" stroke="#6d725c" /></g><g id="2D17E" stroke="red"><polyline points="486,389 486,362 501,362 501,389" stroke="#6d725c" /></g><g id="2D18A" stroke="red"><polyline points="428,469 428,434 465,434 465,469" stroke="#6d725c" /></g><g id="2D19" stroke="red"><polyline points="457,389 457,416 420,416 420,362 441,362 457,362" stroke="#6d725c" /></g><g id="2D20" stroke="red"><polyline points="388,434 418,434 418,469 388,469" stroke="#6d725c" /></g><g id="2D21" stroke="red"><polyline points="383,416 383,392 383,362 420,362 420,416" stroke="#6d725c" /></g><g id="2D22" stroke="red"><polyline points="352,469 352,434 388,434 388,469" stroke="#6d725c" /></g><g id="2D23A" stroke="red"><polyline points="344,392 344,373 358,373 358,362 383,362 383,392" stroke="#6d725c" /></g><g id="2D23B" stroke="red"><polyline points="349,416 344,411 344,392 383,392 383,416" stroke="#6d725c" /></g><g id="2D24A" stroke="red"><polyline points="313,474 313,434 332,434 332,474" stroke="#6d725c" /></g><g id="2D24B" stroke="red"><polyline points="352,474 332,474 332,434 352,434 352,469" stroke="#6d725c" /></g><g id="2D25" stroke="red"><polyline points="258,362 295,362 295,389 258,389" stroke="#6d725c" /></g><g id="2D25A" stroke="red"><polyline points="258,389 295,389 295,362 295,369 295,411 290,416 258,416" stroke="#6d725c" /></g><g id="2D26" stroke="red"><polyline points="258,468 258,462 258,448 258,434 274,434 295,434 295,448 295,468 295,468 295,468" stroke="#6d725c" /></g><g id="2D27" stroke="red"><polyline points="222,389 222,362 258,362 258,389" stroke="#6d725c" /></g><g id="2D27A" stroke="red"><polyline points="222,416 222,389 258,389 258,416" stroke="#6d725c" /></g><g id="2D28A" stroke="red"><polyline points="222,448 222,434 258,434 258,448" stroke="#6d725c" /></g><g id="2D28B" stroke="red"><polyline points="222,462 222,448 258,448 258,462" stroke="#6d725c" /></g><g id="2D29" stroke="red"><polyline points="172,389 172,362 204,362 204,389" stroke="#6d725c" /></g><g id="2D29A" stroke="red"><polyline points="172,389 204,389 204,416 172,416" stroke="#6d725c" /></g><g id="2D30" stroke="red"><polyline points="156,458 156,434 204,434 204,458" stroke="#6d725c" /></g><g id="2D31A" stroke="red"><polyline points="140,416 140,389 140,362 156,362 156,416" stroke="#6d725c" /></g><g id="2D31B" stroke="red"><polyline points="172,389 172,416 156,416 156,362 172,362" stroke="#6d725c" /></g><g id="2D32" stroke="red"><polyline points="156,482 108,482 108,434 120,434 156,434 156,458" stroke="#6d725c" /></g><g id="2D33" stroke="red"><polyline points="352,616 352,616 313,616 313,589 352,589 352,597" stroke="#6d725c" /></g><g id="2D34" stroke="red"><polyline points="43,475 43,460 63,460 63,434 87,434 87,469 87,475" stroke="#6d725c" /></g><g id="2D34A" stroke="red"><polyline points="76,503 65,503 43,503 43,475 87,475 87,503" stroke="#6d725c" /></g><g id="2D35" stroke="red"><polyline points="87,356 87,388 87,420 43,420 43,385 60,385 60,356" stroke="#6d725c" /></g><g id="2E01" stroke="red"><polyline points="313,589 313,561 352,561 352,589" stroke="#6d725c" /></g><g id="2E03" stroke="red"><polyline points="313,561 313,533 313,533 352,533 352,561" stroke="#6d725c" /></g><g id="2E05" stroke="red"><polyline points="313,519 313,505 352,505 352,519" stroke="#6d725c" /></g><g id="2E05A" stroke="red"><polyline points="313,533 313,519 352,519 352,533" stroke="#6d725c" /></g><g id="2E07" stroke="red"><polyline points="313,490 313,474 313,474 332,474 352,474 352,490" stroke="#6d725c" /></g><g id="2E07A" stroke="red"><polyline points="313,505 313,490 352,490 352,505" stroke="#6d725c" /></g><g id="2E08" stroke="red"><polyline points="258,470 258,468 295,468 295,498 258,498" stroke="#6d725c" /></g><g id="2E11" stroke="red"><polyline points="295,498 295,518 295,532 258,532 258,498 258,498" stroke="#6d725c" /></g><g id="2E12" stroke="red"><polyline points="258,582 258,547 295,547 295,582" stroke="#6d725c" /></g><g id="2E13A" stroke="red"><polyline points="108,389 108,362 140,362 140,389" stroke="#6d725c" /></g><g id="2E14" stroke="red"><polyline points="258,582 258,582 222,582 222,547 258,547 258,547" stroke="#6d725c" /></g><g id="2E15" stroke="red"><polyline points="258,470 258,498 258,498 222,498 222,462 258,462 258,468" stroke="#6d725c" /></g><g id="2E16" stroke="red"><polyline points="140,416 108,416 108,389 140,389" stroke="#6d725c" /></g><g id="2E17" stroke="red"><polyline points="156,482 156,458 204,458 204,482" stroke="#6d725c" /></g><g id="2E18A" stroke="red"><polyline points="174,582 174,579 174,547 204,547 204,582" stroke="#6d725c" /></g><g id="2E18B" stroke="red"><polyline points="174,598 174,582 204,582 204,616 174,616" stroke="#6d725c" /></g><g id="2E19" stroke="red"><polyline points="156,520 156,507 156,495 156,482 204,482 204,518 204,532 204,532 156,532" stroke="#6d725c" /></g><g id="2E20A" stroke="red"><polyline points="108,495 108,482 156,482 156,495" stroke="#6d725c" /></g><g id="2E20B" stroke="red"><polyline points="108,507 108,495 156,495 156,507" stroke="#6d725c" /></g><g id="2E20C" stroke="red"><polyline points="108,520 108,507 156,507 156,520" stroke="#6d725c" /></g><g id="2E20D" stroke="red"><polyline points="108,532 108,520 156,520 156,532" stroke="#6d725c" /></g><g id="2E21" stroke="red"><polyline points="129,579 114,553 114,547 174,547 174,579" stroke="#6d725c" /></g><g id="2E24" stroke="red"><polyline points="43,541 43,524 65,524 65,503 76,503 87,503 87,541 87,541" stroke="#6d725c" /></g><g id="2E26" stroke="red"><polyline points="87,541 87,588 84,605 43,605 43,541 43,541" stroke="#6d725c" /></g><g id="2F04" stroke="red"><polyline points="533,696 533,696 533,637 575,637 575,696" stroke="#6d725c" /></g><g id="2F05" stroke="red"><polyline points="533,637 512,637 512,597 575,597 575,637" stroke="#6d725c" /></g><g id="2F06" stroke="red"><polyline points="526,696 491,696 491,637 533,637 533,696" stroke="#6d725c" /></g><g id="2F08" stroke="red"><polyline points="449,637 491,637 491,696 484,696 449,696 449,696" stroke="#6d725c" /></g><g id="2F09" stroke="red"><polyline points="409,597 466,597 466,611 461,616 409,616" stroke="#6d725c" /></g><g id="2F10" stroke="red"><polyline points="407,696 407,637 449,637 449,696" stroke="#6d725c" /></g><g id="2F11" stroke="red"><polyline points="352,616 352,597 409,597 409,616" stroke="#6d725c" /></g><g id="2F12" stroke="red"><polyline points="407,637 407,696 365,696 365,637" stroke="#6d725c" /></g><g id="2F13" stroke="red"><polyline points="258,532 222,532 222,498 258,498" stroke="#6d725c" /></g><g id="2F14" stroke="red"><polyline points="323,637 365,637 365,696 323,696" stroke="#6d725c" /></g><g id="2F15" stroke="red"><polyline points="258,582 295,582 295,602 295,616 274,616 258,616" stroke="#6d725c" /></g><g id="2F16" stroke="red"><polyline points="323,696 287,696 281,696 281,687 281,637 323,637" stroke="#6d725c" /></g><g id="2F17" stroke="red"><polyline points="222,616 222,582 258,582 258,616" stroke="#6d725c" /></g><g id="2F18" stroke="red"><polyline points="261,720 261,720 239,720 239,637 261,637 261,637" stroke="#6d725c" /></g><g id="2F18A" stroke="red"><polyline points="281,696 281,696 287,696 287,720 261,720 261,637 281,637 281,687" stroke="#6d725c" /></g><g id="2F20" stroke="red"><polyline points="197,720 197,698 197,688 197,688 197,637 239,637 239,720" stroke="#6d725c" /></g><g id="2F21A" stroke="red"><polyline points="174,582 174,598 139,598 129,579 174,579" stroke="#6d725c" /></g><g id="2F21B" stroke="red"><polyline points="150,616 139,598 174,598 174,616" stroke="#6d725c" /></g><g id="2F22" stroke="red"><polyline points="197,698 197,720 164,720 164,697 145,697 145,637 197,637 197,688" stroke="#6d725c" /></g><g id="2F-H08" stroke="red"><polyline points="786,525 786,525 786,604 721,604 721,613 708,613 708,616 722,616 722,647 706,647 706,646 694,646 694,681 689,681 689,696 575,696 575,637 575,637 575,597 575,581 621,581 621,525 687,525 687,525" stroke="#6d725c" /></g></svg>