<?xml version="1.0" encoding="utf-8" ?>
<svg baseProfile="full" height="779" version="1.1" width="800" xmlns="http://www.w3.org/2000/svg" xmlns:ev="http://www.w3.org/2001/xml-events" xmlns:xlink="http://www.w3.org/1999/xlink"><defs /><g id="0A06" stroke="red"><polyline fill="#ebf7d1" points="595,174 595,174 595,142 613,142 631,142 631,161 641,161 641,174" stroke="#6d725c" /></g><g id="0A08" stroke="red"><polyline fill="#ebf7d1" points="613,142 595,142 595,110 599,105 618,105 618,111 631,111 631,142 631,142" stroke="#6d725c" /></g><g id="0A09" stroke="red"><polyline fill="#ebf7d1" points="574,56 574,17 574,17 574,17 609,17 609,56" stroke="#6d725c" /></g><g id="0A13A" stroke="red"><polyline fill="#ebf7d1" points="502,66 502,17 520,17 520,66" stroke="#6d725c" /></g><g id="0A13B" stroke="red"><polyline fill="#ebf7d1" points="520,17 538,17 538,66 520,66" stroke="#6d725c" /></g><g id="0A14" stroke="red"><polyline fill="#ebf7d1" points="532,106 485,106 485,91 490,87 532,87" stroke="#6d725c" /></g><g id="0A15" stroke="red"><polyline fill="#ebf7d1" points="502,66 472,66 467,66 467,17 502,17 502,66" stroke="#6d725c" /></g><g id="0A17" stroke="red"><polyline fill="#ebf7d1" points="467,66 436,66 431,66 431,17 467,17 467,66" stroke="#6d725c" /></g><g id="0A20A" stroke="red"><polyline fill="#ebf7d1" points="427,124 427,111 437,111 470,111 470,124" stroke="#6d725c" /></g><g id="0A20B" stroke="red"><polyline fill="#ebf7d1" points="427,138 427,124 470,124 470,138" stroke="#6d725c" /></g><g id="0A22" stroke="red"><polyline fill="#ebf7d1" points="437,166 427,166 427,138 470,138 470,166" stroke="#6d725c" /></g><g id="0A24" stroke="red"><polyline fill="#ebf7d1" points="427,171 381,171 381,138 427,138 427,166" stroke="#6d725c" /></g><g id="0A26" stroke="red"><polyline fill="#ebf7d1" points="427,138 381,138 381,111 404,111 427,111 427,124" stroke="#6d725c" /></g><g id="0A27" stroke="red"><polyline fill="#ebf7d1" points="401,66 396,66 396,66 396,66 396,17 431,17 431,66" stroke="#6d725c" /></g><g id="0A28A" stroke="red"><polyline fill="#ebf7d1" points="404,111 404,87 427,87 427,111" stroke="#6d725c" /></g><g id="0A28B" stroke="red"><polyline fill="#ebf7d1" points="381,111 381,91 386,87 404,87 404,111" stroke="#6d725c" /></g><g id="0A29" stroke="red"><polyline fill="#ebf7d1" points="396,17 396,66 365,66 360,66 360,56 360,17 396,17 396,17" stroke="#6d725c" /></g><g id="0A31" stroke="red"><polyline fill="#ebf7d1" points="325,17 360,17 360,66 330,66 325,66" stroke="#6d725c" /></g><g id="0A33" stroke="red"><polyline fill="#ebf7d1" points="294,66 289,66 289,56 289,17 325,17 325,66" stroke="#6d725c" /></g><g id="0A34" stroke="red"><polyline fill="#ebf7d1" points="293,111 293,107 278,107 278,123 264,123 264,91 269,87 315,87 315,111" stroke="#6d725c" /></g><g id="0A35" stroke="red"><polyline fill="#ebf7d1" points="218,56 218,17 289,17 289,56" stroke="#6d725c" /></g><g id="0A36" stroke="red"><polyline fill="#ebf7d1" points="244,139 244,168 190,168 190,139" stroke="#6d725c" /></g><g id="0B01" stroke="red"><polyline fill="#ebf7d1" points="710,234 710,201 780,201 780,234" stroke="#6d725c" /></g><g id="0B02A" stroke="red"><polyline fill="#ebf7d1" points="780,234 780,261 710,261 710,234" stroke="#6d725c" /></g><g id="0B03" stroke="red"><polyline fill="#ebf7d1" points="710,201 710,174 710,166 712,166 780,166 780,201" stroke="#6d725c" /></g><g id="0B05" stroke="red"><polyline fill="#ebf7d1" points="642,201 641,201 641,174 689,174 689,201" stroke="#6d725c" /></g><g id="0B07" stroke="red"><polyline fill="#ebf7d1" points="641,227 641,201 642,201 689,201 689,230 685,235 651,235 641,235" stroke="#6d725c" /></g><g id="0B09" stroke="red"><polyline fill="#ebf7d1" points="595,235 595,201 641,201 641,227 641,235" stroke="#6d725c" /></g><g id="0B11" stroke="red"><polyline fill="#ebf7d1" points="641,201 595,201 595,174 641,174 641,174" stroke="#6d725c" /></g><g id="0B13" stroke="red"><polyline fill="#ebf7d1" points="532,172 532,142 532,142 574,142 574,158 574,166 579,166 579,201 532,201" stroke="#6d725c" /></g><g id="0B17" stroke="red"><polyline fill="#ebf7d1" points="509,235 507,235 496,235 490,235 485,230 485,201 509,201 509,218" stroke="#6d725c" /></g><g id="0B17A" stroke="red"><polyline fill="#ebf7d1" points="532,235 509,235 509,218 509,201 532,201 532,201" stroke="#6d725c" /></g><g id="0B19" stroke="red"><polyline fill="#ebf7d1" points="532,172 532,172 532,201 509,201 509,201 485,201 485,164 498,164 498,166 507,166 507,158 502,158 502,142 532,142" stroke="#6d725c" /></g><g id="0B20" stroke="red"><polyline fill="#ebf7d1" points="540,310 510,310 502,310 502,299 502,276 541,276 541,276 541,310" stroke="#6d725c" /></g><g id="0B21" stroke="red"><polyline fill="#ebf7d1" points="428,201 427,201 427,171 427,166 437,166 470,166 470,201" stroke="#6d725c" /></g><g id="0B22" stroke="red"><polyline fill="#ebf7d1" points="441,277 470,277 470,303 441,303" stroke="#6d725c" /></g><g id="0B23" stroke="red"><polyline fill="#ebf7d1" points="427,227 427,201 428,201 470,201 470,230 466,235 437,235 427,235" stroke="#6d725c" /></g><g id="0B24" stroke="red"><polyline fill="#ebf7d1" points="441,277 441,255 466,255 470,259 470,277" stroke="#6d725c" /></g><g id="0B26" stroke="red"><polyline fill="#ebf7d1" points="441,303 412,303 412,255 441,255 441,277" stroke="#6d725c" /></g><g id="0B27" stroke="red"><polyline fill="#ebf7d1" points="381,201 381,171 427,171 427,201" stroke="#6d725c" /></g><g id="0B28" stroke="red"><polyline fill="#ebf7d1" points="382,303 382,255 412,255 412,303" stroke="#6d725c" /></g><g id="0B29" stroke="red"><polyline fill="#ebf7d1" points="315,201 315,201 315,187 315,163 356,163 356,166 357,166 366,166 366,201" stroke="#6d725c" /></g><g id="0B31" stroke="red"><polyline fill="#ebf7d1" points="366,227 366,235 315,235 315,201 366,201" stroke="#6d725c" /></g><g id="0B32" stroke="red"><polyline fill="#ebf7d1" points="294,294 294,274 294,255 328,255 333,259 333,294" stroke="#6d725c" /></g><g id="0B33A" stroke="red"><polyline fill="#ebf7d1" points="290,235 269,235 264,230 264,201 290,201" stroke="#6d725c" /></g><g id="0B33B" stroke="red"><polyline fill="#ebf7d1" points="290,201 315,201 315,235 290,235" stroke="#6d725c" /></g><g id="0B34" stroke="red"><polyline fill="#ebf7d1" points="294,314 294,311 294,299 294,294 333,294 333,314" stroke="#6d725c" /></g><g id="0B34A" stroke="red"><polyline fill="#ebf7d1" points="299,335 294,335 294,323 294,314 333,314 333,335" stroke="#6d725c" /></g><g id="0B35" stroke="red"><polyline fill="#ebf7d1" points="315,201 264,201 264,164 278,164 278,166 293,166 293,163 315,163 315,187" stroke="#6d725c" /></g><g id="0B36" stroke="red"><polyline fill="#ebf7d1" points="264,311 264,299 294,299 294,311" stroke="#6d725c" /></g><g id="0B36A" stroke="red"><polyline fill="#ebf7d1" points="294,323 264,323 264,311 294,311 294,314" stroke="#6d725c" /></g><g id="0B36B" stroke="red"><polyline fill="#ebf7d1" points="264,335 264,323 294,323 294,335" stroke="#6d725c" /></g><g id="0B37" stroke="red"><polyline fill="#ebf7d1" points="224,238 224,232 201,232 201,183 223,183 244,183 244,238 244,238" stroke="#6d725c" /></g><g id="0B38" stroke="red"><polyline fill="#ebf7d1" points="294,299 264,299 264,259 269,255 294,255 294,274 294,294" stroke="#6d725c" /></g><g id="0B39A" stroke="red"><polyline fill="#ebf7d1" points="244,238 244,255 201,255 201,236 214,236 214,238 224,238" stroke="#6d725c" /></g><g id="0B39B" stroke="red"><polyline fill="#ebf7d1" points="201,272 201,255 244,255 244,272" stroke="#6d725c" /></g><g id="0B43" stroke="red"><polyline fill="#ebf7d1" points="201,339 201,304 244,304 244,339" stroke="#6d725c" /></g><g id="0C07" stroke="red"><polyline fill="#ebf7d1" points="541,310 565,310 579,310 579,329 541,329 541,310" stroke="#6d725c" /></g><g id="0C08" stroke="red"><polyline fill="#ebf7d1" points="553,369 540,369 540,369 540,339 579,339 579,369" stroke="#6d725c" /></g><g id="0C09" stroke="red"><polyline fill="#ebf7d1" points="541,310 541,310 540,329 502,329 502,310 541,310" stroke="#6d725c" /></g><g id="0D01" stroke="red"><polyline fill="#ebf7d1" points="651,496 696,496 696,519 696,519 696,520 696,521 695,522 695,522 694,523 693,523 693,524 692,524 691,524 651,524" stroke="#6d725c" /></g><g id="0D03" stroke="red"><polyline fill="#ebf7d1" points="604,524 604,524 603,524 602,523 601,523 601,522 600,522 600,521 599,520 599,519 599,519 599,496 651,496 651,524" stroke="#6d725c" /></g><g id="0D04" stroke="red"><polyline fill="#ebf7d1" points="712,521 712,409 722,409 722,402 722,396 780,396 780,521" stroke="#6d725c" /></g><g id="0D06" stroke="red"><polyline fill="#ebf7d1" points="651,496 651,468 691,468 692,468 693,469 693,469 694,469 695,470 695,471 696,471 696,472 696,473 696,474 696,496" stroke="#6d725c" /></g><g id="0D08" stroke="red"><polyline fill="#ebf7d1" points="599,496 599,474 599,473 599,472 600,471 600,471 601,470 601,469 602,469 603,469 604,468 604,468 651,468 651,496" stroke="#6d725c" /></g><g id="0D10A" stroke="red"><polyline fill="#ebf7d1" points="565,447 565,424 573,424 577,428 577,447" stroke="#6d725c" /></g><g id="0D10B" stroke="red"><polyline fill="#ebf7d1" points="577,447 577,471 565,471 565,447" stroke="#6d725c" /></g><g id="0D11" stroke="red"><polyline fill="#ebf7d1" points="553,369 579,369 579,404 575,408 553,408" stroke="#6d725c" /></g><g id="0D13" stroke="red"><polyline fill="#ebf7d1" points="528,389 528,408 506,408 502,404 502,369 528,369" stroke="#6d725c" /></g><g id="0D14" stroke="red"><polyline fill="#ebf7d1" points="565,310 541,310 541,310 541,276 541,276 579,276 579,310" stroke="#6d725c" /></g><g id="0D15" stroke="red"><polyline fill="#ebf7d1" points="553,408 528,408 528,389 528,369 540,369 540,369 553,369" stroke="#6d725c" /></g><g id="0D16A" stroke="red"><polyline fill="#ebf7d1" points="421,435 421,424 453,424 453,435" stroke="#6d725c" /></g><g id="0D16B" stroke="red"><polyline fill="#ebf7d1" points="421,447 421,435 453,435 453,447" stroke="#6d725c" /></g><g id="0D16C" stroke="red"><polyline fill="#ebf7d1" points="421,447 453,447 453,471 421,471" stroke="#6d725c" /></g><g id="0D17" stroke="red"><polyline fill="#ebf7d1" points="412,408 412,377 424,377 438,377 441,377 441,408" stroke="#6d725c" /></g><g id="0D18" stroke="red"><polyline fill="#ebf7d1" points="421,435 421,447 421,471 386,471 386,424 421,424" stroke="#6d725c" /></g><g id="0D20" stroke="red"><polyline fill="#ebf7d1" points="386,471 354,471 354,428 359,424 386,424" stroke="#6d725c" /></g><g id="0D23" stroke="red"><polyline fill="#ebf7d1" points="299,378 299,335 333,335 333,378" stroke="#6d725c" /></g><g id="0D32" stroke="red"><polyline fill="#ebf7d1" points="264,523 264,490 299,490 299,523" stroke="#6d725c" /></g><g id="0D34" stroke="red"><polyline fill="#ebf7d1" points="264,490 264,457 299,457 299,490" stroke="#6d725c" /></g><g id="0D35A" stroke="red"><polyline fill="#ebf7d1" points="269,408 264,404 264,393 264,378 282,378 282,408" stroke="#6d725c" /></g><g id="0D35B" stroke="red"><polyline fill="#ebf7d1" points="282,408 282,378 299,378 299,408" stroke="#6d725c" /></g><g id="0D36" stroke="red"><polyline fill="#ebf7d1" points="299,441 299,451 299,457 264,457 264,428 269,424 299,424 299,432" stroke="#6d725c" /></g><g id="0D41" stroke="red"><polyline fill="#ebf7d1" points="201,410 201,375 244,375 244,410" stroke="#6d725c" /></g><g id="0D44" stroke="red"><polyline fill="#ebf7d1" points="201,482 201,446 244,446 244,482" stroke="#6d725c" /></g><g id="0D46" stroke="red"><polyline fill="#ebf7d1" points="244,517 201,517 201,482 244,482 244,517 244,517" stroke="#6d725c" /></g><g id="0G01A" stroke="red"><polyline fill="#ebf7d1" points="710,534 710,521 712,521 780,521 780,521 780,534" stroke="#6d725c" /></g><g id="0G01B" stroke="red"><polyline fill="#ebf7d1" points="710,547 710,534 780,534 780,547" stroke="#6d725c" /></g><g id="0G01C" stroke="red"><polyline fill="#ebf7d1" points="780,547 780,559 710,559 710,547" stroke="#6d725c" /></g><g id="0G03" stroke="red"><polyline fill="#ebf7d1" points="635,566 635,539 691,539 692,539 693,539 693,540 694,540 695,541 695,541 696,542 696,543 696,544 696,544 696,566" stroke="#6d725c" /></g><g id="0G05" stroke="red"><polyline fill="#ebf7d1" points="634,576 599,576 599,544 599,544 599,543 600,542 600,541 601,541 601,540 602,540 603,539 604,539 604,539 634,539 634,566" stroke="#6d725c" /></g><g id="0G07" stroke="red"><polyline fill="#ebf7d1" points="547,595 547,565 577,565 577,591 573,595" stroke="#6d725c" /></g><g id="0G08" stroke="red"><polyline fill="#ebf7d1" points="431,642 431,610 472,610 476,615 476,642" stroke="#6d725c" /></g><g id="0G09B" stroke="red"><polyline fill="#ebf7d1" points="500,595 500,565 522,565 522,595" stroke="#6d725c" /></g><g id="0G09C" stroke="red"><polyline fill="#ebf7d1" points="481,595 481,565 497,565 497,565 497,595" stroke="#6d725c" /></g><g id="0G10A" stroke="red"><polyline fill="#ebf7d1" points="505,677 501,673 501,615 505,610 540,610 540,677" stroke="#6d725c" /></g><g id="0G10B" stroke="red"><polyline fill="#ebf7d1" points="540,610 575,610 579,615 579,673 575,677 540,677" stroke="#6d725c" /></g><g id="0G11" stroke="red"><polyline fill="#ebf7d1" points="415,578 453,578 453,591 449,595 432,595 415,595" stroke="#6d725c" /></g><g id="0G12" stroke="red"><polyline fill="#ebf7d1" points="282,378 264,378 264,335 294,335 299,335 299,378" stroke="#6d725c" /></g><g id="0G13" stroke="red"><polyline fill="#ebf7d1" points="415,595 382,595 382,578 415,578 415,595" stroke="#6d725c" /></g><g id="0G14" stroke="red"><polyline fill="#ebf7d1" points="396,642 396,610 431,610 431,642" stroke="#6d725c" /></g><g id="0G15" stroke="red"><polyline fill="#ebf7d1" points="382,595 370,595 358,595 354,591 354,565 368,565 368,578 382,578" stroke="#6d725c" /></g><g id="0G19" stroke="red"><polyline fill="#ebf7d1" points="333,591 328,595 299,595 299,556 299,556 299,556 333,556" stroke="#6d725c" /></g><g id="0G22" stroke="red"><polyline fill="#ebf7d1" points="291,650 278,650 264,650 264,615 269,610 280,610 291,610 291,642" stroke="#6d725c" /></g><g id="0G23" stroke="red"><polyline fill="#ebf7d1" points="264,556 264,523 299,523 299,556" stroke="#6d725c" /></g><g id="0G25" stroke="red"><polyline fill="#ebf7d1" points="244,532 244,556 182,556 182,522 201,522 201,517 201,517 201,517 244,517" stroke="#6d725c" /></g><g id="0H01A" stroke="red"><polyline fill="#ebf7d1" points="601,742 574,742 574,708 574,698 601,698 601,698" stroke="#6d725c" /></g><g id="0H01B" stroke="red"><polyline fill="#ebf7d1" points="601,698 628,698 628,725 640,725 640,742 601,742" stroke="#6d725c" /></g><g id="0H11" stroke="red"><polyline fill="#ebf7d1" points="431,666 431,650 431,642 476,642 476,642 476,673 472,677 431,677" stroke="#6d725c" /></g><g id="0H14" stroke="red"><polyline fill="#ebf7d1" points="396,742 396,698 426,698 431,698 431,708 431,742" stroke="#6d725c" /></g><g id="0H16" stroke="red"><polyline fill="#ebf7d1" points="360,742 360,698 365,698 396,698 396,742" stroke="#6d725c" /></g><g id="0H18A" stroke="red"><polyline fill="#ebf7d1" points="325,742 325,698 342,698 342,742" stroke="#6d725c" /></g><g id="0H18B" stroke="red"><polyline fill="#ebf7d1" points="342,742 342,698 360,698 360,742" stroke="#6d725c" /></g><g id="0H20" stroke="red"><polyline fill="#ebf7d1" points="325,742 289,742 289,741 289,708 289,698 325,698" stroke="#6d725c" /></g><g id="0H21A" stroke="red"><polyline fill="#ebf7d1" points="269,677 264,673 264,661 264,650 278,650 278,677" stroke="#6d725c" /></g><g id="0H21B" stroke="red"><polyline fill="#ebf7d1" points="278,677 278,650 291,650 291,666 291,677" stroke="#6d725c" /></g><g id="0H22" stroke="red"><polyline fill="#ebf7d1" points="289,741 289,742 289,742 182,742 182,722 204,722 204,701 244,701 244,698 264,698 289,698 289,708" stroke="#6d725c" /></g><g id="0H24" stroke="red"><polyline fill="#ebf7d1" points="244,701 204,701 204,664 244,664 244,664 244,698" stroke="#6d725c" /></g><g id="0Y01" stroke="red"><polyline fill="#ebf7d1" points="710,166 710,174 689,174 641,174 641,161 641,161 641,159 646,159 646,111 689,111 689,80 609,80 609,56 609,17 609,16 780,16 780,133 712,133 712,166" stroke="#6d725c" /></g><g id="0Y02" stroke="red"><polyline fill="#ebf7d1" points="722,396 722,402 695,402 695,387 595,387 595,261 780,261 780,393 780,396" stroke="#6d725c" /></g><g id="U11" stroke="red"><polyline fill="#ebf7d1" points="574,66 543,66 538,66 538,17 574,17 574,56 574,56" stroke="#6d725c" /></g><g id="U12" stroke="red"><polyline fill="#ebf7d1" points="532,106 532,87 575,87 579,91 579,106 532,106 532,106" stroke="#6d725c" /></g><g id="U18" stroke="red"><polyline fill="#ebf7d1" points="437,111 427,111 427,87 466,87 470,91 470,111" stroke="#6d725c" /></g><g id="U30" stroke="red"><polyline fill="#ebf7d1" points="315,87 362,87 366,91 366,106 366,111 315,111" stroke="#6d725c" /></g><g id="U33" stroke="red"><polyline fill="#ebf7d1" points="190,139 190,111 214,111 222,111 244,111 244,139" stroke="#6d725c" /></g><g id="V15" stroke="red"><polyline fill="#ebf7d1" points="532,201 579,201 579,235 532,235 532,235" stroke="#6d725c" /></g><g id="V20" stroke="red"><polyline fill="#ebf7d1" points="541,276 541,255 575,255 579,259 579,276" stroke="#6d725c" /></g><g id="V25" stroke="red"><polyline fill="#ebf7d1" points="381,235 381,201 427,201 427,227 427,235" stroke="#6d725c" /></g><g id="V32" stroke="red"><polyline fill="#ebf7d1" points="382,303 353,303 353,299 353,259 357,255 382,255" stroke="#6d725c" /></g><g id="V41" stroke="red"><polyline fill="#ebf7d1" points="244,272 244,304 201,304 201,272 201,272" stroke="#6d725c" /></g><g id="W24" stroke="red"><polyline fill="#ebf7d1" points="539,424 565,424 565,457 539,457" stroke="#6d725c" /></g><g id="W25" stroke="red"><polyline fill="#ebf7d1" points="502,369 502,339 540,339 540,369" stroke="#6d725c" /></g><g id="W26" stroke="red"><polyline fill="#ebf7d1" points="502,457 502,428 506,424 539,424 539,457" stroke="#6d725c" /></g><g id="W29" stroke="red"><polyline fill="#ebf7d1" points="441,377 470,377 470,404 466,408 441,408" stroke="#6d725c" /></g><g id="W32甲" stroke="red"><polyline fill="#ebf7d1" points="299,457 299,453 299,451 299,432 299,424 328,424 333,428 333,457" stroke="#6d725c" /></g><g id="W33" stroke="red"><polyline fill="#ebf7d1" points="382,408 382,377 412,377 412,408" stroke="#6d725c" /></g><g id="W34" stroke="red"><polyline fill="#ebf7d1" points="299,490 299,490 299,457 333,457 333,490" stroke="#6d725c" /></g><g id="W35" stroke="red"><polyline fill="#ebf7d1" points="357,408 353,404 353,387 353,387 353,377 382,377 382,408" stroke="#6d725c" /></g><g id="W36" stroke="red"><polyline fill="#ebf7d1" points="299,523 299,523 299,490 333,490 333,523" stroke="#6d725c" /></g><g id="W37" stroke="red"><polyline fill="#ebf7d1" points="299,378 333,378 333,393 333,404 328,408 299,408" stroke="#6d725c" /></g><g id="W42" stroke="red"><polyline fill="#ebf7d1" points="201,446 201,410 244,410 244,446" stroke="#6d725c" /></g><g id="W47" stroke="red"><polyline fill="#ebf7d1" points="201,375 201,339 244,339 244,375" stroke="#6d725c" /></g><g id="X22" stroke="red"><polyline fill="#ebf7d1" points="360,642 360,610 396,610 396,642" stroke="#6d725c" /></g><g id="X24" stroke="red"><polyline fill="#ebf7d1" points="325,642 325,610 360,610 360,642" stroke="#6d725c" /></g><g id="X25" stroke="red"><polyline fill="#ebf7d1" points="299,556 299,523 333,523 333,556" stroke="#6d725c" /></g><g id="X26" stroke="red"><polyline fill="#ebf7d1" points="291,642 291,610 325,610 325,642" stroke="#6d725c" /></g><g id="X29" stroke="red"><polyline fill="#ebf7d1" points="299,595 269,595 264,591 264,574 264,556 299,556" stroke="#6d725c" /></g><g id="X30" stroke="red"><polyline fill="#ebf7d1" points="204,637 204,611 244,611 244,637" stroke="#6d725c" /></g><g id="X31" stroke="red"><polyline fill="#ebf7d1" points="244,595 224,595 214,595 182,595 182,556 182,556 244,556" stroke="#6d725c" /></g><g id="X32" stroke="red"><polyline fill="#ebf7d1" points="204,664 204,637 244,637 244,664" stroke="#6d725c" /></g><g id="Y06" stroke="red"><polyline fill="#ebf7d1" points="574,742 538,742 538,698 574,698 574,708 574,742" stroke="#6d725c" /></g><g id="Y08" stroke="red"><polyline fill="#ebf7d1" points="502,742 502,708 502,698 507,698 538,698 538,742" stroke="#6d725c" /></g><g id="Y09" stroke="red"><polyline fill="#ebf7d1" points="396,677 396,642 431,642 431,650 431,666 431,677" stroke="#6d725c" /></g><g id="Y10" stroke="red"><polyline fill="#ebf7d1" points="502,708 502,742 467,742 467,698 496,698 502,698" stroke="#6d725c" /></g><g id="Y11" stroke="red"><polyline fill="#ebf7d1" points="360,677 360,642 396,642 396,677" stroke="#6d725c" /></g><g id="Y12" stroke="red"><polyline fill="#ebf7d1" points="431,742 431,708 431,698 436,698 467,698 467,742" stroke="#6d725c" /></g><g id="Y15" stroke="red"><polyline fill="#ebf7d1" points="325,677 325,642 360,642 360,677" stroke="#6d725c" /></g><g id="Y17" stroke="red"><polyline fill="#ebf7d1" points="291,677 291,666 291,650 291,642 325,642 325,677" stroke="#6d725c" /></g></svg>