<?xml version="1.0" encoding="utf-8" ?>
<svg baseProfile="full" height="735" version="1.1" width="800" xmlns="http://www.w3.org/2000/svg" xmlns:ev="http://www.w3.org/2001/xml-events" xmlns:xlink="http://www.w3.org/1999/xlink"><defs /><g id="1A01" stroke="red"><polyline points="681,105 681,35 755,35 755,98 726,98 726,105" stroke="#6d725c" /></g><g id="1A02" stroke="red"><polyline points="672,186 672,134 672,133 672,132 672,131 673,131 673,130 674,129 675,129 676,128 677,128 677,128 726,128 726,135 756,135 756,129 757,129 757,186" stroke="#6d725c" /></g><g id="1A04A" stroke="red"><polyline points="619,128 643,128 644,128 645,128 645,129 646,129 647,130 648,131 648,131 648,132 649,133 649,134 649,192 649,193 648,194 648,195 648,196 647,196 646,197 645,197 645,198 644,198 643,198 619,198" stroke="#6d725c" /></g><g id="1A04B" stroke="red"><polyline points="596,198 595,198 594,198 594,197 593,197 592,196 591,196 591,195 591,194 590,193 590,192 590,134 590,133 591,132 591,131 591,131 592,130 593,129 594,129 594,128 595,128 596,128 619,128 619,198" stroke="#6d725c" /></g><g id="1A05" stroke="red"><polyline points="664,98 673,98 673,105 639,105 603,105 603,45 604,45 604,39 664,39" stroke="#6d725c" /></g><g id="1A06" stroke="red"><polyline points="516,198 515,198 514,198 513,197 513,197 512,196 511,196 511,195 510,194 510,193 510,192 510,134 510,133 510,132 511,131 511,131 512,130 513,129 513,129 514,128 515,128 516,128 562,128 562,128 563,128 564,129 565,129 566,130 566,131 567,131 567,132 567,133 567,134 567,192 567,193 567,194 567,195 566,196 566,196 565,197 564,197 563,198 562,198 562,198" stroke="#6d725c" /></g><g id="1A09" stroke="red"><polyline points="518,105 518,75 599,75 599,105 594,105" stroke="#6d725c" /></g><g id="1A10" stroke="red"><polyline points="318,198 317,198 316,198 315,197 315,197 314,196 313,196 313,195 312,194 312,193 312,192 312,134 312,133 312,132 313,131 313,131 314,130 315,129 315,129 316,128 317,128 318,128 383,128 384,128 385,128 386,129 387,129 387,130 388,131 388,131 389,132 389,133 389,134 389,192 389,193 389,194 388,195 388,196 387,196 387,197 386,197 385,198 384,198 383,198" stroke="#6d725c" /></g><g id="1A11" stroke="red"><polyline points="444,39 501,39 501,105 444,105" stroke="#6d725c" /></g><g id="1A12" stroke="red"><polyline points="199,198 198,198 197,198 196,197 195,197 195,196 194,196 194,195 193,194 193,193 193,192 193,134 193,133 193,132 194,131 194,131 195,130 195,129 196,129 197,128 198,128 199,128 283,128 284,128 285,128 286,129 287,129 287,130 288,131 288,131 289,132 289,133 289,134 289,192 289,193 289,194 288,195 288,196 287,196 287,197 286,197 285,198 284,198 283,198" stroke="#6d725c" /></g><g id="1A13" stroke="red"><polyline points="396,105 396,75 403,75 403,39 432,39 444,39 444,105" stroke="#6d725c" /></g><g id="1A15" stroke="red"><polyline points="190,40 252,40 252,54 252,54 252,86 252,86 252,99 251,100 251,101 251,102 250,103 250,103 249,104 248,104 248,105 247,105 246,105 190,105" stroke="#6d725c" /></g><g id="1A16" stroke="red"><polyline points="119,105 119,103 119,68 163,68 163,40 190,40 190,105" stroke="#6d725c" /></g><g id="1A26" stroke="red"><polyline points="119,129 88,129 88,103 119,103 119,105" stroke="#6d725c" /></g><g id="1B01" stroke="red"><polyline points="757,186 757,255 755,255 755,256 686,256 686,253 672,253 672,186" stroke="#6d725c" /></g><g id="1B02" stroke="red"><polyline points="596,286 595,286 594,286 594,285 593,285 592,284 591,283 591,283 591,282 590,281 590,280 590,227 590,226 591,225 591,224 591,224 592,223 593,222 594,222 594,221 595,221 596,221 643,221 644,221 645,221 645,222 646,222 647,223 648,224 648,224 648,225 649,226 649,227 649,280 649,281 648,282 648,283 648,283 647,284 646,285 645,285 645,286 644,286 643,286" stroke="#6d725c" /></g><g id="1B03" stroke="red"><polyline points="412,198 411,198 410,198 410,197 409,197 408,196 407,196 407,195 407,194 406,193 406,192 406,134 406,133 407,132 407,131 407,131 408,130 409,129 410,129 410,128 411,128 412,128 481,128 482,128 483,128 484,129 485,129 485,130 486,131 486,131 487,132 487,133 487,134 487,192 487,193 487,194 486,195 486,196 485,196 485,197 484,197 483,198 482,198 481,198" stroke="#6d725c" /></g><g id="1B04" stroke="red"><polyline points="516,286 515,286 514,286 513,285 513,285 512,284 511,283 511,283 510,282 510,281 510,280 510,227 510,226 510,225 511,224 511,224 512,223 513,222 513,222 514,221 515,221 516,221 562,221 562,221 563,221 564,222 565,222 566,223 566,224 567,224 567,225 567,226 567,227 567,280 567,281 567,282 567,283 566,283 566,284 565,285 564,285 563,286 562,286 562,286" stroke="#6d725c" /></g><g id="1B06" stroke="red"><polyline points="401,221 481,221 482,221 483,221 484,222 485,222 485,223 486,224 486,224 487,225 487,226 487,227 487,258 401,258" stroke="#6d725c" /></g><g id="1B08" stroke="red"><polyline points="359,258 348,258 348,262 348,262 318,262 317,262 316,262 315,261 315,261 314,260 313,260 313,259 312,258 312,257 312,256 312,227 312,226 312,225 313,224 313,224 314,223 315,222 315,222 316,221 317,221 318,221 401,221 401,258" stroke="#6d725c" /></g><g id="1B10" stroke="red"><polyline points="199,289 198,289 197,288 196,288 195,288 195,287 194,286 194,286 193,285 193,284 193,283 193,227 193,226 193,225 194,224 194,224 195,223 195,222 196,222 197,221 198,221 199,221 283,221 284,221 285,221 286,222 287,222 287,223 288,224 288,224 289,225 289,226 289,227 289,283 289,284 289,285 288,286 288,286 287,287 287,288 286,288 285,288 284,289 283,289" stroke="#6d725c" /></g><g id="1C01" stroke="red"><polyline points="596,377 595,377 594,377 594,377 593,376 592,375 591,375 591,374 591,373 590,372 590,371 590,320 590,320 591,319 591,318 591,317 592,316 593,316 594,315 594,315 595,315 596,315 638,315 639,315 640,315 641,315 642,316 642,316 643,317 643,318 644,319 644,320 644,320 644,371 644,372 644,373 643,374 643,375 642,375 642,376 641,377 640,377 639,377 638,377" stroke="#6d725c" /></g><g id="1C03" stroke="red"><polyline points="516,392 515,392 514,391 513,391 513,390 512,390 511,389 511,388 510,388 510,387 510,386 510,320 510,320 510,319 511,318 511,317 512,316 513,316 513,315 514,315 515,315 516,315 562,315 562,315 563,315 564,315 565,316 566,316 566,317 567,318 567,319 567,320 567,320 567,379 567,380 567,381 567,381 567,382 566,383 566,383 565,384 565,384 564,385 563,385 543,391 542,391 542,391 542,391 542,391 542,392 542,392 541,392 541,392 541,392 541,392" stroke="#6d725c" /></g><g id="1C05" stroke="red"><polyline points="401,344 481,344 482,345 483,345 484,345 485,346 485,346 486,347 486,348 487,348 487,349 487,350 487,386 487,387 487,388 486,388 486,389 485,390 485,390 484,391 483,391 482,392 481,392 401,392" stroke="#6d725c" /></g><g id="1C09" stroke="red"><polyline points="318,392 317,392 316,391 315,391 315,390 314,390 313,389 313,388 312,388 312,387 312,386 312,350 312,349 312,348 313,348 313,347 314,346 315,346 315,345 316,345 317,345 318,344 401,344 401,392" stroke="#6d725c" /></g><g id="1C13" stroke="red"><polyline points="269,342 202,342 193,342 193,318 193,317 193,316 194,315 194,314 195,313 195,313 196,312 197,312 198,312 199,312 283,312 284,312 285,312 286,312 287,313 287,313 288,314 288,315 289,316 289,317 289,318 289,342" stroke="#6d725c" /></g><g id="1D01A" stroke="red"><polyline points="686,495 666,495 666,421 755,421 755,426 765,426 765,497 755,497 755,508 686,508" stroke="#6d725c" /></g><g id="1D01B" stroke="red"><polyline points="666,421 666,351 711,351 711,405 757,405 757,417 755,417 755,421" stroke="#6d725c" /></g><g id="1D03" stroke="red"><polyline points="602,460 602,449 545,449 545,415 590,401 592,400 640,400 641,400 642,401 643,401 643,401 644,402 645,403 645,403 645,404 646,405 646,406 646,460 646,460" stroke="#6d725c" /></g><g id="1D03A" stroke="red"><polyline points="646,460 646,508 602,508 602,460" stroke="#6d725c" /></g><g id="1D05" stroke="red"><polyline points="518,449 518,415 545,415 545,449" stroke="#6d725c" /></g><g id="1D07" stroke="red"><polyline points="463,449 463,415 518,415 518,449" stroke="#6d725c" /></g><g id="1D09" stroke="red"><polyline points="463,449 408,449 408,449 408,415 463,415 463,449" stroke="#6d725c" /></g><g id="1D11" stroke="red"><polyline points="353,449 353,420 353,420 354,419 354,418 354,417 355,416 356,416 356,415 357,415 358,415 359,415 408,415 408,449" stroke="#6d725c" /></g><g id="1D13" stroke="red"><polyline points="269,415 327,415 328,415 329,415 330,415 331,416 331,416 332,417 332,418 333,419 333,420 333,420 333,501 333,502 333,503 332,504 332,505 331,505 331,506 330,506 329,507 328,507 327,507 269,507" stroke="#6d725c" /></g><g id="1D15" stroke="red"><polyline points="193,507 193,415 269,415 269,507" stroke="#6d725c" /></g><g id="1E02" stroke="red"><polyline points="233,590 333,590 352,590 352,652 350,652 350,668 135,668 135,650 116,650 116,604 132,604 132,590" stroke="#6d725c" /></g><g id="1F-C08" stroke="red"><polyline points="757,508 757,583 757,618 656,618 656,656 667,656 667,662 605,662 592,662 515,662 515,577 572,577 572,555 602,555 602,508 686,508" stroke="#6d725c" /></g><g id="1G01A" stroke="red"><polyline points="132,590 132,526 233,526 233,590" stroke="#6d725c" /></g><g id="1G01B" stroke="red"><polyline points="233,590 233,526 327,526 328,526 329,526 330,527 331,527 331,528 332,529 332,529 333,530 333,531 333,532 333,590" stroke="#6d725c" /></g><g id="1G03" stroke="red"><polyline points="241,345 269,345 269,342 289,342 289,386 289,387 289,388 288,388 288,389 287,390 287,390 286,391 285,391 284,392 283,392 241,392" stroke="#6d725c" /></g><g id="1G03A" stroke="red"><polyline points="241,392 199,392 198,392 197,391 196,391 195,390 195,390 194,389 194,388 193,388 193,387 193,386 193,342 202,342 202,345 241,345" stroke="#6d725c" /></g><g id="1G04" stroke="red"><polyline points="63,365 63,336 47,336 47,334 46,334 46,319 82,319 82,312 164,312 165,312 166,312 167,312 167,313 168,314 169,314 169,315 170,316 170,317 170,318 170,365" stroke="#6d725c" /></g><g id="1G04A" stroke="red"><polyline points="47,415 47,365 63,365 170,365 170,415" stroke="#6d725c" /></g><g id="1G05" stroke="red"><polyline points="170,283 170,284 170,285 169,286 169,286 168,287 167,288 167,288 166,288 165,289 164,289 82,289 82,282 61,282 61,260 83,260 83,184 121,184 121,179 88,179 88,153 164,153 165,154 166,154 167,154 167,155 168,155 169,156 169,157 170,157 170,158 170,159" stroke="#6d725c" /></g><g id="1G06" stroke="red"><polyline points="170,415 170,503 170,504 170,505 169,506 169,507 168,507 167,508 167,508 166,509 165,509 164,509 115,509 115,556 67,556 67,476 47,476 47,415" stroke="#6d725c" /></g></svg>