<?xml version="1.0" encoding="utf-8" ?>
<svg baseProfile="full" height="777" version="1.1" width="800" xmlns="http://www.w3.org/2000/svg" xmlns:ev="http://www.w3.org/2001/xml-events" xmlns:xlink="http://www.w3.org/1999/xlink"><defs /><g id="4A01" stroke="red"><polyline points="149,771 149,670 268,670 268,771" stroke="#6d725c" /></g><g id="4A02" stroke="red"><polyline points="268,771 268,670 332,670 332,771" stroke="#6d725c" /></g><g id="4A03" stroke="red"><polyline points="149,647 149,567 194,567 194,647" stroke="#6d725c" /></g><g id="4A04" stroke="red"><polyline points="230,634 230,554 319,554 319,634" stroke="#6d725c" /></g><g id="4A06" stroke="red"><polyline points="230,554 230,475 319,475 319,554" stroke="#6d725c" /></g><g id="4A07A" stroke="red"><polyline points="149,487 149,407 194,407 194,487" stroke="#6d725c" /></g><g id="4A07B" stroke="red"><polyline points="194,487 194,567 149,567 149,487" stroke="#6d725c" /></g><g id="4A08" stroke="red"><polyline points="230,475 230,396 319,396 319,475" stroke="#6d725c" /></g><g id="4A09" stroke="red"><polyline points="246,360 194,373 194,384 149,384 149,290 246,290 246,290" stroke="#6d725c" /></g><g id="4A10" stroke="red"><polyline points="246,360 246,290 353,290 353,360" stroke="#6d725c" /></g><g id="4B01" stroke="red"><polyline points="332,771 332,670 395,670 395,771" stroke="#6d725c" /></g><g id="4B02A" stroke="red"><polyline points="395,771 395,670 459,670 459,771" stroke="#6d725c" /></g><g id="4B02B" stroke="red"><polyline points="459,771 459,670 522,670 522,771" stroke="#6d725c" /></g><g id="4B03" stroke="red"><polyline points="319,554 407,554 407,634 319,634" stroke="#6d725c" /></g><g id="4B05" stroke="red"><polyline points="319,554 319,475 407,475 407,554" stroke="#6d725c" /></g><g id="4B07" stroke="red"><polyline points="319,475 319,396 407,396 407,475" stroke="#6d725c" /></g><g id="4B08" stroke="red"><polyline points="503,303 503,334 532,334 532,360 435,360 435,252 503,252 503,283 513,283 513,303" stroke="#6d725c" /></g><g id="4B09" stroke="red"><polyline points="353,360 353,290 353,252 400,252 435,252 435,360" stroke="#6d725c" /></g><g id="4B10" stroke="red"><polyline points="503,334 503,303 513,303 532,303 532,334" stroke="#6d725c" /></g><g id="4C02" stroke="red"><polyline points="621,770 609,771 522,771 522,670 636,670 636,767" stroke="#6d725c" /></g><g id="4D01" stroke="red"><polyline points="636,670 680,609 680,601 745,601 745,605 748,605 775,605 772,628 766,650 758,671 746,691 733,709 717,726 699,740 679,752 658,761 636,767" stroke="#6d725c" /></g><g id="4D03" stroke="red"><polyline points="775,501 775,564 745,564 745,565 680,565 680,564 680,502 680,501" stroke="#6d725c" /></g><g id="4D05" stroke="red"><polyline points="680,501 680,430 775,430 775,501" stroke="#6d725c" /></g><g id="4D07" stroke="red"><polyline points="680,430 680,360 775,360 775,430" stroke="#6d725c" /></g><g id="4D09A" stroke="red"><polyline points="680,360 600,360 582,342 582,264 737,264 775,264 775,360" stroke="#6d725c" /></g><g id="4D09B" stroke="red"><polyline points="582,264 582,264 582,169 737,169 737,264" stroke="#6d725c" /></g><g id="4D09C" stroke="red"><polyline points="737,264 737,169 775,169 775,264" stroke="#6d725c" /></g></svg>