<?xml version="1.0" encoding="utf-8" ?>
<svg baseProfile="full" height="778" version="1.1" width="800" xmlns="http://www.w3.org/2000/svg" xmlns:ev="http://www.w3.org/2001/xml-events" xmlns:xlink="http://www.w3.org/1999/xlink"><defs /><g id="1A01A" stroke="red"><polyline fill="#ebf7d1" points="269,616 269,717 158,717 158,707 147,707 147,588 269,588 269,613" stroke="#6d725c" /></g><g id="1A01B" stroke="red"><polyline fill="#ebf7d1" points="147,588 147,517 269,517 269,588 269,588" stroke="#6d725c" /></g><g id="1A02" stroke="red"><polyline fill="#ebf7d1" points="269,616 269,613 383,613 383,660 375,660 375,717 269,717" stroke="#6d725c" /></g><g id="1A03" stroke="red"><polyline fill="#ebf7d1" points="147,517 147,462 269,462 269,517 269,517" stroke="#6d725c" /></g><g id="1A04" stroke="red"><polyline fill="#ebf7d1" points="429,506 429,546 429,546 429,580 302,580 302,506" stroke="#6d725c" /></g><g id="1A05" stroke="red"><polyline fill="#ebf7d1" points="147,462 147,374 269,374 269,462" stroke="#6d725c" /></g><g id="1A06" stroke="red"><polyline fill="#ebf7d1" points="429,451 429,506 302,506 302,374 302,371 452,371 452,374 452,451" stroke="#6d725c" /></g><g id="1A07" stroke="red"><polyline fill="#ebf7d1" points="147,374 147,271 278,271 278,335 269,351 269,374" stroke="#6d725c" /></g><g id="1A08" stroke="red"><polyline fill="#ebf7d1" points="302,371 302,360 325,320 452,320 452,371" stroke="#6d725c" /></g><g id="1A10" stroke="red"><polyline fill="#ebf7d1" points="329,287 329,287 329,284 329,271 333,271 333,234 478,234 478,287" stroke="#6d725c" /></g><g id="1B01" stroke="red"><polyline fill="#ebf7d1" points="595,712 591,713 587,714 582,715 578,716 573,716 569,717 565,717 560,717 556,717 482,717 482,660 475,660 475,613 600,613 600,616 600,711" stroke="#6d725c" /></g><g id="1B02" stroke="red"><polyline fill="#ebf7d1" points="550,509 550,425 592,425 592,509 583,509" stroke="#6d725c" /></g><g id="1B03A" stroke="red"><polyline fill="#ebf7d1" points="545,522 546,522 596,522 596,539 578,580 452,580 452,451 480,451 480,522 504,522" stroke="#6d725c" /></g><g id="1B03B" stroke="red"><polyline fill="#ebf7d1" points="504,522 504,517 493,517 493,490 485,490 485,423 545,423 545,522" stroke="#6d725c" /></g><g id="1B05A" stroke="red"><polyline fill="#ebf7d1" points="504,377 504,369 480,369 480,320 597,320 597,377 545,377" stroke="#6d725c" /></g><g id="1B05B" stroke="red"><polyline fill="#ebf7d1" points="485,423 485,382 504,382 504,377 545,377 545,423" stroke="#6d725c" /></g><g id="1C01" stroke="red"><polyline fill="#ebf7d1" points="689,544 689,556 725,556 725,560 722,580 716,601 709,620 698,638 686,655 672,670 656,684 638,695 619,704 600,711 600,616 600,613 630,544 689,544" stroke="#6d725c" /></g><g id="1C05" stroke="red"><polyline fill="#ebf7d1" points="630,544 630,413 725,413 725,509 725,516 717,516 717,516 689,516 689,544" stroke="#6d725c" /></g><g id="1C07" stroke="red"><polyline fill="#ebf7d1" points="630,411 630,380 653,380 653,411" stroke="#6d725c" /></g><g id="1C09" stroke="red"><polyline fill="#ebf7d1" points="630,377 630,347 674,347 674,377" stroke="#6d725c" /></g><g id="1Y01" stroke="red"><polyline fill="#ebf7d1" points="478,234 487,234 487,211 717,211 717,213 725,213 725,318 630,318 630,287 478,287" stroke="#6d725c" /></g><g id="1Y02" stroke="red"><polyline fill="#ebf7d1" points="720,38 729,38 729,124 720,124 720,137 691,137 691,29 720,29" stroke="#6d725c" /></g></svg>