<?xml version="1.0" encoding="utf-8" ?>
<svg baseProfile="full" height="777" version="1.1" width="800" xmlns="http://www.w3.org/2000/svg" xmlns:ev="http://www.w3.org/2001/xml-events" xmlns:xlink="http://www.w3.org/1999/xlink"><defs /><g id="3A01" stroke="red"><polyline fill="#FFFFFF" points="213,761 22,761 22,673 18,673 18,661 203,661 203,717 213,717" stroke="#6d725c" /></g><g id="3A02" stroke="red"><polyline fill="#FFFFFF" points="213,717 357,717 357,761 213,761" stroke="#6d725c" /></g><g id="3A03" stroke="red"><polyline fill="#FFFFFF" points="18,661 18,557 157,557 203,557 203,661" stroke="#6d725c" /></g><g id="3A04" stroke="red"><polyline fill="#FFFFFF" points="239,681 239,587 345,587 345,681" stroke="#6d725c" /></g><g id="3A06" stroke="red"><polyline fill="#FFFFFF" points="345,477 345,560 239,560 239,477" stroke="#6d725c" /></g><g id="3A08" stroke="red"><polyline fill="#FFFFFF" points="239,477 239,394 345,394 345,477" stroke="#6d725c" /></g><g id="3A10" stroke="red"><polyline fill="#FFFFFF" points="191,357 191,280 362,280 362,357" stroke="#6d725c" /></g><g id="3B01" stroke="red"><polyline fill="#FFFFFF" points="357,761 357,717 428,717 493,661 531,661 531,761" stroke="#6d725c" /></g><g id="3B03" stroke="red"><polyline fill="#FFFFFF" points="393,549 452,549 452,616 452,616 452,628 464,628 464,638 415,681 381,681 381,549" stroke="#6d725c" /></g><g id="3B04" stroke="red"><polyline fill="#FFFFFF" points="463,294 463,256 502,256 502,294" stroke="#6d725c" /></g><g id="3B05" stroke="red"><polyline fill="#FFFFFF" points="393,549 381,549 381,394 393,394 454,394 452,398 452,549" stroke="#6d725c" /></g><g id="3B09" stroke="red"><polyline fill="#FFFFFF" points="362,280 362,242 403,242 403,256 463,256 463,294 433,357 362,357" stroke="#6d725c" /></g><g id="3C01" stroke="red"><polyline fill="#FFFFFF" points="653,755 640,758 624,760 607,761 531,761 531,661 653,661 653,755 653,755 653,755 653,755 653,755 653,755 653,755 653,755 653,755 653,755 653,755" stroke="#6d725c" /></g><g id="3C02" stroke="red"><polyline fill="#FFFFFF" points="653,661 653,661 653,397 653,397 653,330 653,330 653,294 591,294 591,159 784,159 784,551 754,551 754,595 784,595 782,608 780,620 777,633 773,645 768,657 762,668 756,679 749,690 740,700 732,709 725,716 718,722 711,727 703,733 695,737 687,742 679,746 670,749 662,752 653,755" stroke="#6d725c" /></g><g id="3C05" stroke="red"><polyline fill="#FFFFFF" points="598,397 598,386 532,386 532,337 535,337 535,330 591,330 653,330 653,397" stroke="#6d725c" /></g><g id="3S01" stroke="red"><polyline fill="#FFFFFF" points="157,557 157,397 203,397 203,557" stroke="#6d725c" /></g></svg>