<?xml version="1.0" encoding="utf-8" ?>
<svg baseProfile="full" height="780" version="1.1" width="800" xmlns="http://www.w3.org/2000/svg" xmlns:ev="http://www.w3.org/2001/xml-events" xmlns:xlink="http://www.w3.org/1999/xlink"><defs /><g id="2A02" stroke="red"><polyline fill="#ebf7d1" points="154,772 154,672 271,672 271,772" stroke="#6d725c" /></g><g id="2A04" stroke="red"><polyline fill="#ebf7d1" points="234,636 234,561 321,561 321,636" stroke="#6d725c" /></g><g id="2A05" stroke="red"><polyline fill="#ebf7d1" points="154,492 154,414 199,414 199,492" stroke="#6d725c" /></g><g id="2A06" stroke="red"><polyline fill="#ebf7d1" points="234,561 234,486 321,486 321,561" stroke="#6d725c" /></g><g id="2A07" stroke="red"><polyline fill="#ebf7d1" points="199,375 199,391 154,391 154,299 250,299 250,375" stroke="#6d725c" /></g><g id="2A08" stroke="red"><polyline fill="#ebf7d1" points="234,486 234,411 321,411 321,486" stroke="#6d725c" /></g><g id="2A10" stroke="red"><polyline fill="#ebf7d1" points="250,375 250,299 355,299 355,375" stroke="#6d725c" /></g><g id="2B01A" stroke="red"><polyline fill="#ebf7d1" points="271,772 271,672 334,672 334,772" stroke="#6d725c" /></g><g id="2B01B" stroke="red"><polyline fill="#ebf7d1" points="334,772 334,672 396,672 396,772" stroke="#6d725c" /></g><g id="2B03" stroke="red"><polyline fill="#ebf7d1" points="321,561 408,561 408,636 321,636" stroke="#6d725c" /></g><g id="2B05" stroke="red"><polyline fill="#ebf7d1" points="321,561 321,486 408,486 408,561" stroke="#6d725c" /></g><g id="2B07" stroke="red"><polyline fill="#ebf7d1" points="321,486 321,411 408,411 408,486" stroke="#6d725c" /></g><g id="2B09" stroke="red"><polyline fill="#ebf7d1" points="355,299 355,262 395,262 395,275 493,275 493,313 454,313 425,375 355,375" stroke="#6d725c" /></g><g id="2C01A" stroke="red"><polyline fill="#ebf7d1" points="396,772 396,672 521,672 521,772" stroke="#6d725c" /></g><g id="2C01B" stroke="red"><polyline fill="#ebf7d1" points="521,772 521,672 584,672 584,772" stroke="#6d725c" /></g><g id="2C03" stroke="red"><polyline fill="#ebf7d1" points="552,381 552,403 525,403 525,343 580,343 580,381" stroke="#6d725c" /></g><g id="2Y01" stroke="red"><polyline fill="#ebf7d1" points="199,571 199,650 154,650 154,571" stroke="#6d725c" /></g><g id="2Y02" stroke="red"><polyline fill="#ebf7d1" points="154,571 154,492 199,492 199,571" stroke="#6d725c" /></g><g id="2Y03" stroke="red"><polyline fill="#ebf7d1" points="712,453 712,381 580,381 580,343 580,180 679,180 679,228 769,228 769,453" stroke="#6d725c" /></g><g id="2Y04" stroke="red"><polyline fill="#ebf7d1" points="584,672 584,672 584,571 641,571 641,453 712,453 769,453 769,565 740,565 740,608 769,608 769,611 765,637 757,662 746,685 731,706 714,725 693,741 671,754 647,764 621,770 595,772 584,772" stroke="#6d725c" /></g></svg>