<?xml version="1.0" encoding="utf-8" ?>
<svg baseProfile="full" height="619" version="1.1" width="800" xmlns="http://www.w3.org/2000/svg" xmlns:ev="http://www.w3.org/2001/xml-events" xmlns:xlink="http://www.w3.org/1999/xlink"><defs /><g id="1A01" stroke="red"><polyline fill="#FFFFFF" points="334,540 275,540 275,481 275,471 291,471 291,460 291,441 291,409 334,409 334,503" stroke="#6d725c" /></g><g id="1A03" stroke="red"><polyline fill="#FFFFFF" points="291,409 272,409 272,337 334,337 334,409 334,409" stroke="#6d725c" /></g><g id="1A05" stroke="red"><polyline fill="#FFFFFF" points="272,284 255,284 255,235 334,235 334,284" stroke="#6d725c" /></g><g id="1A06" stroke="red"><polyline fill="#FFFFFF" points="334,284 334,284 334,333 272,333 272,284" stroke="#6d725c" /></g><g id="1A07" stroke="red"><polyline fill="#FFFFFF" points="256,220 256,165 334,165 334,220" stroke="#6d725c" /></g><g id="1A15" stroke="red"><polyline fill="#FFFFFF" points="275,136 219,136 219,63 275,63 275,72" stroke="#6d725c" /></g><g id="1A16" stroke="red"><polyline fill="#FFFFFF" points="275,72 296,72 296,63 361,63 361,136 275,136" stroke="#6d725c" /></g><g id="1A17" stroke="red"><polyline fill="#FFFFFF" points="196,136 196,110 196,110 196,110 196,110 185,110 174,110 174,63 194,63 194,75 204,75 204,63 219,63 219,136" stroke="#6d725c" /></g><g id="1A19" stroke="red"><polyline fill="#FFFFFF" points="196,110 196,136 196,136 190,142 174,142 174,110 174,110 174,110 185,110" stroke="#6d725c" /></g><g id="1B01" stroke="red"><polyline fill="#FFFFFF" points="334,540 334,503 387,503 387,540" stroke="#6d725c" /></g><g id="1B02" stroke="red"><polyline fill="#FFFFFF" points="387,503 441,503 441,539 387,540" stroke="#6d725c" /></g><g id="1B03" stroke="red"><polyline fill="#FFFFFF" points="391,441 391,481 351,481 351,441" stroke="#6d725c" /></g><g id="1B04" stroke="red"><polyline fill="#FFFFFF" points="407,386 407,337 473,337 473,386" stroke="#6d725c" /></g><g id="1B05" stroke="red"><polyline fill="#FFFFFF" points="351,441 351,401 391,401 391,441" stroke="#6d725c" /></g><g id="1B06" stroke="red"><polyline fill="#FFFFFF" points="407,263 407,245 437,245 437,263" stroke="#6d725c" /></g><g id="1B07" stroke="red"><polyline fill="#FFFFFF" points="351,386 351,337 392,337 392,386" stroke="#6d725c" /></g><g id="1B08" stroke="red"><polyline fill="#FFFFFF" points="437,193 437,230 407,230 407,193" stroke="#6d725c" /></g><g id="1B09" stroke="red"><polyline fill="#FFFFFF" points="392,282 392,319 351,319 351,282" stroke="#6d725c" /></g><g id="1B10" stroke="red"><polyline fill="#FFFFFF" points="407,193 407,156 437,156 437,193" stroke="#6d725c" /></g><g id="1B11" stroke="red"><polyline fill="#FFFFFF" points="351,282 351,245 392,245 392,282" stroke="#6d725c" /></g><g id="1B12" stroke="red"><polyline fill="#FFFFFF" points="451,441 451,481 407,481 407,441" stroke="#6d725c" /></g><g id="1B13" stroke="red"><polyline fill="#FFFFFF" points="392,193 392,230 351,230 351,193" stroke="#6d725c" /></g><g id="1B14" stroke="red"><polyline fill="#FFFFFF" points="407,441 407,401 451,401 451,441" stroke="#6d725c" /></g><g id="1B15" stroke="red"><polyline fill="#FFFFFF" points="351,193 351,156 392,156 392,193" stroke="#6d725c" /></g><g id="1C01" stroke="red"><polyline fill="#FFFFFF" points="441,263 441,245 486,245 486,263" stroke="#6d725c" /></g><g id="1C02" stroke="red"><polyline fill="#FFFFFF" points="483,230 483,193 513,193 513,229 513,230" stroke="#6d725c" /></g><g id="1C03" stroke="red"><polyline fill="#FFFFFF" points="467,230 441,230 441,193 467,193" stroke="#6d725c" /></g><g id="1C04" stroke="red"><polyline fill="#FFFFFF" points="483,193 483,156 513,156 513,193" stroke="#6d725c" /></g><g id="1C05" stroke="red"><polyline fill="#FFFFFF" points="441,193 441,156 467,156 467,193" stroke="#6d725c" /></g><g id="1C06A" stroke="red"><polyline fill="#FFFFFF" points="441,136 441,63 500,63 500,136" stroke="#6d725c" /></g><g id="1C06B" stroke="red"><polyline fill="#FFFFFF" points="500,63 544,63 544,136 500,136" stroke="#6d725c" /></g><g id="1C07" stroke="red"><polyline fill="#FFFFFF" points="373,136 373,63 437,63 437,136" stroke="#6d725c" /></g><g id="1D01" stroke="red"><polyline fill="#FFFFFF" points="473,425 473,409 488,409 488,425" stroke="#6d725c" /></g><g id="1D02" stroke="red"><polyline fill="#FFFFFF" points="594,545 594,501 637,501 637,545" stroke="#6d725c" /></g><g id="1D03" stroke="red"><polyline fill="#FFFFFF" points="473,337 544,337 544,386 473,386" stroke="#6d725c" /></g><g id="1D04" stroke="red"><polyline fill="#FFFFFF" points="559,481 559,443 614,443 614,481" stroke="#6d725c" /></g><g id="1D05" stroke="red"><polyline fill="#FFFFFF" points="486,245 544,245 544,263 486,263" stroke="#6d725c" /></g><g id="1D06" stroke="red"><polyline fill="#FFFFFF" points="559,443 559,403 614,403 614,443" stroke="#6d725c" /></g><g id="1D07" stroke="red"><polyline fill="#FFFFFF" points="513,229 513,193 544,193 544,230 513,230" stroke="#6d725c" /></g><g id="1D08" stroke="red"><polyline fill="#FFFFFF" points="559,386 559,358 559,358 602,358 602,386" stroke="#6d725c" /></g><g id="1D09" stroke="red"><polyline fill="#FFFFFF" points="513,193 513,156 544,156 544,193 544,193" stroke="#6d725c" /></g><g id="1D10" stroke="red"><polyline fill="#FFFFFF" points="559,358 559,330 602,330 602,358" stroke="#6d725c" /></g><g id="1D11" stroke="red"><polyline fill="#FFFFFF" points="544,442 544,481 509,481 509,442" stroke="#6d725c" /></g><g id="1D12" stroke="red"><polyline fill="#FFFFFF" points="559,315 559,280 588,280 588,315" stroke="#6d725c" /></g><g id="1D13" stroke="red"><polyline fill="#FFFFFF" points="509,442 509,401 544,401 544,442" stroke="#6d725c" /></g><g id="1D14" stroke="red"><polyline fill="#FFFFFF" points="559,280 559,245 588,245 588,280" stroke="#6d725c" /></g><g id="1D16" stroke="red"><polyline fill="#FFFFFF" points="559,230 559,193 588,193 588,230" stroke="#6d725c" /></g><g id="1D18" stroke="red"><polyline fill="#FFFFFF" points="559,193 559,192 559,156 588,156 588,193" stroke="#6d725c" /></g><g id="1E01" stroke="red"><polyline fill="#FFFFFF" points="602,386 602,358 645,358 645,386" stroke="#6d725c" /></g><g id="1E02" stroke="red"><polyline fill="#FFFFFF" points="602,358 602,330 645,330 645,358" stroke="#6d725c" /></g><g id="1E03" stroke="red"><polyline fill="#FFFFFF" points="588,280 616,280 616,315 588,315" stroke="#6d725c" /></g><g id="1E04" stroke="red"><polyline fill="#FFFFFF" points="631,315 631,280 660,280 660,315" stroke="#6d725c" /></g><g id="1E05" stroke="red"><polyline fill="#FFFFFF" points="588,280 588,245 616,245 616,280" stroke="#6d725c" /></g><g id="1E06" stroke="red"><polyline fill="#FFFFFF" points="631,280 631,245 660,245 660,280" stroke="#6d725c" /></g><g id="1E07" stroke="red"><polyline fill="#FFFFFF" points="588,193 616,193 616,230 588,230" stroke="#6d725c" /></g><g id="1E09" stroke="red"><polyline fill="#FFFFFF" points="588,193 588,156 616,156 616,193" stroke="#6d725c" /></g><g id="1F01" stroke="red"><polyline fill="#FFFFFF" points="614,443 670,443 649,481 614,481" stroke="#6d725c" /></g><g id="1F03" stroke="red"><polyline fill="#FFFFFF" points="614,443 614,403 689,403 689,408 670,443" stroke="#6d725c" /></g><g id="1F05" stroke="red"><polyline fill="#FFFFFF" points="645,358 689,358 689,386 645,386" stroke="#6d725c" /></g><g id="1F06" stroke="red"><polyline fill="#FFFFFF" points="742,364 742,402 709,402 709,364" stroke="#6d725c" /></g><g id="1F07" stroke="red"><polyline fill="#FFFFFF" points="645,358 645,330 689,330 689,358" stroke="#6d725c" /></g><g id="1F08" stroke="red"><polyline fill="#FFFFFF" points="709,364 709,330 742,330 742,364" stroke="#6d725c" /></g><g id="1F09" stroke="red"><polyline fill="#FFFFFF" points="660,280 689,280 689,315 660,315" stroke="#6d725c" /></g><g id="1F10" stroke="red"><polyline fill="#FFFFFF" points="742,231 742,270 709,270 709,231" stroke="#6d725c" /></g><g id="1F11" stroke="red"><polyline fill="#FFFFFF" points="660,280 660,245 689,245 689,280" stroke="#6d725c" /></g><g id="1G01" stroke="red"><polyline fill="#FFFFFF" points="679,503 679,545 637,545 637,501 661,501 660,503" stroke="#6d725c" /></g><g id="1Y01" stroke="red"><polyline fill="#FFFFFF" points="291,409 291,441 291,460 291,471 275,471 275,481 275,545 121,545 121,471 102,471 102,403 189,403 189,434 255,434 255,409 272,409" stroke="#6d725c" /></g><g id="1Y02" stroke="red"><polyline fill="#FFFFFF" points="660,503 681,471 703,471 703,533 709,533 709,545 681,545 681,503 679,503" stroke="#6d725c" /></g><g id="1Y03" stroke="red"><polyline fill="#FFFFFF" points="631,136 562,136 561,136 560,136 559,135 559,135 558,134 558,134 557,133 557,132 557,132 557,131 557,63 763,63 763,123 742,123 742,136" stroke="#6d725c" /></g><g id="1Y04" stroke="red"><polyline fill="#FFFFFF" points="709,231 709,230 666,230 631,196 631,136 742,136 742,195 742,230 742,231" stroke="#6d725c" /></g><g id="1Y05" stroke="red"><polyline fill="#FFFFFF" points="684,460 709,413 709,403 742,403 742,460" stroke="#6d725c" /></g></svg>