<?xml version="1.0" encoding="utf-8" ?>
<svg baseProfile="full" height="556" version="1.1" width="800" xmlns="http://www.w3.org/2000/svg" xmlns:ev="http://www.w3.org/2001/xml-events" xmlns:xlink="http://www.w3.org/1999/xlink"><defs /><g id="HZX07010" stroke="red"><polyline fill="#FFFFFF" points="113,435 113,313 193,313 193,435" stroke="#6d725c" /></g><g id="HZX07020" stroke="red"><polyline fill="#FFFFFF" points="113,311 113,242 224,242 224,311" stroke="#6d725c" /></g><g id="HZX07030" stroke="red"><polyline fill="#FFFFFF" points="113,239 113,118 193,118 193,239" stroke="#6d725c" /></g><g id="HZX07040" stroke="red"><polyline fill="#FFFFFF" points="195,222 195,118 233,118 233,222" stroke="#6d725c" /></g><g id="HZX07050" stroke="red"><polyline fill="#FFFFFF" points="235,222 235,118 273,118 273,222" stroke="#6d725c" /></g><g id="HZX07120" stroke="red"><polyline fill="#FFFFFF" points="516,222 516,118 553,118 553,222" stroke="#6d725c" /></g><g id="HZX07130" stroke="red"><polyline fill="#FFFFFF" points="555,222 555,118 593,118 593,222" stroke="#6d725c" /></g><g id="HZX07140" stroke="red"><polyline fill="#FFFFFF" points="596,239 596,118 676,118 676,239" stroke="#6d725c" /></g><g id="HZX07150" stroke="red"><polyline fill="#FFFFFF" points="565,311 565,242 676,242 676,311" stroke="#6d725c" /></g><g id="HZX07160" stroke="red"><polyline fill="#FFFFFF" points="665,331 676,331 676,414 665,414 665,435 596,435 596,313 665,313" stroke="#6d725c" /></g><g id="HZX07170" stroke="red"><polyline fill="#FFFFFF" points="555,435 555,333 593,333 593,435" stroke="#6d725c" /></g><g id="HZX07180" stroke="red"><polyline fill="#FFFFFF" points="516,435 516,333 553,333 553,435" stroke="#6d725c" /></g><g id="HZX07190" stroke="red"><polyline fill="#FFFFFF" points="475,435 475,333 513,333 513,435" stroke="#6d725c" /></g><g id="HZX07200" stroke="red"><polyline fill="#FFFFFF" points="435,435 435,333 473,333 473,435" stroke="#6d725c" /></g><g id="HZX07210" stroke="red"><polyline fill="#FFFFFF" points="395,435 395,333 433,333 433,435" stroke="#6d725c" /></g><g id="HZX07220" stroke="red"><polyline fill="#FFFFFF" points="355,435 355,333 393,333 393,435" stroke="#6d725c" /></g><g id="HZX07230" stroke="red"><polyline fill="#FFFFFF" points="315,435 315,333 353,333 353,435" stroke="#6d725c" /></g><g id="HZX07240" stroke="red"><polyline fill="#FFFFFF" points="275,435 275,333 313,333 313,435" stroke="#6d725c" /></g><g id="HZX07250" stroke="red"><polyline fill="#FFFFFF" points="236,435 236,333 273,333 273,435" stroke="#6d725c" /></g><g id="HZX07260" stroke="red"><polyline fill="#FFFFFF" points="195,435 195,333 234,333 234,435" stroke="#6d725c" /></g></svg>