<?xml version="1.0" encoding="utf-8" ?>
<svg baseProfile="full" height="556" version="1.1" width="800" xmlns="http://www.w3.org/2000/svg" xmlns:ev="http://www.w3.org/2001/xml-events" xmlns:xlink="http://www.w3.org/1999/xlink"><defs /><g id="HZX1801E" stroke="red"><polyline fill="#FFFFFF" points="676,414 665,414 665,424 668,424 668,435 122,435 122,424 123,424 123,416 113,416 113,332 123,332 123,311 113,311 113,242 123,242 123,222 113,221 113,136 123,136 123,118 193,118 193,239 224,239 224,313 195,313 195,331 593,331 593,315 565,313 565,239 593,239 593,222 275,222 275,118 536,118 663,118 675,139" stroke="#6d725c" /></g><g id="HZX18040" stroke="red"><polyline fill="#FFFFFF" points="195,222 195,118 233,118 233,222" stroke="#6d725c" /></g><g id="HZX18050" stroke="red"><polyline fill="#FFFFFF" points="235,222 235,118 273,118 273,222" stroke="#6d725c" /></g></svg>