<?xml version="1.0" encoding="utf-8" ?>
<svg baseProfile="full" height="619" version="1.1" width="800" xmlns="http://www.w3.org/2000/svg" xmlns:ev="http://www.w3.org/2001/xml-events" xmlns:xlink="http://www.w3.org/1999/xlink"><defs /><g id="1A01" stroke="red"><polyline fill="#ebf7d1" points="346,553 287,553 287,494 287,484 304,484 304,474 304,455 304,449 304,436 304,424 307,424 346,424 346,517" stroke="#6d725c" /></g><g id="1A03" stroke="red"><polyline fill="#ebf7d1" points="307,424 304,424 285,424 285,352 346,352 346,424 346,424" stroke="#6d725c" /></g><g id="1A05" stroke="red"><polyline fill="#ebf7d1" points="284,300 268,300 268,251 346,251 346,300" stroke="#6d725c" /></g><g id="1A06" stroke="red"><polyline fill="#ebf7d1" points="346,300 346,300 346,348 284,348 284,300" stroke="#6d725c" /></g><g id="1A07" stroke="red"><polyline fill="#ebf7d1" points="269,237 269,182 346,182 346,237" stroke="#6d725c" /></g><g id="1A15" stroke="red"><polyline fill="#ebf7d1" points="287,153 232,153 232,81 287,81 287,90" stroke="#6d725c" /></g><g id="1A16" stroke="red"><polyline fill="#ebf7d1" points="287,90 308,90 308,81 373,81 373,153 287,153" stroke="#6d725c" /></g><g id="1A17" stroke="red"><polyline fill="#ebf7d1" points="205,153 205,160 188,160 188,81 208,81 208,93 218,93 218,81 232,81 232,153" stroke="#6d725c" /></g><g id="1B01" stroke="red"><polyline fill="#ebf7d1" points="346,553 346,517 399,517 399,553" stroke="#6d725c" /></g><g id="1B02" stroke="red"><polyline fill="#ebf7d1" points="399,517 452,517 452,552 399,553" stroke="#6d725c" /></g><g id="1B03" stroke="red"><polyline fill="#ebf7d1" points="402,455 402,495 363,495 363,455" stroke="#6d725c" /></g><g id="1B04" stroke="red"><polyline fill="#ebf7d1" points="418,401 418,353 484,353 484,401" stroke="#6d725c" /></g><g id="1B05" stroke="red"><polyline fill="#ebf7d1" points="363,455 363,416 402,416 402,455" stroke="#6d725c" /></g><g id="1B06" stroke="red"><polyline fill="#ebf7d1" points="418,279 418,261 448,261 448,279" stroke="#6d725c" /></g><g id="1B07" stroke="red"><polyline fill="#ebf7d1" points="363,401 363,352 403,352 403,376 403,401" stroke="#6d725c" /></g><g id="1B08" stroke="red"><polyline fill="#ebf7d1" points="448,210 448,246 418,246 418,210" stroke="#6d725c" /></g><g id="1B09" stroke="red"><polyline fill="#ebf7d1" points="403,298 403,334 363,334 363,298" stroke="#6d725c" /></g><g id="1B10" stroke="red"><polyline fill="#ebf7d1" points="418,210 418,173 448,173 448,210" stroke="#6d725c" /></g><g id="1B11" stroke="red"><polyline fill="#ebf7d1" points="363,298 363,261 403,261 403,298" stroke="#6d725c" /></g><g id="1B12" stroke="red"><polyline fill="#ebf7d1" points="456,455 461,455 461,495 418,495 418,455" stroke="#6d725c" /></g><g id="1B13" stroke="red"><polyline fill="#ebf7d1" points="403,210 403,246 363,246 363,210" stroke="#6d725c" /></g><g id="1B14" stroke="red"><polyline fill="#ebf7d1" points="456,455 418,455 418,416 461,416 461,455" stroke="#6d725c" /></g><g id="1B15" stroke="red"><polyline fill="#ebf7d1" points="363,210 363,173 403,173 403,210" stroke="#6d725c" /></g><g id="1C01" stroke="red"><polyline fill="#ebf7d1" points="452,279 452,261 496,261 496,279" stroke="#6d725c" /></g><g id="1C02" stroke="red"><polyline fill="#ebf7d1" points="493,246 493,210 523,210 523,246 523,246" stroke="#6d725c" /></g><g id="1C03" stroke="red"><polyline fill="#ebf7d1" points="478,246 452,246 452,210 478,210" stroke="#6d725c" /></g><g id="1C04" stroke="red"><polyline fill="#ebf7d1" points="493,210 493,173 523,173 523,210" stroke="#6d725c" /></g><g id="1C05" stroke="red"><polyline fill="#ebf7d1" points="452,210 452,173 478,173 478,210" stroke="#6d725c" /></g><g id="1C06" stroke="red"><polyline fill="#ebf7d1" points="452,153 452,82 554,82 554,153" stroke="#6d725c" /></g><g id="1C07" stroke="red"><polyline fill="#ebf7d1" points="385,153 385,81 448,81 448,153" stroke="#6d725c" /></g><g id="1D02" stroke="red"><polyline fill="#ebf7d1" points="603,558 603,515 645,515 645,558" stroke="#6d725c" /></g><g id="1D03" stroke="red"><polyline fill="#ebf7d1" points="484,353 554,353 554,401 484,401" stroke="#6d725c" /></g><g id="1D04" stroke="red"><polyline fill="#ebf7d1" points="569,495 569,457 623,457 623,495" stroke="#6d725c" /></g><g id="1D05" stroke="red"><polyline fill="#ebf7d1" points="496,261 554,261 554,279 496,279" stroke="#6d725c" /></g><g id="1D06" stroke="red"><polyline fill="#ebf7d1" points="569,457 569,417 623,417 623,457" stroke="#6d725c" /></g><g id="1D07" stroke="red"><polyline fill="#ebf7d1" points="523,246 523,210 554,210 554,246 523,246" stroke="#6d725c" /></g><g id="1D08" stroke="red"><polyline fill="#ebf7d1" points="569,401 569,373 569,373 611,373 611,401" stroke="#6d725c" /></g><g id="1D09" stroke="red"><polyline fill="#ebf7d1" points="523,210 523,173 554,173 554,210 554,210" stroke="#6d725c" /></g><g id="1D10" stroke="red"><polyline fill="#ebf7d1" points="569,373 569,345 611,345 611,373" stroke="#6d725c" /></g><g id="1D11" stroke="red"><polyline fill="#ebf7d1" points="554,456 554,495 520,495 520,456" stroke="#6d725c" /></g><g id="1D12" stroke="red"><polyline fill="#ebf7d1" points="569,330 569,296 597,296 597,330" stroke="#6d725c" /></g><g id="1D13" stroke="red"><polyline fill="#ebf7d1" points="520,456 520,416 554,416 554,456" stroke="#6d725c" /></g><g id="1D14" stroke="red"><polyline fill="#ebf7d1" points="569,296 569,261 597,261 597,296" stroke="#6d725c" /></g><g id="1D16" stroke="red"><polyline fill="#ebf7d1" points="569,246 569,210 597,210 597,246" stroke="#6d725c" /></g><g id="1D18" stroke="red"><polyline fill="#ebf7d1" points="569,210 569,209 569,173 597,173 597,210" stroke="#6d725c" /></g><g id="1E01" stroke="red"><polyline fill="#ebf7d1" points="611,401 611,373 654,373 654,401" stroke="#6d725c" /></g><g id="1E02" stroke="red"><polyline fill="#ebf7d1" points="611,373 611,345 654,345 654,373" stroke="#6d725c" /></g><g id="1E03" stroke="red"><polyline fill="#ebf7d1" points="597,296 625,296 625,330 597,330" stroke="#6d725c" /></g><g id="1E04" stroke="red"><polyline fill="#ebf7d1" points="640,330 640,296 668,296 668,330" stroke="#6d725c" /></g><g id="1E05" stroke="red"><polyline fill="#ebf7d1" points="597,296 597,261 625,261 625,296" stroke="#6d725c" /></g><g id="1E06" stroke="red"><polyline fill="#ebf7d1" points="640,296 640,261 668,261 668,296" stroke="#6d725c" /></g><g id="1E07" stroke="red"><polyline fill="#ebf7d1" points="597,210 625,210 625,246 597,246" stroke="#6d725c" /></g><g id="1E09" stroke="red"><polyline fill="#ebf7d1" points="597,210 597,173 625,173 625,210" stroke="#6d725c" /></g><g id="1F01" stroke="red"><polyline fill="#ebf7d1" points="623,457 678,457 658,495 623,495" stroke="#6d725c" /></g><g id="1F03" stroke="red"><polyline fill="#ebf7d1" points="623,457 623,417 697,417 697,422 678,457" stroke="#6d725c" /></g><g id="1F05" stroke="red"><polyline fill="#ebf7d1" points="654,373 697,373 697,401 654,401" stroke="#6d725c" /></g><g id="1F06" stroke="red"><polyline fill="#ebf7d1" points="750,379 750,416 716,416 716,379" stroke="#6d725c" /></g><g id="1F07" stroke="red"><polyline fill="#ebf7d1" points="654,373 654,345 697,345 697,373" stroke="#6d725c" /></g><g id="1F08" stroke="red"><polyline fill="#ebf7d1" points="716,379 716,345 750,345 750,379" stroke="#6d725c" /></g><g id="1F09" stroke="red"><polyline fill="#ebf7d1" points="668,296 697,296 697,330 668,330" stroke="#6d725c" /></g><g id="1F10" stroke="red"><polyline fill="#ebf7d1" points="750,247 750,286 716,286 716,247" stroke="#6d725c" /></g><g id="1F11" stroke="red"><polyline fill="#ebf7d1" points="668,296 668,261 697,261 697,296" stroke="#6d725c" /></g><g id="1G01" stroke="red"><polyline fill="#ebf7d1" points="687,517 687,558 645,558 645,515 669,515 668,517" stroke="#6d725c" /></g><g id="1Y01" stroke="red"><polyline fill="#ebf7d1" points="304,424 304,436 304,449 304,455 304,474 304,484 287,484 287,494 287,558 135,558 135,485 116,485 116,418 203,418 203,448 268,448 268,424 285,424" stroke="#6d725c" /></g><g id="1Y02" stroke="red"><polyline fill="#ebf7d1" points="668,517 689,485 711,485 711,547 716,547 716,558 689,558 689,517 687,517" stroke="#6d725c" /></g><g id="1Y03" stroke="red"><polyline fill="#ebf7d1" points="640,154 571,154 570,153 570,153 569,153 568,153 568,152 567,152 567,151 566,150 566,149 566,149 566,81 770,81 770,141 750,141 750,154" stroke="#6d725c" /></g><g id="1Y04" stroke="red"><polyline fill="#ebf7d1" points="716,247 716,246 674,246 640,213 640,154 750,154 750,212 750,246 750,247" stroke="#6d725c" /></g><g id="1Y05" stroke="red"><polyline fill="#ebf7d1" points="692,474 716,427 716,417 750,417 750,474" stroke="#6d725c" /></g></svg>