<?xml version="1.0" encoding="utf-8" ?>
<svg baseProfile="full" height="619" version="1.1" width="800" xmlns="http://www.w3.org/2000/svg" xmlns:ev="http://www.w3.org/2001/xml-events" xmlns:xlink="http://www.w3.org/1999/xlink"><defs /><g id="2A06" stroke="red"><polyline points="155,499 155,477 194,477 194,512" stroke="#6d725c" /></g><g id="2A14" stroke="red"><polyline points="155,372 155,403 110,403 110,372" stroke="#6d725c" /></g><g id="2A16" stroke="red"><polyline points="110,372 110,346 155,346 155,372" stroke="#6d725c" /></g><g id="2A18" stroke="red"><polyline points="155,341 223,341 223,346 155,346" stroke="#6d725c" /></g><g id="2A19" stroke="red"><polyline points="44,357 44,322 91,322 91,357" stroke="#6d725c" /></g><g id="2A21" stroke="red"><polyline points="44,322 44,289 91,289 91,322" stroke="#6d725c" /></g><g id="2A22" stroke="red"><polyline points="155,292 155,322 113,322 112,322 112,322 111,322 111,321 111,321 110,321 110,320 110,320 110,320 110,319 110,292" stroke="#6d725c" /></g><g id="2A23" stroke="red"><polyline points="44,289 44,254 91,254 91,289" stroke="#6d725c" /></g><g id="2A24" stroke="red"><polyline points="110,292 110,263 110,263 110,263 110,262 110,262 111,261 111,261 111,261 112,261 112,261 113,261 155,261 155,292" stroke="#6d725c" /></g><g id="2A26" stroke="red"><polyline points="155,216 155,247 110,247 110,216" stroke="#6d725c" /></g><g id="2A27" stroke="red"><polyline points="44,254 44,219 52,219 91,219 91,254" stroke="#6d725c" /></g><g id="2A28" stroke="red"><polyline points="110,216 110,186 148,186 155,186 155,216" stroke="#6d725c" /></g><g id="2A29" stroke="red"><polyline points="52,219 52,185 91,185 91,219" stroke="#6d725c" /></g><g id="2A30" stroke="red"><polyline points="110,186 110,137 110,136 110,136 110,136 110,135 111,135 111,135 111,134 112,134 112,134 113,134 148,134 148,186" stroke="#6d725c" /></g><g id="2A31" stroke="red"><polyline points="52,185 52,155 66,155 91,155 91,185" stroke="#6d725c" /></g><g id="2A32" stroke="red"><polyline points="155,186 148,186 148,134 185,134 185,186" stroke="#6d725c" /></g><g id="2A33" stroke="red"><polyline points="66,155 66,129 91,129 91,155" stroke="#6d725c" /></g><g id="2B02" stroke="red"><polyline points="269,598 269,548 307,548 307,598" stroke="#6d725c" /></g><g id="2B03" stroke="red"><polyline points="265,460 254,460 254,440 245,440 245,399 265,399" stroke="#6d725c" /></g><g id="2B04" stroke="red"><polyline points="281,529 281,494 312,494 312,529" stroke="#6d725c" /></g><g id="2B05" stroke="red"><polyline points="194,512 194,477 228,477 228,524" stroke="#6d725c" /></g><g id="2B06" stroke="red"><polyline points="281,494 281,459 312,459 312,494" stroke="#6d725c" /></g><g id="2B07" stroke="red"><polyline points="228,477 268,477 268,529 242,529 228,524" stroke="#6d725c" /></g><g id="2B08" stroke="red"><polyline points="281,459 281,425 312,425 312,459" stroke="#6d725c" /></g><g id="2B09" stroke="red"><polyline points="243,598 243,548 269,548 269,598" stroke="#6d725c" /></g><g id="2B10" stroke="red"><polyline points="281,403 281,372 331,372 331,403" stroke="#6d725c" /></g><g id="2B11" stroke="red"><polyline points="265,372 265,390 227,390 227,372" stroke="#6d725c" /></g><g id="2B12" stroke="red"><polyline points="281,372 281,341 331,341 331,372" stroke="#6d725c" /></g><g id="2B14" stroke="red"><polyline points="281,322 281,291 331,291 331,322" stroke="#6d725c" /></g><g id="2B15" stroke="red"><polyline points="227,372 227,346 265,346 265,372" stroke="#6d725c" /></g><g id="2B16" stroke="red"><polyline points="281,291 281,260 331,260 331,291" stroke="#6d725c" /></g><g id="2B17" stroke="red"><polyline points="227,317 227,260 265,260 265,317" stroke="#6d725c" /></g><g id="2B18" stroke="red"><polyline points="281,244 281,210 312,210 312,244" stroke="#6d725c" /></g><g id="2B19" stroke="red"><polyline points="265,217 265,247 227,247 227,217" stroke="#6d725c" /></g><g id="2B20" stroke="red"><polyline points="281,210 281,172 312,172 312,210" stroke="#6d725c" /></g><g id="2B21" stroke="red"><polyline points="227,217 227,186 265,186 265,217" stroke="#6d725c" /></g><g id="2B22" stroke="red"><polyline points="281,172 281,134 312,134 312,172" stroke="#6d725c" /></g><g id="2B23" stroke="red"><polyline points="227,186 227,134 265,134 265,186" stroke="#6d725c" /></g><g id="2B24" stroke="red"><polyline points="265,74 313,74 313,115 265,115" stroke="#6d725c" /></g><g id="2B25" stroke="red"><polyline points="185,186 185,134 227,134 227,186" stroke="#6d725c" /></g><g id="2B27" stroke="red"><polyline points="173,115 173,74 220,74 220,115" stroke="#6d725c" /></g><g id="2B29" stroke="red"><polyline points="220,115 220,74 265,74 265,115" stroke="#6d725c" /></g><g id="2C01" stroke="red"><polyline points="307,598 307,548 344,548 344,598" stroke="#6d725c" /></g><g id="2C02" stroke="red"><polyline points="344,598 344,548 381,548 381,598" stroke="#6d725c" /></g><g id="2C03" stroke="red"><polyline points="312,494 342,494 342,529 312,529" stroke="#6d725c" /></g><g id="2C04" stroke="red"><polyline points="358,529 358,494 385,494 385,529" stroke="#6d725c" /></g><g id="2C05" stroke="red"><polyline points="312,494 312,459 342,459 342,494" stroke="#6d725c" /></g><g id="2C06A" stroke="red"><polyline points="358,494 358,477 385,477 385,494" stroke="#6d725c" /></g><g id="2C06B" stroke="red"><polyline points="358,477 358,459 385,459 385,477" stroke="#6d725c" /></g><g id="2C07" stroke="red"><polyline points="312,459 312,425 342,425 342,459" stroke="#6d725c" /></g><g id="2C08" stroke="red"><polyline points="358,459 358,425 385,425 385,459" stroke="#6d725c" /></g><g id="2C10" stroke="red"><polyline points="331,372 380,372 380,403 331,403" stroke="#6d725c" /></g><g id="2C12" stroke="red"><polyline points="331,372 331,341 380,341 380,372" stroke="#6d725c" /></g><g id="2C14" stroke="red"><polyline points="331,291 380,291 380,322 331,322" stroke="#6d725c" /></g><g id="2C16" stroke="red"><polyline points="331,291 331,260 380,260 380,291" stroke="#6d725c" /></g><g id="2C17" stroke="red"><polyline points="312,210 342,210 342,244 312,244" stroke="#6d725c" /></g><g id="2C18" stroke="red"><polyline points="358,244 358,210 385,210 385,244" stroke="#6d725c" /></g><g id="2C19" stroke="red"><polyline points="312,210 312,172 342,172 342,210" stroke="#6d725c" /></g><g id="2C20" stroke="red"><polyline points="358,210 358,172 385,172 385,210" stroke="#6d725c" /></g><g id="2C21" stroke="red"><polyline points="312,172 312,134 342,134 342,172" stroke="#6d725c" /></g><g id="2C22" stroke="red"><polyline points="358,172 358,134 385,134 385,172" stroke="#6d725c" /></g><g id="2C24" stroke="red"><polyline points="335,115 335,74 380,74 380,115" stroke="#6d725c" /></g><g id="2D01" stroke="red"><polyline points="381,598 381,548 418,548 418,598" stroke="#6d725c" /></g><g id="2D02" stroke="red"><polyline points="418,598 418,548 459,548 459,598" stroke="#6d725c" /></g><g id="2D03" stroke="red"><polyline points="385,494 411,494 411,529 385,529" stroke="#6d725c" /></g><g id="2D04" stroke="red"><polyline points="423,529 423,494 449,494 449,529" stroke="#6d725c" /></g><g id="2D05" stroke="red"><polyline points="385,494 385,477 385,459 411,459 411,494" stroke="#6d725c" /></g><g id="2D06" stroke="red"><polyline points="423,494 423,459 449,459 449,494" stroke="#6d725c" /></g><g id="2D07" stroke="red"><polyline points="385,459 385,425 411,425 411,459" stroke="#6d725c" /></g><g id="2D08" stroke="red"><polyline points="423,459 423,425 449,425 449,459" stroke="#6d725c" /></g><g id="2D09" stroke="red"><polyline points="417,403 417,374 432,374 432,403" stroke="#6d725c" /></g><g id="2D10" stroke="red"><polyline points="432,403 432,374 464,374 464,403" stroke="#6d725c" /></g><g id="2D11" stroke="red"><polyline points="417,288 417,260 432,260 432,288" stroke="#6d725c" /></g><g id="2D12" stroke="red"><polyline points="432,288 432,260 485,260 485,288" stroke="#6d725c" /></g><g id="2D14" stroke="red"><polyline points="423,244 423,210 449,210 449,244" stroke="#6d725c" /></g><g id="2D15" stroke="red"><polyline points="385,210 411,210 411,244 385,244" stroke="#6d725c" /></g><g id="2D16" stroke="red"><polyline points="423,210 423,172 449,172 449,210" stroke="#6d725c" /></g><g id="2D17" stroke="red"><polyline points="385,210 385,172 411,172 411,210" stroke="#6d725c" /></g><g id="2D18" stroke="red"><polyline points="423,172 423,134 449,134 449,172" stroke="#6d725c" /></g><g id="2D19" stroke="red"><polyline points="385,172 385,134 411,134 411,172" stroke="#6d725c" /></g><g id="2D20" stroke="red"><polyline points="430,115 430,74 469,74 469,115" stroke="#6d725c" /></g><g id="2D21" stroke="red"><polyline points="380,74 425,74 425,115 380,115" stroke="#6d725c" /></g><g id="2E01" stroke="red"><polyline points="459,598 459,548 498,548 498,598" stroke="#6d725c" /></g><g id="2E02" stroke="red"><polyline points="498,598 498,548 537,548 537,598" stroke="#6d725c" /></g><g id="2E03" stroke="red"><polyline points="449,494 474,494 474,529 449,529" stroke="#6d725c" /></g><g id="2E04" stroke="red"><polyline points="490,529 490,494 518,494 518,529" stroke="#6d725c" /></g><g id="2E05" stroke="red"><polyline points="449,494 449,459 474,459 474,494" stroke="#6d725c" /></g><g id="2E06" stroke="red"><polyline points="490,494 490,459 518,459 518,494" stroke="#6d725c" /></g><g id="2E07" stroke="red"><polyline points="449,459 449,425 474,425 474,459" stroke="#6d725c" /></g><g id="2E08" stroke="red"><polyline points="490,459 490,425 518,425 518,459" stroke="#6d725c" /></g><g id="2E09" stroke="red"><polyline points="464,403 464,374 505,374 505,403" stroke="#6d725c" /></g><g id="2E10" stroke="red"><polyline points="490,244 490,210 518,210 518,244" stroke="#6d725c" /></g><g id="2E11" stroke="red"><polyline points="449,210 474,210 474,244 449,244" stroke="#6d725c" /></g><g id="2E12" stroke="red"><polyline points="490,210 490,172 518,172 518,210" stroke="#6d725c" /></g><g id="2E14" stroke="red"><polyline points="490,172 490,134 518,134 518,172" stroke="#6d725c" /></g><g id="2E15" stroke="red"><polyline points="449,210 449,172 474,172 474,210" stroke="#6d725c" /></g><g id="2E16" stroke="red"><polyline points="469,115 469,74 507,74 507,115" stroke="#6d725c" /></g><g id="2E17" stroke="red"><polyline points="449,172 449,134 474,134 474,172" stroke="#6d725c" /></g><g id="2F01" stroke="red"><polyline points="537,598 537,548 577,548 577,598" stroke="#6d725c" /></g><g id="2F02" stroke="red"><polyline points="577,598 577,548 617,548 617,598" stroke="#6d725c" /></g><g id="2F03" stroke="red"><polyline points="518,494 546,494 546,529 518,529" stroke="#6d725c" /></g><g id="2F04" stroke="red"><polyline points="565,529 565,494 595,494 595,529" stroke="#6d725c" /></g><g id="2F05" stroke="red"><polyline points="518,494 518,459 546,459 546,494" stroke="#6d725c" /></g><g id="2F06" stroke="red"><polyline points="565,494 565,459 595,459 595,494" stroke="#6d725c" /></g><g id="2F07" stroke="red"><polyline points="518,459 518,425 546,425 546,459" stroke="#6d725c" /></g><g id="2F08" stroke="red"><polyline points="565,459 565,425 595,425 595,459" stroke="#6d725c" /></g><g id="2F09" stroke="red"><polyline points="505,374 546,374 546,403 505,403" stroke="#6d725c" /></g><g id="2F10" stroke="red"><polyline points="565,403 565,372 615,372 615,403" stroke="#6d725c" /></g><g id="2F12" stroke="red"><polyline points="565,372 565,341 615,341 615,372" stroke="#6d725c" /></g><g id="2F14" stroke="red"><polyline points="565,322 565,291 615,291 615,322" stroke="#6d725c" /></g><g id="2F15" stroke="red"><polyline points="485,260 546,260 546,288 485,288" stroke="#6d725c" /></g><g id="2F16" stroke="red"><polyline points="565,291 565,260 615,260 615,291" stroke="#6d725c" /></g><g id="2F17" stroke="red"><polyline points="518,210 546,210 546,244 518,244" stroke="#6d725c" /></g><g id="2F18" stroke="red"><polyline points="565,244 565,210 595,210 595,244" stroke="#6d725c" /></g><g id="2F19" stroke="red"><polyline points="518,210 518,172 546,172 546,210" stroke="#6d725c" /></g><g id="2F20" stroke="red"><polyline points="565,210 565,172 595,172 595,210" stroke="#6d725c" /></g><g id="2F21" stroke="red"><polyline points="518,172 518,134 546,134 546,172" stroke="#6d725c" /></g><g id="2F22" stroke="red"><polyline points="565,172 565,134 595,134 595,172" stroke="#6d725c" /></g><g id="2F23" stroke="red"><polyline points="507,115 507,74 540,74 540,115" stroke="#6d725c" /></g><g id="2F24" stroke="red"><polyline points="540,74 552,74 552,85 570,85 570,94 581,94 581,115 540,115" stroke="#6d725c" /></g><g id="2G01" stroke="red"><polyline points="617,598 617,548 654,548 654,598" stroke="#6d725c" /></g><g id="2G02" stroke="red"><polyline points="654,598 654,548 688,548 688,598" stroke="#6d725c" /></g><g id="2G03" stroke="red"><polyline points="595,494 625,494 625,529 595,529" stroke="#6d725c" /></g><g id="2G04" stroke="red"><polyline points="641,529 641,494 679,494 679,529" stroke="#6d725c" /></g><g id="2G05" stroke="red"><polyline points="595,494 595,459 625,459 625,494" stroke="#6d725c" /></g><g id="2G06" stroke="red"><polyline points="679,494 641,494 641,459 679,459 679,472" stroke="#6d725c" /></g><g id="2G07" stroke="red"><polyline points="595,459 595,425 625,425 625,459" stroke="#6d725c" /></g><g id="2G08" stroke="red"><polyline points="679,459 641,459 641,425 679,425 679,449" stroke="#6d725c" /></g><g id="2G10" stroke="red"><polyline points="615,403 615,372 665,372 665,403" stroke="#6d725c" /></g><g id="2G12" stroke="red"><polyline points="615,372 615,341 665,341 665,372" stroke="#6d725c" /></g><g id="2G14" stroke="red"><polyline points="615,322 615,291 665,291 665,322" stroke="#6d725c" /></g><g id="2G16" stroke="red"><polyline points="615,291 615,260 665,260 665,291" stroke="#6d725c" /></g><g id="2G17" stroke="red"><polyline points="595,210 625,210 625,244 595,244" stroke="#6d725c" /></g><g id="2G18" stroke="red"><polyline points="641,244 641,210 679,210 679,244" stroke="#6d725c" /></g><g id="2G19" stroke="red"><polyline points="595,210 595,172 625,172 625,210" stroke="#6d725c" /></g><g id="2G20" stroke="red"><polyline points="641,210 641,172 679,172 679,210" stroke="#6d725c" /></g><g id="2G21" stroke="red"><polyline points="595,172 595,134 625,134 625,172" stroke="#6d725c" /></g><g id="2G22" stroke="red"><polyline points="641,172 641,134 679,134 679,172" stroke="#6d725c" /></g><g id="2G23" stroke="red"><polyline points="606,115 606,74 645,74 645,115" stroke="#6d725c" /></g><g id="2G24" stroke="red"><polyline points="645,115 645,74 676,74 676,115" stroke="#6d725c" /></g><g id="2H01" stroke="red"><polyline points="679,494 679,472 714,472 679,529" stroke="#6d725c" /></g><g id="2H02" stroke="red"><polyline points="688,548 720,499 720,523 714,523 714,586 720,586 720,598 688,598" stroke="#6d725c" /></g><g id="2H03A" stroke="red"><polyline points="679,449 679,425 714,425 714,449" stroke="#6d725c" /></g><g id="2H03B" stroke="red"><polyline points="679,472 679,459 679,449 714,449 714,472" stroke="#6d725c" /></g><g id="2H05" stroke="red"><polyline points="665,372 714,372 714,403 665,403" stroke="#6d725c" /></g><g id="2H07" stroke="red"><polyline points="665,372 665,341 714,341 714,372" stroke="#6d725c" /></g><g id="2H08" stroke="red"><polyline points="779,370 779,410 734,410 734,370" stroke="#6d725c" /></g><g id="2H09" stroke="red"><polyline points="665,291 714,291 714,322 665,322" stroke="#6d725c" /></g><g id="2H10" stroke="red"><polyline points="734,370 734,331 779,331 779,370" stroke="#6d725c" /></g><g id="2H11" stroke="red"><polyline points="665,291 665,260 714,260 714,291" stroke="#6d725c" /></g><g id="2H12" stroke="red"><polyline points="734,331 734,295 751,295 758,295 758,293 779,293 779,331" stroke="#6d725c" /></g><g id="2H14" stroke="red"><polyline points="758,293 758,290 734,290 734,255 779,255 779,293" stroke="#6d725c" /></g><g id="2H15" stroke="red"><polyline points="679,210 714,210 714,244 679,244" stroke="#6d725c" /></g><g id="2H16" stroke="red"><polyline points="734,255 734,217 779,217 779,255" stroke="#6d725c" /></g><g id="2H17" stroke="red"><polyline points="679,210 679,172 714,172 714,210" stroke="#6d725c" /></g><g id="2H18" stroke="red"><polyline points="734,217 734,177 779,177 779,217" stroke="#6d725c" /></g><g id="2H19" stroke="red"><polyline points="679,172 679,134 714,134 714,172" stroke="#6d725c" /></g><g id="2H20" stroke="red"><polyline points="734,177 734,139 734,139 734,138 734,138 734,137 734,137 735,137 735,137 735,136 736,136 736,136 779,136 779,177" stroke="#6d725c" /></g><g id="2H21" stroke="red"><polyline points="676,74 728,74 728,115 676,115" stroke="#6d725c" /></g><g id="2Y01" stroke="red"><polyline points="91,357 91,415 140,415 140,480 50,480 50,441 44,441 44,357" stroke="#6d725c" /></g></svg>