<?xml version="1.0" encoding="utf-8" ?>
<svg baseProfile="full" height="746" version="1.1" width="800" xmlns="http://www.w3.org/2000/svg" xmlns:ev="http://www.w3.org/2001/xml-events" xmlns:xlink="http://www.w3.org/1999/xlink"><defs /><g id="0A01" stroke="red"><polyline fill="#FFFFFF" points="298,727 298,653 335,653 335,727" stroke="#6d725c" /></g><g id="0A02" stroke="red"><polyline fill="#FFFFFF" points="351,727 351,681 377,681 377,727" stroke="#6d725c" /></g><g id="0A04" stroke="red"><polyline fill="#FFFFFF" points="351,664 351,634 382,634 382,664" stroke="#6d725c" /></g><g id="0A05" stroke="red"><polyline fill="#FFFFFF" points="335,601 335,641 298,641 298,601" stroke="#6d725c" /></g><g id="0A06" stroke="red"><polyline fill="#FFFFFF" points="351,634 351,604 382,604 382,634" stroke="#6d725c" /></g><g id="0A07" stroke="red"><polyline fill="#FFFFFF" points="298,601 298,562 335,562 335,601" stroke="#6d725c" /></g><g id="0A08" stroke="red"><polyline fill="#FFFFFF" points="351,588 351,549 382,549 382,588" stroke="#6d725c" /></g><g id="0A09" stroke="red"><polyline fill="#FFFFFF" points="298,562 298,522 335,522 335,562" stroke="#6d725c" /></g><g id="0A10" stroke="red"><polyline fill="#FFFFFF" points="351,535 351,504 382,504 382,535" stroke="#6d725c" /></g><g id="0A11" stroke="red"><polyline fill="#FFFFFF" points="298,510 298,475 335,475 335,510" stroke="#6d725c" /></g><g id="0A12" stroke="red"><polyline fill="#FFFFFF" points="351,504 351,475 382,475 382,504" stroke="#6d725c" /></g><g id="0A13" stroke="red"><polyline fill="#FFFFFF" points="335,438 335,474 298,474 298,438" stroke="#6d725c" /></g><g id="0A14" stroke="red"><polyline fill="#FFFFFF" points="353,458 353,458 353,458 352,458 352,458 352,458 351,457 351,457 351,457 351,456 351,456 351,429 382,429 382,458" stroke="#6d725c" /></g><g id="0A15" stroke="red"><polyline fill="#FFFFFF" points="298,438 298,407 332,407 333,407 333,407 333,407 334,407 334,407 334,408 334,408 335,408 335,409 335,409 335,438" stroke="#6d725c" /></g><g id="0A16" stroke="red"><polyline fill="#FFFFFF" points="351,429 351,400 351,400 351,400 351,399 351,399 352,399 352,398 352,398 353,398 353,398 353,398 382,398 382,429" stroke="#6d725c" /></g><g id="0A17" stroke="red"><polyline fill="#FFFFFF" points="305,364 335,364 335,393 335,393 335,393 334,394 334,394 334,394 334,394 333,395 333,395 333,395 332,395 298,395 298,364" stroke="#6d725c" /></g><g id="0A18" stroke="red"><polyline fill="#FFFFFF" points="353,384 353,384 353,384 352,384 352,383 352,383 351,383 351,383 351,382 351,382 351,382 351,355 382,355 382,384" stroke="#6d725c" /></g><g id="0A19" stroke="red"><polyline fill="#FFFFFF" points="305,364 298,364 298,331 335,331 335,364" stroke="#6d725c" /></g><g id="0A20" stroke="red"><polyline fill="#FFFFFF" points="351,355 351,326 382,326 382,355" stroke="#6d725c" /></g><g id="0A21" stroke="red"><polyline fill="#FFFFFF" points="298,331 298,309 298,298 307,298 332,298 333,298 333,298 333,298 334,298 334,298 334,298 334,299 335,299 335,299 335,300 335,331" stroke="#6d725c" /></g><g id="0A22" stroke="red"><polyline fill="#FFFFFF" points="351,326 351,300 351,299 351,299 351,299 351,298 352,298 352,298 352,298 353,298 353,298 353,298 382,298 382,326" stroke="#6d725c" /></g><g id="0A24" stroke="red"><polyline fill="#FFFFFF" points="320,262 320,247 357,247 357,279 357,279 357,280 357,280 356,280 356,281 356,281 356,281 355,281 355,281 354,281 320,281" stroke="#6d725c" /></g><g id="0A25" stroke="red"><polyline fill="#FFFFFF" points="298,281 298,262 320,262 320,281" stroke="#6d725c" /></g><g id="0B01" stroke="red"><polyline fill="#FFFFFF" points="377,727 377,681 402,681 402,727" stroke="#6d725c" /></g><g id="0B03" stroke="red"><polyline fill="#FFFFFF" points="402,727 402,681 428,681 428,727" stroke="#6d725c" /></g><g id="0B04" stroke="red"><polyline fill="#FFFFFF" points="428,727 428,681 457,681 457,727" stroke="#6d725c" /></g><g id="0B05" stroke="red"><polyline fill="#FFFFFF" points="382,634 415,634 415,664 382,664" stroke="#6d725c" /></g><g id="0B06" stroke="red"><polyline fill="#FFFFFF" points="432,664 432,634 465,634 465,664" stroke="#6d725c" /></g><g id="0B07" stroke="red"><polyline fill="#FFFFFF" points="382,634 382,604 415,604 415,634" stroke="#6d725c" /></g><g id="0B08" stroke="red"><polyline fill="#FFFFFF" points="432,634 432,604 465,604 465,634" stroke="#6d725c" /></g><g id="0B09" stroke="red"><polyline fill="#FFFFFF" points="382,549 415,549 415,588 382,588" stroke="#6d725c" /></g><g id="0B10" stroke="red"><polyline fill="#FFFFFF" points="432,588 432,549 465,549 465,588" stroke="#6d725c" /></g><g id="0B11" stroke="red"><polyline fill="#FFFFFF" points="382,504 415,504 415,535 382,535" stroke="#6d725c" /></g><g id="0B12" stroke="red"><polyline fill="#FFFFFF" points="432,535 432,502 470,502 470,535" stroke="#6d725c" /></g><g id="0B13" stroke="red"><polyline fill="#FFFFFF" points="382,504 382,475 415,475 415,504" stroke="#6d725c" /></g><g id="0B15" stroke="red"><polyline fill="#FFFFFF" points="382,429 415,429 415,456 415,456 415,457 415,457 415,457 415,458 414,458 414,458 414,458 413,458 413,458 382,458" stroke="#6d725c" /></g><g id="0B16" stroke="red"><polyline fill="#FFFFFF" points="432,431 432,400 432,400 432,400 432,399 432,399 432,399 433,398 433,398 433,398 434,398 434,398 470,398 470,431" stroke="#6d725c" /></g><g id="0B17" stroke="red"><polyline fill="#FFFFFF" points="382,429 382,398 413,398 413,398 414,398 414,398 414,398 415,399 415,399 415,399 415,400 415,400 415,400 415,429" stroke="#6d725c" /></g><g id="0B19" stroke="red"><polyline fill="#FFFFFF" points="382,355 415,355 415,382 415,382 415,382 415,383 415,383 415,383 414,383 414,384 414,384 413,384 413,384 382,384" stroke="#6d725c" /></g><g id="0B20" stroke="red"><polyline fill="#FFFFFF" points="436,384 436,384 435,384 434,383 434,383 433,383 433,382 432,381 432,381 432,380 432,379 432,355 465,355 465,384" stroke="#6d725c" /></g><g id="0B21" stroke="red"><polyline fill="#FFFFFF" points="382,355 382,326 415,326 415,355" stroke="#6d725c" /></g><g id="0B22" stroke="red"><polyline fill="#FFFFFF" points="432,355 432,326 465,326 465,355" stroke="#6d725c" /></g><g id="0B23" stroke="red"><polyline fill="#FFFFFF" points="382,326 382,298 413,298 413,298 414,298 414,298 414,298 415,298 415,298 415,299 415,299 415,299 415,300 415,326" stroke="#6d725c" /></g><g id="0B24" stroke="red"><polyline fill="#FFFFFF" points="455,281 455,247 482,247 482,281" stroke="#6d725c" /></g><g id="0B25" stroke="red"><polyline fill="#FFFFFF" points="375,281 374,281 374,281 374,281 373,281 373,281 373,280 373,280 372,280 372,279 372,279 372,247 400,247 400,281" stroke="#6d725c" /></g><g id="0B26" stroke="red"><polyline fill="#FFFFFF" points="427,281 427,247 455,247 455,281" stroke="#6d725c" /></g><g id="0B27" stroke="red"><polyline fill="#FFFFFF" points="427,281 400,281 400,281 400,247 427,247 427,281" stroke="#6d725c" /></g><g id="0B28" stroke="red"><polyline fill="#FFFFFF" points="432,326 432,302 432,301 432,301 432,300 433,299 433,299 434,298 434,298 435,298 436,298 436,298 465,298 465,326" stroke="#6d725c" /></g><g id="0C01" stroke="red"><polyline fill="#FFFFFF" points="457,727 457,681 485,681 485,727" stroke="#6d725c" /></g><g id="0C02" stroke="red"><polyline fill="#FFFFFF" points="485,727 485,681 497,681 497,700 522,700 522,727" stroke="#6d725c" /></g><g id="0C03" stroke="red"><polyline fill="#FFFFFF" points="465,634 498,634 498,664 465,664" stroke="#6d725c" /></g><g id="0C04" stroke="red"><polyline fill="#FFFFFF" points="543,681 512,681 512,634 543,634 543,664" stroke="#6d725c" /></g><g id="0C05" stroke="red"><polyline fill="#FFFFFF" points="465,634 465,604 498,604 498,634" stroke="#6d725c" /></g><g id="0C06" stroke="red"><polyline fill="#FFFFFF" points="512,634 512,604 543,604 543,634 543,634" stroke="#6d725c" /></g><g id="0C07" stroke="red"><polyline fill="#FFFFFF" points="465,549 498,549 498,588 465,588" stroke="#6d725c" /></g><g id="0C08" stroke="red"><polyline fill="#FFFFFF" points="512,588 512,549 546,549 546,588" stroke="#6d725c" /></g><g id="0C09" stroke="red"><polyline fill="#FFFFFF" points="470,535 470,502 508,502 508,535" stroke="#6d725c" /></g><g id="0C10" stroke="red"><polyline fill="#FFFFFF" points="508,502 546,502 546,535 508,535" stroke="#6d725c" /></g><g id="0C11" stroke="red"><polyline fill="#FFFFFF" points="470,431 470,398 508,398 508,431" stroke="#6d725c" /></g><g id="0C12" stroke="red"><polyline fill="#FFFFFF" points="508,398 546,398 546,431 508,431" stroke="#6d725c" /></g><g id="0C13" stroke="red"><polyline fill="#FFFFFF" points="465,355 498,355 498,379 498,380 498,381 497,381 497,382 497,383 496,383 495,383 495,384 494,384 493,384 465,384" stroke="#6d725c" /></g><g id="0C14" stroke="red"><polyline fill="#FFFFFF" points="546,355 546,384 517,384 516,384 515,384 515,383 514,383 513,383 513,382 512,381 512,381 512,380 512,379 512,355" stroke="#6d725c" /></g><g id="0C15" stroke="red"><polyline fill="#FFFFFF" points="465,355 465,326 498,326 498,355" stroke="#6d725c" /></g><g id="0C16" stroke="red"><polyline fill="#FFFFFF" points="512,355 512,326 546,326 546,355" stroke="#6d725c" /></g><g id="0C17" stroke="red"><polyline fill="#FFFFFF" points="482,247 510,247 510,279 510,279 510,280 509,280 509,280 509,281 509,281 508,281 508,281 508,281 507,281 482,281" stroke="#6d725c" /></g><g id="0C18" stroke="red"><polyline fill="#FFFFFF" points="528,281 527,281 527,281 527,281 526,281 526,281 526,280 526,280 525,280 525,279 525,279 525,247 546,247 546,281" stroke="#6d725c" /></g><g id="0C19" stroke="red"><polyline fill="#FFFFFF" points="465,326 465,298 493,298 494,298 495,298 495,298 496,298 497,299 497,299 497,300 498,301 498,301 498,302 498,326" stroke="#6d725c" /></g><g id="0C20" stroke="red"><polyline fill="#FFFFFF" points="512,326 512,302 512,301 512,301 512,300 513,299 513,299 514,298 515,298 515,298 516,298 517,298 546,298 546,326" stroke="#6d725c" /></g><g id="0D10" stroke="red"><polyline fill="#FFFFFF" points="587,535 587,505 616,505 616,535 587,535" stroke="#6d725c" /></g><g id="0D11" stroke="red"><polyline fill="#FFFFFF" points="549,535 549,502 570,502 570,535" stroke="#6d725c" /></g><g id="0D12" stroke="red"><polyline fill="#FFFFFF" points="587,505 587,475 616,475 616,505" stroke="#6d725c" /></g><g id="0D14" stroke="red"><polyline fill="#FFFFFF" points="589,458 589,458 588,458 588,458 588,458 587,458 587,457 587,457 587,457 587,456 587,456 587,428 616,428 616,458" stroke="#6d725c" /></g><g id="0D15" stroke="red"><polyline fill="#FFFFFF" points="568,431 568,431 568,431 568,431 568,431 568,431 568,431 568,431 568,431 568,431 549,431 549,398 568,398 568,398 569,398 569,398 569,398 570,399 570,399 570,399 570,400 570,400 570,400 570,429 570,429 570,429 570,430 570,430 570,430 569,430 569,431 569,431 568,431 568,431" stroke="#6d725c" /></g><g id="0D16" stroke="red"><polyline fill="#FFFFFF" points="587,428 587,400 587,400 587,400 587,399 587,399 587,399 588,398 588,398 588,398 589,398 589,398 616,398 616,428" stroke="#6d725c" /></g><g id="0D17" stroke="red"><polyline fill="#FFFFFF" points="570,341 570,382 570,382 570,382 570,383 570,383 570,383 569,383 569,384 569,384 568,384 568,384 549,384 549,341" stroke="#6d725c" /></g><g id="0D18" stroke="red"><polyline fill="#FFFFFF" points="591,384 590,384 590,384 589,383 588,383 588,383 587,382 587,381 587,381 587,380 587,379 587,355 616,355 616,384" stroke="#6d725c" /></g><g id="0D19" stroke="red"><polyline fill="#FFFFFF" points="549,341 549,298 568,298 568,298 569,298 569,298 569,298 570,298 570,298 570,299 570,299 570,299 570,300 570,341" stroke="#6d725c" /></g><g id="0D20" stroke="red"><polyline fill="#FFFFFF" points="616,355 587,355 587,326 616,326 616,341" stroke="#6d725c" /></g><g id="0D21" stroke="red"><polyline fill="#FFFFFF" points="585,255 588,255 588,279 588,279 588,279 588,279 588,280 588,280 588,280 588,280 588,280 588,280 588,281 587,281 587,281 587,281 587,281 587,281 587,281 586,281 586,281 586,281 586,281 549,281 549,247 551,247 585,247" stroke="#6d725c" /></g><g id="0D22" stroke="red"><polyline fill="#FFFFFF" points="587,326 587,302 587,301 587,301 587,300 587,299 588,299 588,298 589,298 590,298 590,298 591,298 616,298 616,326" stroke="#6d725c" /></g><g id="0E13" stroke="red"><polyline fill="#FFFFFF" points="616,505 616,475 645,475 645,505" stroke="#6d725c" /></g><g id="0E15" stroke="red"><polyline fill="#FFFFFF" points="645,456 645,457 645,457 644,457 644,458 644,458 644,458 643,458 643,458 643,458 616,458 616,428 645,428 645,456" stroke="#6d725c" /></g><g id="0E17" stroke="red"><polyline fill="#FFFFFF" points="645,428 616,428 616,398 643,398 643,398 643,398 644,398 644,398 644,399 644,399 645,399 645,400 645,400 645,400" stroke="#6d725c" /></g><g id="0E19" stroke="red"><polyline fill="#FFFFFF" points="645,382 645,382 645,383 644,383 644,383 644,383 644,384 643,384 643,384 643,384 616,384 616,355 616,341 645,341 645,382" stroke="#6d725c" /></g><g id="0E21" stroke="red"><polyline fill="#FFFFFF" points="645,341 616,341 616,326 616,298 643,298 643,298 643,298 644,298 644,298 644,298 644,298 645,299 645,299 645,299 645,300" stroke="#6d725c" /></g><g id="0E23" stroke="red"><polyline fill="#FFFFFF" points="645,281 606,281 606,281 605,281 605,281 605,281 604,281 604,280 604,280 604,280 604,279 604,279 604,255 607,255 607,247 644,247 645,247 645,247" stroke="#6d725c" /></g><g id="0Y01A" stroke="red"><polyline fill="#FFFFFF" points="645,564 645,564 645,535 645,505 645,475 645,456 645,428 645,400 645,382 645,341 645,300 645,299 645,281 645,247 776,247 776,564 756,564 756,539 706,539 706,564" stroke="#6d725c" /></g><g id="0Y01B" stroke="red"><polyline fill="#FFFFFF" points="706,564 706,588 756,588 756,564 776,564 776,627 731,627 731,647 717,647 717,701 677,701 677,727 645,727 645,564" stroke="#6d725c" /></g><g id="0Y02" stroke="red"><polyline fill="#FFFFFF" points="645,664 645,727 543,727 543,681 543,664 598,664 598,607 587,607 587,535 616,535 616,505 645,505 645,535 645,564" stroke="#6d725c" /></g><g id="0Y03" stroke="red"><polyline fill="#FFFFFF" points="522,727 522,700 497,700 497,681 512,681 543,681 543,727" stroke="#6d725c" /></g></svg>