<?xml version="1.0" encoding="utf-8" ?>
<svg baseProfile="full" height="570" version="1.1" width="800" xmlns="http://www.w3.org/2000/svg" xmlns:ev="http://www.w3.org/2001/xml-events" xmlns:xlink="http://www.w3.org/1999/xlink"><defs /><g id="HZX19020" stroke="red"><polyline points="113,311 113,242 224,242 224,311" stroke="#6d725c" /></g><g id="HZX19030" stroke="red"><polyline points="113,239 113,118 193,118 193,239" stroke="#6d725c" /></g><g id="HZX19040" stroke="red"><polyline points="195,222 195,118 273,118 273,222" stroke="#6d725c" /></g><g id="HZX19050" stroke="red"><polyline points="275,222 275,118 353,118 353,222" stroke="#6d725c" /></g><g id="HZX19060" stroke="red"><polyline points="433,222 355,222 355,118 433,118" stroke="#6d725c" /></g><g id="HZX19070" stroke="red"><polyline points="435,222 435,118 513,118 513,222" stroke="#6d725c" /></g><g id="HZX19080" stroke="red"><polyline points="516,222 516,118 593,118 593,222" stroke="#6d725c" /></g><g id="HZX19090" stroke="red"><polyline points="596,239 596,118 676,118 676,239" stroke="#6d725c" /></g><g id="HZX19100" stroke="red"><polyline points="565,311 565,242 676,242 676,311" stroke="#6d725c" /></g><g id="HZX19110" stroke="red"><polyline points="665,331 676,331 676,414 665,414 665,435 596,435 596,313 665,313" stroke="#6d725c" /></g><g id="HZX19120" stroke="red"><polyline points="516,435 516,333 593,333 593,435" stroke="#6d725c" /></g><g id="HZX19130" stroke="red"><polyline points="435,435 435,333 513,333 513,435" stroke="#6d725c" /></g><g id="HZX19140" stroke="red"><polyline points="355,435 355,333 433,333 433,435" stroke="#6d725c" /></g><g id="HZX19150" stroke="red"><polyline points="275,435 275,333 353,333 353,435" stroke="#6d725c" /></g></svg>