<?xml version="1.0" encoding="utf-8" ?>
<svg baseProfile="full" height="746" version="1.1" width="800" xmlns="http://www.w3.org/2000/svg" xmlns:ev="http://www.w3.org/2001/xml-events" xmlns:xlink="http://www.w3.org/1999/xlink"><defs /><g id="HZA5T01" stroke="red"><polyline fill="#ebf7d1" points="222,419 222,366 263,366 263,419" stroke="#6d725c" /></g><g id="HZA5W01" stroke="red"><polyline fill="#ebf7d1" points="253,285 253,269 262,269 262,285" stroke="#6d725c" /></g><g id="HZA5W02" stroke="red"><polyline fill="#ebf7d1" points="305,382 305,366 314,366 314,382" stroke="#6d725c" /></g><g id="HZA5W03" stroke="red"><polyline fill="#ebf7d1" points="253,315 253,299 262,299 262,315" stroke="#6d725c" /></g><g id="HZA5W04" stroke="red"><polyline fill="#ebf7d1" points="253,339 253,323 262,323 262,339" stroke="#6d725c" /></g><g id="HZA5W05" stroke="red"><polyline fill="#ebf7d1" points="557,425 557,409 566,409 566,425" stroke="#6d725c" /></g><g id="HZA5W06" stroke="red"><polyline fill="#ebf7d1" points="557,335 557,319 566,319 566,335" stroke="#6d725c" /></g><g id="HZA5W07" stroke="red"><polyline fill="#ebf7d1" points="557,358 557,343 566,343 566,358" stroke="#6d725c" /></g><g id="HZA5W09" stroke="red"><polyline fill="#ebf7d1" points="507,350 507,319 525,319 525,350" stroke="#6d725c" /></g><g id="HZA5X01" stroke="red"><polyline fill="#ebf7d1" points="502,136 545,136 545,180 549,180 549,196 502,196" stroke="#6d725c" /></g><g id="HZA5X02" stroke="red"><polyline fill="#ebf7d1" points="455,196 455,136 502,136 502,196" stroke="#6d725c" /></g><g id="HZA5X03" stroke="red"><polyline fill="#ebf7d1" points="407,196 407,175 404,175 404,136 455,136 455,196" stroke="#6d725c" /></g><g id="HZA5X04" stroke="red"><polyline fill="#ebf7d1" points="401,175 401,196 361,196 361,136 404,136 404,175" stroke="#6d725c" /></g><g id="HZA5X05" stroke="red"><polyline fill="#ebf7d1" points="321,196 321,140 361,140 361,196" stroke="#6d725c" /></g><g id="HZA5X06" stroke="red"><polyline fill="#ebf7d1" points="280,196 280,140 321,140 321,196" stroke="#6d725c" /></g><g id="HZA5X07" stroke="red"><polyline fill="#ebf7d1" points="326,527 326,521 326,521 326,520 321,520 321,481 363,481 363,527" stroke="#6d725c" /></g><g id="HZA5X08" stroke="red"><polyline fill="#ebf7d1" points="404,523 400,523 400,527 363,527 363,481 401,481 400,491 404,491" stroke="#6d725c" /></g><g id="HZA5X09" stroke="red"><polyline fill="#ebf7d1" points="408,527 408,523 404,523 404,491 408,491 408,481 445,481 445,527" stroke="#6d725c" /></g><g id="HZA5X10" stroke="red"><polyline fill="#ebf7d1" points="445,527 445,481 486,481 486,527" stroke="#6d725c" /></g><g id="HZA5X11" stroke="red"><polyline fill="#ebf7d1" points="486,527 486,481 526,481 526,527" stroke="#6d725c" /></g><g id="HZA5X12" stroke="red"><polyline fill="#ebf7d1" points="526,481 567,481 567,527 526,527" stroke="#6d725c" /></g><g id="HZA5X13" stroke="red"><polyline fill="#ebf7d1" points="406,349 406,319 502,319 502,349" stroke="#6d725c" /></g><g id="HZA5Z01" stroke="red"><polyline fill="#ebf7d1" points="52,340 52,340 52,253 88,253 100,253 100,160 264,160 264,253 222,253 222,220 157,220 157,313 157,340 143,340" stroke="#6d725c" /></g><g id="HZA5Z02" stroke="red"><polyline fill="#ebf7d1" points="222,498 222,520 156,520 155,520 131,520 131,595 37,595 37,455 52,455 52,392 52,392 143,392 155,392 155,418 191,418 191,430 156,430 156,486 222,486" stroke="#6d725c" /></g><g id="HZA5Z03" stroke="red"><polyline fill="#ebf7d1" points="326,521 326,595 155,595 155,520 222,520 321,520 321,521" stroke="#6d725c" /></g><g id="HZA5Z04" stroke="red"><polyline fill="#ebf7d1" points="143,392 52,392 52,340 143,340 143,366 155,366 155,392" stroke="#6d725c" /></g><g id="HZA5Z05" stroke="red"><polyline fill="#ebf7d1" points="222,486 222,431 263,431 263,498 222,498" stroke="#6d725c" /></g></svg>