<?xml version="1.0" encoding="utf-8" ?>
<svg baseProfile="full" height="556" version="1.1" width="800" xmlns="http://www.w3.org/2000/svg" xmlns:ev="http://www.w3.org/2001/xml-events" xmlns:xlink="http://www.w3.org/1999/xlink"><defs /><g id="HZX06010" stroke="red"><polyline points="180,288 180,189 245,189 245,288" stroke="#6d725c" /></g><g id="HZX06020" stroke="red"><polyline points="180,188 180,131 271,131 271,188" stroke="#6d725c" /></g><g id="HZX06030" stroke="red"><polyline points="180,129 180,31 245,31 245,129" stroke="#6d725c" /></g><g id="HZX06040" stroke="red"><polyline points="247,115 247,31 278,31 278,115" stroke="#6d725c" /></g><g id="HZX06050" stroke="red"><polyline points="280,115 280,31 311,31 311,115" stroke="#6d725c" /></g><g id="HZX06060" stroke="red"><polyline points="312,115 312,31 343,31 343,115" stroke="#6d725c" /></g><g id="HZX06160" stroke="red"><polyline points="573,288 573,189 638,189 638,288" stroke="#6d725c" /></g><g id="HZX06170" stroke="red"><polyline points="540,288 540,205 571,205 571,288" stroke="#6d725c" /></g><g id="HZX06180" stroke="red"><polyline points="508,288 508,205 538,205 538,288" stroke="#6d725c" /></g><g id="HZX06190" stroke="red"><polyline points="475,288 475,205 506,205 506,288" stroke="#6d725c" /></g><g id="HZX06200" stroke="red"><polyline points="443,288 443,205 473,205 473,288" stroke="#6d725c" /></g><g id="HZX06210" stroke="red"><polyline points="410,288 410,205 441,205 441,288" stroke="#6d725c" /></g><g id="HZX06220" stroke="red"><polyline points="377,288 377,205 408,205 408,288" stroke="#6d725c" /></g><g id="HZX06230" stroke="red"><polyline points="345,288 345,205 376,205 376,288" stroke="#6d725c" /></g><g id="HZX06240" stroke="red"><polyline points="312,288 312,205 343,205 343,288" stroke="#6d725c" /></g><g id="HZX06250" stroke="red"><polyline points="280,288 280,205 311,205 311,288" stroke="#6d725c" /></g><g id="HZX06260" stroke="red"><polyline points="247,288 247,205 279,205 279,288" stroke="#6d725c" /></g></svg>