<?xml version="1.0" encoding="utf-8" ?>
<svg baseProfile="full" height="556" version="1.1" width="800" xmlns="http://www.w3.org/2000/svg" xmlns:ev="http://www.w3.org/2001/xml-events" xmlns:xlink="http://www.w3.org/1999/xlink"><defs /><g id="HZX11010" stroke="red"><polyline points="113,435 113,313 193,313 193,435" stroke="#6d725c" /></g><g id="HZX11020" stroke="red"><polyline points="113,311 113,242 224,242 224,311" stroke="#6d725c" /></g><g id="HZX11030" stroke="red"><polyline points="113,239 113,118 193,118 193,239" stroke="#6d725c" /></g><g id="HZX11040" stroke="red"><polyline points="195,222 195,118 233,118 233,222" stroke="#6d725c" /></g><g id="HZX11050" stroke="red"><polyline points="235,222 235,118 273,118 273,222" stroke="#6d725c" /></g><g id="HZX11060" stroke="red"><polyline points="275,222 275,118 313,118 313,222" stroke="#6d725c" /></g><g id="HZX11070" stroke="red"><polyline points="315,222 315,118 353,118 353,222" stroke="#6d725c" /></g><g id="HZX11080" stroke="red"><polyline points="355,222 355,118 393,118 393,222" stroke="#6d725c" /></g><g id="HZX11090" stroke="red"><polyline points="395,222 395,118 433,118 433,222" stroke="#6d725c" /></g><g id="HZX11100" stroke="red"><polyline points="435,222 435,118 473,118 473,222" stroke="#6d725c" /></g><g id="HZX11110" stroke="red"><polyline points="475,222 475,118 513,118 513,222" stroke="#6d725c" /></g><g id="HZX11120" stroke="red"><polyline points="516,222 516,118 553,118 553,222" stroke="#6d725c" /></g><g id="HZX11130" stroke="red"><polyline points="555,222 555,118 593,118 593,222" stroke="#6d725c" /></g><g id="HZX11140" stroke="red"><polyline points="596,239 596,118 676,118 676,239" stroke="#6d725c" /></g><g id="HZX11150" stroke="red"><polyline points="565,311 565,242 676,242 676,311" stroke="#6d725c" /></g><g id="HZX11160" stroke="red"><polyline points="665,331 676,331 676,414 665,414 665,435 596,435 596,313 665,313" stroke="#6d725c" /></g><g id="HZX11170" stroke="red"><polyline points="555,435 555,333 593,333 593,435" stroke="#6d725c" /></g><g id="HZX11180" stroke="red"><polyline points="516,435 516,333 553,333 553,435" stroke="#6d725c" /></g><g id="HZX11190" stroke="red"><polyline points="475,435 475,333 513,333 513,435" stroke="#6d725c" /></g><g id="HZX11200" stroke="red"><polyline points="435,435 435,333 473,333 473,435" stroke="#6d725c" /></g><g id="HZX11210" stroke="red"><polyline points="395,435 395,333 433,333 433,435" stroke="#6d725c" /></g><g id="HZX11220" stroke="red"><polyline points="355,435 355,333 393,333 393,435" stroke="#6d725c" /></g><g id="HZX11230" stroke="red"><polyline points="315,435 315,333 353,333 353,435" stroke="#6d725c" /></g><g id="HZX11240" stroke="red"><polyline points="275,435 275,333 313,333 313,435" stroke="#6d725c" /></g><g id="HZX11250" stroke="red"><polyline points="236,435 236,333 273,333 273,435" stroke="#6d725c" /></g><g id="HZX11260" stroke="red"><polyline points="195,435 195,333 234,333 234,435" stroke="#6d725c" /></g></svg>