<?xml version="1.0" encoding="utf-8" ?>
<svg baseProfile="full" height="587" version="1.1" width="800" xmlns="http://www.w3.org/2000/svg" xmlns:ev="http://www.w3.org/2001/xml-events" xmlns:xlink="http://www.w3.org/1999/xlink"><defs /><g id="4A01" stroke="red"><polyline fill="#FFFFFF" points="216,598 216,548 248,548 248,598" stroke="#6d725c" /></g><g id="4A02" stroke="red"><polyline fill="#FFFFFF" points="208,529 208,477 227,477 242,477 242,529" stroke="#6d725c" /></g><g id="4A03" stroke="red"><polyline fill="#FFFFFF" points="183,598 183,548 216,548 216,598" stroke="#6d725c" /></g><g id="4A04" stroke="red"><polyline fill="#FFFFFF" points="174,529 174,477 208,477 208,529" stroke="#6d725c" /></g><g id="4A05" stroke="red"><polyline fill="#FFFFFF" points="151,598 151,548 183,548 183,598" stroke="#6d725c" /></g><g id="4A06" stroke="red"><polyline fill="#FFFFFF" points="140,529 140,477 155,477 174,477 174,529" stroke="#6d725c" /></g><g id="4A07" stroke="red"><polyline fill="#FFFFFF" points="116,598 116,548 151,548 151,598" stroke="#6d725c" /></g><g id="4A08" stroke="red"><polyline fill="#FFFFFF" points="113,529 112,529 112,528 111,528 111,528 111,528 110,527 110,527 110,527 110,526 110,526 110,477 140,477 140,529" stroke="#6d725c" /></g><g id="4A09" stroke="red"><polyline fill="#FFFFFF" points="116,598 81,598 81,494 88,494 88,494 89,494 89,494 90,494 90,495 90,495 90,495 91,496 91,496 91,497 91,548 116,548" stroke="#6d725c" /></g><g id="4A10" stroke="red"><polyline fill="#FFFFFF" points="140,477 110,477 110,446 155,446 155,477" stroke="#6d725c" /></g><g id="4A11" stroke="red"><polyline fill="#FFFFFF" points="91,475 91,475 91,476 90,476 90,476 90,477 90,477 89,477 89,477 88,477 88,478 59,478 59,494 48,494 24,494 24,444 40,444 40,452 91,452" stroke="#6d725c" /></g><g id="4A12" stroke="red"><polyline fill="#FFFFFF" points="110,446 110,418 110,418 110,417 110,417 110,416 111,416 111,416 111,416 112,415 112,415 113,415 155,415 155,446" stroke="#6d725c" /></g><g id="4A13" stroke="red"><polyline fill="#FFFFFF" points="40,452 40,444 40,422 91,422 91,452" stroke="#6d725c" /></g><g id="4A14" stroke="red"><polyline fill="#FFFFFF" points="155,370 155,403 113,403 112,403 112,402 111,402 111,402 111,402 110,401 110,401 110,401 110,400 110,400 110,370" stroke="#6d725c" /></g><g id="4A15" stroke="red"><polyline fill="#FFFFFF" points="40,422 40,393 91,393 91,422" stroke="#6d725c" /></g><g id="4A16" stroke="red"><polyline fill="#FFFFFF" points="155,370 110,370 110,344 110,343 110,343 110,342 110,342 111,342 111,341 111,341 112,341 112,341 113,341 155,341 155,346" stroke="#6d725c" /></g><g id="4A17" stroke="red"><polyline fill="#FFFFFF" points="40,393 40,364 91,364 91,393" stroke="#6d725c" /></g><g id="4A18" stroke="red"><polyline fill="#FFFFFF" points="155,341 222,341 222,346 155,346" stroke="#6d725c" /></g><g id="4A19" stroke="red"><polyline fill="#FFFFFF" points="40,364 40,335 91,335 91,364" stroke="#6d725c" /></g><g id="4A20" stroke="red"><polyline fill="#FFFFFF" points="155,317 222,317 222,322 155,322" stroke="#6d725c" /></g><g id="4A21" stroke="red"><polyline fill="#FFFFFF" points="40,335 40,306 91,306 91,335" stroke="#6d725c" /></g><g id="4A22" stroke="red"><polyline fill="#FFFFFF" points="155,322 113,322 112,322 112,322 111,322 111,321 111,321 110,321 110,320 110,320 110,320 110,319 110,293 155,293 155,317" stroke="#6d725c" /></g><g id="4A23" stroke="red"><polyline fill="#FFFFFF" points="40,306 40,277 91,277 91,306" stroke="#6d725c" /></g><g id="4A24" stroke="red"><polyline fill="#FFFFFF" points="110,293 110,263 110,263 110,263 110,262 110,262 111,261 111,261 111,261 112,261 112,261 113,261 155,261 155,293" stroke="#6d725c" /></g><g id="4A25" stroke="red"><polyline fill="#FFFFFF" points="40,277 40,248 91,248 91,277" stroke="#6d725c" /></g><g id="4A26" stroke="red"><polyline fill="#FFFFFF" points="113,247 112,247 112,247 111,247 111,246 111,246 110,246 110,246 110,245 110,245 110,244 110,219 130,219 130,218 155,218 155,247" stroke="#6d725c" /></g><g id="4A27" stroke="red"><polyline fill="#FFFFFF" points="40,248 40,219 91,219 91,248" stroke="#6d725c" /></g><g id="4A28" stroke="red"><polyline fill="#FFFFFF" points="140,186 155,186 155,216 140,216 140,215 110,215 110,186" stroke="#6d725c" /></g><g id="4A29" stroke="red"><polyline fill="#FFFFFF" points="91,178 91,215 52,215 52,178" stroke="#6d725c" /></g><g id="4A30" stroke="red"><polyline fill="#FFFFFF" points="140,186 110,186 110,137 110,136 110,136 110,136 110,135 111,135 111,135 111,134 112,134 112,134 113,134 140,134 140,134" stroke="#6d725c" /></g><g id="4A31" stroke="red"><polyline fill="#FFFFFF" points="52,178 52,160 66,160 66,134 88,134 88,134 89,134 89,134 90,135 90,135 90,135 90,136 91,136 91,136 91,137 91,178" stroke="#6d725c" /></g><g id="4A32" stroke="red"><polyline fill="#FFFFFF" points="155,186 140,186 140,134 174,134 174,186" stroke="#6d725c" /></g><g id="4A34" stroke="red"><polyline fill="#FFFFFF" points="174,186 174,134 208,134 208,186" stroke="#6d725c" /></g><g id="4A36" stroke="red"><polyline fill="#FFFFFF" points="227,186 208,186 208,134 242,134 242,186" stroke="#6d725c" /></g><g id="4A38" stroke="red"><polyline fill="#FFFFFF" points="243,115 206,115 206,74 243,74 243,83" stroke="#6d725c" /></g><g id="4A40" stroke="red"><polyline fill="#FFFFFF" points="161,115 161,115 160,115 160,115 160,114 159,114 159,114 159,114 159,113 158,113 158,112 158,106 173,106 173,74 206,74 206,115" stroke="#6d725c" /></g><g id="4B01" stroke="red"><polyline fill="#FFFFFF" points="278,598 278,548 307,548 307,598" stroke="#6d725c" /></g><g id="4B02" stroke="red"><polyline fill="#FFFFFF" points="307,598 307,548 336,548 336,598" stroke="#6d725c" /></g><g id="4B03" stroke="red"><polyline fill="#FFFFFF" points="248,598 248,548 278,548 278,598" stroke="#6d725c" /></g><g id="4B04" stroke="red"><polyline fill="#FFFFFF" points="291,529 291,529 290,528 290,528 290,528 289,528 289,527 289,527 289,527 289,526 289,526 289,505 332,505 332,529" stroke="#6d725c" /></g><g id="4B05" stroke="red"><polyline fill="#FFFFFF" points="242,477 272,477 272,526 272,526 272,527 272,527 272,527 271,528 271,528 271,528 270,528 270,529 269,529 242,529" stroke="#6d725c" /></g><g id="4B06" stroke="red"><polyline fill="#FFFFFF" points="289,505 289,478 332,478 332,505" stroke="#6d725c" /></g><g id="4B07" stroke="red"><polyline fill="#FFFFFF" points="242,477 227,477 227,446 272,446 272,477" stroke="#6d725c" /></g><g id="4B08" stroke="red"><polyline fill="#FFFFFF" points="289,478 289,450 332,450 332,478" stroke="#6d725c" /></g><g id="4B09" stroke="red"><polyline fill="#FFFFFF" points="227,446 227,418 269,418 270,418 270,418 271,418 271,418 271,419 272,419 272,419 272,420 272,420 272,420 272,446" stroke="#6d725c" /></g><g id="4B10" stroke="red"><polyline fill="#FFFFFF" points="289,450 289,427 289,427 289,426 289,426 289,426 289,425 290,425 290,425 290,425 291,425 291,425 332,425 332,450" stroke="#6d725c" /></g><g id="4B12" stroke="red"><polyline fill="#FFFFFF" points="318,408 318,372 347,372 347,408" stroke="#6d725c" /></g><g id="4B13" stroke="red"><polyline fill="#FFFFFF" points="242,372 272,372 272,400 272,400 272,401 272,401 272,401 271,402 271,402 271,402 270,402 270,403 269,403 240,403 240,390 227,390 227,371 242,371" stroke="#6d725c" /></g><g id="4B14" stroke="red"><polyline fill="#FFFFFF" points="291,408 291,408 290,408 290,408 290,408 289,407 289,407 289,407 289,406 289,406 289,405 289,372 318,372 318,408" stroke="#6d725c" /></g><g id="4B15" stroke="red"><polyline fill="#FFFFFF" points="227,367 227,341 269,341 270,341 270,341 271,341 271,341 271,342 272,342 272,342 272,343 272,343 272,344 272,367" stroke="#6d725c" /></g><g id="4B16" stroke="red"><polyline fill="#FFFFFF" points="289,367 289,344 289,343 289,343 289,342 289,342 289,342 290,341 290,341 290,341 291,341 291,341 332,341 332,367" stroke="#6d725c" /></g><g id="4B18" stroke="red"><polyline fill="#FFFFFF" points="318,322 318,289 347,289 347,322" stroke="#6d725c" /></g><g id="4B19" stroke="red"><polyline fill="#FFFFFF" points="272,294 272,319 272,320 272,320 272,320 272,321 271,321 271,321 271,322 270,322 270,322 269,322 227,322 227,294" stroke="#6d725c" /></g><g id="4B20" stroke="red"><polyline fill="#FFFFFF" points="291,322 291,322 290,322 290,322 290,321 289,321 289,321 289,320 289,320 289,320 289,319 289,289 318,289 318,322" stroke="#6d725c" /></g><g id="4B22" stroke="red"><polyline fill="#FFFFFF" points="318,289 318,254 347,254 347,289" stroke="#6d725c" /></g><g id="4B23" stroke="red"><polyline fill="#FFFFFF" points="227,294 227,272 232,272 232,264 269,264 270,264 270,264 271,264 271,264 271,265 272,265 272,265 272,266 272,266 272,267 272,294" stroke="#6d725c" /></g><g id="4B24" stroke="red"><polyline fill="#FFFFFF" points="289,289 289,257 289,256 289,256 289,255 289,255 289,255 290,254 290,254 290,254 291,254 291,254 318,254 318,289" stroke="#6d725c" /></g><g id="4B25" stroke="red"><polyline fill="#FFFFFF" points="272,217 272,248 272,248 272,248 272,249 272,249 271,249 271,250 271,250 270,250 270,250 269,250 232,250 232,243 227,243 227,217" stroke="#6d725c" /></g><g id="4B26" stroke="red"><polyline fill="#FFFFFF" points="291,237 291,237 290,237 290,237 290,237 289,237 289,236 289,236 289,236 289,235 289,235 289,212 332,212 332,237" stroke="#6d725c" /></g><g id="4B27" stroke="red"><polyline fill="#FFFFFF" points="227,217 227,186 242,186 272,186 272,217" stroke="#6d725c" /></g><g id="4B28" stroke="red"><polyline fill="#FFFFFF" points="289,212 289,185 332,185 332,212" stroke="#6d725c" /></g><g id="4B29" stroke="red"><polyline fill="#FFFFFF" points="242,186 242,134 242,134 269,134 270,134 270,134 271,134 271,135 271,135 272,135 272,136 272,136 272,136 272,137 272,186" stroke="#6d725c" /></g><g id="4B30" stroke="red"><polyline fill="#FFFFFF" points="289,185 289,158 332,158 332,185" stroke="#6d725c" /></g><g id="4B31" stroke="red"><polyline fill="#FFFFFF" points="278,74 313,74 313,112 313,113 312,113 312,114 312,114 312,114 311,114 311,115 311,115 310,115 310,115 278,115" stroke="#6d725c" /></g><g id="4B32" stroke="red"><polyline fill="#FFFFFF" points="289,158 289,137 289,136 289,136 289,136 289,135 289,135 290,135 290,134 290,134 291,134 291,134 332,134 332,158" stroke="#6d725c" /></g><g id="4B33" stroke="red"><polyline fill="#FFFFFF" points="243,115 243,83 270,83 270,74 278,74 278,115" stroke="#6d725c" /></g><g id="4C01" stroke="red"><polyline fill="#FFFFFF" points="336,598 336,548 368,548 368,598" stroke="#6d725c" /></g><g id="4C02" stroke="red"><polyline fill="#FFFFFF" points="368,598 368,548 399,548 399,598" stroke="#6d725c" /></g><g id="4C03" stroke="red"><polyline fill="#FFFFFF" points="332,505 376,505 376,526 376,526 376,527 375,527 375,528 375,528 374,528 374,528 374,529 373,529 373,529 332,529" stroke="#6d725c" /></g><g id="4C04" stroke="red"><polyline fill="#FFFFFF" points="399,598 399,548 431,548 431,598" stroke="#6d725c" /></g><g id="4C05" stroke="red"><polyline fill="#FFFFFF" points="332,505 332,478 376,478 376,505" stroke="#6d725c" /></g><g id="4C06" stroke="red"><polyline fill="#FFFFFF" points="397,529 397,529 397,528 396,528 396,528 396,528 395,527 395,527 395,527 395,526 395,526 395,494 427,494 427,529" stroke="#6d725c" /></g><g id="4C07" stroke="red"><polyline fill="#FFFFFF" points="332,478 332,450 376,450 376,478" stroke="#6d725c" /></g><g id="4C08" stroke="red"><polyline fill="#FFFFFF" points="395,494 395,459 427,459 427,494" stroke="#6d725c" /></g><g id="4C09" stroke="red"><polyline fill="#FFFFFF" points="376,450 332,450 332,425 373,425 373,425 374,425 374,425 375,425 375,425 375,426 375,426 376,426 376,427 376,427 376,450 376,450" stroke="#6d725c" /></g><g id="4C10" stroke="red"><polyline fill="#FFFFFF" points="395,459 395,427 395,427 395,426 395,426 395,426 396,425 396,425 396,425 397,425 397,425 397,425 427,425 427,459" stroke="#6d725c" /></g><g id="4C11" stroke="red"><polyline fill="#FFFFFF" points="347,372 376,372 376,405 376,406 376,406 375,407 375,407 375,407 375,408 374,408 374,408 373,408 373,408 347,408" stroke="#6d725c" /></g><g id="4C12" stroke="red"><polyline fill="#FFFFFF" points="397,408 397,408 397,408 396,408 396,408 396,407 395,407 395,407 395,406 395,406 395,405 395,372 431,372 431,408" stroke="#6d725c" /></g><g id="4C13" stroke="red"><polyline fill="#FFFFFF" points="332,341 373,341 373,341 374,341 374,341 374,341 375,342 375,342 375,343 376,343 376,343 376,344 376,367 332,367" stroke="#6d725c" /></g><g id="4C15" stroke="red"><polyline fill="#FFFFFF" points="347,289 376,289 376,319 376,319 376,320 375,320 375,321 375,321 375,321 374,321 374,322 374,322 373,322 347,322" stroke="#6d725c" /></g><g id="4C16" stroke="red"><polyline fill="#FFFFFF" points="397,290 397,290 397,290 396,290 396,290 396,289 395,289 395,289 395,288 395,288 395,287 395,257 395,256 395,256 395,255 395,255 396,255 396,254 396,254 397,254 397,254 397,254 425,254 425,290" stroke="#6d725c" /></g><g id="4C17" stroke="red"><polyline fill="#FFFFFF" points="347,289 347,254 373,254 373,254 374,254 374,254 375,254 375,255 375,255 375,255 376,256 376,256 376,257 376,289" stroke="#6d725c" /></g><g id="4C18" stroke="red"><polyline fill="#FFFFFF" points="397,237 397,237 397,237 396,237 396,237 396,237 395,236 395,236 395,236 395,235 395,235 395,203 425,203 425,237" stroke="#6d725c" /></g><g id="4C19" stroke="red"><polyline fill="#FFFFFF" points="332,212 376,212 376,235 376,235 375,236 375,236 375,236 375,237 374,237 374,237 374,237 373,237 373,237 332,237" stroke="#6d725c" /></g><g id="4C20" stroke="red"><polyline fill="#FFFFFF" points="395,203 395,169 425,169 425,203" stroke="#6d725c" /></g><g id="4C21" stroke="red"><polyline fill="#FFFFFF" points="332,212 332,185 376,185 376,212" stroke="#6d725c" /></g><g id="4C22" stroke="red"><polyline fill="#FFFFFF" points="395,169 395,137 395,136 395,136 395,136 395,135 396,135 396,135 396,134 397,134 397,134 397,134 425,134 425,169" stroke="#6d725c" /></g><g id="4C23" stroke="red"><polyline fill="#FFFFFF" points="332,185 332,158 376,158 376,185" stroke="#6d725c" /></g><g id="4C24" stroke="red"><polyline fill="#FFFFFF" points="394,74 425,74 425,115 394,115" stroke="#6d725c" /></g><g id="4C25" stroke="red"><polyline fill="#FFFFFF" points="332,158 332,134 373,134 373,134 374,134 374,134 375,135 375,135 375,135 375,136 376,136 376,136 376,137 376,158" stroke="#6d725c" /></g><g id="4C26" stroke="red"><polyline fill="#FFFFFF" points="363,115 363,74 394,74 394,115" stroke="#6d725c" /></g><g id="4C27" stroke="red"><polyline fill="#FFFFFF" points="335,115 334,115 334,115 334,115 333,114 333,114 333,114 332,114 332,113 332,113 332,112 332,74 363,74 363,115" stroke="#6d725c" /></g><g id="4D01" stroke="red"><polyline fill="#FFFFFF" points="431,598 431,548 466,548 466,598" stroke="#6d725c" /></g><g id="4D02" stroke="red"><polyline fill="#FFFFFF" points="466,598 466,548 501,548 501,598" stroke="#6d725c" /></g><g id="4D03" stroke="red"><polyline fill="#FFFFFF" points="427,494 459,494 459,526 459,526 459,527 459,527 459,527 459,528 458,528 458,528 458,528 457,529 457,529 427,529" stroke="#6d725c" /></g><g id="4D04" stroke="red"><polyline fill="#FFFFFF" points="508,494 508,529 479,529 478,529 478,528 477,528 477,528 477,528 476,527 476,527 476,527 476,526 476,526 476,494" stroke="#6d725c" /></g><g id="4D05" stroke="red"><polyline fill="#FFFFFF" points="427,494 427,459 459,459 459,494" stroke="#6d725c" /></g><g id="4D06" stroke="red"><polyline fill="#FFFFFF" points="476,494 476,459 508,459 508,494" stroke="#6d725c" /></g><g id="4D07" stroke="red"><polyline fill="#FFFFFF" points="427,459 427,425 457,425 457,425 458,425 458,425 458,425 459,425 459,426 459,426 459,426 459,427 459,427 459,459" stroke="#6d725c" /></g><g id="4D08" stroke="red"><polyline fill="#FFFFFF" points="476,459 476,427 476,427 476,426 476,426 476,426 477,425 477,425 477,425 478,425 478,425 479,425 508,425 508,459" stroke="#6d725c" /></g><g id="4D09" stroke="red"><polyline fill="#FFFFFF" points="431,408 431,372 468,372 468,408" stroke="#6d725c" /></g><g id="4D10A" stroke="red"><polyline fill="#FFFFFF" points="468,408 468,372 486,372 486,408" stroke="#6d725c" /></g><g id="4D10B" stroke="red"><polyline fill="#FFFFFF" points="486,408 486,372 504,372 504,408" stroke="#6d725c" /></g><g id="4D15" stroke="red"><polyline fill="#FFFFFF" points="430,290 430,254 467,254 467,290" stroke="#6d725c" /></g><g id="4D16" stroke="red"><polyline fill="#FFFFFF" points="467,290 467,254 504,254 504,290" stroke="#6d725c" /></g><g id="4D17" stroke="red"><polyline fill="#FFFFFF" points="425,203 459,203 459,235 459,235 459,236 459,236 459,236 459,237 458,237 458,237 458,237 457,237 457,237 425,237" stroke="#6d725c" /></g><g id="4D18" stroke="red"><polyline fill="#FFFFFF" points="479,237 478,237 478,237 477,237 477,237 477,237 476,236 476,236 476,236 476,235 476,235 476,203 508,203 508,237" stroke="#6d725c" /></g><g id="4D19" stroke="red"><polyline fill="#FFFFFF" points="425,203 425,169 459,169 459,203" stroke="#6d725c" /></g><g id="4D20" stroke="red"><polyline fill="#FFFFFF" points="476,203 476,169 508,169 508,203" stroke="#6d725c" /></g><g id="4D21" stroke="red"><polyline fill="#FFFFFF" points="425,169 425,134 457,134 457,134 458,134 458,134 458,135 459,135 459,135 459,136 459,136 459,136 459,137 459,169" stroke="#6d725c" /></g><g id="4D22" stroke="red"><polyline fill="#FFFFFF" points="476,169 476,137 476,136 476,136 476,136 476,135 477,135 477,135 477,134 478,134 478,134 479,134 508,134 508,169" stroke="#6d725c" /></g><g id="4D23" stroke="red"><polyline fill="#FFFFFF" points="430,115 430,74 466,74 466,115" stroke="#6d725c" /></g><g id="4D24" stroke="red"><polyline fill="#FFFFFF" points="466,115 466,74 503,74 503,115" stroke="#6d725c" /></g><g id="4E01" stroke="red"><polyline fill="#FFFFFF" points="536,598 501,598 501,548 536,548 536,598" stroke="#6d725c" /></g><g id="4E06" stroke="red"><polyline fill="#FFFFFF" points="578,510 578,529 533,529 529,529 529,496 545,479 578,510" stroke="#6d725c" /></g><g id="4E07" stroke="red"><polyline fill="#FFFFFF" points="508,459 541,459 541,460 508,494" stroke="#6d725c" /></g><g id="4E08" stroke="red"><polyline fill="#FFFFFF" points="578,510 545,479 580,443 599,488" stroke="#6d725c" /></g><g id="4E09" stroke="red"><polyline fill="#FFFFFF" points="508,459 508,425 538,425 538,425 539,425 539,425 539,425 540,425 540,426 540,426 540,426 540,427 541,427 541,459" stroke="#6d725c" /></g><g id="4E10" stroke="red"><polyline fill="#FFFFFF" points="562,408 562,408 561,408 561,408 561,408 560,407 560,407 560,407 560,406 560,406 560,405 560,374 592,374 592,408" stroke="#6d725c" /></g><g id="4E11" stroke="red"><polyline fill="#FFFFFF" points="504,372 541,372 541,405 540,406 540,406 540,407 540,407 540,407 539,408 539,408 539,408 538,408 538,408 504,408" stroke="#6d725c" /></g><g id="4E12" stroke="red"><polyline fill="#FFFFFF" points="560,374 560,344 560,343 560,343 560,342 560,342 560,342 561,341 561,341 561,341 562,341 562,341 592,341 592,374" stroke="#6d725c" /></g><g id="4E14" stroke="red"><polyline fill="#FFFFFF" points="562,322 562,322 561,322 561,322 561,321 560,321 560,321 560,320 560,320 560,320 560,319 560,295 592,295 592,322" stroke="#6d725c" /></g><g id="4E15" stroke="red"><polyline fill="#FFFFFF" points="504,254 538,254 538,254 539,254 539,254 539,254 540,255 540,255 540,255 540,256 540,256 541,257 541,290 504,290" stroke="#6d725c" /></g><g id="4E16" stroke="red"><polyline fill="#FFFFFF" points="560,290 560,257 560,256 560,256 560,255 560,255 560,255 561,254 561,254 561,254 562,254 562,254 592,254 592,290" stroke="#6d725c" /></g><g id="4E17" stroke="red"><polyline fill="#FFFFFF" points="508,203 541,203 541,235 540,235 540,236 540,236 540,236 540,237 539,237 539,237 539,237 538,237 538,237 508,237" stroke="#6d725c" /></g><g id="4E18" stroke="red"><polyline fill="#FFFFFF" points="562,237 562,237 561,237 561,237 561,237 560,237 560,236 560,236 560,236 560,235 560,235 560,203 592,203 592,237" stroke="#6d725c" /></g><g id="4E19" stroke="red"><polyline fill="#FFFFFF" points="508,203 508,169 541,169 541,203" stroke="#6d725c" /></g><g id="4E20" stroke="red"><polyline fill="#FFFFFF" points="560,203 560,169 592,169 592,203" stroke="#6d725c" /></g><g id="4E21" stroke="red"><polyline fill="#FFFFFF" points="508,169 508,134 541,134 541,169" stroke="#6d725c" /></g><g id="4E22" stroke="red"><polyline fill="#FFFFFF" points="560,169 560,137 560,136 560,136 560,136 560,135 560,135 561,135 561,134 561,134 562,134 562,134 592,134 592,169" stroke="#6d725c" /></g><g id="4E23" stroke="red"><polyline fill="#FFFFFF" points="503,115 503,74 540,74 540,115" stroke="#6d725c" /></g><g id="4E24" stroke="red"><polyline fill="#FFFFFF" points="540,74 569,74 569,97 584,97 584,112 584,113 584,113 583,114 583,114 583,114 583,114 582,115 582,115 581,115 581,115 540,115" stroke="#6d725c" /></g><g id="4F06" stroke="red"><polyline fill="#FFFFFF" points="646,443 682,443 682,488 646,488" stroke="#6d725c" /></g><g id="4F07" stroke="red"><polyline fill="#FFFFFF" points="646,488 599,488 580,443 646,443 646,443" stroke="#6d725c" /></g><g id="4F08" stroke="red"><polyline fill="#FFFFFF" points="647,417 646,417 645,417 644,416 644,416 643,415 642,415 642,414 642,413 641,412 641,411 641,370 685,370 685,417" stroke="#6d725c" /></g><g id="4F09" stroke="red"><polyline fill="#FFFFFF" points="592,374 625,374 625,405 625,406 625,406 625,407 625,407 624,407 624,408 624,408 623,408 623,408 622,408 592,408" stroke="#6d725c" /></g><g id="4F10" stroke="red"><polyline fill="#FFFFFF" points="641,370 641,331 685,331 685,370" stroke="#6d725c" /></g><g id="4F11" stroke="red"><polyline fill="#FFFFFF" points="592,374 592,341 622,341 623,341 623,341 624,341 624,341 624,342 625,342 625,342 625,343 625,343 625,344 625,374" stroke="#6d725c" /></g><g id="4F12" stroke="red"><polyline fill="#FFFFFF" points="641,331 641,293 685,293 685,331" stroke="#6d725c" /></g><g id="4F13" stroke="red"><polyline fill="#FFFFFF" points="592,295 625,295 625,319 625,320 625,320 625,320 625,321 624,321 624,321 624,322 623,322 623,322 622,322 592,322" stroke="#6d725c" /></g><g id="4F14" stroke="red"><polyline fill="#FFFFFF" points="641,293 641,255 685,255 685,293" stroke="#6d725c" /></g><g id="4F15" stroke="red"><polyline fill="#FFFFFF" points="592,254 622,254 623,254 623,254 624,254 624,254 624,255 625,255 625,255 625,256 625,256 625,257 625,290 592,290" stroke="#6d725c" /></g><g id="4F16" stroke="red"><polyline fill="#FFFFFF" points="641,255 641,217 685,217 685,255" stroke="#6d725c" /></g><g id="4F17" stroke="red"><polyline fill="#FFFFFF" points="592,203 625,203 625,235 625,235 625,236 625,236 625,236 624,237 624,237 624,237 623,237 623,237 622,237 592,237" stroke="#6d725c" /></g><g id="4F18" stroke="red"><polyline fill="#FFFFFF" points="641,217 641,175 685,175 685,217" stroke="#6d725c" /></g><g id="4F19" stroke="red"><polyline fill="#FFFFFF" points="592,203 592,169 625,169 625,203" stroke="#6d725c" /></g><g id="4F20" stroke="red"><polyline fill="#FFFFFF" points="641,175 641,134 685,134 685,175" stroke="#6d725c" /></g><g id="4F21" stroke="red"><polyline fill="#FFFFFF" points="592,169 592,134 622,134 623,134 623,134 624,134 624,135 624,135 625,135 625,136 625,136 625,136 625,137 625,169" stroke="#6d725c" /></g><g id="4F22" stroke="red"><polyline fill="#FFFFFF" points="635,115 635,74 685,74 685,115 641,115" stroke="#6d725c" /></g><g id="4F23" stroke="red"><polyline fill="#FFFFFF" points="605,115 605,115 604,115 604,115 604,114 603,114 603,114 603,114 603,113 603,113 603,112 603,83 606,83 606,74 635,74 635,115" stroke="#6d725c" /></g><g id="4Y01" stroke="red"><polyline fill="#FFFFFF" points="685,370 685,331 685,293 685,255 685,217 685,175 685,134 641,134 641,115 685,115 685,74 758,74 758,72 756,72 756,65 779,65 779,410 756,410 756,417 685,417" stroke="#6d725c" /></g><g id="4Y02" stroke="red"><polyline fill="#FFFFFF" points="536,548 536,548 533,548 533,529 578,529 578,529 578,510 599,488 646,488 682,488 682,443 682,443 717,443 720,443 720,523 714,523 714,586 720,586 720,598 536,598" stroke="#6d725c" /></g></svg>