<?xml version="1.0" encoding="utf-8" ?>
<svg baseProfile="full" height="556" version="1.1" width="800" xmlns="http://www.w3.org/2000/svg" xmlns:ev="http://www.w3.org/2001/xml-events" xmlns:xlink="http://www.w3.org/1999/xlink"><defs /><g id="HZX08010" stroke="red"><polyline points="113,435 113,313 193,313 193,435" stroke="#6d725c" /></g><g id="HZX08020" stroke="red"><polyline points="113,311 113,242 224,242 224,311" stroke="#6d725c" /></g><g id="HZX08030" stroke="red"><polyline points="113,239 113,118 193,118 193,239" stroke="#6d725c" /></g><g id="HZX08040" stroke="red"><polyline points="195,222 195,118 233,118 233,222" stroke="#6d725c" /></g><g id="HZX08050" stroke="red"><polyline points="235,222 235,118 273,118 273,222" stroke="#6d725c" /></g><g id="HZX08120" stroke="red"><polyline points="516,222 516,118 553,118 553,222" stroke="#6d725c" /></g><g id="HZX08130" stroke="red"><polyline points="555,222 555,118 593,118 593,222" stroke="#6d725c" /></g><g id="HZX08140" stroke="red"><polyline points="596,239 596,118 676,118 676,239" stroke="#6d725c" /></g><g id="HZX08150" stroke="red"><polyline points="565,311 565,242 676,242 676,311" stroke="#6d725c" /></g><g id="HZX08160" stroke="red"><polyline points="665,331 676,331 676,414 665,414 665,435 596,435 596,313 665,313" stroke="#6d725c" /></g><g id="HZX08170" stroke="red"><polyline points="555,435 555,333 593,333 593,435" stroke="#6d725c" /></g><g id="HZX08180" stroke="red"><polyline points="516,435 516,333 553,333 553,435" stroke="#6d725c" /></g><g id="HZX08190" stroke="red"><polyline points="475,435 475,333 513,333 513,435" stroke="#6d725c" /></g><g id="HZX08200" stroke="red"><polyline points="435,435 435,333 473,333 473,435" stroke="#6d725c" /></g><g id="HZX08210" stroke="red"><polyline points="395,435 395,333 433,333 433,435" stroke="#6d725c" /></g><g id="HZX08220" stroke="red"><polyline points="355,435 355,333 393,333 393,435" stroke="#6d725c" /></g><g id="HZX08230" stroke="red"><polyline points="315,435 315,333 353,333 353,435" stroke="#6d725c" /></g><g id="HZX08240" stroke="red"><polyline points="275,435 275,333 313,333 313,435" stroke="#6d725c" /></g><g id="HZX08250" stroke="red"><polyline points="236,435 236,333 273,333 273,435" stroke="#6d725c" /></g><g id="HZX08260" stroke="red"><polyline points="195,435 195,333 234,333 234,435" stroke="#6d725c" /></g></svg>