<?xml version="1.0" encoding="utf-8" ?>
<svg baseProfile="full" height="492" version="1.1" width="800" xmlns="http://www.w3.org/2000/svg" xmlns:ev="http://www.w3.org/2001/xml-events" xmlns:xlink="http://www.w3.org/1999/xlink"><defs /><g id="3A01" stroke="red"><polyline points="88,457 88,406 124,406 124,457" stroke="#6d725c" /></g><g id="3A01A" stroke="red"><polyline points="104,473 63,473 63,463 72,463 72,457 88,457 124,457 124,473" stroke="#6d725c" /></g><g id="3A02" stroke="red"><polyline points="124,473 124,457 124,406 184,406 184,473" stroke="#6d725c" /></g><g id="3A03" stroke="red"><polyline points="72,457 67,457 67,406 88,406 88,457" stroke="#6d725c" /></g><g id="3A05" stroke="red"><polyline points="104,355 104,396 67,396 67,355" stroke="#6d725c" /></g><g id="3A06" stroke="red"><polyline points="145,355 145,387 145,387 145,387 145,388 145,388 144,388 144,389 144,389 144,389 143,389 143,389 122,389 122,389 122,389 121,389 121,389 121,388 120,388 120,388 120,387 120,387 120,387 120,355" stroke="#6d725c" /></g><g id="3A07" stroke="red"><polyline points="67,355 67,321 104,321 104,355" stroke="#6d725c" /></g><g id="3A08" stroke="red"><polyline points="120,355 120,321 145,321 145,355" stroke="#6d725c" /></g><g id="3A09" stroke="red"><polyline points="67,321 67,289 104,289 104,321" stroke="#6d725c" /></g><g id="3A10" stroke="red"><polyline points="120,321 120,287 141,287 142,287 142,287 143,288 143,288 144,288 144,289 145,289 145,290 145,291 145,291 145,321" stroke="#6d725c" /></g><g id="3A11" stroke="red"><polyline points="104,232 104,264 67,264 67,232" stroke="#6d725c" /></g><g id="3A12A" stroke="red"><polyline points="167,251 167,270 167,270 167,271 167,272 166,272 166,273 165,273 165,274 164,274 164,274 163,274 125,274 125,274 124,274 123,274 123,273 122,273 122,272 122,272 121,271 121,270 121,270 121,251" stroke="#6d725c" /></g><g id="3A12B" stroke="red"><polyline points="121,251 121,229 163,229 164,229 164,229 165,229 165,229 166,230 166,230 167,231 167,232 167,232 167,233 167,251" stroke="#6d725c" /></g><g id="3A13" stroke="red"><polyline points="104,232 67,232 64,232 64,207 65,207 65,207 104,207" stroke="#6d725c" /></g><g id="3A14" stroke="red"><polyline points="167,192 167,212 167,212 167,213 167,214 166,214 166,215 165,215 165,215 164,216 164,216 163,216 125,216 125,216 124,216 123,215 123,215 122,215 122,214 122,214 121,213 121,212 121,212 121,192" stroke="#6d725c" /></g><g id="3A15" stroke="red"><polyline points="65,207 65,174 104,174 104,207" stroke="#6d725c" /></g><g id="3A16" stroke="red"><polyline points="121,192 121,169 163,169 164,169 164,169 165,170 165,170 166,170 166,171 167,171 167,172 167,173 167,173 167,192" stroke="#6d725c" /></g><g id="3A17" stroke="red"><polyline points="65,174 64,174 64,143 104,143 104,174" stroke="#6d725c" /></g><g id="3A18" stroke="red"><polyline points="145,120 145,152 145,153 145,153 145,154 144,155 144,155 143,156 143,156 142,156 142,156 141,156 125,156 125,156 124,156 123,156 123,156 122,155 122,155 122,154 121,153 121,153 121,152 121,120" stroke="#6d725c" /></g><g id="3A19" stroke="red"><polyline points="64,143 64,113 104,113 104,143" stroke="#6d725c" /></g><g id="3A20" stroke="red"><polyline points="121,120 121,88 121,88 121,87 122,86 122,86 122,85 123,85 123,85 124,84 125,84 125,84 141,84 142,84 142,84 143,85 143,85 144,85 144,86 145,86 145,87 145,88 145,88 145,120" stroke="#6d725c" /></g><g id="3A21" stroke="red"><polyline points="104,113 64,113 64,83 64,83 104,83" stroke="#6d725c" /></g><g id="3A22A" stroke="red"><polyline points="118,69 118,53 150,53 150,69" stroke="#6d725c" /></g><g id="3A22B" stroke="red"><polyline points="182,69 182,69 150,69 150,53 150,53 182,53 182,53" stroke="#6d725c" /></g><g id="3A23" stroke="red"><polyline points="118,69 104,69 104,83 86,83 64,83 64,53 118,53" stroke="#6d725c" /></g><g id="3B02" stroke="red"><polyline points="184,473 184,406 213,406 213,473" stroke="#6d725c" /></g><g id="3B05" stroke="red"><polyline points="160,389 160,389 159,389 159,389 159,389 159,388 158,388 158,388 158,387 158,387 158,387 158,355 184,355 184,389" stroke="#6d725c" /></g><g id="3B06" stroke="red"><polyline points="184,355 211,355 211,387 211,387 211,387 210,388 210,388 210,388 210,389 209,389 209,389 209,389 208,389 184,389" stroke="#6d725c" /></g><g id="3B07" stroke="red"><polyline points="158,355 158,321 184,321 184,355" stroke="#6d725c" /></g><g id="3B08" stroke="red"><polyline points="184,355 184,321 211,321 211,355" stroke="#6d725c" /></g><g id="3B09" stroke="red"><polyline points="158,321 158,291 158,291 158,290 158,289 159,289 159,288 160,288 160,288 161,287 161,287 162,287 184,287 184,321" stroke="#6d725c" /></g><g id="3B10" stroke="red"><polyline points="184,321 184,287 206,287 207,287 208,287 208,288 209,288 209,288 210,289 210,289 210,290 211,291 211,291 211,321" stroke="#6d725c" /></g><g id="3B12" stroke="red"><polyline points="185,120 212,120 212,152 212,153 212,153 211,154 211,155 211,155 210,156 209,156 209,156 208,156 207,156 185,156" stroke="#6d725c" /></g><g id="3B14" stroke="red"><polyline points="185,120 185,84 207,84 208,84 209,84 209,85 210,85 211,85 211,86 211,86 212,87 212,88 212,88 212,120" stroke="#6d725c" /></g><g id="3B17" stroke="red"><polyline points="162,156 161,156 161,156 160,156 160,156 159,155 159,155 158,154 158,153 158,153 158,152 158,120 185,120 185,156" stroke="#6d725c" /></g><g id="3B19" stroke="red"><polyline points="158,120 158,88 158,88 158,87 158,86 159,86 159,85 160,85 160,85 161,84 161,84 162,84 185,84 185,120" stroke="#6d725c" /></g><g id="3B22A" stroke="red"><polyline points="211,69 182,69 182,53 211,53 211,53" stroke="#6d725c" /></g><g id="3B22B" stroke="red"><polyline points="211,53 221,53 221,56 246,56 246,69 211,69" stroke="#6d725c" /></g><g id="3C01" stroke="red"><polyline points="243,473 243,406 303,406 303,473" stroke="#6d725c" /></g><g id="3C03" stroke="red"><polyline points="213,473 213,406 243,406 243,473" stroke="#6d725c" /></g><g id="3C05" stroke="red"><polyline points="241,389 241,389 241,389 240,389 240,389 240,388 239,388 239,388 239,387 239,387 239,387 239,355 273,355 273,389" stroke="#6d725c" /></g><g id="3C07" stroke="red"><polyline points="239,355 239,321 273,321 273,355" stroke="#6d725c" /></g><g id="3C08" stroke="red"><polyline points="273,355 307,355 307,387 307,387 307,387 307,388 307,388 306,388 306,389 306,389 305,389 305,389 305,389 273,389" stroke="#6d725c" /></g><g id="3C09" stroke="red"><polyline points="239,321 239,287 273,287 273,321" stroke="#6d725c" /></g><g id="3C10" stroke="red"><polyline points="273,355 273,321 307,321 307,355" stroke="#6d725c" /></g><g id="3C12" stroke="red"><polyline points="273,321 273,287 307,287 307,321" stroke="#6d725c" /></g><g id="3C14" stroke="red"><polyline points="306,253 306,273 306,274 306,274 305,275 305,275 305,276 304,276 304,277 303,277 302,277 302,277 264,277 263,277 263,277 262,277 262,276 261,276 261,275 260,275 260,274 260,274 260,273 260,253" stroke="#6d725c" /></g><g id="3C16" stroke="red"><polyline points="260,253 260,233 260,232 260,232 260,231 261,230 261,230 262,229 262,229 263,229 263,229 264,229 306,229 306,253" stroke="#6d725c" /></g><g id="3C18" stroke="red"><polyline points="306,192 306,212 306,212 306,213 305,214 305,214 305,215 304,215 304,215 303,216 302,216 302,216 264,216 263,216 263,216 262,215 262,215 261,215 261,214 260,214 260,213 260,212 260,212 260,192" stroke="#6d725c" /></g><g id="3C19" stroke="red"><polyline points="244,156 244,156 243,156 242,156 242,156 241,155 241,155 241,154 240,153 240,153 240,152 240,110 273,110 273,156" stroke="#6d725c" /></g><g id="3C20" stroke="red"><polyline points="260,192 260,173 260,173 260,172 260,171 261,171 261,170 262,170 262,170 263,169 263,169 264,169 306,169 306,192" stroke="#6d725c" /></g><g id="3C21" stroke="red"><polyline points="240,110 240,88 240,88 240,87 241,86 241,86 241,85 242,85 242,85 243,84 244,84 244,84 273,84 273,110" stroke="#6d725c" /></g><g id="3C22A" stroke="red"><polyline points="273,110 306,110 306,152 306,153 306,153 305,154 305,155 305,155 304,156 304,156 303,156 302,156 302,156 273,156" stroke="#6d725c" /></g><g id="3C22B" stroke="red"><polyline points="273,110 273,84 302,84 302,84 303,84 304,85 304,85 305,85 305,86 305,86 306,87 306,88 306,88 306,110" stroke="#6d725c" /></g><g id="3C24" stroke="red"><polyline points="260,69 260,56 260,55 260,53 307,53 307,69" stroke="#6d725c" /></g><g id="3D01" stroke="red"><polyline points="303,473 303,406 331,406 331,473" stroke="#6d725c" /></g><g id="3D02" stroke="red"><polyline points="362,473 362,456 360,456 360,406 422,406 422,473" stroke="#6d725c" /></g><g id="3D03" stroke="red"><polyline points="331,473 331,406 360,406 360,456 362,456 362,473" stroke="#6d725c" /></g><g id="3D05" stroke="red"><polyline points="348,355 348,387 348,387 348,387 348,388 348,388 347,388 347,389 347,389 347,389 346,389 346,389 322,389 322,389 321,389 321,389 321,389 320,388 320,388 320,388 320,387 320,387 320,387 320,355" stroke="#6d725c" /></g><g id="3D06" stroke="red"><polyline points="373,389 372,389 372,389 372,389 371,389 371,388 371,388 371,388 370,387 370,387 370,387 370,365 380,365 380,354 396,354 396,389" stroke="#6d725c" /></g><g id="3D07" stroke="red"><polyline points="320,355 320,335 348,335 348,355" stroke="#6d725c" /></g><g id="3D08" stroke="red"><polyline points="362,277 362,253 393,253 393,277" stroke="#6d725c" /></g><g id="3D09" stroke="red"><polyline points="320,335 320,291 320,291 320,290 320,289 321,289 321,288 321,288 322,288 323,287 323,287 324,287 362,287 362,321 362,335 348,335" stroke="#6d725c" /></g><g id="3D10" stroke="red"><polyline points="362,253 362,229 393,229 393,253" stroke="#6d725c" /></g><g id="3D11" stroke="red"><polyline points="347,253 347,273 347,274 347,274 347,275 346,275 346,276 345,276 345,277 344,277 343,277 343,277 323,277 322,277 322,277 321,277 320,276 320,276 319,275 319,275 319,274 319,274 319,273 319,253" stroke="#6d725c" /></g><g id="3D12" stroke="red"><polyline points="362,216 362,192 393,192 393,216" stroke="#6d725c" /></g><g id="3D13" stroke="red"><polyline points="319,253 319,233 319,232 319,232 319,231 319,230 320,230 320,229 321,229 322,229 322,229 323,229 343,229 343,229 344,229 345,229 345,229 346,230 346,230 347,231 347,232 347,232 347,233 347,253" stroke="#6d725c" /></g><g id="3D14" stroke="red"><polyline points="362,192 362,169 393,169 393,192" stroke="#6d725c" /></g><g id="3D15" stroke="red"><polyline points="347,192 347,212 347,212 347,213 347,214 346,214 346,215 345,215 345,215 344,216 343,216 343,216 323,216 322,216 322,216 321,215 320,215 320,215 319,214 319,214 319,213 319,212 319,212 319,192" stroke="#6d725c" /></g><g id="3D16" stroke="red"><polyline points="362,156 362,120 393,120 393,156" stroke="#6d725c" /></g><g id="3D17" stroke="red"><polyline points="319,192 319,173 319,173 319,172 319,171 319,171 320,170 320,170 321,170 322,169 322,169 323,169 343,169 343,169 344,169 345,170 345,170 346,170 346,171 347,171 347,172 347,173 347,173 347,192" stroke="#6d725c" /></g><g id="3D18" stroke="red"><polyline points="362,120 362,84 393,84 393,120" stroke="#6d725c" /></g><g id="3D19" stroke="red"><polyline points="347,120 347,152 347,153 347,153 347,154 346,155 346,155 345,156 345,156 344,156 343,156 343,156 323,156 322,156 322,156 321,156 320,156 320,155 319,155 319,154 319,153 319,153 319,152 319,120" stroke="#6d725c" /></g><g id="3D21" stroke="red"><polyline points="319,120 319,88 319,88 319,87 319,86 319,86 320,85 320,85 321,85 322,84 322,84 323,84 343,84 343,84 344,84 345,85 345,85 346,85 346,86 347,86 347,87 347,88 347,88 347,120" stroke="#6d725c" /></g><g id="3D22" stroke="red"><polyline points="363,69 363,25 363,24 392,24 392,69" stroke="#6d725c" /></g><g id="3D24" stroke="red"><polyline points="392,69 392,25 425,25 425,69" stroke="#6d725c" /></g><g id="3E02" stroke="red"><polyline points="422,473 422,406 481,406 481,473" stroke="#6d725c" /></g><g id="3E07" stroke="red"><polyline points="396,354 426,354 426,354 426,387 426,387 426,387 426,388 426,388 425,388 425,389 425,389 424,389 424,389 424,389 396,389" stroke="#6d725c" /></g><g id="3E08" stroke="red"><polyline points="464,355 464,387 464,387 464,387 464,388 464,388 464,388 463,389 463,389 463,389 462,389 462,389 441,389 441,389 440,389 440,389 440,389 440,388 439,388 439,388 439,387 439,387 439,387 439,355" stroke="#6d725c" /></g><g id="3E09" stroke="red"><polyline points="396,354 396,326 426,326 426,354" stroke="#6d725c" /></g><g id="3E10" stroke="red"><polyline points="439,355 439,355 439,321 464,321 464,355" stroke="#6d725c" /></g><g id="3E11" stroke="red"><polyline points="396,326 396,288 397,288 426,288 426,326" stroke="#6d725c" /></g><g id="3E12" stroke="red"><polyline points="439,321 439,291 439,291 439,290 439,289 440,289 440,288 441,288 441,288 442,287 442,287 443,287 460,287 461,287 461,287 462,288 462,288 463,288 463,289 464,289 464,290 464,291 464,291 464,321" stroke="#6d725c" /></g><g id="3E13" stroke="red"><polyline points="393,253 425,253 425,273 425,274 425,274 424,275 424,275 424,276 423,276 423,277 422,277 421,277 421,277 393,277" stroke="#6d725c" /></g><g id="3E14" stroke="red"><polyline points="465,253 465,273 465,274 465,274 465,275 464,275 464,276 464,276 463,277 462,277 462,277 461,277 442,277 441,277 441,277 440,277 439,276 439,276 438,275 438,275 438,274 438,274 438,273 438,253" stroke="#6d725c" /></g><g id="3E15" stroke="red"><polyline points="393,253 393,229 425,229 425,253" stroke="#6d725c" /></g><g id="3E16" stroke="red"><polyline points="438,253 438,233 438,232 438,232 438,231 438,230 439,230 439,229 440,229 441,229 441,229 442,229 461,229 462,229 462,229 463,229 464,229 464,230 464,230 465,231 465,232 465,232 465,233 465,253" stroke="#6d725c" /></g><g id="3E17" stroke="red"><polyline points="393,192 425,192 425,212 425,212 425,213 424,214 424,214 424,215 423,215 423,215 422,216 421,216 421,216 393,216" stroke="#6d725c" /></g><g id="3E18" stroke="red"><polyline points="465,192 465,212 465,212 465,213 465,214 464,214 464,215 464,215 463,215 462,216 462,216 461,216 442,216 441,216 441,216 440,215 439,215 439,215 438,214 438,214 438,213 438,212 438,212 438,192" stroke="#6d725c" /></g><g id="3E19" stroke="red"><polyline points="393,192 393,169 425,169 425,192" stroke="#6d725c" /></g><g id="3E20" stroke="red"><polyline points="438,192 438,173 438,173 438,172 438,171 438,171 439,170 439,170 440,170 441,169 441,169 442,169 461,169 462,169 462,169 463,170 464,170 464,170 464,171 465,171 465,172 465,173 465,173 465,192" stroke="#6d725c" /></g><g id="3E21A" stroke="red"><polyline points="393,120 425,120 425,152 425,153 425,153 424,154 424,155 424,155 423,156 423,156 422,156 421,156 421,156 393,156" stroke="#6d725c" /></g><g id="3E21B" stroke="red"><polyline points="393,120 393,84 421,84 421,84 422,84 423,85 423,85 424,85 424,86 424,86 425,87 425,88 425,88 425,120" stroke="#6d725c" /></g><g id="3E22A" stroke="red"><polyline points="465,120 465,152 465,153 465,153 465,154 464,155 464,155 464,156 463,156 462,156 462,156 461,156 442,156 441,156 441,156 440,156 439,156 439,155 438,155 438,154 438,153 438,153 438,152 438,120" stroke="#6d725c" /></g><g id="3E22B" stroke="red"><polyline points="438,120 438,88 438,88 438,87 438,86 438,86 439,85 439,85 440,85 441,84 441,84 442,84 461,84 462,84 462,84 463,85 464,85 464,85 464,86 465,86 465,87 465,88 465,88 465,120" stroke="#6d725c" /></g><g id="3E23" stroke="red"><polyline points="425,69 425,25 452,25 452,69" stroke="#6d725c" /></g><g id="3E24" stroke="red"><polyline points="480,53 480,54 480,69 452,69 452,25 480,25 480,53" stroke="#6d725c" /></g><g id="3F01" stroke="red"><polyline points="481,473 481,406 541,406 541,473" stroke="#6d725c" /></g><g id="3F05" stroke="red"><polyline points="479,389 479,389 479,389 478,389 478,389 478,388 477,388 477,388 477,387 477,387 477,387 477,355 511,355 511,389" stroke="#6d725c" /></g><g id="3F06" stroke="red"><polyline points="511,355 545,355 545,387 545,387 545,387 545,388 545,388 545,388 544,389 544,389 544,389 543,389 543,389 511,389" stroke="#6d725c" /></g><g id="3F07" stroke="red"><polyline points="477,355 477,321 477,321 511,321 511,355" stroke="#6d725c" /></g><g id="3F08" stroke="red"><polyline points="511,355 511,321 545,321 545,355" stroke="#6d725c" /></g><g id="3F09" stroke="red"><polyline points="477,321 477,287 511,287 511,321" stroke="#6d725c" /></g><g id="3F10" stroke="red"><polyline points="511,321 511,287 545,287 545,321 545,321" stroke="#6d725c" /></g><g id="3F11" stroke="red"><polyline points="524,253 524,273 524,274 524,274 524,275 523,275 523,276 522,276 522,277 521,277 520,277 520,277 482,277 482,277 481,277 480,277 480,276 479,276 479,275 478,275 478,274 478,274 478,273 478,253" stroke="#6d725c" /></g><g id="3F13" stroke="red"><polyline points="478,253 478,229 520,229 520,229 521,229 522,229 522,229 523,230 523,230 524,231 524,232 524,232 524,233 524,253" stroke="#6d725c" /></g><g id="3F15" stroke="red"><polyline points="524,192 524,212 524,212 524,213 524,214 523,214 523,215 522,215 522,215 521,216 520,216 520,216 482,216 482,216 481,216 480,215 480,215 479,215 479,214 478,214 478,213 478,212 478,212 478,192" stroke="#6d725c" /></g><g id="3F17" stroke="red"><polyline points="478,192 478,169 520,169 520,169 521,169 522,170 522,170 523,170 523,171 524,171 524,172 524,173 524,173 524,192" stroke="#6d725c" /></g><g id="3F18" stroke="red"><polyline points="511,120 544,120 544,152 544,153 544,153 543,154 543,155 543,155 542,156 542,156 541,156 540,156 540,156 511,156" stroke="#6d725c" /></g><g id="3F19A" stroke="red"><polyline points="482,156 482,156 481,156 480,156 480,156 479,155 479,155 478,154 478,153 478,153 478,152 478,120 511,120 511,156" stroke="#6d725c" /></g><g id="3F19B" stroke="red"><polyline points="478,120 478,88 478,88 478,87 478,86 479,86 479,85 480,85 480,85 481,84 482,84 482,84 511,84 511,120" stroke="#6d725c" /></g><g id="3F20" stroke="red"><polyline points="511,120 511,84 540,84 540,84 541,84 542,85 542,85 543,85 543,86 543,86 544,87 544,88 544,88 544,120" stroke="#6d725c" /></g><g id="3F21" stroke="red"><polyline points="480,53 522,53 522,69 480,69 480,69" stroke="#6d725c" /></g><g id="3F22" stroke="red"><polyline points="589,69 541,69 540,69 539,69 539,69 538,68 538,68 537,68 537,67 537,66 537,66 536,65 536,56 538,56 538,53 589,53" stroke="#6d725c" /></g><g id="3G02" stroke="red"><polyline points="541,473 541,406 600,406 600,473" stroke="#6d725c" /></g><g id="3G06" stroke="red"><polyline points="576,389 576,389 575,389 575,389 575,389 574,388 574,388 574,388 574,387 574,387 574,387 574,355 604,355 604,389" stroke="#6d725c" /></g><g id="3G08" stroke="red"><polyline points="574,355 574,321 604,321 604,355" stroke="#6d725c" /></g><g id="3G10" stroke="red"><polyline points="574,321 574,291 574,291 574,290 574,289 574,289 575,288 575,288 576,288 577,287 577,287 578,287 604,287 604,321" stroke="#6d725c" /></g><g id="3G12" stroke="red"><polyline points="576,156 576,156 575,156 575,156 574,156 573,155 573,155 573,154 572,153 572,153 572,152 572,120 603,120 603,156" stroke="#6d725c" /></g><g id="3G14" stroke="red"><polyline points="572,120 572,88 572,88 572,87 573,86 573,86 573,85 574,85 575,85 575,84 576,84 576,84 603,84 603,120" stroke="#6d725c" /></g><g id="3G16" stroke="red"><polyline points="589,53 638,53 638,65 638,66 638,66 638,67 638,68 637,68 637,68 636,69 635,69 635,69 634,69 589,69" stroke="#6d725c" /></g><g id="3H01" stroke="red"><polyline points="639,473 639,406 675,406 675,473" stroke="#6d725c" /></g><g id="3H02" stroke="red"><polyline points="675,406 703,406 703,473 675,473" stroke="#6d725c" /></g><g id="3H03" stroke="red"><polyline points="600,473 600,406 639,406 639,473" stroke="#6d725c" /></g><g id="3H05" stroke="red"><polyline points="604,355 638,355 638,387 638,387 638,387 638,388 638,388 637,388 637,389 637,389 636,389 636,389 636,389 604,389" stroke="#6d725c" /></g><g id="3H06" stroke="red"><polyline points="703,357 703,391 655,391 655,357" stroke="#6d725c" /></g><g id="3H07" stroke="red"><polyline points="604,355 604,321 638,321 638,355" stroke="#6d725c" /></g><g id="3H08" stroke="red"><polyline points="655,357 655,322 703,322 703,357" stroke="#6d725c" /></g><g id="3H09" stroke="red"><polyline points="604,321 604,287 634,287 634,287 635,287 636,288 636,288 637,288 637,289 638,289 638,290 638,291 638,291 638,321" stroke="#6d725c" /></g><g id="3H10" stroke="red"><polyline points="655,322 655,288 703,288 703,322" stroke="#6d725c" /></g><g id="3H11A" stroke="red"><polyline points="639,248 639,270 639,271 639,271 639,272 638,273 638,273 637,274 637,274 636,274 636,274 635,274 602,274 602,248" stroke="#6d725c" /></g><g id="3H11B" stroke="red"><polyline points="602,248 602,222 639,222 639,248" stroke="#6d725c" /></g><g id="3H12" stroke="red"><polyline points="703,222 703,277 656,277 656,222" stroke="#6d725c" /></g><g id="3H13A" stroke="red"><polyline points="602,222 602,195 639,195 639,222" stroke="#6d725c" /></g><g id="3H13B" stroke="red"><polyline points="602,195 602,169 635,169 636,169 636,169 637,170 637,170 638,170 638,171 639,171 639,172 639,173 639,173 639,195" stroke="#6d725c" /></g><g id="3H14A" stroke="red"><polyline points="656,222 656,197 703,197 703,222" stroke="#6d725c" /></g><g id="3H14B" stroke="red"><polyline points="656,197 656,169 717,169 717,197 703,197" stroke="#6d725c" /></g><g id="3H15" stroke="red"><polyline points="603,120 639,120 639,152 639,153 639,153 639,154 638,155 638,155 637,156 637,156 636,156 636,156 635,156 603,156" stroke="#6d725c" /></g><g id="3H16" stroke="red"><polyline points="717,115 717,156 656,156 656,115" stroke="#6d725c" /></g><g id="3H17" stroke="red"><polyline points="603,120 603,84 635,84 636,84 636,84 637,85 637,85 638,85 638,86 639,86 639,87 639,88 639,88 639,120" stroke="#6d725c" /></g><g id="3H18" stroke="red"><polyline points="656,115 656,70 717,70 717,115" stroke="#6d725c" /></g></svg>