<?xml version="1.0" encoding="utf-8" ?>
<svg baseProfile="full" height="549" version="1.1" width="800" xmlns="http://www.w3.org/2000/svg" xmlns:ev="http://www.w3.org/2001/xml-events" xmlns:xlink="http://www.w3.org/1999/xlink"><defs /><g id="0A01" stroke="red"><polyline points="158,458 158,500 68,500 68,458" stroke="#6d725c" /></g><g id="0A02" stroke="red"><polyline points="247,500 184,500 184,408 247,408 247,408" stroke="#6d725c" /></g><g id="0A03" stroke="red"><polyline points="68,458 68,416 158,416 158,458" stroke="#6d725c" /></g><g id="0A04" stroke="red"><polyline points="225,336 225,384 225,384 225,384 225,385 225,385 225,385 224,386 224,386 224,386 223,386 223,386 182,386 182,386 181,386 181,386 181,386 181,385 180,385 180,385 180,384 180,384 180,384 180,336" stroke="#6d725c" /></g><g id="0A05" stroke="red"><polyline points="68,416 68,375 158,375 158,416" stroke="#6d725c" /></g><g id="0A06" stroke="red"><polyline points="180,336 180,286 223,286 223,286 224,286 224,286 224,286 225,287 225,287 225,287 225,288 225,288 225,288 225,336" stroke="#6d725c" /></g><g id="0A07" stroke="red"><polyline points="158,364 68,364 68,287 104,287 104,326 158,326" stroke="#6d725c" /></g><g id="0A09" stroke="red"><polyline points="104,326 104,287 158,287 158,326" stroke="#6d725c" /></g><g id="0B01" stroke="red"><polyline points="308,500 247,500 247,500 247,408 308,408 308,500" stroke="#6d725c" /></g><g id="0B02" stroke="red"><polyline points="369,500 308,500 308,408 308,408 369,408 369,408" stroke="#6d725c" /></g><g id="0B03" stroke="red"><polyline points="245,386 245,386 244,386 244,386 244,386 244,385 243,385 243,385 243,384 243,384 243,384 243,288 243,288 243,288 243,287 243,287 244,287 244,286 244,286 244,286 245,286 245,286 312,286 312,384 312,384 312,384 312,385 312,385 312,385 311,386 311,386 311,386 310,386 310,386" stroke="#6d725c" /></g><g id="0B04" stroke="red"><polyline points="354,335 354,386 332,386 332,386 331,386 331,386 331,386 330,385 330,385 330,385 330,384 330,384 330,384 330,335" stroke="#6d725c" /></g><g id="0B06" stroke="red"><polyline points="330,335 330,288 330,288 330,288 330,287 330,287 330,287 331,286 331,286 331,286 332,286 332,286 368,286 368,335 354,335" stroke="#6d725c" /></g><g id="0B08" stroke="red"><polyline points="332,269 332,269 331,269 331,268 331,268 330,268 330,268 330,267 330,267 330,267 330,266 330,228 330,228 330,227 330,227 330,227 330,227 331,226 331,226 331,226 332,226 332,226 367,226 367,233 365,233 365,269" stroke="#6d725c" /></g><g id="0C01" stroke="red"><polyline points="429,500 369,500 369,500 369,408 429,408 429,500 429,500" stroke="#6d725c" /></g><g id="0C02" stroke="red"><polyline points="492,408 492,454 492,500 429,500 429,408 429,408 492,408 492,408" stroke="#6d725c" /></g><g id="0C03" stroke="red"><polyline points="365,386 365,366 403,366 403,384 403,384 403,384 403,385 403,385 403,385 402,386 402,386 402,386 401,386 401,386" stroke="#6d725c" /></g><g id="0C04A" stroke="red"><polyline points="423,386 423,386 422,386 422,386 422,386 421,385 421,385 421,385 421,384 421,384 421,384 421,336 472,336 472,386" stroke="#6d725c" /></g><g id="0C06" stroke="red"><polyline points="421,336 421,286 472,286 472,336" stroke="#6d725c" /></g><g id="0C07" stroke="red"><polyline points="403,266 403,267 403,267 403,267 403,268 403,268 402,268 402,268 402,269 401,269 401,269 373,269 373,233 370,233 370,226 401,226 401,226 402,226 402,226 402,226 403,227 403,227 403,227 403,227 403,228 403,228" stroke="#6d725c" /></g><g id="0C08" stroke="red"><polyline points="423,269 423,269 422,269 422,268 422,268 421,268 421,268 421,267 421,267 421,267 421,266 421,233 472,233 472,269" stroke="#6d725c" /></g><g id="0C10" stroke="red"><polyline points="421,233 421,199 472,199 472,233" stroke="#6d725c" /></g><g id="0C12" stroke="red"><polyline points="421,199 421,168 421,168 421,167 421,167 421,167 421,166 422,166 422,166 422,166 423,166 423,166 472,166 472,199" stroke="#6d725c" /></g><g id="0D01" stroke="red"><polyline points="492,408 555,408 555,500 492,500 492,454" stroke="#6d725c" /></g><g id="0D03" stroke="red"><polyline points="472,336 523,336 523,384 523,384 523,384 523,385 523,385 523,385 522,386 522,386 522,386 521,386 521,386 472,386" stroke="#6d725c" /></g><g id="0D05" stroke="red"><polyline points="472,336 472,286 521,286 521,286 522,286 522,286 522,286 523,287 523,287 523,287 523,288 523,288 523,288 523,336" stroke="#6d725c" /></g><g id="0D07" stroke="red"><polyline points="472,233 523,233 523,266 523,267 523,267 523,267 523,268 523,268 522,268 522,268 522,269 521,269 521,269 472,269" stroke="#6d725c" /></g><g id="0D09" stroke="red"><polyline points="472,233 472,199 523,199 523,233" stroke="#6d725c" /></g><g id="0D11" stroke="red"><polyline points="472,199 472,166 521,166 521,166 522,166 522,166 522,166 523,166 523,167 523,167 523,167 523,168 523,168 523,199" stroke="#6d725c" /></g><g id="0Y01" stroke="red"><polyline points="158,212 158,262 65,262 65,212" stroke="#6d725c" /></g><g id="0Y02" stroke="red"><polyline points="65,212 65,166 82,166 82,162 158,162 158,212" stroke="#6d725c" /></g><g id="0Y03" stroke="red"><polyline points="191,57 232,57 232,144 82,144 82,111 64,111 64,108 125,47 191,47" stroke="#6d725c" /></g><g id="0Y04" stroke="red"><polyline points="245,144 245,63 308,63 308,144" stroke="#6d725c" /></g><g id="0Y05" stroke="red"><polyline points="308,144 308,63 369,63 369,144" stroke="#6d725c" /></g><g id="0Y06" stroke="red"><polyline points="369,144 369,63 429,63 429,144" stroke="#6d725c" /></g><g id="0Y07" stroke="red"><polyline points="429,63 552,63 552,144 429,144" stroke="#6d725c" /></g><g id="0Y08" stroke="red"><polyline points="332,208 332,208 331,208 331,208 331,208 330,208 330,207 330,207 330,207 330,206 330,206 330,168 330,168 330,167 330,167 330,167 330,166 331,166 331,166 331,166 332,166 332,166 367,166 367,172 365,172 365,208" stroke="#6d725c" /></g><g id="0Y09" stroke="red"><polyline points="403,206 403,206 403,207 403,207 403,207 403,208 402,208 402,208 402,208 401,208 401,208 373,208 373,172 370,172 370,166 401,166 401,166 402,166 402,166 402,166 403,166 403,167 403,167 403,167 403,168 403,168" stroke="#6d725c" /></g><g id="0Y10" stroke="red"><polyline points="312,217 312,266 312,267 312,267 312,267 312,268 312,268 311,268 311,268 311,269 310,269 310,269 250,269 250,217" stroke="#6d725c" /></g><g id="0Y11" stroke="red"><polyline points="250,217 250,166 312,166 312,217" stroke="#6d725c" /></g><g id="0Z03" stroke="red"><polyline points="712,47 712,47 712,479 582,479 582,287 612,287 612,144 566,144 566,45 563,45 563,18 712,18" stroke="#6d725c" /></g></svg>