<?xml version="1.0" encoding="utf-8" ?>
<svg baseProfile="full" height="549" version="1.1" width="800" xmlns="http://www.w3.org/2000/svg" xmlns:ev="http://www.w3.org/2001/xml-events" xmlns:xlink="http://www.w3.org/1999/xlink"><defs /><g id="4A01" stroke="red"><polyline fill="#ebf7d1" points="65,472 65,472 65,403 115,403 115,472" stroke="#6d725c" /></g><g id="4A02" stroke="red"><polyline fill="#ebf7d1" points="150,404 150,472 115,472 115,403 150,403 150,403" stroke="#6d725c" /></g><g id="4A03" stroke="red"><polyline fill="#ebf7d1" points="104,341 104,390 78,390 78,341" stroke="#6d725c" /></g><g id="4A04" stroke="red"><polyline fill="#ebf7d1" points="154,388 119,388 119,334 154,334 154,388" stroke="#6d725c" /></g><g id="4A05A" stroke="red"><polyline fill="#ebf7d1" points="78,341 66,341 66,310 104,310 104,310 104,341" stroke="#6d725c" /></g><g id="4A05B" stroke="red"><polyline fill="#ebf7d1" points="66,310 66,281 104,281 104,310" stroke="#6d725c" /></g><g id="4A06" stroke="red"><polyline fill="#ebf7d1" points="154,334 119,334 119,281 154,281 154,334" stroke="#6d725c" /></g><g id="4A07" stroke="red"><polyline fill="#ebf7d1" points="104,214 104,214 104,268 63,268 63,226 61,226 61,221 61,214" stroke="#6d725c" /></g><g id="4A08A" stroke="red"><polyline fill="#ebf7d1" points="119,240 119,213 154,213 154,240" stroke="#6d725c" /></g><g id="4A08B" stroke="red"><polyline fill="#ebf7d1" points="119,267 119,240 154,240 154,267" stroke="#6d725c" /></g><g id="4A09" stroke="red"><polyline fill="#ebf7d1" points="104,175 104,214 61,214 61,175 61,175" stroke="#6d725c" /></g><g id="4A10A" stroke="red"><polyline fill="#ebf7d1" points="119,213 119,186 154,186 154,213" stroke="#6d725c" /></g><g id="4A10B" stroke="red"><polyline fill="#ebf7d1" points="119,186 119,159 154,159 154,186" stroke="#6d725c" /></g><g id="4A11" stroke="red"><polyline fill="#ebf7d1" points="61,175 61,144 104,144 104,175" stroke="#6d725c" /></g><g id="4A12" stroke="red"><polyline fill="#ebf7d1" points="117,144 117,98 146,98 146,144" stroke="#6d725c" /></g><g id="4A13" stroke="red"><polyline fill="#ebf7d1" points="61,144 61,109 104,109 104,109 104,144" stroke="#6d725c" /></g><g id="4A14" stroke="red"><polyline fill="#ebf7d1" points="117,83 117,39 146,39 146,83" stroke="#6d725c" /></g><g id="4A15" stroke="red"><polyline fill="#ebf7d1" points="61,109 61,74 104,74 104,74 104,109" stroke="#6d725c" /></g><g id="4A17" stroke="red"><polyline fill="#ebf7d1" points="61,74 61,39 104,39 104,74" stroke="#6d725c" /></g><g id="4B01" stroke="red"><polyline fill="#ebf7d1" points="150,472 150,472 150,472 150,404 150,403 186,403 186,472" stroke="#6d725c" /></g><g id="4B02" stroke="red"><polyline fill="#ebf7d1" points="186,472 186,472 186,472 186,403 215,403 215,472" stroke="#6d725c" /></g><g id="4B03" stroke="red"><polyline fill="#ebf7d1" points="215,472 215,472 215,472 215,403 243,403 243,472" stroke="#6d725c" /></g><g id="4B04" stroke="red"><polyline fill="#ebf7d1" points="189,388 154,388 154,334 154,334 189,334 189,388" stroke="#6d725c" /></g><g id="4B05" stroke="red"><polyline fill="#ebf7d1" points="189,334 189,334 189,334 229,334 229,388 189,388" stroke="#6d725c" /></g><g id="4B06" stroke="red"><polyline fill="#ebf7d1" points="189,334 154,334 154,281 154,281 189,281 189,334" stroke="#6d725c" /></g><g id="4B07" stroke="red"><polyline fill="#ebf7d1" points="189,334 189,281 229,281 229,334" stroke="#6d725c" /></g><g id="4B08" stroke="red"><polyline fill="#ebf7d1" points="154,240 154,213 186,213 186,267 154,267" stroke="#6d725c" /></g><g id="4B09" stroke="red"><polyline fill="#ebf7d1" points="154,213 154,186 154,159 186,159 186,213" stroke="#6d725c" /></g><g id="4B10" stroke="red"><polyline fill="#ebf7d1" points="188,98 231,98 231,144 188,144" stroke="#6d725c" /></g><g id="4B11" stroke="red"><polyline fill="#ebf7d1" points="146,144 146,98 188,98 188,144" stroke="#6d725c" /></g><g id="4B12" stroke="red"><polyline fill="#ebf7d1" points="244,83 195,83 195,39 244,39 244,53" stroke="#6d725c" /></g><g id="4B13" stroke="red"><polyline fill="#ebf7d1" points="146,83 146,39 195,39 195,83" stroke="#6d725c" /></g><g id="4C01" stroke="red"><polyline fill="#ebf7d1" points="243,472 243,472 243,472 243,403 277,403 277,472" stroke="#6d725c" /></g><g id="4C02" stroke="red"><polyline fill="#ebf7d1" points="277,472 277,472 277,472 277,403 308,403 308,472" stroke="#6d725c" /></g><g id="4C03" stroke="red"><polyline fill="#ebf7d1" points="308,472 308,403 338,403 338,472" stroke="#6d725c" /></g><g id="4C04" stroke="red"><polyline fill="#ebf7d1" points="242,388 242,334 283,334 283,388" stroke="#6d725c" /></g><g id="4C05A" stroke="red"><polyline fill="#ebf7d1" points="283,388 283,334 304,334 304,388" stroke="#6d725c" /></g><g id="4C05B" stroke="red"><polyline fill="#ebf7d1" points="304,334 325,334 325,388 304,388" stroke="#6d725c" /></g><g id="4C06" stroke="red"><polyline fill="#ebf7d1" points="242,334 242,281 283,281 283,334" stroke="#6d725c" /></g><g id="4C07A" stroke="red"><polyline fill="#ebf7d1" points="283,334 283,281 304,281 304,334" stroke="#6d725c" /></g><g id="4C07B" stroke="red"><polyline fill="#ebf7d1" points="304,334 304,281 325,281 325,334" stroke="#6d725c" /></g><g id="4C08A" stroke="red"><polyline fill="#ebf7d1" points="247,267 247,213 267,213 267,267" stroke="#6d725c" /></g><g id="4C08B" stroke="red"><polyline fill="#ebf7d1" points="267,267 267,213 286,213 286,267" stroke="#6d725c" /></g><g id="4C09" stroke="red"><polyline fill="#ebf7d1" points="286,213 325,213 325,267 286,267" stroke="#6d725c" /></g><g id="4C10" stroke="red"><polyline fill="#ebf7d1" points="267,213 247,213 247,159 286,159 286,213" stroke="#6d725c" /></g><g id="4C11" stroke="red"><polyline fill="#ebf7d1" points="286,213 286,159 325,159 325,213" stroke="#6d725c" /></g><g id="4C12" stroke="red"><polyline fill="#ebf7d1" points="244,144 244,98 299,98 299,144" stroke="#6d725c" /></g><g id="4C13" stroke="red"><polyline fill="#ebf7d1" points="299,98 353,98 353,144 299,144" stroke="#6d725c" /></g><g id="4C14" stroke="red"><polyline fill="#ebf7d1" points="244,83 244,53 299,53 299,83" stroke="#6d725c" /></g><g id="4C15" stroke="red"><polyline fill="#ebf7d1" points="299,53 353,53 353,83 299,83" stroke="#6d725c" /></g><g id="4D01" stroke="red"><polyline fill="#ebf7d1" points="338,472 338,472 338,472 338,403 369,403 369,472" stroke="#6d725c" /></g><g id="4D02" stroke="red"><polyline fill="#ebf7d1" points="369,472 369,472 369,472 369,403 401,403 401,472" stroke="#6d725c" /></g><g id="4D03" stroke="red"><polyline fill="#ebf7d1" points="401,472 401,472 401,472 401,403 432,403 432,472" stroke="#6d725c" /></g><g id="4D04" stroke="red"><polyline fill="#ebf7d1" points="366,350 377,350 377,388 338,388 338,363 338,343 366,343" stroke="#6d725c" /></g><g id="4D05" stroke="red"><polyline fill="#ebf7d1" points="434,348 434,388 404,388 404,348" stroke="#6d725c" /></g><g id="4D06" stroke="red"><polyline fill="#ebf7d1" points="338,330 338,281 369,281 369,281 369,281 369,330" stroke="#6d725c" /></g><g id="4D07A" stroke="red"><polyline fill="#ebf7d1" points="404,315 404,281 434,281 434,315" stroke="#6d725c" /></g><g id="4D07B" stroke="red"><polyline fill="#ebf7d1" points="404,348 404,315 434,315 434,348" stroke="#6d725c" /></g><g id="4D08A" stroke="red"><polyline fill="#ebf7d1" points="387,267 386,267 386,267 385,267 385,267 384,266 384,266 383,265 383,264 383,264 383,263 383,213 389,213 394,213 409,213 409,267" stroke="#6d725c" /></g><g id="4D08B" stroke="red"><polyline fill="#ebf7d1" points="372,213 372,263 372,264 372,264 371,265 371,266 370,266 370,267 369,267 369,267 368,267 367,267 342,267 342,267 341,267 340,267 340,267 339,266 339,266 338,265 338,264 338,264 338,263 338,213" stroke="#6d725c" /></g><g id="4D09" stroke="red"><polyline fill="#ebf7d1" points="409,213 435,213 435,263 435,264 435,264 435,265 434,266 434,266 433,267 433,267 432,267 431,267 431,267 409,267" stroke="#6d725c" /></g><g id="4D10A" stroke="red"><polyline fill="#ebf7d1" points="394,213 389,213 383,213 383,163 383,163 383,162 383,161 384,161 384,160 385,160 385,159 386,159 386,159 387,159 409,159 409,213" stroke="#6d725c" /></g><g id="4D10B" stroke="red"><polyline fill="#ebf7d1" points="338,213 338,163 338,163 338,162 338,161 339,161 339,160 340,160 340,159 341,159 342,159 342,159 372,159 372,213" stroke="#6d725c" /></g><g id="4D11" stroke="red"><polyline fill="#ebf7d1" points="409,213 409,159 435,159 435,213" stroke="#6d725c" /></g><g id="4D12" stroke="red"><polyline fill="#ebf7d1" points="367,144 367,98 401,98 401,144" stroke="#6d725c" /></g><g id="4D13" stroke="red"><polyline fill="#ebf7d1" points="401,98 435,98 435,144 401,144" stroke="#6d725c" /></g><g id="4D14" stroke="red"><polyline fill="#ebf7d1" points="367,83 367,37 370,37 370,11 372,11 372,9 400,9 400,83" stroke="#6d725c" /></g><g id="4D15" stroke="red"><polyline fill="#ebf7d1" points="400,83 400,9 446,9 446,83" stroke="#6d725c" /></g><g id="4E01" stroke="red"><polyline fill="#ebf7d1" points="432,472 432,472 432,472 432,403 463,403 463,472" stroke="#6d725c" /></g><g id="4E02" stroke="red"><polyline fill="#ebf7d1" points="463,472 463,472 463,472 463,403 493,403 493,472" stroke="#6d725c" /></g><g id="4E03" stroke="red"><polyline fill="#ebf7d1" points="493,472 493,472 493,472 493,403 523,403 523,472" stroke="#6d725c" /></g><g id="4E04" stroke="red"><polyline fill="#ebf7d1" points="448,388 448,334 480,334 480,388" stroke="#6d725c" /></g><g id="4E05" stroke="red"><polyline fill="#ebf7d1" points="480,334 511,334 511,388 480,388" stroke="#6d725c" /></g><g id="4E06" stroke="red"><polyline fill="#ebf7d1" points="448,334 448,281 480,281 480,334" stroke="#6d725c" /></g><g id="4E07" stroke="red"><polyline fill="#ebf7d1" points="480,334 480,281 511,281 511,334" stroke="#6d725c" /></g><g id="4E08" stroke="red"><polyline fill="#ebf7d1" points="448,267 448,213 480,213 480,267" stroke="#6d725c" /></g><g id="4E09" stroke="red"><polyline fill="#ebf7d1" points="480,213 511,213 511,267 480,267" stroke="#6d725c" /></g><g id="4E10" stroke="red"><polyline fill="#ebf7d1" points="448,213 448,159 480,159 480,213" stroke="#6d725c" /></g><g id="4E11" stroke="red"><polyline fill="#ebf7d1" points="480,213 480,159 511,159 511,213" stroke="#6d725c" /></g><g id="4E12" stroke="red"><polyline fill="#ebf7d1" points="448,144 448,98 495,98 495,144" stroke="#6d725c" /></g><g id="4E13" stroke="red"><polyline fill="#ebf7d1" points="495,98 536,98 536,144 495,144" stroke="#6d725c" /></g><g id="4E14" stroke="red"><polyline fill="#ebf7d1" points="491,83 446,83 446,9 491,9 491,39" stroke="#6d725c" /></g><g id="4E15" stroke="red"><polyline fill="#ebf7d1" points="491,39 536,39 536,83 491,83" stroke="#6d725c" /></g><g id="4F01" stroke="red"><polyline fill="#ebf7d1" points="523,472 523,472 523,472 523,403 554,403 554,472" stroke="#6d725c" /></g><g id="4F02" stroke="red"><polyline fill="#ebf7d1" points="554,472 554,472 554,472 554,403 584,403 584,472" stroke="#6d725c" /></g><g id="4F03" stroke="red"><polyline fill="#ebf7d1" points="584,472 584,472 584,472 584,403 616,403 616,472" stroke="#6d725c" /></g><g id="4F04" stroke="red"><polyline fill="#ebf7d1" points="561,388 524,388 524,334 561,334 561,361" stroke="#6d725c" /></g><g id="4F05A" stroke="red"><polyline fill="#ebf7d1" points="561,361 598,361 598,388 561,388" stroke="#6d725c" /></g><g id="4F05B" stroke="red"><polyline fill="#ebf7d1" points="561,361 561,334 598,334 598,361" stroke="#6d725c" /></g><g id="4F06" stroke="red"><polyline fill="#ebf7d1" points="524,334 524,281 561,281 561,334" stroke="#6d725c" /></g><g id="4F07" stroke="red"><polyline fill="#ebf7d1" points="561,334 561,281 598,281 598,334" stroke="#6d725c" /></g><g id="4F08" stroke="red"><polyline fill="#ebf7d1" points="554,213 554,267 524,267 524,213" stroke="#6d725c" /></g><g id="4F09" stroke="red"><polyline fill="#ebf7d1" points="524,213 524,159 554,159 554,213" stroke="#6d725c" /></g><g id="4F10" stroke="red"><polyline fill="#ebf7d1" points="549,144 549,98 594,98 594,144" stroke="#6d725c" /></g><g id="4F11" stroke="red"><polyline fill="#ebf7d1" points="594,144 594,98 637,98 637,144" stroke="#6d725c" /></g><g id="4F12" stroke="red"><polyline fill="#ebf7d1" points="549,83 549,39 594,39 594,83" stroke="#6d725c" /></g><g id="4F13" stroke="red"><polyline fill="#ebf7d1" points="594,83 594,39 637,39 637,83" stroke="#6d725c" /></g><g id="4G01" stroke="red"><polyline fill="#ebf7d1" points="616,472 616,472 616,472 616,403 647,403 647,472" stroke="#6d725c" /></g><g id="4G02" stroke="red"><polyline fill="#ebf7d1" points="647,472 647,472 647,472 647,403 684,403 684,472" stroke="#6d725c" /></g><g id="4G03" stroke="red"><polyline fill="#ebf7d1" points="684,472 684,403 713,403 713,472 684,472 684,472" stroke="#6d725c" /></g><g id="4G04A" stroke="red"><polyline fill="#ebf7d1" points="611,388 611,361 646,361 646,388" stroke="#6d725c" /></g><g id="4G04B" stroke="red"><polyline fill="#ebf7d1" points="611,361 611,334 646,334 646,361" stroke="#6d725c" /></g><g id="4G05A" stroke="red"><polyline fill="#ebf7d1" points="646,361 681,361 681,388 646,388" stroke="#6d725c" /></g><g id="4G05B" stroke="red"><polyline fill="#ebf7d1" points="646,361 646,334 681,334 681,361" stroke="#6d725c" /></g><g id="4G06A" stroke="red"><polyline fill="#ebf7d1" points="721,359 721,389 696,389 696,359" stroke="#6d725c" /></g><g id="4G06B" stroke="red"><polyline fill="#ebf7d1" points="696,359 696,323 734,323 734,359 721,359" stroke="#6d725c" /></g><g id="4G07A" stroke="red"><polyline fill="#ebf7d1" points="611,334 611,307 646,307 646,334" stroke="#6d725c" /></g><g id="4G07B" stroke="red"><polyline fill="#ebf7d1" points="611,307 611,281 646,281 646,307" stroke="#6d725c" /></g><g id="4G08" stroke="red"><polyline fill="#ebf7d1" points="646,334 646,307 646,281 681,281 681,334" stroke="#6d725c" /></g><g id="4G09" stroke="red"><polyline fill="#ebf7d1" points="734,281 734,313 696,313 696,281" stroke="#6d725c" /></g><g id="4G10" stroke="red"><polyline fill="#ebf7d1" points="696,281 696,281 696,240 735,240 735,281 734,281" stroke="#6d725c" /></g><g id="4G11A" stroke="red"><polyline fill="#ebf7d1" points="614,267 614,213 630,213 630,267" stroke="#6d725c" /></g><g id="4G11B" stroke="red"><polyline fill="#ebf7d1" points="647,267 630,267 630,213 647,213 647,240" stroke="#6d725c" /></g><g id="4G12A" stroke="red"><polyline fill="#ebf7d1" points="647,240 681,240 681,267 647,267" stroke="#6d725c" /></g><g id="4G12B" stroke="red"><polyline fill="#ebf7d1" points="647,240 647,213 681,213 681,240" stroke="#6d725c" /></g><g id="4G13" stroke="red"><polyline fill="#ebf7d1" points="630,213 614,213 614,159 647,159 647,213" stroke="#6d725c" /></g><g id="4G14" stroke="red"><polyline fill="#ebf7d1" points="647,213 647,159 681,159 681,213" stroke="#6d725c" /></g><g id="4G15" stroke="red"><polyline fill="#ebf7d1" points="696,223 696,159 734,159 734,206 721,206 721,223" stroke="#6d725c" /></g><g id="4G16" stroke="red"><polyline fill="#ebf7d1" points="637,98 681,98 681,144 637,144" stroke="#6d725c" /></g><g id="4G17" stroke="red"><polyline fill="#ebf7d1" points="696,144 696,98 720,98 720,144" stroke="#6d725c" /></g><g id="4G18" stroke="red"><polyline fill="#ebf7d1" points="637,83 637,39 681,39 681,83" stroke="#6d725c" /></g><g id="4G19" stroke="red"><polyline fill="#ebf7d1" points="681,39 720,39 720,83 681,83" stroke="#6d725c" /></g></svg>