<?xml version="1.0" encoding="utf-8" ?>
<svg baseProfile="full" height="485" version="1.1" width="800" xmlns="http://www.w3.org/2000/svg" xmlns:ev="http://www.w3.org/2001/xml-events" xmlns:xlink="http://www.w3.org/1999/xlink"><defs /><g id="2A01" stroke="red"><polyline points="72,479 72,469 76,469 76,413 129,413 129,479" stroke="#6d725c" /></g><g id="2A04" stroke="red"><polyline points="127,399 127,399 127,399 126,399 126,398 126,398 126,398 125,398 125,397 125,397 125,396 125,377 125,377 125,376 125,376 126,376 126,375 126,375 126,375 127,375 127,375 127,375 152,375 152,375 152,375 153,375 153,375 153,375 154,376 154,376 154,376 154,377 154,377 154,396 154,397 154,397 154,398 154,398 153,398 153,398 153,399 152,399 152,399 152,399" stroke="#6d725c" /></g><g id="2A05" stroke="red"><polyline points="112,361 112,400 76,400 76,361 77,361" stroke="#6d725c" /></g><g id="2A07" stroke="red"><polyline points="77,361 77,329 112,329 112,361" stroke="#6d725c" /></g><g id="2A08" stroke="red"><polyline points="154,339 154,358 154,359 154,359 154,359 154,360 153,360 153,360 153,360 152,361 152,361 152,361 127,361 127,361 127,361 126,360 126,360 126,360 126,360 125,359 125,359 125,359 125,358 125,339" stroke="#6d725c" /></g><g id="2A09" stroke="red"><polyline points="77,329 77,297 112,297 112,329" stroke="#6d725c" /></g><g id="2A10" stroke="red"><polyline points="125,339 125,316 154,316 154,339" stroke="#6d725c" /></g><g id="2A11" stroke="red"><polyline points="112,239 112,268 76,268 76,239" stroke="#6d725c" /></g><g id="2A12" stroke="red"><polyline points="125,316 125,297 125,296 125,296 125,296 126,295 126,295 126,295 126,295 127,294 127,294 127,294 152,294 152,294 152,294 153,295 153,295 153,295 154,295 154,296 154,296 154,296 154,297 154,316" stroke="#6d725c" /></g><g id="2A13" stroke="red"><polyline points="76,239 76,236 73,236 73,211 112,211 112,239" stroke="#6d725c" /></g><g id="2A14A" stroke="red"><polyline points="154,259 154,279 154,280 154,280 154,280 154,281 153,281 153,281 153,281 152,281 152,282 152,282 127,282 127,282 127,281 126,281 126,281 126,281 126,281 125,280 125,280 125,280 125,279 125,259" stroke="#6d725c" /></g><g id="2A14B" stroke="red"><polyline points="125,259 125,238 125,238 125,238 125,237 126,237 126,237 126,236 126,236 127,236 127,236 127,236 152,236 152,236 152,236 153,236 153,236 153,237 154,237 154,237 154,238 154,238 154,238 154,259" stroke="#6d725c" /></g><g id="2A15" stroke="red"><polyline points="73,211 73,181 112,181 112,211 112,211" stroke="#6d725c" /></g><g id="2A16A" stroke="red"><polyline points="154,201 154,223 154,224 154,224 154,224 154,224 153,225 153,225 153,225 152,225 152,225 152,225 127,225 127,225 127,225 126,225 126,225 126,225 126,224 125,224 125,224 125,224 125,223 125,201" stroke="#6d725c" /></g><g id="2A16B" stroke="red"><polyline points="125,201 125,178 125,178 125,178 125,177 126,177 126,177 126,177 126,176 127,176 127,176 127,176 152,176 152,176 152,176 153,176 153,177 153,177 154,177 154,177 154,178 154,178 154,178 154,201" stroke="#6d725c" /></g><g id="2A17" stroke="red"><polyline points="73,181 73,181 73,152 73,152 112,152 112,181" stroke="#6d725c" /></g><g id="2A18A" stroke="red"><polyline points="154,140 154,161 154,161 154,162 154,162 154,162 153,163 153,163 153,163 152,163 152,163 152,163 127,163 127,163 127,163 126,163 126,163 126,163 126,162 125,162 125,162 125,161 125,161 125,140" stroke="#6d725c" /></g><g id="2A18B" stroke="red"><polyline points="125,140 125,116 154,116 154,140" stroke="#6d725c" /></g><g id="2A19" stroke="red"><polyline points="73,152 73,120 112,120 112,152" stroke="#6d725c" /></g><g id="2A21" stroke="red"><polyline points="112,120 73,120 73,89 112,89 112,96" stroke="#6d725c" /></g><g id="2A22" stroke="red"><polyline points="130,96 130,60 161,60 161,96" stroke="#6d725c" /></g><g id="2A23" stroke="red"><polyline points="130,96 112,96 112,89 73,89 73,60 130,60 130,60" stroke="#6d725c" /></g><g id="2B02" stroke="red"><polyline points="245,479 192,479 192,413 198,413 245,434" stroke="#6d725c" /></g><g id="2B07" stroke="red"><polyline points="169,399 169,399 168,399 168,399 168,398 167,398 167,398 167,398 167,397 167,397 167,396 167,377 167,377 167,376 167,376 167,376 167,375 168,375 168,375 168,375 169,375 169,375 196,375 196,399" stroke="#6d725c" /></g><g id="2B08" stroke="red"><polyline points="196,375 224,375 225,375 225,375 225,375 226,375 226,375 226,376 226,376 226,376 227,377 227,377 227,396 227,397 226,397 226,398 226,398 226,398 226,398 225,399 225,399 225,399 224,399 201,399 196,399" stroke="#6d725c" /></g><g id="2B09" stroke="red"><polyline points="169,361 169,361 168,361 168,360 168,360 167,360 167,360 167,359 167,359 167,359 167,358 167,339 196,339 196,361" stroke="#6d725c" /></g><g id="2B10" stroke="red"><polyline points="196,339 227,339 227,358 227,359 226,359 226,359 226,360 226,360 226,360 225,360 225,361 225,361 224,361 196,361" stroke="#6d725c" /></g><g id="2B11" stroke="red"><polyline points="167,339 167,316 196,316 196,339" stroke="#6d725c" /></g><g id="2B12" stroke="red"><polyline points="196,339 196,316 227,316 227,339" stroke="#6d725c" /></g><g id="2B13" stroke="red"><polyline points="167,316 167,299 167,298 167,297 167,297 167,296 168,296 168,295 169,295 170,294 170,294 171,294 196,294 196,316" stroke="#6d725c" /></g><g id="2B14" stroke="red"><polyline points="196,316 196,294 222,294 223,294 224,294 224,295 225,295 225,296 226,296 226,297 226,297 227,298 227,299 227,316" stroke="#6d725c" /></g><g id="2B15" stroke="red"><polyline points="192,260 192,277 192,278 192,279 192,279 191,280 191,280 190,281 190,281 189,281 188,282 188,282 171,282 170,282 170,281 169,281 168,281 168,280 167,280 167,279 167,279 167,278 167,277 167,260" stroke="#6d725c" /></g><g id="2B16" stroke="red"><polyline points="197,140 227,140 227,161 227,161 226,162 226,162 226,162 226,163 226,163 225,163 225,163 225,163 224,163 197,163" stroke="#6d725c" /></g><g id="2B17" stroke="red"><polyline points="167,260 167,239 192,239 192,260" stroke="#6d725c" /></g><g id="2B18" stroke="red"><polyline points="197,140 197,116 227,116 227,140" stroke="#6d725c" /></g><g id="2B19" stroke="red"><polyline points="167,239 167,218 192,218 192,239" stroke="#6d725c" /></g><g id="2B21" stroke="red"><polyline points="167,218 167,197 192,197 192,218" stroke="#6d725c" /></g><g id="2B23" stroke="red"><polyline points="167,197 167,176 192,176 192,197" stroke="#6d725c" /></g><g id="2B25" stroke="red"><polyline points="169,163 169,163 168,163 168,163 168,163 167,163 167,162 167,162 167,162 167,161 167,161 167,140 197,140 197,163" stroke="#6d725c" /></g><g id="2B27" stroke="red"><polyline points="197,140 167,140 167,116 197,116 197,116" stroke="#6d725c" /></g><g id="2B29" stroke="red"><polyline points="161,60 223,60 223,96 161,96" stroke="#6d725c" /></g><g id="2C01" stroke="red"><polyline points="245,479 245,434 280,434 280,479" stroke="#6d725c" /></g><g id="2C02" stroke="red"><polyline points="280,479 280,434 314,434 314,479" stroke="#6d725c" /></g><g id="2C03" stroke="red"><polyline points="322,397 354,397 354,418 354,418 354,418 354,419 354,419 354,419 353,420 353,420 353,420 352,420 352,420 322,420" stroke="#6d725c" /></g><g id="2C04" stroke="red"><polyline points="292,420 292,420 292,420 291,420 291,420 291,419 290,419 290,419 290,418 290,418 290,418 290,397 322,397 322,420" stroke="#6d725c" /></g><g id="2C05" stroke="red"><polyline points="277,397 277,418 277,418 277,418 277,419 277,419 277,419 276,420 276,420 276,420 275,420 275,420 248,420 248,397" stroke="#6d725c" /></g><g id="2C06" stroke="red"><polyline points="290,397 290,377 290,377 290,376 290,376 290,376 291,375 291,375 291,375 292,375 292,375 292,375 322,375 322,397" stroke="#6d725c" /></g><g id="2C07" stroke="red"><polyline points="248,397 248,377 248,377 248,376 248,376 248,376 248,375 249,375 249,375 249,375 250,375 250,375 275,375 275,375 276,375 276,375 276,375 277,375 277,376 277,376 277,376 277,377 277,377 277,397" stroke="#6d725c" /></g><g id="2C08" stroke="red"><polyline points="322,397 322,375 352,375 352,375 353,375 353,375 353,375 354,375 354,376 354,376 354,376 354,377 354,377 354,397" stroke="#6d725c" /></g><g id="2C09" stroke="red"><polyline points="277,339 277,358 277,359 277,359 277,359 277,360 277,360 276,360 276,360 276,361 275,361 275,361 248,361 248,339" stroke="#6d725c" /></g><g id="2C10" stroke="red"><polyline points="294,361 294,361 293,360 292,360 292,360 291,359 291,359 290,358 290,358 290,357 290,356 290,343 290,343 290,342 290,341 291,341 291,340 292,340 292,340 293,339 294,339 294,339 322,339 322,361" stroke="#6d725c" /></g><g id="2C11A" stroke="red"><polyline points="248,339 248,316 277,316 277,339" stroke="#6d725c" /></g><g id="2C11B" stroke="red"><polyline points="248,316 248,294 275,294 275,294 276,294 276,295 276,295 277,295 277,295 277,296 277,296 277,296 277,297 277,316" stroke="#6d725c" /></g><g id="2C12" stroke="red"><polyline points="290,328 290,294 321,294 321,328" stroke="#6d725c" /></g><g id="2C13" stroke="red"><polyline points="277,244 277,282 252,282 252,244 252,244 252,244 265,244" stroke="#6d725c" /></g><g id="2C14A" stroke="red"><polyline points="292,282 292,282 292,281 291,281 291,281 291,281 290,281 290,280 290,280 290,280 290,279 290,259 322,259 322,282" stroke="#6d725c" /></g><g id="2C14B" stroke="red"><polyline points="290,259 290,238 290,238 290,238 290,237 290,237 291,237 291,236 291,236 292,236 292,236 292,236 322,236 322,259" stroke="#6d725c" /></g><g id="2C15" stroke="red"><polyline points="252,244 252,207 265,207 277,207 277,207 277,207 277,244 265,244" stroke="#6d725c" /></g><g id="2C16" stroke="red"><polyline points="322,225 292,225 292,225 292,225 291,225 291,225 291,225 290,224 290,224 290,224 290,224 290,223 290,201 322,201" stroke="#6d725c" /></g><g id="2C17" stroke="red"><polyline points="265,207 252,207 252,176 277,176 277,207" stroke="#6d725c" /></g><g id="2C18" stroke="red"><polyline points="290,201 290,178 290,178 290,178 290,177 290,177 291,177 291,177 291,176 292,176 292,176 292,176 322,176 322,201" stroke="#6d725c" /></g><g id="2C19" stroke="red"><polyline points="277,140 277,161 277,161 277,162 277,162 277,162 277,163 276,163 276,163 276,163 275,163 275,163 250,163 250,163 249,163 249,163 249,163 248,163 248,162 248,162 248,162 248,161 248,161 248,140" stroke="#6d725c" /></g><g id="2C20" stroke="red"><polyline points="292,163 292,163 292,163 291,163 291,163 291,163 290,162 290,162 290,162 290,161 290,161 290,140 322,140 322,163" stroke="#6d725c" /></g><g id="2C21" stroke="red"><polyline points="248,140 248,116 277,116 277,140" stroke="#6d725c" /></g><g id="2C22" stroke="red"><polyline points="290,140 290,116 322,116 322,140" stroke="#6d725c" /></g><g id="2C23" stroke="red"><polyline points="251,96 251,76 298,76 298,96" stroke="#6d725c" /></g><g id="2C24" stroke="red"><polyline points="298,76 346,76 346,96 298,96" stroke="#6d725c" /></g><g id="2D01A" stroke="red"><polyline points="314,479 314,434 341,434 341,479" stroke="#6d725c" /></g><g id="2D01B" stroke="red"><polyline points="341,434 368,434 368,479 341,479" stroke="#6d725c" /></g><g id="2D02" stroke="red"><polyline points="369,479 369,434 400,434 400,479" stroke="#6d725c" /></g><g id="2D04" stroke="red"><polyline points="369,420 369,397 401,397 401,420" stroke="#6d725c" /></g><g id="2D06" stroke="red"><polyline points="369,397 369,379 369,378 369,378 369,377 370,377 370,376 371,376 371,375 372,375 373,375 373,375 401,375 401,397" stroke="#6d725c" /></g><g id="2D07" stroke="red"><polyline points="322,339 350,339 351,339 351,339 352,340 352,340 353,340 353,341 354,341 354,342 354,343 354,343 354,356 354,357 354,358 354,358 353,359 353,359 352,360 352,360 351,360 351,361 350,361 322,361" stroke="#6d725c" /></g><g id="2D08" stroke="red"><polyline points="401,282 371,282 371,282 371,281 370,281 370,281 370,281 369,281 369,280 369,280 369,280 369,279 369,259 401,259 401,270" stroke="#6d725c" /></g><g id="2D09" stroke="red"><polyline points="321,294 354,294 354,328 321,328" stroke="#6d725c" /></g><g id="2D10" stroke="red"><polyline points="401,259 369,259 369,236 401,236 401,247" stroke="#6d725c" /></g><g id="2D11A" stroke="red"><polyline points="322,259 354,259 354,279 354,280 354,280 354,280 354,281 354,281 353,281 353,281 353,281 352,282 352,282 322,282" stroke="#6d725c" /></g><g id="2D11B" stroke="red"><polyline points="322,259 322,236 352,236 352,236 353,236 353,236 353,236 354,237 354,237 354,237 354,238 354,238 354,238 354,259" stroke="#6d725c" /></g><g id="2D12" stroke="red"><polyline points="371,225 371,225 371,225 370,225 370,225 370,225 369,224 369,224 369,224 369,224 369,223 369,201 401,201 401,225" stroke="#6d725c" /></g><g id="2D13" stroke="red"><polyline points="322,201 354,201 354,223 354,224 354,224 354,224 354,224 354,225 353,225 353,225 353,225 352,225 352,225 322,225" stroke="#6d725c" /></g><g id="2D14" stroke="red"><polyline points="369,201 369,176 401,176 401,201" stroke="#6d725c" /></g><g id="2D15" stroke="red"><polyline points="322,201 322,176 352,176 352,176 353,176 353,176 353,177 354,177 354,177 354,177 354,178 354,178 354,178 354,201" stroke="#6d725c" /></g><g id="2D16" stroke="red"><polyline points="373,163 373,163 372,163 371,163 371,163 370,162 370,162 369,161 369,160 369,160 369,159 369,140 401,140 401,163" stroke="#6d725c" /></g><g id="2D17" stroke="red"><polyline points="322,140 354,140 354,161 354,161 354,162 354,162 354,162 354,163 353,163 353,163 353,163 352,163 352,163 322,163" stroke="#6d725c" /></g><g id="2D18" stroke="red"><polyline points="369,140 369,116 401,116 401,140" stroke="#6d725c" /></g><g id="2D19" stroke="red"><polyline points="322,140 322,116 354,116 354,140" stroke="#6d725c" /></g><g id="2D20" stroke="red"><polyline points="414,96 367,96 367,63 370,63 370,31 414,31 414,31" stroke="#6d725c" /></g><g id="2E01" stroke="red"><polyline points="400,479 400,434 429,434 429,479" stroke="#6d725c" /></g><g id="2E02" stroke="red"><polyline points="429,479 429,434 459,434 459,479" stroke="#6d725c" /></g><g id="2E03" stroke="red"><polyline points="401,397 433,397 433,420 401,420" stroke="#6d725c" /></g><g id="2E04" stroke="red"><polyline points="459,479 459,434 489,434 489,479" stroke="#6d725c" /></g><g id="2E05" stroke="red"><polyline points="401,397 401,375 429,375 429,375 430,375 431,375 431,376 432,376 432,377 432,377 433,378 433,378 433,379 433,397" stroke="#6d725c" /></g><g id="2E06" stroke="red"><polyline points="450,420 449,420 449,420 448,419 447,419 447,419 446,418 446,418 446,417 446,416 446,416 446,397 478,397 478,420" stroke="#6d725c" /></g><g id="2E07A" stroke="red"><polyline points="433,328 433,361 404,361 404,328" stroke="#6d725c" /></g><g id="2E07B" stroke="red"><polyline points="404,328 404,294 433,294 433,328" stroke="#6d725c" /></g><g id="2E08" stroke="red"><polyline points="446,397 446,379 446,378 446,378 446,377 446,377 447,376 447,376 448,375 449,375 449,375 450,375 478,375 478,397" stroke="#6d725c" /></g><g id="2E09" stroke="red"><polyline points="433,279 433,280 433,280 433,280 432,281 432,281 432,281 432,281 431,281 431,282 431,282 401,282 401,270 401,259 433,259" stroke="#6d725c" /></g><g id="2E10" stroke="red"><polyline points="478,361 478,361 450,361 449,361 449,360 448,360 447,360 447,359 446,359 446,358 446,358 446,357 446,356 446,328 478,328 478,328" stroke="#6d725c" /></g><g id="2E11" stroke="red"><polyline points="401,259 401,247 401,236 433,236 433,259" stroke="#6d725c" /></g><g id="2E12" stroke="red"><polyline points="446,328 446,299 446,298 446,297 446,297 446,296 447,296 447,295 448,295 449,294 449,294 450,294 478,294 478,328" stroke="#6d725c" /></g><g id="2E13" stroke="red"><polyline points="401,201 433,201 433,223 433,224 433,224 433,224 432,224 432,225 432,225 432,225 431,225 431,225 431,225 401,225" stroke="#6d725c" /></g><g id="2E14" stroke="red"><polyline points="448,282 448,282 447,281 447,281 447,281 446,281 446,281 446,280 446,280 446,280 446,279 446,259 478,259 478,282" stroke="#6d725c" /></g><g id="2E15" stroke="red"><polyline points="401,201 401,176 433,176 433,201" stroke="#6d725c" /></g><g id="2E16" stroke="red"><polyline points="478,259 446,259 446,238 446,238 446,238 446,237 446,237 446,237 447,236 447,236 447,236 448,236 448,236 478,236 478,259" stroke="#6d725c" /></g><g id="2E17" stroke="red"><polyline points="401,140 433,140 433,159 433,160 433,160 432,161 432,162 432,162 431,163 431,163 430,163 429,163 429,163 402,163 401,163" stroke="#6d725c" /></g><g id="2E18A" stroke="red"><polyline points="448,225 448,225 447,225 447,225 447,225 446,225 446,224 446,224 446,224 446,224 446,223 446,201 478,201 478,225" stroke="#6d725c" /></g><g id="2E18B" stroke="red"><polyline points="446,201 446,178 446,178 446,178 446,177 446,177 446,177 447,177 447,176 447,176 448,176 448,176 478,176 478,201" stroke="#6d725c" /></g><g id="2E19" stroke="red"><polyline points="401,140 401,116 433,116 433,140" stroke="#6d725c" /></g><g id="2E20" stroke="red"><polyline points="448,163 448,163 447,163 447,163 447,163 446,163 446,162 446,162 446,162 446,161 446,161 446,140 478,140 478,163" stroke="#6d725c" /></g><g id="2E21" stroke="red"><polyline points="414,96 414,96 414,31 461,31 461,96" stroke="#6d725c" /></g><g id="2E22" stroke="red"><polyline points="446,140 446,139 446,140 446,140 446,116 478,116 478,139 478,140" stroke="#6d725c" /></g><g id="2E24" stroke="red"><polyline points="461,31 461,31 461,31 488,31 488,60 508,60 508,96 461,96" stroke="#6d725c" /></g><g id="2F01" stroke="red"><polyline points="489,479 489,434 518,434 518,479" stroke="#6d725c" /></g><g id="2F02" stroke="red"><polyline points="518,479 518,434 548,434 548,479" stroke="#6d725c" /></g><g id="2F03" stroke="red"><polyline points="478,397 511,397 511,416 511,416 511,417 511,418 510,418 510,419 509,419 509,419 508,420 508,420 507,420 478,420" stroke="#6d725c" /></g><g id="2F04" stroke="red"><polyline points="552,397 552,420 530,420 529,420 529,420 528,419 527,419 527,419 526,418 526,418 526,417 526,416 526,416 526,397" stroke="#6d725c" /></g><g id="2F05" stroke="red"><polyline points="478,397 478,375 507,375 508,375 508,375 509,375 509,376 510,376 510,377 511,377 511,378 511,378 511,379 511,397" stroke="#6d725c" /></g><g id="2F06" stroke="red"><polyline points="526,397 526,379 526,378 526,378 526,377 526,377 527,376 527,376 528,375 529,375 529,375 530,375 548,375 548,375 549,375 549,375 550,376 551,376 551,377 551,377 552,378 552,378 552,379 552,397" stroke="#6d725c" /></g><g id="2F07" stroke="red"><polyline points="478,328 511,328 511,358 511,359 511,359 511,359 511,360 510,360 510,360 510,360 510,361 509,361 509,361 478,361" stroke="#6d725c" /></g><g id="2F08" stroke="red"><polyline points="552,328 552,361 528,361 528,361 527,361 527,361 527,360 526,360 526,360 526,360 526,359 526,359 526,359 526,328" stroke="#6d725c" /></g><g id="2F09" stroke="red"><polyline points="478,328 478,294 509,294 509,294 510,294 510,295 510,295 510,295 511,295 511,296 511,296 511,296 511,297 511,328" stroke="#6d725c" /></g><g id="2F10" stroke="red"><polyline points="526,328 526,297 526,296 526,296 526,296 526,295 526,295 527,295 527,295 527,294 528,294 528,294 552,294 552,328" stroke="#6d725c" /></g><g id="2F11" stroke="red"><polyline points="478,259 511,259 511,279 511,280 511,280 511,280 511,281 510,281 510,281 510,281 510,281 509,282 509,282 478,282" stroke="#6d725c" /></g><g id="2F12" stroke="red"><polyline points="548,282 526,282 524,279 524,241 548,241" stroke="#6d725c" /></g><g id="2F13" stroke="red"><polyline points="478,259 478,236 509,236 509,236 510,236 510,236 510,236 510,237 511,237 511,237 511,238 511,238 511,238 511,259" stroke="#6d725c" /></g><g id="2F14" stroke="red"><polyline points="524,241 524,239 524,207 524,207 548,207 548,241" stroke="#6d725c" /></g><g id="2F15" stroke="red"><polyline points="478,201 511,201 511,223 511,224 511,224 511,224 511,224 510,225 510,225 510,225 510,225 509,225 509,225 478,225" stroke="#6d725c" /></g><g id="2F16" stroke="red"><polyline points="524,207 524,177 548,177 548,207" stroke="#6d725c" /></g><g id="2F17" stroke="red"><polyline points="478,201 478,176 509,176 509,176 510,176 510,176 510,177 510,177 511,177 511,177 511,178 511,178 511,178 511,201" stroke="#6d725c" /></g><g id="2F18" stroke="red"><polyline points="553,140 553,140 553,161 553,161 553,162 553,162 552,162 552,163 552,163 552,163 551,163 551,163 550,163 528,163 528,163 527,163 527,163 527,163 526,163 526,162 526,162 526,162 526,161 526,161 526,140" stroke="#6d725c" /></g><g id="2F19A" stroke="red"><polyline points="478,140 511,140 511,161 511,161 511,162 511,162 511,162 510,163 510,163 510,163 510,163 509,163 509,163 478,163" stroke="#6d725c" /></g><g id="2F19B" stroke="red"><polyline points="478,140 478,139 478,116 511,116 511,140" stroke="#6d725c" /></g><g id="2F20" stroke="red"><polyline points="526,140 526,118 526,118 526,118 526,117 526,117 526,117 527,116 527,116 527,116 528,116 528,116 553,116 553,140" stroke="#6d725c" /></g><g id="2F22" stroke="red"><polyline points="550,96 549,96 548,96 548,96 547,95 547,95 546,94 546,94 546,93 545,93 545,92 545,63 573,63 573,96" stroke="#6d725c" /></g><g id="2G01" stroke="red"><polyline points="576,479 548,479 548,434 576,434 576,444" stroke="#6d725c" /></g><g id="2G02" stroke="red"><polyline points="576,479 576,444 604,444 604,479" stroke="#6d725c" /></g><g id="2G19" stroke="red"><polyline points="568,163 567,163 567,163 567,163 566,163 566,163 566,162 566,162 566,162 566,161 565,161 565,118 566,118 566,118 566,117 566,117 566,117 566,116 567,116 567,116 567,116 568,116 589,116 589,163" stroke="#6d725c" /></g><g id="2G20" stroke="red"><polyline points="589,116 610,116 610,116 611,116 611,116 611,116 611,117 612,117 612,117 612,118 612,118 612,118 612,161 612,161 612,162 612,162 612,162 611,163 611,163 611,163 611,163 610,163 610,163 589,163" stroke="#6d725c" /></g><g id="2G21" stroke="red"><polyline points="573,96 573,63 600,63 600,96" stroke="#6d725c" /></g><g id="2G22" stroke="red"><polyline points="600,96 600,63 654,63 654,96" stroke="#6d725c" /></g><g id="2H01" stroke="red"><polyline points="623,294 623,259 623,259 623,258 624,257 624,257 624,256 625,256 625,256 626,255 627,255 627,255 663,255 663,294" stroke="#6d725c" /></g><g id="2H13" stroke="red"><polyline points="671,210 671,242 625,242 625,210" stroke="#6d725c" /></g><g id="2H15" stroke="red"><polyline points="625,210 625,179 625,179 625,178 625,178 625,178 625,177 626,177 626,177 626,177 627,177 627,177 671,177 671,210" stroke="#6d725c" /></g><g id="2H19" stroke="red"><polyline points="627,163 627,163 626,163 626,163 626,163 625,163 625,162 625,162 625,162 625,161 625,161 625,118 625,118 625,118 625,117 625,117 625,117 626,116 626,116 626,116 627,116 627,116 648,116 648,163" stroke="#6d725c" /></g><g id="2H20" stroke="red"><polyline points="648,116 671,116 671,161 671,161 671,162 671,162 671,162 671,163 670,163 670,163 670,163 669,163 669,163 648,163" stroke="#6d725c" /></g><g id="2J17" stroke="red"><polyline points="688,242 687,242 687,242 687,242 686,242 686,242 686,241 686,241 686,241 686,240 686,240 686,181 686,180 686,180 686,179 686,178 687,178 687,178 688,177 688,177 689,177 690,177 725,177 725,222 711,222 711,242" stroke="#6d725c" /></g><g id="2J19" stroke="red"><polyline points="688,163 687,163 687,163 687,163 686,163 686,163 686,162 686,162 686,162 686,161 686,161 686,118 686,118 686,118 686,117 686,117 686,117 686,116 687,116 687,116 687,116 688,116 725,116 725,163" stroke="#6d725c" /></g><g id="2J21" stroke="red"><polyline points="654,63 708,63 708,96 654,96" stroke="#6d725c" /></g><g id="2Y01" stroke="red"><polyline points="604,444 604,413 723,413 723,479 604,479" stroke="#6d725c" /></g><g id="2Y02" stroke="red"><polyline points="623,294 663,294 663,294 663,255 723,255 723,301 777,301 777,334 723,334 723,400 577,400 577,368 577,368 577,294 623,294" stroke="#6d725c" /></g><g id="2Y03" stroke="red"><polyline points="129,479 129,413 192,413 192,479" stroke="#6d725c" /></g></svg>