<?xml version="1.0" encoding="utf-8" ?>
<svg baseProfile="full" height="492" version="1.1" width="800" xmlns="http://www.w3.org/2000/svg" xmlns:ev="http://www.w3.org/2001/xml-events" xmlns:xlink="http://www.w3.org/1999/xlink"><defs /><g id="1A01" stroke="red"><polyline fill="#FFFFFF" points="108,417 108,467 72,467 72,417" stroke="#6d725c" /></g><g id="1A02" stroke="red"><polyline fill="#FFFFFF" points="125,467 125,401 192,401 192,467" stroke="#6d725c" /></g><g id="1A03A" stroke="red"><polyline fill="#FFFFFF" points="72,400 72,384 108,384 108,400" stroke="#6d725c" /></g><g id="1A03B" stroke="red"><polyline fill="#FFFFFF" points="72,417 72,400 108,400 108,417" stroke="#6d725c" /></g><g id="1A05" stroke="red"><polyline fill="#FFFFFF" points="72,383 72,349 72,349 108,349 108,349 108,350 108,383" stroke="#6d725c" /></g><g id="1A06" stroke="red"><polyline fill="#FFFFFF" points="158,384 125,384 125,334 158,334 158,334" stroke="#6d725c" /></g><g id="1A07" stroke="red"><polyline fill="#FFFFFF" points="72,349 72,316 108,316 108,349" stroke="#6d725c" /></g><g id="1A09" stroke="red"><polyline fill="#FFFFFF" points="72,316 72,285 108,285 108,316" stroke="#6d725c" /></g><g id="1A10" stroke="red"><polyline fill="#FFFFFF" points="125,334 125,283 158,283 158,334" stroke="#6d725c" /></g><g id="1A11" stroke="red"><polyline fill="#FFFFFF" points="107,217 107,217 107,217 107,266 72,266 72,229 70,229 70,217 88,217" stroke="#6d725c" /></g><g id="1A12" stroke="red"><polyline fill="#FFFFFF" points="188,233 188,266 130,266 130,266 129,266 128,266 128,266 127,265 127,265 127,264 126,263 126,263 126,262 126,233" stroke="#6d725c" /></g><g id="1A14" stroke="red"><polyline fill="#FFFFFF" points="126,233 126,199 188,199 188,199 188,233" stroke="#6d725c" /></g><g id="1A15" stroke="red"><polyline fill="#FFFFFF" points="88,217 70,217 70,181 107,181 107,217" stroke="#6d725c" /></g><g id="1A16" stroke="red"><polyline fill="#FFFFFF" points="126,199 126,165 126,165 188,165 188,165 188,199" stroke="#6d725c" /></g><g id="1A17" stroke="red"><polyline fill="#FFFFFF" points="70,181 70,156 107,156 107,160 107,181" stroke="#6d725c" /></g><g id="1A18" stroke="red"><polyline fill="#FFFFFF" points="126,165 126,134 126,134 126,133 127,133 127,132 127,131 128,131 128,131 129,130 130,130 130,130 183,130 184,130 185,130 185,131 186,131 186,131 187,132 187,133 188,133 188,134 188,134 188,165" stroke="#6d725c" /></g><g id="1A19" stroke="red"><polyline fill="#FFFFFF" points="70,156 70,133 107,133 107,156" stroke="#6d725c" /></g><g id="1A21" stroke="red"><polyline fill="#FFFFFF" points="70,133 70,110 107,110 107,133" stroke="#6d725c" /></g><g id="1A22" stroke="red"><polyline fill="#FFFFFF" points="70,110 70,110 70,48 252,48 252,110 107,110" stroke="#6d725c" /></g><g id="1B05" stroke="red"><polyline fill="#FFFFFF" points="158,334 191,334 191,384 158,384" stroke="#6d725c" /></g><g id="1B09" stroke="red"><polyline fill="#FFFFFF" points="158,334 158,283 158,283 191,283 191,334" stroke="#6d725c" /></g><g id="1C03" stroke="red"><polyline fill="#FFFFFF" points="244,435 244,401 303,401 306,401 306,435" stroke="#6d725c" /></g><g id="1C05" stroke="red"><polyline fill="#FFFFFF" points="272,333 272,384 244,384 244,333" stroke="#6d725c" /></g><g id="1C06" stroke="red"><polyline fill="#FFFFFF" points="286,384 286,316 317,316 317,384" stroke="#6d725c" /></g><g id="1C09" stroke="red"><polyline fill="#FFFFFF" points="244,333 244,283 272,283 272,333" stroke="#6d725c" /></g><g id="1C10" stroke="red"><polyline fill="#FFFFFF" points="317,316 286,316 286,283 349,283 349,316" stroke="#6d725c" /></g><g id="1C11" stroke="red"><polyline fill="#FFFFFF" points="272,244 272,270 249,270 249,244" stroke="#6d725c" /></g><g id="1C12" stroke="red"><polyline fill="#FFFFFF" points="286,270 286,229 317,229 317,270" stroke="#6d725c" /></g><g id="1C13" stroke="red"><polyline fill="#FFFFFF" points="249,244 249,217 272,217 272,244" stroke="#6d725c" /></g><g id="1C14" stroke="red"><polyline fill="#FFFFFF" points="317,229 286,229 286,185 286,185 317,185 317,197" stroke="#6d725c" /></g><g id="1C15" stroke="red"><polyline fill="#FFFFFF" points="249,217 249,191 272,191 272,217" stroke="#6d725c" /></g><g id="1C16" stroke="red"><polyline fill="#FFFFFF" points="286,185 286,165 317,165 317,185" stroke="#6d725c" /></g><g id="1C17" stroke="red"><polyline fill="#FFFFFF" points="249,191 249,165 272,165 272,191" stroke="#6d725c" /></g><g id="1C18" stroke="red"><polyline fill="#FFFFFF" points="286,165 286,134 286,134 286,133 286,133 286,132 287,131 287,131 288,131 288,130 289,130 290,130 317,130 317,165" stroke="#6d725c" /></g><g id="1C19" stroke="red"><polyline fill="#FFFFFF" points="249,165 249,134 249,134 249,133 249,133 249,132 250,131 250,131 251,131 252,130 252,130 253,130 268,130 269,130 269,130 270,131 270,131 271,131 271,132 272,133 272,133 272,134 272,134 272,165" stroke="#6d725c" /></g><g id="1C22" stroke="red"><polyline fill="#FFFFFF" points="364,51 364,110 264,110 264,48 308,48 308,17 322,17 322,42 365,42 365,51" stroke="#6d725c" /></g><g id="1D03" stroke="red"><polyline fill="#FFFFFF" points="306,435 306,401 370,401 370,467 306,467" stroke="#6d725c" /></g><g id="1D07" stroke="red"><polyline fill="#FFFFFF" points="317,316 349,316 349,384 317,384" stroke="#6d725c" /></g><g id="1D12" stroke="red"><polyline fill="#FFFFFF" points="400,229 400,266 400,266 400,267 399,268 399,268 399,269 398,269 397,269 397,270 396,270 396,270 367,270 366,270 366,270 365,269 365,269 364,269 364,268 363,268 363,267 363,266 363,266 363,229" stroke="#6d725c" /></g><g id="1D13" stroke="red"><polyline fill="#FFFFFF" points="317,229 349,229 349,270 317,270" stroke="#6d725c" /></g><g id="1D14" stroke="red"><polyline fill="#FFFFFF" points="363,229 363,197 400,197 400,229" stroke="#6d725c" /></g><g id="1D15" stroke="red"><polyline fill="#FFFFFF" points="317,229 317,197 349,197 349,229" stroke="#6d725c" /></g><g id="1D16" stroke="red"><polyline fill="#FFFFFF" points="363,197 363,164 400,164 400,197" stroke="#6d725c" /></g><g id="1D17" stroke="red"><polyline fill="#FFFFFF" points="317,197 317,185 317,165 349,165 349,197" stroke="#6d725c" /></g><g id="1D18" stroke="red"><polyline fill="#FFFFFF" points="363,164 363,134 363,134 363,133 363,133 364,132 364,131 365,131 365,131 366,130 366,130 367,130 396,130 396,130 397,130 397,131 398,131 399,131 399,132 399,133 400,133 400,134 400,134 400,164" stroke="#6d725c" /></g><g id="1D19" stroke="red"><polyline fill="#FFFFFF" points="317,165 317,130 345,130 345,130 346,130 346,131 347,131 348,131 348,132 348,133 349,133 349,134 349,134 349,165" stroke="#6d725c" /></g><g id="1D24" stroke="red"><polyline fill="#FFFFFF" points="364,110 364,51 365,51 366,51 366,21 368,21 368,19 425,19 425,110" stroke="#6d725c" /></g><g id="1E01" stroke="red"><polyline fill="#FFFFFF" points="393,467 393,401 441,401 441,467" stroke="#6d725c" /></g><g id="1E02" stroke="red"><polyline fill="#FFFFFF" points="441,467 441,401 504,401 504,467" stroke="#6d725c" /></g><g id="1E04" stroke="red"><polyline fill="#FFFFFF" points="488,350 488,380 488,380 488,381 488,381 488,382 487,383 487,383 486,383 485,384 485,384 484,384 425,384 425,384 424,384 423,383 423,383 422,383 422,382 421,381 421,381 421,380 421,380 421,350" stroke="#6d725c" /></g><g id="1E06" stroke="red"><polyline fill="#FFFFFF" points="421,350 421,316 488,316 488,350" stroke="#6d725c" /></g><g id="1E08" stroke="red"><polyline fill="#FFFFFF" points="421,316 421,283 488,283 488,316" stroke="#6d725c" /></g><g id="1E10" stroke="red"><polyline fill="#FFFFFF" points="448,203 488,203 488,266 488,266 488,267 488,268 488,268 487,269 487,269 486,269 485,270 485,270 484,270 425,270 425,270 424,270 423,269 423,269 422,269 422,268 421,268 421,267 421,266 421,266 421,203" stroke="#6d725c" /></g><g id="1E14" stroke="red"><polyline fill="#FFFFFF" points="448,203 448,167 488,167 488,203" stroke="#6d725c" /></g><g id="1E15" stroke="red"><polyline fill="#FFFFFF" points="421,203 421,167 448,167 448,203" stroke="#6d725c" /></g><g id="1E16" stroke="red"><polyline fill="#FFFFFF" points="448,167 421,167 421,134 421,134 421,133 421,133 422,132 422,131 423,131 423,131 424,130 425,130 425,130 484,130 485,130 485,130 486,131 487,131 487,131 488,132 488,133 488,133 488,134 488,134 488,167" stroke="#6d725c" /></g><g id="1E24" stroke="red"><polyline fill="#FFFFFF" points="487,110 425,110 425,19 484,19 484,46 482,46 482,51 487,51 487,77" stroke="#6d725c" /></g><g id="1G03" stroke="red"><polyline fill="#FFFFFF" points="504,401 548,401 548,467 504,467" stroke="#6d725c" /></g><g id="1G05" stroke="red"><polyline fill="#FFFFFF" points="548,336 548,358 548,359 548,360 548,360 547,361 547,361 546,362 546,362 545,362 545,362 544,363 514,363 513,362 513,362 512,362 511,362 511,361 510,361 510,360 510,360 510,359 510,358 510,336" stroke="#6d725c" /></g><g id="1G07" stroke="red"><polyline fill="#FFFFFF" points="510,336 510,287 510,286 510,285 510,285 510,284 511,284 511,283 512,283 513,283 513,283 514,283 548,283 548,336" stroke="#6d725c" /></g><g id="1G09" stroke="red"><polyline fill="#FFFFFF" points="544,229 544,270 514,270 513,270 513,270 512,269 511,269 511,269 510,268 510,268 510,267 510,266 510,266 510,229" stroke="#6d725c" /></g><g id="1G11A" stroke="red"><polyline fill="#FFFFFF" points="510,229 510,197 544,197 544,229" stroke="#6d725c" /></g><g id="1G15" stroke="red"><polyline fill="#FFFFFF" points="487,77 529,77 529,110 487,110" stroke="#6d725c" /></g><g id="1G17" stroke="red"><polyline fill="#FFFFFF" points="661,110 542,110 542,64 542,51 547,51 547,48 661,48" stroke="#6d725c" /></g><g id="1G18" stroke="red"><polyline fill="#FFFFFF" points="661,48 705,48 705,110 661,110" stroke="#6d725c" /></g><g id="1Y01" stroke="red"><polyline fill="#FFFFFF" points="684,399 684,392 720,392 721,392 721,469 602,469 602,399 654,399 610,401 602,401 602,408 610,408" stroke="#6d725c" /></g><g id="1Y02" stroke="red"><polyline fill="#FFFFFF" points="510,197 510,134 510,134 510,133 510,133 510,132 511,131 511,131 512,131 513,130 513,130 514,130 540,130 540,130 541,130 542,131 542,131 543,131 543,132 543,133 544,133 544,134 544,134 544,197" stroke="#6d725c" /></g><g id="1Y03" stroke="red"><polyline fill="#FFFFFF" points="244,467 244,435 306,435 306,467" stroke="#6d725c" /></g><g id="1Y04" stroke="red"><polyline fill="#FFFFFF" points="684,392 684,399 654,399 654,388 649,388 601,388 601,387 601,342 601,330 614,305 705,305 705,322 720,322 720,392" stroke="#6d725c" /></g><g id="1Y05" stroke="red"><polyline fill="#FFFFFF" points="705,227 705,290 625,290 625,227" stroke="#6d725c" /></g><g id="1Y06" stroke="red"><polyline fill="#FFFFFF" points="625,227 625,167 705,167 705,227" stroke="#6d725c" /></g><g id="1Y07" stroke="red"><polyline fill="#FFFFFF" points="625,167 625,127 705,127 705,167" stroke="#6d725c" /></g></svg>