<?xml version="1.0" encoding="utf-8" ?>
<svg baseProfile="full" height="549" version="1.1" width="800" xmlns="http://www.w3.org/2000/svg" xmlns:ev="http://www.w3.org/2001/xml-events" xmlns:xlink="http://www.w3.org/1999/xlink"><defs /><g id="0Y01" stroke="red"><polyline fill="#FFFFFF" points="566,45 566,144 566,171 556,171 556,502 67,502 67,464 67,288 47,288 47,268 55,268 55,246 14,246 14,232 14,198 64,198 64,106 65,106 125,45 326,45 326,40 331,40 331,39 341,39 341,40 352,40 352,39 363,39 363,40 367,40 367,45 534,45 534,47 563,47 563,45" stroke="#6d725c" /></g><g id="0Z03" stroke="red"><polyline fill="#FFFFFF" points="566,45 563,45 563,18 712,18 712,47 712,47 712,479 582,479 582,287 635,287 635,144 566,144" stroke="#6d725c" /></g></svg>