<?xml version="1.0" encoding="utf-8" ?>
<svg baseProfile="full" height="503" version="1.1" width="800" xmlns="http://www.w3.org/2000/svg" xmlns:ev="http://www.w3.org/2001/xml-events" xmlns:xlink="http://www.w3.org/1999/xlink"><defs /><g id="1A01" stroke="red"><polyline points="109,439 109,489 109,489 73,489 73,489 73,439" stroke="#6d725c" /></g><g id="1A02" stroke="red"><polyline points="126,489 126,423 193,423 193,489" stroke="#6d725c" /></g><g id="1A03A" stroke="red"><polyline points="73,439 73,422 109,422 109,439" stroke="#6d725c" /></g><g id="1A03B" stroke="red"><polyline points="73,422 73,405 109,405 109,422" stroke="#6d725c" /></g><g id="1A05" stroke="red"><polyline points="74,405 73,405 73,371 73,371 109,371 109,371 109,405" stroke="#6d725c" /></g><g id="1A06" stroke="red"><polyline points="159,406 126,406 126,356 159,356 159,356" stroke="#6d725c" /></g><g id="1A07" stroke="red"><polyline points="73,371 73,338 74,338 109,338 109,371" stroke="#6d725c" /></g><g id="1A09" stroke="red"><polyline points="74,338 74,307 109,307 109,338" stroke="#6d725c" /></g><g id="1A10" stroke="red"><polyline points="126,356 126,305 159,305 159,356" stroke="#6d725c" /></g><g id="1A11" stroke="red"><polyline points="108,239 108,239 108,239 108,288 73,288 73,252 71,252 71,239 89,239" stroke="#6d725c" /></g><g id="1A12" stroke="red"><polyline points="128,288 128,288 128,288 127,287 127,287 127,287 126,287 126,286 126,286 126,286 126,285 126,257 157,257 157,288" stroke="#6d725c" /></g><g id="1A14" stroke="red"><polyline points="126,257 126,229 126,228 126,228 126,228 126,227 127,227 127,227 127,227 128,227 128,226 128,226 157,226 157,257" stroke="#6d725c" /></g><g id="1A15" stroke="red"><polyline points="89,239 71,239 71,204 108,204 108,239" stroke="#6d725c" /></g><g id="1A16" stroke="red"><polyline points="128,214 128,214 128,214 127,214 127,213 127,213 126,213 126,213 126,212 126,212 126,211 126,183 157,183 157,214" stroke="#6d725c" /></g><g id="1A17" stroke="red"><polyline points="71,204 71,178 108,178 108,204" stroke="#6d725c" /></g><g id="1A18" stroke="red"><polyline points="126,183 126,168 126,168 126,168 126,168 126,168 126,167 126,167 126,167 126,167 126,167 127,167 140,153 140,153 140,153 140,153 140,153 140,153 141,153 141,153 141,153 141,153 141,153 157,153 157,183" stroke="#6d725c" /></g><g id="1A19" stroke="red"><polyline points="71,178 71,157 108,157 108,178" stroke="#6d725c" /></g><g id="1A20" stroke="red"><polyline points="132,133 132,94 192,94 192,133" stroke="#6d725c" /></g><g id="1A21" stroke="red"><polyline points="108,157 71,157 71,94 132,94 132,133" stroke="#6d725c" /></g><g id="1B01" stroke="red"><polyline points="210,438 209,438 209,438 209,438 209,438 208,438 208,437 208,437 208,437 208,437 208,436 208,424 208,424 208,424 208,424 208,423 208,423 209,423 209,423 209,423 209,423 210,423 210,423 210,423 227,423 228,423 228,423 228,423 228,423 228,423 229,423 229,424 229,424 229,424 229,424 229,436 229,437 229,437 229,437 229,437 228,438 228,438 228,438 228,438 228,438 227,438" stroke="#6d725c" /></g><g id="1B05" stroke="red"><polyline points="159,356 192,356 192,406 159,406" stroke="#6d725c" /></g><g id="1B09" stroke="red"><polyline points="159,356 159,305 159,305 192,305 192,356" stroke="#6d725c" /></g><g id="1B11" stroke="red"><polyline points="157,257 188,257 188,288 157,288" stroke="#6d725c" /></g><g id="1B13" stroke="red"><polyline points="157,257 157,226 188,226 188,257" stroke="#6d725c" /></g><g id="1B15" stroke="red"><polyline points="157,183 188,183 188,214 157,214" stroke="#6d725c" /></g><g id="1B17" stroke="red"><polyline points="157,183 157,153 186,153 186,153 186,153 187,153 187,153 187,153 188,153 188,154 188,154 188,154 188,155 188,183" stroke="#6d725c" /></g><g id="1C01" stroke="red"><polyline points="245,489 245,444 307,444 307,489" stroke="#6d725c" /></g><g id="1C02" stroke="red"><polyline points="245,444 245,423 304,423 307,423 307,444" stroke="#6d725c" /></g><g id="1C05" stroke="red"><polyline points="271,355 271,406 245,406 245,355" stroke="#6d725c" /></g><g id="1C06" stroke="red"><polyline points="284,406 284,339 316,339 316,406" stroke="#6d725c" /></g><g id="1C09" stroke="red"><polyline points="245,355 245,305 271,305 271,355" stroke="#6d725c" /></g><g id="1C10" stroke="red"><polyline points="316,339 284,339 284,305 347,305 347,339" stroke="#6d725c" /></g><g id="1C11" stroke="red"><polyline points="273,283 273,284 273,285 272,285 272,286 272,286 271,287 271,287 270,288 269,288 269,288 249,288 249,240 273,240" stroke="#6d725c" /></g><g id="1C12" stroke="red"><polyline points="286,220 286,220 286,155 286,154 286,154 287,154 287,153 287,153 287,153 288,153 288,153 288,153 289,153 317,153 317,220" stroke="#6d725c" /></g><g id="1C17" stroke="red"><polyline points="249,240 249,187 273,187 273,240" stroke="#6d725c" /></g><g id="1C19" stroke="red"><polyline points="249,187 249,187 249,187 249,157 249,156 250,155 250,155 250,154 251,154 251,153 252,153 252,153 253,153 254,153 269,153 269,153 270,153 271,153 271,153 272,154 272,154 272,155 273,155 273,156 273,157 273,187" stroke="#6d725c" /></g><g id="1C20" stroke="red"><polyline points="308,133 265,133 265,70 308,70 308,94" stroke="#6d725c" /></g><g id="1C21" stroke="red"><polyline points="192,94 252,94 252,133 192,133" stroke="#6d725c" /></g><g id="1D03" stroke="red"><polyline points="307,444 307,423 370,423 370,489 307,489" stroke="#6d725c" /></g><g id="1D07" stroke="red"><polyline points="316,339 347,339 347,406 316,406" stroke="#6d725c" /></g><g id="1D09" stroke="red"><polyline points="317,288 289,288 288,288 288,288 288,287 287,287 287,287 287,287 287,286 286,286 286,286 286,285 286,220 317,220 317,251" stroke="#6d725c" /></g><g id="1D10A" stroke="red"><polyline points="317,251 349,251 349,285 349,286 349,286 349,286 349,287 349,287 348,287 348,287 348,288 347,288 347,288 317,288" stroke="#6d725c" /></g><g id="1D10B" stroke="red"><polyline points="317,251 317,220 349,220 349,251" stroke="#6d725c" /></g><g id="1D11" stroke="red"><polyline points="317,220 317,153 347,153 347,153 348,153 348,153 348,153 349,153 349,153 349,154 349,154 349,154 349,155 349,220" stroke="#6d725c" /></g><g id="1D12" stroke="red"><polyline points="400,250 400,283 400,284 400,285 400,285 400,286 399,286 399,287 398,287 397,288 397,288 396,288 368,288 367,288 366,288 366,287 365,287 365,286 364,286 364,285 364,285 364,284 364,283 364,250" stroke="#6d725c" /></g><g id="1D14" stroke="red"><polyline points="364,250 364,219 400,219 400,250" stroke="#6d725c" /></g><g id="1D16" stroke="red"><polyline points="364,219 364,187 400,187 400,219" stroke="#6d725c" /></g><g id="1D18" stroke="red"><polyline points="364,187 364,157 364,156 364,155 364,155 364,154 365,154 365,153 366,153 366,153 367,153 368,153 396,153 397,153 397,153 398,153 399,153 399,154 400,154 400,155 400,155 400,156 400,157 400,187" stroke="#6d725c" /></g><g id="1D19" stroke="red"><polyline points="308,133 308,94 365,94 365,133" stroke="#6d725c" /></g><g id="1D20" stroke="red"><polyline points="426,133 365,133 365,94 426,94 426,94" stroke="#6d725c" /></g><g id="1E01" stroke="red"><polyline points="393,489 393,423 442,423 442,489" stroke="#6d725c" /></g><g id="1E02" stroke="red"><polyline points="442,489 442,423 504,423 504,489" stroke="#6d725c" /></g><g id="1E04" stroke="red"><polyline points="426,406 425,406 424,406 424,405 423,405 423,404 422,404 422,403 422,403 422,402 422,401 422,338 455,338 455,406" stroke="#6d725c" /></g><g id="1E06" stroke="red"><polyline points="455,338 489,338 489,401 489,402 489,403 488,403 488,404 488,404 487,405 487,405 486,406 485,406 485,406 455,406" stroke="#6d725c" /></g><g id="1E08" stroke="red"><polyline points="455,338 422,338 422,305 489,305 489,338" stroke="#6d725c" /></g><g id="1E10" stroke="red"><polyline points="489,225 489,288 489,288 489,289 488,290 488,290 488,291 487,291 487,291 486,292 485,292 485,292 426,292 425,292 424,292 424,291 423,291 423,291 422,290 422,290 422,289 422,288 422,288 422,225" stroke="#6d725c" /></g><g id="1E14" stroke="red"><polyline points="422,225 422,189 489,189 489,225" stroke="#6d725c" /></g><g id="1E16" stroke="red"><polyline points="422,189 422,157 422,156 422,155 422,155 422,154 423,154 423,153 424,153 424,153 425,153 426,153 485,153 485,153 486,153 487,153 487,153 488,154 488,154 488,155 489,155 489,156 489,157 489,189" stroke="#6d725c" /></g><g id="1E20" stroke="red"><polyline points="426,94 457,94 487,94 487,94 529,94 529,133 426,133" stroke="#6d725c" /></g><g id="1G03" stroke="red"><polyline points="504,423 548,423 548,489 504,489" stroke="#6d725c" /></g><g id="1G04" stroke="red"><polyline points="684,414 684,421 654,421 654,410 649,410 601,410 601,409 601,364 601,352 614,327 705,327 705,344 720,344 720,414" stroke="#6d725c" /></g><g id="1G05" stroke="red"><polyline points="549,358 549,380 548,381 548,382 548,382 548,383 547,383 547,384 546,384 546,384 545,384 544,385 514,385 514,384 513,384 512,384 512,384 511,383 511,383 510,382 510,382 510,381 510,380 510,358" stroke="#6d725c" /></g><g id="1G06" stroke="red"><polyline points="705,249 705,312 626,312 626,249" stroke="#6d725c" /></g><g id="1G07" stroke="red"><polyline points="510,358 510,309 510,308 510,308 510,307 511,306 511,306 512,305 512,305 513,305 514,305 514,305 549,305 549,358" stroke="#6d725c" /></g><g id="1G08" stroke="red"><polyline points="626,249 626,190 705,190 705,249" stroke="#6d725c" /></g><g id="1G09" stroke="red"><polyline points="544,251 544,292 514,292 514,292 513,292 512,291 512,291 511,291 511,290 510,290 510,289 510,288 510,288 510,251" stroke="#6d725c" /></g><g id="1G10" stroke="red"><polyline points="626,190 626,150 705,150 705,190" stroke="#6d725c" /></g><g id="1G11A" stroke="red"><polyline points="510,251 510,219 544,219 544,251" stroke="#6d725c" /></g><g id="1G13" stroke="red"><polyline points="510,219 510,157 510,156 510,155 510,155 511,154 511,154 512,153 512,153 513,153 514,153 514,153 540,153 541,153 541,153 542,153 543,153 543,154 543,154 544,155 544,155 544,156 544,157 544,219" stroke="#6d725c" /></g><g id="1G17" stroke="red"><polyline points="661,133 542,133 542,86 542,73 547,73 547,70 661,70" stroke="#6d725c" /></g><g id="1G18" stroke="red"><polyline points="661,70 705,70 705,133 661,133" stroke="#6d725c" /></g><g id="1Y01" stroke="red"><polyline points="684,421 684,414 720,414 721,414 721,490 602,490 602,421 654,421" stroke="#6d725c" /></g><g id="1Y08" stroke="red"><polyline points="457,94 426,94 426,94 426,91 426,41 484,41 484,70 488,70 488,94 487,94" stroke="#6d725c" /></g><g id="1Y09" stroke="red"><polyline points="365,94 365,68 365,68 367,68 367,41 426,41 426,94" stroke="#6d725c" /></g><g id="1Y10" stroke="red"><polyline points="365,68 365,94 365,94 308,94 308,70 308,40 323,40 323,64 365,64 365,68" stroke="#6d725c" /></g><g id="1Y11" stroke="red"><polyline points="192,94 132,94 71,94 71,70 252,70 252,94 252,94" stroke="#6d725c" /></g></svg>