<?xml version="1.0" encoding="utf-8" ?>
<svg baseProfile="full" height="492" version="1.1" width="800" xmlns="http://www.w3.org/2000/svg" xmlns:ev="http://www.w3.org/2001/xml-events" xmlns:xlink="http://www.w3.org/1999/xlink"><defs /><g id="3A01" stroke="red"><polyline points="67,457 67,457 67,434 104,434 104,457" stroke="#6d725c" /></g><g id="3A01A" stroke="red"><polyline points="104,473 63,473 63,457 67,457 104,457 121,457 121,473" stroke="#6d725c" /></g><g id="3A02" stroke="red"><polyline points="121,473 121,457 121,440 155,440 155,441 155,473" stroke="#6d725c" /></g><g id="3A03" stroke="red"><polyline points="67,434 67,409 104,409 104,434" stroke="#6d725c" /></g><g id="3A04" stroke="red"><polyline points="145,395 145,421 145,422 145,422 145,423 144,424 144,424 143,425 143,425 142,425 142,425 141,425 124,425 124,425 123,425 122,425 122,425 121,424 121,424 120,423 120,422 120,422 120,421 120,395" stroke="#6d725c" /></g><g id="3A05" stroke="red"><polyline points="104,355 104,396 67,396 67,355" stroke="#6d725c" /></g><g id="3A06" stroke="red"><polyline points="120,395 120,369 120,369 120,368 120,368 121,367 121,366 122,366 122,366 123,365 124,365 124,365 141,365 142,365 142,365 143,366 143,366 144,366 144,367 145,368 145,368 145,369 145,369 145,395" stroke="#6d725c" /></g><g id="3A07" stroke="red"><polyline points="67,355 67,321 104,321 104,355" stroke="#6d725c" /></g><g id="3A08" stroke="red"><polyline points="145,321 145,351 145,352 145,352 145,353 144,354 144,354 143,355 143,355 142,355 142,355 141,355 120,355 120,321" stroke="#6d725c" /></g><g id="3A09" stroke="red"><polyline points="67,321 67,289 104,289 104,321" stroke="#6d725c" /></g><g id="3A10" stroke="red"><polyline points="120,321 120,287 141,287 142,287 142,287 143,288 143,288 144,288 144,289 145,289 145,290 145,291 145,291 145,321" stroke="#6d725c" /></g><g id="3A11" stroke="red"><polyline points="104,232 104,264 67,264 67,232" stroke="#6d725c" /></g><g id="3A12A" stroke="red"><polyline points="167,251 167,270 167,270 167,271 167,272 166,272 166,273 165,273 165,274 164,274 164,274 163,274 125,274 125,274 124,274 123,274 123,273 122,273 122,272 122,272 121,271 121,270 121,270 121,251" stroke="#6d725c" /></g><g id="3A12B" stroke="red"><polyline points="121,251 121,229 163,229 164,229 164,229 165,229 165,229 166,230 166,230 167,231 167,232 167,232 167,233 167,251" stroke="#6d725c" /></g><g id="3A13" stroke="red"><polyline points="104,232 67,232 64,232 64,207 65,207 65,207 104,207" stroke="#6d725c" /></g><g id="3A14" stroke="red"><polyline points="167,192 167,212 167,212 167,213 167,214 166,214 166,215 165,215 165,215 164,216 164,216 163,216 125,216 125,216 124,216 123,215 123,215 122,215 122,214 122,214 121,213 121,212 121,212 121,192" stroke="#6d725c" /></g><g id="3A15" stroke="red"><polyline points="65,207 65,174 104,174 104,207" stroke="#6d725c" /></g><g id="3A16" stroke="red"><polyline points="121,192 121,169 163,169 164,169 164,169 165,170 165,170 166,170 166,171 167,171 167,172 167,173 167,173 167,192" stroke="#6d725c" /></g><g id="3A17" stroke="red"><polyline points="65,174 64,174 64,143 104,143 104,174" stroke="#6d725c" /></g><g id="3A18" stroke="red"><polyline points="145,120 145,152 145,153 145,153 145,154 144,155 144,155 143,156 143,156 142,156 142,156 141,156 125,156 125,156 124,156 123,156 123,156 122,155 122,155 122,154 121,153 121,153 121,152 121,120" stroke="#6d725c" /></g><g id="3A19" stroke="red"><polyline points="64,143 64,113 104,113 104,143" stroke="#6d725c" /></g><g id="3A20" stroke="red"><polyline points="121,120 121,88 121,88 121,87 122,86 122,86 122,85 123,85 123,85 124,84 125,84 125,84 141,84 142,84 142,84 143,85 143,85 144,85 144,86 145,86 145,87 145,88 145,88 145,120" stroke="#6d725c" /></g><g id="3A21" stroke="red"><polyline points="104,113 64,113 64,83 64,83 104,83" stroke="#6d725c" /></g><g id="3A22A" stroke="red"><polyline points="118,69 118,53 150,53 150,69" stroke="#6d725c" /></g><g id="3A22B" stroke="red"><polyline points="182,69 182,69 150,69 150,53 150,53 182,53 182,53" stroke="#6d725c" /></g><g id="3A23" stroke="red"><polyline points="118,69 104,69 104,83 86,83 64,83 64,53 118,53" stroke="#6d725c" /></g><g id="3B01" stroke="red"><polyline points="155,473 155,441 155,440 183,440 183,473" stroke="#6d725c" /></g><g id="3B02A" stroke="red"><polyline points="183,473 183,440 214,440 214,473" stroke="#6d725c" /></g><g id="3B02B" stroke="red"><polyline points="243,473 214,473 214,440 243,440" stroke="#6d725c" /></g><g id="3B03" stroke="red"><polyline points="162,425 161,425 161,425 160,425 160,425 159,424 159,424 158,423 158,422 158,422 158,421 158,395 184,395 184,425" stroke="#6d725c" /></g><g id="3B04" stroke="red"><polyline points="184,395 211,395 211,421 211,422 210,422 210,423 210,424 209,424 209,425 208,425 208,425 207,425 206,425 184,425" stroke="#6d725c" /></g><g id="3B05" stroke="red"><polyline points="158,395 158,369 158,369 158,368 158,368 159,367 159,366 160,366 160,366 161,365 161,365 162,365 184,365 184,395" stroke="#6d725c" /></g><g id="3B06" stroke="red"><polyline points="184,395 184,365 206,365 207,365 208,365 208,366 209,366 209,366 210,367 210,368 210,368 211,369 211,369 211,395" stroke="#6d725c" /></g><g id="3B07" stroke="red"><polyline points="162,355 161,355 161,355 160,355 160,355 159,354 159,354 158,353 158,352 158,352 158,351 158,321 184,321 184,355" stroke="#6d725c" /></g><g id="3B08" stroke="red"><polyline points="184,321 211,321 211,351 211,352 210,352 210,353 210,354 209,354 209,355 208,355 208,355 207,355 206,355 184,355" stroke="#6d725c" /></g><g id="3B09" stroke="red"><polyline points="158,321 158,291 158,291 158,290 158,289 159,289 159,288 160,288 160,288 161,287 161,287 162,287 184,287 184,321" stroke="#6d725c" /></g><g id="3B10" stroke="red"><polyline points="184,321 184,287 206,287 207,287 208,287 208,288 209,288 209,288 210,289 210,289 210,290 211,291 211,291 211,321" stroke="#6d725c" /></g><g id="3B12" stroke="red"><polyline points="185,120 212,120 212,152 212,153 212,153 211,154 211,155 211,155 210,156 209,156 209,156 208,156 207,156 185,156" stroke="#6d725c" /></g><g id="3B14" stroke="red"><polyline points="185,120 185,84 207,84 208,84 209,84 209,85 210,85 211,85 211,86 211,86 212,87 212,88 212,88 212,120" stroke="#6d725c" /></g><g id="3B17" stroke="red"><polyline points="162,156 161,156 161,156 160,156 160,156 159,155 159,155 158,154 158,153 158,153 158,152 158,120 185,120 185,156" stroke="#6d725c" /></g><g id="3B19" stroke="red"><polyline points="158,120 158,88 158,88 158,87 158,86 159,86 159,85 160,85 160,85 161,84 161,84 162,84 185,84 185,120" stroke="#6d725c" /></g><g id="3B22A" stroke="red"><polyline points="211,69 182,69 182,53 211,53 211,53" stroke="#6d725c" /></g><g id="3B22B" stroke="red"><polyline points="211,53 221,53 221,56 246,56 246,69 211,69" stroke="#6d725c" /></g><g id="3C01" stroke="red"><polyline points="243,473 243,440 273,440 273,441 273,473" stroke="#6d725c" /></g><g id="3C02" stroke="red"><polyline points="273,473 273,441 273,440 303,440 303,473" stroke="#6d725c" /></g><g id="3C03" stroke="red"><polyline points="243,425 243,425 242,425 241,425 241,425 240,424 240,424 239,423 239,422 239,422 239,421 239,395 273,395 273,425" stroke="#6d725c" /></g><g id="3C04" stroke="red"><polyline points="303,473 303,440 332,440 332,441 332,473" stroke="#6d725c" /></g><g id="3C05" stroke="red"><polyline points="239,395 239,369 239,369 239,368 239,368 240,367 240,366 241,366 241,366 242,365 243,365 243,365 273,365 273,395" stroke="#6d725c" /></g><g id="3C06" stroke="red"><polyline points="273,395 307,395 307,421 307,422 307,422 307,423 306,424 306,424 305,425 305,425 304,425 303,425 303,425 273,425" stroke="#6d725c" /></g><g id="3C07" stroke="red"><polyline points="239,355 239,321 273,321 273,355" stroke="#6d725c" /></g><g id="3C08" stroke="red"><polyline points="273,395 273,365 303,365 303,365 304,365 305,366 305,366 306,366 306,367 307,368 307,368 307,369 307,369 307,395" stroke="#6d725c" /></g><g id="3C09" stroke="red"><polyline points="239,321 239,287 273,287 273,321" stroke="#6d725c" /></g><g id="3C10" stroke="red"><polyline points="273,321 307,321 307,355 273,355" stroke="#6d725c" /></g><g id="3C12" stroke="red"><polyline points="273,321 273,287 307,287 307,321" stroke="#6d725c" /></g><g id="3C14" stroke="red"><polyline points="306,253 306,273 306,274 306,274 305,275 305,275 305,276 304,276 304,277 303,277 302,277 302,277 264,277 263,277 263,277 262,277 262,276 261,276 261,275 260,275 260,274 260,274 260,273 260,253" stroke="#6d725c" /></g><g id="3C16" stroke="red"><polyline points="260,253 260,233 260,232 260,232 260,231 261,230 261,230 262,229 262,229 263,229 263,229 264,229 306,229 306,253" stroke="#6d725c" /></g><g id="3C18" stroke="red"><polyline points="306,192 306,212 306,212 306,213 305,214 305,214 305,215 304,215 304,215 303,216 302,216 302,216 264,216 263,216 263,216 262,215 262,215 261,215 261,214 260,214 260,213 260,212 260,212 260,192" stroke="#6d725c" /></g><g id="3C19" stroke="red"><polyline points="244,156 244,156 243,156 242,156 242,156 241,155 241,155 241,154 240,153 240,153 240,152 240,110 273,110 273,156" stroke="#6d725c" /></g><g id="3C20" stroke="red"><polyline points="260,192 260,173 260,173 260,172 260,171 261,171 261,170 262,170 262,170 263,169 263,169 264,169 306,169 306,192" stroke="#6d725c" /></g><g id="3C21" stroke="red"><polyline points="240,110 240,88 240,88 240,87 241,86 241,86 241,85 242,85 242,85 243,84 244,84 244,84 273,84 273,110" stroke="#6d725c" /></g><g id="3C22A" stroke="red"><polyline points="273,110 306,110 306,152 306,153 306,153 305,154 305,155 305,155 304,156 304,156 303,156 302,156 302,156 273,156" stroke="#6d725c" /></g><g id="3C22B" stroke="red"><polyline points="273,110 273,84 302,84 302,84 303,84 304,85 304,85 305,85 305,86 305,86 306,87 306,88 306,88 306,110" stroke="#6d725c" /></g><g id="3C24" stroke="red"><polyline points="260,69 260,56 260,55 260,53 307,53 307,69" stroke="#6d725c" /></g><g id="3D01" stroke="red"><polyline points="332,441 332,440 357,440 357,440 357,473 332,473" stroke="#6d725c" /></g><g id="3D02A" stroke="red"><polyline points="362,473 362,440 388,440 388,473" stroke="#6d725c" /></g><g id="3D02B" stroke="red"><polyline points="388,473 388,473 388,440 418,440 418,473" stroke="#6d725c" /></g><g id="3D03" stroke="red"><polyline points="346,395 346,421 346,422 346,422 345,423 345,424 345,424 344,425 344,425 343,425 342,425 342,425 324,425 323,425 323,425 322,425 321,425 321,424 321,424 320,423 320,422 320,422 320,421 320,395" stroke="#6d725c" /></g><g id="3D04" stroke="red"><polyline points="362,425 362,395 394,395 394,425" stroke="#6d725c" /></g><g id="3D05" stroke="red"><polyline points="320,395 320,369 320,369 320,368 320,368 321,367 321,366 321,366 322,366 323,365 323,365 324,365 342,365 342,365 343,365 344,366 344,366 345,366 345,367 345,368 346,368 346,369 346,369 346,395" stroke="#6d725c" /></g><g id="3D06" stroke="red"><polyline points="362,395 362,365 394,365 394,395" stroke="#6d725c" /></g><g id="3D07" stroke="red"><polyline points="362,321 362,335 348,335 348,355 324,355 323,355 323,355 322,355 321,355 321,354 321,354 320,353 320,352 320,352 320,351 320,321" stroke="#6d725c" /></g><g id="3D08" stroke="red"><polyline points="362,277 362,253 393,253 393,277" stroke="#6d725c" /></g><g id="3D09" stroke="red"><polyline points="320,321 320,291 320,291 320,290 320,289 321,289 321,288 321,288 322,288 323,287 323,287 324,287 362,287 362,321" stroke="#6d725c" /></g><g id="3D10" stroke="red"><polyline points="362,253 362,229 393,229 393,253" stroke="#6d725c" /></g><g id="3D11" stroke="red"><polyline points="347,253 347,273 347,274 347,274 347,275 346,275 346,276 345,276 345,277 344,277 343,277 343,277 323,277 322,277 322,277 321,277 320,276 320,276 319,275 319,275 319,274 319,274 319,273 319,253" stroke="#6d725c" /></g><g id="3D12" stroke="red"><polyline points="362,216 362,192 393,192 393,216" stroke="#6d725c" /></g><g id="3D13" stroke="red"><polyline points="319,253 319,233 319,232 319,232 319,231 319,230 320,230 320,229 321,229 322,229 322,229 323,229 343,229 343,229 344,229 345,229 345,229 346,230 346,230 347,231 347,232 347,232 347,233 347,253" stroke="#6d725c" /></g><g id="3D14" stroke="red"><polyline points="362,192 362,169 393,169 393,192" stroke="#6d725c" /></g><g id="3D15" stroke="red"><polyline points="347,192 347,212 347,212 347,213 347,214 346,214 346,215 345,215 345,215 344,216 343,216 343,216 323,216 322,216 322,216 321,215 320,215 320,215 319,214 319,214 319,213 319,212 319,212 319,192" stroke="#6d725c" /></g><g id="3D16" stroke="red"><polyline points="362,156 362,120 393,120 393,156" stroke="#6d725c" /></g><g id="3D17" stroke="red"><polyline points="319,192 319,173 319,173 319,172 319,171 319,171 320,170 320,170 321,170 322,169 322,169 323,169 343,169 343,169 344,169 345,170 345,170 346,170 346,171 347,171 347,172 347,173 347,173 347,192" stroke="#6d725c" /></g><g id="3D18" stroke="red"><polyline points="362,120 362,84 393,84 393,120" stroke="#6d725c" /></g><g id="3D19" stroke="red"><polyline points="347,120 347,152 347,153 347,153 347,154 346,155 346,155 345,156 345,156 344,156 343,156 343,156 323,156 322,156 322,156 321,156 320,156 320,155 319,155 319,154 319,153 319,153 319,152 319,120" stroke="#6d725c" /></g><g id="3D21" stroke="red"><polyline points="319,120 319,88 319,88 319,87 319,86 319,86 320,85 320,85 321,85 322,84 322,84 323,84 343,84 343,84 344,84 345,85 345,85 346,85 346,86 347,86 347,87 347,88 347,88 347,120" stroke="#6d725c" /></g><g id="3D22" stroke="red"><polyline points="363,69 363,25 363,24 392,24 392,69" stroke="#6d725c" /></g><g id="3D24" stroke="red"><polyline points="392,69 392,25 425,25 425,69" stroke="#6d725c" /></g><g id="3E02" stroke="red"><polyline points="418,473 418,440 451,440 451,473" stroke="#6d725c" /></g><g id="3E04" stroke="red"><polyline points="451,473 451,440 481,440 481,473" stroke="#6d725c" /></g><g id="3E05" stroke="red"><polyline points="394,395 426,395 426,421 426,422 426,422 426,423 425,424 425,424 424,425 424,425 423,425 422,425 422,425 394,425" stroke="#6d725c" /></g><g id="3E06" stroke="red"><polyline points="464,395 464,421 464,422 464,422 464,423 463,424 463,424 462,425 462,425 461,425 461,425 460,425 443,425 442,425 442,425 441,425 441,425 440,424 440,424 439,423 439,422 439,422 439,421 439,395" stroke="#6d725c" /></g><g id="3E07" stroke="red"><polyline points="394,395 394,365 422,365 422,365 423,365 424,366 424,366 425,366 425,367 426,368 426,368 426,369 426,369 426,395" stroke="#6d725c" /></g><g id="3E08" stroke="red"><polyline points="439,395 439,369 439,369 439,368 439,368 440,367 440,366 441,366 441,366 442,365 442,365 443,365 460,365 461,365 461,365 462,366 462,366 463,366 463,367 464,368 464,368 464,369 464,369 464,395" stroke="#6d725c" /></g><g id="3E09" stroke="red"><polyline points="426,326 426,354 396,354 396,326" stroke="#6d725c" /></g><g id="3E10" stroke="red"><polyline points="464,321 464,351 464,351 464,352 464,353 463,353 463,354 462,354 462,355 461,355 461,355 460,355 443,355 442,355 442,355 441,355 441,354 440,354 440,353 439,353 439,352 439,351 439,351 439,321" stroke="#6d725c" /></g><g id="3E11" stroke="red"><polyline points="396,326 396,288 397,288 426,288 426,326" stroke="#6d725c" /></g><g id="3E12" stroke="red"><polyline points="439,321 439,291 439,291 439,290 439,289 440,289 440,288 441,288 441,288 442,287 442,287 443,287 460,287 461,287 461,287 462,288 462,288 463,288 463,289 464,289 464,290 464,291 464,291 464,321" stroke="#6d725c" /></g><g id="3E13" stroke="red"><polyline points="393,253 425,253 425,273 425,274 425,274 424,275 424,275 424,276 423,276 423,277 422,277 421,277 421,277 393,277" stroke="#6d725c" /></g><g id="3E14" stroke="red"><polyline points="465,253 465,273 465,274 465,274 465,275 464,275 464,276 464,276 463,277 462,277 462,277 461,277 442,277 441,277 441,277 440,277 439,276 439,276 438,275 438,275 438,274 438,274 438,273 438,253" stroke="#6d725c" /></g><g id="3E15" stroke="red"><polyline points="393,253 393,229 425,229 425,253" stroke="#6d725c" /></g><g id="3E16" stroke="red"><polyline points="438,253 438,233 438,232 438,232 438,231 438,230 439,230 439,229 440,229 441,229 441,229 442,229 461,229 462,229 462,229 463,229 464,229 464,230 464,230 465,231 465,232 465,232 465,233 465,253" stroke="#6d725c" /></g><g id="3E17" stroke="red"><polyline points="393,192 425,192 425,212 425,212 425,213 424,214 424,214 424,215 423,215 423,215 422,216 421,216 421,216 393,216" stroke="#6d725c" /></g><g id="3E18" stroke="red"><polyline points="465,192 465,212 465,212 465,213 465,214 464,214 464,215 464,215 463,215 462,216 462,216 461,216 442,216 441,216 441,216 440,215 439,215 439,215 438,214 438,214 438,213 438,212 438,212 438,192" stroke="#6d725c" /></g><g id="3E19" stroke="red"><polyline points="393,192 393,169 425,169 425,192" stroke="#6d725c" /></g><g id="3E20" stroke="red"><polyline points="438,192 438,173 438,173 438,172 438,171 438,171 439,170 439,170 440,170 441,169 441,169 442,169 461,169 462,169 462,169 463,170 464,170 464,170 464,171 465,171 465,172 465,173 465,173 465,192" stroke="#6d725c" /></g><g id="3E21A" stroke="red"><polyline points="393,120 425,120 425,152 425,153 425,153 424,154 424,155 424,155 423,156 423,156 422,156 421,156 421,156 393,156" stroke="#6d725c" /></g><g id="3E21B" stroke="red"><polyline points="393,120 393,84 421,84 421,84 422,84 423,85 423,85 424,85 424,86 424,86 425,87 425,88 425,88 425,120" stroke="#6d725c" /></g><g id="3E22A" stroke="red"><polyline points="465,120 465,152 465,153 465,153 465,154 464,155 464,155 464,156 463,156 462,156 462,156 461,156 442,156 441,156 441,156 440,156 439,156 439,155 438,155 438,154 438,153 438,153 438,152 438,120" stroke="#6d725c" /></g><g id="3E22B" stroke="red"><polyline points="438,120 438,88 438,88 438,87 438,86 438,86 439,85 439,85 440,85 441,84 441,84 442,84 461,84 462,84 462,84 463,85 464,85 464,85 464,86 465,86 465,87 465,88 465,88 465,120" stroke="#6d725c" /></g><g id="3E23" stroke="red"><polyline points="425,69 425,25 452,25 452,69" stroke="#6d725c" /></g><g id="3E24" stroke="red"><polyline points="480,53 480,54 480,69 452,69 452,25 480,25 480,53" stroke="#6d725c" /></g><g id="3F01" stroke="red"><polyline points="481,473 481,440 511,440 511,473" stroke="#6d725c" /></g><g id="3F02" stroke="red"><polyline points="511,473 511,440 512,440 540,440 540,473" stroke="#6d725c" /></g><g id="3F03" stroke="red"><polyline points="481,425 481,425 480,425 479,425 479,425 478,424 478,424 477,423 477,422 477,422 477,421 477,395 477,395 511,395 511,425" stroke="#6d725c" /></g><g id="3F04" stroke="red"><polyline points="511,395 545,395 545,421 545,422 545,422 545,423 544,424 544,424 544,425 543,425 542,425 542,425 541,425 511,425" stroke="#6d725c" /></g><g id="3F05" stroke="red"><polyline points="477,395 477,369 477,369 477,368 477,368 478,367 478,366 479,366 479,366 480,365 481,365 481,365 511,365 511,395" stroke="#6d725c" /></g><g id="3F06" stroke="red"><polyline points="511,395 511,365 541,365 542,365 542,365 543,366 544,366 544,366 544,367 545,368 545,368 545,369 545,369 545,395" stroke="#6d725c" /></g><g id="3F07" stroke="red"><polyline points="477,355 477,321 477,321 511,321 511,355" stroke="#6d725c" /></g><g id="3F08" stroke="red"><polyline points="511,321 545,321 545,355 511,355" stroke="#6d725c" /></g><g id="3F09" stroke="red"><polyline points="477,321 477,287 511,287 511,321" stroke="#6d725c" /></g><g id="3F10" stroke="red"><polyline points="511,321 511,287 545,287 545,321 545,321" stroke="#6d725c" /></g><g id="3F11" stroke="red"><polyline points="524,253 524,273 524,274 524,274 524,275 523,275 523,276 522,276 522,277 521,277 520,277 520,277 482,277 482,277 481,277 480,277 480,276 479,276 479,275 478,275 478,274 478,274 478,273 478,253" stroke="#6d725c" /></g><g id="3F13" stroke="red"><polyline points="478,253 478,229 520,229 520,229 521,229 522,229 522,229 523,230 523,230 524,231 524,232 524,232 524,233 524,253" stroke="#6d725c" /></g><g id="3F15" stroke="red"><polyline points="524,192 524,212 524,212 524,213 524,214 523,214 523,215 522,215 522,215 521,216 520,216 520,216 482,216 482,216 481,216 480,215 480,215 479,215 479,214 478,214 478,213 478,212 478,212 478,192" stroke="#6d725c" /></g><g id="3F17" stroke="red"><polyline points="478,192 478,169 520,169 520,169 521,169 522,170 522,170 523,170 523,171 524,171 524,172 524,173 524,173 524,192" stroke="#6d725c" /></g><g id="3F18" stroke="red"><polyline points="511,120 544,120 544,152 544,153 544,153 543,154 543,155 543,155 542,156 542,156 541,156 540,156 540,156 511,156" stroke="#6d725c" /></g><g id="3F19A" stroke="red"><polyline points="482,156 482,156 481,156 480,156 480,156 479,155 479,155 478,154 478,153 478,153 478,152 478,120 511,120 511,156" stroke="#6d725c" /></g><g id="3F19B" stroke="red"><polyline points="478,120 478,88 478,88 478,87 478,86 479,86 479,85 480,85 480,85 481,84 482,84 482,84 511,84 511,120" stroke="#6d725c" /></g><g id="3F20" stroke="red"><polyline points="511,120 511,84 540,84 540,84 541,84 542,85 542,85 543,85 543,86 543,86 544,87 544,88 544,88 544,120" stroke="#6d725c" /></g><g id="3F21" stroke="red"><polyline points="480,53 522,53 522,69 480,69 480,69" stroke="#6d725c" /></g><g id="3F22" stroke="red"><polyline points="589,69 541,69 540,69 539,69 539,69 538,68 538,68 537,68 537,67 537,66 537,66 536,65 536,56 538,56 538,53 589,53" stroke="#6d725c" /></g><g id="3G01" stroke="red"><polyline points="570,473 540,473 540,440 571,440 571,473" stroke="#6d725c" /></g><g id="3G02" stroke="red"><polyline points="571,473 571,440 600,440 600,473" stroke="#6d725c" /></g><g id="3G04" stroke="red"><polyline points="578,425 577,425 577,425 576,425 575,425 575,424 574,424 574,423 574,422 574,422 574,421 574,395 604,395 604,425" stroke="#6d725c" /></g><g id="3G06" stroke="red"><polyline points="574,395 574,369 574,369 574,368 574,368 574,367 575,366 575,366 576,366 577,365 577,365 578,365 604,365 604,395" stroke="#6d725c" /></g><g id="3G08" stroke="red"><polyline points="578,355 577,355 577,355 576,355 575,354 575,354 574,353 574,353 574,352 574,351 574,351 574,321 604,321 604,355" stroke="#6d725c" /></g><g id="3G10" stroke="red"><polyline points="574,321 574,291 574,291 574,290 574,289 574,289 575,288 575,288 576,288 577,287 577,287 578,287 604,287 604,321" stroke="#6d725c" /></g><g id="3G12" stroke="red"><polyline points="576,156 576,156 575,156 575,156 574,156 573,155 573,155 573,154 572,153 572,153 572,152 572,120 603,120 603,156" stroke="#6d725c" /></g><g id="3G14" stroke="red"><polyline points="572,120 572,88 572,88 572,87 573,86 573,86 573,85 574,85 575,85 575,84 576,84 576,84 603,84 603,120" stroke="#6d725c" /></g><g id="3G16" stroke="red"><polyline points="589,53 638,53 638,65 638,66 638,66 638,67 638,68 637,68 637,68 636,69 635,69 635,69 634,69 589,69" stroke="#6d725c" /></g><g id="3H01A" stroke="red"><polyline points="600,473 600,440 630,440 630,473" stroke="#6d725c" /></g><g id="3H01B" stroke="red"><polyline points="630,473 630,440 659,440 659,473" stroke="#6d725c" /></g><g id="3H02A" stroke="red"><polyline points="659,473 659,440 688,440 688,473" stroke="#6d725c" /></g><g id="3H02B" stroke="red"><polyline points="688,440 717,440 717,463 721,463 721,473 688,473" stroke="#6d725c" /></g><g id="3H03" stroke="red"><polyline points="604,395 638,395 638,421 638,422 638,422 638,423 637,424 637,424 636,425 636,425 635,425 634,425 634,425 604,425" stroke="#6d725c" /></g><g id="3H04" stroke="red"><polyline points="703,391 703,425 660,425 659,425 658,425 658,425 657,425 657,424 656,424 656,423 656,422 655,422 655,421 655,391" stroke="#6d725c" /></g><g id="3H05" stroke="red"><polyline points="604,395 604,365 634,365 634,365 635,365 636,366 636,366 637,366 637,367 638,368 638,368 638,369 638,369 638,395" stroke="#6d725c" /></g><g id="3H06" stroke="red"><polyline points="655,391 655,357 703,357 703,391" stroke="#6d725c" /></g><g id="3H07" stroke="red"><polyline points="604,321 638,321 638,351 638,351 638,352 638,353 637,353 637,354 636,354 636,355 635,355 634,355 634,355 604,355" stroke="#6d725c" /></g><g id="3H08" stroke="red"><polyline points="655,357 655,322 703,322 703,357" stroke="#6d725c" /></g><g id="3H09" stroke="red"><polyline points="604,321 604,287 634,287 634,287 635,287 636,288 636,288 637,288 637,289 638,289 638,290 638,291 638,291 638,321" stroke="#6d725c" /></g><g id="3H10" stroke="red"><polyline points="655,322 655,288 703,288 703,322" stroke="#6d725c" /></g><g id="3H11" stroke="red"><polyline points="639,223 639,273 639,274 639,274 639,275 638,275 638,276 637,276 637,277 636,277 636,277 635,277 601,277 601,223" stroke="#6d725c" /></g><g id="3H12" stroke="red"><polyline points="703,222 703,277 656,277 656,222" stroke="#6d725c" /></g><g id="3H13" stroke="red"><polyline points="601,223 601,169 635,169 636,169 636,169 637,170 637,170 638,170 638,171 639,171 639,172 639,173 639,173 639,223" stroke="#6d725c" /></g><g id="3H14A" stroke="red"><polyline points="656,222 656,197 703,197 703,222" stroke="#6d725c" /></g><g id="3H14B" stroke="red"><polyline points="656,197 656,169 717,169 717,197 703,197" stroke="#6d725c" /></g><g id="3H15" stroke="red"><polyline points="603,120 639,120 639,152 639,153 639,153 639,154 638,155 638,155 637,156 637,156 636,156 636,156 635,156 603,156" stroke="#6d725c" /></g><g id="3H16" stroke="red"><polyline points="717,115 717,156 656,156 656,115" stroke="#6d725c" /></g><g id="3H17" stroke="red"><polyline points="603,120 603,84 635,84 636,84 636,84 637,85 637,85 638,85 638,86 639,86 639,87 639,88 639,88 639,120" stroke="#6d725c" /></g><g id="3H18" stroke="red"><polyline points="656,115 656,70 717,70 717,115" stroke="#6d725c" /></g></svg>