<?xml version="1.0" encoding="utf-8" ?>
<svg baseProfile="full" height="485" version="1.1" width="800" xmlns="http://www.w3.org/2000/svg" xmlns:ev="http://www.w3.org/2001/xml-events" xmlns:xlink="http://www.w3.org/1999/xlink"><defs /><g id="2A03" stroke="red"><polyline fill="#FFFFFF" points="242,413 242,481 242,481 60,481 60,413 158,413 184,413 184,413 199,413 199,413 232,413" stroke="#6d725c" /></g><g id="2A05" stroke="red"><polyline fill="#FFFFFF" points="98,359 98,400 60,400 60,359" stroke="#6d725c" /></g><g id="2A06" stroke="red"><polyline fill="#FFFFFF" points="148,413 112,413 112,378 112,377 113,376 113,376 113,375 114,374 114,374 115,374 115,373 116,373 117,373 148,373" stroke="#6d725c" /></g><g id="2A07" stroke="red"><polyline fill="#FFFFFF" points="60,359 60,324 98,324 98,359" stroke="#6d725c" /></g><g id="2A08" stroke="red"><polyline fill="#FFFFFF" points="141,336 141,354 141,355 141,356 141,356 140,357 140,357 139,358 139,358 138,358 137,358 137,359 116,359 115,358 114,358 114,358 113,358 112,357 112,357 112,356 111,356 111,355 111,354 111,336" stroke="#6d725c" /></g><g id="2A09" stroke="red"><polyline fill="#FFFFFF" points="60,324 60,290 98,290 98,324" stroke="#6d725c" /></g><g id="2A10" stroke="red"><polyline fill="#FFFFFF" points="111,336 111,313 141,313 141,336" stroke="#6d725c" /></g><g id="2A11" stroke="red"><polyline fill="#FFFFFF" points="98,238 98,265 59,265 59,238" stroke="#6d725c" /></g><g id="2A12" stroke="red"><polyline fill="#FFFFFF" points="111,313 111,294 111,294 111,293 112,292 112,292 112,291 113,291 114,290 114,290 115,290 116,290 137,290 137,290 138,290 139,290 139,291 140,291 140,292 141,292 141,293 141,294 141,294 141,313" stroke="#6d725c" /></g><g id="2A13" stroke="red"><polyline fill="#FFFFFF" points="59,238 59,235 57,235 57,208 98,208 98,238 98,238" stroke="#6d725c" /></g><g id="2A14A" stroke="red"><polyline fill="#FFFFFF" points="141,253 141,272 141,273 141,274 141,274 140,275 140,275 139,276 139,276 138,276 137,277 137,277 116,277 115,277 114,276 114,276 113,276 112,275 112,275 112,274 111,274 111,273 111,272 111,253" stroke="#6d725c" /></g><g id="2A14B" stroke="red"><polyline fill="#FFFFFF" points="111,253 111,234 111,233 111,233 112,232 112,231 112,231 113,230 114,230 114,230 115,230 116,230 137,230 137,230 138,230 139,230 139,230 140,231 140,231 141,232 141,233 141,233 141,234 141,253" stroke="#6d725c" /></g><g id="2A15" stroke="red"><polyline fill="#FFFFFF" points="98,208 98,208 57,208 56,208 56,173 57,173 57,173 98,173" stroke="#6d725c" /></g><g id="2A16A" stroke="red"><polyline fill="#FFFFFF" points="141,193 141,214 141,215 141,216 141,216 140,217 140,217 139,218 139,218 138,218 137,219 137,219 116,219 115,219 114,218 114,218 113,218 112,217 112,217 112,216 111,216 111,215 111,214 111,193" stroke="#6d725c" /></g><g id="2A16B" stroke="red"><polyline fill="#FFFFFF" points="111,193 111,172 111,171 111,170 112,170 112,169 112,169 113,168 114,168 114,168 115,168 116,167 137,167 137,168 138,168 139,168 139,168 140,169 140,169 141,170 141,170 141,171 141,172 141,193" stroke="#6d725c" /></g><g id="2A17" stroke="red"><polyline fill="#FFFFFF" points="57,173 57,141 98,141 98,173 98,173" stroke="#6d725c" /></g><g id="2A18A" stroke="red"><polyline fill="#FFFFFF" points="141,130 141,150 141,151 141,151 141,152 140,152 140,153 139,153 139,154 138,154 137,154 137,154 116,154 115,154 114,154 114,154 113,153 112,153 112,152 112,152 111,151 111,151 111,150 111,130" stroke="#6d725c" /></g><g id="2A18B" stroke="red"><polyline fill="#FFFFFF" points="111,130 111,105 141,105 141,130" stroke="#6d725c" /></g><g id="2A19" stroke="red"><polyline fill="#FFFFFF" points="98,110 98,140 98,141 57,141 57,110" stroke="#6d725c" /></g><g id="2A21" stroke="red"><polyline fill="#FFFFFF" points="57,110 57,78 98,78 98,110" stroke="#6d725c" /></g><g id="2A22" stroke="red"><polyline fill="#FFFFFF" points="117,85 117,47 148,47 148,85" stroke="#6d725c" /></g><g id="2A23" stroke="red"><polyline fill="#FFFFFF" points="57,78 57,47 98,47 98,78" stroke="#6d725c" /></g><g id="2B07" stroke="red"><polyline fill="#FFFFFF" points="158,413 148,413 148,373 180,373 180,373 181,373 182,374 182,374 183,374 183,375 184,376 184,376 184,377 184,378 184,413" stroke="#6d725c" /></g><g id="2B08" stroke="red"><polyline fill="#FFFFFF" points="199,413 199,378 199,377 199,376 199,376 200,375 200,374 201,374 201,374 202,373 202,373 203,373 232,373 232,413" stroke="#6d725c" /></g><g id="2B09" stroke="red"><polyline fill="#FFFFFF" points="159,359 158,358 157,358 157,358 156,358 156,357 155,357 155,356 154,356 154,355 154,354 154,336 184,336 184,359" stroke="#6d725c" /></g><g id="2B10" stroke="red"><polyline fill="#FFFFFF" points="184,336 216,336 216,354 216,355 216,356 216,356 215,357 215,357 214,358 214,358 213,358 213,358 212,359 184,359" stroke="#6d725c" /></g><g id="2B11" stroke="red"><polyline fill="#FFFFFF" points="154,336 154,313 184,313 184,336" stroke="#6d725c" /></g><g id="2B12" stroke="red"><polyline fill="#FFFFFF" points="184,336 184,313 216,313 216,336" stroke="#6d725c" /></g><g id="2B13" stroke="red"><polyline fill="#FFFFFF" points="154,313 154,294 154,294 154,293 155,292 155,292 156,291 156,291 157,290 157,290 158,290 159,290 184,290 184,313" stroke="#6d725c" /></g><g id="2B14" stroke="red"><polyline fill="#FFFFFF" points="184,313 184,290 212,290 213,290 213,290 214,290 214,291 215,291 215,292 216,292 216,293 216,294 216,294 216,313" stroke="#6d725c" /></g><g id="2B15" stroke="red"><polyline fill="#FFFFFF" points="180,255 180,272 180,273 180,274 180,274 180,275 179,275 179,276 178,276 177,276 177,277 176,277 159,277 158,277 157,276 157,276 156,276 156,275 155,275 155,274 154,274 154,273 154,272 154,255" stroke="#6d725c" /></g><g id="2B16" stroke="red"><polyline fill="#FFFFFF" points="185,130 216,130 216,150 216,151 216,151 216,152 215,152 215,153 214,153 214,154 213,154 213,154 212,154 185,154" stroke="#6d725c" /></g><g id="2B17" stroke="red"><polyline fill="#FFFFFF" points="154,255 154,233 180,233 180,255" stroke="#6d725c" /></g><g id="2B18" stroke="red"><polyline fill="#FFFFFF" points="185,130 185,105 216,105 216,130" stroke="#6d725c" /></g><g id="2B19" stroke="red"><polyline fill="#FFFFFF" points="154,233 154,211 180,211 180,233" stroke="#6d725c" /></g><g id="2B21" stroke="red"><polyline fill="#FFFFFF" points="154,211 154,189 180,189 180,211" stroke="#6d725c" /></g><g id="2B23" stroke="red"><polyline fill="#FFFFFF" points="154,189 154,167 180,167 180,189" stroke="#6d725c" /></g><g id="2B25" stroke="red"><polyline fill="#FFFFFF" points="159,154 158,154 157,154 157,154 156,153 156,153 155,152 155,152 154,151 154,151 154,150 154,130 185,130 185,154" stroke="#6d725c" /></g><g id="2B27" stroke="red"><polyline fill="#FFFFFF" points="185,130 154,130 154,105 185,105 185,105" stroke="#6d725c" /></g><g id="2B29" stroke="red"><polyline fill="#FFFFFF" points="148,47 216,47 216,85 148,85" stroke="#6d725c" /></g><g id="2C07" stroke="red"><polyline fill="#FFFFFF" points="242,413 232,413 232,373 266,373 266,413" stroke="#6d725c" /></g><g id="2C08" stroke="red"><polyline fill="#FFFFFF" points="307,413 266,413 266,373 307,373 307,413" stroke="#6d725c" /></g><g id="2C09" stroke="red"><polyline fill="#FFFFFF" points="269,336 269,354 269,355 269,356 268,356 268,357 268,357 267,358 266,358 266,358 265,358 264,359 238,359 238,336" stroke="#6d725c" /></g><g id="2C10" stroke="red"><polyline fill="#FFFFFF" points="286,359 286,358 285,358 284,358 284,358 283,357 283,357 282,356 282,356 282,355 282,354 282,341 282,340 282,339 282,339 283,338 283,338 284,337 284,337 285,336 286,336 286,336 315,336 315,359" stroke="#6d725c" /></g><g id="2C11A" stroke="red"><polyline fill="#FFFFFF" points="238,336 238,313 269,313 269,336" stroke="#6d725c" /></g><g id="2C11B" stroke="red"><polyline fill="#FFFFFF" points="238,313 238,290 264,290 265,290 266,290 266,290 267,291 268,291 268,292 268,292 269,293 269,294 269,294 269,313" stroke="#6d725c" /></g><g id="2C12" stroke="red"><polyline fill="#FFFFFF" points="282,325 282,290 314,290 314,325" stroke="#6d725c" /></g><g id="2C13" stroke="red"><polyline fill="#FFFFFF" points="240,237 254,237 269,237 269,277 240,277 240,237 240,237" stroke="#6d725c" /></g><g id="2C14A" stroke="red"><polyline fill="#FFFFFF" points="286,277 286,277 285,276 284,276 284,276 283,275 283,275 282,274 282,274 282,273 282,272 282,253 315,253 315,277" stroke="#6d725c" /></g><g id="2C14B" stroke="red"><polyline fill="#FFFFFF" points="282,253 282,234 282,233 282,233 282,232 283,231 283,231 284,230 284,230 285,230 286,230 286,230 315,230 315,253" stroke="#6d725c" /></g><g id="2C15" stroke="red"><polyline fill="#FFFFFF" points="269,237 254,237 240,237 240,202 243,202 269,202" stroke="#6d725c" /></g><g id="2C16" stroke="red"><polyline fill="#FFFFFF" points="315,219 286,219 286,219 285,218 284,218 284,218 283,217 283,217 282,216 282,216 282,215 282,214 282,193 315,193" stroke="#6d725c" /></g><g id="2C17" stroke="red"><polyline fill="#FFFFFF" points="243,202 240,202 240,167 269,167 269,202" stroke="#6d725c" /></g><g id="2C18" stroke="red"><polyline fill="#FFFFFF" points="282,193 282,172 282,171 282,170 282,170 283,169 283,169 284,168 284,168 285,168 286,168 286,167 315,167 315,193" stroke="#6d725c" /></g><g id="2C19" stroke="red"><polyline fill="#FFFFFF" points="269,130 269,150 269,151 269,151 268,152 268,152 268,153 267,153 266,154 266,154 265,154 264,154 243,154 242,154 241,154 241,154 240,153 240,153 239,152 239,152 238,151 238,151 238,150 238,130" stroke="#6d725c" /></g><g id="2C20" stroke="red"><polyline fill="#FFFFFF" points="286,154 286,154 285,154 284,154 284,153 283,153 283,152 282,152 282,151 282,151 282,150 282,130 315,130 315,154" stroke="#6d725c" /></g><g id="2C21" stroke="red"><polyline fill="#FFFFFF" points="238,130 238,105 269,105 269,130" stroke="#6d725c" /></g><g id="2C22" stroke="red"><polyline fill="#FFFFFF" points="282,130 282,105 315,105 315,130" stroke="#6d725c" /></g><g id="2C23" stroke="red"><polyline fill="#FFFFFF" points="241,85 241,64 291,64 291,85" stroke="#6d725c" /></g><g id="2C24" stroke="red"><polyline fill="#FFFFFF" points="291,64 340,64 340,85 291,85" stroke="#6d725c" /></g><g id="2D01" stroke="red"><polyline fill="#FFFFFF" points="242,481 242,413 266,413 307,413 307,481" stroke="#6d725c" /></g><g id="2D01A" stroke="red"><polyline fill="#FFFFFF" points="335,481 307,481 307,481 307,413 307,413 307,413 335,435" stroke="#6d725c" /></g><g id="2D01B" stroke="red"><polyline fill="#FFFFFF" points="335,481 335,435 362,435 362,481" stroke="#6d725c" /></g><g id="2D02" stroke="red"><polyline fill="#FFFFFF" points="362,481 362,435 395,435 395,481" stroke="#6d725c" /></g><g id="2D03" stroke="red"><polyline fill="#FFFFFF" points="344,415 344,415 343,415 343,415 343,415 343,415 342,415 342,415 342,415 342,415 324,405 323,405 323,405 323,404 322,404 322,404 322,403 322,403 322,402 322,402 322,401 322,378 322,377 322,376 322,376 322,375 323,374 323,374 324,374 325,373 325,373 326,373 344,373 345,373 345,373 346,374 347,374 347,374 348,375 348,376 348,376 348,377 348,378 348,411 348,412 348,412 348,413 348,414 347,414 347,415 346,415 345,415 345,415 344,415" stroke="#6d725c" /></g><g id="2D04" stroke="red"><polyline fill="#FFFFFF" points="364,420 364,397 397,397 397,420" stroke="#6d725c" /></g><g id="2D06" stroke="red"><polyline fill="#FFFFFF" points="364,397 364,378 364,377 364,376 364,376 365,375 365,374 366,374 366,374 367,373 367,373 368,373 397,373 397,397" stroke="#6d725c" /></g><g id="2D07" stroke="red"><polyline fill="#FFFFFF" points="315,336 344,336 345,336 345,336 346,337 347,337 347,338 348,338 348,339 348,339 348,340 348,341 348,354 348,355 348,356 348,356 348,357 347,357 347,358 346,358 345,358 345,358 344,359 315,359" stroke="#6d725c" /></g><g id="2D08" stroke="red"><polyline fill="#FFFFFF" points="397,277 368,277 367,277 367,276 366,276 366,276 365,275 365,275 364,274 364,274 364,273 364,272 364,253 397,253 397,265" stroke="#6d725c" /></g><g id="2D09" stroke="red"><polyline fill="#FFFFFF" points="314,290 348,290 348,325 348,325 314,325" stroke="#6d725c" /></g><g id="2D10" stroke="red"><polyline fill="#FFFFFF" points="397,253 364,253 364,230 397,230 397,241" stroke="#6d725c" /></g><g id="2D11A" stroke="red"><polyline fill="#FFFFFF" points="315,253 348,253 348,272 348,273 348,274 348,274 348,275 347,275 347,276 346,276 345,276 345,277 344,277 315,277" stroke="#6d725c" /></g><g id="2D11B" stroke="red"><polyline fill="#FFFFFF" points="315,253 315,230 344,230 345,230 345,230 346,230 347,230 347,231 348,231 348,232 348,233 348,233 348,234 348,253" stroke="#6d725c" /></g><g id="2D12" stroke="red"><polyline fill="#FFFFFF" points="368,219 367,219 367,218 366,218 366,218 365,217 365,217 364,216 364,216 364,215 364,214 364,193 397,193 397,219" stroke="#6d725c" /></g><g id="2D13" stroke="red"><polyline fill="#FFFFFF" points="315,193 348,193 348,214 348,215 348,216 348,216 348,217 347,217 347,218 346,218 345,218 345,219 344,219 315,219" stroke="#6d725c" /></g><g id="2D14" stroke="red"><polyline fill="#FFFFFF" points="364,193 364,167 397,167 397,193" stroke="#6d725c" /></g><g id="2D15" stroke="red"><polyline fill="#FFFFFF" points="315,193 315,167 344,167 345,168 345,168 346,168 347,168 347,169 348,169 348,170 348,170 348,171 348,172 348,193" stroke="#6d725c" /></g><g id="2D16" stroke="red"><polyline fill="#FFFFFF" points="368,154 367,154 367,154 366,154 366,153 365,153 365,152 364,152 364,151 364,151 364,150 364,130 397,130 397,154" stroke="#6d725c" /></g><g id="2D17" stroke="red"><polyline fill="#FFFFFF" points="315,130 348,130 348,150 348,151 348,151 348,152 348,152 347,153 347,153 346,154 345,154 345,154 344,154 315,154" stroke="#6d725c" /></g><g id="2D18" stroke="red"><polyline fill="#FFFFFF" points="364,130 364,105 397,105 397,130" stroke="#6d725c" /></g><g id="2D19" stroke="red"><polyline fill="#FFFFFF" points="315,130 315,105 348,105 348,130" stroke="#6d725c" /></g><g id="2D20" stroke="red"><polyline fill="#FFFFFF" points="410,85 362,85 362,50 365,51 365,17 410,17 410,17" stroke="#6d725c" /></g><g id="2E01" stroke="red"><polyline fill="#FFFFFF" points="395,481 395,435 426,435 426,481" stroke="#6d725c" /></g><g id="2E02" stroke="red"><polyline fill="#FFFFFF" points="426,481 426,435 457,435 457,481" stroke="#6d725c" /></g><g id="2E03" stroke="red"><polyline fill="#FFFFFF" points="397,397 430,397 430,420 397,420" stroke="#6d725c" /></g><g id="2E04" stroke="red"><polyline fill="#FFFFFF" points="457,481 457,435 487,435 487,481" stroke="#6d725c" /></g><g id="2E05" stroke="red"><polyline fill="#FFFFFF" points="397,397 397,373 425,373 426,373 427,373 427,374 428,374 429,374 429,375 429,376 430,376 430,377 430,378 430,397" stroke="#6d725c" /></g><g id="2E06" stroke="red"><polyline fill="#FFFFFF" points="447,420 447,420 446,420 445,419 445,419 444,419 444,418 443,418 443,417 443,416 443,416 443,397 477,397 477,420" stroke="#6d725c" /></g><g id="2E07A" stroke="red"><polyline fill="#FFFFFF" points="430,324 430,359 400,359 400,324" stroke="#6d725c" /></g><g id="2E07B" stroke="red"><polyline fill="#FFFFFF" points="400,324 400,290 430,290 430,324" stroke="#6d725c" /></g><g id="2E08" stroke="red"><polyline fill="#FFFFFF" points="443,397 443,378 443,377 443,376 443,376 444,375 444,374 445,374 445,374 446,373 447,373 447,373 477,373 477,397" stroke="#6d725c" /></g><g id="2E09" stroke="red"><polyline fill="#FFFFFF" points="430,272 430,273 430,274 429,274 429,275 429,275 428,276 427,276 427,276 426,277 425,277 397,277 397,265 397,253 430,253" stroke="#6d725c" /></g><g id="2E10" stroke="red"><polyline fill="#FFFFFF" points="477,359 477,359 447,359 447,358 446,358 445,358 445,358 444,357 444,357 443,356 443,355 443,355 443,354 443,324 477,324 477,324" stroke="#6d725c" /></g><g id="2E11" stroke="red"><polyline fill="#FFFFFF" points="397,253 397,241 397,230 430,230 430,253" stroke="#6d725c" /></g><g id="2E12" stroke="red"><polyline fill="#FFFFFF" points="443,324 443,294 443,294 443,293 443,292 444,292 444,291 445,291 445,290 446,290 447,290 447,290 477,290 477,324" stroke="#6d725c" /></g><g id="2E13" stroke="red"><polyline fill="#FFFFFF" points="397,193 430,193 430,214 430,215 430,216 429,216 429,217 429,217 428,218 427,218 427,218 426,219 425,219 397,219" stroke="#6d725c" /></g><g id="2E14" stroke="red"><polyline fill="#FFFFFF" points="447,277 447,277 446,276 445,276 445,276 444,275 444,275 443,274 443,274 443,273 443,272 443,253 477,253 477,277" stroke="#6d725c" /></g><g id="2E15" stroke="red"><polyline fill="#FFFFFF" points="397,193 397,167 430,167 430,193" stroke="#6d725c" /></g><g id="2E16" stroke="red"><polyline fill="#FFFFFF" points="477,253 443,253 443,234 443,233 443,233 443,232 444,231 444,231 445,230 445,230 446,230 447,230 447,230 477,230 477,253" stroke="#6d725c" /></g><g id="2E17" stroke="red"><polyline fill="#FFFFFF" points="397,130 430,130 430,150 430,151 430,151 429,152 429,152 429,153 428,153 427,154 427,154 426,154 425,154 398,154 397,154" stroke="#6d725c" /></g><g id="2E18A" stroke="red"><polyline fill="#FFFFFF" points="447,219 447,219 446,218 445,218 445,218 444,217 444,217 443,216 443,216 443,215 443,214 443,193 477,193 477,219" stroke="#6d725c" /></g><g id="2E18B" stroke="red"><polyline fill="#FFFFFF" points="443,193 443,172 443,171 443,170 443,170 444,169 444,169 445,168 445,168 446,168 447,168 447,167 477,167 477,193" stroke="#6d725c" /></g><g id="2E19" stroke="red"><polyline fill="#FFFFFF" points="397,130 397,105 430,105 430,130" stroke="#6d725c" /></g><g id="2E20" stroke="red"><polyline fill="#FFFFFF" points="447,154 447,154 446,154 445,154 445,153 444,153 444,152 443,152 443,151 443,151 443,150 443,130 477,130 477,154" stroke="#6d725c" /></g><g id="2E21" stroke="red"><polyline fill="#FFFFFF" points="410,85 410,85 410,17 459,17 459,85" stroke="#6d725c" /></g><g id="2E22" stroke="red"><polyline fill="#FFFFFF" points="443,130 443,129 443,130 443,130 443,105 477,105 477,129 477,130" stroke="#6d725c" /></g><g id="2E24" stroke="red"><polyline fill="#FFFFFF" points="459,17 459,17 459,17 487,17 487,47 507,47 507,85 459,85" stroke="#6d725c" /></g><g id="2F01" stroke="red"><polyline fill="#FFFFFF" points="487,481 487,435 518,435 518,481" stroke="#6d725c" /></g><g id="2F02" stroke="red"><polyline fill="#FFFFFF" points="518,481 518,435 549,435 549,481" stroke="#6d725c" /></g><g id="2F03" stroke="red"><polyline fill="#FFFFFF" points="477,397 511,397 511,416 511,416 511,417 510,418 510,418 510,419 509,419 508,419 508,420 507,420 506,420 477,420" stroke="#6d725c" /></g><g id="2F04" stroke="red"><polyline fill="#FFFFFF" points="553,397 553,420 530,420 529,420 529,420 528,419 528,419 527,419 527,418 526,418 526,417 526,416 526,416 526,397" stroke="#6d725c" /></g><g id="2F05" stroke="red"><polyline fill="#FFFFFF" points="477,397 477,373 506,373 507,373 508,373 508,374 509,374 510,374 510,375 510,376 511,376 511,377 511,378 511,397" stroke="#6d725c" /></g><g id="2F06" stroke="red"><polyline fill="#FFFFFF" points="526,397 526,378 526,377 526,376 526,376 527,375 527,374 528,374 528,374 529,373 529,373 530,373 549,373 549,373 550,373 551,374 551,374 552,374 552,375 552,376 553,376 553,377 553,378 553,397" stroke="#6d725c" /></g><g id="2F07" stroke="red"><polyline fill="#FFFFFF" points="477,324 511,324 511,354 511,355 511,355 510,356 510,357 510,357 509,358 508,358 508,358 507,358 506,359 477,359" stroke="#6d725c" /></g><g id="2F08" stroke="red"><polyline fill="#FFFFFF" points="553,324 553,359 530,359 529,359 529,359 528,358 528,358 527,357 527,357 526,356 526,356 526,355 526,354 526,324" stroke="#6d725c" /></g><g id="2F09" stroke="red"><polyline fill="#FFFFFF" points="477,324 477,290 506,290 507,290 508,290 508,290 509,291 510,291 510,292 510,292 511,293 511,294 511,294 511,324" stroke="#6d725c" /></g><g id="2F10" stroke="red"><polyline fill="#FFFFFF" points="526,324 526,294 526,294 526,293 526,292 527,292 527,291 528,291 528,290 529,290 529,290 530,290 553,290 553,324" stroke="#6d725c" /></g><g id="2F11" stroke="red"><polyline fill="#FFFFFF" points="477,253 511,253 511,272 511,273 511,274 510,274 510,275 510,275 509,276 508,276 508,276 507,277 506,277 477,277" stroke="#6d725c" /></g><g id="2F12" stroke="red"><polyline fill="#FFFFFF" points="549,277 527,277 524,274 524,234 549,234" stroke="#6d725c" /></g><g id="2F13" stroke="red"><polyline fill="#FFFFFF" points="477,253 477,230 506,230 507,230 508,230 508,230 509,230 510,231 510,231 510,232 511,233 511,233 511,234 511,253" stroke="#6d725c" /></g><g id="2F14" stroke="red"><polyline fill="#FFFFFF" points="524,234 524,232 524,199 524,199 549,199 549,234" stroke="#6d725c" /></g><g id="2F15" stroke="red"><polyline fill="#FFFFFF" points="477,193 511,193 511,214 511,215 511,216 510,216 510,217 510,217 509,218 508,218 508,218 507,219 506,219 477,219" stroke="#6d725c" /></g><g id="2F16" stroke="red"><polyline fill="#FFFFFF" points="524,199 524,168 549,168 549,199" stroke="#6d725c" /></g><g id="2F17" stroke="red"><polyline fill="#FFFFFF" points="477,193 477,167 506,167 507,168 508,168 508,168 509,168 510,169 510,169 510,170 511,170 511,171 511,172 511,193" stroke="#6d725c" /></g><g id="2F18" stroke="red"><polyline fill="#FFFFFF" points="554,130 554,130 554,150 554,151 554,151 553,152 553,152 553,153 552,153 552,154 551,154 550,154 550,154 530,154 529,154 529,154 528,154 528,153 527,153 527,152 526,152 526,151 526,151 526,150 526,130" stroke="#6d725c" /></g><g id="2F19A" stroke="red"><polyline fill="#FFFFFF" points="477,130 511,130 511,150 511,151 511,151 510,152 510,152 510,153 509,153 508,154 508,154 507,154 506,154 477,154" stroke="#6d725c" /></g><g id="2F19B" stroke="red"><polyline fill="#FFFFFF" points="477,130 477,129 477,105 511,105 511,130" stroke="#6d725c" /></g><g id="2F20" stroke="red"><polyline fill="#FFFFFF" points="526,130 526,110 526,109 526,108 526,108 527,107 527,107 528,106 528,106 529,106 529,105 530,105 554,105 554,130" stroke="#6d725c" /></g><g id="2F22" stroke="red"><polyline fill="#FFFFFF" points="551,85 550,85 549,85 549,84 548,84 548,83 547,83 547,82 546,82 546,81 546,80 546,50 575,50 575,85" stroke="#6d725c" /></g><g id="2G01" stroke="red"><polyline fill="#FFFFFF" points="578,481 549,481 549,435 578,435 578,445" stroke="#6d725c" /></g><g id="2G02" stroke="red"><polyline fill="#FFFFFF" points="578,481 578,445 607,445 607,481" stroke="#6d725c" /></g><g id="2G19" stroke="red"><polyline fill="#FFFFFF" points="571,154 571,154 570,154 569,154 569,153 568,153 568,152 568,152 567,151 567,151 567,150 567,110 567,109 567,108 568,108 568,107 568,107 569,106 569,106 570,106 571,105 571,105 591,105 591,154" stroke="#6d725c" /></g><g id="2G20" stroke="red"><polyline fill="#FFFFFF" points="591,105 611,105 612,105 612,106 613,106 614,106 614,107 614,107 615,108 615,108 615,109 615,110 615,150 615,151 615,151 615,152 614,152 614,153 614,153 613,154 612,154 612,154 611,154 591,154" stroke="#6d725c" /></g><g id="2G21" stroke="red"><polyline fill="#FFFFFF" points="575,85 575,50 603,50 603,85" stroke="#6d725c" /></g><g id="2G22" stroke="red"><polyline fill="#FFFFFF" points="603,85 603,50 659,50 659,85" stroke="#6d725c" /></g><g id="2H01" stroke="red"><polyline fill="#FFFFFF" points="627,290 627,254 627,253 627,252 627,252 627,251 628,251 628,250 629,250 630,250 630,249 631,249 668,249 668,290" stroke="#6d725c" /></g><g id="2H13" stroke="red"><polyline fill="#FFFFFF" points="677,202 677,236 633,236 632,236 632,236 631,236 630,235 630,235 629,234 629,234 629,233 629,232 628,232 628,202" stroke="#6d725c" /></g><g id="2H15" stroke="red"><polyline fill="#FFFFFF" points="628,202 628,173 629,172 629,171 629,171 629,170 630,169 630,169 631,169 632,168 632,168 633,168 677,168 677,202" stroke="#6d725c" /></g><g id="2H19" stroke="red"><polyline fill="#FFFFFF" points="633,154 632,154 632,154 631,154 630,153 630,153 629,152 629,152 629,151 629,151 628,150 628,110 629,109 629,108 629,108 629,107 630,107 630,106 631,106 632,106 632,105 633,105 653,105 653,154" stroke="#6d725c" /></g><g id="2H20" stroke="red"><polyline fill="#FFFFFF" points="653,105 677,105 677,150 677,151 676,151 676,152 676,152 675,153 675,153 674,154 674,154 673,154 672,154 653,154" stroke="#6d725c" /></g><g id="2J17" stroke="red"><polyline fill="#FFFFFF" points="696,236 695,236 694,236 694,236 693,235 693,235 692,234 692,234 692,233 691,232 691,232 691,173 691,172 692,171 692,171 692,170 693,169 693,169 694,169 694,168 695,168 696,168 732,168 732,215 718,215 718,236" stroke="#6d725c" /></g><g id="2J19" stroke="red"><polyline fill="#FFFFFF" points="696,154 695,154 694,154 694,154 693,153 693,153 692,152 692,152 692,151 691,151 691,150 691,110 691,109 692,108 692,108 692,107 693,107 693,106 694,106 694,106 695,105 696,105 732,105 732,154" stroke="#6d725c" /></g><g id="2J21" stroke="red"><polyline fill="#FFFFFF" points="659,50 715,50 715,85 659,85" stroke="#6d725c" /></g><g id="2Y01" stroke="red"><polyline fill="#FFFFFF" points="607,445 607,413 730,413 730,481 607,481" stroke="#6d725c" /></g><g id="2Y02" stroke="red"><polyline fill="#FFFFFF" points="627,290 668,290 668,290 668,249 730,249 730,297 786,297 786,331 730,331 730,400 579,400 579,366 579,366 579,290 627,290" stroke="#6d725c" /></g></svg>