<?xml version="1.0" encoding="utf-8" ?>
<svg baseProfile="full" height="612" version="1.1" width="800" xmlns="http://www.w3.org/2000/svg" xmlns:ev="http://www.w3.org/2001/xml-events" xmlns:xlink="http://www.w3.org/1999/xlink"><defs /><g id="2A01" stroke="red"><polyline fill="#FFFFFF" points="16,618 16,570 60,570 60,570 80,570 80,618" stroke="#6d725c" /></g><g id="2A02" stroke="red"><polyline fill="#FFFFFF" points="111,570 111,618 80,618 80,618 80,618 80,570 80,570 80,570 111,570 111,570" stroke="#6d725c" /></g><g id="2A03" stroke="red"><polyline fill="#FFFFFF" points="16,570 16,570 16,570 16,541 60,541 60,570" stroke="#6d725c" /></g><g id="2A04" stroke="red"><polyline fill="#FFFFFF" points="112,550 80,550 80,508 112,508 112,550 112,550" stroke="#6d725c" /></g><g id="2A05" stroke="red"><polyline fill="#FFFFFF" points="16,541 16,511 60,511 60,541" stroke="#6d725c" /></g><g id="2A06" stroke="red"><polyline fill="#FFFFFF" points="80,508 80,467 112,467 112,508" stroke="#6d725c" /></g><g id="2A07" stroke="red"><polyline fill="#FFFFFF" points="16,511 16,482 60,482 60,511" stroke="#6d725c" /></g><g id="2A08" stroke="red"><polyline fill="#FFFFFF" points="112,467 80,467 80,425 112,425 112,467 112,467" stroke="#6d725c" /></g><g id="2A09" stroke="red"><polyline fill="#FFFFFF" points="16,482 16,453 60,453 60,482" stroke="#6d725c" /></g><g id="2A11" stroke="red"><polyline fill="#FFFFFF" points="16,453 16,423 60,423 60,453" stroke="#6d725c" /></g><g id="2A13" stroke="red"><polyline fill="#FFFFFF" points="16,423 16,394 60,394 60,423" stroke="#6d725c" /></g><g id="2A15" stroke="red"><polyline fill="#FFFFFF" points="16,394 16,365 60,365 60,394" stroke="#6d725c" /></g><g id="2A16" stroke="red"><polyline fill="#FFFFFF" points="80,405 80,372 123,372 123,405" stroke="#6d725c" /></g><g id="2A17" stroke="red"><polyline fill="#FFFFFF" points="16,365 16,341 60,341 60,365" stroke="#6d725c" /></g><g id="2A18" stroke="red"><polyline fill="#FFFFFF" points="80,352 80,316 113,287 113,352" stroke="#6d725c" /></g><g id="2A19" stroke="red"><polyline fill="#FFFFFF" points="31,307 31,307 60,307 60,341 16,341 16,307 31,307" stroke="#6d725c" /></g><g id="2A21" stroke="red"><polyline fill="#FFFFFF" points="31,269 105,269 60,307 31,307" stroke="#6d725c" /></g><g id="2B01" stroke="red"><polyline fill="#FFFFFF" points="142,618 142,618 142,618 111,618 111,618 111,618 111,570 142,570 142,594" stroke="#6d725c" /></g><g id="2B02" stroke="red"><polyline fill="#FFFFFF" points="174,618 174,618 174,618 142,618 142,594 142,570 174,570 174,618" stroke="#6d725c" /></g><g id="2B04" stroke="red"><polyline fill="#FFFFFF" points="205,576 205,618 174,618 174,618 174,570 205,570 205,570" stroke="#6d725c" /></g><g id="2B05" stroke="red"><polyline fill="#FFFFFF" points="112,508 112,508 112,508 144,508 144,550 112,550" stroke="#6d725c" /></g><g id="2B06" stroke="red"><polyline fill="#FFFFFF" points="194,550 158,550 158,508 194,508" stroke="#6d725c" /></g><g id="2B07" stroke="red"><polyline fill="#FFFFFF" points="112,508 112,467 144,467 144,508" stroke="#6d725c" /></g><g id="2B08" stroke="red"><polyline fill="#FFFFFF" points="194,508 158,508 158,467 158,467 158,467 194,467" stroke="#6d725c" /></g><g id="2B09" stroke="red"><polyline fill="#FFFFFF" points="112,425 112,425 112,425 144,425 144,467 112,467" stroke="#6d725c" /></g><g id="2B10" stroke="red"><polyline fill="#FFFFFF" points="194,467 194,467 194,467 158,467 158,425 194,425 194,467 194,467" stroke="#6d725c" /></g><g id="2B11" stroke="red"><polyline fill="#FFFFFF" points="144,321 144,352 113,352 113,321 113,321" stroke="#6d725c" /></g><g id="2B12" stroke="red"><polyline fill="#FFFFFF" points="194,305 194,353 158,353 158,305" stroke="#6d725c" /></g><g id="2B13" stroke="red"><polyline fill="#FFFFFF" points="113,321 113,287 144,287 144,321" stroke="#6d725c" /></g><g id="2B14" stroke="red"><polyline fill="#FFFFFF" points="158,305 158,305 158,305 158,258 194,258 194,305" stroke="#6d725c" /></g><g id="2B15" stroke="red"><polyline fill="#FFFFFF" points="114,268 114,238 145,238 145,268" stroke="#6d725c" /></g><g id="2C01" stroke="red"><polyline fill="#FFFFFF" points="205,570 270,570 270,576 205,576" stroke="#6d725c" /></g><g id="2C02" stroke="red"><polyline fill="#FFFFFF" points="244,550 244,508 279,508 279,550" stroke="#6d725c" /></g><g id="2C03" stroke="red"><polyline fill="#FFFFFF" points="194,508 229,508 229,550 194,550 194,550" stroke="#6d725c" /></g><g id="2C04" stroke="red"><polyline fill="#FFFFFF" points="244,508 244,467 279,467 279,508" stroke="#6d725c" /></g><g id="2C05" stroke="red"><polyline fill="#FFFFFF" points="194,508 194,467 194,467 194,467 229,467 229,508 194,508 194,508" stroke="#6d725c" /></g><g id="2C06" stroke="red"><polyline fill="#FFFFFF" points="244,467 244,425 279,425 279,467" stroke="#6d725c" /></g><g id="2C07" stroke="red"><polyline fill="#FFFFFF" points="194,425 194,425 194,425 229,425 229,467 194,467" stroke="#6d725c" /></g><g id="2C08" stroke="red"><polyline fill="#FFFFFF" points="244,353 244,305 279,305 279,353" stroke="#6d725c" /></g><g id="2C09" stroke="red"><polyline fill="#FFFFFF" points="194,353 194,305 229,305 229,353" stroke="#6d725c" /></g><g id="2C10" stroke="red"><polyline fill="#FFFFFF" points="244,305 244,258 279,258 279,305" stroke="#6d725c" /></g><g id="2C11" stroke="red"><polyline fill="#FFFFFF" points="194,258 194,258 194,258 229,258 229,305 194,305" stroke="#6d725c" /></g><g id="2C12" stroke="red"><polyline fill="#FFFFFF" points="286,205 286,238 286,238 286,238 248,238 248,205 248,205 248,205 286,205 286,205" stroke="#6d725c" /></g><g id="2C13" stroke="red"><polyline fill="#FFFFFF" points="248,238 210,238 210,205 248,205 248,238 248,238" stroke="#6d725c" /></g><g id="2D01" stroke="red"><polyline fill="#FFFFFF" points="329,570 329,594 329,594 329,594 286,594 286,570 329,570 329,570" stroke="#6d725c" /></g><g id="2D02" stroke="red"><polyline fill="#FFFFFF" points="329,594 329,570 371,570 371,594" stroke="#6d725c" /></g><g id="2D03" stroke="red"><polyline fill="#FFFFFF" points="279,550 279,508 315,508 315,550" stroke="#6d725c" /></g><g id="2D04" stroke="red"><polyline fill="#FFFFFF" points="329,550 329,508 364,508 364,550" stroke="#6d725c" /></g><g id="2D05" stroke="red"><polyline fill="#FFFFFF" points="279,508 279,467 315,467 315,508" stroke="#6d725c" /></g><g id="2D06" stroke="red"><polyline fill="#FFFFFF" points="329,508 329,467 364,467 364,508" stroke="#6d725c" /></g><g id="2D07" stroke="red"><polyline fill="#FFFFFF" points="279,467 279,425 315,425 315,467" stroke="#6d725c" /></g><g id="2D08" stroke="red"><polyline fill="#FFFFFF" points="329,467 329,425 364,425 364,467" stroke="#6d725c" /></g><g id="2D09" stroke="red"><polyline fill="#FFFFFF" points="315,353 279,353 279,305 279,305 279,305 315,305" stroke="#6d725c" /></g><g id="2D10" stroke="red"><polyline fill="#FFFFFF" points="364,316 364,316 364,316 364,353 329,353 329,316" stroke="#6d725c" /></g><g id="2D11" stroke="red"><polyline fill="#FFFFFF" points="315,305 279,305 279,258 315,258 315,305 315,305" stroke="#6d725c" /></g><g id="2D12" stroke="red"><polyline fill="#FFFFFF" points="364,316 329,316 329,316 329,316 329,279 351,279 364,279" stroke="#6d725c" /></g><g id="2D14" stroke="red"><polyline fill="#FFFFFF" points="364,279 364,279 364,279 364,279 364,279 351,279 329,279 329,254 364,245 364,272" stroke="#6d725c" /></g><g id="2D15" stroke="red"><polyline fill="#FFFFFF" points="315,188 315,238 286,238 286,205 291,205 291,188 315,188 315,188" stroke="#6d725c" /></g><g id="2D16" stroke="red"><polyline fill="#FFFFFF" points="315,238 315,238 315,238 315,188 343,188 343,231" stroke="#6d725c" /></g><g id="2D18" stroke="red"><polyline fill="#FFFFFF" points="373,172 373,223 343,231 343,231 343,231 343,188 343,188 343,172 373,172 373,172" stroke="#6d725c" /></g><g id="2E01" stroke="red"><polyline fill="#FFFFFF" points="405,618 371,618 371,594 371,594 371,570 371,570 371,570 405,570 405,570" stroke="#6d725c" /></g><g id="2E02" stroke="red"><polyline fill="#FFFFFF" points="405,570 438,570 438,618 405,618 405,618" stroke="#6d725c" /></g><g id="2E03" stroke="red"><polyline fill="#FFFFFF" points="364,550 364,508 398,508 398,550" stroke="#6d725c" /></g><g id="2E04" stroke="red"><polyline fill="#FFFFFF" points="447,508 447,508 447,508 447,550 413,550 413,508" stroke="#6d725c" /></g><g id="2E05" stroke="red"><polyline fill="#FFFFFF" points="364,508 364,467 398,467 398,508" stroke="#6d725c" /></g><g id="2E06" stroke="red"><polyline fill="#FFFFFF" points="413,508 413,508 413,508 413,467 447,467 447,508" stroke="#6d725c" /></g><g id="2E07" stroke="red"><polyline fill="#FFFFFF" points="364,466 364,425 398,425 398,466" stroke="#6d725c" /></g><g id="2E08" stroke="red"><polyline fill="#FFFFFF" points="447,467 413,467 413,425 447,425 447,466 447,466" stroke="#6d725c" /></g><g id="2E09" stroke="red"><polyline fill="#FFFFFF" points="398,316 398,316 398,316 398,353 364,353 364,316" stroke="#6d725c" /></g><g id="2E10" stroke="red"><polyline fill="#FFFFFF" points="413,353 413,316 447,316 447,353" stroke="#6d725c" /></g><g id="2E11" stroke="red"><polyline fill="#FFFFFF" points="364,316 364,316 364,316 364,279 364,279 364,279 398,279 398,316" stroke="#6d725c" /></g><g id="2E12" stroke="red"><polyline fill="#FFFFFF" points="447,279 447,279 447,279 447,316 413,316 413,279" stroke="#6d725c" /></g><g id="2E13" stroke="red"><polyline fill="#FFFFFF" points="364,245 364,245 364,245 374,242 398,242 398,279 364,279 364,272" stroke="#6d725c" /></g><g id="2E14" stroke="red"><polyline fill="#FFFFFF" points="413,279 413,279 413,279 413,242 447,242 447,279" stroke="#6d725c" /></g><g id="2E15" stroke="red"><polyline fill="#FFFFFF" points="373,223 373,172 402,172 402,223 373,223 373,223" stroke="#6d725c" /></g><g id="2E16" stroke="red"><polyline fill="#FFFFFF" points="446,172 446,223 417,223 417,172 446,172 446,172" stroke="#6d725c" /></g><g id="2F01" stroke="red"><polyline fill="#FFFFFF" points="438,618 438,570 472,570 472,618" stroke="#6d725c" /></g><g id="2F02" stroke="red"><polyline fill="#FFFFFF" points="534,552 534,612 534,618 505,618 505,618 505,618 505,618 505,570 505,570 534,552 534,552" stroke="#6d725c" /></g><g id="2F03" stroke="red"><polyline fill="#FFFFFF" points="472,618 472,570 505,570 505,570 505,618" stroke="#6d725c" /></g><g id="2F04" stroke="red"><polyline fill="#FFFFFF" points="564,535 564,618 534,618 534,612 534,552 564,535 564,535" stroke="#6d725c" /></g><g id="2F05" stroke="red"><polyline fill="#FFFFFF" points="447,550 447,508 481,508 481,550" stroke="#6d725c" /></g><g id="2F06" stroke="red"><polyline fill="#FFFFFF" points="496,512 496,512 530,512 530,512 564,512 564,512 564,512 500,550 496,550 496,512" stroke="#6d725c" /></g><g id="2F07" stroke="red"><polyline fill="#FFFFFF" points="447,508 447,467 481,467 481,508" stroke="#6d725c" /></g><g id="2F08" stroke="red"><polyline fill="#FFFFFF" points="530,469 530,469 530,512 496,512 496,469 530,469 530,469 530,469 530,469 530,469" stroke="#6d725c" /></g><g id="2F09" stroke="red"><polyline fill="#FFFFFF" points="447,425 447,425 447,425 481,425 481,466 447,466" stroke="#6d725c" /></g><g id="2F10" stroke="red"><polyline fill="#FFFFFF" points="496,469 496,469 496,469 496,425 530,425 530,469" stroke="#6d725c" /></g><g id="2F11" stroke="red"><polyline fill="#FFFFFF" points="447,353 447,316 481,316 481,353" stroke="#6d725c" /></g><g id="2F12" stroke="red"><polyline fill="#FFFFFF" points="496,353 496,316 530,316 530,353" stroke="#6d725c" /></g><g id="2F13" stroke="red"><polyline fill="#FFFFFF" points="481,279 481,316 447,316 447,279" stroke="#6d725c" /></g><g id="2F14" stroke="red"><polyline fill="#FFFFFF" points="530,279 530,279 530,316 496,316 496,279" stroke="#6d725c" /></g><g id="2F15" stroke="red"><polyline fill="#FFFFFF" points="447,279 447,242 481,242 481,279" stroke="#6d725c" /></g><g id="2F16" stroke="red"><polyline fill="#FFFFFF" points="496,279 496,279 496,242 530,242 530,279" stroke="#6d725c" /></g><g id="2F17" stroke="red"><polyline fill="#FFFFFF" points="475,172 475,223 475,223 475,223 446,223 446,223 446,223 446,172 475,172 475,172" stroke="#6d725c" /></g><g id="2F18" stroke="red"><polyline fill="#FFFFFF" points="504,172 504,223 475,223 475,172 504,172 504,172" stroke="#6d725c" /></g><g id="2F20" stroke="red"><polyline fill="#FFFFFF" points="534,182 534,223 534,223 534,223 504,223 504,223 504,223 504,172 531,172 531,179 534,179 534,182" stroke="#6d725c" /></g><g id="2G01" stroke="red"><polyline fill="#FFFFFF" points="564,535 593,518 593,618 564,618" stroke="#6d725c" /></g><g id="2G02" stroke="red"><polyline fill="#FFFFFF" points="579,482 579,453 619,453 619,482" stroke="#6d725c" /></g><g id="2G03" stroke="red"><polyline fill="#FFFFFF" points="530,512 530,469 564,469 564,512" stroke="#6d725c" /></g><g id="2G04" stroke="red"><polyline fill="#FFFFFF" points="579,453 579,425 619,425 619,453" stroke="#6d725c" /></g><g id="2G05" stroke="red"><polyline fill="#FFFFFF" points="530,469 530,469 530,425 564,425 564,469 530,469" stroke="#6d725c" /></g><g id="2G06" stroke="red"><polyline fill="#FFFFFF" points="579,353 579,316 613,316 613,353" stroke="#6d725c" /></g><g id="2G07" stroke="red"><polyline fill="#FFFFFF" points="564,353 530,353 530,316 530,316 530,316 564,316" stroke="#6d725c" /></g><g id="2G08" stroke="red"><polyline fill="#FFFFFF" points="613,279 613,316 579,316 579,279 579,279" stroke="#6d725c" /></g><g id="2G09" stroke="red"><polyline fill="#FFFFFF" points="564,316 530,316 530,279 564,279 564,316 564,316" stroke="#6d725c" /></g><g id="2G10" stroke="red"><polyline fill="#FFFFFF" points="579,279 579,242 613,242 613,279 613,279" stroke="#6d725c" /></g><g id="2G11" stroke="red"><polyline fill="#FFFFFF" points="530,279 530,242 564,242 564,279" stroke="#6d725c" /></g><g id="2G12" stroke="red"><polyline fill="#FFFFFF" points="601,183 601,223 601,223 601,223 567,223 567,223 567,182 601,182 601,183" stroke="#6d725c" /></g><g id="2G13" stroke="red"><polyline fill="#FFFFFF" points="567,182 567,223 534,223 534,182 567,182 567,182" stroke="#6d725c" /></g><g id="2H01" stroke="red"><polyline fill="#FFFFFF" points="619,482 619,453 660,453 660,482" stroke="#6d725c" /></g><g id="2H03" stroke="red"><polyline fill="#FFFFFF" points="619,453 619,425 660,425 660,453" stroke="#6d725c" /></g><g id="2H05" stroke="red"><polyline fill="#FFFFFF" points="648,316 648,353 613,353 613,316" stroke="#6d725c" /></g><g id="2H06" stroke="red"><polyline fill="#FFFFFF" points="662,353 662,316 697,316 697,353" stroke="#6d725c" /></g><g id="2H07" stroke="red"><polyline fill="#FFFFFF" points="613,316 613,279 648,279 648,316" stroke="#6d725c" /></g><g id="2H08" stroke="red"><polyline fill="#FFFFFF" points="697,279 697,316 662,316 662,279 662,279" stroke="#6d725c" /></g><g id="2H10" stroke="red"><polyline fill="#FFFFFF" points="662,279 662,242 697,242 697,279 697,279" stroke="#6d725c" /></g><g id="2H11" stroke="red"><polyline fill="#FFFFFF" points="635,183 635,223 601,223 601,183 635,183 635,183" stroke="#6d725c" /></g><g id="2H12" stroke="red"><polyline fill="#FFFFFF" points="635,223 635,183 669,183 669,223 635,223 635,223" stroke="#6d725c" /></g><g id="2H19" stroke="red"><polyline fill="#FFFFFF" points="613,279 613,242 648,242 648,279" stroke="#6d725c" /></g><g id="2I01" stroke="red"><polyline fill="#FFFFFF" points="700,453 700,482 660,482 660,453" stroke="#6d725c" /></g><g id="2I02" stroke="red"><polyline fill="#FFFFFF" points="750,476 750,451 799,451 799,476" stroke="#6d725c" /></g><g id="2I03" stroke="red"><polyline fill="#FFFFFF" points="660,453 660,425 700,425 700,453 700,453" stroke="#6d725c" /></g><g id="2I04" stroke="red"><polyline fill="#FFFFFF" points="750,451 750,425 799,425 799,451" stroke="#6d725c" /></g><g id="2I06" stroke="red"><polyline fill="#FFFFFF" points="750,425 750,398 799,398 799,425" stroke="#6d725c" /></g><g id="2I07" stroke="red"><polyline fill="#FFFFFF" points="693,410 693,366 731,366 731,410" stroke="#6d725c" /></g><g id="2I08" stroke="red"><polyline fill="#FFFFFF" points="750,398 750,370 799,370 799,398" stroke="#6d725c" /></g><g id="2I10" stroke="red"><polyline fill="#FFFFFF" points="750,370 750,343 799,343 799,370" stroke="#6d725c" /></g><g id="2I11" stroke="red"><polyline fill="#FFFFFF" points="731,353 697,353 697,316 697,316 697,316 731,316" stroke="#6d725c" /></g><g id="2I12" stroke="red"><polyline fill="#FFFFFF" points="799,301 799,301 799,343 750,343 750,301 750,301" stroke="#6d725c" /></g><g id="2I13" stroke="red"><polyline fill="#FFFFFF" points="731,316 697,316 697,279 731,279 731,316 731,316" stroke="#6d725c" /></g><g id="2I14" stroke="red"><polyline fill="#FFFFFF" points="750,301 750,272 799,272 799,301" stroke="#6d725c" /></g><g id="2I15" stroke="red"><polyline fill="#FFFFFF" points="697,279 697,242 731,242 731,279" stroke="#6d725c" /></g><g id="2I16" stroke="red"><polyline fill="#FFFFFF" points="799,242 799,242 799,272 750,272 750,242" stroke="#6d725c" /></g><g id="2I18" stroke="red"><polyline fill="#FFFFFF" points="750,242 750,223 693,223 693,223 693,187 714,187 714,187 714,171 712,171 712,171 698,171 698,122 799,57 799,154 799,154 799,242" stroke="#6d725c" /></g><g id="2J01" stroke="red"><polyline fill="#FFFFFF" points="799,507 799,507 799,618 700,618 700,509 616,509 616,501 731,501 731,507 750,507" stroke="#6d725c" /></g><g id="2J06" stroke="red"><polyline fill="#FFFFFF" points="750,507 750,477 799,477 799,507" stroke="#6d725c" /></g><g id="2K01" stroke="red"><polyline fill="#FFFFFF" points="398,372 398,405 364,405 364,372" stroke="#6d725c" /></g><g id="2K02" stroke="red"><polyline fill="#FFFFFF" points="413,405 413,372 447,372 447,405" stroke="#6d725c" /></g><g id="2K03" stroke="red"><polyline fill="#FFFFFF" points="364,405 325,405 324,405 323,405 322,405 322,404 321,403 320,403 320,402 320,401 319,400 319,399 319,378 319,377 320,376 320,375 320,374 321,374 322,373 322,373 323,372 324,372 325,372 364,372" stroke="#6d725c" /></g><g id="2K04" stroke="red"><polyline fill="#FFFFFF" points="447,405 447,372 481,372 481,405" stroke="#6d725c" /></g><g id="2K05" stroke="red"><polyline fill="#FFFFFF" points="496,405 496,372 523,372 523,405" stroke="#6d725c" /></g><g id="2K08" stroke="red"><polyline fill="#FFFFFF" points="715,482 715,425 731,425 731,482" stroke="#6d725c" /></g></svg>