<?xml version="1.0" encoding="utf-8" ?>
<svg baseProfile="full" height="632" version="1.1" width="800" xmlns="http://www.w3.org/2000/svg" xmlns:ev="http://www.w3.org/2001/xml-events" xmlns:xlink="http://www.w3.org/1999/xlink"><defs /><g id="1A01" stroke="red"><polyline fill="#FFFFFF" points="174,560 174,628 139,628 118,628 118,543 139,543" stroke="#6d725c" /></g><g id="1A03" stroke="red"><polyline fill="#FFFFFF" points="118,543 118,433 139,433 139,543" stroke="#6d725c" /></g><g id="1A04" stroke="red"><polyline fill="#FFFFFF" points="237,527 174,527 174,434 237,434 237,481" stroke="#6d725c" /></g><g id="1A05" stroke="red"><polyline fill="#FFFFFF" points="139,362 139,433 118,433 118,362" stroke="#6d725c" /></g><g id="1A06" stroke="red"><polyline fill="#FFFFFF" points="118,362 118,362 118,279 75,279 75,267 172,267 173,267 173,362 139,362" stroke="#6d725c" /></g><g id="1A07" stroke="red"><polyline fill="#FFFFFF" points="192,362 192,313 300,313 300,362" stroke="#6d725c" /></g><g id="1A09" stroke="red"><polyline fill="#FFFFFF" points="345,231 303,293 192,293 192,248 211,248 211,214 293,214 293,197 345,197" stroke="#6d725c" /></g><g id="1B01" stroke="red"><polyline fill="#FFFFFF" points="206,585 206,547 271,547 271,585" stroke="#6d725c" /></g><g id="1B02" stroke="red"><polyline fill="#FFFFFF" points="295,586 295,600 289,600 289,585 287,585 287,547 316,547 316,586" stroke="#6d725c" /></g><g id="1B03" stroke="red"><polyline fill="#FFFFFF" points="237,481 300,481 300,527 237,527" stroke="#6d725c" /></g><g id="1B04" stroke="red"><polyline fill="#FFFFFF" points="373,481 373,527 314,527 314,481" stroke="#6d725c" /></g><g id="1B05" stroke="red"><polyline fill="#FFFFFF" points="237,481 237,434 300,434 300,481" stroke="#6d725c" /></g><g id="1B06" stroke="red"><polyline fill="#FFFFFF" points="314,481 314,434 373,434 373,481" stroke="#6d725c" /></g><g id="1B08" stroke="red"><polyline fill="#FFFFFF" points="314,360 314,311 352,254 354,253 357,251 360,251 362,251 365,251 368,252 370,254 371,256 372,259 373,262 373,360" stroke="#6d725c" /></g><g id="1D01" stroke="red"><polyline fill="#FFFFFF" points="316,547 387,547 387,576 405,576 405,606 373,606 373,603 316,603 316,586" stroke="#6d725c" /></g><g id="1D04" stroke="red"><polyline fill="#FFFFFF" points="392,491 392,434 429,434 429,491" stroke="#6d725c" /></g><g id="1D06" stroke="red"><polyline fill="#FFFFFF" points="387,416 387,380 434,380 434,416" stroke="#6d725c" /></g><g id="1D08" stroke="red"><polyline fill="#FFFFFF" points="387,360 387,313 434,313 434,360" stroke="#6d725c" /></g><g id="1D10" stroke="red"><polyline fill="#FFFFFF" points="387,298 387,250 434,250 434,298" stroke="#6d725c" /></g><g id="1D12" stroke="red"><polyline fill="#FFFFFF" points="488,231 449,231 449,190 488,190 488,190" stroke="#6d725c" /></g><g id="1E01" stroke="red"><polyline fill="#FFFFFF" points="489,606 449,606 449,515 489,515 489,606" stroke="#6d725c" /></g><g id="1E02" stroke="red"><polyline fill="#FFFFFF" points="530,606 489,606 489,515 530,515 530,536" stroke="#6d725c" /></g><g id="1E03" stroke="red"><polyline fill="#FFFFFF" points="449,491 449,434 510,434 510,491" stroke="#6d725c" /></g><g id="1E05" stroke="red"><polyline fill="#FFFFFF" points="449,414 449,380 510,380 510,414" stroke="#6d725c" /></g><g id="1E07" stroke="red"><polyline fill="#FFFFFF" points="449,360 449,313 510,313 510,360" stroke="#6d725c" /></g><g id="1E09" stroke="red"><polyline fill="#FFFFFF" points="449,298 449,250 510,250 510,298" stroke="#6d725c" /></g><g id="1E11" stroke="red"><polyline fill="#FFFFFF" points="521,231 488,231 488,190 521,190 521,231 521,231" stroke="#6d725c" /></g><g id="1F02" stroke="red"><polyline fill="#FFFFFF" points="571,536 612,536 612,606 571,606" stroke="#6d725c" /></g><g id="1F03" stroke="red"><polyline fill="#FFFFFF" points="612,536 571,536 530,536 530,515 612,515 612,519 612,519" stroke="#6d725c" /></g><g id="1F04" stroke="red"><polyline fill="#FFFFFF" points="522,491 522,434 588,434 588,491" stroke="#6d725c" /></g><g id="1F06" stroke="red"><polyline fill="#FFFFFF" points="537,418 537,397 587,397 587,418" stroke="#6d725c" /></g><g id="1F08" stroke="red"><polyline fill="#FFFFFF" points="525,360 525,313 582,313 582,360" stroke="#6d725c" /></g><g id="1F10" stroke="red"><polyline fill="#FFFFFF" points="525,298 525,250 582,250 582,298" stroke="#6d725c" /></g><g id="1F12" stroke="red"><polyline fill="#FFFFFF" points="521,231 521,190 521,190 521,190 570,190 570,231" stroke="#6d725c" /></g><g id="1G03" stroke="red"><polyline fill="#FFFFFF" points="612,519 612,515 612,515 612,513 693,513 693,519" stroke="#6d725c" /></g><g id="1G05" stroke="red"><polyline fill="#FFFFFF" points="603,491 603,434 673,434 673,491" stroke="#6d725c" /></g><g id="1G07" stroke="red"><polyline fill="#FFFFFF" points="611,397 611,381 659,381 659,397" stroke="#6d725c" /></g><g id="1G09" stroke="red"><polyline fill="#FFFFFF" points="597,360 597,313 673,313 673,360" stroke="#6d725c" /></g><g id="1G11" stroke="red"><polyline fill="#FFFFFF" points="597,298 597,250 673,250 673,298" stroke="#6d725c" /></g><g id="1G13" stroke="red"><polyline fill="#FFFFFF" points="570,190 570,190 620,190 620,231 570,231" stroke="#6d725c" /></g><g id="1G15" stroke="red"><polyline fill="#FFFFFF" points="644,231 644,192 693,192 693,231" stroke="#6d725c" /></g><g id="1H02" stroke="red"><polyline fill="#FFFFFF" points="693,513 693,442 784,442 784,524 693,524 693,519" stroke="#6d725c" /></g><g id="1H04" stroke="red"><polyline fill="#FFFFFF" points="693,442 693,408 784,408 784,442" stroke="#6d725c" /></g><g id="1H06" stroke="red"><polyline fill="#FFFFFF" points="784,385 693,385 693,318 714,318 714,335 784,335" stroke="#6d725c" /></g><g id="1H07" stroke="red"><polyline fill="#FFFFFF" points="714,335 714,318 714,294 784,294 784,335" stroke="#6d725c" /></g><g id="1H08" stroke="red"><polyline fill="#FFFFFF" points="714,294 714,318 693,318 693,250 784,250 784,294" stroke="#6d725c" /></g><g id="1H10" stroke="red"><polyline fill="#FFFFFF" points="693,192 694,192 694,196 784,196 784,231 693,231" stroke="#6d725c" /></g><g id="1H12" stroke="red"><polyline fill="#FFFFFF" points="784,196 716,196 716,194 715,194 715,180 700,180 700,138 784,138" stroke="#6d725c" /></g><g id="1K06" stroke="red"><polyline fill="#FFFFFF" points="576,382 576,376 604,376 604,382" stroke="#6d725c" /></g><g id="1Y01" stroke="red"><polyline fill="#FFFFFF" points="530,606 530,606 530,536 571,536 571,606" stroke="#6d725c" /></g><g id="1Y02" stroke="red"><polyline fill="#FFFFFF" points="411,158 411,145 411,106 449,106 449,158" stroke="#6d725c" /></g><g id="1Y03" stroke="red"><polyline fill="#FFFFFF" points="449,190 449,231 449,231 361,231 361,231 361,143 364,143 364,107 367,107 367,106 411,106 411,145 411,158 449,158" stroke="#6d725c" /></g></svg>