<?xml version="1.0" encoding="utf-8" ?>
<svg baseProfile="full" height="612" version="1.1" width="800" xmlns="http://www.w3.org/2000/svg" xmlns:ev="http://www.w3.org/2001/xml-events" xmlns:xlink="http://www.w3.org/1999/xlink"><defs /><g id="3B01" stroke="red"><polyline fill="#FFFFFF" points="102,488 102,454 113,454 136,454 136,488" stroke="#6d725c" /></g><g id="3B03" stroke="red"><polyline fill="#FFFFFF" points="136,454 113,454 102,454 102,454 67,454 67,431 67,408 136,408" stroke="#6d725c" /></g><g id="3B04" stroke="red"><polyline fill="#FFFFFF" points="155,438 155,408 206,408 206,438" stroke="#6d725c" /></g><g id="3B05" stroke="red"><polyline fill="#FFFFFF" points="81,366 136,366 136,408 67,408 67,408 67,382 67,357 81,357" stroke="#6d725c" /></g><g id="3B06" stroke="red"><polyline fill="#FFFFFF" points="206,438 206,469 155,469 155,438" stroke="#6d725c" /></g><g id="3B07" stroke="red"><polyline fill="#FFFFFF" points="136,366 81,366 81,357 81,301 94,301 94,269 124,269 124,291 124,338 136,338" stroke="#6d725c" /></g><g id="3B08" stroke="red"><polyline fill="#FFFFFF" points="124,338 124,291 124,269 124,269 124,246 141,246 209,246 209,338 136,338" stroke="#6d725c" /></g><g id="3C01" stroke="red"><polyline fill="#FFFFFF" points="268,517 225,517 225,480 268,480 268,480" stroke="#6d725c" /></g><g id="3C03" stroke="red"><polyline fill="#FFFFFF" points="268,480 225,480 225,444 246,444 268,444" stroke="#6d725c" /></g><g id="3C05" stroke="red"><polyline fill="#FFFFFF" points="268,444 246,444 225,444 225,408 268,408" stroke="#6d725c" /></g><g id="3C07" stroke="red"><polyline fill="#FFFFFF" points="228,338 228,297 269,297 269,338" stroke="#6d725c" /></g><g id="3C09" stroke="red"><polyline fill="#FFFFFF" points="228,297 228,257 269,257 269,297" stroke="#6d725c" /></g><g id="3C13" stroke="red"><polyline fill="#FFFFFF" points="239,191 239,223 234,227 209,227 209,227 209,191" stroke="#6d725c" /></g><g id="3C15" stroke="red"><polyline fill="#FFFFFF" points="209,191 209,155 209,155 239,155 239,191" stroke="#6d725c" /></g><g id="3C16" stroke="red"><polyline fill="#FFFFFF" points="258,178 258,178 258,139 289,139 289,178" stroke="#6d725c" /></g><g id="3C17" stroke="red"><polyline fill="#FFFFFF" points="209,155 209,119 239,119 239,155 239,155" stroke="#6d725c" /></g><g id="3C18" stroke="red"><polyline fill="#FFFFFF" points="258,139 258,99 277,99 289,99 289,139" stroke="#6d725c" /></g><g id="3D03" stroke="red"><polyline fill="#FFFFFF" points="268,480 289,480 310,480 310,517 268,517" stroke="#6d725c" /></g><g id="3D04" stroke="red"><polyline fill="#FFFFFF" points="358,489 358,489 358,489 358,529 325,529 325,489" stroke="#6d725c" /></g><g id="3D05" stroke="red"><polyline fill="#FFFFFF" points="289,480 268,480 268,444 310,444 310,480" stroke="#6d725c" /></g><g id="3D06" stroke="red"><polyline fill="#FFFFFF" points="358,489 325,489 325,489 325,489 325,448 325,448 325,448 358,448" stroke="#6d725c" /></g><g id="3D07" stroke="red"><polyline fill="#FFFFFF" points="268,444 268,444 268,408 310,408 310,444 310,444" stroke="#6d725c" /></g><g id="3D08" stroke="red"><polyline fill="#FFFFFF" points="358,448 325,448 325,408 358,408 358,448 358,448" stroke="#6d725c" /></g><g id="3D09" stroke="red"><polyline fill="#FFFFFF" points="269,297 310,297 310,338 269,338" stroke="#6d725c" /></g><g id="3D10" stroke="red"><polyline fill="#FFFFFF" points="325,338 325,297 358,297 358,338" stroke="#6d725c" /></g><g id="3D11" stroke="red"><polyline fill="#FFFFFF" points="269,297 269,257 310,257 310,297" stroke="#6d725c" /></g><g id="3D12" stroke="red"><polyline fill="#FFFFFF" points="358,297 325,297 325,257 358,257" stroke="#6d725c" /></g><g id="3D13" stroke="red"><polyline fill="#FFFFFF" points="269,257 228,257 228,246 241,246 277,216 310,216 310,257" stroke="#6d725c" /></g><g id="3D14" stroke="red"><polyline fill="#FFFFFF" points="325,257 325,216 358,216 358,257" stroke="#6d725c" /></g><g id="3D15" stroke="red"><polyline fill="#FFFFFF" points="313,178 313,198 258,198 258,178 289,178 313,178 313,178" stroke="#6d725c" /></g><g id="3D16" stroke="red"><polyline fill="#FFFFFF" points="354,198 354,198 354,198 313,198 313,178 338,178 338,162 354,162 354,170" stroke="#6d725c" /></g><g id="3E01" stroke="red"><polyline fill="#FFFFFF" points="404,595 368,595 368,572 338,572 338,550 404,550" stroke="#6d725c" /></g><g id="3E02" stroke="red"><polyline fill="#FFFFFF" points="404,595 404,550 441,550 441,595" stroke="#6d725c" /></g><g id="3E03" stroke="red"><polyline fill="#FFFFFF" points="391,529 358,529 358,489 358,489 358,489 391,489" stroke="#6d725c" /></g><g id="3E04" stroke="red"><polyline fill="#FFFFFF" points="438,529 405,529 405,489 405,489 405,489 438,489" stroke="#6d725c" /></g><g id="3E05" stroke="red"><polyline fill="#FFFFFF" points="391,489 358,489 358,448 391,448 391,448 391,448 391,489 391,489" stroke="#6d725c" /></g><g id="3E06" stroke="red"><polyline fill="#FFFFFF" points="438,489 405,489 405,448 438,448 438,448 438,448 438,489 438,489" stroke="#6d725c" /></g><g id="3E07" stroke="red"><polyline fill="#FFFFFF" points="358,448 358,448 358,448 358,408 391,408 391,448" stroke="#6d725c" /></g><g id="3E08" stroke="red"><polyline fill="#FFFFFF" points="405,448 405,448 405,448 405,408 438,408 438,448" stroke="#6d725c" /></g><g id="3E09" stroke="red"><polyline fill="#FFFFFF" points="358,338 358,297 391,297 391,338" stroke="#6d725c" /></g><g id="3E10" stroke="red"><polyline fill="#FFFFFF" points="405,338 405,297 438,297 438,338" stroke="#6d725c" /></g><g id="3E11" stroke="red"><polyline fill="#FFFFFF" points="358,257 391,257 391,297 358,297 358,257" stroke="#6d725c" /></g><g id="3E12" stroke="red"><polyline fill="#FFFFFF" points="405,297 405,257 438,257 438,297" stroke="#6d725c" /></g><g id="3E13" stroke="red"><polyline fill="#FFFFFF" points="391,216 391,257 358,257 358,216" stroke="#6d725c" /></g><g id="3E14" stroke="red"><polyline fill="#FFFFFF" points="405,257 405,216 438,216 438,257" stroke="#6d725c" /></g><g id="3E15" stroke="red"><polyline fill="#FFFFFF" points="354,170 354,144 383,144 383,198 354,198" stroke="#6d725c" /></g><g id="3E16" stroke="red"><polyline fill="#FFFFFF" points="413,144 413,144 413,144 445,144 445,198 413,198" stroke="#6d725c" /></g><g id="3E18" stroke="red"><polyline fill="#FFFFFF" points="413,198 383,198 383,144 413,144 413,198 413,198" stroke="#6d725c" /></g><g id="3F01" stroke="red"><polyline fill="#FFFFFF" points="469,550 469,587 469,595 441,595 441,550 469,550 469,550" stroke="#6d725c" /></g><g id="3F02" stroke="red"><polyline fill="#FFFFFF" points="469,550 496,550 496,595 469,595 469,587" stroke="#6d725c" /></g><g id="3F04" stroke="red"><polyline fill="#FFFFFF" points="496,595 496,550 523,550 523,595" stroke="#6d725c" /></g><g id="3F05" stroke="red"><polyline fill="#FFFFFF" points="472,489 472,489 472,489 472,529 439,529 439,489" stroke="#6d725c" /></g><g id="3F06" stroke="red"><polyline fill="#FFFFFF" points="519,489 519,489 519,489 519,529 486,529 486,489" stroke="#6d725c" /></g><g id="3F07" stroke="red"><polyline fill="#FFFFFF" points="472,489 439,489 439,489 439,489 439,448 439,448 439,448 472,448" stroke="#6d725c" /></g><g id="3F08" stroke="red"><polyline fill="#FFFFFF" points="486,489 486,489 486,489 486,448 519,448 519,448 519,448 519,489" stroke="#6d725c" /></g><g id="3F09" stroke="red"><polyline fill="#FFFFFF" points="472,448 439,448 439,408 472,408 472,448 472,448" stroke="#6d725c" /></g><g id="3F10" stroke="red"><polyline fill="#FFFFFF" points="486,448 486,448 486,448 486,408 519,408 519,448" stroke="#6d725c" /></g><g id="3F11" stroke="red"><polyline fill="#FFFFFF" points="439,338 439,297 472,297 472,338" stroke="#6d725c" /></g><g id="3F12" stroke="red"><polyline fill="#FFFFFF" points="486,338 486,297 519,297 519,338" stroke="#6d725c" /></g><g id="3F13" stroke="red"><polyline fill="#FFFFFF" points="439,297 439,257 472,257 472,297" stroke="#6d725c" /></g><g id="3F14" stroke="red"><polyline fill="#FFFFFF" points="486,297 486,257 519,257 519,297" stroke="#6d725c" /></g><g id="3F15" stroke="red"><polyline fill="#FFFFFF" points="439,257 439,216 472,216 472,257" stroke="#6d725c" /></g><g id="3F16" stroke="red"><polyline fill="#FFFFFF" points="486,257 486,216 519,216 519,257" stroke="#6d725c" /></g><g id="3F17" stroke="red"><polyline fill="#FFFFFF" points="460,197 460,144 488,144 488,197" stroke="#6d725c" /></g><g id="3F18" stroke="red"><polyline fill="#FFFFFF" points="488,144 518,144 518,197 488,197" stroke="#6d725c" /></g><g id="3G01" stroke="red"><polyline fill="#FFFFFF" points="551,550 576,550 576,567 586,567 586,595 551,595 551,575" stroke="#6d725c" /></g><g id="3G03" stroke="red"><polyline fill="#FFFFFF" points="551,595 523,595 523,550 523,550 551,550 551,575" stroke="#6d725c" /></g><g id="3G05" stroke="red"><polyline fill="#FFFFFF" points="552,489 552,489 552,489 552,529 519,529 519,489" stroke="#6d725c" /></g><g id="3G06" stroke="red"><polyline fill="#FFFFFF" points="568,530 568,506 597,489 597,530" stroke="#6d725c" /></g><g id="3G07" stroke="red"><polyline fill="#FFFFFF" points="552,489 519,489 519,489 519,489 519,448 519,448 519,448 552,448" stroke="#6d725c" /></g><g id="3G08" stroke="red"><polyline fill="#FFFFFF" points="567,483 567,448 598,448 598,448 598,448 598,448 629,448" stroke="#6d725c" /></g><g id="3G09" stroke="red"><polyline fill="#FFFFFF" points="552,448 519,448 519,408 552,408 552,448 552,448" stroke="#6d725c" /></g><g id="3G10" stroke="red"><polyline fill="#FFFFFF" points="567,448 567,408 598,408 598,448" stroke="#6d725c" /></g><g id="3G11" stroke="red"><polyline fill="#FFFFFF" points="519,338 519,297 552,297 552,338" stroke="#6d725c" /></g><g id="3G12" stroke="red"><polyline fill="#FFFFFF" points="567,338 567,297 600,297 600,338" stroke="#6d725c" /></g><g id="3G13" stroke="red"><polyline fill="#FFFFFF" points="519,297 519,257 552,257 552,297" stroke="#6d725c" /></g><g id="3G14" stroke="red"><polyline fill="#FFFFFF" points="567,297 567,257 600,257 600,297" stroke="#6d725c" /></g><g id="3G15" stroke="red"><polyline fill="#FFFFFF" points="519,257 519,216 552,216 552,257" stroke="#6d725c" /></g><g id="3G16" stroke="red"><polyline fill="#FFFFFF" points="567,257 567,216 600,216 600,257" stroke="#6d725c" /></g><g id="3G17" stroke="red"><polyline fill="#FFFFFF" points="518,197 518,173 561,173 561,197" stroke="#6d725c" /></g><g id="3G18" stroke="red"><polyline fill="#FFFFFF" points="599,173 605,173 605,197 561,197 561,172 599,172" stroke="#6d725c" /></g><g id="3H01" stroke="red"><polyline fill="#FFFFFF" points="629,408 629,448 629,448 629,448 629,448 629,448 598,448 598,408 629,408 629,408" stroke="#6d725c" /></g><g id="3H02" stroke="red"><polyline fill="#FFFFFF" points="657,432 657,432 657,432 629,448 629,408 657,408 657,423" stroke="#6d725c" /></g><g id="3H03" stroke="red"><polyline fill="#FFFFFF" points="600,338 600,297 633,297 633,338" stroke="#6d725c" /></g><g id="3H04" stroke="red"><polyline fill="#FFFFFF" points="681,338 647,338 647,297 681,297 681,297 681,297" stroke="#6d725c" /></g><g id="3H05" stroke="red"><polyline fill="#FFFFFF" points="600,297 600,257 633,257 633,297" stroke="#6d725c" /></g><g id="3H06" stroke="red"><polyline fill="#FFFFFF" points="647,297 647,257 681,257 681,297" stroke="#6d725c" /></g><g id="3H07" stroke="red"><polyline fill="#FFFFFF" points="600,257 600,216 633,216 633,257" stroke="#6d725c" /></g><g id="3H08" stroke="red"><polyline fill="#FFFFFF" points="647,257 647,216 681,216 681,257" stroke="#6d725c" /></g><g id="3H10" stroke="red"><polyline fill="#FFFFFF" points="628,197 628,173 671,173 671,197" stroke="#6d725c" /></g><g id="3I01" stroke="red"><polyline fill="#FFFFFF" points="669,451 669,490 669,490 669,490 603,490 603,488 597,488 597,488 661,451 669,451 669,451" stroke="#6d725c" /></g><g id="3I03" stroke="red"><polyline fill="#FFFFFF" points="669,451 710,451 710,488 684,488 679,488 679,490 669,490" stroke="#6d725c" /></g><g id="3I04" stroke="red"><polyline fill="#FFFFFF" points="733,451 733,423 780,423 780,451" stroke="#6d725c" /></g><g id="3I05" stroke="red"><polyline fill="#FFFFFF" points="657,423 657,408 714,408 714,432 657,432" stroke="#6d725c" /></g><g id="3I06" stroke="red"><polyline fill="#FFFFFF" points="733,423 733,394 780,394 780,423" stroke="#6d725c" /></g><g id="3I07" stroke="red"><polyline fill="#FFFFFF" points="681,389 681,357 714,357 714,389" stroke="#6d725c" /></g><g id="3I08" stroke="red"><polyline fill="#FFFFFF" points="733,394 733,366 780,366 780,394" stroke="#6d725c" /></g><g id="3I10" stroke="red"><polyline fill="#FFFFFF" points="733,366 733,338 780,338 780,366" stroke="#6d725c" /></g><g id="3I11" stroke="red"><polyline fill="#FFFFFF" points="681,297 714,297 714,338 681,338" stroke="#6d725c" /></g><g id="3I12" stroke="red"><polyline fill="#FFFFFF" points="733,338 733,307 780,307 780,338" stroke="#6d725c" /></g><g id="3I13" stroke="red"><polyline fill="#FFFFFF" points="681,297 681,257 714,257 714,297" stroke="#6d725c" /></g><g id="3I14" stroke="red"><polyline fill="#FFFFFF" points="733,307 733,277 780,277 780,307" stroke="#6d725c" /></g><g id="3I15" stroke="red"><polyline fill="#FFFFFF" points="681,257 681,216 714,216 714,257" stroke="#6d725c" /></g><g id="3I16" stroke="red"><polyline fill="#FFFFFF" points="733,277 733,247 780,247 780,277" stroke="#6d725c" /></g><g id="3I18" stroke="red"><polyline fill="#FFFFFF" points="780,246 733,246 733,216 780,216" stroke="#6d725c" /></g><g id="3I19" stroke="red"><polyline fill="#FFFFFF" points="714,197 671,197 671,173 676,173 676,177 698,177 698,161 714,161" stroke="#6d725c" /></g><g id="3I20" stroke="red"><polyline fill="#FFFFFF" points="733,216 733,197 733,146 733,146 780,147 780,216" stroke="#6d725c" /></g><g id="3K01" stroke="red"><polyline fill="#FFFFFF" points="358,357 391,357 391,389 358,389" stroke="#6d725c" /></g><g id="3K02" stroke="red"><polyline fill="#FFFFFF" points="405,389 405,357 439,357 439,389" stroke="#6d725c" /></g><g id="3K03" stroke="red"><polyline fill="#FFFFFF" points="358,389 358,389 319,389 318,389 317,389 316,388 316,388 315,387 314,386 314,386 313,385 313,384 313,383 313,362 313,361 313,361 314,360 314,359 315,358 316,358 316,357 317,357 318,357 319,357 358,357 358,357" stroke="#6d725c" /></g><g id="3K04" stroke="red"><polyline fill="#FFFFFF" points="439,389 439,357 472,357 472,389" stroke="#6d725c" /></g><g id="3Y02" stroke="red"><polyline fill="#FFFFFF" points="94,301 81,301 81,357 67,357 67,357 67,382 67,408 67,408 67,431 67,454 102,454 102,488 102,488 136,488 206,488 206,537 282,537 282,554 204,554 204,595 21,595 21,293 37,293 37,258 44,258 44,257 77,257 77,196 97,196 97,246 94,246 94,269" stroke="#6d725c" /></g></svg>