<?xml version="1.0" encoding="utf-8" ?>
<svg baseProfile="full" height="372" version="1.1" width="800" xmlns="http://www.w3.org/2000/svg" xmlns:ev="http://www.w3.org/2001/xml-events" xmlns:xlink="http://www.w3.org/1999/xlink"><defs /><g id="GZA5W02" stroke="red"><polyline points="118,227 92,227 92,222 99,222 99,215 118,215" stroke="#6d725c" /></g><g id="GZA5W03" stroke="red"><polyline points="139,227 138,227 136,227 135,226 133,225 132,224 131,223 130,222 130,220 129,219 129,217 129,215 152,215 152,227" stroke="#6d725c" /></g><g id="GZA5W04" stroke="red"><polyline points="353,227 353,222 371,222 371,223 371,224 371,224 370,225 370,226 369,226 368,227 367,227 367,227 366,227" stroke="#6d725c" /></g><g id="GZA5W05" stroke="red"><polyline points="403,227 403,227 403,227 403,227 403,227 403,227 403,227 402,227 402,227 402,227 393,227 391,227 390,227 388,226 387,225 386,224 385,223 384,222 383,220 383,219 383,217 383,215 406,215 406,214 413,214 413,216 413,217 413,219 412,220 412,222 411,223 410,224 409,225 408,226 406,227 405,227 403,227" stroke="#6d725c" /></g><g id="GZA5Y01" stroke="red"><polyline points="14,81 14,15 43,15 43,31 45,35 47,40 48,45 50,50 51,55 52,60 52,65 53,70 53,76 53,81" stroke="#6d725c" /></g><g id="GZA5Y02" stroke="red"><polyline points="171,84 169,85 166,85 164,85 161,86 159,86 156,87 154,87 152,88 149,89 146,89 143,90 139,91 136,91 133,92 130,93 126,93 123,94 120,94 116,94 113,95 111,95 108,94 105,94 103,93 100,92 97,91 95,90 93,88 91,86 87,82 84,76 81,71 79,65 78,60 78,54 78,48 79,42 81,36 83,31 83,18 85,18 85,15 173,15 173,84" stroke="#6d725c" /></g><g id="GZA5Y03" stroke="red"><polyline points="294,105 291,103 288,102 284,100 281,99 278,97 275,96 272,94 268,93 265,91 262,90 259,89 256,88 253,87 250,86 247,86 243,85 240,84 237,84 234,83 231,82 228,82 225,82 221,81 218,81 215,81 212,81 209,81 206,81 203,81 200,81 197,81 194,81 191,82 188,82 185,82 182,83 179,83 176,83 173,84 173,15 297,15 297,107" stroke="#6d725c" /></g><g id="GZA5Y04" stroke="red"><polyline points="406,92 406,92 406,92 406,92 406,92 406,91 405,91 405,91 405,91 405,91 403,91 402,91 400,91 399,91 398,91 396,91 395,91 393,91 392,91 390,91 389,91 388,91 387,91 386,91 385,91 383,91 382,91 381,92 380,92 379,92 378,92 377,92 376,93 374,93 373,94 372,94 371,94 370,95 369,95 368,96 366,97 364,99 363,101 361,102 359,104 358,106 357,108 356,111 355,113 355,115 354,118 352,120 351,122 349,123 347,125 345,126 342,126 340,127 337,126 335,126 333,125 332,125 330,124 329,123 327,123 326,122 324,121 323,121 321,120 320,119 302,109 301,109 301,109 300,109 300,108 299,108 299,108 298,108 298,107 298,107 297,107 297,107 297,15 407,15 407,92" stroke="#6d725c" /></g><g id="GZA5Y05" stroke="red"><polyline points="480,92 479,93 477,93 476,94 475,94 473,95 472,95 471,96 470,96 468,97 467,97 466,98 465,98 464,98 462,99 461,99 460,99 459,99 457,99 456,100 455,100 454,100 453,100 452,100 451,100 451,100 450,100 449,100 448,100 447,100 445,100 442,100 440,99 437,99 435,98 433,98 430,97 428,96 426,96 424,95 422,95 420,94 419,94 417,93 415,93 413,93 412,92 410,92 408,92 407,92 407,15 481,15 481,92" stroke="#6d725c" /></g><g id="GZA5Y06" stroke="red"><polyline points="481,15 564,15 564,118 518,118 506,102 504,100 503,99 501,97 499,96 496,95 494,94 492,93 489,92 487,92 485,92 481,92" stroke="#6d725c" /></g><g id="GZA5Y11" stroke="red"><polyline points="560,184 560,192 531,192 531,190 532,189 532,187 532,185 532,183 532,181 532,180 532,178 532,176 532,174 533,173 533,171 533,169 534,167 534,166 534,164 535,162 535,160 536,159 536,157 537,155 537,152 538,150 540,148 541,146 542,144 544,142 545,140 547,138 549,137 551,136 553,135 554,135 556,134 558,134 560,134 562,135 563,135 565,136 567,137 568,138 569,138 570,139 571,140 572,141 573,142 574,143 575,144 575,145 576,146 577,146 577,147 578,148 578,149 578,150 579,150 579,151 579,152 579,153 579,154 579,178 579,184" stroke="#6d725c" /></g><g id="GZA5Y12" stroke="red"><polyline points="495,145 495,145 495,146 495,146 495,146 495,147 495,147 495,147 495,148 495,148 495,150 495,153 495,155 496,158 496,160 497,163 498,165 499,167 500,169 502,171 503,173 504,174 505,175 506,176 506,178 507,179 508,180 509,182 509,183 510,185 510,186 511,187 511,189 512,190 512,192 512,193 512,195 512,196 513,198 513,199 513,202 512,204 512,206 511,209 510,211 509,213 508,215 506,217 504,219 503,220 501,221 499,222 497,223 495,224 493,225 491,226 489,227 487,228 485,229 483,229 481,230 479,231 476,232 474,233 471,234 469,234 466,235 464,235 461,236 459,236 458,236 456,236 455,236 453,236 452,236 451,237 449,237 448,237 447,237 445,236 444,236 443,236 441,235 440,235 439,234 438,234 437,233 436,232 435,231 434,231 433,230 433,229 432,229 432,228 431,227 431,227 430,226 430,225 430,224 429,223 429,223 429,222 428,221 428,220 428,219 428,218 428,217 428,216 428,215 428,214 461,214 461,204 455,204 455,145 452,145 449,145 449,142 449,140 449,138 450,135 451,133 452,131 453,128 454,127 456,125 458,123 459,122 461,121 462,120 464,119 465,118 467,117 469,117 470,116 472,115 474,115 475,114 476,114 478,114 479,114 480,114 482,114 483,114 484,114 486,114 487,114 489,115 491,116 493,117 495,119 496,120 498,122 498,125 499,127 499,129 498,132 498,133 498,134 497,136 497,137 497,138 496,140 496,141 496,142 495,144 495,145" stroke="#6d725c" /></g><g id="GZA5Y13" stroke="red"><polyline points="560,192 560,184 579,184 579,187 579,227 579,229 578,230 578,231 577,232 577,233 576,234 575,235 574,236 573,237 572,237 570,239 567,240 564,241 562,241 559,241 556,241 553,240 550,239 548,238 546,236 543,235 542,233 540,231 538,229 537,227 536,225 535,222 534,220 533,218 533,215 532,214 532,212 532,211 532,209 532,208 532,206 532,205 532,203 532,202 532,200 532,199 531,199 531,198 531,197 531,196 531,195 531,195 531,194 531,193 531,192" stroke="#6d725c" /></g><g id="GZA5Y14" stroke="red"><polyline points="432,145 414,145 414,144 387,144 387,145 385,145 385,115 432,115" stroke="#6d725c" /></g><g id="GZA5Y15" stroke="red"><polyline points="321,227 318,227 314,225 309,223 305,221 301,218 297,215 294,212 290,208 287,205 285,201 282,196 281,194 280,191 278,189 277,186 276,183 276,180 275,177 274,174 274,172 273,169 273,165 273,161 274,158 275,154 277,151 279,148 281,145 284,142 287,140 291,139 294,137 298,136 302,136 306,136 310,137 314,139 317,141 321,143 323,146 326,149 326,227" stroke="#6d725c" /></g><g id="GZA5Y16" stroke="red"><polyline points="230,184 230,184 230,184 230,184 230,184 230,184 230,184 230,184 230,184 230,184 232,183 233,184 235,184 236,184 237,184 239,184 240,184 241,185 243,185 244,186 245,186 246,186 247,187 248,188 249,188 250,189 251,189 252,190 253,191 254,191 255,192 255,193 256,193 257,194 257,194 258,195 258,196 259,196 259,197 260,197 260,198 261,199 261,200 262,201 262,201 263,202 263,203 264,204 264,205 264,206 265,207 265,208 266,209 266,210 266,211 266,212 266,213 266,214 266,215 266,216 266,217 266,217 265,218 265,219 265,220 264,220 264,221 264,222 263,222 263,223 262,223 262,224 262,224 261,225 261,225 260,225 260,226 260,226 259,226 259,227 257,228 255,229 253,230 251,231 249,231 247,232 244,233 242,233 240,233 238,233 236,233 234,233 233,233 231,233 229,233 227,233 226,232 224,232 222,231 221,231 220,231 219,230 218,230 217,229 217,229 216,229 215,228 214,228 213,228 212,227 209,226 206,225 202,225 199,224 196,224 192,224 189,225 185,225 182,226 179,227 179,188 179,149 179,151 179,152 179,153 180,155 180,156 181,157 181,159 181,160 182,161 183,162 183,163 184,164 184,165 185,166 185,166 186,167 186,168 187,169 188,169 188,170 189,171 190,172 191,173 192,174 193,175 194,176 195,176 197,177 198,178 199,178 200,179 201,179 202,180 203,180 204,181 205,181 206,181 207,182 208,182 209,182 210,182 211,182 212,183 213,183 214,183 215,183 216,183 217,183 218,183 219,183 220,183 221,183 222,183 223,183 225,183 226,183 227,183 228,183 229,184 230,184" stroke="#6d725c" /></g><g id="GZA5Y17" stroke="red"><polyline points="214,163 212,163 210,163 208,162 206,161 205,160 203,159 202,157 200,156 199,154 198,151 197,149 196,147 196,144 195,142 194,139 193,136 192,134 192,131 191,128 191,126 191,123 191,121 191,118 191,116 191,114 192,112 192,110 194,108 195,107 196,105 198,104 200,103 202,103 205,102 207,102 209,101 212,101 214,101 217,101 219,101 221,101 224,101 226,101 228,101 230,102 233,102 235,102 237,103 240,103 242,104 244,104 246,105 249,105 251,106 253,107 255,108 257,109 259,109 262,110 264,112 267,113 269,114 271,115 272,117 273,119 273,120 273,122 272,124 270,126 269,128 267,130 265,133 264,134 262,136 261,137 259,139 257,141 256,142 254,144 252,145 250,147 248,149 246,150 243,152 241,153 239,155 236,156 234,157 231,159 229,160 226,161 224,161 221,162 219,162 216,163" stroke="#6d725c" /></g><g id="GZA5Y18" stroke="red"><polyline points="155,130 153,130 152,130 151,130 149,130 148,130 147,130 145,130 144,130 143,129 142,129 140,129 139,129 138,129 137,129 135,129 134,129 133,128 132,128 131,128 130,128 129,128 127,128 126,128 125,127 124,127 123,127 121,127 120,126 118,126 117,126 115,125 113,124 112,124 110,123 109,123 108,122 108,121 108,120 109,119 110,119 111,118 112,117 113,117 114,116 116,116 117,116 118,115 119,115 120,114 122,114 123,114 124,113 125,113 126,113 128,112 129,112 130,112 131,111 133,111 134,111 135,111 136,111 138,110 139,110 140,110 141,110 143,110 144,109 145,109 146,109 148,109 149,109 150,109 151,109 153,108 154,108 155,108 156,108 158,108 159,108 160,108 162,109 163,109 164,109 165,110 167,110 168,111 169,112 170,112 170,113 171,115 171,116 172,117 172,119 172,120 171,121 171,122 170,124 170,125 169,126 168,127 167,127 166,128 165,129 163,129 162,129 161,130 160,130 159,130 157,130 156,130" stroke="#6d725c" /></g><g id="GZA5Y19" stroke="red"><polyline points="53,81 73,144 73,185 51,185 51,222 80,222 80,246 216,246 216,317 63,317 56,317 0,309 1,202 14,119 14,81" stroke="#6d725c" /></g><g id="GZA5Y25" stroke="red"><polyline points="256,251 256,251 256,251 256,251 256,251 256,251 256,251 256,251 256,251 256,251 287,251 287,278 287,299 253,299 253,316 250,316 250,317 231,317 231,286 231,270 231,268 231,266 232,264 232,262 233,260 234,259 236,257 237,256 239,255 241,254 242,254 244,253 245,253 247,252 248,252 250,252 251,251 253,251 255,251 256,251" stroke="#6d725c" /></g><g id="GZA5Y26" stroke="red"><polyline points="307,317 307,308 296,308 296,287 296,287 297,286 297,285 298,284 298,283 299,282 299,281 300,280 300,279 301,278 301,277 302,276 303,275 304,274 305,272 305,271 306,270 307,269 308,268 309,267 310,265 311,264 312,263 314,261 315,260 316,259 318,258 319,256 320,255 322,254 323,254 324,253 325,252 326,252 327,251 328,250 329,250 331,249 332,249 333,249 334,248 334,248 335,248 336,248 336,248 337,248 337,248 338,248 339,248 339,247 339,317" stroke="#6d725c" /></g><g id="GZA5Y27" stroke="red"><polyline points="339,247 339,247 340,247 341,247 341,247 342,247 343,247 343,247 344,247 345,248 345,248 346,248 347,248 349,248 350,248 351,248 353,249 354,249 355,249 357,250 358,250 359,250 360,250 361,251 362,251 363,251 364,252 365,252 366,252 367,253 368,253 369,253 373,253 373,287 373,317 339,317" stroke="#6d725c" /></g><g id="GZA5Y28" stroke="red"><polyline points="445,351 385,351 385,258 387,255 389,254 391,252 393,250 396,249 398,248 401,248 404,247 406,247 409,248 411,248 412,248 414,249 416,249 417,250 419,251 421,251 422,252 424,253 425,254 427,254 429,255 431,255 433,255 435,256 437,256 439,256 441,256 443,257 445,257" stroke="#6d725c" /></g><g id="GZA5Y29" stroke="red"><polyline points="551,308 551,308 567,308 567,371 567,371 567,371 504,371 479,371 445,371 445,351 445,351 445,257 445,257 445,257 445,257 445,257 445,257 445,257 445,257 445,257 445,257 446,257 447,257 448,257 449,257 450,257 451,257 452,257 453,257 454,257 456,257 457,256 459,256 461,256 463,256 466,255 468,255 470,255 472,254 475,254 477,253 479,252 480,252 481,252 482,251 483,251 484,251 485,250 486,250 486,250 487,249 488,249 490,248 492,248 493,247 495,246 497,246 498,245 500,245 502,245 504,244 506,244 508,244 510,244 512,244 514,245 516,245 518,246 520,246 522,247 524,248 526,249 527,250 528,251 530,252 531,253 532,254 534,254 535,255 537,256 538,256 540,257 541,257 542,258 543,258 544,258 545,259 546,259 547,259 548,259 550,260 551,260" stroke="#6d725c" /></g><g id="GZA5Y30" stroke="red"><polyline points="567,308 567,308 567,308 551,308 551,260 551,260 552,260 552,260 553,260 554,260 555,261 556,261 557,261 558,261 559,261 560,261 562,261 563,261 565,261 566,261 568,261 570,261 571,261 573,260 575,260 576,260 597,252 598,252 599,251 601,251 602,251 603,250 605,250 606,250 608,250 609,250 610,250 638,250 638,268 638,308 638,321 639,323 639,324 640,326 640,327 641,328 643,329 644,330 645,331 647,331 648,331 656,331 656,371 567,371" stroke="#6d725c" /></g></svg>