<?xml version="1.0" encoding="utf-8" ?>
<svg baseProfile="full" height="369" version="1.1" width="800" xmlns="http://www.w3.org/2000/svg" xmlns:ev="http://www.w3.org/2001/xml-events" xmlns:xlink="http://www.w3.org/1999/xlink"><defs /><g id="3A01" stroke="red"><polyline points="23,51 23,11 51,11 51,26 51,51 42,51" stroke="#6d725c" /></g><g id="3A02" stroke="red"><polyline points="54,83 54,63 76,63 76,83" stroke="#6d725c" /></g><g id="3A03" stroke="red"><polyline points="87,51 87,26 90,26 90,13 92,13 92,11 110,11 110,51" stroke="#6d725c" /></g><g id="3A04" stroke="red"><polyline points="76,63 99,63 99,83 76,83" stroke="#6d725c" /></g><g id="3A06" stroke="red"><polyline points="107,83 107,63 128,63 128,83" stroke="#6d725c" /></g><g id="3A07" stroke="red"><polyline points="110,51 110,11 132,11 132,51" stroke="#6d725c" /></g><g id="3A08" stroke="red"><polyline points="128,63 149,63 149,83 128,83" stroke="#6d725c" /></g><g id="3A09" stroke="red"><polyline points="132,51 132,11 155,11 155,51" stroke="#6d725c" /></g><g id="3A10" stroke="red"><polyline points="157,83 157,63 178,63 178,83" stroke="#6d725c" /></g><g id="3A11" stroke="red"><polyline points="155,51 155,11 178,11 178,51" stroke="#6d725c" /></g><g id="3A12" stroke="red"><polyline points="178,63 197,63 197,83 178,83" stroke="#6d725c" /></g><g id="3A13" stroke="red"><polyline points="208,51 178,51 178,11 197,11 197,33 208,33" stroke="#6d725c" /></g><g id="3A15" stroke="red"><polyline points="208,51 208,33 242,33 242,51" stroke="#6d725c" /></g><g id="3A16" stroke="red"><polyline points="205,83 205,63 249,63 249,83" stroke="#6d725c" /></g><g id="3A17" stroke="red"><polyline points="242,51 242,33 242,11 272,11 272,51" stroke="#6d725c" /></g><g id="3A18" stroke="red"><polyline points="257,83 257,63 276,63 276,83" stroke="#6d725c" /></g><g id="3A19" stroke="red"><polyline points="272,51 272,11 295,11 295,51" stroke="#6d725c" /></g><g id="3A20" stroke="red"><polyline points="276,63 295,63 295,83 276,83" stroke="#6d725c" /></g><g id="3A21" stroke="red"><polyline points="295,51 295,11 318,11 318,51" stroke="#6d725c" /></g><g id="3A22" stroke="red"><polyline points="303,83 303,63 327,63 327,83" stroke="#6d725c" /></g><g id="3A23" stroke="red"><polyline points="341,51 318,51 318,11 338,11 338,13 341,13" stroke="#6d725c" /></g><g id="3A24" stroke="red"><polyline points="327,63 348,63 348,83 327,83" stroke="#6d725c" /></g><g id="3A25" stroke="red"><polyline points="341,51 341,13 350,13 350,11 362,11 362,51" stroke="#6d725c" /></g><g id="3A26" stroke="red"><polyline points="360,83 360,63 380,63 380,83" stroke="#6d725c" /></g><g id="3A27" stroke="red"><polyline points="362,11 382,11 382,51 362,51" stroke="#6d725c" /></g><g id="3A28" stroke="red"><polyline points="381,83 381,63 400,63 400,83" stroke="#6d725c" /></g><g id="3A29" stroke="red"><polyline points="404,51 384,51 384,11 404,11 404,51" stroke="#6d725c" /></g><g id="3A30" stroke="red"><polyline points="408,83 408,63 429,63 429,83" stroke="#6d725c" /></g><g id="3A31" stroke="red"><polyline points="404,51 404,11 425,11 425,51" stroke="#6d725c" /></g><g id="3A32" stroke="red"><polyline points="429,63 449,63 449,83 429,83" stroke="#6d725c" /></g><g id="3A33" stroke="red"><polyline points="425,51 425,11 448,11 448,51" stroke="#6d725c" /></g><g id="3A34" stroke="red"><polyline points="457,83 457,63 477,63 477,83" stroke="#6d725c" /></g><g id="3A35" stroke="red"><polyline points="448,51 448,11 471,11 471,51" stroke="#6d725c" /></g><g id="3A36" stroke="red"><polyline points="477,63 497,63 497,83 477,83" stroke="#6d725c" /></g><g id="3A37" stroke="red"><polyline points="494,11 494,51 471,51 471,11 494,11 494,11" stroke="#6d725c" /></g><g id="3A38" stroke="red"><polyline points="505,83 505,63 524,63 524,83" stroke="#6d725c" /></g><g id="3A39" stroke="red"><polyline points="494,51 494,11 522,11 522,51" stroke="#6d725c" /></g><g id="3A40" stroke="red"><polyline points="524,63 544,63 544,83 524,83" stroke="#6d725c" /></g><g id="3A41" stroke="red"><polyline points="522,51 522,11 522,11 547,11 547,51" stroke="#6d725c" /></g><g id="3A42" stroke="red"><polyline points="552,83 552,63 573,63 573,83" stroke="#6d725c" /></g><g id="3A43" stroke="red"><polyline points="547,51 547,11 571,11 571,51" stroke="#6d725c" /></g><g id="3A44" stroke="red"><polyline points="573,63 595,63 595,83 573,83" stroke="#6d725c" /></g><g id="3A45" stroke="red"><polyline points="571,51 571,11 595,11 595,51" stroke="#6d725c" /></g><g id="3A46" stroke="red"><polyline points="606,92 606,63 656,63 656,92" stroke="#6d725c" /></g><g id="3A47A" stroke="red"><polyline points="595,51 595,11 613,11 613,51" stroke="#6d725c" /></g><g id="3A47B" stroke="red"><polyline points="613,51 613,11 631,11 631,51" stroke="#6d725c" /></g><g id="3A49A" stroke="red"><polyline points="631,51 631,11 653,11 653,51" stroke="#6d725c" /></g><g id="3A49B" stroke="red"><polyline points="653,51 653,11 675,11 675,51" stroke="#6d725c" /></g><g id="3A51A" stroke="red"><polyline points="675,51 675,11 697,11 697,51" stroke="#6d725c" /></g><g id="3A51B" stroke="red"><polyline points="697,51 697,11 728,11 728,51" stroke="#6d725c" /></g><g id="3A53" stroke="red"><polyline points="728,11 765,11 770,12 774,14 778,17 781,20 784,24 787,28 789,32 790,36 791,41 791,46 761,163 747,160 744,158 741,157 738,155 735,153 733,150 731,147 730,144 728,141 728,137 728,134 728,127 728,51" stroke="#6d725c" /></g><g id="3B01A" stroke="red"><polyline points="54,125 54,108 76,108 76,125" stroke="#6d725c" /></g><g id="3B01B" stroke="red"><polyline points="54,108 54,91 76,91 76,108" stroke="#6d725c" /></g><g id="3B02A" stroke="red"><polyline points="48,162 48,158 50,137 80,137 80,162" stroke="#6d725c" /></g><g id="3B02B" stroke="red"><polyline points="80,179 59,179 59,195 48,195 48,162 80,162" stroke="#6d725c" /></g><g id="3B03A" stroke="red"><polyline points="76,108 99,108 99,125 76,125" stroke="#6d725c" /></g><g id="3B03B" stroke="red"><polyline points="76,108 76,91 99,91 99,108" stroke="#6d725c" /></g><g id="3B05A" stroke="red"><polyline points="107,125 107,108 128,108 128,125" stroke="#6d725c" /></g><g id="3B05B" stroke="red"><polyline points="107,108 107,91 128,91 128,108" stroke="#6d725c" /></g><g id="3B07A" stroke="red"><polyline points="128,108 149,108 149,125 128,125" stroke="#6d725c" /></g><g id="3B07B" stroke="red"><polyline points="128,108 128,91 149,91 149,108" stroke="#6d725c" /></g><g id="3B09" stroke="red"><polyline points="157,125 157,91 178,91 178,125" stroke="#6d725c" /></g><g id="3B11" stroke="red"><polyline points="178,91 197,91 197,125 178,125" stroke="#6d725c" /></g><g id="3B12A" stroke="red"><polyline points="185,166 185,137 197,137 197,166" stroke="#6d725c" /></g><g id="3B12B" stroke="red"><polyline points="197,195 185,195 185,166 185,166 185,166 197,166" stroke="#6d725c" /></g><g id="3B13" stroke="red"><polyline points="205,125 205,91 228,91 228,125" stroke="#6d725c" /></g><g id="3B14A" stroke="red"><polyline points="205,166 205,137 227,137 227,166" stroke="#6d725c" /></g><g id="3B14B" stroke="red"><polyline points="205,196 205,174 227,174 227,196" stroke="#6d725c" /></g><g id="3B15" stroke="red"><polyline points="228,91 249,91 249,125 228,125" stroke="#6d725c" /></g><g id="3B16A" stroke="red"><polyline points="227,137 245,137 245,166 227,166" stroke="#6d725c" /></g><g id="3B16B" stroke="red"><polyline points="227,196 227,174 245,174 245,196" stroke="#6d725c" /></g><g id="3B17" stroke="red"><polyline points="257,125 257,91 277,91 277,125" stroke="#6d725c" /></g><g id="3B18A" stroke="red"><polyline points="253,166 253,137 272,137 272,166" stroke="#6d725c" /></g><g id="3B18B" stroke="red"><polyline points="253,196 253,174 272,174 272,196" stroke="#6d725c" /></g><g id="3B19" stroke="red"><polyline points="277,125 277,91 295,91 295,125 277,125 277,125" stroke="#6d725c" /></g><g id="3B20A" stroke="red"><polyline points="272,137 290,137 290,166 272,166" stroke="#6d725c" /></g><g id="3B20B" stroke="red"><polyline points="272,196 272,174 290,174 290,196" stroke="#6d725c" /></g><g id="3B21" stroke="red"><polyline points="303,125 303,91 327,91 327,125" stroke="#6d725c" /></g><g id="3B22A" stroke="red"><polyline points="298,166 298,137 330,137 330,166" stroke="#6d725c" /></g><g id="3B22B" stroke="red"><polyline points="298,181 298,166 330,166 330,166 330,181" stroke="#6d725c" /></g><g id="3B22C" stroke="red"><polyline points="298,196 298,181 330,181 330,196" stroke="#6d725c" /></g><g id="3B23" stroke="red"><polyline points="327,91 348,91 348,125 327,125" stroke="#6d725c" /></g><g id="3B25" stroke="red"><polyline points="360,125 360,91 380,91 380,125" stroke="#6d725c" /></g><g id="3B27" stroke="red"><polyline points="381,125 381,91 400,91 400,125" stroke="#6d725c" /></g><g id="3B29" stroke="red"><polyline points="408,125 408,91 429,91 429,125" stroke="#6d725c" /></g><g id="3B31" stroke="red"><polyline points="429,91 449,91 449,125 429,125" stroke="#6d725c" /></g><g id="3B33" stroke="red"><polyline points="457,125 457,91 477,91 477,125" stroke="#6d725c" /></g><g id="3B35" stroke="red"><polyline points="477,91 497,91 497,125 477,125" stroke="#6d725c" /></g><g id="3B36A" stroke="red"><polyline points="459,166 459,137 493,137 493,166" stroke="#6d725c" /></g><g id="3B36B" stroke="red"><polyline points="459,181 459,166 493,166 493,181" stroke="#6d725c" /></g><g id="3B36C" stroke="red"><polyline points="464,196 459,196 459,181 493,181 493,196" stroke="#6d725c" /></g><g id="3B37" stroke="red"><polyline points="505,125 505,91 524,91 524,125" stroke="#6d725c" /></g><g id="3B38A" stroke="red"><polyline points="501,166 501,137 523,137 523,166" stroke="#6d725c" /></g><g id="3B38B" stroke="red"><polyline points="523,196 501,196 501,166 523,166 523,181" stroke="#6d725c" /></g><g id="3B39" stroke="red"><polyline points="524,91 544,91 544,125 524,125" stroke="#6d725c" /></g><g id="3B40" stroke="red"><polyline points="523,181 523,166 523,137 541,137 541,181" stroke="#6d725c" /></g><g id="3B41" stroke="red"><polyline points="552,125 552,91 573,91 573,125" stroke="#6d725c" /></g><g id="3B42A" stroke="red"><polyline points="549,159 549,137 582,137 582,159 581,159" stroke="#6d725c" /></g><g id="3B42B" stroke="red"><polyline points="549,181 549,159 581,159 581,181 581,181" stroke="#6d725c" /></g><g id="3B43" stroke="red"><polyline points="573,91 595,91 595,125 573,125" stroke="#6d725c" /></g><g id="3B45" stroke="red"><polyline points="656,92 656,125 606,125 606,92" stroke="#6d725c" /></g><g id="3B46" stroke="red"><polyline points="685,167 668,167 668,156 661,156 661,150 652,139 685,139" stroke="#6d725c" /></g><g id="3B47" stroke="red"><polyline points="672,125 672,125 671,125 671,125 670,124 670,124 669,123 669,123 669,122 668,122 668,121 668,67 668,66 669,66 669,65 669,64 670,64 670,64 671,63 671,63 672,63 672,63 710,63 711,63 712,63 712,63 713,64 713,64 714,64 714,65 714,66 714,66 714,67 714,117 714,118 714,119 713,121 713,122 712,123 711,123 710,124 709,125 708,125 706,125" stroke="#6d725c" /></g><g id="3C01" stroke="red"><polyline points="59,195 59,215 87,215 87,225 48,225 48,195" stroke="#6d725c" /></g><g id="3C03" stroke="red"><polyline points="36,211 36,237 69,237 69,309 65,309 9,301 9,211" stroke="#6d725c" /></g><g id="3C05" stroke="red"><polyline points="99,225 99,215 106,215 106,208 125,208 125,225" stroke="#6d725c" /></g><g id="3C06" stroke="red"><polyline points="77,271 77,237 126,237 126,271" stroke="#6d725c" /></g><g id="3C07" stroke="red"><polyline points="137,225 137,208 158,208 158,225" stroke="#6d725c" /></g><g id="3C08" stroke="red"><polyline points="138,271 138,237 164,237 164,271" stroke="#6d725c" /></g><g id="3C09" stroke="red"><polyline points="197,195 197,225 184,225 184,195 185,195" stroke="#6d725c" /></g><g id="3C10" stroke="red"><polyline points="176,271 176,237 211,237 211,271" stroke="#6d725c" /></g><g id="3C11" stroke="red"><polyline points="205,225 205,196 227,196 227,225" stroke="#6d725c" /></g><g id="3C12" stroke="red"><polyline points="211,237 245,237 245,271 211,271" stroke="#6d725c" /></g><g id="3C13" stroke="red"><polyline points="227,196 245,196 245,225 227,225" stroke="#6d725c" /></g><g id="3C14" stroke="red"><polyline points="253,271 253,237 272,237 272,271" stroke="#6d725c" /></g><g id="3C15" stroke="red"><polyline points="253,225 253,196 272,196 272,225" stroke="#6d725c" /></g><g id="3C16" stroke="red"><polyline points="272,237 290,237 290,271 272,271" stroke="#6d725c" /></g><g id="3C17" stroke="red"><polyline points="272,196 290,196 290,225 272,225" stroke="#6d725c" /></g><g id="3C19" stroke="red"><polyline points="330,196 330,225 298,225 298,196" stroke="#6d725c" /></g><g id="3C20A" stroke="red"><polyline points="298,256 298,237 327,237 327,256" stroke="#6d725c" /></g><g id="3C20B" stroke="red"><polyline points="298,271 298,256 327,256 327,271" stroke="#6d725c" /></g><g id="3C22" stroke="red"><polyline points="327,256 327,237 348,237 348,271 327,271" stroke="#6d725c" /></g><g id="3C23" stroke="red"><polyline points="357,225 357,215 375,215 375,225" stroke="#6d725c" /></g><g id="3C24" stroke="red"><polyline points="360,271 360,237 389,237 389,271" stroke="#6d725c" /></g><g id="3C25" stroke="red"><polyline points="389,225 389,208 427,208 427,225" stroke="#6d725c" /></g><g id="3C26" stroke="red"><polyline points="414,271 389,271 389,237 414,237 414,254" stroke="#6d725c" /></g><g id="3C27" stroke="red"><polyline points="427,225 427,208 427,208 431,208 431,209 439,209 439,207 464,207 464,225" stroke="#6d725c" /></g><g id="3C28A" stroke="red"><polyline points="414,254 414,237 439,237 439,254" stroke="#6d725c" /></g><g id="3C28B" stroke="red"><polyline points="414,254 439,254 439,271 414,271" stroke="#6d725c" /></g><g id="3C30A" stroke="red"><polyline points="447,254 447,237 470,237 470,254" stroke="#6d725c" /></g><g id="3C30B" stroke="red"><polyline points="447,271 447,254 470,254 470,271" stroke="#6d725c" /></g><g id="3C31" stroke="red"><polyline points="464,207 464,196 493,196 493,225 464,225" stroke="#6d725c" /></g><g id="3C32" stroke="red"><polyline points="470,254 470,237 493,237 493,271 470,271" stroke="#6d725c" /></g><g id="3C33" stroke="red"><polyline points="501,225 501,196 523,196 523,225" stroke="#6d725c" /></g><g id="3C34A" stroke="red"><polyline points="501,256 501,237 530,237 530,256" stroke="#6d725c" /></g><g id="3C34B" stroke="red"><polyline points="501,271 501,256 530,256 530,271" stroke="#6d725c" /></g><g id="3C35" stroke="red"><polyline points="523,196 523,181 541,181 541,225 523,225" stroke="#6d725c" /></g><g id="3C36" stroke="red"><polyline points="530,256 530,237 554,237 556,237 558,238 560,239 562,241 563,243 563,245 563,248 563,250 562,252 560,254 543,270 543,270 543,270 542,270 542,270 542,270 542,270 541,270 541,271 541,271 540,271 530,271" stroke="#6d725c" /></g><g id="3C37A" stroke="red"><polyline points="581,201 581,225 549,225 549,201" stroke="#6d725c" /></g><g id="3C37B" stroke="red"><polyline points="549,201 549,181 581,181 581,201" stroke="#6d725c" /></g><g id="3C43" stroke="red"><polyline points="638,225 638,208 689,208 682,223 682,223 681,223 681,224 681,224 680,224 680,224 680,225 679,225 679,225 678,225" stroke="#6d725c" /></g><g id="3C45" stroke="red"><polyline points="735,195 734,195 733,195 732,195 732,195 731,196 730,196 730,197 729,197 729,198 728,199 711,233 696,224 712,192 713,190 715,188 717,186 720,184 722,183 725,182 727,181 730,181 733,182 736,182 754,188 752,195" stroke="#6d725c" /></g><g id="3C47" stroke="red"><polyline points="738,249 737,255 683,255 683,245 681,243 692,231 696,224 711,233 728,199 729,198 729,197 730,197 730,196 731,196 732,195 732,195 733,195 734,195 735,195 752,195" stroke="#6d725c" /></g><g id="3D02" stroke="red"><polyline points="23,78 23,51 42,51 42,78" stroke="#6d725c" /></g><g id="3D04" stroke="red"><polyline points="23,105 23,78 42,78 42,105" stroke="#6d725c" /></g><g id="3D06" stroke="red"><polyline points="20,131 22,117 23,105 42,105 39,131" stroke="#6d725c" /></g><g id="3D08" stroke="red"><polyline points="15,158 20,131 39,131 36,158" stroke="#6d725c" /></g><g id="3D10" stroke="red"><polyline points="11,184 15,158 36,158 36,184" stroke="#6d725c" /></g><g id="3D12" stroke="red"><polyline points="9,211 9,208 9,208 9,195 11,184 36,184 36,211" stroke="#6d725c" /></g><g id="3D24" stroke="red"><polyline points="86,309 86,283 110,283 110,309" stroke="#6d725c" /></g><g id="3D26" stroke="red"><polyline points="110,309 110,309 110,283 133,283 133,309" stroke="#6d725c" /></g><g id="3D28" stroke="red"><polyline points="157,309 133,309 133,309 133,283 133,283 157,283" stroke="#6d725c" /></g><g id="3D30A" stroke="red"><polyline points="157,309 157,309 157,283 179,283 179,309" stroke="#6d725c" /></g><g id="3D30B" stroke="red"><polyline points="200,309 179,309 179,283 200,283 200,309" stroke="#6d725c" /></g><g id="3D32" stroke="red"><polyline points="200,283 225,283 225,309 200,309" stroke="#6d725c" /></g><g id="3D34A" stroke="red"><polyline points="258,309 234,309 234,283 258,283 258,292" stroke="#6d725c" /></g><g id="3D34B" stroke="red"><polyline points="258,283 292,283 292,292 258,292" stroke="#6d725c" /></g><g id="3D36" stroke="red"><polyline points="312,309 312,309 303,309 303,283 345,283 345,309" stroke="#6d725c" /></g><g id="3D38" stroke="red"><polyline points="345,283 378,283 378,309 345,309 345,309" stroke="#6d725c" /></g><g id="3D40" stroke="red"><polyline points="390,313 389,313 389,283 411,283 411,313" stroke="#6d725c" /></g><g id="3D42" stroke="red"><polyline points="411,313 411,283 433,283 433,313" stroke="#6d725c" /></g><g id="3D44" stroke="red"><polyline points="433,313 433,283 454,283 454,313" stroke="#6d725c" /></g><g id="3D46" stroke="red"><polyline points="454,313 454,283 480,283 480,313" stroke="#6d725c" /></g><g id="3D48" stroke="red"><polyline points="480,313 480,283 506,283 506,313" stroke="#6d725c" /></g><g id="3D50" stroke="red"><polyline points="530,313 506,313 506,283 530,283" stroke="#6d725c" /></g><g id="3D52" stroke="red"><polyline points="562,304 562,313 530,313 530,283 547,283 562,300" stroke="#6d725c" /></g><g id="3D54" stroke="red"><polyline points="569,304 562,304 562,300 562,300 547,283 561,269 582,292" stroke="#6d725c" /></g><g id="3D56" stroke="red"><polyline points="561,269 576,256 597,278 582,292" stroke="#6d725c" /></g><g id="3Y01" stroke="red"><polyline points="411,313 433,313 454,313 480,313 506,313 530,313 562,313 569,313 569,304 582,292 597,278 576,256 593,241 593,240 594,240 595,239 597,238 598,238 599,237 600,237 601,237 602,237 604,237 643,237 646,237 648,238 651,239 653,241 654,243 655,245 656,248 656,250 656,253 655,255 649,271 643,283 643,327 657,327 657,362 449,362 449,342 390,342 390,313" stroke="#6d725c" /></g></svg>