<?xml version="1.0" encoding="utf-8" ?>
<svg baseProfile="full" height="372" version="1.1" width="800" xmlns="http://www.w3.org/2000/svg" xmlns:ev="http://www.w3.org/2001/xml-events" xmlns:xlink="http://www.w3.org/1999/xlink"><defs /><g id="2A01" stroke="red"><polyline fill="#ebf7d1" points="20,46 20,10 49,10 49,26 54,26 54,46" stroke="#6d725c" /></g><g id="2A02A" stroke="red"><polyline fill="#ebf7d1" points="20,79 20,46 54,46 54,79" stroke="#6d725c" /></g><g id="2A02B" stroke="red"><polyline fill="#ebf7d1" points="20,104 20,79 54,79 54,104" stroke="#6d725c" /></g><g id="2A03" stroke="red"><polyline fill="#ebf7d1" points="83,51 83,26 87,26 87,10 111,10 111,51" stroke="#6d725c" /></g><g id="2A04" stroke="red"><polyline fill="#ebf7d1" points="94,95 72,95 72,67 94,67" stroke="#6d725c" /></g><g id="2A05" stroke="red"><polyline fill="#ebf7d1" points="111,51 111,10 133,10 133,51" stroke="#6d725c" /></g><g id="2A06" stroke="red"><polyline fill="#ebf7d1" points="94,95 94,67 117,67 117,95" stroke="#6d725c" /></g><g id="2A07" stroke="red"><polyline fill="#ebf7d1" points="164,32 164,51 133,51 133,10 184,10 184,32" stroke="#6d725c" /></g><g id="2A08" stroke="red"><polyline fill="#ebf7d1" points="137,95 117,95 117,67 137,67 137,95" stroke="#6d725c" /></g><g id="2A09" stroke="red"><polyline fill="#ebf7d1" points="164,51 164,32 184,32 184,51" stroke="#6d725c" /></g><g id="2A10" stroke="red"><polyline fill="#ebf7d1" points="137,67 137,67 156,67 156,95 137,95" stroke="#6d725c" /></g><g id="2A11" stroke="red"><polyline fill="#ebf7d1" points="207,51 184,51 184,32 184,10 207,10 207,32" stroke="#6d725c" /></g><g id="2A12" stroke="red"><polyline fill="#ebf7d1" points="168,95 168,67 190,67 190,95" stroke="#6d725c" /></g><g id="2A13" stroke="red"><polyline fill="#ebf7d1" points="207,51 207,32 241,32 241,51" stroke="#6d725c" /></g><g id="2A14" stroke="red"><polyline fill="#ebf7d1" points="190,67 220,67 220,95 190,95" stroke="#6d725c" /></g><g id="2A15A" stroke="red"><polyline fill="#ebf7d1" points="241,51 241,51 241,32 241,10 278,10 278,51" stroke="#6d725c" /></g><g id="2A16" stroke="red"><polyline fill="#ebf7d1" points="236,90 236,67 278,67 278,90" stroke="#6d725c" /></g><g id="2A20" stroke="red"><polyline fill="#ebf7d1" points="362,95 362,67 384,67 384,95" stroke="#6d725c" /></g><g id="2A21" stroke="red"><polyline fill="#ebf7d1" points="384,51 384,51 346,51 346,10 384,10 384,10" stroke="#6d725c" /></g><g id="2A22" stroke="red"><polyline fill="#ebf7d1" points="384,67 410,67 410,95 384,95" stroke="#6d725c" /></g><g id="2A23" stroke="red"><polyline fill="#ebf7d1" points="384,51 384,10 405,10 405,51" stroke="#6d725c" /></g><g id="2A24" stroke="red"><polyline fill="#ebf7d1" points="422,95 422,67 460,67 460,95" stroke="#6d725c" /></g><g id="2A26" stroke="red"><polyline fill="#ebf7d1" points="460,67 497,67 497,95 460,95" stroke="#6d725c" /></g><g id="2A30" stroke="red"><polyline fill="#ebf7d1" points="509,95 509,67 538,67 538,95" stroke="#6d725c" /></g><g id="2A31" stroke="red"><polyline fill="#ebf7d1" points="405,51 405,10 426,10 426,51" stroke="#6d725c" /></g><g id="2A32" stroke="red"><polyline fill="#ebf7d1" points="550,95 550,67 574,67 574,95" stroke="#6d725c" /></g><g id="2A33" stroke="red"><polyline fill="#ebf7d1" points="426,51 426,10 449,10 449,51" stroke="#6d725c" /></g><g id="2A34" stroke="red"><polyline fill="#ebf7d1" points="574,67 598,67 598,95 574,95" stroke="#6d725c" /></g><g id="2A35" stroke="red"><polyline fill="#ebf7d1" points="449,51 449,10 472,10 472,51" stroke="#6d725c" /></g><g id="2A36" stroke="red"><polyline fill="#ebf7d1" points="614,95 614,67 650,67 650,95" stroke="#6d725c" /></g><g id="2A37" stroke="red"><polyline fill="#ebf7d1" points="472,51 472,10 496,10 496,51" stroke="#6d725c" /></g><g id="2A38" stroke="red"><polyline fill="#ebf7d1" points="666,100 666,67 686,67 686,100" stroke="#6d725c" /></g><g id="2A39" stroke="red"><polyline fill="#ebf7d1" points="496,51 496,10 496,10 524,10 524,51" stroke="#6d725c" /></g><g id="2A41" stroke="red"><polyline fill="#ebf7d1" points="524,51 524,10 549,10 549,51" stroke="#6d725c" /></g><g id="2A43" stroke="red"><polyline fill="#ebf7d1" points="549,51 549,10 573,10 573,51" stroke="#6d725c" /></g><g id="2A45" stroke="red"><polyline fill="#ebf7d1" points="594,51 573,51 573,10 594,10" stroke="#6d725c" /></g><g id="2A47" stroke="red"><polyline fill="#ebf7d1" points="594,51 594,10 614,10 614,51" stroke="#6d725c" /></g><g id="2A49" stroke="red"><polyline fill="#ebf7d1" points="614,51 614,10 633,10 633,51" stroke="#6d725c" /></g><g id="2A51" stroke="red"><polyline fill="#ebf7d1" points="633,51 633,10 658,10 658,51" stroke="#6d725c" /></g><g id="2A53" stroke="red"><polyline fill="#ebf7d1" points="658,51 658,10 679,10 679,51" stroke="#6d725c" /></g><g id="2A55" stroke="red"><polyline fill="#ebf7d1" points="691,220 686,220 686,209 692,209 692,197 688,197 688,168 671,168 671,156 664,156 664,150 655,139 686,139 686,100 686,100 686,67 686,67 686,51 679,51 679,10 761,10 770,11 779,14 786,20 791,27 795,36 796,43 795,48 742,249 740,257 691,257" stroke="#6d725c" /></g><g id="2B01A" stroke="red"><polyline fill="#ebf7d1" points="19,120 20,114 20,104 54,104 54,106 46,120" stroke="#6d725c" /></g><g id="2B01B" stroke="red"><polyline fill="#ebf7d1" points="25,151 14,151 19,120 46,120 29,151" stroke="#6d725c" /></g><g id="2B02" stroke="red"><polyline fill="#ebf7d1" points="9,177 14,151 14,151 25,151 29,151 29,151 29,177" stroke="#6d725c" /></g><g id="2B03" stroke="red"><polyline fill="#ebf7d1" points="77,139 78,139 78,163 45,163 45,155 72,107 77,107 77,139" stroke="#6d725c" /></g><g id="2B04" stroke="red"><polyline fill="#ebf7d1" points="78,180 56,180 56,209 56,209 45,209 45,180 45,163 78,163" stroke="#6d725c" /></g><g id="2B05" stroke="red"><polyline fill="#ebf7d1" points="77,139 77,107 105,107 105,139" stroke="#6d725c" /></g><g id="2B07" stroke="red"><polyline fill="#ebf7d1" points="123,139 105,139 105,139 105,107 123,107 123,130" stroke="#6d725c" /></g><g id="2B09" stroke="red"><polyline fill="#ebf7d1" points="123,107 156,107 156,130 123,130" stroke="#6d725c" /></g><g id="2B11" stroke="red"><polyline fill="#ebf7d1" points="168,130 168,107 196,107 196,130" stroke="#6d725c" /></g><g id="2B12" stroke="red"><polyline fill="#ebf7d1" points="202,203 184,203 184,142 220,142 220,203" stroke="#6d725c" /></g><g id="2B13" stroke="red"><polyline fill="#ebf7d1" points="196,107 220,107 220,130 196,130" stroke="#6d725c" /></g><g id="2B14" stroke="red"><polyline fill="#ebf7d1" points="257,205 236,205 236,151 278,151 278,205" stroke="#6d725c" /></g><g id="2B15" stroke="red"><polyline fill="#ebf7d1" points="278,117 236,117 236,90 278,90 278,93" stroke="#6d725c" /></g><g id="2B16" stroke="red"><polyline fill="#ebf7d1" points="236,151 236,117 278,117 278,151" stroke="#6d725c" /></g><g id="2B25" stroke="red"><polyline fill="#ebf7d1" points="412,139 392,139 386,125 362,125 362,109 412,109" stroke="#6d725c" /></g><g id="2B27" stroke="red"><polyline fill="#ebf7d1" points="422,129 422,109 460,109 460,129" stroke="#6d725c" /></g><g id="2B28" stroke="red"><polyline fill="#ebf7d1" points="460,170 460,139 497,139 497,170" stroke="#6d725c" /></g><g id="2B29" stroke="red"><polyline fill="#ebf7d1" points="460,139 460,129 460,109 497,109 497,139" stroke="#6d725c" /></g><g id="2B30" stroke="red"><polyline fill="#ebf7d1" points="538,137 538,164 509,164 509,137" stroke="#6d725c" /></g><g id="2B31" stroke="red"><polyline fill="#ebf7d1" points="509,137 509,109 538,109 538,137" stroke="#6d725c" /></g><g id="2B32" stroke="red"><polyline fill="#ebf7d1" points="550,170 550,139 584,139 584,170" stroke="#6d725c" /></g><g id="2B33" stroke="red"><polyline fill="#ebf7d1" points="550,139 550,109 564,109 567,110 570,110 573,112 576,113 578,115 580,118 582,120 583,123 584,126 584,129 584,139" stroke="#6d725c" /></g><g id="2B35" stroke="red"><polyline fill="#ebf7d1" points="650,95 650,96 634,125 614,125 614,95" stroke="#6d725c" /></g><g id="2B37" stroke="red"><polyline fill="#ebf7d1" points="645,139 666,100 686,100 686,139 655,139" stroke="#6d725c" /></g><g id="2C01" stroke="red"><polyline fill="#ebf7d1" points="9,177 29,177 29,197 6,197" stroke="#6d725c" /></g><g id="2C02" stroke="red"><polyline fill="#ebf7d1" points="6,248 6,222 29,222 29,248" stroke="#6d725c" /></g><g id="2C03" stroke="red"><polyline fill="#ebf7d1" points="29,197 29,222 6,222 6,197 6,197" stroke="#6d725c" /></g><g id="2C04A" stroke="red"><polyline fill="#ebf7d1" points="56,209 56,216 62,216 62,231 45,231 45,209" stroke="#6d725c" /></g><g id="2C04B" stroke="red"><polyline fill="#ebf7d1" points="72,231 72,216 85,216 85,231" stroke="#6d725c" /></g><g id="2C08" stroke="red"><polyline fill="#ebf7d1" points="102,231 102,216 104,216 104,210 124,210 124,231" stroke="#6d725c" /></g><g id="2C10" stroke="red"><polyline fill="#ebf7d1" points="154,231 134,231 134,210 154,210" stroke="#6d725c" /></g><g id="2C12" stroke="red"><polyline fill="#ebf7d1" points="184,231 184,203 202,203 202,231" stroke="#6d725c" /></g><g id="2C14" stroke="red"><polyline fill="#ebf7d1" points="202,203 220,203 220,231 202,231" stroke="#6d725c" /></g><g id="2C16" stroke="red"><polyline fill="#ebf7d1" points="236,249 236,205 257,205 257,249" stroke="#6d725c" /></g><g id="2C18" stroke="red"><polyline fill="#ebf7d1" points="356,231 356,216 376,216 376,231" stroke="#6d725c" /></g><g id="2C20" stroke="red"><polyline fill="#ebf7d1" points="392,231 392,210 411,210 411,208 417,208 417,231" stroke="#6d725c" /></g><g id="2C22" stroke="red"><polyline fill="#ebf7d1" points="460,231 427,231 427,208 433,208 433,209 460,209" stroke="#6d725c" /></g><g id="2C24" stroke="red"><polyline fill="#ebf7d1" points="460,209 460,209 465,209 465,201 465,201 497,201 497,231 460,231" stroke="#6d725c" /></g><g id="2C27" stroke="red"><polyline fill="#ebf7d1" points="465,201 465,199 460,199 460,170 497,170 497,201" stroke="#6d725c" /></g><g id="2C28" stroke="red"><polyline fill="#ebf7d1" points="538,204 538,231 509,231 509,204" stroke="#6d725c" /></g><g id="2C29" stroke="red"><polyline fill="#ebf7d1" points="509,204 509,176 538,176 538,204" stroke="#6d725c" /></g><g id="2C30A" stroke="red"><polyline fill="#ebf7d1" points="550,231 550,201 567,201 567,231" stroke="#6d725c" /></g><g id="2C30B" stroke="red"><polyline fill="#ebf7d1" points="567,201 584,201 584,231 567,231" stroke="#6d725c" /></g><g id="2C31" stroke="red"><polyline fill="#ebf7d1" points="567,201 550,201 550,170 584,170 584,201" stroke="#6d725c" /></g><g id="2C32" stroke="red"><polyline fill="#ebf7d1" points="609,231 609,210 630,210 630,231" stroke="#6d725c" /></g><g id="2D01" stroke="red"><polyline fill="#ebf7d1" points="6,271 6,248 29,248 29,271" stroke="#6d725c" /></g><g id="2D02" stroke="red"><polyline fill="#ebf7d1" points="29,306 6,303 6,271 29,271 29,287" stroke="#6d725c" /></g><g id="2D03" stroke="red"><polyline fill="#ebf7d1" points="45,271 45,243 75,243 75,271" stroke="#6d725c" /></g><g id="2D04" stroke="red"><polyline fill="#ebf7d1" points="29,306 29,287 49,287 49,309" stroke="#6d725c" /></g><g id="2D05" stroke="red"><polyline fill="#ebf7d1" points="75,271 75,243 100,243 100,271" stroke="#6d725c" /></g><g id="2D06" stroke="red"><polyline fill="#ebf7d1" points="49,287 68,287 68,311 63,311 49,309" stroke="#6d725c" /></g><g id="2D07" stroke="red"><polyline fill="#ebf7d1" points="100,243 125,243 125,271 100,271" stroke="#6d725c" /></g><g id="2D08" stroke="red"><polyline fill="#ebf7d1" points="81,311 81,287 107,287 107,311" stroke="#6d725c" /></g><g id="2D09" stroke="red"><polyline fill="#ebf7d1" points="137,271 137,243 155,243 155,271" stroke="#6d725c" /></g><g id="2D10" stroke="red"><polyline fill="#ebf7d1" points="131,311 107,311 107,287 131,287 131,311" stroke="#6d725c" /></g><g id="2D11" stroke="red"><polyline fill="#ebf7d1" points="194,271 167,271 167,243 194,243" stroke="#6d725c" /></g><g id="2D12" stroke="red"><polyline fill="#ebf7d1" points="131,311 131,287 154,287 154,311" stroke="#6d725c" /></g><g id="2D13" stroke="red"><polyline fill="#ebf7d1" points="194,243 220,243 220,271 194,271" stroke="#6d725c" /></g><g id="2D14" stroke="red"><polyline fill="#ebf7d1" points="154,311 154,311 154,287 175,287 175,311" stroke="#6d725c" /></g><g id="2D15" stroke="red"><polyline fill="#ebf7d1" points="236,271 236,249 257,249 257,271" stroke="#6d725c" /></g><g id="2D16" stroke="red"><polyline fill="#ebf7d1" points="196,311 175,311 175,311 175,287 196,287" stroke="#6d725c" /></g><g id="2D17" stroke="red"><polyline fill="#ebf7d1" points="294,269 294,247 339,247 339,269" stroke="#6d725c" /></g><g id="2D18" stroke="red"><polyline fill="#ebf7d1" points="196,287 221,287 221,311 196,311" stroke="#6d725c" /></g><g id="2D19" stroke="red"><polyline fill="#ebf7d1" points="390,271 355,271 355,245 390,245 390,271" stroke="#6d725c" /></g><g id="2D20" stroke="red"><polyline fill="#ebf7d1" points="236,311 236,287 262,287 262,294 257,294 257,311" stroke="#6d725c" /></g><g id="2D21" stroke="red"><polyline fill="#ebf7d1" points="390,245 410,245 410,271 390,271" stroke="#6d725c" /></g><g id="2D22" stroke="red"><polyline fill="#ebf7d1" points="350,311 318,311 318,283 350,283 350,283" stroke="#6d725c" /></g><g id="2D23A" stroke="red"><polyline fill="#ebf7d1" points="422,271 422,245 448,245 448,271" stroke="#6d725c" /></g><g id="2D23B" stroke="red"><polyline fill="#ebf7d1" points="448,271 448,245 471,245 471,271" stroke="#6d725c" /></g><g id="2D24" stroke="red"><polyline fill="#ebf7d1" points="350,283 378,283 378,311 350,311" stroke="#6d725c" /></g><g id="2D25" stroke="red"><polyline fill="#ebf7d1" points="471,245 497,245 497,271 471,271" stroke="#6d725c" /></g><g id="2D26" stroke="red"><polyline fill="#ebf7d1" points="450,345 390,345 390,301 392,301 392,283 394,283 447,338 450,338" stroke="#6d725c" /></g><g id="2D27" stroke="red"><polyline fill="#ebf7d1" points="509,271 509,245 538,245 538,271" stroke="#6d725c" /></g><g id="2D28" stroke="red"><polyline fill="#ebf7d1" points="456,322 454,322 422,289 422,283 456,283 456,302" stroke="#6d725c" /></g><g id="2D29A" stroke="red"><polyline fill="#ebf7d1" points="550,271 550,245 569,245 569,271" stroke="#6d725c" /></g><g id="2D29B" stroke="red"><polyline fill="#ebf7d1" points="569,245 588,245 588,271 569,271" stroke="#6d725c" /></g><g id="2D30A" stroke="red"><polyline fill="#ebf7d1" points="456,302 456,283 476,283 476,302" stroke="#6d725c" /></g><g id="2D30B" stroke="red"><polyline fill="#ebf7d1" points="456,302 476,302 497,302 497,322 456,322" stroke="#6d725c" /></g><g id="2D30B" stroke="red"><polyline fill="#ebf7d1" points="456,302 476,302 497,302 497,322 456,322" stroke="#6d725c" /></g><g id="2D30B" stroke="red"><polyline fill="#ebf7d1" points="476,302 476,283 497,283 497,302" stroke="#6d725c" /></g><g id="2D30B" stroke="red"><polyline fill="#ebf7d1" points="476,302 476,283 497,283 497,302" stroke="#6d725c" /></g><g id="2D31" stroke="red"><polyline fill="#ebf7d1" points="604,271 604,245 630,245 630,271" stroke="#6d725c" /></g><g id="2D32B" stroke="red"><polyline fill="#ebf7d1" points="524,310 524,283 538,283 538,310" stroke="#6d725c" /></g><g id="2D32B" stroke="red"><polyline fill="#ebf7d1" points="524,310 524,283 538,283 538,310" stroke="#6d725c" /></g><g id="2D32B" stroke="red"><polyline fill="#ebf7d1" points="524,310 538,310 538,322 509,322 509,310" stroke="#6d725c" /></g><g id="2D32B" stroke="red"><polyline fill="#ebf7d1" points="524,310 538,310 538,322 509,322 509,310" stroke="#6d725c" /></g><g id="2D33" stroke="red"><polyline fill="#ebf7d1" points="660,257 660,266 642,266 642,220 686,220 691,220 691,257" stroke="#6d725c" /></g><g id="2D34A" stroke="red"><polyline fill="#ebf7d1" points="569,322 550,322 550,283 569,283 569,303" stroke="#6d725c" /></g><g id="2D34B" stroke="red"><polyline fill="#ebf7d1" points="569,303 569,283 588,283 588,303" stroke="#6d725c" /></g><g id="2D34D" stroke="red"><polyline fill="#ebf7d1" points="569,303 588,303 588,322 569,322" stroke="#6d725c" /></g><g id="2D36" stroke="red"><polyline fill="#ebf7d1" points="604,322 604,283 630,283 630,322" stroke="#6d725c" /></g><g id="2D38" stroke="red"><polyline fill="#ebf7d1" points="642,316 642,278 660,278 660,316" stroke="#6d725c" /></g><g id="2D47" stroke="red"><polyline fill="#ebf7d1" points="450,365 450,345 450,338 476,338 476,365" stroke="#6d725c" /></g><g id="2D49" stroke="red"><polyline fill="#ebf7d1" points="476,365 476,338 503,338 503,365" stroke="#6d725c" /></g><g id="2D51" stroke="red"><polyline fill="#ebf7d1" points="503,365 503,338 529,338 529,365" stroke="#6d725c" /></g><g id="2D53" stroke="red"><polyline fill="#ebf7d1" points="529,365 529,338 555,338 555,365" stroke="#6d725c" /></g><g id="2D55" stroke="red"><polyline fill="#ebf7d1" points="555,365 555,338 582,338 582,365" stroke="#6d725c" /></g><g id="2D57" stroke="red"><polyline fill="#ebf7d1" points="582,365 582,338 608,338 608,365" stroke="#6d725c" /></g><g id="2D59" stroke="red"><polyline fill="#ebf7d1" points="635,365 608,365 608,338 635,338 635,365" stroke="#6d725c" /></g><g id="2D61" stroke="red"><polyline fill="#ebf7d1" points="635,338 635,338 641,325 660,325 660,325 660,361 658,361 658,365 635,365" stroke="#6d725c" /></g><g id="2Y01" stroke="red"><polyline fill="#ebf7d1" points="257,249 257,205 278,205 278,271 257,271" stroke="#6d725c" /></g><g id="2Y02" stroke="red"><polyline fill="#ebf7d1" points="346,93 278,93 278,90 278,67 278,51 278,10 346,10 346,51" stroke="#6d725c" /></g></svg>