<?xml version="1.0" encoding="utf-8" ?>
<svg baseProfile="full" height="374" version="1.1" width="800" xmlns="http://www.w3.org/2000/svg" xmlns:ev="http://www.w3.org/2001/xml-events" xmlns:xlink="http://www.w3.org/1999/xlink"><defs /><g id="1A01" stroke="red"><polyline fill="#FFFFFF" points="105,68 157,68 157,137 150,137 150,151 137,151 137,139 129,139 128,140 94,140 94,178 73,178 73,220 137,220 137,305 121,305 122,259 24,259 24,195 37,114 37,105 45,105 59,92 53,86 89,49 105,49" stroke="#6d725c" /></g><g id="1A05" stroke="red"><polyline fill="#FFFFFF" points="266,63 189,63 189,36 282,36 282,50 266,50 266,50" stroke="#6d725c" /></g><g id="1A06A" stroke="red"><polyline fill="#FFFFFF" points="177,118 177,81 182,77 202,77 202,118" stroke="#6d725c" /></g><g id="1A06B" stroke="red"><polyline fill="#FFFFFF" points="202,77 227,77 227,118 202,118" stroke="#6d725c" /></g><g id="1A09" stroke="red"><polyline fill="#FFFFFF" points="266,50 344,50 344,53 350,53 350,63 266,63 266,63" stroke="#6d725c" /></g><g id="1A10A" stroke="red"><polyline fill="#FFFFFF" points="250,118 251,118 251,118 252,117 252,117 252,117 253,116 253,116 253,115 253,115 254,114 253,113 252,111 251,111 249,111 247,112 247,113 246,115 247,116 248,117 250,118 238,118 238,77 264,77 264,118" stroke="#6d725c" /></g><g id="1A10B" stroke="red"><polyline fill="#FFFFFF" points="264,77 289,77 289,118 264,118" stroke="#6d725c" /></g><g id="1A12" stroke="red"><polyline fill="#FFFFFF" points="301,118 301,77 350,77 350,118" stroke="#6d725c" /></g><g id="1A16A" stroke="red"><polyline fill="#FFFFFF" points="365,118 365,77 388,77 388,118" stroke="#6d725c" /></g><g id="1A16B" stroke="red"><polyline fill="#FFFFFF" points="388,77 411,77 411,118 388,118" stroke="#6d725c" /></g><g id="1A17" stroke="red"><polyline fill="#FFFFFF" points="494,63 494,63 422,63 422,15 494,15" stroke="#6d725c" /></g><g id="1A18" stroke="red"><polyline fill="#FFFFFF" points="425,118 425,77 450,77 450,118" stroke="#6d725c" /></g><g id="1A20" stroke="red"><polyline fill="#FFFFFF" points="450,77 474,77 474,118 450,118" stroke="#6d725c" /></g><g id="1A21" stroke="red"><polyline fill="#FFFFFF" points="494,63 494,15 494,15 594,15 594,63" stroke="#6d725c" /></g><g id="1A22" stroke="red"><polyline fill="#FFFFFF" points="486,118 486,77 511,77 511,118" stroke="#6d725c" /></g><g id="1A24" stroke="red"><polyline fill="#FFFFFF" points="511,77 535,77 535,118 511,118" stroke="#6d725c" /></g><g id="1A26" stroke="red"><polyline fill="#FFFFFF" points="547,118 547,77 597,77 597,118" stroke="#6d725c" /></g><g id="1A28" stroke="red"><polyline fill="#FFFFFF" points="608,97 608,77 656,77 656,97" stroke="#6d725c" /></g><g id="1A30" stroke="red"><polyline fill="#FFFFFF" points="656,77 691,77 691,97 656,97" stroke="#6d725c" /></g><g id="1A31" stroke="red"><polyline fill="#FFFFFF" points="594,15 746,15 753,15 754,15 740,53 719,63 594,63" stroke="#6d725c" /></g><g id="1A35" stroke="red"><polyline fill="#FFFFFF" points="736,84 736,84 736,84 736,85 736,114 768,114 745,205 682,205 682,167 665,167 665,156 669,156 669,110 700,110 734,75 736,75 736,77" stroke="#6d725c" /></g><g id="1B07" stroke="red"><polyline fill="#FFFFFF" points="196,166 196,131 227,131 227,166" stroke="#6d725c" /></g><g id="1B09" stroke="red"><polyline fill="#FFFFFF" points="266,166 238,166 238,159 238,131 266,131" stroke="#6d725c" /></g><g id="1B11" stroke="red"><polyline fill="#FFFFFF" points="266,166 266,131 294,131 294,166" stroke="#6d725c" /></g><g id="1B13" stroke="red"><polyline fill="#FFFFFF" points="306,166 306,131 337,131 337,166" stroke="#6d725c" /></g><g id="1B15" stroke="red"><polyline fill="#FFFFFF" points="417,137 394,137 394,149 381,149 381,137 372,137 372,131 417,131" stroke="#6d725c" /></g><g id="1B17" stroke="red"><polyline fill="#FFFFFF" points="447,131 447,140 439,140 439,143 422,143 422,139 422,139 422,137 417,137 417,131" stroke="#6d725c" /></g><g id="1B21" stroke="red"><polyline fill="#FFFFFF" points="462,189 462,186 462,140 457,140 457,132 483,132 483,189" stroke="#6d725c" /></g><g id="1B23" stroke="red"><polyline fill="#FFFFFF" points="494,181 494,132 516,132 516,181" stroke="#6d725c" /></g><g id="1B25" stroke="red"><polyline fill="#FFFFFF" points="516,181 516,132 538,132 538,181" stroke="#6d725c" /></g><g id="1B27" stroke="red"><polyline fill="#FFFFFF" points="549,165 549,131 581,131 581,165" stroke="#6d725c" /></g><g id="1B33" stroke="red"><polyline fill="#FFFFFF" points="665,156 659,156 659,150 647,139 638,139 638,151 625,151 625,139 617,139 610,145 608,145 608,129 609,126 609,124 610,121 612,118 614,116 616,114 619,112 622,111 625,110 628,110 669,110 669,156 665,156" stroke="#6d725c" /></g><g id="1C04" stroke="red"><polyline fill="#FFFFFF" points="152,236 152,208 169,208 169,236" stroke="#6d725c" /></g><g id="1C08A" stroke="red"><polyline fill="#FFFFFF" points="227,201 227,236 196,236 196,201 196,201" stroke="#6d725c" /></g><g id="1C08B" stroke="red"><polyline fill="#FFFFFF" points="196,201 196,166 227,166 227,201" stroke="#6d725c" /></g><g id="1C10A" stroke="red"><polyline fill="#FFFFFF" points="266,236 238,236 238,201 266,201" stroke="#6d725c" /></g><g id="1C10B" stroke="red"><polyline fill="#FFFFFF" points="266,201 238,201 238,187 238,166 266,166" stroke="#6d725c" /></g><g id="1C12A" stroke="red"><polyline fill="#FFFFFF" points="294,236 266,236 266,201 294,201" stroke="#6d725c" /></g><g id="1C12B" stroke="red"><polyline fill="#FFFFFF" points="294,201 266,201 266,166 294,166" stroke="#6d725c" /></g><g id="1C14A" stroke="red"><polyline fill="#FFFFFF" points="337,201 337,236 306,236 306,201" stroke="#6d725c" /></g><g id="1C14B" stroke="red"><polyline fill="#FFFFFF" points="306,201 306,166 337,166 337,201" stroke="#6d725c" /></g><g id="1C16" stroke="red"><polyline fill="#FFFFFF" points="381,272 363,254 363,214 381,214" stroke="#6d725c" /></g><g id="1C22" stroke="red"><polyline fill="#FFFFFF" points="483,189 483,230 462,230 462,189" stroke="#6d725c" /></g><g id="1C24" stroke="red"><polyline fill="#FFFFFF" points="494,230 494,181 516,181 516,230" stroke="#6d725c" /></g><g id="1C26" stroke="red"><polyline fill="#FFFFFF" points="516,181 538,181 538,230 516,230" stroke="#6d725c" /></g><g id="1C28A" stroke="red"><polyline fill="#FFFFFF" points="581,230 549,230 549,198 549,198 549,198 581,198" stroke="#6d725c" /></g><g id="1C28B" stroke="red"><polyline fill="#FFFFFF" points="549,198 549,165 581,165 581,198" stroke="#6d725c" /></g><g id="1C32" stroke="red"><polyline fill="#FFFFFF" points="606,230 606,208 623,208 623,230" stroke="#6d725c" /></g><g id="1C36" stroke="red"><polyline fill="#FFFFFF" points="623,228 692,228 692,250 680,250 680,255 639,255 639,232 623,232 623,230" stroke="#6d725c" /></g><g id="1D02" stroke="red"><polyline fill="#FFFFFF" points="167,299 167,305 152,305 152,286 166,286 166,249 211,249 211,299" stroke="#6d725c" /></g><g id="1D04" stroke="red"><polyline fill="#FFFFFF" points="224,305 224,299 211,299 211,249 247,249 247,305" stroke="#6d725c" /></g><g id="1D06" stroke="red"><polyline fill="#FFFFFF" points="247,249 300,249 300,288 267,288 267,304 266,304 266,337 247,337 247,305" stroke="#6d725c" /></g><g id="1D08" stroke="red"><polyline fill="#FFFFFF" points="375,286 381,286 381,305 325,305 325,304 309,304 309,249 339,249 364,275" stroke="#6d725c" /></g><g id="1D10" stroke="red"><polyline fill="#FFFFFF" points="467,296 410,296 410,286 423,286 423,249 467,249 467,296" stroke="#6d725c" /></g><g id="1D12" stroke="red"><polyline fill="#FFFFFF" points="467,296 467,249 510,249 510,296" stroke="#6d725c" /></g><g id="1D14" stroke="red"><polyline fill="#FFFFFF" points="510,296 510,249 540,249 540,296" stroke="#6d725c" /></g><g id="1D16" stroke="red"><polyline fill="#FFFFFF" points="540,296 540,249 581,249 581,296" stroke="#6d725c" /></g><g id="1D18" stroke="red"><polyline fill="#FFFFFF" points="581,249 626,249 626,266 639,266 639,321 608,321 609,296 581,296" stroke="#6d725c" /></g></svg>