<?xml version="1.0" encoding="utf-8" ?>
<svg baseProfile="full" height="374" version="1.1" width="800" xmlns="http://www.w3.org/2000/svg" xmlns:ev="http://www.w3.org/2001/xml-events" xmlns:xlink="http://www.w3.org/1999/xlink"><defs /><g id="1A01A" stroke="red"><polyline fill="#FFFFFF" points="33,140 37,118 37,111 37,105 45,105 59,92 53,86 89,49 105,49 105,68 158,68 158,137 150,137 150,151 137,151 137,139 129,139 128,140 94,140" stroke="#6d725c" /></g><g id="1A01B" stroke="red"><polyline fill="#FFFFFF" points="94,140 94,178 73,178 73,220 137,220 137,305 121,305 122,259 24,259 24,195 33,140" stroke="#6d725c" /></g><g id="1A03" stroke="red"><polyline fill="#FFFFFF" points="202,85 200,85 198,85 197,84 195,83 193,81 192,80 191,78 190,76 190,74 189,72 189,36 235,36 235,85" stroke="#6d725c" /></g><g id="1A04" stroke="red"><polyline fill="#FFFFFF" points="196,148 196,123 196,121 196,119 197,117 198,115 199,114 201,113 203,112 205,111 206,110 208,110 255,110 255,148" stroke="#6d725c" /></g><g id="1A05" stroke="red"><polyline fill="#FFFFFF" points="281,85 235,85 235,36 282,36 282,50 281,50" stroke="#6d725c" /></g><g id="1A06" stroke="red"><polyline fill="#FFFFFF" points="278,148 278,110 324,110 326,110 328,111 330,112 331,113 333,114 334,115 335,117 336,119 336,121 337,123 337,148" stroke="#6d725c" /></g><g id="1A07" stroke="red"><polyline fill="#FFFFFF" points="281,50 350,50 350,85 281,85" stroke="#6d725c" /></g><g id="1A07A" stroke="red"><polyline fill="#FFFFFF" points="395,66 396,67 397,67 397,67 398,67 398,68 399,68 399,69 400,70 400,70 402,80 402,81 402,82 402,82 401,83 401,84 400,85 400,85 399,86 398,86 397,86 388,86 379,86 379,86 378,86 377,85 376,85 376,84 375,83 375,82 374,82 374,81 374,80 376,70 377,70 377,69 378,68 378,68 379,67 379,67 380,67 381,66 381,66 382,66 388,66 394,66 394,66 394,66 394,66 394,66 394,66 394,66 395,66 395,66 395,66 395,66" stroke="#6d725c" /></g><g id="1A08" stroke="red"><polyline fill="#FFFFFF" points="439,143 422,143 422,139 394,139 394,151 381,151 381,139 374,139 374,123 374,121 374,119 375,117 376,115 377,114 379,113 381,112 383,111 385,110 387,110 439,110 439,140 439,140" stroke="#6d725c" /></g><g id="1A09" stroke="red"><polyline fill="#FFFFFF" points="477,85 426,85 426,15 477,15 477,15" stroke="#6d725c" /></g><g id="1A10" stroke="red"><polyline fill="#FFFFFF" points="462,148 462,140 439,140 439,110 499,110 499,148" stroke="#6d725c" /></g><g id="1A11" stroke="red"><polyline fill="#FFFFFF" points="477,85 477,85 477,15 524,15 524,85" stroke="#6d725c" /></g><g id="1A12" stroke="red"><polyline fill="#FFFFFF" points="521,148 521,110 568,110 570,110 572,111 574,112 576,113 577,114 578,115 579,117 580,119 581,121 581,123 581,148" stroke="#6d725c" /></g><g id="1A13" stroke="red"><polyline fill="#FFFFFF" points="595,85 595,85 524,85 524,15 524,15 595,15 595,15" stroke="#6d725c" /></g><g id="1A15" stroke="red"><polyline fill="#FFFFFF" points="669,85 595,85 595,15 669,15" stroke="#6d725c" /></g><g id="1A19" stroke="red"><polyline fill="#FFFFFF" points="669,15 731,15 731,19 731,23 731,24 731,24 731,24 730,25 730,25 730,26 730,26 730,26 730,27 729,27 684,77 678,83 678,84 677,84 677,84 676,85 676,85 676,85 675,85 675,85 674,85 674,85 669,85" stroke="#6d725c" /></g><g id="1A35" stroke="red"><polyline fill="#FFFFFF" points="669,156 669,110 699,110 736,110 736,114 768,114 745,205 682,205 682,167 665,167 665,156" stroke="#6d725c" /></g><g id="1B03" stroke="red"><polyline fill="#FFFFFF" points="196,194 196,148 255,148 255,186 254,187 254,187 253,188 252,189 252,190 251,191 251,192 251,192 250,193 250,194" stroke="#6d725c" /></g><g id="1B04" stroke="red"><polyline fill="#FFFFFF" points="250,194 250,196 250,198 250,199 250,201 251,203 251,204 252,206 253,207 254,209 255,210 255,217 255,219 254,221 254,223 252,224 251,226 250,227 248,228 246,229 244,229 242,230 196,230 196,194" stroke="#6d725c" /></g><g id="1B05" stroke="red"><polyline fill="#FFFFFF" points="282,194 282,193 282,192 281,192 281,191 281,190 280,189 279,188 279,187 278,187 278,186 278,148 337,148 337,194" stroke="#6d725c" /></g><g id="1B06" stroke="red"><polyline fill="#FFFFFF" points="337,194 337,230 290,230 288,229 286,229 285,228 283,227 281,226 280,224 279,223 278,221 278,219 278,217 278,210 279,209 280,207 281,206 281,204 282,203 282,201 283,199 283,198 283,196 282,194" stroke="#6d725c" /></g><g id="1B09" stroke="red"><polyline fill="#FFFFFF" points="462,194 462,148 499,148 499,187 498,188 498,188 497,189 497,190 496,190 496,191 496,192 495,193 495,194 495,194" stroke="#6d725c" /></g><g id="1B10" stroke="red"><polyline fill="#FFFFFF" points="495,194 494,196 494,198 494,199 495,201 495,202 495,204 496,205 497,207 498,208 499,209 499,217 499,219 498,221 497,223 496,224 495,226 494,227 492,228 490,229 488,229 486,230 462,230 462,194" stroke="#6d725c" /></g><g id="1B11" stroke="red"><polyline fill="#FFFFFF" points="526,194 525,194 525,193 525,192 524,191 524,190 524,190 523,189 523,188 522,188 521,187 521,148 581,148 581,194" stroke="#6d725c" /></g><g id="1B12" stroke="red"><polyline fill="#FFFFFF" points="581,194 581,230 534,230 532,229 530,229 529,228 527,227 525,226 524,224 523,223 522,221 522,219 521,217 521,209 523,208 523,207 524,205 525,204 525,202 526,201 526,199 526,198 526,196 526,194" stroke="#6d725c" /></g><g id="1B33" stroke="red"><polyline fill="#FFFFFF" points="665,156 659,156 659,150 647,139 638,139 638,151 625,151 625,139 617,139 610,145 608,145 608,129 609,126 609,124 610,121 612,118 614,116 616,114 619,112 622,111 625,110 628,110 669,110 669,156 665,156" stroke="#6d725c" /></g><g id="1C04" stroke="red"><polyline fill="#FFFFFF" points="152,235 152,208 169,208 169,235" stroke="#6d725c" /></g><g id="1C16" stroke="red"><polyline fill="#FFFFFF" points="381,272 363,254 363,214 381,214" stroke="#6d725c" /></g><g id="1C32" stroke="red"><polyline fill="#FFFFFF" points="606,229 606,207 623,207 623,229" stroke="#6d725c" /></g><g id="1C36" stroke="red"><polyline fill="#FFFFFF" points="623,228 692,228 692,250 680,250 680,255 639,255 639,232 623,232 623,229" stroke="#6d725c" /></g><g id="1D02" stroke="red"><polyline fill="#FFFFFF" points="167,299 167,305 152,305 152,286 166,286 166,249 211,249 211,299" stroke="#6d725c" /></g><g id="1D04" stroke="red"><polyline fill="#FFFFFF" points="224,305 224,299 211,299 211,249 247,249 247,305" stroke="#6d725c" /></g><g id="1D06" stroke="red"><polyline fill="#FFFFFF" points="247,249 300,249 300,288 267,288 267,304 266,304 266,337 247,337 247,305" stroke="#6d725c" /></g><g id="1D08" stroke="red"><polyline fill="#FFFFFF" points="375,286 381,286 381,305 325,305 325,304 309,304 309,249 339,249" stroke="#6d725c" /></g><g id="1D10" stroke="red"><polyline fill="#FFFFFF" points="467,296 410,296 410,286 423,286 423,249 467,249 467,296" stroke="#6d725c" /></g><g id="1D12" stroke="red"><polyline fill="#FFFFFF" points="467,296 467,249 510,249 510,296" stroke="#6d725c" /></g><g id="1D14" stroke="red"><polyline fill="#FFFFFF" points="510,296 510,249 540,249 540,296" stroke="#6d725c" /></g><g id="1D16" stroke="red"><polyline fill="#FFFFFF" points="540,296 540,249 581,249 581,296" stroke="#6d725c" /></g><g id="1D18" stroke="red"><polyline fill="#FFFFFF" points="581,249 626,249 626,266 639,266 639,321 608,321 609,296 581,296" stroke="#6d725c" /></g></svg>