<?xml version="1.0" encoding="utf-8" ?>
<svg baseProfile="full" height="412" version="1.1" width="800" xmlns="http://www.w3.org/2000/svg" xmlns:ev="http://www.w3.org/2001/xml-events" xmlns:xlink="http://www.w3.org/1999/xlink"><defs /><g id="6W01A" stroke="red"><polyline fill="#FFFFFF" points="470,206 470,221 393,221 393,207 410,207 410,206 410,206 438,206 438,206 464,206" stroke="#6d725c" /></g><g id="6W01B" stroke="red"><polyline fill="#FFFFFF" points="464,206 464,196 459,196 459,137 470,137 470,206" stroke="#6d725c" /></g><g id="6W02" stroke="red"><polyline fill="#FFFFFF" points="482,164 482,138 566,138 566,164 507,164" stroke="#6d725c" /></g><g id="6W03" stroke="red"><polyline fill="#FFFFFF" points="507,164 507,227 482,227 482,164" stroke="#6d725c" /></g><g id="6Z02" stroke="red"><polyline fill="#FFFFFF" points="263,116 179,116 178,116 178,116 177,116 176,116 175,116 174,115 173,115 173,115 172,114 171,114 120,80 119,80 119,79 119,79 118,79 118,79 118,78 118,78 117,78 117,77 117,77 87,46 87,8 263,9" stroke="#6d725c" /></g><g id="6Z03" stroke="red"><polyline fill="#FFFFFF" points="263,116 263,9 364,9 364,116" stroke="#6d725c" /></g><g id="6Z04" stroke="red"><polyline fill="#FFFFFF" points="364,116 364,9 364,8 487,8 487,116" stroke="#6d725c" /></g><g id="6Z05" stroke="red"><polyline fill="#FFFFFF" points="487,116 487,8 588,8 588,116" stroke="#6d725c" /></g><g id="6Z06" stroke="red"><polyline fill="#FFFFFF" points="588,116 588,116 588,8 687,8 687,116" stroke="#6d725c" /></g><g id="6Z07" stroke="red"><polyline fill="#FFFFFF" points="687,8 758,8 763,9 768,9 772,11 777,13 781,16 784,19 787,23 790,27 791,32 793,36 792,46 764,156 727,156 725,155 723,155 721,154 719,154 717,153 715,152 713,151 712,150 710,148 708,147 687,127 687,116" stroke="#6d725c" /></g><g id="6Z08" stroke="red"><polyline fill="#FFFFFF" points="185,220 185,136 317,136 317,220" stroke="#6d725c" /></g><g id="6Z09" stroke="red"><polyline fill="#FFFFFF" points="740,246 734,246 734,254 684,254 684,255 670,255 670,230 670,229 670,228 671,227 671,226 672,225 673,224 674,224 675,224 676,223 677,223 699,223 700,223 701,223 702,222 703,222 704,221 705,220 705,220 705,219 706,218 706,217 706,193 706,192 706,191 707,190 707,190 708,189 709,188 709,188 710,187 711,187 712,187 756,187" stroke="#6d725c" /></g><g id="6Z10" stroke="red"><polyline fill="#FFFFFF" points="520,241 646,241 646,258 645,258 645,322 658,322 658,362 520,362 520,362" stroke="#6d725c" /></g><g id="6Z11" stroke="red"><polyline fill="#FFFFFF" points="520,362 456,362 456,362 456,358 448,358 448,342 448,329 448,329 448,241 520,241 520,241" stroke="#6d725c" /></g><g id="6Z12" stroke="red"><polyline fill="#FFFFFF" points="419,329 419,342 389,342 389,241 448,241 448,329" stroke="#6d725c" /></g><g id="6Z13" stroke="red"><polyline fill="#FFFFFF" points="330,308 330,236 375,236 375,308" stroke="#6d725c" /></g></svg>