<?xml version="1.0" encoding="utf-8" ?>
<svg baseProfile="full" height="372" version="1.1" width="800" xmlns="http://www.w3.org/2000/svg" xmlns:ev="http://www.w3.org/2001/xml-events" xmlns:xlink="http://www.w3.org/1999/xlink"><defs /><g id="2A01" stroke="red"><polyline fill="#FFFFFF" points="20,46 20,10 49,10 49,26 54,26 54,46" stroke="#6d725c" /></g><g id="2A02A" stroke="red"><polyline fill="#FFFFFF" points="20,79 20,46 54,46 54,79" stroke="#6d725c" /></g><g id="2A02B" stroke="red"><polyline fill="#FFFFFF" points="20,104 20,79 54,79 54,104" stroke="#6d725c" /></g><g id="2A03" stroke="red"><polyline fill="#FFFFFF" points="83,51 83,26 87,26 87,10 111,10 111,51" stroke="#6d725c" /></g><g id="2A04" stroke="red"><polyline fill="#FFFFFF" points="94,95 72,95 72,67 94,67" stroke="#6d725c" /></g><g id="2A05" stroke="red"><polyline fill="#FFFFFF" points="111,51 111,10 133,10 133,51" stroke="#6d725c" /></g><g id="2A06" stroke="red"><polyline fill="#FFFFFF" points="94,95 94,67 117,67 117,95" stroke="#6d725c" /></g><g id="2A07" stroke="red"><polyline fill="#FFFFFF" points="164,32 164,51 133,51 133,10 184,10 184,32" stroke="#6d725c" /></g><g id="2A08" stroke="red"><polyline fill="#FFFFFF" points="137,95 117,95 117,67 137,67 137,95" stroke="#6d725c" /></g><g id="2A09" stroke="red"><polyline fill="#FFFFFF" points="164,51 164,32 184,32 184,51" stroke="#6d725c" /></g><g id="2A10" stroke="red"><polyline fill="#FFFFFF" points="137,67 137,67 156,67 156,95 137,95" stroke="#6d725c" /></g><g id="2A11" stroke="red"><polyline fill="#FFFFFF" points="207,51 184,51 184,32 184,10 207,10 207,32" stroke="#6d725c" /></g><g id="2A12" stroke="red"><polyline fill="#FFFFFF" points="168,95 168,67 190,67 190,95" stroke="#6d725c" /></g><g id="2A13" stroke="red"><polyline fill="#FFFFFF" points="207,51 207,32 241,32 241,51" stroke="#6d725c" /></g><g id="2A14" stroke="red"><polyline fill="#FFFFFF" points="190,67 220,67 220,95 190,95" stroke="#6d725c" /></g><g id="2A15" stroke="red"><polyline fill="#FFFFFF" points="241,32 241,10 278,10 278,51 241,51 241,51" stroke="#6d725c" /></g><g id="2A16" stroke="red"><polyline fill="#FFFFFF" points="236,90 236,67 278,67 278,90" stroke="#6d725c" /></g><g id="2A20" stroke="red"><polyline fill="#FFFFFF" points="362,95 362,67 383,67 383,95" stroke="#6d725c" /></g><g id="2A21" stroke="red"><polyline fill="#FFFFFF" points="384,51 384,51 346,51 346,10 384,10 384,10" stroke="#6d725c" /></g><g id="2A22" stroke="red"><polyline fill="#FFFFFF" points="385,95 385,67 410,67 410,95" stroke="#6d725c" /></g><g id="2A23" stroke="red"><polyline fill="#FFFFFF" points="384,51 384,10 405,10 405,51" stroke="#6d725c" /></g><g id="2A24" stroke="red"><polyline fill="#FFFFFF" points="422,95 422,67 460,67 460,95" stroke="#6d725c" /></g><g id="2A26" stroke="red"><polyline fill="#FFFFFF" points="460,67 497,67 497,95 460,95" stroke="#6d725c" /></g><g id="2A30" stroke="red"><polyline fill="#FFFFFF" points="509,95 509,67 538,67 538,95" stroke="#6d725c" /></g><g id="2A31" stroke="red"><polyline fill="#FFFFFF" points="405,51 405,10 426,10 426,51" stroke="#6d725c" /></g><g id="2A32" stroke="red"><polyline fill="#FFFFFF" points="550,95 550,67 574,67 574,95" stroke="#6d725c" /></g><g id="2A33" stroke="red"><polyline fill="#FFFFFF" points="426,51 426,10 449,10 449,51" stroke="#6d725c" /></g><g id="2A34" stroke="red"><polyline fill="#FFFFFF" points="574,67 598,67 598,95 574,95" stroke="#6d725c" /></g><g id="2A35" stroke="red"><polyline fill="#FFFFFF" points="449,51 449,10 472,10 472,51" stroke="#6d725c" /></g><g id="2A36" stroke="red"><polyline fill="#FFFFFF" points="614,95 614,67 650,67 650,95" stroke="#6d725c" /></g><g id="2A37" stroke="red"><polyline fill="#FFFFFF" points="472,51 472,10 496,10 496,51" stroke="#6d725c" /></g><g id="2A38" stroke="red"><polyline fill="#FFFFFF" points="666,100 666,67 686,67 686,100" stroke="#6d725c" /></g><g id="2A39" stroke="red"><polyline fill="#FFFFFF" points="496,51 496,10 496,10 524,10 524,51" stroke="#6d725c" /></g><g id="2A41" stroke="red"><polyline fill="#FFFFFF" points="524,51 524,10 549,10 549,51" stroke="#6d725c" /></g><g id="2A43" stroke="red"><polyline fill="#FFFFFF" points="549,51 549,10 573,10 573,51" stroke="#6d725c" /></g><g id="2A45" stroke="red"><polyline fill="#FFFFFF" points="594,51 573,51 573,10 594,10" stroke="#6d725c" /></g><g id="2A47" stroke="red"><polyline fill="#FFFFFF" points="594,51 594,10 614,10 614,51" stroke="#6d725c" /></g><g id="2A49" stroke="red"><polyline fill="#FFFFFF" points="614,51 614,10 633,10 633,51" stroke="#6d725c" /></g><g id="2A51" stroke="red"><polyline fill="#FFFFFF" points="633,51 633,10 658,10 658,51" stroke="#6d725c" /></g><g id="2A53" stroke="red"><polyline fill="#FFFFFF" points="658,51 658,10 679,10 679,51" stroke="#6d725c" /></g><g id="2A55" stroke="red"><polyline fill="#FFFFFF" points="686,139 686,100 686,100 686,67 686,67 686,51 679,51 679,10 761,10 770,11 779,14 786,20 791,27 795,36 796,43 795,48 742,249 740,257 691,257 691,220 686,220 686,209 692,209 692,197 688,197 688,168 671,168 671,156 664,156 664,150 655,139" stroke="#6d725c" /></g><g id="2B01A" stroke="red"><polyline fill="#FFFFFF" points="19,120 20,114 20,104 54,104 54,106 46,120" stroke="#6d725c" /></g><g id="2B01B" stroke="red"><polyline fill="#FFFFFF" points="25,151 14,151 19,120 46,120 29,151" stroke="#6d725c" /></g><g id="2B02" stroke="red"><polyline fill="#FFFFFF" points="9,177 14,151 14,151 25,151 29,151 29,151 29,177" stroke="#6d725c" /></g><g id="2B03" stroke="red"><polyline fill="#FFFFFF" points="78,139 78,139 78,163 45,163 45,155 72,107 78,107 78,139" stroke="#6d725c" /></g><g id="2B04" stroke="red"><polyline fill="#FFFFFF" points="78,180 56,180 56,209 56,209 45,209 45,180 45,163 78,163" stroke="#6d725c" /></g><g id="2B05" stroke="red"><polyline fill="#FFFFFF" points="78,139 78,107 89,107 89,139" stroke="#6d725c" /></g><g id="2B07" stroke="red"><polyline fill="#FFFFFF" points="123,130 123,139 89,139 89,107 89,107 123,107" stroke="#6d725c" /></g><g id="2B09" stroke="red"><polyline fill="#FFFFFF" points="123,107 156,107 156,130 123,130" stroke="#6d725c" /></g><g id="2B11" stroke="red"><polyline fill="#FFFFFF" points="168,130 168,107 196,107 196,130" stroke="#6d725c" /></g><g id="2B12" stroke="red"><polyline fill="#FFFFFF" points="202,203 184,203 184,142 220,142 220,203" stroke="#6d725c" /></g><g id="2B13" stroke="red"><polyline fill="#FFFFFF" points="196,107 220,107 220,130 196,130" stroke="#6d725c" /></g><g id="2B14" stroke="red"><polyline fill="#FFFFFF" points="257,205 236,205 236,151 278,151 278,205" stroke="#6d725c" /></g><g id="2B15" stroke="red"><polyline fill="#FFFFFF" points="236,117 236,90 278,90 278,117" stroke="#6d725c" /></g><g id="2B16" stroke="red"><polyline fill="#FFFFFF" points="236,151 236,117 278,117 278,151" stroke="#6d725c" /></g><g id="2B25" stroke="red"><polyline fill="#FFFFFF" points="412,139 392,139 386,125 362,125 362,109 412,109" stroke="#6d725c" /></g><g id="2B27" stroke="red"><polyline fill="#FFFFFF" points="422,129 422,109 460,109 460,129" stroke="#6d725c" /></g><g id="2B28A" stroke="red"><polyline fill="#FFFFFF" points="460,162 460,139 497,139 497,162" stroke="#6d725c" /></g><g id="2B28B" stroke="red"><polyline fill="#FFFFFF" points="460,186 460,162 497,162 497,186" stroke="#6d725c" /></g><g id="2B29" stroke="red"><polyline fill="#FFFFFF" points="460,139 460,129 460,109 497,109 497,139" stroke="#6d725c" /></g><g id="2B30" stroke="red"><polyline fill="#FFFFFF" points="538,137 538,164 509,164 509,137" stroke="#6d725c" /></g><g id="2B31" stroke="red"><polyline fill="#FFFFFF" points="509,137 509,109 538,109 538,137" stroke="#6d725c" /></g><g id="2B32" stroke="red"><polyline fill="#FFFFFF" points="550,165 550,142 583,142 583,165" stroke="#6d725c" /></g><g id="2B33" stroke="red"><polyline fill="#FFFFFF" points="550,142 550,109 563,109 566,110 569,110 572,112 574,113 577,115 579,118 580,120 582,123 582,126 583,129 583,142" stroke="#6d725c" /></g><g id="2B35" stroke="red"><polyline fill="#FFFFFF" points="650,95 650,96 634,125 614,125 614,95" stroke="#6d725c" /></g><g id="2B37" stroke="red"><polyline fill="#FFFFFF" points="645,139 666,100 686,100 686,139 655,139" stroke="#6d725c" /></g><g id="2C01" stroke="red"><polyline fill="#FFFFFF" points="9,177 29,177 29,197 6,197" stroke="#6d725c" /></g><g id="2C02" stroke="red"><polyline fill="#FFFFFF" points="6,248 6,222 29,222 29,248" stroke="#6d725c" /></g><g id="2C03" stroke="red"><polyline fill="#FFFFFF" points="29,197 29,222 6,222 6,197 6,197" stroke="#6d725c" /></g><g id="2C04" stroke="red"><polyline fill="#FFFFFF" points="56,209 56,216 62,216 62,231 45,231 45,209" stroke="#6d725c" /></g><g id="2C06" stroke="red"><polyline fill="#FFFFFF" points="72,231 72,216 85,216 85,231" stroke="#6d725c" /></g><g id="2C08" stroke="red"><polyline fill="#FFFFFF" points="102,231 102,216 104,216 104,210 124,210 124,231" stroke="#6d725c" /></g><g id="2C10" stroke="red"><polyline fill="#FFFFFF" points="154,231 134,231 134,210 154,210" stroke="#6d725c" /></g><g id="2C12" stroke="red"><polyline fill="#FFFFFF" points="184,231 184,203 202,203 202,231" stroke="#6d725c" /></g><g id="2C14" stroke="red"><polyline fill="#FFFFFF" points="202,203 220,203 220,231 202,231" stroke="#6d725c" /></g><g id="2C16" stroke="red"><polyline fill="#FFFFFF" points="236,249 236,205 257,205 257,249" stroke="#6d725c" /></g><g id="2C16A" stroke="red"><polyline fill="#FFFFFF" points="257,249 257,205 278,205 278,271 257,271" stroke="#6d725c" /></g><g id="2C18" stroke="red"><polyline fill="#FFFFFF" points="361,231 361,216 376,216 376,210 379,210 379,231" stroke="#6d725c" /></g><g id="2C20" stroke="red"><polyline fill="#FFFFFF" points="392,231 392,210 411,210 411,208 417,208 417,231" stroke="#6d725c" /></g><g id="2C22" stroke="red"><polyline fill="#FFFFFF" points="460,231 427,231 427,208 433,208 433,209 460,209" stroke="#6d725c" /></g><g id="2C26" stroke="red"><polyline fill="#FFFFFF" points="460,209 465,209 497,209 497,231 460,231" stroke="#6d725c" /></g><g id="2C27" stroke="red"><polyline fill="#FFFFFF" points="465,209 465,199 460,199 460,186 497,186 497,209" stroke="#6d725c" /></g><g id="2C28" stroke="red"><polyline fill="#FFFFFF" points="538,204 538,231 509,231 509,204" stroke="#6d725c" /></g><g id="2C29" stroke="red"><polyline fill="#FFFFFF" points="509,204 509,176 538,176 538,204" stroke="#6d725c" /></g><g id="2C30" stroke="red"><polyline fill="#FFFFFF" points="583,196 583,231 550,231 550,196" stroke="#6d725c" /></g><g id="2C31" stroke="red"><polyline fill="#FFFFFF" points="550,196 550,165 583,165 583,196" stroke="#6d725c" /></g><g id="2C32" stroke="red"><polyline fill="#FFFFFF" points="609,231 609,210 630,210 630,231" stroke="#6d725c" /></g><g id="2D01" stroke="red"><polyline fill="#FFFFFF" points="6,271 6,248 29,248 29,271" stroke="#6d725c" /></g><g id="2D02" stroke="red"><polyline fill="#FFFFFF" points="29,306 6,303 6,271 29,271 29,287" stroke="#6d725c" /></g><g id="2D03" stroke="red"><polyline fill="#FFFFFF" points="45,271 45,243 75,243 75,271" stroke="#6d725c" /></g><g id="2D04" stroke="red"><polyline fill="#FFFFFF" points="29,306 29,287 49,287 49,309" stroke="#6d725c" /></g><g id="2D05" stroke="red"><polyline fill="#FFFFFF" points="75,271 75,243 100,243 100,271" stroke="#6d725c" /></g><g id="2D06" stroke="red"><polyline fill="#FFFFFF" points="49,287 68,287 68,311 63,311 49,309" stroke="#6d725c" /></g><g id="2D07" stroke="red"><polyline fill="#FFFFFF" points="100,243 125,243 125,271 100,271" stroke="#6d725c" /></g><g id="2D08" stroke="red"><polyline fill="#FFFFFF" points="81,311 81,287 107,287 107,311" stroke="#6d725c" /></g><g id="2D09" stroke="red"><polyline fill="#FFFFFF" points="137,271 137,243 155,243 155,271" stroke="#6d725c" /></g><g id="2D10" stroke="red"><polyline fill="#FFFFFF" points="131,311 107,311 107,287 131,287 131,311" stroke="#6d725c" /></g><g id="2D11" stroke="red"><polyline fill="#FFFFFF" points="194,271 167,271 167,243 194,243" stroke="#6d725c" /></g><g id="2D12" stroke="red"><polyline fill="#FFFFFF" points="131,311 131,287 154,287 154,311" stroke="#6d725c" /></g><g id="2D13" stroke="red"><polyline fill="#FFFFFF" points="194,243 220,243 220,271 194,271" stroke="#6d725c" /></g><g id="2D14" stroke="red"><polyline fill="#FFFFFF" points="154,311 154,311 154,287 175,287 175,311" stroke="#6d725c" /></g><g id="2D15" stroke="red"><polyline fill="#FFFFFF" points="236,271 236,249 257,249 257,271" stroke="#6d725c" /></g><g id="2D16" stroke="red"><polyline fill="#FFFFFF" points="196,311 175,311 175,311 175,287 196,287" stroke="#6d725c" /></g><g id="2D17" stroke="red"><polyline fill="#FFFFFF" points="294,271 294,247 339,247 339,271" stroke="#6d725c" /></g><g id="2D18" stroke="red"><polyline fill="#FFFFFF" points="196,287 221,287 221,311 196,311" stroke="#6d725c" /></g><g id="2D19" stroke="red"><polyline fill="#FFFFFF" points="355,271 355,245 390,245 390,271" stroke="#6d725c" /></g><g id="2D20" stroke="red"><polyline fill="#FFFFFF" points="236,311 236,287 262,287 262,294 257,294 257,311" stroke="#6d725c" /></g><g id="2D21" stroke="red"><polyline fill="#FFFFFF" points="390,245 410,245 410,271 390,271 390,271" stroke="#6d725c" /></g><g id="2D22" stroke="red"><polyline fill="#FFFFFF" points="350,311 318,311 318,283 350,283 350,283" stroke="#6d725c" /></g><g id="2D23A" stroke="red"><polyline fill="#FFFFFF" points="422,271 422,245 448,245 448,271" stroke="#6d725c" /></g><g id="2D23B" stroke="red"><polyline fill="#FFFFFF" points="448,271 448,245 471,245 471,271 471,271" stroke="#6d725c" /></g><g id="2D24" stroke="red"><polyline fill="#FFFFFF" points="350,283 378,283 378,311 350,311" stroke="#6d725c" /></g><g id="2D25" stroke="red"><polyline fill="#FFFFFF" points="471,271 471,245 497,245 497,271 471,271" stroke="#6d725c" /></g><g id="2D26" stroke="red"><polyline fill="#FFFFFF" points="390,324 390,311 390,283 394,283 435,324" stroke="#6d725c" /></g><g id="2D27" stroke="red"><polyline fill="#FFFFFF" points="509,271 509,245 538,245 538,271" stroke="#6d725c" /></g><g id="2D28" stroke="red"><polyline fill="#FFFFFF" points="456,321 455,321 422,288 422,283 456,283 456,301" stroke="#6d725c" /></g><g id="2D29A" stroke="red"><polyline fill="#FFFFFF" points="550,271 550,245 569,245 569,271" stroke="#6d725c" /></g><g id="2D29B" stroke="red"><polyline fill="#FFFFFF" points="569,245 588,245 588,271 569,271" stroke="#6d725c" /></g><g id="2D30A" stroke="red"><polyline fill="#FFFFFF" points="456,301 456,283 476,283 476,301" stroke="#6d725c" /></g><g id="2D30B" stroke="red"><polyline fill="#FFFFFF" points="456,321 456,301 476,301 476,321" stroke="#6d725c" /></g><g id="2D30C" stroke="red"><polyline fill="#FFFFFF" points="476,301 476,283 497,283 497,301" stroke="#6d725c" /></g><g id="2D30D" stroke="red"><polyline fill="#FFFFFF" points="476,301 497,301 497,321 476,321" stroke="#6d725c" /></g><g id="2D31" stroke="red"><polyline fill="#FFFFFF" points="604,271 604,245 630,245 630,271" stroke="#6d725c" /></g><g id="2D32B" stroke="red"><polyline fill="#FFFFFF" points="524,308 524,283 538,283 538,308" stroke="#6d725c" /></g><g id="2D32C" stroke="red"><polyline fill="#FFFFFF" points="524,308 538,308 538,321 509,321 509,308" stroke="#6d725c" /></g><g id="2D33" stroke="red"><polyline fill="#FFFFFF" points="642,260 642,222 690,222 690,258 672,258 671,260" stroke="#6d725c" /></g><g id="2D34A" stroke="red"><polyline fill="#FFFFFF" points="550,303 550,283 569,283 569,303" stroke="#6d725c" /></g><g id="2D34B" stroke="red"><polyline fill="#FFFFFF" points="569,303 569,283 588,283 588,303" stroke="#6d725c" /></g><g id="2D34C" stroke="red"><polyline fill="#FFFFFF" points="550,321 550,303 569,303 569,321" stroke="#6d725c" /></g><g id="2D34D" stroke="red"><polyline fill="#FFFFFF" points="569,303 588,303 588,321 569,321" stroke="#6d725c" /></g><g id="2D36" stroke="red"><polyline fill="#FFFFFF" points="604,321 604,283 630,283 630,321" stroke="#6d725c" /></g><g id="2D51" stroke="red"><polyline fill="#FFFFFF" points="642,315 642,272 665,272 660,284 660,315" stroke="#6d725c" /></g></svg>