<?xml version="1.0" encoding="utf-8" ?>
<svg baseProfile="full" height="412" version="1.1" width="800" xmlns="http://www.w3.org/2000/svg" xmlns:ev="http://www.w3.org/2001/xml-events" xmlns:xlink="http://www.w3.org/1999/xlink"><defs /><g id="0E14" stroke="red"><polyline fill="#FFFFFF" points="196,239 196,197 210,197 210,152 193,131 193,117 270,117 270,192 260,215 219,215 219,239" stroke="#6d725c" /></g><g id="0F16" stroke="red"><polyline fill="#FFFFFF" points="300,215 290,192 290,117 366,117 366,131 351,156 350,156 350,215" stroke="#6d725c" /></g><g id="0G10" stroke="red"><polyline fill="#FFFFFF" points="229,264 229,224 332,224 332,264" stroke="#6d725c" /></g><g id="0G13" stroke="red"><polyline fill="#FFFFFF" points="350,241 350,210 363,210 363,241" stroke="#6d725c" /></g><g id="0Y01" stroke="red"><polyline fill="#FFFFFF" points="147,98 128,79 157,79 157,61 170,61 170,52 213,52 213,98" stroke="#6d725c" /></g><g id="0Y02" stroke="red"><polyline fill="#FFFFFF" points="262,98 213,98 213,52 213,52 262,52" stroke="#6d725c" /></g><g id="0Y03" stroke="red"><polyline fill="#FFFFFF" points="297,52 297,30 315,30 315,63 436,63 436,68 444,68 444,77 416,98 297,98" stroke="#6d725c" /></g><g id="0Y03A" stroke="red"><polyline fill="#FFFFFF" points="297,98 262,98 262,98 262,52 262,52 297,52" stroke="#6d725c" /></g><g id="0Y04" stroke="red"><polyline fill="#FFFFFF" points="153,128 165,128 165,144 186,144 196,157 196,197 187,197 187,162 177,150 153,150" stroke="#6d725c" /></g><g id="0Y05" stroke="red"><polyline fill="#FFFFFF" points="502,98 480,64 480,30 567,30 567,91 564,91 564,98" stroke="#6d725c" /></g><g id="0Y06" stroke="red"><polyline fill="#FFFFFF" points="564,98 564,91 567,91 567,30 604,30 604,98" stroke="#6d725c" /></g><g id="0Y07" stroke="red"><polyline fill="#FFFFFF" points="604,30 629,30 629,63 688,63 688,79 687,82 687,85 685,88 684,91 682,93 679,95 677,97 674,98 671,98 668,98 604,98 604,98" stroke="#6d725c" /></g><g id="0Y08" stroke="red"><polyline fill="#FFFFFF" points="774,127 757,127 757,94 765,94 765,78 746,78 746,63 746,62 760,30 765,30 770,32 774,34 778,36 782,39 785,43 788,47 789,52 791,57 791,62" stroke="#6d725c" /></g><g id="0Y13" stroke="red"><polyline fill="#FFFFFF" points="520,229 555,229 555,229 555,229 556,229 556,229 557,229 557,229 558,230 558,230 558,230 559,230 572,241 573,241 573,242 573,242 574,243 574,243 574,244 574,244 574,245 575,245 575,246 575,262 520,262 520,264 410,264 410,241 451,241 464,230 465,230 465,230 466,230 466,229 466,229 467,229 467,229 468,229 468,229 468,229" stroke="#6d725c" /></g><g id="0Y17" stroke="red"><polyline fill="#FFFFFF" points="450,166 434,166 434,150 412,150 412,127 413,125 413,124 414,123 414,121 415,120 416,119 418,118 419,118 421,118 422,117 450,117 450,154" stroke="#6d725c" /></g><g id="0Y18" stroke="red"><polyline fill="#FFFFFF" points="530,156 530,127 530,125 530,124 531,123 532,121 533,120 534,119 535,118 536,118 538,118 539,117 571,117 572,118 573,118 574,118 575,119 576,119 577,120 578,121 579,122 579,123 580,124 590,156" stroke="#6d725c" /></g><g id="0Y19" stroke="red"><polyline fill="#FFFFFF" points="623,150 618,157 605,157 599,137 596,127 596,127 596,125 596,124 597,123 598,121 599,120 600,119 601,118 603,118 604,118 605,117 640,117 640,150" stroke="#6d725c" /></g><g id="0Y20" stroke="red"><polyline fill="#FFFFFF" points="640,117 668,117 671,118 675,119 678,120 681,122 684,124 686,127 688,130 689,133 690,136 690,140 690,150 690,178 673,178 673,168 667,168 667,162 659,152 659,150 640,150" stroke="#6d725c" /></g><g id="0Y21" stroke="red"><polyline fill="#FFFFFF" points="590,156 590,236 533,191 533,191 532,190 532,189 531,189 531,188 530,187 530,186 530,185 530,185 530,184 530,156" stroke="#6d725c" /></g><g id="0Y22" stroke="red"><polyline fill="#FFFFFF" points="511,160 511,184 511,185 511,185 510,186 510,187 510,188 509,189 509,189 508,190 508,191 507,191 479,213 478,204 473,160 477,160" stroke="#6d725c" /></g><g id="0Y23A" stroke="red"><polyline fill="#FFFFFF" points="477,160 473,160 473,154 450,154 450,117 450,117 477,117 477,117" stroke="#6d725c" /></g><g id="0Y23B" stroke="red"><polyline fill="#FFFFFF" points="477,160 477,160 477,117 501,117 503,118 504,118 506,118 507,119 508,120 509,121 510,123 510,124 511,125 511,127 511,160" stroke="#6d725c" /></g><g id="GZA0B01" stroke="red"><polyline fill="#FFFFFF" points="153,150 109,150 109,152 109,190 89,190 89,240 90,240 90,263 85,263 85,258 79,258 79,263 45,263 45,255 42,255 42,219 45,219 45,206 42,206 50,161 54,161 54,156 51,156 55,131 60,131 60,124 55,124 55,114 74,114 89,101 114,124 153,124 153,128" stroke="#6d725c" /></g></svg>