<?xml version="1.0" encoding="utf-8" ?>
<svg baseProfile="full" height="375" version="1.1" width="800" xmlns="http://www.w3.org/2000/svg" xmlns:ev="http://www.w3.org/2001/xml-events" xmlns:xlink="http://www.w3.org/1999/xlink"><defs /><g id="4Y01" stroke="red"><polyline points="125,136 79,136 79,176 58,176 58,212 105,212 105,206 125,206 125,218 159,234 228,234 230,234 230,290 224,290 224,307 68,307 63,307 7,299 7,193 21,113 21,107 21,7 238,6 238,114 139,114 125,128" stroke="#6d725c" /></g><g id="4Y02A" stroke="red"><polyline points="643,321 660,321 660,361 450,361 450,341 391,341 391,287 303,287 303,278 247,278 247,234 648,234 648,256 643,256" stroke="#6d725c" /></g><g id="4Y03" stroke="red"><polyline points="392,218 391,218 390,218 390,218 389,217 389,217 388,216 388,216 388,215 388,215 388,214 388,206 408,206 408,218" stroke="#6d725c" /></g><g id="4Y04" stroke="red"><polyline points="706,159 707,160 707,160 708,161 708,162 708,162 708,163 708,164 708,164 708,165 708,166 699,200 694,206 692,206 692,193 688,193 688,164 671,164 671,153 664,153 664,147 655,136 655,134 683,134" stroke="#6d725c" /></g><g id="4Y05" stroke="red"><polyline points="701,219 712,206 718,182 719,180 720,178 722,176 724,174 726,173 728,173 731,172 733,172 736,173 738,174 758,186 746,231" stroke="#6d725c" /></g><g id="4Y06" stroke="red"><polyline points="746,231 742,245 736,245 736,253 686,253 686,254 672,254 701,219 746,231" stroke="#6d725c" /></g><g id="4Y07" stroke="red"><polyline points="640,218 640,206 670,206 670,218" stroke="#6d725c" /></g><g id="4Y08" stroke="red"><polyline points="610,218 610,206 630,206 630,218" stroke="#6d725c" /></g><g id="4Y11" stroke="red"><polyline points="473,195 466,195 460,195 460,134 564,134 564,218 473,218" stroke="#6d725c" /></g><g id="4Y12" stroke="red"><polyline points="428,218 428,205 433,205 433,206 439,206 439,211 466,211 466,195 473,195 473,218" stroke="#6d725c" /></g><g id="4Y14A" stroke="red"><polyline points="185,218 185,134 218,134 218,218" stroke="#6d725c" /></g><g id="4Y14B" stroke="red"><polyline points="238,218 238,134 331,134 331,218" stroke="#6d725c" /></g><g id="4Y15" stroke="red"><polyline points="437,114 383,114 383,6 437,6 437,7" stroke="#6d725c" /></g><g id="4Y16" stroke="red"><polyline points="338,72 338,7 383,6 383,114 303,114 303,72" stroke="#6d725c" /></g><g id="4Y17A" stroke="red"><polyline points="275,114 238,114 238,6 275,6 275,60" stroke="#6d725c" /></g><g id="4Y17B" stroke="red"><polyline points="338,72 303,72 303,114 275,114 275,60 275,6 338,6 338,7" stroke="#6d725c" /></g><g id="4Y18" stroke="red"><polyline points="493,114 437,114 437,7 493,7 493,75" stroke="#6d725c" /></g><g id="4Y20" stroke="red"><polyline points="594,72 579,72 579,72 532,72 532,114 493,114 493,114 493,114 493,75 493,7 594,7" stroke="#6d725c" /></g><g id="4Y21" stroke="red"><polyline points="665,72 636,72 594,72 594,7 761,7 766,7 771,8 775,10 779,12 783,15 786,18 789,22 792,26 793,30 794,35 794,45 778,106 768,145 766,145 713,114 665,114" stroke="#6d725c" /></g><g id="4Y22A" stroke="red"><polyline points="532,114 532,72 579,72 579,114" stroke="#6d725c" /></g><g id="4Y22B" stroke="red"><polyline points="579,114 579,72 594,72 594,72 636,72 636,114" stroke="#6d725c" /></g><g id="4Y22C" stroke="red"><polyline points="636,114 636,72 665,72 665,114" stroke="#6d725c" /></g></svg>