<?xml version="1.0" encoding="utf-8" ?>
<svg baseProfile="full" height="613" version="1.1" width="800" xmlns="http://www.w3.org/2000/svg" xmlns:ev="http://www.w3.org/2001/xml-events" xmlns:xlink="http://www.w3.org/1999/xlink"><defs /><g id="1A01" stroke="red"><polyline fill="#FFFFFF" points="78,132 78,114 59,114 59,38 113,38 113,53 115,53 115,132" stroke="#6d725c" /></g><g id="1A02" stroke="red"><polyline fill="#FFFFFF" points="249,82 249,98 235,98 142,98 142,98 142,34 176,34 176,71 235,71 235,82 243,82" stroke="#6d725c" /></g><g id="1A03" stroke="red"><polyline fill="#FFFFFF" points="70,192 59,192 59,170 78,170 78,132 115,132 115,203 70,203" stroke="#6d725c" /></g><g id="1A04" stroke="red"><polyline fill="#FFFFFF" points="235,98 249,98 249,154 147,154 146,154 145,154 144,154 144,153 143,153 143,152 142,151 142,151 142,150 142,149 142,98" stroke="#6d725c" /></g><g id="1A05" stroke="red"><polyline fill="#FFFFFF" points="75,247 75,225 70,225 70,203 115,203 115,247" stroke="#6d725c" /></g><g id="1A06" stroke="red"><polyline fill="#FFFFFF" points="137,228 137,228 136,228 135,228 135,227 134,227 133,226 133,225 133,225 133,224 132,223 132,182 133,180 133,178 134,176 135,175 136,173 138,172 139,171 141,170 143,169 145,169 185,169 185,215 185,217 185,219 184,221 183,223 182,224 180,226 178,227 177,227 175,228 173,228" stroke="#6d725c" /></g><g id="1A09" stroke="red"><polyline fill="#FFFFFF" points="75,289 75,247 115,247 115,289" stroke="#6d725c" /></g><g id="1A10" stroke="red"><polyline fill="#FFFFFF" points="132,312 132,246 133,245 133,244 133,243 133,243 134,242 135,242 135,241 136,241 137,241 137,241 185,241 185,312" stroke="#6d725c" /></g><g id="1A11" stroke="red"><polyline fill="#FFFFFF" points="59,331 59,315 75,315 75,289 115,289 115,331" stroke="#6d725c" /></g><g id="1A13" stroke="red"><polyline fill="#FFFFFF" points="115,331 115,367 74,367 74,361 59,361 59,331" stroke="#6d725c" /></g><g id="1A14" stroke="red"><polyline fill="#FFFFFF" points="185,312 204,312 204,361 204,362 204,363 203,364 203,364 202,365 202,366 201,366 200,366 200,366 199,367 137,367 137,366 136,366 135,366 135,366 134,365 133,364 133,364 133,363 133,362 132,361 132,312 132,312" stroke="#6d725c" /></g><g id="1A15" stroke="red"><polyline fill="#FFFFFF" points="59,423 59,387 74,387 74,382 115,382 115,423" stroke="#6d725c" /></g><g id="1A16" stroke="red"><polyline fill="#FFFFFF" points="137,460 137,460 136,460 135,460 135,460 134,459 133,458 133,458 133,457 133,456 132,455 132,387 133,386 133,385 133,384 133,384 134,383 135,383 135,382 136,382 137,382 137,382 168,382 168,460" stroke="#6d725c" /></g><g id="1A17" stroke="red"><polyline fill="#FFFFFF" points="59,465 59,465 59,423 59,423 115,423 115,465" stroke="#6d725c" /></g><g id="1A19" stroke="red"><polyline fill="#FFFFFF" points="130,525 59,525 59,465 115,465 115,465 115,478 130,478" stroke="#6d725c" /></g><g id="1A20" stroke="red"><polyline fill="#FFFFFF" points="181,563 150,563 150,575 135,575 135,525 130,525 130,478 181,478 181,525" stroke="#6d725c" /></g><g id="1B08" stroke="red"><polyline fill="#FFFFFF" points="215,228 213,228 211,227 210,227 208,226 206,224 205,223 204,221 203,219 203,217 203,215 203,182 203,180 203,178 204,176 205,175 206,173 208,172 210,171 211,170 213,169 215,169 256,169 256,223 255,224 255,225 255,225 255,226 254,227 253,227 253,228 252,228 251,228 251,228" stroke="#6d725c" /></g><g id="1B10" stroke="red"><polyline fill="#FFFFFF" points="221,282 203,282 203,246 203,245 203,244 203,243 204,243 204,242 205,242 205,241 206,241 207,241 208,241 256,241 256,282" stroke="#6d725c" /></g><g id="1B15" stroke="red"><polyline fill="#FFFFFF" points="168,382 198,382 199,382 199,382 200,382 201,383 201,383 202,384 202,384 203,385 203,386 203,387 203,455 203,456 203,457 202,458 202,458 201,459 201,460 200,460 199,460 199,460 198,460 168,460" stroke="#6d725c" /></g><g id="1B16" stroke="red"><polyline fill="#FFFFFF" points="256,282 256,361 256,362 256,363 255,364 255,364 254,365 254,366 253,366 252,366 252,366 251,367 226,367 225,366 224,366 223,366 223,366 222,365 222,364 221,364 221,363 221,362 221,361 221,282" stroke="#6d725c" /></g><g id="1B18" stroke="red"><polyline fill="#FFFFFF" points="223,460 222,460 222,460 221,460 220,460 220,459 219,458 219,458 218,457 218,456 218,455 218,387 218,386 218,385 219,384 219,384 220,383 220,383 221,382 222,382 222,382 223,382 256,382 256,460" stroke="#6d725c" /></g><g id="1B19" stroke="red"><polyline fill="#FFFFFF" points="181,478 224,478 225,478 225,478 226,479 227,479 227,480 228,480 228,481 229,482 229,482 229,483 229,525 181,525" stroke="#6d725c" /></g><g id="1B20" stroke="red"><polyline fill="#FFFFFF" points="250,505 250,483 250,482 250,482 250,481 251,480 251,480 252,479 253,479 253,478 254,478 255,478 320,478 320,505" stroke="#6d725c" /></g><g id="1C01" stroke="red"><polyline fill="#FFFFFF" points="325,154 249,154 249,82 249,82 243,82 243,38 255,38 255,34 325,34 325,106" stroke="#6d725c" /></g><g id="1C07" stroke="red"><polyline fill="#FFFFFF" points="276,228 275,228 274,228 274,228 273,227 272,227 272,226 271,225 271,225 271,224 271,223 271,174 271,174 271,173 271,172 272,171 272,171 273,170 274,170 274,170 275,169 276,169 329,169 330,169 330,170 331,170 332,170 332,171 333,171 333,172 334,173 334,174 334,174 334,223 334,224 334,225 333,225 333,226 332,227 332,227 331,228 330,228 330,228 329,228" stroke="#6d725c" /></g><g id="1C09" stroke="red"><polyline fill="#FFFFFF" points="271,304 271,246 271,245 271,244 271,243 272,243 272,242 273,242 274,241 274,241 275,241 276,241 329,241 330,241 330,241 331,241 332,242 332,242 333,243 333,243 334,244 334,245 334,246 334,304" stroke="#6d725c" /></g><g id="1C15" stroke="red"><polyline fill="#FFFFFF" points="334,304 334,361 334,362 334,363 333,364 333,364 332,365 332,366 331,366 330,366 330,366 329,367 276,367 275,366 274,366 274,366 273,366 272,365 272,364 271,364 271,363 271,362 271,361 271,304" stroke="#6d725c" /></g><g id="1C17" stroke="red"><polyline fill="#FFFFFF" points="276,460 275,460 274,460 274,460 273,460 272,459 272,458 271,458 271,457 271,456 271,455 271,387 271,386 271,385 271,384 272,384 272,383 273,383 274,382 274,382 275,382 276,382 329,382 330,382 330,382 331,382 332,383 332,383 333,384 333,384 334,385 334,386 334,387 334,455 334,456 334,457 333,458 333,458 332,459 332,460 331,460 330,460 330,460 329,460" stroke="#6d725c" /></g><g id="1C20" stroke="red"><polyline fill="#FFFFFF" points="324,575 324,525 320,525 320,505 320,478 358,478 358,575" stroke="#6d725c" /></g><g id="1D01" stroke="red"><polyline fill="#FFFFFF" points="325,106 325,34 370,34 370,38 393,38 393,59 397,59 397,106" stroke="#6d725c" /></g><g id="1D03" stroke="red"><polyline fill="#FFFFFF" points="325,106 397,106 397,133 397,137 396,140 394,143 393,146 391,148 388,150 385,152 382,153 379,154 376,154 325,154" stroke="#6d725c" /></g><g id="1D04" stroke="red"><polyline fill="#FFFFFF" points="418,140 418,123 439,123 439,140" stroke="#6d725c" /></g><g id="1D07" stroke="red"><polyline fill="#FFFFFF" points="356,228 356,228 355,228 354,228 354,227 353,227 352,226 352,225 352,225 352,224 351,223 351,174 352,174 352,173 352,172 352,171 353,171 354,170 354,170 355,170 356,169 356,169 411,169 412,169 413,170 413,170 414,170 415,171 415,171 416,172 416,173 416,174 416,174 416,223 416,224 416,225 416,225 415,226 415,227 414,227 413,228 413,228 412,228 411,228" stroke="#6d725c" /></g><g id="1D09" stroke="red"><polyline fill="#FFFFFF" points="351,304 351,246 352,245 352,244 352,243 352,243 353,242 354,242 354,241 355,241 356,241 356,241 411,241 412,241 413,241 413,241 414,242 415,242 415,243 416,243 416,244 416,245 416,246 416,304" stroke="#6d725c" /></g><g id="1D15" stroke="red"><polyline fill="#FFFFFF" points="416,304 416,361 416,362 416,363 416,364 415,364 415,365 414,366 413,366 413,366 412,366 411,367 356,367 356,366 355,366 354,366 354,366 353,365 352,364 352,364 352,363 352,362 351,361 351,304" stroke="#6d725c" /></g><g id="1D19" stroke="red"><polyline fill="#FFFFFF" points="358,478 394,478 394,523 392,523 392,575 358,575" stroke="#6d725c" /></g><g id="1D20" stroke="red"><polyline fill="#FFFFFF" points="448,575 395,575 395,528 396,528 396,508 396,478 433,478 433,530 448,530" stroke="#6d725c" /></g><g id="1E02" stroke="red"><polyline fill="#FFFFFF" points="461,106 461,59 465,59 465,34 516,34 516,51 528,51 528,71 537,71 537,86 537,93 537,106" stroke="#6d725c" /></g><g id="1E04" stroke="red"><polyline fill="#FFFFFF" points="537,106 537,149 537,150 537,151 536,151 536,152 535,153 535,153 534,154 533,154 533,154 532,154 482,154 478,154 475,153 472,152 469,150 467,148 465,146 463,143 462,140 461,137 461,133 461,106" stroke="#6d725c" /></g><g id="1E06" stroke="red"><polyline fill="#FFFFFF" points="446,228 445,228 445,228 444,228 443,227 443,227 442,226 442,225 441,225 441,224 441,223 441,174 441,174 441,173 442,172 442,171 443,171 443,170 444,170 445,170 445,169 446,169 539,169 539,223 539,224 539,225 539,225 538,226 538,227 537,227 537,228 536,228 535,228 534,228" stroke="#6d725c" /></g><g id="1E10" stroke="red"><polyline fill="#FFFFFF" points="441,304 441,302 441,246 441,245 441,244 442,243 442,243 443,242 443,242 444,241 445,241 445,241 446,241 491,241 491,302 491,304" stroke="#6d725c" /></g><g id="1E14" stroke="red"><polyline fill="#FFFFFF" points="452,366 451,367 449,367 448,366 446,366 445,365 444,364 443,363 442,361 441,360 441,358 441,304 491,304 491,353" stroke="#6d725c" /></g><g id="1E16" stroke="red"><polyline fill="#FFFFFF" points="551,458 529,458 529,458 529,460 446,460 445,460 445,460 444,460 443,460 443,459 442,458 442,458 441,457 441,456 441,455 441,392 441,391 441,390 442,389 442,388 443,387 443,386 444,386 445,385 446,384 447,384 515,360 551,351 551,358" stroke="#6d725c" /></g><g id="1E20" stroke="red"><polyline fill="#FFFFFF" points="448,530 433,530 433,478 460,478 460,530" stroke="#6d725c" /></g><g id="1F06" stroke="red"><polyline fill="#FFFFFF" points="554,196 554,174 555,174 555,173 555,172 555,171 556,171 557,170 557,170 558,170 559,169 560,169 610,169 610,196" stroke="#6d725c" /></g><g id="1F08" stroke="red"><polyline fill="#FFFFFF" points="554,224 554,196 610,196 610,224" stroke="#6d725c" /></g><g id="1F09" stroke="red"><polyline fill="#FFFFFF" points="491,304 491,302 491,241 539,241 539,304" stroke="#6d725c" /></g><g id="1F10" stroke="red"><polyline fill="#FFFFFF" points="554,251 554,224 610,224 610,251 604,251" stroke="#6d725c" /></g><g id="1F12" stroke="red"><polyline fill="#FFFFFF" points="554,288 554,251 604,251 604,288" stroke="#6d725c" /></g><g id="1F13" stroke="red"><polyline fill="#FFFFFF" points="491,304 539,304 539,332 539,333 539,334 539,334 539,335 538,335 538,336 538,336 537,337 537,337 536,337 491,353" stroke="#6d725c" /></g><g id="1F14" stroke="red"><polyline fill="#FFFFFF" points="604,288 604,320 561,330 560,331 559,331 558,330 557,330 556,330 556,329 555,328 555,327 555,327 554,326 554,288" stroke="#6d725c" /></g><g id="1F19" stroke="red"><polyline fill="#FFFFFF" points="460,478 507,478 507,478 508,478 509,479 510,479 510,480 511,480 511,481 511,482 512,482 512,483 512,525 476,525 476,530 460,530" stroke="#6d725c" /></g><g id="1F20" stroke="red"><polyline fill="#FFFFFF" points="551,458 579,458 579,504 534,504 534,504 533,504 532,504 531,503 531,503 530,502 530,502 530,501 529,500 529,499 529,458" stroke="#6d725c" /></g><g id="1G04A" stroke="red"><polyline fill="#FFFFFF" points="711,245 661,245 661,245 661,34 711,34 711,53" stroke="#6d725c" /></g><g id="1G04B" stroke="red"><polyline fill="#FFFFFF" points="700,379 684,379 684,358 661,358 661,337 661,245 700,245" stroke="#6d725c" /></g><g id="1G04C" stroke="red"><polyline fill="#FFFFFF" points="740,379 700,379 700,245 740,245 740,257" stroke="#6d725c" /></g><g id="1G04D" stroke="red"><polyline fill="#FFFFFF" points="740,257 774,257 774,379 740,379" stroke="#6d725c" /></g><g id="1G12" stroke="red"><polyline fill="#FFFFFF" points="551,358 551,351 606,337 606,358" stroke="#6d725c" /></g><g id="1G13" stroke="red"><polyline fill="#FFFFFF" points="606,358 606,337 661,337 661,358" stroke="#6d725c" /></g><g id="1Y01" stroke="red"><polyline fill="#FFFFFF" points="711,245 711,53 712,53 712,38 774,38 774,171 740,171 740,245" stroke="#6d725c" /></g><g id="1Y02" stroke="red"><polyline fill="#FFFFFF" points="552,154 552,71 611,71 611,34 643,34 643,133 643,137 642,140 641,143 639,146 637,148 635,150 632,152 629,153 625,154 622,154" stroke="#6d725c" /></g><g id="1Y03" stroke="red"><polyline fill="#FFFFFF" points="606,504 606,458 636,458 636,504" stroke="#6d725c" /></g><g id="1Y04" stroke="red"><polyline fill="#FFFFFF" points="636,458 662,458 662,504 636,504" stroke="#6d725c" /></g></svg>