<?xml version="1.0" encoding="utf-8" ?>
<svg baseProfile="full" height="613" version="1.1" width="800" xmlns="http://www.w3.org/2000/svg" xmlns:ev="http://www.w3.org/2001/xml-events" xmlns:xlink="http://www.w3.org/1999/xlink"><defs /><g id="2A01" stroke="red"><polyline fill="#FFFFFF" points="175,78 219,78 219,149 219,150 219,151 219,151 218,152 218,153 217,153 217,154 216,154 215,154 214,154 111,154 111,125 52,125 52,43 175,43" stroke="#6d725c" /></g><g id="2A08" stroke="red"><polyline fill="#FFFFFF" points="129,207 129,191 129,191 129,191 129,190 129,190 129,190 129,190 130,189 130,189 130,189 130,188 138,175 138,175 139,174 139,174 140,174 140,173 140,173 141,173 141,173 142,173 143,173 157,173 157,207" stroke="#6d725c" /></g><g id="2A09" stroke="red"><polyline fill="#FFFFFF" points="52,222 52,185 111,185 111,222" stroke="#6d725c" /></g><g id="2A10" stroke="red"><polyline fill="#FFFFFF" points="134,240 134,240 133,240 132,240 131,239 131,239 130,238 130,237 129,236 129,236 129,235 129,207 157,207 157,240" stroke="#6d725c" /></g><g id="2A11" stroke="red"><polyline fill="#FFFFFF" points="52,258 52,222 111,222 111,258" stroke="#6d725c" /></g><g id="2A12" stroke="red"><polyline fill="#FFFFFF" points="178,288 129,288 129,256 178,256 183,256 183,288" stroke="#6d725c" /></g><g id="2A13" stroke="red"><polyline fill="#FFFFFF" points="52,295 52,258 111,258 111,295" stroke="#6d725c" /></g><g id="2A14" stroke="red"><polyline fill="#FFFFFF" points="178,321 129,321 129,288 178,288 183,288 183,321" stroke="#6d725c" /></g><g id="2A15" stroke="red"><polyline fill="#FFFFFF" points="52,332 52,295 111,295 111,332" stroke="#6d725c" /></g><g id="2A16" stroke="red"><polyline fill="#FFFFFF" points="178,354 129,354 129,321 178,321 183,321 183,354" stroke="#6d725c" /></g><g id="2A17" stroke="red"><polyline fill="#FFFFFF" points="52,369 52,332 111,332 111,369" stroke="#6d725c" /></g><g id="2A18" stroke="red"><polyline fill="#FFFFFF" points="178,354 183,354 183,386 178,386 129,386 129,354" stroke="#6d725c" /></g><g id="2A19" stroke="red"><polyline fill="#FFFFFF" points="52,406 52,369 111,369 111,406" stroke="#6d725c" /></g><g id="2A20" stroke="red"><polyline fill="#FFFFFF" points="134,445 134,445 133,445 132,444 131,444 131,443 130,443 130,442 129,441 129,440 129,440 129,407 129,407 129,406 130,405 130,404 131,404 131,403 132,403 133,402 134,402 134,402 184,402 184,440 184,440 184,441 184,442 183,443 183,443 182,444 181,444 181,445 180,445 179,445" stroke="#6d725c" /></g><g id="2A21" stroke="red"><polyline fill="#FFFFFF" points="52,442 52,406 111,406 111,442" stroke="#6d725c" /></g><g id="2A23" stroke="red"><polyline fill="#FFFFFF" points="52,479 52,442 111,442 111,479" stroke="#6d725c" /></g><g id="2A24" stroke="red"><polyline fill="#FFFFFF" points="134,507 134,507 133,507 132,507 131,506 131,506 130,505 130,504 129,504 129,503 129,502 129,463 129,462 129,462 130,461 130,460 131,459 131,459 132,459 133,458 134,458 134,458 179,458 180,458 181,458 181,459 182,459 183,459 183,460 184,461 184,462 184,462 184,463 184,502 184,503 184,504 184,504 183,505 183,506 182,506 181,507 181,507 180,507 179,507" stroke="#6d725c" /></g><g id="2A25" stroke="red"><polyline fill="#FFFFFF" points="52,516 52,479 111,479 111,516" stroke="#6d725c" /></g><g id="2A26" stroke="red"><polyline fill="#FFFFFF" points="180,604 161,604 152,604 112,604 112,576 129,576 129,552 129,526 180,526 180,552" stroke="#6d725c" /></g><g id="2A27" stroke="red"><polyline fill="#FFFFFF" points="111,516 111,552 52,552 52,516" stroke="#6d725c" /></g><g id="2B05" stroke="red"><polyline fill="#FFFFFF" points="157,207 157,173 179,173 180,173 181,173 181,173 182,174 183,174 183,175 184,176 184,176 184,177 184,178 184,207" stroke="#6d725c" /></g><g id="2B06" stroke="red"><polyline fill="#FFFFFF" points="200,206 200,178 200,177 200,176 201,176 201,175 202,174 202,174 203,173 204,173 205,173 205,173 229,173 229,206" stroke="#6d725c" /></g><g id="2B07" stroke="red"><polyline fill="#FFFFFF" points="157,207 184,207 184,235 184,236 184,236 184,237 183,238 183,239 182,239 181,240 181,240 180,240 179,240 157,240" stroke="#6d725c" /></g><g id="2B08" stroke="red"><polyline fill="#FFFFFF" points="205,240 205,240 204,240 203,240 202,239 202,239 201,238 201,237 200,236 200,236 200,235 200,206 229,206 229,240" stroke="#6d725c" /></g><g id="2B16" stroke="red"><polyline fill="#FFFFFF" points="180,526 230,526 230,552 180,552" stroke="#6d725c" /></g><g id="2C01" stroke="red"><polyline fill="#FFFFFF" points="440,89 440,115 365,115 349,115 331,115 235,115 235,91 245,91 245,43 451,43 451,89" stroke="#6d725c" /></g><g id="2C05" stroke="red"><polyline fill="#FFFFFF" points="240,154 240,154 239,154 238,154 237,153 237,153 236,152 236,151 235,151 235,150 235,149 235,115 331,115 331,154" stroke="#6d725c" /></g><g id="2C07" stroke="red"><polyline fill="#FFFFFF" points="229,206 229,173 253,173 253,173 254,173 255,173 256,174 256,174 257,175 257,176 258,176 258,177 258,178 258,206" stroke="#6d725c" /></g><g id="2C08" stroke="red"><polyline fill="#FFFFFF" points="274,207 274,178 274,177 274,176 274,176 275,175 275,174 276,174 277,173 277,173 278,173 279,173 312,173 312,207" stroke="#6d725c" /></g><g id="2C09" stroke="red"><polyline fill="#FFFFFF" points="229,206 258,206 258,235 258,236 258,236 257,237 257,238 256,239 256,239 255,240 254,240 253,240 253,240 229,240" stroke="#6d725c" /></g><g id="2C10" stroke="red"><polyline fill="#FFFFFF" points="280,239 279,239 278,239 277,239 276,238 276,238 275,237 274,236 274,236 274,235 274,234 274,207 312,207 312,234" stroke="#6d725c" /></g><g id="2C11" stroke="red"><polyline fill="#FFFFFF" points="225,288 224,288 224,256 228,256 258,256 258,288" stroke="#6d725c" /></g><g id="2C12" stroke="red"><polyline fill="#FFFFFF" points="280,312 279,312 278,312 277,312 276,312 276,311 275,310 274,310 274,309 274,308 274,307 274,260 274,260 274,259 274,258 274,258 275,257 275,256 276,256 277,256 277,255 278,255 312,250 312,307" stroke="#6d725c" /></g><g id="2C13" stroke="red"><polyline fill="#FFFFFF" points="228,321 224,321 224,288 225,288 258,288 258,321" stroke="#6d725c" /></g><g id="2C14" stroke="red"><polyline fill="#FFFFFF" points="280,386 279,386 278,385 277,385 276,385 276,384 275,384 274,383 274,382 274,381 274,380 274,334 274,333 274,332 274,331 274,331 275,330 275,330 276,329 277,329 277,329 278,328 312,323 312,380" stroke="#6d725c" /></g><g id="2C15" stroke="red"><polyline fill="#FFFFFF" points="228,354 224,354 224,321 228,321 258,321 258,354" stroke="#6d725c" /></g><g id="2C16" stroke="red"><polyline fill="#FFFFFF" points="279,445 278,445 277,445 277,444 276,444 275,443 275,443 274,442 274,441 274,440 274,440 274,407 274,406 274,405 274,405 274,404 275,404 275,403 276,403 277,402 277,402 278,402 312,396 312,445" stroke="#6d725c" /></g><g id="2C17" stroke="red"><polyline fill="#FFFFFF" points="228,354 258,354 258,386 228,386 224,386 224,354" stroke="#6d725c" /></g><g id="2C18" stroke="red"><polyline fill="#FFFFFF" points="279,507 278,507 277,507 277,507 276,506 275,506 275,505 274,504 274,504 274,503 274,502 274,463 274,462 274,462 274,461 275,460 275,459 276,459 277,459 277,458 278,458 279,458 312,458 312,507" stroke="#6d725c" /></g><g id="2C19" stroke="red"><polyline fill="#FFFFFF" points="205,445 205,445 204,445 203,444 202,444 202,443 201,443 201,442 200,441 200,440 200,440 200,407 200,407 200,406 201,405 201,404 202,404 202,403 203,403 204,402 205,402 205,402 258,402 258,440 258,440 258,441 257,442 257,443 256,443 256,444 255,444 254,445 253,445 253,445" stroke="#6d725c" /></g><g id="2C23" stroke="red"><polyline fill="#FFFFFF" points="205,507 205,507 204,507 203,507 202,506 202,506 201,505 201,504 200,504 200,503 200,502 200,463 200,462 200,462 201,461 201,460 202,459 202,459 203,459 204,458 205,458 205,458 253,458 253,458 254,458 255,459 256,459 256,459 257,460 257,461 258,462 258,462 258,463 258,502 258,503 258,504 257,504 257,505 256,506 256,506 255,507 254,507 253,507 253,507" stroke="#6d725c" /></g><g id="2C28" stroke="red"><polyline fill="#FFFFFF" points="251,552 251,526 303,526 303,552" stroke="#6d725c" /></g><g id="2D07" stroke="red"><polyline fill="#FFFFFF" points="331,115 349,115 365,115 440,115 440,149 440,150 440,151 440,151 439,152 439,153 438,153 438,154 437,154 436,154 435,154 331,154" stroke="#6d725c" /></g><g id="2D09" stroke="red"><polyline fill="#FFFFFF" points="312,207 312,173 344,173 345,173 346,173 347,173 347,174 348,174 348,175 349,176 349,176 349,177 349,178 349,207" stroke="#6d725c" /></g><g id="2D11" stroke="red"><polyline fill="#FFFFFF" points="312,207 349,207 349,223 349,224 349,225 349,226 349,226 348,227 348,227 347,228 346,228 346,228 345,229 312,234" stroke="#6d725c" /></g><g id="2D12" stroke="red"><polyline fill="#FFFFFF" points="370,224 369,224 368,224 367,224 367,223 366,222 366,222 365,221 365,220 365,219 365,178 365,177 365,176 366,176 366,175 367,174 367,174 368,173 369,173 370,173 370,173 402,173 402,220 371,224 371,224 371,224 371,224 371,224 371,224 371,224 371,225 371,225 371,225 370,225" stroke="#6d725c" /></g><g id="2D13" stroke="red"><polyline fill="#FFFFFF" points="312,250 343,245 344,245 345,245 346,245 347,245 348,246 348,247 349,247 349,248 349,249 349,250 349,297 349,297 349,298 349,299 349,299 348,300 348,301 347,301 346,301 346,302 345,302 312,307" stroke="#6d725c" /></g><g id="2D14" stroke="red"><polyline fill="#FFFFFF" points="371,298 370,298 369,298 369,297 368,297 367,297 366,296 366,295 365,294 365,293 365,293 365,246 365,245 365,244 366,244 366,243 366,242 367,242 368,241 368,241 369,241 370,241 402,236 402,293" stroke="#6d725c" /></g><g id="2D15" stroke="red"><polyline fill="#FFFFFF" points="312,323 343,318 344,318 345,318 346,318 347,319 348,319 348,320 349,321 349,322 349,322 349,323 349,370 349,371 349,371 349,372 349,373 348,373 348,374 347,374 346,375 346,375 345,375 312,380" stroke="#6d725c" /></g><g id="2D16" stroke="red"><polyline fill="#FFFFFF" points="371,371 370,371 369,371 369,371 368,370 367,370 366,369 366,368 365,368 365,367 365,366 365,319 365,318 365,318 366,317 366,316 366,316 367,315 368,315 368,314 369,314 370,314 402,309 402,366" stroke="#6d725c" /></g><g id="2D17" stroke="red"><polyline fill="#FFFFFF" points="312,396 343,391 344,391 345,391 346,392 347,392 348,393 348,393 349,394 349,395 349,396 349,397 349,440 349,440 349,441 349,442 348,443 348,443 347,444 347,444 346,445 345,445 344,445 312,445" stroke="#6d725c" /></g><g id="2D18" stroke="red"><polyline fill="#FFFFFF" points="370,445 370,445 369,445 368,444 367,444 367,443 366,443 366,442 365,441 365,440 365,440 365,392 365,392 365,391 366,390 366,390 366,389 367,388 368,388 368,388 369,387 370,387 402,382 402,445" stroke="#6d725c" /></g><g id="2D19" stroke="red"><polyline fill="#FFFFFF" points="312,458 344,458 345,458 346,458 347,459 347,459 348,459 348,460 349,461 349,462 349,462 349,463 349,502 349,503 349,504 349,504 348,505 348,506 347,506 347,507 346,507 345,507 344,507 312,507" stroke="#6d725c" /></g><g id="2D20" stroke="red"><polyline fill="#FFFFFF" points="370,507 370,507 369,507 368,507 367,506 367,506 366,505 366,504 365,504 365,503 365,502 365,463 365,462 365,462 366,461 366,460 367,459 367,459 368,459 369,458 370,458 370,458 402,458 402,507" stroke="#6d725c" /></g><g id="2D29" stroke="red"><polyline fill="#FFFFFF" points="329,604 329,552 324,552 324,526 367,526 367,604" stroke="#6d725c" /></g><g id="2D30" stroke="red"><polyline fill="#FFFFFF" points="367,526 402,526 402,550 401,550 401,604 367,604" stroke="#6d725c" /></g><g id="2E07" stroke="red"><polyline fill="#FFFFFF" points="404,219 404,173 428,173 429,173 429,173 429,173 430,173 430,173 431,173 431,174 431,174 432,174 432,174 448,192 450,194 451,196 451,199 451,202 451,205 449,207 448,210 446,211 443,213 440,214" stroke="#6d725c" /></g><g id="2E08" stroke="red"><polyline fill="#FFFFFF" points="479,190 472,190 452,169 452,169 452,169 452,168 452,168 451,168 451,167 451,167 451,167 451,166 451,166 451,100 479,100 479,172" stroke="#6d725c" /></g><g id="2E13" stroke="red"><polyline fill="#FFFFFF" points="402,236 429,231 430,231 431,231 432,232 433,232 433,232 434,233 435,234 435,235 435,236 435,236 435,283 435,284 435,285 435,285 434,286 434,287 433,287 433,287 432,288 432,288 431,288 402,293" stroke="#6d725c" /></g><g id="2E14" stroke="red"><polyline fill="#FFFFFF" points="457,284 456,284 455,284 454,284 454,283 453,283 452,282 452,282 451,281 451,280 451,279 451,232 451,232 451,231 451,230 452,229 452,229 453,228 453,228 454,228 455,227 455,227 482,223 482,280" stroke="#6d725c" /></g><g id="2E15" stroke="red"><polyline fill="#FFFFFF" points="402,309 429,305 430,304 431,305 432,305 433,305 433,306 434,306 435,307 435,308 435,309 435,310 435,356 435,357 435,358 435,359 434,359 434,360 433,360 433,361 432,361 432,361 431,362 402,366" stroke="#6d725c" /></g><g id="2E16" stroke="red"><polyline fill="#FFFFFF" points="457,357 456,357 455,357 454,357 454,357 453,356 452,356 452,355 451,354 451,353 451,352 451,306 451,305 451,304 451,303 452,303 452,302 453,302 453,301 454,301 455,301 455,300 482,296 482,353" stroke="#6d725c" /></g><g id="2E17" stroke="red"><polyline fill="#FFFFFF" points="402,382 429,378 430,378 431,378 432,378 433,378 433,379 434,380 435,380 435,381 435,382 435,383 435,440 435,440 435,441 435,442 434,443 434,443 433,444 432,444 432,445 431,445 430,445 402,445" stroke="#6d725c" /></g><g id="2E18" stroke="red"><polyline fill="#FFFFFF" points="456,445 455,445 455,445 454,444 453,444 453,443 452,443 452,442 451,441 451,440 451,440 451,379 451,378 451,377 451,377 452,376 452,375 453,375 453,374 454,374 455,374 455,374 482,369 482,445" stroke="#6d725c" /></g><g id="2E19" stroke="red"><polyline fill="#FFFFFF" points="402,458 430,458 431,458 432,458 432,459 433,459 434,459 434,460 435,461 435,462 435,462 435,463 435,502 435,503 435,504 435,504 434,505 434,506 433,506 432,507 432,507 431,507 430,507 402,507" stroke="#6d725c" /></g><g id="2E20" stroke="red"><polyline fill="#FFFFFF" points="456,507 455,507 455,507 454,507 453,506 453,506 452,505 452,504 451,504 451,503 451,502 451,463 451,462 451,462 452,461 452,460 453,459 453,459 454,459 455,458 455,458 456,458 482,458 482,507" stroke="#6d725c" /></g><g id="2E25" stroke="red"><polyline fill="#FFFFFF" points="404,552 404,526 435,526 435,552" stroke="#6d725c" /></g><g id="2E26" stroke="red"><polyline fill="#FFFFFF" points="451,552 451,526 491,526 491,552 491,552" stroke="#6d725c" /></g><g id="2F01" stroke="red"><polyline fill="#FFFFFF" points="668,162 626,162 585,162 585,78 628,78 628,72 701,72 701,162" stroke="#6d725c" /></g><g id="2F06" stroke="red"><polyline fill="#FFFFFF" points="524,165 541,162 568,162 568,187 568,188 568,188 568,189 568,190 567,190 567,191 566,191 565,192 565,192 564,192 524,199 545,181 545,188 552,188 552,181" stroke="#6d725c" /></g><g id="2F07" stroke="red"><polyline fill="#FFFFFF" points="489,205 488,205 488,205 487,205 487,205 486,205 486,205 485,204 485,204 484,204 484,203 472,190 479,190 479,172 524,165 524,199" stroke="#6d725c" /></g><g id="2F12" stroke="red"><polyline fill="#FFFFFF" points="535,272 534,272 533,272 532,271 532,271 531,271 530,270 530,269 529,268 529,267 529,267 529,220 529,219 529,218 529,218 530,217 530,217 531,216 531,216 532,215 533,215 533,215 557,211 557,268" stroke="#6d725c" /></g><g id="2F13" stroke="red"><polyline fill="#FFFFFF" points="482,223 507,219 508,219 509,219 510,219 511,220 511,220 512,221 512,221 513,222 513,223 513,224 513,271 513,271 513,272 513,273 512,274 512,274 511,275 511,275 510,276 509,276 509,276 482,280" stroke="#6d725c" /></g><g id="2F14" stroke="red"><polyline fill="#FFFFFF" points="535,345 534,345 533,345 532,345 531,344 531,344 530,343 530,343 529,342 529,341 529,340 529,293 529,292 529,292 530,291 530,290 530,290 531,289 531,289 532,288 533,288 534,288 557,284 557,342" stroke="#6d725c" /></g><g id="2F15" stroke="red"><polyline fill="#FFFFFF" points="482,296 507,292 508,292 509,292 510,292 511,293 511,293 512,294 512,295 513,296 513,296 513,297 513,344 513,345 513,346 513,346 512,347 512,347 511,348 511,348 510,349 509,349 509,349 482,353" stroke="#6d725c" /></g><g id="2F16" stroke="red"><polyline fill="#FFFFFF" points="566,377 529,377 529,362 585,353 585,377" stroke="#6d725c" /></g><g id="2F17" stroke="red"><polyline fill="#FFFFFF" points="482,369 507,365 508,365 509,365 510,366 511,366 511,367 512,367 512,368 513,369 513,370 513,371 513,440 513,440 513,441 513,442 512,443 512,443 511,444 510,444 509,445 509,445 508,445 482,445" stroke="#6d725c" /></g><g id="2F18" stroke="red"><polyline fill="#FFFFFF" points="529,405 529,377 566,377 566,405" stroke="#6d725c" /></g><g id="2F19" stroke="red"><polyline fill="#FFFFFF" points="482,458 508,458 509,458 509,458 510,459 511,459 512,459 512,460 513,461 513,462 513,462 513,463 513,502 513,503 513,504 513,504 512,505 512,506 511,506 510,507 509,507 509,507 508,507 482,507" stroke="#6d725c" /></g><g id="2F20" stroke="red"><polyline fill="#FFFFFF" points="566,405 566,432 529,432 529,405" stroke="#6d725c" /></g><g id="2F22" stroke="red"><polyline fill="#FFFFFF" points="529,482 529,450 566,450 566,482" stroke="#6d725c" /></g><g id="2F24" stroke="red"><polyline fill="#FFFFFF" points="566,507 529,507 529,482 566,482 567,482 567,507" stroke="#6d725c" /></g><g id="2F25" stroke="red"><polyline fill="#FFFFFF" points="512,552 512,526 554,526 554,552" stroke="#6d725c" /></g><g id="2F26" stroke="red"><polyline fill="#FFFFFF" points="567,482 605,482 605,507 567,507" stroke="#6d725c" /></g><g id="2F27" stroke="red"><polyline fill="#FFFFFF" points="554,526 597,526 597,552 554,552" stroke="#6d725c" /></g><g id="2F28" stroke="red"><polyline fill="#FFFFFF" points="618,507 618,482 686,482 686,507" stroke="#6d725c" /></g><g id="2G07" stroke="red"><polyline fill="#FFFFFF" points="600,249 600,204 620,204 620,249" stroke="#6d725c" /></g><g id="2G08" stroke="red"><polyline fill="#FFFFFF" points="557,211 578,208 579,208 580,208 581,208 582,208 582,209 583,209 583,210 584,211 584,212 584,213 584,260 584,260 584,261 584,262 583,262 583,263 582,263 582,264 581,264 580,265 580,265 557,268" stroke="#6d725c" /></g><g id="2G09" stroke="red"><polyline fill="#FFFFFF" points="600,293 600,249 620,249 621,249 621,293" stroke="#6d725c" /></g><g id="2G10" stroke="red"><polyline fill="#FFFFFF" points="557,284 578,281 579,281 580,281 581,281 582,282 582,282 583,283 583,284 584,284 584,285 584,286 584,333 584,334 584,334 584,335 583,336 583,336 582,337 582,337 581,338 580,338 580,338 557,342" stroke="#6d725c" /></g><g id="2G11" stroke="red"><polyline fill="#FFFFFF" points="621,293 621,337 619,337 600,337 600,293" stroke="#6d725c" /></g><g id="2G12" stroke="red"><polyline fill="#FFFFFF" points="585,377 585,353 619,353 619,377" stroke="#6d725c" /></g><g id="2G13" stroke="red"><polyline fill="#FFFFFF" points="619,377 619,353 653,353 653,377" stroke="#6d725c" /></g><g id="2G14" stroke="red"><polyline fill="#FFFFFF" points="686,377 653,377 653,353 686,353 686,358" stroke="#6d725c" /></g><g id="2H01" stroke="red"><polyline fill="#FFFFFF" points="585,188 585,162 626,162 626,188" stroke="#6d725c" /></g><g id="2H02" stroke="red"><polyline fill="#FFFFFF" points="626,188 626,162 668,162 668,188" stroke="#6d725c" /></g><g id="2H03" stroke="red"><polyline fill="#FFFFFF" points="668,188 668,162 701,162 701,171 721,171 721,188" stroke="#6d725c" /></g><g id="2I01" stroke="red"><polyline fill="#FFFFFF" points="666,234 666,204 709,204 709,234" stroke="#6d725c" /></g><g id="2I02A" stroke="red"><polyline fill="#FFFFFF" points="740,211 740,188 740,182 763,182 763,211" stroke="#6d725c" /></g><g id="2I02B" stroke="red"><polyline fill="#FFFFFF" points="763,211 763,240 740,240 740,211" stroke="#6d725c" /></g><g id="2I03" stroke="red"><polyline fill="#FFFFFF" points="666,265 666,234 709,234 709,265" stroke="#6d725c" /></g><g id="2I04" stroke="red"><polyline fill="#FFFFFF" points="740,295 740,256 763,256 763,272 799,272 799,295" stroke="#6d725c" /></g><g id="2I05" stroke="red"><polyline fill="#FFFFFF" points="666,301 666,265 709,265 709,301" stroke="#6d725c" /></g><g id="2I07" stroke="red"><polyline fill="#FFFFFF" points="709,301 709,337 666,337 666,301" stroke="#6d725c" /></g><g id="2I08" stroke="red"><polyline fill="#FFFFFF" points="725,328 725,295 740,295 799,295 799,328" stroke="#6d725c" /></g><g id="2I10" stroke="red"><polyline fill="#FFFFFF" points="725,382 725,328 799,328 799,382" stroke="#6d725c" /></g><g id="2I12" stroke="red"><polyline fill="#FFFFFF" points="725,409 725,382 799,382 799,409" stroke="#6d725c" /></g><g id="2I14" stroke="red"><polyline fill="#FFFFFF" points="725,437 725,409 799,409 799,437" stroke="#6d725c" /></g><g id="2I16" stroke="red"><polyline fill="#FFFFFF" points="725,464 725,437 799,437 799,464" stroke="#6d725c" /></g><g id="2I18" stroke="red"><polyline fill="#FFFFFF" points="725,492 725,492 725,464 799,464 799,492 799,492" stroke="#6d725c" /></g><g id="2I20" stroke="red"><polyline fill="#FFFFFF" points="725,519 725,492 799,492 799,519" stroke="#6d725c" /></g><g id="2I22" stroke="red"><polyline fill="#FFFFFF" points="725,519 799,519 799,519 799,534 799,536 799,537 799,538 799,540 799,541 798,543 798,544 798,546 798,547 797,548 725,548" stroke="#6d725c" /></g><g id="2I24" stroke="red"><polyline fill="#FFFFFF" points="725,604 705,604 705,548 725,548" stroke="#6d725c" /></g><g id="2Y01" stroke="red"><polyline fill="#FFFFFF" points="740,182 740,188 721,188 721,171 701,171 701,162 701,72 628,72 628,43 730,43 730,49 758,49 758,43 790,43 790,52 799,52 799,182 763,182" stroke="#6d725c" /></g><g id="2Y02" stroke="red"><polyline fill="#FFFFFF" points="541,162 524,165 479,172 479,100 451,100 451,89 451,43 558,43 558,78 558,78 568,78 568,78 568,78 568,78 568,162" stroke="#6d725c" /></g></svg>