<?xml version="1.0" encoding="utf-8" ?>
<svg baseProfile="full" height="598" version="1.1" width="800" xmlns="http://www.w3.org/2000/svg" xmlns:ev="http://www.w3.org/2001/xml-events" xmlns:xlink="http://www.w3.org/1999/xlink"><defs /><g id="2A01" stroke="red"><polyline fill="#FFFFFF" points="175,78 219,78 219,149 219,150 219,151 219,151 218,152 218,153 217,153 217,154 216,154 215,154 214,154 111,154 111,125 52,125 52,43 175,43" stroke="#6d725c" /></g><g id="2A08" stroke="red"><polyline fill="#FFFFFF" points="129,207 129,191 129,191 129,191 129,190 129,190 129,190 129,190 130,189 130,189 130,189 130,188 138,175 138,175 139,174 139,174 140,174 140,173 140,173 141,173 141,173 142,173 143,173 157,173 157,207" stroke="#6d725c" /></g><g id="2A09" stroke="red"><polyline fill="#FFFFFF" points="52,222 52,185 111,185 111,222" stroke="#6d725c" /></g><g id="2A10" stroke="red"><polyline fill="#FFFFFF" points="134,240 134,240 133,240 132,240 131,239 131,239 130,238 130,237 129,236 129,236 129,235 129,207 157,207 157,240" stroke="#6d725c" /></g><g id="2A11" stroke="red"><polyline fill="#FFFFFF" points="52,258 52,222 111,222 111,258" stroke="#6d725c" /></g><g id="2A12" stroke="red"><polyline fill="#FFFFFF" points="178,288 129,288 129,256 178,256 183,256 183,288" stroke="#6d725c" /></g><g id="2A13" stroke="red"><polyline fill="#FFFFFF" points="52,295 52,258 111,258 111,295" stroke="#6d725c" /></g><g id="2A14" stroke="red"><polyline fill="#FFFFFF" points="178,321 129,321 129,288 178,288 183,288 183,321" stroke="#6d725c" /></g><g id="2A15" stroke="red"><polyline fill="#FFFFFF" points="52,332 52,295 111,295 111,332" stroke="#6d725c" /></g><g id="2A16" stroke="red"><polyline fill="#FFFFFF" points="178,354 129,354 129,321 178,321 183,321 183,354" stroke="#6d725c" /></g><g id="2A17" stroke="red"><polyline fill="#FFFFFF" points="52,369 52,332 111,332 111,369" stroke="#6d725c" /></g><g id="2A18" stroke="red"><polyline fill="#FFFFFF" points="178,354 183,354 183,386 178,386 129,386 129,354" stroke="#6d725c" /></g><g id="2A19" stroke="red"><polyline fill="#FFFFFF" points="52,406 52,369 111,369 111,406" stroke="#6d725c" /></g><g id="2A20" stroke="red"><polyline fill="#FFFFFF" points="129,439 129,402 157,402 157,439" stroke="#6d725c" /></g><g id="2A21" stroke="red"><polyline fill="#FFFFFF" points="52,442 52,406 111,406 111,442" stroke="#6d725c" /></g><g id="2A22" stroke="red"><polyline fill="#FFFFFF" points="129,477 129,439 157,439 157,477" stroke="#6d725c" /></g><g id="2A23" stroke="red"><polyline fill="#FFFFFF" points="52,479 52,442 111,442 111,479" stroke="#6d725c" /></g><g id="2A24" stroke="red"><polyline fill="#FFFFFF" points="129,507 129,477 157,477 157,507" stroke="#6d725c" /></g><g id="2A25" stroke="red"><polyline fill="#FFFFFF" points="52,516 52,479 111,479 111,516" stroke="#6d725c" /></g><g id="2A26" stroke="red"><polyline fill="#FFFFFF" points="180,604 161,604 152,604 112,604 112,576 129,576 129,552 129,526 180,526 180,552" stroke="#6d725c" /></g><g id="2A27" stroke="red"><polyline fill="#FFFFFF" points="111,516 111,552 52,552 52,516" stroke="#6d725c" /></g><g id="2B05" stroke="red"><polyline fill="#FFFFFF" points="157,207 157,173 179,173 180,173 181,173 181,173 182,174 183,174 183,175 184,176 184,176 184,177 184,178 184,207" stroke="#6d725c" /></g><g id="2B06" stroke="red"><polyline fill="#FFFFFF" points="200,206 200,178 200,177 200,176 201,176 201,175 202,174 202,174 203,173 204,173 205,173 205,173 229,173 229,206" stroke="#6d725c" /></g><g id="2B07" stroke="red"><polyline fill="#FFFFFF" points="157,207 184,207 184,235 184,236 184,236 184,237 183,238 183,239 182,239 181,240 181,240 180,240 179,240 157,240" stroke="#6d725c" /></g><g id="2B08" stroke="red"><polyline fill="#FFFFFF" points="205,240 205,240 204,240 203,240 202,239 202,239 201,238 201,237 200,236 200,236 200,235 200,206 229,206 229,240" stroke="#6d725c" /></g><g id="2B09" stroke="red"><polyline fill="#FFFFFF" points="157,439 157,402 184,402 184,439" stroke="#6d725c" /></g><g id="2B10" stroke="red"><polyline fill="#FFFFFF" points="229,451 200,451 200,402 229,402 229,439" stroke="#6d725c" /></g><g id="2B11" stroke="red"><polyline fill="#FFFFFF" points="157,477 157,439 184,439 184,477" stroke="#6d725c" /></g><g id="2B12" stroke="red"><polyline fill="#FFFFFF" points="229,507 200,507 200,451 229,451 229,477" stroke="#6d725c" /></g><g id="2B13" stroke="red"><polyline fill="#FFFFFF" points="157,477 184,477 184,507 157,507" stroke="#6d725c" /></g><g id="2B16" stroke="red"><polyline fill="#FFFFFF" points="180,526 230,526 230,552 180,552" stroke="#6d725c" /></g><g id="2C01" stroke="red"><polyline fill="#FFFFFF" points="440,89 440,115 365,115 349,115 331,115 235,115 235,91 245,91 245,43 451,43 451,89" stroke="#6d725c" /></g><g id="2C05" stroke="red"><polyline fill="#FFFFFF" points="240,154 240,154 239,154 238,154 237,153 237,153 236,152 236,151 235,151 235,150 235,149 235,115 331,115 331,154" stroke="#6d725c" /></g><g id="2C07" stroke="red"><polyline fill="#FFFFFF" points="229,206 229,173 253,173 253,173 254,173 255,173 256,174 256,174 257,175 257,176 258,176 258,177 258,178 258,206" stroke="#6d725c" /></g><g id="2C08" stroke="red"><polyline fill="#FFFFFF" points="274,207 274,178 274,177 274,176 274,176 275,175 275,174 276,174 277,173 277,173 278,173 279,173 312,173 312,207" stroke="#6d725c" /></g><g id="2C09" stroke="red"><polyline fill="#FFFFFF" points="229,206 258,206 258,235 258,236 258,236 257,237 257,238 256,239 256,239 255,240 254,240 253,240 253,240 229,240" stroke="#6d725c" /></g><g id="2C10" stroke="red"><polyline fill="#FFFFFF" points="280,239 279,239 278,239 277,239 276,238 276,238 275,237 274,236 274,236 274,235 274,234 274,207 312,207 312,234" stroke="#6d725c" /></g><g id="2C11" stroke="red"><polyline fill="#FFFFFF" points="225,288 224,288 224,256 228,256 258,256 258,288" stroke="#6d725c" /></g><g id="2C12" stroke="red"><polyline fill="#FFFFFF" points="274,282 274,256 312,250 312,282" stroke="#6d725c" /></g><g id="2C13" stroke="red"><polyline fill="#FFFFFF" points="228,321 224,321 224,288 225,288 258,288 258,321" stroke="#6d725c" /></g><g id="2C14" stroke="red"><polyline fill="#FFFFFF" points="274,315 274,282 312,282 312,315" stroke="#6d725c" /></g><g id="2C15" stroke="red"><polyline fill="#FFFFFF" points="228,354 224,354 224,321 228,321 258,321 258,354" stroke="#6d725c" /></g><g id="2C16" stroke="red"><polyline fill="#FFFFFF" points="274,348 274,315 312,315 312,348" stroke="#6d725c" /></g><g id="2C17" stroke="red"><polyline fill="#FFFFFF" points="228,354 258,354 258,386 228,386 224,386 224,354" stroke="#6d725c" /></g><g id="2C18" stroke="red"><polyline fill="#FFFFFF" points="274,386 274,348 312,348 312,380" stroke="#6d725c" /></g><g id="2C19" stroke="red"><polyline fill="#FFFFFF" points="229,439 229,402 258,402 258,439" stroke="#6d725c" /></g><g id="2C20" stroke="red"><polyline fill="#FFFFFF" points="274,424 274,402 312,396 312,424" stroke="#6d725c" /></g><g id="2C21" stroke="red"><polyline fill="#FFFFFF" points="229,477 229,451 229,439 258,439 258,477" stroke="#6d725c" /></g><g id="2C22" stroke="red"><polyline fill="#FFFFFF" points="274,452 274,424 312,424 312,452" stroke="#6d725c" /></g><g id="2C23" stroke="red"><polyline fill="#FFFFFF" points="229,477 258,477 258,507 229,507" stroke="#6d725c" /></g><g id="2C24" stroke="red"><polyline fill="#FFFFFF" points="274,479 274,452 312,452 312,479" stroke="#6d725c" /></g><g id="2C26" stroke="red"><polyline fill="#FFFFFF" points="274,507 274,479 312,479 312,507" stroke="#6d725c" /></g><g id="2C28" stroke="red"><polyline fill="#FFFFFF" points="251,552 251,526 303,526 303,552" stroke="#6d725c" /></g><g id="2D07" stroke="red"><polyline fill="#FFFFFF" points="331,115 349,115 365,115 440,115 440,149 440,150 440,151 440,151 439,152 439,153 438,153 438,154 437,154 436,154 435,154 331,154" stroke="#6d725c" /></g><g id="2D09" stroke="red"><polyline fill="#FFFFFF" points="312,207 312,173 344,173 345,173 346,173 347,173 347,174 348,174 348,175 349,176 349,176 349,177 349,178 349,207" stroke="#6d725c" /></g><g id="2D11" stroke="red"><polyline fill="#FFFFFF" points="312,207 349,207 349,223 349,224 349,225 349,226 349,226 348,227 348,227 347,228 346,228 346,228 345,229 312,234" stroke="#6d725c" /></g><g id="2D12" stroke="red"><polyline fill="#FFFFFF" points="370,224 369,224 368,224 367,224 367,223 366,222 366,222 365,221 365,220 365,219 365,178 365,177 365,176 366,176 366,175 367,174 367,174 368,173 369,173 370,173 370,173 402,173 402,220 371,224 371,224 371,224 371,224 371,224 371,224 371,224 371,225 371,225 371,225 370,225" stroke="#6d725c" /></g><g id="2D13" stroke="red"><polyline fill="#FFFFFF" points="312,282 312,250 349,244 349,282" stroke="#6d725c" /></g><g id="2D14" stroke="red"><polyline fill="#FFFFFF" points="402,268 365,268 365,241 402,236 402,268" stroke="#6d725c" /></g><g id="2D15" stroke="red"><polyline fill="#FFFFFF" points="312,315 312,282 349,282 349,315" stroke="#6d725c" /></g><g id="2D16" stroke="red"><polyline fill="#FFFFFF" points="365,301 365,268 402,268 402,301" stroke="#6d725c" /></g><g id="2D17" stroke="red"><polyline fill="#FFFFFF" points="312,348 312,315 349,315 349,348" stroke="#6d725c" /></g><g id="2D18" stroke="red"><polyline fill="#FFFFFF" points="365,333 365,301 402,301 402,333" stroke="#6d725c" /></g><g id="2D19" stroke="red"><polyline fill="#FFFFFF" points="312,348 349,348 349,374 312,380" stroke="#6d725c" /></g><g id="2D20" stroke="red"><polyline fill="#FFFFFF" points="365,372 365,333 402,333 402,333 402,366" stroke="#6d725c" /></g><g id="2D21" stroke="red"><polyline fill="#FFFFFF" points="312,424 312,396 349,390 349,424" stroke="#6d725c" /></g><g id="2D22" stroke="red"><polyline fill="#FFFFFF" points="402,413 365,413 365,388 402,382 402,413" stroke="#6d725c" /></g><g id="2D23" stroke="red"><polyline fill="#FFFFFF" points="312,452 312,424 349,424 349,452" stroke="#6d725c" /></g><g id="2D24" stroke="red"><polyline fill="#FFFFFF" points="365,445 365,413 402,413 402,445" stroke="#6d725c" /></g><g id="2D25" stroke="red"><polyline fill="#FFFFFF" points="312,479 312,452 349,452 349,479" stroke="#6d725c" /></g><g id="2D26" stroke="red"><polyline fill="#FFFFFF" points="365,476 365,445 402,445 402,476" stroke="#6d725c" /></g><g id="2D27" stroke="red"><polyline fill="#FFFFFF" points="312,479 349,479 349,507 312,507" stroke="#6d725c" /></g><g id="2D28" stroke="red"><polyline fill="#FFFFFF" points="365,507 365,476 402,476 402,476 402,507" stroke="#6d725c" /></g><g id="2D29" stroke="red"><polyline fill="#FFFFFF" points="329,604 329,552 324,552 324,526 367,526 367,604" stroke="#6d725c" /></g><g id="2D30" stroke="red"><polyline fill="#FFFFFF" points="367,526 402,526 402,550 401,550 401,604 367,604" stroke="#6d725c" /></g><g id="2E01" stroke="red"><polyline fill="#FFFFFF" points="541,162 524,165 479,172 479,100 451,100 451,89 451,43 558,43 558,78 558,78 568,78 568,78 568,78 568,78 568,162" stroke="#6d725c" /></g><g id="2E07" stroke="red"><polyline fill="#FFFFFF" points="404,219 404,173 428,173 429,173 429,173 429,173 430,173 430,173 431,173 431,174 431,174 432,174 432,174 448,192 450,194 451,196 451,199 451,202 451,205 449,207 448,210 446,211 443,213 440,214" stroke="#6d725c" /></g><g id="2E08" stroke="red"><polyline fill="#FFFFFF" points="479,190 472,190 452,169 452,169 452,169 452,168 452,168 451,168 451,167 451,167 451,167 451,166 451,166 451,100 479,100 479,172" stroke="#6d725c" /></g><g id="2E09" stroke="red"><polyline fill="#FFFFFF" points="402,268 402,236 435,230 435,268" stroke="#6d725c" /></g><g id="2E10" stroke="red"><polyline fill="#FFFFFF" points="451,255 451,228 482,223 482,255" stroke="#6d725c" /></g><g id="2E11" stroke="red"><polyline fill="#FFFFFF" points="402,301 402,268 402,268 435,268 435,301" stroke="#6d725c" /></g><g id="2E12" stroke="red"><polyline fill="#FFFFFF" points="482,291 451,291 451,255 482,255 482,288" stroke="#6d725c" /></g><g id="2E13" stroke="red"><polyline fill="#FFFFFF" points="402,333 402,333 402,301 435,301 435,333" stroke="#6d725c" /></g><g id="2E14" stroke="red"><polyline fill="#FFFFFF" points="482,327 451,327 451,291 482,291 482,321" stroke="#6d725c" /></g><g id="2E15" stroke="red"><polyline fill="#FFFFFF" points="402,333 435,333 435,361 402,366" stroke="#6d725c" /></g><g id="2E16" stroke="red"><polyline fill="#FFFFFF" points="451,358 451,327 482,327 482,353" stroke="#6d725c" /></g><g id="2E17" stroke="red"><polyline fill="#FFFFFF" points="402,413 402,382 435,377 435,413" stroke="#6d725c" /></g><g id="2E18" stroke="red"><polyline fill="#FFFFFF" points="451,404 451,374 482,369 482,404" stroke="#6d725c" /></g><g id="2E19" stroke="red"><polyline fill="#FFFFFF" points="402,445 402,413 402,413 435,413 435,445" stroke="#6d725c" /></g><g id="2E20" stroke="red"><polyline fill="#FFFFFF" points="451,438 451,404 482,404 482,438" stroke="#6d725c" /></g><g id="2E21" stroke="red"><polyline fill="#FFFFFF" points="402,476 402,476 402,445 435,445 435,476" stroke="#6d725c" /></g><g id="2E22" stroke="red"><polyline fill="#FFFFFF" points="451,473 451,438 482,438 482,473" stroke="#6d725c" /></g><g id="2E23" stroke="red"><polyline fill="#FFFFFF" points="402,476 435,476 435,507 402,507" stroke="#6d725c" /></g><g id="2E24" stroke="red"><polyline fill="#FFFFFF" points="451,507 451,473 482,473 482,507" stroke="#6d725c" /></g><g id="2E25" stroke="red"><polyline fill="#FFFFFF" points="404,552 404,526 435,526 435,552" stroke="#6d725c" /></g><g id="2E26" stroke="red"><polyline fill="#FFFFFF" points="451,552 451,526 491,526 491,552 491,552" stroke="#6d725c" /></g><g id="2F01" stroke="red"><polyline fill="#FFFFFF" points="668,162 626,162 585,162 585,78 628,78 628,72 701,72 701,162" stroke="#6d725c" /></g><g id="2F06" stroke="red"><polyline fill="#FFFFFF" points="524,165 541,162 568,162 568,187 568,188 568,188 568,189 568,190 567,190 567,191 566,191 565,192 565,192 564,192 524,199 545,181 545,188 552,188 552,181" stroke="#6d725c" /></g><g id="2F07" stroke="red"><polyline fill="#FFFFFF" points="489,205 488,205 488,205 487,205 487,205 486,205 486,205 485,204 485,204 484,204 484,203 472,190 479,190 479,172 524,165 524,199" stroke="#6d725c" /></g><g id="2F08" stroke="red"><polyline fill="#FFFFFF" points="529,244 529,215 557,211 557,244" stroke="#6d725c" /></g><g id="2F09" stroke="red"><polyline fill="#FFFFFF" points="482,255 482,223 513,218 513,255" stroke="#6d725c" /></g><g id="2F10" stroke="red"><polyline fill="#FFFFFF" points="529,276 529,244 557,244 557,276" stroke="#6d725c" /></g><g id="2F11" stroke="red"><polyline fill="#FFFFFF" points="482,288 482,255 513,255 513,288" stroke="#6d725c" /></g><g id="2F12" stroke="red"><polyline fill="#FFFFFF" points="529,309 529,276 557,276 557,309" stroke="#6d725c" /></g><g id="2F13" stroke="red"><polyline fill="#FFFFFF" points="482,321 482,291 482,288 513,288 513,321" stroke="#6d725c" /></g><g id="2F14" stroke="red"><polyline fill="#FFFFFF" points="529,346 529,309 557,309 557,342" stroke="#6d725c" /></g><g id="2F15" stroke="red"><polyline fill="#FFFFFF" points="482,327 482,321 513,321 513,349 482,353" stroke="#6d725c" /></g><g id="2F16" stroke="red"><polyline fill="#FFFFFF" points="566,377 529,377 529,362 585,353 585,377" stroke="#6d725c" /></g><g id="2F17" stroke="red"><polyline fill="#FFFFFF" points="482,404 482,369 513,364 513,404" stroke="#6d725c" /></g><g id="2F18" stroke="red"><polyline fill="#FFFFFF" points="529,405 529,377 566,377 566,405" stroke="#6d725c" /></g><g id="2F19" stroke="red"><polyline fill="#FFFFFF" points="482,438 482,404 513,404 513,438" stroke="#6d725c" /></g><g id="2F20" stroke="red"><polyline fill="#FFFFFF" points="566,405 566,432 529,432 529,405" stroke="#6d725c" /></g><g id="2F21" stroke="red"><polyline fill="#FFFFFF" points="482,473 482,438 513,438 513,473" stroke="#6d725c" /></g><g id="2F22" stroke="red"><polyline fill="#FFFFFF" points="529,482 529,450 566,450 566,482" stroke="#6d725c" /></g><g id="2F23" stroke="red"><polyline fill="#FFFFFF" points="482,473 513,473 513,507 482,507" stroke="#6d725c" /></g><g id="2F24" stroke="red"><polyline fill="#FFFFFF" points="566,507 529,507 529,482 566,482 567,482 567,507" stroke="#6d725c" /></g><g id="2F25" stroke="red"><polyline fill="#FFFFFF" points="512,552 512,526 554,526 554,552" stroke="#6d725c" /></g><g id="2F26" stroke="red"><polyline fill="#FFFFFF" points="567,482 605,482 605,507 567,507" stroke="#6d725c" /></g><g id="2F27A" stroke="red"><polyline fill="#FFFFFF" points="554,552 554,526 576,526 576,552" stroke="#6d725c" /></g><g id="2F27B" stroke="red"><polyline fill="#FFFFFF" points="576,526 597,526 597,552 576,552" stroke="#6d725c" /></g><g id="2F28" stroke="red"><polyline fill="#FFFFFF" points="618,507 618,482 686,482 686,507" stroke="#6d725c" /></g><g id="2G05" stroke="red"><polyline fill="#FFFFFF" points="557,244 557,211 584,207 584,244" stroke="#6d725c" /></g><g id="2G06" stroke="red"><polyline fill="#FFFFFF" points="600,249 600,204 620,204 620,249" stroke="#6d725c" /></g><g id="2G07" stroke="red"><polyline fill="#FFFFFF" points="557,276 557,244 584,244 584,276" stroke="#6d725c" /></g><g id="2G08" stroke="red"><polyline fill="#FFFFFF" points="600,293 600,249 620,249 621,249 621,293" stroke="#6d725c" /></g><g id="2G09" stroke="red"><polyline fill="#FFFFFF" points="557,309 557,276 584,276 584,309" stroke="#6d725c" /></g><g id="2G10" stroke="red"><polyline fill="#FFFFFF" points="621,293 621,337 619,337 600,337 600,293" stroke="#6d725c" /></g><g id="2G11" stroke="red"><polyline fill="#FFFFFF" points="557,309 584,309 584,337 557,342" stroke="#6d725c" /></g><g id="2G12" stroke="red"><polyline fill="#FFFFFF" points="585,377 585,353 619,353 619,377" stroke="#6d725c" /></g><g id="2G13" stroke="red"><polyline fill="#FFFFFF" points="619,377 619,353 653,353 653,377" stroke="#6d725c" /></g><g id="2G14" stroke="red"><polyline fill="#FFFFFF" points="686,377 653,377 653,353 686,353 686,358" stroke="#6d725c" /></g><g id="2H01" stroke="red"><polyline fill="#FFFFFF" points="585,188 585,162 626,162 626,188" stroke="#6d725c" /></g><g id="2H02" stroke="red"><polyline fill="#FFFFFF" points="626,188 626,162 668,162 668,188" stroke="#6d725c" /></g><g id="2H03" stroke="red"><polyline fill="#FFFFFF" points="668,188 668,162 701,162 701,171 721,171 721,188" stroke="#6d725c" /></g><g id="2I01" stroke="red"><polyline fill="#FFFFFF" points="666,234 666,204 709,204 709,234" stroke="#6d725c" /></g><g id="2I02A" stroke="red"><polyline fill="#FFFFFF" points="740,211 740,188 740,182 763,182 763,211" stroke="#6d725c" /></g><g id="2I02B" stroke="red"><polyline fill="#FFFFFF" points="763,211 763,240 740,240 740,211" stroke="#6d725c" /></g><g id="2I03" stroke="red"><polyline fill="#FFFFFF" points="666,265 666,234 709,234 709,265" stroke="#6d725c" /></g><g id="2I04" stroke="red"><polyline fill="#FFFFFF" points="740,295 740,256 763,256 763,272 799,272 799,295" stroke="#6d725c" /></g><g id="2I05" stroke="red"><polyline fill="#FFFFFF" points="666,301 666,265 709,265 709,301" stroke="#6d725c" /></g><g id="2I07" stroke="red"><polyline fill="#FFFFFF" points="709,301 709,337 666,337 666,301" stroke="#6d725c" /></g><g id="2I08" stroke="red"><polyline fill="#FFFFFF" points="725,328 725,295 740,295 799,295 799,328" stroke="#6d725c" /></g><g id="2I10" stroke="red"><polyline fill="#FFFFFF" points="725,382 725,328 799,328 799,382" stroke="#6d725c" /></g><g id="2I12" stroke="red"><polyline fill="#FFFFFF" points="725,409 725,382 799,382 799,409" stroke="#6d725c" /></g><g id="2I14" stroke="red"><polyline fill="#FFFFFF" points="725,437 725,409 799,409 799,437" stroke="#6d725c" /></g><g id="2I16" stroke="red"><polyline fill="#FFFFFF" points="725,464 725,437 799,437 799,464" stroke="#6d725c" /></g><g id="2I18" stroke="red"><polyline fill="#FFFFFF" points="725,492 725,492 725,464 799,464 799,492 799,492" stroke="#6d725c" /></g><g id="2I20" stroke="red"><polyline fill="#FFFFFF" points="725,519 725,492 799,492 799,519" stroke="#6d725c" /></g><g id="2I22" stroke="red"><polyline fill="#FFFFFF" points="725,519 799,519 799,519 799,534 799,536 799,537 799,538 799,540 799,541 798,543 798,544 798,546 798,547 797,548 725,548" stroke="#6d725c" /></g><g id="2I24" stroke="red"><polyline fill="#FFFFFF" points="725,604 705,604 705,548 725,548" stroke="#6d725c" /></g><g id="2Y01" stroke="red"><polyline fill="#FFFFFF" points="740,182 740,188 721,188 721,171 701,171 701,162 701,72 628,72 628,43 730,43 730,49 758,49 758,43 790,43 790,52 799,52 799,182 763,182" stroke="#6d725c" /></g></svg>