<?xml version="1.0" encoding="utf-8" ?>
<svg baseProfile="full" height="593" version="1.1" width="800" xmlns="http://www.w3.org/2000/svg" xmlns:ev="http://www.w3.org/2001/xml-events" xmlns:xlink="http://www.w3.org/1999/xlink"><defs /><g id="5A01A-1" stroke="red"><polyline fill="#FFFFFF" points="479,89 479,18 496,18 496,89" stroke="#6d725c" /></g><g id="5A01A-2" stroke="red"><polyline fill="#FFFFFF" points="496,89 496,18 513,18 513,89" stroke="#6d725c" /></g><g id="5A01A-3" stroke="red"><polyline fill="#FFFFFF" points="513,89 513,18 530,18 530,89" stroke="#6d725c" /></g><g id="5A01B" stroke="red"><polyline fill="#FFFFFF" points="530,18 542,18 542,52 589,52 589,81 589,82 588,84 588,85 587,86 587,87 586,88 585,88 583,89 582,89 581,89 530,89" stroke="#6d725c" /></g><g id="5A02A" stroke="red"><polyline fill="#FFFFFF" points="605,89 605,52 613,52 613,14 628,14 628,89" stroke="#6d725c" /></g><g id="5A02B" stroke="red"><polyline fill="#FFFFFF" points="628,89 628,14 648,14 648,89" stroke="#6d725c" /></g><g id="5A02C" stroke="red"><polyline fill="#FFFFFF" points="648,89 648,14 684,14 684,89" stroke="#6d725c" /></g><g id="5A03" stroke="red"><polyline fill="#FFFFFF" points="492,164 490,164 488,163 486,163 484,162 483,160 481,159 480,157 480,155 479,153 479,151 479,107 538,107 538,164" stroke="#6d725c" /></g><g id="5A04" stroke="red"><polyline fill="#FFFFFF" points="572,164 570,164 568,164 566,163 565,162 563,160 562,159 561,157 560,155 559,153 559,151 559,120 559,118 560,116 561,114 562,113 563,111 565,110 566,109 568,108 570,108 572,107 633,107 633,164" stroke="#6d725c" /></g><g id="5A05A" stroke="red"><polyline fill="#FFFFFF" points="479,229 479,196 479,195 479,194 479,193 480,192 480,192 481,191 482,191 483,191 483,190 484,190 533,190 534,190 535,191 535,191 536,191 537,192 537,192 538,193 538,194 538,195 538,196 538,229" stroke="#6d725c" /></g><g id="5A05B" stroke="red"><polyline fill="#FFFFFF" points="538,229 538,311 484,311 483,311 483,310 482,310 481,310 480,309 480,308 479,308 479,307 479,306 479,305 479,229" stroke="#6d725c" /></g><g id="5A06A" stroke="red"><polyline fill="#FFFFFF" points="558,242 558,196 558,195 559,194 559,193 559,192 560,192 560,191 561,191 562,191 563,190 564,190 605,190 605,229 605,242 605,242" stroke="#6d725c" /></g><g id="5A06B" stroke="red"><polyline fill="#FFFFFF" points="605,242 605,311 564,311 563,311 562,310 561,310 560,310 560,309 559,308 559,308 559,307 558,306 558,305 558,242" stroke="#6d725c" /></g><g id="5B01A" stroke="red"><polyline fill="#FFFFFF" points="684,89 684,14 698,14 698,89" stroke="#6d725c" /></g><g id="5B01B" stroke="red"><polyline fill="#FFFFFF" points="698,89 698,14 713,14 713,89" stroke="#6d725c" /></g><g id="5B01C" stroke="red"><polyline fill="#FFFFFF" points="727,89 713,89 713,14 727,14 727,52" stroke="#6d725c" /></g><g id="5B01D-1" stroke="red"><polyline fill="#FFFFFF" points="727,89 727,52 771,52 771,89" stroke="#6d725c" /></g><g id="5B01D-2" stroke="red"><polyline fill="#FFFFFF" points="771,52 727,52 727,14 786,14 786,89 771,89" stroke="#6d725c" /></g><g id="5B02A" stroke="red"><polyline fill="#FFFFFF" points="727,133 727,107 786,107 786,133" stroke="#6d725c" /></g><g id="5B02B" stroke="red"><polyline fill="#FFFFFF" points="786,133 786,156 747,156 747,164 735,164 734,164 733,164 732,163 731,163 730,162 729,161 728,160 728,159 727,158 727,156 727,133" stroke="#6d725c" /></g><g id="5B03" stroke="red"><polyline fill="#FFFFFF" points="633,107 693,107 695,108 697,108 699,109 701,110 703,111 704,113 705,114 706,116 706,118 706,120 706,151 706,153 706,155 705,157 704,159 703,160 701,162 699,163 697,164 695,164 693,164 633,164" stroke="#6d725c" /></g><g id="5T01" stroke="red"><polyline fill="#FFFFFF" points="420,332 420,279 454,279 454,332" stroke="#6d725c" /></g><g id="5W01" stroke="red"><polyline fill="#FFFFFF" points="360,272 360,256 369,256 369,272" stroke="#6d725c" /></g><g id="5W02" stroke="red"><polyline fill="#FFFFFF" points="360,250 360,233 369,233 369,250" stroke="#6d725c" /></g><g id="5W03" stroke="red"><polyline fill="#FFFFFF" points="372,339 372,346 368,346 361,346 361,346 361,331 372,331 372,334 367,337 367,338 368,338 368,338 369,339 369,339 369,338 370,338 370,338 370,337 370,337 370,336 370,336 370,336 370,335 369,335 369,335 368,335 368,336 367,336 367,336 367,336 367,336 367,336 367,336 367,336 367,336 367,336 367,336 367,336 367,335 367,335 367,335 367,335 367,336 367,336 367,336 366,337 366,337 367,338 367,338 367,338 367,339 367,338 367,338 367,338 367,338 367,338 367,338 367,338 367,338 367,338 367,338 367,337" stroke="#6d725c" /></g><g id="5W04" stroke="red"><polyline fill="#FFFFFF" points="225,344 225,305 243,305 243,344" stroke="#6d725c" /></g><g id="5W05" stroke="red"><polyline fill="#FFFFFF" points="328,165 328,171 325,171 318,171 318,171 318,156 328,156 328,160 324,163 324,163 325,164 325,164 325,164 326,164 326,164 327,164 327,163 327,163 327,162 327,162 327,161 327,161 326,161 326,161 326,161 325,161 325,161 324,161 324,162 324,162 324,162 324,162 324,161 324,161 324,161 324,161 324,161 324,161 324,161 324,161 324,161 324,161 324,161 324,162 323,162 323,162 323,163 324,163 324,163 324,164 324,164 324,164 324,164 324,164 324,164 324,163 324,163 324,163 324,163 324,163 324,163 324,163" stroke="#6d725c" /></g><g id="5X01" stroke="red"><polyline fill="#FFFFFF" points="241,106 241,52 285,52 285,53 285,106" stroke="#6d725c" /></g><g id="5X02" stroke="red"><polyline fill="#FFFFFF" points="285,106 285,53 285,52 329,52 329,106" stroke="#6d725c" /></g><g id="5X03" stroke="red"><polyline fill="#FFFFFF" points="329,106 329,52 373,52 373,53 373,106" stroke="#6d725c" /></g><g id="5X04" stroke="red"><polyline fill="#FFFFFF" points="373,106 373,53 373,52 417,52 417,53 417,106" stroke="#6d725c" /></g><g id="5X05" stroke="red"><polyline fill="#FFFFFF" points="417,53 417,52 460,52 460,106 417,106" stroke="#6d725c" /></g><g id="5X06" stroke="red"><polyline fill="#FFFFFF" points="412,492 412,448 412,430 460,430 460,493 412,493" stroke="#6d725c" /></g><g id="5X07" stroke="red"><polyline fill="#FFFFFF" points="363,493 363,492 363,430 412,430 412,448 412,492 412,493" stroke="#6d725c" /></g><g id="5X08" stroke="red"><polyline fill="#FFFFFF" points="313,493 313,492 313,430 363,430 363,492 363,493" stroke="#6d725c" /></g><g id="5X09" stroke="red"><polyline fill="#FFFFFF" points="263,493 263,430 313,430 313,492 313,493" stroke="#6d725c" /></g><g id="5X10" stroke="red"><polyline fill="#FFFFFF" points="225,305 195,305 195,268 243,268 243,305" stroke="#6d725c" /></g><g id="5X11" stroke="red"><polyline fill="#FFFFFF" points="195,268 195,230 243,230 243,268" stroke="#6d725c" /></g><g id="5X12" stroke="red"><polyline fill="#FFFFFF" points="195,230 195,181 243,181 243,230" stroke="#6d725c" /></g><g id="5Y03" stroke="red"><polyline fill="#FFFFFF" points="782,311 782,318 777,318 777,506 779,506 779,510 778,517 777,524 775,529 773,534 771,539 768,543 765,548 763,550 760,553 759,554 755,558 750,561 745,564 740,567 736,568 732,570 728,571 722,572 718,572 713,573 713,576 688,576 688,524 623,524 623,508 479,508 479,344 479,341 480,338 481,336 482,333 484,331 486,330 488,328 491,327 494,326 496,326 538,326 538,427 550,427 550,455 599,455 670,455 670,427 682,427 682,311" stroke="#6d725c" /></g><g id="5Z01" stroke="red"><polyline fill="#FFFFFF" points="161,52 166,52 168,52 168,68 225,68 225,109 225,112 224,114 223,117 222,119 220,121 218,123 216,124 213,125 210,126 208,126 116,126 115,126 114,126 113,126 112,126 111,126 110,126 110,125 109,125 108,125 107,124 68,98 68,98 68,98 68,98 67,98 67,98 67,97 66,97 66,97 66,97 66,97 38,97 38,83 38,20 41,20 41,18 91,18 91,20 96,20 96,18 161,18" stroke="#6d725c" /></g><g id="5Z02" stroke="red"><polyline fill="#FFFFFF" points="225,305 225,344 243,344 243,455 181,455 181,344 195,344 195,305 195,305" stroke="#6d725c" /></g><g id="5Z03" stroke="red"><polyline fill="#FFFFFF" points="550,351 550,326 670,326 670,351" stroke="#6d725c" /></g><g id="5Z04" stroke="red"><polyline fill="#FFFFFF" points="782,311 682,311 682,310 682,191 747,191 747,246 782,246 782,310 782,310" stroke="#6d725c" /></g></svg>