<?xml version="1.0" encoding="utf-8" ?>
<svg baseProfile="full" height="625" version="1.1" width="800" xmlns="http://www.w3.org/2000/svg" xmlns:ev="http://www.w3.org/2001/xml-events" xmlns:xlink="http://www.w3.org/1999/xlink"><defs /><g id="1A01" stroke="red"><polyline fill="#FFFFFF" points="58,254 58,232 54,232 54,198 42,198 42,177 61,177 61,121 42,121 42,44 96,44 96,59 98,59 98,254" stroke="#6d725c" /></g><g id="1A02" stroke="red"><polyline fill="#FFFFFF" points="232,89 232,105 218,105 125,105 125,105 125,41 159,41 159,78 218,78 218,89 225,89 226,89" stroke="#6d725c" /></g><g id="1A04" stroke="red"><polyline fill="#FFFFFF" points="218,105 232,105 232,161 130,161 129,161 128,161 128,160 127,160 126,159 126,159 125,158 125,157 125,157 125,156 125,105" stroke="#6d725c" /></g><g id="1A06" stroke="red"><polyline fill="#FFFFFF" points="116,205 116,188 116,186 116,185 117,183 118,181 119,180 121,178 122,177 124,177 126,176 128,176 168,176 168,205" stroke="#6d725c" /></g><g id="1A08" stroke="red"><polyline fill="#FFFFFF" points="168,205 168,222 168,224 168,226 167,228 166,229 165,231 163,232 161,233 160,234 158,234 156,235 121,235 120,234 119,234 118,234 118,234 117,233 117,232 116,232 116,231 116,230 116,230 116,205" stroke="#6d725c" /></g><g id="1A09" stroke="red"><polyline fill="#FFFFFF" points="58,296 58,254 98,254 98,296" stroke="#6d725c" /></g><g id="1A10" stroke="red"><polyline fill="#FFFFFF" points="116,283 116,283 116,252 116,251 116,251 116,250 117,249 117,249 118,248 118,248 119,247 120,247 121,247 168,247 168,283" stroke="#6d725c" /></g><g id="1A11" stroke="red"><polyline fill="#FFFFFF" points="42,337 42,322 58,322 58,296 98,296 98,337" stroke="#6d725c" /></g><g id="1A12" stroke="red"><polyline fill="#FFFFFF" points="151,318 116,318 116,283 168,283 168,283 168,318" stroke="#6d725c" /></g><g id="1A13" stroke="red"><polyline fill="#FFFFFF" points="98,337 98,373 57,373 57,367 42,367 42,337" stroke="#6d725c" /></g><g id="1A14" stroke="red"><polyline fill="#FFFFFF" points="121,373 120,373 119,373 118,372 118,372 117,371 117,371 116,370 116,369 116,369 116,368 116,318 116,318 151,318 151,373" stroke="#6d725c" /></g><g id="1A15" stroke="red"><polyline fill="#FFFFFF" points="42,429 42,393 57,393 57,388 98,388 98,429" stroke="#6d725c" /></g><g id="1A16" stroke="red"><polyline fill="#FFFFFF" points="116,427 116,393 116,392 116,391 116,391 117,390 117,389 118,389 118,388 119,388 120,388 121,388 151,388 151,427" stroke="#6d725c" /></g><g id="1A17" stroke="red"><polyline fill="#FFFFFF" points="42,471 42,471 42,429 42,429 98,429 98,471" stroke="#6d725c" /></g><g id="1A18" stroke="red"><polyline fill="#FFFFFF" points="121,467 120,467 119,466 118,466 118,466 117,465 117,465 116,464 116,463 116,462 116,462 116,427 151,427 151,467" stroke="#6d725c" /></g><g id="1A19" stroke="red"><polyline fill="#FFFFFF" points="113,531 42,531 42,471 98,471 98,471 98,484 113,484" stroke="#6d725c" /></g><g id="1A20" stroke="red"><polyline fill="#FFFFFF" points="164,569 133,569 133,581 118,581 118,531 113,531 113,484 164,484 164,531" stroke="#6d725c" /></g><g id="1B06" stroke="red"><polyline fill="#FFFFFF" points="186,205 186,188 186,186 186,185 187,183 188,181 189,180 191,178 193,177 194,177 196,176 198,176 238,176 238,205" stroke="#6d725c" /></g><g id="1B08" stroke="red"><polyline fill="#FFFFFF" points="238,205 238,230 238,230 238,231 238,232 238,232 237,233 236,234 236,234 235,234 234,234 233,235 198,235 196,234 194,234 193,233 191,232 189,231 188,229 187,228 186,226 186,224 186,222 186,205" stroke="#6d725c" /></g><g id="1B10" stroke="red"><polyline fill="#FFFFFF" points="204,289 186,289 186,252 186,251 186,251 186,250 187,249 187,249 188,248 188,248 189,247 190,247 191,247 239,247 239,289" stroke="#6d725c" /></g><g id="1B12" stroke="red"><polyline fill="#FFFFFF" points="204,324 204,289 239,289 239,324" stroke="#6d725c" /></g><g id="1B13" stroke="red"><polyline fill="#FFFFFF" points="151,318 168,318 187,318 187,368 187,369 187,369 186,370 186,371 185,371 185,372 184,372 183,373 183,373 182,373 151,373" stroke="#6d725c" /></g><g id="1B14" stroke="red"><polyline fill="#FFFFFF" points="239,324 239,368 239,369 238,369 238,370 238,371 237,371 237,372 236,372 235,373 234,373 234,373 209,373 208,373 207,373 206,372 206,372 205,371 205,371 204,370 204,369 204,369 204,368 204,324" stroke="#6d725c" /></g><g id="1B15" stroke="red"><polyline fill="#FFFFFF" points="151,427 151,388 181,388 182,388 182,388 183,388 184,389 184,389 185,390 185,391 186,391 186,392 186,393 186,427" stroke="#6d725c" /></g><g id="1B16" stroke="red"><polyline fill="#FFFFFF" points="201,427 201,393 201,392 201,391 202,391 202,390 202,389 203,389 204,388 204,388 205,388 206,388 239,388 239,427" stroke="#6d725c" /></g><g id="1B17" stroke="red"><polyline fill="#FFFFFF" points="151,427 186,427 186,462 186,462 186,463 185,464 185,465 184,465 184,466 183,466 182,466 182,467 181,467 151,467" stroke="#6d725c" /></g><g id="1B18" stroke="red"><polyline fill="#FFFFFF" points="239,427 239,467 206,467 205,467 204,466 204,466 203,466 202,465 202,465 202,464 201,463 201,462 201,462 201,427" stroke="#6d725c" /></g><g id="1B19" stroke="red"><polyline fill="#FFFFFF" points="164,484 207,484 208,484 208,485 209,485 210,485 210,486 211,486 211,487 212,488 212,489 212,489 212,514 212,531 164,531" stroke="#6d725c" /></g><g id="1B20" stroke="red"><polyline fill="#FFFFFF" points="233,512 233,489 233,489 233,488 233,487 234,486 234,486 235,485 236,485 236,485 237,484 238,484 303,484 303,512" stroke="#6d725c" /></g><g id="1C01" stroke="red"><polyline fill="#FFFFFF" points="308,161 232,161 232,89 232,89 226,89 226,44 238,44 238,41 308,41 308,113" stroke="#6d725c" /></g><g id="1C06" stroke="red"><polyline fill="#FFFFFF" points="254,205 254,181 254,180 254,179 254,179 255,178 255,177 256,177 257,176 257,176 258,176 259,176 317,176 317,205" stroke="#6d725c" /></g><g id="1C08" stroke="red"><polyline fill="#FFFFFF" points="259,235 258,234 257,234 257,234 256,234 255,233 255,232 254,232 254,231 254,230 254,230 254,205 317,205 317,235" stroke="#6d725c" /></g><g id="1C10" stroke="red"><polyline fill="#FFFFFF" points="254,310 254,252 254,251 254,251 254,250 255,249 255,249 256,248 257,248 257,247 258,247 259,247 317,247 317,310" stroke="#6d725c" /></g><g id="1C14" stroke="red"><polyline fill="#FFFFFF" points="259,373 258,373 257,373 257,372 256,372 255,371 255,371 254,370 254,369 254,369 254,368 254,310 317,310 317,373" stroke="#6d725c" /></g><g id="1C16" stroke="red"><polyline fill="#FFFFFF" points="254,424 254,424 254,393 254,392 254,391 254,391 255,390 255,389 256,389 257,388 257,388 258,388 259,388 317,388 317,424" stroke="#6d725c" /></g><g id="1C18" stroke="red"><polyline fill="#FFFFFF" points="259,467 258,467 257,466 257,466 256,466 255,465 255,465 254,464 254,463 254,462 254,462 254,424 317,424 317,467" stroke="#6d725c" /></g><g id="1C20" stroke="red"><polyline fill="#FFFFFF" points="307,581 307,531 303,531 303,512 303,484 340,484 340,581" stroke="#6d725c" /></g><g id="1D01" stroke="red"><polyline fill="#FFFFFF" points="308,113 308,41 353,41 353,44 375,44 375,65 380,65 380,113" stroke="#6d725c" /></g><g id="1D03" stroke="red"><polyline fill="#FFFFFF" points="308,113 380,113 380,140 379,143 379,146 377,149 376,152 373,155 371,157 368,159 365,160 362,161 359,161 308,161" stroke="#6d725c" /></g><g id="1D05" stroke="red"><polyline fill="#FFFFFF" points="317,205 317,176 380,176 380,205" stroke="#6d725c" /></g><g id="1D06" stroke="red"><polyline fill="#FFFFFF" points="395,205 395,181 395,180 395,179 395,179 396,178 396,177 397,177 397,176 398,176 399,176 400,176 421,176 422,176 423,176 424,176 424,177 425,177 425,178 426,179 426,179 426,180 426,181 426,205" stroke="#6d725c" /></g><g id="1D07" stroke="red"><polyline fill="#FFFFFF" points="317,205 380,205 380,230 379,230 379,231 379,232 379,232 378,233 377,234 377,234 376,234 375,234 374,235 317,235" stroke="#6d725c" /></g><g id="1D08" stroke="red"><polyline fill="#FFFFFF" points="426,205 426,230 426,230 426,231 426,232 425,232 425,233 424,234 424,234 423,234 422,234 421,235 400,235 399,234 398,234 397,234 397,234 396,233 396,232 395,232 395,231 395,230 395,230 395,205" stroke="#6d725c" /></g><g id="1D09" stroke="red"><polyline fill="#FFFFFF" points="317,310 317,247 380,247 380,310" stroke="#6d725c" /></g><g id="1D10" stroke="red"><polyline fill="#FFFFFF" points="395,310 395,252 395,251 395,251 395,250 396,249 396,249 397,248 397,248 398,247 399,247 400,247 421,247 422,247 423,247 424,248 424,248 425,249 425,249 426,250 426,251 426,251 426,252 426,310" stroke="#6d725c" /></g><g id="1D12" stroke="red"><polyline fill="#FFFFFF" points="426,310 426,368 426,369 426,369 426,370 425,371 425,371 424,372 424,372 423,373 422,373 421,373 400,373 399,373 398,373 397,372 397,372 396,371 396,371 395,370 395,369 395,369 395,368 395,310" stroke="#6d725c" /></g><g id="1D13" stroke="red"><polyline fill="#FFFFFF" points="317,310 380,310 380,368 379,369 379,369 379,370 379,371 378,371 377,372 377,372 376,373 375,373 374,373 317,373" stroke="#6d725c" /></g><g id="1D15" stroke="red"><polyline fill="#FFFFFF" points="317,424 317,388 380,388 380,424" stroke="#6d725c" /></g><g id="1D16" stroke="red"><polyline fill="#FFFFFF" points="395,427 395,393 395,392 395,391 395,391 396,390 396,389 397,389 397,388 398,388 399,388 400,388 421,388 422,388 423,388 424,388 424,389 425,389 425,390 426,391 426,391 426,392 426,393 426,427" stroke="#6d725c" /></g><g id="1D17" stroke="red"><polyline fill="#FFFFFF" points="317,424 380,424 380,424 380,467 317,467" stroke="#6d725c" /></g><g id="1D18" stroke="red"><polyline fill="#FFFFFF" points="426,427 426,462 426,462 426,463 426,464 425,465 425,465 424,466 424,466 423,466 422,467 421,467 400,467 399,467 398,466 397,466 397,466 396,465 396,465 395,464 395,463 395,462 395,462 395,427" stroke="#6d725c" /></g><g id="1D19" stroke="red"><polyline fill="#FFFFFF" points="340,484 377,484 377,530 375,530 375,581 340,581" stroke="#6d725c" /></g><g id="1D20" stroke="red"><polyline fill="#FFFFFF" points="430,581 377,581 377,535 379,535 379,514 379,484 416,484 416,536 430,536" stroke="#6d725c" /></g><g id="1E02" stroke="red"><polyline fill="#FFFFFF" points="443,113 443,65 447,65 447,41 498,41 498,58 511,58 511,78 519,78 519,93 519,100 519,113" stroke="#6d725c" /></g><g id="1E04" stroke="red"><polyline fill="#FFFFFF" points="519,113 519,156 519,157 519,157 519,158 519,159 518,159 517,160 517,160 516,161 515,161 514,161 464,161 461,161 458,160 455,159 452,157 449,155 447,152 445,149 444,146 443,143 443,140 443,113" stroke="#6d725c" /></g><g id="1E06" stroke="red"><polyline fill="#FFFFFF" points="442,205 442,176 482,176 482,205" stroke="#6d725c" /></g><g id="1E08" stroke="red"><polyline fill="#FFFFFF" points="447,235 446,234 445,234 444,234 444,234 443,233 442,232 442,232 442,231 442,230 442,230 442,205 482,205 482,235" stroke="#6d725c" /></g><g id="1E10" stroke="red"><polyline fill="#FFFFFF" points="442,304 442,247 482,247 482,304" stroke="#6d725c" /></g><g id="1E14" stroke="red"><polyline fill="#FFFFFF" points="447,369 446,368 445,368 444,368 444,368 443,367 442,366 442,366 442,365 442,364 442,363 442,304 482,304 482,356" stroke="#6d725c" /></g><g id="1E16" stroke="red"><polyline fill="#FFFFFF" points="534,413 534,464 512,464 512,467 442,467 442,386 498,367 534,357 534,364" stroke="#6d725c" /></g><g id="1E20" stroke="red"><polyline fill="#FFFFFF" points="430,536 416,536 416,484 443,484 443,536" stroke="#6d725c" /></g><g id="1F04" stroke="red"><polyline fill="#FFFFFF" points="535,161 535,78 594,78 594,41 626,41 626,140 625,143 625,146 623,149 622,152 620,155 617,157 614,159 611,160 608,161 605,161 597,161 574,161" stroke="#6d725c" /></g><g id="1F05" stroke="red"><polyline fill="#FFFFFF" points="482,205 482,176 522,176 522,205" stroke="#6d725c" /></g><g id="1F06" stroke="red"><polyline fill="#FFFFFF" points="537,203 537,181 537,180 537,179 538,179 538,178 539,177 539,177 540,176 541,176 541,176 542,176 593,176 593,203" stroke="#6d725c" /></g><g id="1F07" stroke="red"><polyline fill="#FFFFFF" points="482,205 522,205 522,230 522,230 522,231 521,232 521,232 521,233 520,234 519,234 519,234 518,234 517,235 482,235" stroke="#6d725c" /></g><g id="1F08" stroke="red"><polyline fill="#FFFFFF" points="537,230 537,203 593,203 593,230" stroke="#6d725c" /></g><g id="1F09" stroke="red"><polyline fill="#FFFFFF" points="482,304 482,247 522,247 522,304" stroke="#6d725c" /></g><g id="1F10" stroke="red"><polyline fill="#FFFFFF" points="537,257 537,230 593,230 593,257 586,257" stroke="#6d725c" /></g><g id="1F12" stroke="red"><polyline fill="#FFFFFF" points="537,295 537,257 586,257 586,295" stroke="#6d725c" /></g><g id="1F13" stroke="red"><polyline fill="#FFFFFF" points="482,304 522,304 522,339 522,339 522,340 522,341 521,341 521,342 521,342 520,343 520,343 519,343 519,343 482,356" stroke="#6d725c" /></g><g id="1F14" stroke="red"><polyline fill="#FFFFFF" points="586,295 586,326 543,337 542,337 542,337 541,337 540,336 539,336 538,335 538,335 537,334 537,333 537,332 537,295" stroke="#6d725c" /></g><g id="1F19" stroke="red"><polyline fill="#FFFFFF" points="443,484 489,484 490,484 491,485 492,485 492,485 493,486 493,486 494,487 494,488 494,489 494,489 494,514 494,531 458,531 458,536 443,536" stroke="#6d725c" /></g><g id="1F20" stroke="red"><polyline fill="#FFFFFF" points="534,464 561,464 561,511 517,511 516,511 515,510 515,510 514,510 513,509 513,509 512,508 512,507 512,506 512,506 512,464" stroke="#6d725c" /></g><g id="1F22" stroke="red"><polyline fill="#FFFFFF" points="588,511 588,464 618,464 618,511" stroke="#6d725c" /></g><g id="1F24" stroke="red"><polyline fill="#FFFFFF" points="618,464 644,464 644,511 618,511" stroke="#6d725c" /></g><g id="1G04A" stroke="red"><polyline fill="#FFFFFF" points="693,251 683,251 643,251 643,251 643,41 693,41 693,59" stroke="#6d725c" /></g><g id="1G04B" stroke="red"><polyline fill="#FFFFFF" points="683,385 666,385 666,364 643,364 643,343 643,251 683,251" stroke="#6d725c" /></g><g id="1G04C" stroke="red"><polyline fill="#FFFFFF" points="722,263 722,385 683,385 683,251 693,251 722,251" stroke="#6d725c" /></g><g id="1G04D" stroke="red"><polyline fill="#FFFFFF" points="722,263 757,263 757,385 722,385" stroke="#6d725c" /></g><g id="1G12" stroke="red"><polyline fill="#FFFFFF" points="534,364 534,357 588,343 588,364" stroke="#6d725c" /></g><g id="1G13" stroke="red"><polyline fill="#FFFFFF" points="588,364 588,343 630,343 643,343 643,364" stroke="#6d725c" /></g><g id="1Y01" stroke="red"><polyline fill="#FFFFFF" points="693,251 693,59 695,59 695,44 757,44 757,178 722,178 722,251" stroke="#6d725c" /></g></svg>