<?xml version="1.0" encoding="utf-8" ?>
<svg baseProfile="full" height="597" version="1.1" width="800" xmlns="http://www.w3.org/2000/svg" xmlns:ev="http://www.w3.org/2001/xml-events" xmlns:xlink="http://www.w3.org/1999/xlink"><defs /><g id="3A01" stroke="red"><polyline fill="#FFFFFF" points="95,68 36,21 45,21 125,21 125,68" stroke="#6d725c" /></g><g id="3A02" stroke="red"><polyline fill="#FFFFFF" points="159,68 125,68 125,21 159,21 159,56" stroke="#6d725c" /></g><g id="3A03" stroke="red"><polyline fill="#FFFFFF" points="95,96 95,97 94,98 94,98 94,99 93,100 93,100 92,101 91,101 90,101 90,101 56,101 56,101 36,101 36,21 95,68" stroke="#6d725c" /></g><g id="3A06" stroke="red"><polyline fill="#FFFFFF" points="141,130 113,130 113,86 141,86 141,130" stroke="#6d725c" /></g><g id="3A08" stroke="red"><polyline fill="#FFFFFF" points="141,173 113,173 113,130 141,130 141,173" stroke="#6d725c" /></g><g id="3A09" stroke="red"><polyline fill="#FFFFFF" points="36,200 36,160 95,160 95,200" stroke="#6d725c" /></g><g id="3A10" stroke="red"><polyline fill="#FFFFFF" points="113,217 113,173 141,173 141,217" stroke="#6d725c" /></g><g id="3A11" stroke="red"><polyline fill="#FFFFFF" points="94,237 36,237 36,200 95,200 95,237" stroke="#6d725c" /></g><g id="3A12" stroke="red"><polyline fill="#FFFFFF" points="113,277 113,238 113,237 113,236 114,236 114,235 115,234 115,234 116,233 117,233 118,233 118,233 167,233 167,277" stroke="#6d725c" /></g><g id="3A13" stroke="red"><polyline fill="#FFFFFF" points="36,273 36,237 94,237 95,237 95,273" stroke="#6d725c" /></g><g id="3A14" stroke="red"><polyline fill="#FFFFFF" points="113,320 113,277 167,277 167,320" stroke="#6d725c" /></g><g id="3A15" stroke="red"><polyline fill="#FFFFFF" points="94,310 36,310 36,273 95,273 95,310" stroke="#6d725c" /></g><g id="3A16" stroke="red"><polyline fill="#FFFFFF" points="167,320 167,364 118,364 118,364 117,364 116,364 115,363 115,363 114,362 114,361 113,361 113,360 113,359 113,320" stroke="#6d725c" /></g><g id="3A17" stroke="red"><polyline fill="#FFFFFF" points="36,347 36,310 94,310 95,310 95,347" stroke="#6d725c" /></g><g id="3A19" stroke="red"><polyline fill="#FFFFFF" points="94,384 36,384 36,347 95,347 95,384" stroke="#6d725c" /></g><g id="3A21" stroke="red"><polyline fill="#FFFFFF" points="36,420 36,384 94,384 95,384 95,420" stroke="#6d725c" /></g><g id="3A22" stroke="red"><polyline fill="#FFFFFF" points="113,435 113,380 141,380 141,435" stroke="#6d725c" /></g><g id="3A23" stroke="red"><polyline fill="#FFFFFF" points="94,457 36,457 36,420 95,420 95,457" stroke="#6d725c" /></g><g id="3A24" stroke="red"><polyline fill="#FFFFFF" points="141,490 113,490 113,435 141,435 141,462" stroke="#6d725c" /></g><g id="3A25" stroke="red"><polyline fill="#FFFFFF" points="36,493 36,457 94,457 95,457 95,493" stroke="#6d725c" /></g><g id="3A26" stroke="red"><polyline fill="#FFFFFF" points="163,581 145,581 136,581 121,581 121,530 117,530 117,508 163,508 163,530" stroke="#6d725c" /></g><g id="3A27" stroke="red"><polyline fill="#FFFFFF" points="95,494 95,530 36,530 36,494" stroke="#6d725c" /></g><g id="3B02" stroke="red"><polyline fill="#FFFFFF" points="159,56 203,56 203,68 159,68" stroke="#6d725c" /></g><g id="3B03" stroke="red"><polyline fill="#FFFFFF" points="141,130 141,86 168,86 168,130" stroke="#6d725c" /></g><g id="3B04" stroke="red"><polyline fill="#FFFFFF" points="184,130 184,86 213,86 213,130" stroke="#6d725c" /></g><g id="3B05" stroke="red"><polyline fill="#FFFFFF" points="141,173 141,130 168,130 168,173" stroke="#6d725c" /></g><g id="3B06" stroke="red"><polyline fill="#FFFFFF" points="184,173 184,130 213,130 213,173" stroke="#6d725c" /></g><g id="3B07" stroke="red"><polyline fill="#FFFFFF" points="141,173 141,173 168,173 168,217 141,217" stroke="#6d725c" /></g><g id="3B08" stroke="red"><polyline fill="#FFFFFF" points="184,217 184,173 213,173 213,217" stroke="#6d725c" /></g><g id="3B09" stroke="red"><polyline fill="#FFFFFF" points="141,435 141,380 168,380 168,435" stroke="#6d725c" /></g><g id="3B10" stroke="red"><polyline fill="#FFFFFF" points="184,435 184,380 213,380 213,435" stroke="#6d725c" /></g><g id="3B11A" stroke="red"><polyline fill="#FFFFFF" points="141,462 141,435 168,435 168,462" stroke="#6d725c" /></g><g id="3B11B" stroke="red"><polyline fill="#FFFFFF" points="141,462 168,462 168,490 141,490" stroke="#6d725c" /></g><g id="3B12" stroke="red"><polyline fill="#FFFFFF" points="184,490 184,435 213,435 213,490" stroke="#6d725c" /></g><g id="3B16" stroke="red"><polyline fill="#FFFFFF" points="163,508 214,508 214,530 163,530" stroke="#6d725c" /></g><g id="3C01" stroke="red"><polyline fill="#FFFFFF" points="268,68 228,68 228,56 229,56 229,21 268,21" stroke="#6d725c" /></g><g id="3C02" stroke="red"><polyline fill="#FFFFFF" points="268,68 268,21 307,21 307,68" stroke="#6d725c" /></g><g id="3C03" stroke="red"><polyline fill="#FFFFFF" points="213,130 213,86 242,86 242,130" stroke="#6d725c" /></g><g id="3C04" stroke="red"><polyline fill="#FFFFFF" points="258,130 258,86 295,86 295,130" stroke="#6d725c" /></g><g id="3C05" stroke="red"><polyline fill="#FFFFFF" points="213,173 213,130 242,130 242,173" stroke="#6d725c" /></g><g id="3C06" stroke="red"><polyline fill="#FFFFFF" points="258,173 258,130 295,130 295,173" stroke="#6d725c" /></g><g id="3C07" stroke="red"><polyline fill="#FFFFFF" points="213,173 242,173 242,217 213,217" stroke="#6d725c" /></g><g id="3C08" stroke="red"><polyline fill="#FFFFFF" points="258,217 258,173 295,173 295,211" stroke="#6d725c" /></g><g id="3C09" stroke="red"><polyline fill="#FFFFFF" points="212,277 208,277 208,233 212,233 242,233 242,277" stroke="#6d725c" /></g><g id="3C10" stroke="red"><polyline fill="#FFFFFF" points="295,295 258,295 258,233 295,227 295,271" stroke="#6d725c" /></g><g id="3C11" stroke="red"><polyline fill="#FFFFFF" points="212,320 208,320 208,277 212,277 242,277 242,320" stroke="#6d725c" /></g><g id="3C12" stroke="red"><polyline fill="#FFFFFF" points="295,358 258,364 258,295 295,295 295,314" stroke="#6d725c" /></g><g id="3C13" stroke="red"><polyline fill="#FFFFFF" points="212,320 242,320 242,364 212,364 208,364 208,320" stroke="#6d725c" /></g><g id="3C15" stroke="red"><polyline fill="#FFFFFF" points="213,435 213,380 242,380 242,435" stroke="#6d725c" /></g><g id="3C16" stroke="red"><polyline fill="#FFFFFF" points="258,414 258,380 295,374 295,414" stroke="#6d725c" /></g><g id="3C17" stroke="red"><polyline fill="#FFFFFF" points="213,435 242,435 242,490 213,490" stroke="#6d725c" /></g><g id="3C18" stroke="red"><polyline fill="#FFFFFF" points="258,455 258,414 295,414 295,455" stroke="#6d725c" /></g><g id="3C20" stroke="red"><polyline fill="#FFFFFF" points="258,490 258,455 295,455 295,490" stroke="#6d725c" /></g><g id="3C22" stroke="red"><polyline fill="#FFFFFF" points="235,530 235,508 287,508 287,530" stroke="#6d725c" /></g><g id="3D01" stroke="red"><polyline fill="#FFFFFF" points="307,68 307,21 347,21 347,68 347,68" stroke="#6d725c" /></g><g id="3D02" stroke="red"><polyline fill="#FFFFFF" points="347,68 347,21 386,21 386,68 347,68" stroke="#6d725c" /></g><g id="3D03" stroke="red"><polyline fill="#FFFFFF" points="295,130 295,86 333,86 333,130" stroke="#6d725c" /></g><g id="3D04" stroke="red"><polyline fill="#FFFFFF" points="349,123 349,86 385,86 385,123" stroke="#6d725c" /></g><g id="3D05" stroke="red"><polyline fill="#FFFFFF" points="295,173 295,130 333,130 333,173" stroke="#6d725c" /></g><g id="3D06" stroke="red"><polyline fill="#FFFFFF" points="349,159 349,123 385,123 385,159" stroke="#6d725c" /></g><g id="3D07" stroke="red"><polyline fill="#FFFFFF" points="295,173 333,173 333,204 295,211" stroke="#6d725c" /></g><g id="3D08" stroke="red"><polyline fill="#FFFFFF" points="349,202 349,159 385,159 385,196" stroke="#6d725c" /></g><g id="3D09" stroke="red"><polyline fill="#FFFFFF" points="295,271 295,227 333,220 333,271" stroke="#6d725c" /></g><g id="3D10" stroke="red"><polyline fill="#FFFFFF" points="349,256 349,218 385,212 385,256" stroke="#6d725c" /></g><g id="3D11" stroke="red"><polyline fill="#FFFFFF" points="295,314 295,295 295,271 333,271 333,314" stroke="#6d725c" /></g><g id="3D12" stroke="red"><polyline fill="#FFFFFF" points="349,300 349,256 385,256 385,300" stroke="#6d725c" /></g><g id="3D13" stroke="red"><polyline fill="#FFFFFF" points="295,314 333,314 333,352 295,358" stroke="#6d725c" /></g><g id="3D14" stroke="red"><polyline fill="#FFFFFF" points="349,350 349,300 385,300 385,344" stroke="#6d725c" /></g><g id="3D15" stroke="red"><polyline fill="#FFFFFF" points="295,414 295,374 333,368 333,414" stroke="#6d725c" /></g><g id="3D16" stroke="red"><polyline fill="#FFFFFF" points="349,403 349,366 385,360 385,403" stroke="#6d725c" /></g><g id="3D17" stroke="red"><polyline fill="#FFFFFF" points="295,455 295,414 333,414 333,455" stroke="#6d725c" /></g><g id="3D18" stroke="red"><polyline fill="#FFFFFF" points="349,446 349,403 385,403 385,446" stroke="#6d725c" /></g><g id="3D19" stroke="red"><polyline fill="#FFFFFF" points="295,455 333,455 333,490 295,490" stroke="#6d725c" /></g><g id="3D20" stroke="red"><polyline fill="#FFFFFF" points="349,490 349,446 385,446 385,490" stroke="#6d725c" /></g><g id="3D21" stroke="red"><polyline fill="#FFFFFF" points="313,581 313,530 308,530 308,508 348,508 348,581" stroke="#6d725c" /></g><g id="3D22" stroke="red"><polyline fill="#FFFFFF" points="348,508 386,508 386,528 384,528 384,581 348,581" stroke="#6d725c" /></g><g id="3E01" stroke="red"><polyline fill="#FFFFFF" points="388,68 388,21 426,21 426,68" stroke="#6d725c" /></g><g id="3E02" stroke="red"><polyline fill="#FFFFFF" points="426,68 426,21 465,21 465,68" stroke="#6d725c" /></g><g id="3E03" stroke="red"><polyline fill="#FFFFFF" points="385,123 385,86 387,86 388,86 419,86 419,123" stroke="#6d725c" /></g><g id="3E04" stroke="red"><polyline fill="#FFFFFF" points="435,132 435,86 462,86 462,132" stroke="#6d725c" /></g><g id="3E05" stroke="red"><polyline fill="#FFFFFF" points="385,159 385,123 419,123 419,159" stroke="#6d725c" /></g><g id="3E06" stroke="red"><polyline fill="#FFFFFF" points="435,188 435,132 462,132 462,184" stroke="#6d725c" /></g><g id="3E07" stroke="red"><polyline fill="#FFFFFF" points="385,159 419,159 419,191 385,196" stroke="#6d725c" /></g><g id="3E08" stroke="red"><polyline fill="#FFFFFF" points="435,244 435,204 463,199 463,244" stroke="#6d725c" /></g><g id="3E09" stroke="red"><polyline fill="#FFFFFF" points="385,256 385,212 419,207 419,256" stroke="#6d725c" /></g><g id="3E10" stroke="red"><polyline fill="#FFFFFF" points="435,288 435,244 463,244 463,288" stroke="#6d725c" /></g><g id="3E11" stroke="red"><polyline fill="#FFFFFF" points="385,300 385,256 419,256 419,300" stroke="#6d725c" /></g><g id="3E12" stroke="red"><polyline fill="#FFFFFF" points="435,336 435,288 463,288 463,332" stroke="#6d725c" /></g><g id="3E13" stroke="red"><polyline fill="#FFFFFF" points="385,300 419,300 419,339 385,344" stroke="#6d725c" /></g><g id="3E14" stroke="red"><polyline fill="#FFFFFF" points="435,395 435,352 463,348 463,395" stroke="#6d725c" /></g><g id="3E15" stroke="red"><polyline fill="#FFFFFF" points="385,403 385,360 419,355 419,403" stroke="#6d725c" /></g><g id="3E16" stroke="red"><polyline fill="#FFFFFF" points="435,442 435,395 463,395 463,442" stroke="#6d725c" /></g><g id="3E17" stroke="red"><polyline fill="#FFFFFF" points="385,446 385,403 419,403 419,446" stroke="#6d725c" /></g><g id="3E18" stroke="red"><polyline fill="#FFFFFF" points="435,490 435,442 463,442 463,490" stroke="#6d725c" /></g><g id="3E19" stroke="red"><polyline fill="#FFFFFF" points="385,446 419,446 419,490 385,490" stroke="#6d725c" /></g><g id="3E20" stroke="red"><polyline fill="#FFFFFF" points="435,530 435,508 475,508 475,530 475,530" stroke="#6d725c" /></g><g id="3E21" stroke="red"><polyline fill="#FFFFFF" points="388,530 388,508 419,508 419,530" stroke="#6d725c" /></g><g id="3F01" stroke="red"><polyline fill="#FFFFFF" points="465,68 465,21 503,21 503,68" stroke="#6d725c" /></g><g id="3F02" stroke="red"><polyline fill="#FFFFFF" points="503,21 542,21 542,56 542,68 542,68 503,68" stroke="#6d725c" /></g><g id="3F03" stroke="red"><polyline fill="#FFFFFF" points="462,132 462,86 497,86 497,132" stroke="#6d725c" /></g><g id="3F04A" stroke="red"><polyline fill="#FFFFFF" points="513,126 513,86 561,86 561,126" stroke="#6d725c" /></g><g id="3F04B" stroke="red"><polyline fill="#FFFFFF" points="513,167 513,126 561,126 561,167" stroke="#6d725c" /></g><g id="3F05" stroke="red"><polyline fill="#FFFFFF" points="462,132 497,132 497,178 462,184" stroke="#6d725c" /></g><g id="3F07" stroke="red"><polyline fill="#FFFFFF" points="463,244 463,199 497,194 497,244" stroke="#6d725c" /></g><g id="3F08" stroke="red"><polyline fill="#FFFFFF" points="570,237 566,211 554,185 573,182 606,182 606,237" stroke="#6d725c" /></g><g id="3F09" stroke="red"><polyline fill="#FFFFFF" points="463,288 463,244 497,244 497,288" stroke="#6d725c" /></g><g id="3F11" stroke="red"><polyline fill="#FFFFFF" points="463,288 497,288 497,327 463,332" stroke="#6d725c" /></g><g id="3F12" stroke="red"><polyline fill="#FFFFFF" points="606,237 606,244 606,315 557,315 566,296 573,253 570,237" stroke="#6d725c" /></g><g id="3F13" stroke="red"><polyline fill="#FFFFFF" points="463,395 463,348 497,343 497,395" stroke="#6d725c" /></g><g id="3F14" stroke="red"><polyline fill="#FFFFFF" points="550,373 513,373 513,340 550,334 550,355" stroke="#6d725c" /></g><g id="3F15" stroke="red"><polyline fill="#FFFFFF" points="463,442 463,395 497,395 497,442" stroke="#6d725c" /></g><g id="3F16" stroke="red"><polyline fill="#FFFFFF" points="550,373 550,410 513,410 513,373" stroke="#6d725c" /></g><g id="3F17" stroke="red"><polyline fill="#FFFFFF" points="463,442 497,442 497,490 463,490" stroke="#6d725c" /></g><g id="3F18" stroke="red"><polyline fill="#FFFFFF" points="513,460 513,428 550,428 550,460" stroke="#6d725c" /></g><g id="3F20" stroke="red"><polyline fill="#FFFFFF" points="513,490 513,460 550,460 551,460 551,490" stroke="#6d725c" /></g><g id="3F21" stroke="red"><polyline fill="#FFFFFF" points="496,530 496,508 538,508 538,530" stroke="#6d725c" /></g><g id="3F22" stroke="red"><polyline fill="#FFFFFF" points="551,460 588,460 588,490 551,490" stroke="#6d725c" /></g><g id="3F23" stroke="red"><polyline fill="#FFFFFF" points="538,508 581,508 581,530 538,530" stroke="#6d725c" /></g><g id="3F24" stroke="red"><polyline fill="#FFFFFF" points="634,490 599,490 599,460 634,460" stroke="#6d725c" /></g><g id="3F25" stroke="red"><polyline fill="#FFFFFF" points="602,530 602,508 643,508 643,530" stroke="#6d725c" /></g><g id="3F26" stroke="red"><polyline fill="#FFFFFF" points="634,490 634,460 670,460 670,490" stroke="#6d725c" /></g><g id="3G02" stroke="red"><polyline fill="#FFFFFF" points="567,68 567,56 613,56 613,68" stroke="#6d725c" /></g><g id="3G04A" stroke="red"><polyline fill="#FFFFFF" points="561,126 561,86 609,86 609,126" stroke="#6d725c" /></g><g id="3G04B" stroke="red"><polyline fill="#FFFFFF" points="561,126 609,126 609,167 561,167" stroke="#6d725c" /></g><g id="3G06" stroke="red"><polyline fill="#FFFFFF" points="513,253 513,191 538,187 551,216 557,253" stroke="#6d725c" /></g><g id="3G10" stroke="red"><polyline fill="#FFFFFF" points="557,253 551,291 540,315 513,315 513,291 513,253" stroke="#6d725c" /></g><g id="3G13" stroke="red"><polyline fill="#FFFFFF" points="550,355 550,334 569,331 610,331 610,355" stroke="#6d725c" /></g><g id="3G14" stroke="red"><polyline fill="#FFFFFF" points="610,355 610,331 670,331 670,355" stroke="#6d725c" /></g><g id="3H01" stroke="red"><polyline fill="#FFFFFF" points="613,68 613,56 613,21 653,21 653,68" stroke="#6d725c" /></g><g id="3H02" stroke="red"><polyline fill="#FFFFFF" points="693,68 653,68 653,21 693,21 693,30" stroke="#6d725c" /></g><g id="3H04" stroke="red"><polyline fill="#FFFFFF" points="625,126 625,86 705,86 705,126" stroke="#6d725c" /></g><g id="3H06" stroke="red"><polyline fill="#FFFFFF" points="705,126 705,167 625,167 625,126" stroke="#6d725c" /></g><g id="3H08" stroke="red"><polyline fill="#FFFFFF" points="652,249 652,216 652,188 652,182 694,182 705,194 705,216 705,249" stroke="#6d725c" /></g><g id="3H12" stroke="red"><polyline fill="#FFFFFF" points="652,284 652,283 652,249 705,249 705,284" stroke="#6d725c" /></g><g id="3H14" stroke="red"><polyline fill="#FFFFFF" points="705,284 705,297 693,315 652,315 652,284" stroke="#6d725c" /></g><g id="3I01" stroke="red"><polyline fill="#FFFFFF" points="693,68 693,68 693,30 701,30 701,21 783,21 723,68" stroke="#6d725c" /></g><g id="3I02" stroke="red"><polyline fill="#FFFFFF" points="723,160 723,68 783,21 783,160 747,160" stroke="#6d725c" /></g><g id="3I08" stroke="red"><polyline fill="#FFFFFF" points="747,160 747,218 747,218 723,218 723,160" stroke="#6d725c" /></g><g id="3I10" stroke="red"><polyline fill="#FFFFFF" points="747,250 783,250 783,272 723,272 723,234 747,234" stroke="#6d725c" /></g><g id="3I12" stroke="red"><polyline fill="#FFFFFF" points="723,307 723,272 783,272 783,307" stroke="#6d725c" /></g><g id="3I14" stroke="red"><polyline fill="#FFFFFF" points="723,341 723,307 783,307 783,341" stroke="#6d725c" /></g><g id="3I15" stroke="red"><polyline fill="#FFFFFF" points="670,331 705,331 705,363 670,363 670,355" stroke="#6d725c" /></g><g id="3I16" stroke="red"><polyline fill="#FFFFFF" points="723,375 723,341 783,341 783,375" stroke="#6d725c" /></g><g id="3I17" stroke="red"><polyline fill="#FFFFFF" points="670,410 670,379 705,379 705,410" stroke="#6d725c" /></g><g id="3I18" stroke="red"><polyline fill="#FFFFFF" points="723,409 723,409 723,375 783,375 783,409" stroke="#6d725c" /></g><g id="3I19" stroke="red"><polyline fill="#FFFFFF" points="670,460 670,428 705,428 705,490 670,490" stroke="#6d725c" /></g><g id="3I20" stroke="red"><polyline fill="#FFFFFF" points="723,443 723,409 783,409 783,443" stroke="#6d725c" /></g><g id="3I22" stroke="red"><polyline fill="#FFFFFF" points="783,443 783,477 723,477 723,443 723,443" stroke="#6d725c" /></g><g id="3I23" stroke="red"><polyline fill="#FFFFFF" points="750,571 747,573 743,575 739,576 736,578 732,579 728,580 724,580 721,581 717,581 713,581 688,581 688,530 664,530 664,508 723,508" stroke="#6d725c" /></g></svg>