<?xml version="1.0" encoding="utf-8" ?>
<svg baseProfile="full" height="593" version="1.1" width="800" xmlns="http://www.w3.org/2000/svg" xmlns:ev="http://www.w3.org/2001/xml-events" xmlns:xlink="http://www.w3.org/1999/xlink"><defs /><g id="5A01A-1" stroke="red"><polyline points="479,89 479,35 496,35 496,89" stroke="#6d725c" /></g><g id="5A01A-2" stroke="red"><polyline points="496,89 496,35 496,18 513,18 513,89" stroke="#6d725c" /></g><g id="5A01A-3" stroke="red"><polyline points="513,89 513,18 530,18 530,89" stroke="#6d725c" /></g><g id="5A01B" stroke="red"><polyline points="530,18 542,18 542,52 589,52 589,81 589,82 588,84 588,85 587,86 587,87 586,88 585,88 583,89 582,89 581,89 530,89" stroke="#6d725c" /></g><g id="5A02" stroke="red"><polyline points="628,89 605,89 605,52 613,52 613,14 648,14 648,89" stroke="#6d725c" /></g><g id="5A02C" stroke="red"><polyline points="648,89 648,14 684,14 684,89" stroke="#6d725c" /></g><g id="5A03" stroke="red"><polyline points="492,164 490,164 488,163 486,163 484,162 483,160 481,159 480,157 480,155 479,153 479,151 479,107 538,107 538,164" stroke="#6d725c" /></g><g id="5A04" stroke="red"><polyline points="572,164 570,164 568,164 566,163 565,162 563,160 562,159 561,157 560,155 559,153 559,151 559,120 559,118 560,116 561,114 562,113 563,111 565,110 566,109 568,108 570,108 572,107 633,107 633,164" stroke="#6d725c" /></g><g id="5A05A" stroke="red"><polyline points="509,229 479,229 479,196 479,195 479,194 479,193 480,192 480,192 481,191 482,191 483,191 483,190 484,190 533,190 534,190 535,191 535,191 536,191 537,192 537,192 538,193 538,194 538,195 538,196 538,229" stroke="#6d725c" /></g><g id="5A05B-1" stroke="red"><polyline points="479,283 479,229 509,229 509,283" stroke="#6d725c" /></g><g id="5A05B-2" stroke="red"><polyline points="509,283 509,229 538,229 538,283" stroke="#6d725c" /></g><g id="5A05B-3" stroke="red"><polyline points="509,283 538,283 538,311 484,311 483,311 483,310 482,310 481,310 480,309 480,308 479,308 479,307 479,306 479,305 479,283" stroke="#6d725c" /></g><g id="5A06A" stroke="red"><polyline points="558,242 558,196 558,195 559,194 559,193 559,192 560,192 560,191 561,191 562,191 563,190 564,190 605,190 605,229 605,242 605,242" stroke="#6d725c" /></g><g id="5A06B" stroke="red"><polyline points="605,242 605,311 564,311 563,311 562,310 561,310 560,310 560,309 559,308 559,308 559,307 558,306 558,305 558,242" stroke="#6d725c" /></g><g id="5B01" stroke="red"><polyline points="727,89 684,89 684,14 727,14 727,52" stroke="#6d725c" /></g><g id="5B01D-1" stroke="red"><polyline points="727,89 727,52 771,52 771,89" stroke="#6d725c" /></g><g id="5B01D-2" stroke="red"><polyline points="771,52 727,52 727,14 786,14 786,89 771,89" stroke="#6d725c" /></g><g id="5B02A" stroke="red"><polyline points="727,133 727,107 786,107 786,133" stroke="#6d725c" /></g><g id="5B02B" stroke="red"><polyline points="786,133 786,156 747,156 747,164 735,164 734,164 733,164 732,163 731,163 730,162 729,161 728,160 728,159 727,158 727,156 727,133" stroke="#6d725c" /></g><g id="5B03" stroke="red"><polyline points="633,107 693,107 695,108 697,108 699,109 701,110 703,111 704,113 705,114 706,116 706,118 706,120 706,151 706,153 706,155 705,157 704,159 703,160 701,162 699,163 697,164 695,164 693,164 633,164" stroke="#6d725c" /></g><g id="5C01" stroke="red"><polyline points="682,229 682,229 682,191 747,191 747,229" stroke="#6d725c" /></g><g id="5C02A" stroke="red"><polyline points="682,268 682,268 682,229 747,229 747,229 747,245 782,245 782,268 782,268" stroke="#6d725c" /></g><g id="5C02B" stroke="red"><polyline points="682,311 682,268 782,268 782,311" stroke="#6d725c" /></g><g id="5C03" stroke="red"><polyline points="550,351 550,326 670,326 670,351" stroke="#6d725c" /></g><g id="5C04" stroke="red"><polyline points="479,401 479,344 479,341 480,338 481,336 482,333 484,331 486,330 488,328 491,327 494,326 496,326 538,326 538,401" stroke="#6d725c" /></g><g id="5C05" stroke="red"><polyline points="623,524 623,508 479,508 479,427 550,427 550,455 599,455 670,455 670,427 682,427 687,427 687,524" stroke="#6d725c" /></g><g id="5D01" stroke="red"><polyline points="424,18 461,18 461,89 431,89 424,89" stroke="#6d725c" /></g><g id="5D02A" stroke="red"><polyline points="394,89 386,89 386,18 424,18 424,89" stroke="#6d725c" /></g><g id="5D02B" stroke="red"><polyline points="350,89 350,18 386,18 386,89" stroke="#6d725c" /></g><g id="5D03A" stroke="red"><polyline points="461,130 461,164 408,164 408,164 408,164 407,164 407,164 406,163 406,163 406,162 406,162 406,162 406,161 406,130" stroke="#6d725c" /></g><g id="5D03B" stroke="red"><polyline points="406,130 406,110 406,110 406,109 406,109 406,109 406,108 407,108 407,108 408,107 408,107 408,107 461,107 461,130" stroke="#6d725c" /></g><g id="5D04A" stroke="red"><polyline points="332,136 332,110 332,110 333,109 333,109 333,109 333,108 334,108 334,108 334,107 335,107 335,107 359,107 359,136" stroke="#6d725c" /></g><g id="5D04B" stroke="red"><polyline points="335,164 335,164 334,164 334,164 334,164 333,163 333,163 333,162 333,162 332,162 332,161 332,136 359,136 359,164" stroke="#6d725c" /></g><g id="5D04C" stroke="red"><polyline points="359,136 359,107 385,107 386,107 386,108 387,108 388,108 388,109 389,110 389,110 390,111 390,112 390,113 390,164 359,164" stroke="#6d725c" /></g><g id="5E01" stroke="red"><polyline points="316,89 313,89 313,18 350,18 350,89" stroke="#6d725c" /></g><g id="5E02A" stroke="red"><polyline points="277,89 277,18 313,18 313,89" stroke="#6d725c" /></g><g id="5E02B" stroke="red"><polyline points="240,89 240,52 230,52 230,18 277,18 277,89" stroke="#6d725c" /></g><g id="5E04" stroke="red"><polyline points="301,164 301,164 300,164 300,164 300,164 300,164 300,164 300,164 299,164 299,164 299,164 265,138 264,138 264,138 264,138 264,138 264,137 264,137 264,137 264,137 263,136 263,136 263,110 264,110 264,109 264,109 264,109 264,108 265,108 265,108 265,107 266,107 266,107 314,107 314,107 315,107 315,108 316,108 316,108 316,109 316,109 317,109 317,110 317,110 317,164" stroke="#6d725c" /></g><g id="5F01" stroke="red"><polyline points="192,89 191,89 189,89 188,88 187,87 186,86 185,85 184,84 184,83 183,82 183,80 183,52 230,52 240,52 240,89" stroke="#6d725c" /></g><g id="5F02" stroke="red"><polyline points="122,18 161,18 161,52 168,52 168,89 122,89" stroke="#6d725c" /></g><g id="5G02" stroke="red"><polyline points="96,89 58,97 38,97 38,18 122,18 122,89" stroke="#6d725c" /></g><g id="5T01" stroke="red"><polyline points="420,332 420,279 454,279 454,332" stroke="#6d725c" /></g><g id="5W04" stroke="red"><polyline points="225,344 225,305 243,305 243,344" stroke="#6d725c" /></g><g id="5X06" stroke="red"><polyline points="412,430 460,430 460,493 412,493" stroke="#6d725c" /></g><g id="5X07" stroke="red"><polyline points="363,493 363,430 412,430 412,493" stroke="#6d725c" /></g><g id="5X08" stroke="red"><polyline points="313,493 313,430 363,430 363,493" stroke="#6d725c" /></g><g id="5X09" stroke="red"><polyline points="263,493 263,430 313,430 313,493" stroke="#6d725c" /></g><g id="5X10" stroke="red"><polyline points="225,305 195,305 195,268 243,268 243,305" stroke="#6d725c" /></g><g id="5X11" stroke="red"><polyline points="195,268 195,230 243,230 243,268" stroke="#6d725c" /></g><g id="5X12" stroke="red"><polyline points="195,230 195,181 243,181 243,230" stroke="#6d725c" /></g><g id="5Y03" stroke="red"><polyline points="687,427 682,427 682,311 682,311 782,311 782,311 782,318 777,318 777,506 779,506 779,510 778,517 777,524 775,529 773,534 771,539 768,543 765,548 763,550 760,553 759,554 755,558 750,561 745,564 740,567 736,568 732,570 728,571 722,572 718,572 713,573 713,576 688,576 688,524 687,524" stroke="#6d725c" /></g><g id="5Z02" stroke="red"><polyline points="225,305 225,344 243,344 243,365 243,382 243,455 181,455 181,344 195,344 195,305 195,305" stroke="#6d725c" /></g></svg>