<?xml version="1.0" encoding="utf-8" ?>
<svg baseProfile="full" height="613" version="1.1" width="800" xmlns="http://www.w3.org/2000/svg" xmlns:ev="http://www.w3.org/2001/xml-events" xmlns:xlink="http://www.w3.org/1999/xlink"><defs /><g id="2A01" stroke="red"><polyline fill="#FFFFFF" points="157,73 202,73 202,143 202,144 201,145 201,146 201,146 200,147 199,147 199,148 198,148 197,148 196,148 94,148 94,120 37,120 37,39 157,39" stroke="#6d725c" /></g><g id="2A08" stroke="red"><polyline fill="#FFFFFF" points="140,200 113,200 113,185 113,185 113,184 113,184 113,184 113,184 113,183 113,183 113,183 113,182 113,182 121,169 122,169 122,168 122,168 123,168 123,167 124,167 124,167 125,167 125,167 126,167 140,167 140,183" stroke="#6d725c" /></g><g id="2A09" stroke="red"><polyline fill="#FFFFFF" points="37,215 37,179 94,179 94,215" stroke="#6d725c" /></g><g id="2A10" stroke="red"><polyline fill="#FFFFFF" points="118,233 117,233 116,233 115,233 115,232 114,232 114,231 113,230 113,230 113,229 113,228 113,200 140,200 140,233" stroke="#6d725c" /></g><g id="2A11" stroke="red"><polyline fill="#FFFFFF" points="37,251 37,215 94,215 94,251" stroke="#6d725c" /></g><g id="2A12" stroke="red"><polyline fill="#FFFFFF" points="113,377 113,249 161,249 161,377" stroke="#6d725c" /></g><g id="2A13" stroke="red"><polyline fill="#FFFFFF" points="37,288 37,251 94,251 94,288" stroke="#6d725c" /></g><g id="2A15" stroke="red"><polyline fill="#FFFFFF" points="37,324 37,288 94,288 94,324" stroke="#6d725c" /></g><g id="2A17" stroke="red"><polyline fill="#FFFFFF" points="37,360 37,324 94,324 94,360" stroke="#6d725c" /></g><g id="2A19" stroke="red"><polyline fill="#FFFFFF" points="37,396 37,360 94,360 94,396" stroke="#6d725c" /></g><g id="2A20" stroke="red"><polyline fill="#FFFFFF" points="118,435 117,435 116,435 115,435 115,434 114,434 114,433 113,432 113,432 113,431 113,430 113,398 113,397 113,397 113,396 114,395 114,395 115,394 115,394 116,393 117,393 118,393 140,393 140,435" stroke="#6d725c" /></g><g id="2A21" stroke="red"><polyline fill="#FFFFFF" points="37,433 37,396 94,396 94,433" stroke="#6d725c" /></g><g id="2A22" stroke="red"><polyline fill="#FFFFFF" points="140,393 167,393 167,430 167,431 167,432 166,432 166,433 165,434 165,434 164,435 163,435 163,435 162,435 140,435" stroke="#6d725c" /></g><g id="2A23" stroke="red"><polyline fill="#FFFFFF" points="37,469 37,433 94,433 94,469" stroke="#6d725c" /></g><g id="2A24" stroke="red"><polyline fill="#FFFFFF" points="118,497 117,497 116,496 115,496 115,496 114,495 114,495 113,494 113,493 113,492 113,492 113,453 113,452 113,452 113,451 114,450 114,450 115,449 115,449 116,448 117,448 118,448 162,448 163,448 163,448 164,449 165,449 165,450 166,450 166,451 167,452 167,452 167,453 167,492 167,492 167,493 166,494 166,495 165,495 165,496 164,496 163,496 163,497 162,497" stroke="#6d725c" /></g><g id="2A25" stroke="red"><polyline fill="#FFFFFF" points="37,505 37,469 94,469 94,505" stroke="#6d725c" /></g><g id="2A26" stroke="red"><polyline fill="#FFFFFF" points="162,592 144,592 135,592 95,592 95,565 113,565 113,515 162,515 162,541" stroke="#6d725c" /></g><g id="2A27" stroke="red"><polyline fill="#FFFFFF" points="94,505 94,541 37,541 37,505" stroke="#6d725c" /></g><g id="2B03" stroke="red"><polyline fill="#FFFFFF" points="140,183 140,167 162,167 163,167 163,167 164,167 165,168 165,168 166,169 166,169 167,170 167,171 167,172 167,183" stroke="#6d725c" /></g><g id="2B05" stroke="red"><polyline fill="#FFFFFF" points="140,200 140,183 167,183 167,200" stroke="#6d725c" /></g><g id="2B06" stroke="red"><polyline fill="#FFFFFF" points="183,200 183,172 183,171 183,170 183,169 184,169 184,168 185,168 185,167 186,167 187,167 188,167 211,167 211,200" stroke="#6d725c" /></g><g id="2B07" stroke="red"><polyline fill="#FFFFFF" points="140,200 167,200 167,228 167,229 167,230 166,230 166,231 165,232 165,232 164,233 163,233 163,233 162,233 140,233" stroke="#6d725c" /></g><g id="2B08" stroke="red"><polyline fill="#FFFFFF" points="188,233 187,233 186,233 185,233 185,232 184,232 184,231 183,230 183,230 183,229 183,228 183,200 211,200 211,233" stroke="#6d725c" /></g><g id="2B16" stroke="red"><polyline fill="#FFFFFF" points="162,515 212,515 212,541 162,541" stroke="#6d725c" /></g><g id="2C01" stroke="red"><polyline fill="#FFFFFF" points="420,85 420,110 345,110 330,110 312,110 265,110 217,110 217,86 227,86 227,39 430,39 430,85" stroke="#6d725c" /></g><g id="2C05" stroke="red"><polyline fill="#FFFFFF" points="222,148 221,148 221,148 220,148 219,147 219,147 218,146 218,146 217,145 217,144 217,143 217,110 265,110 265,148" stroke="#6d725c" /></g><g id="2C06" stroke="red"><polyline fill="#FFFFFF" points="265,148 265,110 312,110 312,148" stroke="#6d725c" /></g><g id="2C07" stroke="red"><polyline fill="#FFFFFF" points="211,200 211,167 234,167 235,167 236,167 237,167 237,168 238,168 239,169 239,169 239,170 240,171 240,172 240,200" stroke="#6d725c" /></g><g id="2C08" stroke="red"><polyline fill="#FFFFFF" points="255,200 255,172 255,171 255,170 256,169 256,169 257,168 257,168 258,167 259,167 260,167 260,167 293,167 293,200" stroke="#6d725c" /></g><g id="2C09" stroke="red"><polyline fill="#FFFFFF" points="211,200 240,200 240,228 240,229 239,230 239,230 239,231 238,232 237,232 237,233 236,233 235,233 234,233 211,233" stroke="#6d725c" /></g><g id="2C10" stroke="red"><polyline fill="#FFFFFF" points="261,232 260,232 259,232 258,232 258,231 257,231 256,230 256,229 255,229 255,228 255,227 255,200 293,200 293,227" stroke="#6d725c" /></g><g id="2C11" stroke="red"><polyline fill="#FFFFFF" points="206,281 206,249 240,249 240,281" stroke="#6d725c" /></g><g id="2C12" stroke="red"><polyline fill="#FFFFFF" points="261,304 260,304 259,304 258,304 258,304 257,303 256,302 256,302 255,301 255,300 255,299 255,253 255,252 255,252 256,251 256,250 256,250 257,249 257,249 258,248 259,248 260,248 293,243 293,299" stroke="#6d725c" /></g><g id="2C13" stroke="red"><polyline fill="#FFFFFF" points="206,313 206,281 240,281 240,313" stroke="#6d725c" /></g><g id="2C14" stroke="red"><polyline fill="#FFFFFF" points="261,377 260,377 259,377 258,376 258,376 257,375 256,375 256,374 255,373 255,372 255,372 255,325 255,325 255,324 256,323 256,323 256,322 257,322 257,321 258,321 259,320 260,320 293,315 293,372" stroke="#6d725c" /></g><g id="2C15" stroke="red"><polyline fill="#FFFFFF" points="206,345 206,313 240,313 240,345" stroke="#6d725c" /></g><g id="2C16" stroke="red"><polyline fill="#FFFFFF" points="260,435 260,435 259,435 258,435 257,434 257,434 256,433 256,432 255,432 255,431 255,430 255,398 255,397 255,396 256,396 256,395 256,394 257,394 257,393 258,393 259,393 260,393 293,387 293,435" stroke="#6d725c" /></g><g id="2C17" stroke="red"><polyline fill="#FFFFFF" points="240,345 240,377 206,377 206,345" stroke="#6d725c" /></g><g id="2C18" stroke="red"><polyline fill="#FFFFFF" points="255,472 255,453 255,452 255,452 256,451 256,450 257,450 257,449 258,449 259,448 260,448 260,448 293,448 293,472" stroke="#6d725c" /></g><g id="2C19" stroke="red"><polyline fill="#FFFFFF" points="188,435 187,435 186,435 185,435 185,434 184,434 184,433 183,432 183,432 183,431 183,430 183,398 183,397 183,397 183,396 184,395 184,395 185,394 185,394 186,393 187,393 188,393 240,393 240,430 240,431 239,432 239,432 239,433 238,434 237,434 237,435 236,435 235,435 234,435" stroke="#6d725c" /></g><g id="2C20" stroke="red"><polyline fill="#FFFFFF" points="260,497 260,497 259,496 258,496 257,496 257,495 256,495 256,494 255,493 255,492 255,492 255,472 293,472 293,497" stroke="#6d725c" /></g><g id="2C21" stroke="red"><polyline fill="#FFFFFF" points="183,472 183,453 183,452 183,452 183,451 184,450 184,450 185,449 185,449 186,448 187,448 188,448 211,448 211,472" stroke="#6d725c" /></g><g id="2C23" stroke="red"><polyline fill="#FFFFFF" points="211,472 211,448 234,448 235,448 236,448 237,449 237,449 238,450 239,450 239,451 239,452 240,452 240,453 240,472" stroke="#6d725c" /></g><g id="2C25" stroke="red"><polyline fill="#FFFFFF" points="188,497 187,497 186,496 185,496 185,496 184,495 184,495 183,494 183,493 183,492 183,492 183,472 211,472 211,497" stroke="#6d725c" /></g><g id="2C27" stroke="red"><polyline fill="#FFFFFF" points="211,472 240,472 240,492 240,492 239,493 239,494 239,495 238,495 237,496 237,496 236,496 235,497 234,497 211,497" stroke="#6d725c" /></g><g id="2C28" stroke="red"><polyline fill="#FFFFFF" points="233,541 233,515 285,515 285,541" stroke="#6d725c" /></g><g id="2D07" stroke="red"><polyline fill="#FFFFFF" points="312,110 330,110 345,110 420,110 420,143 420,144 419,145 419,146 419,146 418,147 418,147 417,148 416,148 415,148 415,148 312,148" stroke="#6d725c" /></g><g id="2D09" stroke="red"><polyline fill="#FFFFFF" points="293,200 293,167 325,167 326,167 326,167 327,167 328,168 328,168 329,169 329,169 330,170 330,171 330,172 330,200" stroke="#6d725c" /></g><g id="2D11" stroke="red"><polyline fill="#FFFFFF" points="293,200 330,200 330,217 330,217 330,218 329,219 329,219 329,220 328,221 328,221 327,221 326,222 326,222 293,227" stroke="#6d725c" /></g><g id="2D12" stroke="red"><polyline fill="#FFFFFF" points="350,218 349,218 348,217 348,217 347,216 346,216 346,215 346,214 345,213 345,213 345,172 345,171 346,170 346,169 346,169 347,168 348,168 348,167 349,167 350,167 351,167 382,167 382,213 351,218 351,218 351,218 351,218 351,218 351,218 351,218 351,218 351,218 351,218 351,218" stroke="#6d725c" /></g><g id="2D13" stroke="red"><polyline fill="#FFFFFF" points="293,243 324,238 325,238 326,238 327,238 327,238 328,239 329,240 329,240 330,241 330,242 330,243 330,289 330,290 330,290 329,291 329,292 329,292 328,293 328,293 327,294 326,294 326,294 293,299" stroke="#6d725c" /></g><g id="2D14" stroke="red"><polyline fill="#FFFFFF" points="351,290 351,290 350,290 349,290 348,289 347,289 347,288 346,287 346,287 346,286 345,285 345,239 345,238 346,237 346,237 346,236 347,235 347,235 348,234 348,234 349,234 350,234 381,229 381,285" stroke="#6d725c" /></g><g id="2D15" stroke="red"><polyline fill="#FFFFFF" points="293,315 324,310 325,310 326,310 327,310 327,311 328,311 329,312 329,313 330,313 330,314 330,315 330,361 330,362 330,363 329,363 329,364 329,365 328,365 328,366 327,366 326,366 326,366 293,372" stroke="#6d725c" /></g><g id="2D16" stroke="red"><polyline fill="#FFFFFF" points="351,362 351,362 350,362 349,362 348,362 347,361 347,361 346,360 346,359 346,358 345,357 345,311 345,310 346,310 346,309 346,308 347,308 347,307 348,307 348,306 349,306 350,306 381,301 381,358" stroke="#6d725c" /></g><g id="2D17" stroke="red"><polyline fill="#FFFFFF" points="293,387 324,382 325,382 326,382 327,383 327,383 328,384 329,384 329,385 330,386 330,387 330,388 330,430 330,431 330,432 329,432 329,433 328,434 328,434 327,435 326,435 326,435 325,435 293,435" stroke="#6d725c" /></g><g id="2D18" stroke="red"><polyline fill="#FFFFFF" points="381,435 351,435 350,435 349,435 348,435 348,434 347,434 346,433 346,432 346,432 345,431 345,430 345,383 345,383 346,382 346,381 346,381 347,380 347,380 348,379 348,379 349,378 350,378 381,373 381,412 381,417" stroke="#6d725c" /></g><g id="2D19" stroke="red"><polyline fill="#FFFFFF" points="293,472 293,448 325,448 326,448 326,448 327,449 328,449 328,450 329,450 329,451 330,452 330,452 330,453 330,472" stroke="#6d725c" /></g><g id="2D20" stroke="red"><polyline fill="#FFFFFF" points="351,497 350,497 349,496 348,496 348,496 347,495 346,495 346,494 346,493 345,492 345,492 345,453 345,452 346,452 346,451 346,450 347,450 348,449 348,449 349,448 350,448 351,448 381,448 381,497" stroke="#6d725c" /></g><g id="2D21" stroke="red"><polyline fill="#FFFFFF" points="330,492 330,492 330,493 329,494 329,495 328,495 328,496 327,496 326,496 326,497 325,497 293,497 293,472 330,472" stroke="#6d725c" /></g><g id="2D29" stroke="red"><polyline fill="#FFFFFF" points="380,592 310,592 310,541 305,541 305,515 380,515" stroke="#6d725c" /></g><g id="2E07" stroke="red"><polyline fill="#FFFFFF" points="384,213 384,167 408,167 408,167 408,167 409,167 409,167 410,167 410,167 410,167 411,168 411,168 411,168 427,185 429,188 430,190 430,193 430,196 430,198 429,201 427,203 425,205 422,206 420,207" stroke="#6d725c" /></g><g id="2E08" stroke="red"><polyline fill="#FFFFFF" points="457,184 450,184 431,163 431,163 431,163 431,162 431,162 430,162 430,161 430,161 430,161 430,160 430,160 430,95 457,95 457,166" stroke="#6d725c" /></g><g id="2E13" stroke="red"><polyline fill="#FFFFFF" points="381,229 409,224 409,224 410,224 411,225 412,225 413,226 413,226 414,227 414,228 414,229 415,230 415,276 415,276 414,277 414,278 414,278 413,279 413,279 412,280 412,280 411,281 410,281 381,285" stroke="#6d725c" /></g><g id="2E14" stroke="red"><polyline fill="#FFFFFF" points="436,277 435,277 434,277 433,276 433,276 432,275 431,275 431,274 430,273 430,272 430,271 430,225 430,225 430,224 431,223 431,223 431,222 432,222 432,221 433,221 434,220 434,220 461,216 461,273" stroke="#6d725c" /></g><g id="2E15" stroke="red"><polyline fill="#FFFFFF" points="381,301 409,297 409,297 410,297 411,297 412,297 413,298 413,299 414,299 414,300 414,301 415,302 415,348 415,349 414,349 414,350 414,351 413,351 413,352 412,352 412,353 411,353 410,353 381,358" stroke="#6d725c" /></g><g id="2E16" stroke="red"><polyline fill="#FFFFFF" points="436,349 435,349 434,349 433,349 433,348 432,348 431,347 431,346 430,346 430,345 430,344 430,298 430,297 430,296 431,296 431,295 431,294 432,294 432,293 433,293 434,293 434,293 461,288 461,345" stroke="#6d725c" /></g><g id="2E17A" stroke="red"><polyline fill="#FFFFFF" points="381,417 381,412 381,373 381,373 409,369 409,369 410,369 411,369 412,370 413,370 413,371 414,372 414,372 414,373 415,374 415,417" stroke="#6d725c" /></g><g id="2E17B" stroke="red"><polyline fill="#FFFFFF" points="381,417 415,417 415,430 414,431 414,432 414,432 414,433 413,434 412,434 412,435 411,435 410,435 409,435 381,435" stroke="#6d725c" /></g><g id="2E18" stroke="red"><polyline fill="#FFFFFF" points="435,435 434,435 434,435 433,435 432,434 432,434 431,433 431,432 430,432 430,431 430,430 430,370 430,369 430,369 431,368 431,367 431,367 432,366 432,366 433,365 434,365 434,365 461,361 461,435" stroke="#6d725c" /></g><g id="2E19" stroke="red"><polyline fill="#FFFFFF" points="381,448 409,448 410,448 411,448 412,449 412,449 413,450 414,450 414,451 414,452 414,452 415,453 415,492 414,492 414,493 414,494 414,495 413,495 412,496 412,496 411,496 410,497 409,497 381,497" stroke="#6d725c" /></g><g id="2E20" stroke="red"><polyline fill="#FFFFFF" points="435,497 434,497 434,496 433,496 432,496 432,495 431,495 431,494 430,493 430,492 430,492 430,453 430,452 430,452 431,451 431,450 432,450 432,449 433,449 434,448 434,448 435,448 461,448 461,497" stroke="#6d725c" /></g><g id="2E25" stroke="red"><polyline fill="#FFFFFF" points="384,541 384,515 415,515 415,541" stroke="#6d725c" /></g><g id="2E26" stroke="red"><polyline fill="#FFFFFF" points="430,541 430,515 469,515 469,541" stroke="#6d725c" /></g><g id="2F01" stroke="red"><polyline fill="#FFFFFF" points="645,156 602,156 563,156 563,73 605,73 605,67 677,67 677,156" stroke="#6d725c" /></g><g id="2F06" stroke="red"><polyline fill="#FFFFFF" points="502,159 519,156 546,156 546,181 546,181 546,182 546,183 545,183 545,184 544,185 544,185 543,185 542,186 542,186 502,193" stroke="#6d725c" /></g><g id="2F07" stroke="red"><polyline fill="#FFFFFF" points="467,199 467,199 466,199 466,199 465,199 465,198 464,198 464,198 463,198 463,197 463,197 450,184 457,184 457,166 502,159 502,193" stroke="#6d725c" /></g><g id="2F12" stroke="red"><polyline fill="#FFFFFF" points="534,261 513,264 512,264 511,264 510,264 510,264 509,263 508,263 508,262 507,261 507,260 507,259 507,213 507,213 507,212 507,211 508,210 508,210 509,209 509,209 510,209 511,208 511,208 534,205 534,237" stroke="#6d725c" /></g><g id="2F13" stroke="red"><polyline fill="#FFFFFF" points="461,216 485,212 486,212 487,212 488,213 489,213 490,213 490,214 491,215 491,216 491,216 491,217 491,263 491,264 491,265 491,266 491,266 490,267 490,267 489,268 488,268 488,268 487,269 461,273" stroke="#6d725c" /></g><g id="2F14" stroke="red"><polyline fill="#FFFFFF" points="534,333 513,337 512,337 511,337 510,336 510,336 509,336 508,335 508,334 507,333 507,333 507,332 507,285 507,285 507,284 508,283 508,283 508,282 509,282 509,281 510,281 511,281 512,280 534,277 534,303" stroke="#6d725c" /></g><g id="2F15" stroke="red"><polyline fill="#FFFFFF" points="461,288 485,285 486,284 487,285 488,285 489,285 490,286 490,286 491,287 491,288 491,289 491,290 491,336 491,336 491,337 491,338 491,339 490,339 490,340 489,340 488,340 488,341 487,341 461,345" stroke="#6d725c" /></g><g id="2F16" stroke="red"><polyline fill="#FFFFFF" points="544,369 507,369 507,353 563,345 563,369" stroke="#6d725c" /></g><g id="2F17A" stroke="red"><polyline fill="#FFFFFF" points="461,401 461,361 485,357 486,357 487,357 488,357 489,358 490,358 490,359 491,359 491,360 491,361 491,362 491,401" stroke="#6d725c" /></g><g id="2F17B" stroke="red"><polyline fill="#FFFFFF" points="461,415 461,401 491,401 491,415" stroke="#6d725c" /></g><g id="2F17C" stroke="red"><polyline fill="#FFFFFF" points="461,415 491,415 491,430 491,431 491,432 491,432 490,433 490,434 489,434 489,435 488,435 487,435 486,435 461,435" stroke="#6d725c" /></g><g id="2F18" stroke="red"><polyline fill="#FFFFFF" points="507,396 507,369 544,369 544,396" stroke="#6d725c" /></g><g id="2F19" stroke="red"><polyline fill="#FFFFFF" points="461,448 486,448 487,448 488,448 489,449 489,449 490,450 490,450 491,451 491,452 491,452 491,453 491,492 491,492 491,493 491,494 490,495 490,495 489,496 489,496 488,496 487,497 486,497 461,497" stroke="#6d725c" /></g><g id="2F20" stroke="red"><polyline fill="#FFFFFF" points="544,396 544,423 507,423 507,396" stroke="#6d725c" /></g><g id="2F22" stroke="red"><polyline fill="#FFFFFF" points="507,472 507,440 544,440 544,472" stroke="#6d725c" /></g><g id="2F24" stroke="red"><polyline fill="#FFFFFF" points="507,497 507,472 544,472 544,472 544,497" stroke="#6d725c" /></g><g id="2F25" stroke="red"><polyline fill="#FFFFFF" points="490,541 490,515 532,515 532,541" stroke="#6d725c" /></g><g id="2F26" stroke="red"><polyline fill="#FFFFFF" points="544,472 582,472 582,497 544,497" stroke="#6d725c" /></g><g id="2F27" stroke="red"><polyline fill="#FFFFFF" points="532,515 574,515 574,541 532,541" stroke="#6d725c" /></g><g id="2F28" stroke="red"><polyline fill="#FFFFFF" points="595,497 595,472 662,472 662,497" stroke="#6d725c" /></g><g id="2G06" stroke="red"><polyline fill="#FFFFFF" points="534,237 534,205 556,201 556,201 557,201 558,201 559,202 560,202 560,203 561,204 561,204 561,205 561,206 561,237" stroke="#6d725c" /></g><g id="2G07" stroke="red"><polyline fill="#FFFFFF" points="577,241 577,198 597,198 597,241" stroke="#6d725c" /></g><g id="2G08" stroke="red"><polyline fill="#FFFFFF" points="534,237 561,237 561,252 561,253 561,254 561,254 561,255 560,256 560,256 559,257 559,257 558,257 557,257 534,261" stroke="#6d725c" /></g><g id="2G09" stroke="red"><polyline fill="#FFFFFF" points="577,285 577,241 597,241 598,241 598,285" stroke="#6d725c" /></g><g id="2G10A" stroke="red"><polyline fill="#FFFFFF" points="534,303 534,277 556,273 556,273 557,273 558,274 559,274 560,275 560,275 561,276 561,277 561,278 561,279 561,303" stroke="#6d725c" /></g><g id="2G10B" stroke="red"><polyline fill="#FFFFFF" points="534,303 561,303 561,325 561,325 561,326 561,327 561,327 560,328 560,329 559,329 559,329 558,330 557,330 534,333" stroke="#6d725c" /></g><g id="2G11" stroke="red"><polyline fill="#FFFFFF" points="598,285 598,329 577,329 577,285" stroke="#6d725c" /></g><g id="2G12" stroke="red"><polyline fill="#FFFFFF" points="563,369 563,345 596,345 596,369" stroke="#6d725c" /></g><g id="2G13" stroke="red"><polyline fill="#FFFFFF" points="596,369 596,345 629,345 629,369" stroke="#6d725c" /></g><g id="2G14" stroke="red"><polyline fill="#FFFFFF" points="629,345 662,345 662,369 629,369" stroke="#6d725c" /></g><g id="2H01" stroke="red"><polyline fill="#FFFFFF" points="563,182 563,156 602,156 602,182" stroke="#6d725c" /></g><g id="2H02" stroke="red"><polyline fill="#FFFFFF" points="602,182 602,156 645,156 645,182" stroke="#6d725c" /></g><g id="2H03" stroke="red"><polyline fill="#FFFFFF" points="645,182 645,156 677,156 677,165 697,165 697,182" stroke="#6d725c" /></g><g id="2I01" stroke="red"><polyline fill="#FFFFFF" points="643,228 643,198 685,198 685,228" stroke="#6d725c" /></g><g id="2I02A" stroke="red"><polyline fill="#FFFFFF" points="715,205 715,182 715,176 738,176 738,205" stroke="#6d725c" /></g><g id="2I02B" stroke="red"><polyline fill="#FFFFFF" points="738,205 738,233 715,233 715,205" stroke="#6d725c" /></g><g id="2I03" stroke="red"><polyline fill="#FFFFFF" points="643,257 643,228 685,228 685,257" stroke="#6d725c" /></g><g id="2I04" stroke="red"><polyline fill="#FFFFFF" points="715,287 715,249 738,249 738,264 774,264 774,287" stroke="#6d725c" /></g><g id="2I05" stroke="red"><polyline fill="#FFFFFF" points="643,293 643,257 685,257 685,293" stroke="#6d725c" /></g><g id="2I07" stroke="red"><polyline fill="#FFFFFF" points="685,293 685,329 643,329 643,293" stroke="#6d725c" /></g><g id="2I08" stroke="red"><polyline fill="#FFFFFF" points="700,320 700,287 715,287 774,287 774,320" stroke="#6d725c" /></g><g id="2I10" stroke="red"><polyline fill="#FFFFFF" points="700,373 700,320 774,320 774,373" stroke="#6d725c" /></g><g id="2I12" stroke="red"><polyline fill="#FFFFFF" points="700,400 700,373 774,373 774,400" stroke="#6d725c" /></g><g id="2I14" stroke="red"><polyline fill="#FFFFFF" points="700,427 700,400 774,400 774,427" stroke="#6d725c" /></g><g id="2I16" stroke="red"><polyline fill="#FFFFFF" points="700,454 700,427 774,427 774,454" stroke="#6d725c" /></g><g id="2I18" stroke="red"><polyline fill="#FFFFFF" points="700,481 700,481 700,454 774,454 774,481 774,481" stroke="#6d725c" /></g><g id="2I20" stroke="red"><polyline fill="#FFFFFF" points="700,508 700,481 774,481 774,508" stroke="#6d725c" /></g><g id="2I22" stroke="red"><polyline fill="#FFFFFF" points="700,508 774,508 774,508 774,523 774,525 773,526 773,527 773,529 773,530 773,532 773,533 773,535 772,536 772,537 700,537" stroke="#6d725c" /></g><g id="2I24" stroke="red"><polyline fill="#FFFFFF" points="700,592 680,592 680,537 700,537" stroke="#6d725c" /></g><g id="2Y01" stroke="red"><polyline fill="#FFFFFF" points="715,176 715,182 697,182 697,165 677,165 677,156 677,67 605,67 605,39 705,39 705,45 733,45 733,39 765,39 765,47 774,47 774,176 738,176" stroke="#6d725c" /></g><g id="2Y02" stroke="red"><polyline fill="#FFFFFF" points="519,156 502,159 457,166 457,95 430,95 430,85 430,39 536,39 536,73 545,73 545,73 546,73 546,73 546,156" stroke="#6d725c" /></g></svg>