<?xml version="1.0" encoding="utf-8" ?>
<svg baseProfile="full" height="593" version="1.1" width="800" xmlns="http://www.w3.org/2000/svg" xmlns:ev="http://www.w3.org/2001/xml-events" xmlns:xlink="http://www.w3.org/1999/xlink"><defs /><g id="4A01" stroke="red"><polyline fill="#ebf7d1" points="99,66 99,55 99,20 128,20 128,66" stroke="#6d725c" /></g><g id="4A02" stroke="red"><polyline fill="#ebf7d1" points="157,66 128,66 128,20 157,20 157,55" stroke="#6d725c" /></g><g id="4A03" stroke="red"><polyline fill="#ebf7d1" points="99,95 99,96 99,97 99,97 98,98 98,99 97,99 97,100 96,100 95,100 94,100 51,100 34,100 34,55 99,55 99,66" stroke="#6d725c" /></g><g id="4A06" stroke="red"><polyline fill="#ebf7d1" points="118,124 118,85 161,85 161,124" stroke="#6d725c" /></g><g id="4A08" stroke="red"><polyline fill="#ebf7d1" points="161,173 137,173 118,124 161,124 161,129" stroke="#6d725c" /></g><g id="4A09" stroke="red"><polyline fill="#ebf7d1" points="89,234 89,162 113,162 141,234" stroke="#6d725c" /></g><g id="4A10" stroke="red"><polyline fill="#ebf7d1" points="161,173 186,173 186,217 155,217 137,173" stroke="#6d725c" /></g><g id="4A11" stroke="red"><polyline fill="#ebf7d1" points="89,274 89,234 141,234 141,274" stroke="#6d725c" /></g><g id="4A13" stroke="red"><polyline fill="#ebf7d1" points="89,315 89,274 141,274 141,315" stroke="#6d725c" /></g><g id="4A15" stroke="red"><polyline fill="#ebf7d1" points="89,356 89,315 141,315 141,356" stroke="#6d725c" /></g><g id="4A17" stroke="red"><polyline fill="#ebf7d1" points="89,397 89,356 141,356 141,397" stroke="#6d725c" /></g><g id="4A18" stroke="red"><polyline fill="#ebf7d1" points="160,418 160,381 207,381 207,418" stroke="#6d725c" /></g><g id="4A19" stroke="red"><polyline fill="#ebf7d1" points="89,438 89,397 141,397 141,438" stroke="#6d725c" /></g><g id="4A20" stroke="red"><polyline fill="#ebf7d1" points="160,455 160,418 207,418 207,455" stroke="#6d725c" /></g><g id="4A21" stroke="red"><polyline fill="#ebf7d1" points="89,478 89,438 141,438 141,478" stroke="#6d725c" /></g><g id="4A22" stroke="red"><polyline fill="#ebf7d1" points="160,491 160,455 207,455 207,491" stroke="#6d725c" /></g><g id="4A23" stroke="red"><polyline fill="#ebf7d1" points="141,478 141,509 213,509 213,531 141,531 89,531 89,478" stroke="#6d725c" /></g><g id="4B02" stroke="red"><polyline fill="#ebf7d1" points="157,55 202,55 202,66 157,66" stroke="#6d725c" /></g><g id="4B03" stroke="red"><polyline fill="#ebf7d1" points="161,129 161,124 161,85 186,85 186,129" stroke="#6d725c" /></g><g id="4B04" stroke="red"><polyline fill="#ebf7d1" points="202,129 202,85 229,85 229,129" stroke="#6d725c" /></g><g id="4B05" stroke="red"><polyline fill="#ebf7d1" points="161,173 161,129 186,129 186,173" stroke="#6d725c" /></g><g id="4B06" stroke="red"><polyline fill="#ebf7d1" points="202,173 202,129 229,129 229,173" stroke="#6d725c" /></g><g id="4B08" stroke="red"><polyline fill="#ebf7d1" points="202,217 202,173 229,173 229,217" stroke="#6d725c" /></g><g id="4C01" stroke="red"><polyline fill="#ebf7d1" points="227,66 227,55 227,20 267,20 267,66" stroke="#6d725c" /></g><g id="4C02" stroke="red"><polyline fill="#ebf7d1" points="267,66 267,20 307,20 307,66" stroke="#6d725c" /></g><g id="4C03" stroke="red"><polyline fill="#ebf7d1" points="229,129 229,85 255,85 255,129" stroke="#6d725c" /></g><g id="4C04" stroke="red"><polyline fill="#ebf7d1" points="271,129 271,85 296,85 296,129" stroke="#6d725c" /></g><g id="4C05" stroke="red"><polyline fill="#ebf7d1" points="229,173 229,129 255,129 255,173" stroke="#6d725c" /></g><g id="4C06" stroke="red"><polyline fill="#ebf7d1" points="271,173 271,129 296,129 296,173" stroke="#6d725c" /></g><g id="4C07" stroke="red"><polyline fill="#ebf7d1" points="229,173 255,173 255,217 229,217" stroke="#6d725c" /></g><g id="4C08" stroke="red"><polyline fill="#ebf7d1" points="271,217 271,173 296,173 296,217" stroke="#6d725c" /></g><g id="4C09" stroke="red"><polyline fill="#ebf7d1" points="210,266 207,266 207,233 210,233 255,233 255,266" stroke="#6d725c" /></g><g id="4C10" stroke="red"><polyline fill="#ebf7d1" points="271,270 271,233 316,233 316,270" stroke="#6d725c" /></g><g id="4C11" stroke="red"><polyline fill="#ebf7d1" points="207,299 207,266 210,266 255,266 255,299" stroke="#6d725c" /></g><g id="4C12" stroke="red"><polyline fill="#ebf7d1" points="303,308 271,308 271,270 316,270 316,308" stroke="#6d725c" /></g><g id="4C13" stroke="red"><polyline fill="#ebf7d1" points="210,332 207,332 207,299 255,299 255,332" stroke="#6d725c" /></g><g id="4C14" stroke="red"><polyline fill="#ebf7d1" points="271,365 271,308 303,308 303,365" stroke="#6d725c" /></g><g id="4C15" stroke="red"><polyline fill="#ebf7d1" points="210,332 255,332 255,365 210,365 207,365 207,332" stroke="#6d725c" /></g><g id="4C16" stroke="red"><polyline fill="#ebf7d1" points="303,308 316,308 334,308 334,365 303,365" stroke="#6d725c" /></g><g id="4C17" stroke="red"><polyline fill="#ebf7d1" points="207,418 207,381 255,381 255,418" stroke="#6d725c" /></g><g id="4C18" stroke="red"><polyline fill="#ebf7d1" points="271,418 271,381 322,381 322,418" stroke="#6d725c" /></g><g id="4C19" stroke="red"><polyline fill="#ebf7d1" points="207,455 207,418 255,418 255,455" stroke="#6d725c" /></g><g id="4C20" stroke="red"><polyline fill="#ebf7d1" points="271,455 271,418 322,418 322,455" stroke="#6d725c" /></g><g id="4C21" stroke="red"><polyline fill="#ebf7d1" points="207,455 255,455 255,491 207,491" stroke="#6d725c" /></g><g id="4C22" stroke="red"><polyline fill="#ebf7d1" points="322,455 322,491 271,491 271,455" stroke="#6d725c" /></g><g id="4C23" stroke="red"><polyline fill="#ebf7d1" points="235,531 235,509 286,509 286,531" stroke="#6d725c" /></g><g id="4C24" stroke="red"><polyline fill="#ebf7d1" points="312,583 312,531 307,531 307,509 347,509 347,583" stroke="#6d725c" /></g><g id="4D01" stroke="red"><polyline fill="#ebf7d1" points="307,66 307,20 347,20 347,66" stroke="#6d725c" /></g><g id="4D02" stroke="red"><polyline fill="#ebf7d1" points="347,20 347,20 386,20 386,66 347,66" stroke="#6d725c" /></g><g id="4D03" stroke="red"><polyline fill="#ebf7d1" points="296,129 296,85 322,85 322,129" stroke="#6d725c" /></g><g id="4D04" stroke="red"><polyline fill="#ebf7d1" points="338,129 338,85 363,85 363,129" stroke="#6d725c" /></g><g id="4D05" stroke="red"><polyline fill="#ebf7d1" points="296,173 296,129 322,129 322,173" stroke="#6d725c" /></g><g id="4D06" stroke="red"><polyline fill="#ebf7d1" points="338,173 338,129 363,129 363,173" stroke="#6d725c" /></g><g id="4D07" stroke="red"><polyline fill="#ebf7d1" points="296,173 322,173 322,217 296,217" stroke="#6d725c" /></g><g id="4D08" stroke="red"><polyline fill="#ebf7d1" points="338,217 338,173 363,173 363,217" stroke="#6d725c" /></g><g id="4E01" stroke="red"><polyline fill="#ebf7d1" points="388,66 388,20 426,20 426,66" stroke="#6d725c" /></g><g id="4E02" stroke="red"><polyline fill="#ebf7d1" points="426,66 426,20 465,20 465,66" stroke="#6d725c" /></g><g id="4E03" stroke="red"><polyline fill="#ebf7d1" points="363,129 363,85 389,85 389,129" stroke="#6d725c" /></g><g id="4E04" stroke="red"><polyline fill="#ebf7d1" points="404,124 404,85 448,85 448,124" stroke="#6d725c" /></g><g id="4E05" stroke="red"><polyline fill="#ebf7d1" points="363,173 363,129 389,129 389,173" stroke="#6d725c" /></g><g id="4E06" stroke="red"><polyline fill="#ebf7d1" points="404,163 404,124 448,124 448,163" stroke="#6d725c" /></g><g id="4E07" stroke="red"><polyline fill="#ebf7d1" points="363,173 389,173 389,217 363,217" stroke="#6d725c" /></g><g id="4E08" stroke="red"><polyline fill="#ebf7d1" points="404,216 404,163 448,163 448,203" stroke="#6d725c" /></g><g id="4E09" stroke="red"><polyline fill="#ebf7d1" points="333,270 333,233 389,233 389,270" stroke="#6d725c" /></g><g id="4E10" stroke="red"><polyline fill="#ebf7d1" points="404,261 404,233 448,219 448,261" stroke="#6d725c" /></g><g id="4E11" stroke="red"><polyline fill="#ebf7d1" points="352,308 352,294 333,294 333,270 389,270 389,308" stroke="#6d725c" /></g><g id="4E12" stroke="red"><polyline fill="#ebf7d1" points="404,306 404,261 448,261 448,306" stroke="#6d725c" /></g><g id="4E13" stroke="red"><polyline fill="#ebf7d1" points="389,308 389,365 352,365 352,308" stroke="#6d725c" /></g><g id="4E14" stroke="red"><polyline fill="#ebf7d1" points="404,365 404,306 448,306 448,352" stroke="#6d725c" /></g><g id="4E15" stroke="red"><polyline fill="#ebf7d1" points="338,418 338,381 389,381 389,418" stroke="#6d725c" /></g><g id="4E16" stroke="red"><polyline fill="#ebf7d1" points="448,411 404,411 404,381 454,365 454,411" stroke="#6d725c" /></g><g id="4E17" stroke="red"><polyline fill="#ebf7d1" points="338,455 338,418 389,418 389,455" stroke="#6d725c" /></g><g id="4E18" stroke="red"><polyline fill="#ebf7d1" points="404,454 404,411 448,411 448,454" stroke="#6d725c" /></g><g id="4E19" stroke="red"><polyline fill="#ebf7d1" points="389,455 389,491 338,491 338,455" stroke="#6d725c" /></g><g id="4E20" stroke="red"><polyline fill="#ebf7d1" points="404,491 404,454 448,454 448,491" stroke="#6d725c" /></g><g id="4E21" stroke="red"><polyline fill="#ebf7d1" points="347,509 386,509 386,529 382,529 382,535 384,535 384,580 382,580 382,583 347,583" stroke="#6d725c" /></g><g id="4E22" stroke="red"><polyline fill="#ebf7d1" points="388,531 388,509 419,509 419,531" stroke="#6d725c" /></g><g id="4F01" stroke="red"><polyline fill="#ebf7d1" points="465,66 465,20 504,20 504,66" stroke="#6d725c" /></g><g id="4F02" stroke="red"><polyline fill="#ebf7d1" points="504,20 543,20 543,55 543,66 543,66 504,66" stroke="#6d725c" /></g><g id="4F03" stroke="red"><polyline fill="#ebf7d1" points="448,124 448,85 491,85 491,124" stroke="#6d725c" /></g><g id="4F04" stroke="red"><polyline fill="#ebf7d1" points="506,130 506,85 538,85 538,130" stroke="#6d725c" /></g><g id="4F05" stroke="red"><polyline fill="#ebf7d1" points="448,163 448,124 491,124 491,163" stroke="#6d725c" /></g><g id="4F06" stroke="red"><polyline fill="#ebf7d1" points="506,184 506,130 538,130 538,175" stroke="#6d725c" /></g><g id="4F07" stroke="red"><polyline fill="#ebf7d1" points="448,163 491,163 491,189 448,203" stroke="#6d725c" /></g><g id="4F08" stroke="red"><polyline fill="#ebf7d1" points="506,236 506,201 538,191 538,192 538,236" stroke="#6d725c" /></g><g id="4F09" stroke="red"><polyline fill="#ebf7d1" points="448,261 448,219 491,206 491,261" stroke="#6d725c" /></g><g id="4F10" stroke="red"><polyline fill="#ebf7d1" points="506,280 506,236 538,236 538,280" stroke="#6d725c" /></g><g id="4F11" stroke="red"><polyline fill="#ebf7d1" points="448,306 448,261 491,261 491,306" stroke="#6d725c" /></g><g id="4F12" stroke="red"><polyline fill="#ebf7d1" points="506,334 506,280 538,280 538,324 538,325" stroke="#6d725c" /></g><g id="4F13" stroke="red"><polyline fill="#ebf7d1" points="448,306 491,306 491,339 448,352" stroke="#6d725c" /></g><g id="4F14" stroke="red"><polyline fill="#ebf7d1" points="550,356 506,356 506,349 571,331 571,356" stroke="#6d725c" /></g><g id="4F15" stroke="red"><polyline fill="#ebf7d1" points="454,411 454,365 485,355 491,355 491,411" stroke="#6d725c" /></g><g id="4F16" stroke="red"><polyline fill="#ebf7d1" points="506,383 506,356 550,356 550,383" stroke="#6d725c" /></g><g id="4F17" stroke="red"><polyline fill="#ebf7d1" points="448,454 448,411 454,411 491,411 491,454" stroke="#6d725c" /></g><g id="4F18" stroke="red"><polyline fill="#ebf7d1" points="550,383 550,411 506,411 506,383" stroke="#6d725c" /></g><g id="4F19" stroke="red"><polyline fill="#ebf7d1" points="448,454 491,454 491,491 448,491" stroke="#6d725c" /></g><g id="4F20" stroke="red"><polyline fill="#ebf7d1" points="548,461 506,461 506,429 550,429 550,461" stroke="#6d725c" /></g><g id="4F21" stroke="red"><polyline fill="#ebf7d1" points="435,531 435,509 475,509 475,531 475,531" stroke="#6d725c" /></g><g id="4F22" stroke="red"><polyline fill="#ebf7d1" points="506,491 506,461 548,461 548,491" stroke="#6d725c" /></g><g id="4F23" stroke="red"><polyline fill="#ebf7d1" points="496,531 496,509 539,509 539,531" stroke="#6d725c" /></g><g id="4F24" stroke="red"><polyline fill="#ebf7d1" points="548,461 550,461 589,461 589,491 550,491 548,491" stroke="#6d725c" /></g><g id="4F25" stroke="red"><polyline fill="#ebf7d1" points="539,531 539,509 582,509 582,531" stroke="#6d725c" /></g><g id="4F26" stroke="red"><polyline fill="#ebf7d1" points="655,491 600,491 600,461 655,461" stroke="#6d725c" /></g><g id="4F27" stroke="red"><polyline fill="#ebf7d1" points="603,531 603,509 645,509 645,531" stroke="#6d725c" /></g><g id="4G02" stroke="red"><polyline fill="#ebf7d1" points="568,66 568,55 613,55 613,66" stroke="#6d725c" /></g><g id="4G03" stroke="red"><polyline fill="#ebf7d1" points="538,130 538,85 569,85 569,130" stroke="#6d725c" /></g><g id="4G04" stroke="red"><polyline fill="#ebf7d1" points="584,125 584,85 612,85 612,125" stroke="#6d725c" /></g><g id="4G05" stroke="red"><polyline fill="#ebf7d1" points="538,130 569,130 569,165 538,175" stroke="#6d725c" /></g><g id="4G06" stroke="red"><polyline fill="#ebf7d1" points="584,166 584,125 612,125 612,166" stroke="#6d725c" /></g><g id="4G07" stroke="red"><polyline fill="#ebf7d1" points="538,236 538,192 538,191 569,182 569,236" stroke="#6d725c" /></g><g id="4G08" stroke="red"><polyline fill="#ebf7d1" points="604,249 584,249 584,182 604,182 609,182 609,233 606,233 606,249" stroke="#6d725c" /></g><g id="4G09" stroke="red"><polyline fill="#ebf7d1" points="538,280 538,236 569,236 569,280" stroke="#6d725c" /></g><g id="4G10" stroke="red"><polyline fill="#ebf7d1" points="604,249 606,249 606,315 604,315 584,315 584,249" stroke="#6d725c" /></g><g id="4G11" stroke="red"><polyline fill="#ebf7d1" points="538,324 538,280 569,280 569,315 538,325" stroke="#6d725c" /></g><g id="4G12" stroke="red"><polyline fill="#ebf7d1" points="571,356 571,331 641,331 641,356" stroke="#6d725c" /></g><g id="4H01" stroke="red"><polyline fill="#ebf7d1" points="656,66 613,66 613,55 613,20 656,20 656,20" stroke="#6d725c" /></g><g id="4H02" stroke="red"><polyline fill="#ebf7d1" points="656,66 656,20 698,20 698,66" stroke="#6d725c" /></g><g id="4H03" stroke="red"><polyline fill="#ebf7d1" points="639,125 612,125 612,85 639,85 639,125" stroke="#6d725c" /></g><g id="4H04" stroke="red"><polyline fill="#ebf7d1" points="655,125 655,85 683,85 683,125" stroke="#6d725c" /></g><g id="4H05" stroke="red"><polyline fill="#ebf7d1" points="612,125 639,125 639,125 639,166 612,166" stroke="#6d725c" /></g><g id="4H06" stroke="red"><polyline fill="#ebf7d1" points="655,166 655,125 683,125 683,166" stroke="#6d725c" /></g><g id="4I01" stroke="red"><polyline fill="#ebf7d1" points="698,20 729,20 729,66 698,66" stroke="#6d725c" /></g><g id="4I03" stroke="red"><polyline fill="#ebf7d1" points="683,125 683,85 710,85 710,125" stroke="#6d725c" /></g><g id="4I04" stroke="red"><polyline fill="#ebf7d1" points="729,128 729,88 785,88 785,128" stroke="#6d725c" /></g><g id="4I05" stroke="red"><polyline fill="#ebf7d1" points="683,125 710,125 710,166 683,166" stroke="#6d725c" /></g><g id="4I06" stroke="red"><polyline fill="#ebf7d1" points="729,160 729,128 785,128 785,160 749,160" stroke="#6d725c" /></g><g id="4I07" stroke="red"><polyline fill="#ebf7d1" points="654,212 651,212 651,182 654,182 710,182 710,212" stroke="#6d725c" /></g><g id="4I08" stroke="red"><polyline fill="#ebf7d1" points="749,160 749,218 729,218 729,160" stroke="#6d725c" /></g><g id="4I09" stroke="red"><polyline fill="#ebf7d1" points="654,242 651,242 651,212 654,212 710,212 710,242" stroke="#6d725c" /></g><g id="4I10" stroke="red"><polyline fill="#ebf7d1" points="729,274 729,274 729,234 749,234 749,234 749,249 785,249 785,274" stroke="#6d725c" /></g><g id="4I11" stroke="red"><polyline fill="#ebf7d1" points="654,279 651,279 651,242 654,242 710,242 710,279" stroke="#6d725c" /></g><g id="4I12" stroke="red"><polyline fill="#ebf7d1" points="785,306 729,306 729,274 729,274 785,274" stroke="#6d725c" /></g><g id="4I13" stroke="red"><polyline fill="#ebf7d1" points="654,279 710,279 710,315 654,315 651,315 651,279" stroke="#6d725c" /></g><g id="4I14" stroke="red"><polyline fill="#ebf7d1" points="729,340 729,306 785,306 785,323 779,323 779,340" stroke="#6d725c" /></g><g id="4I15" stroke="red"><polyline fill="#ebf7d1" points="641,331 710,331 710,364 671,364 671,356 641,356" stroke="#6d725c" /></g><g id="4I16" stroke="red"><polyline fill="#ebf7d1" points="779,375 729,375 729,340 729,340 779,340 779,375 779,375" stroke="#6d725c" /></g><g id="4I17" stroke="red"><polyline fill="#ebf7d1" points="671,411 671,380 710,380 710,411" stroke="#6d725c" /></g><g id="4I18" stroke="red"><polyline fill="#ebf7d1" points="729,409 729,409 729,375 779,375 779,375 779,409" stroke="#6d725c" /></g><g id="4I19" stroke="red"><polyline fill="#ebf7d1" points="671,461 671,429 710,429 710,461" stroke="#6d725c" /></g><g id="4I20" stroke="red"><polyline fill="#ebf7d1" points="729,444 729,444 729,444 729,409 729,409 779,409 779,444" stroke="#6d725c" /></g><g id="4I21" stroke="red"><polyline fill="#ebf7d1" points="655,461 671,461 710,461 710,491 655,491" stroke="#6d725c" /></g><g id="4I22" stroke="red"><polyline fill="#ebf7d1" points="729,478 729,444 779,444 779,444 779,478" stroke="#6d725c" /></g><g id="4I23" stroke="red"><polyline fill="#ebf7d1" points="729,528 690,528 690,531 666,531 666,509 729,509" stroke="#6d725c" /></g><g id="4I24" stroke="red"><polyline fill="#ebf7d1" points="729,509 729,478 779,478 779,513 785,513 785,514 785,516 784,517 784,519 784,520 784,522 784,523 784,525 783,526 783,528 729,528" stroke="#6d725c" /></g></svg>