<?xml version="1.0" encoding="utf-8" ?>
<svg baseProfile="full" height="597" version="1.1" width="800" xmlns="http://www.w3.org/2000/svg" xmlns:ev="http://www.w3.org/2001/xml-events" xmlns:xlink="http://www.w3.org/1999/xlink"><defs /><g id="3A01" stroke="red"><polyline points="94,85 37,39 45,39 125,39 125,85" stroke="#6d725c" /></g><g id="3A02" stroke="red"><polyline points="157,85 125,85 125,39 157,39 157,73" stroke="#6d725c" /></g><g id="3A03" stroke="red"><polyline points="94,113 94,113 94,114 94,115 93,116 93,116 92,117 92,117 91,118 90,118 89,118 56,118 56,118 37,118 37,39 94,85" stroke="#6d725c" /></g><g id="3A06" stroke="red"><polyline points="140,146 113,146 113,103 140,103 140,146" stroke="#6d725c" /></g><g id="3A08" stroke="red"><polyline points="140,189 113,189 113,146 140,146 140,189" stroke="#6d725c" /></g><g id="3A09" stroke="red"><polyline points="37,215 37,175 94,175 94,215" stroke="#6d725c" /></g><g id="3A10" stroke="red"><polyline points="113,232 113,189 140,189 140,232" stroke="#6d725c" /></g><g id="3A11" stroke="red"><polyline points="37,251 37,215 94,215 94,251" stroke="#6d725c" /></g><g id="3A12" stroke="red"><polyline points="113,291 113,253 113,252 113,251 113,250 114,250 114,249 115,248 115,248 116,248 117,248 118,247 165,247 165,291" stroke="#6d725c" /></g><g id="3A13" stroke="red"><polyline points="37,288 37,251 94,251 94,288" stroke="#6d725c" /></g><g id="3A14" stroke="red"><polyline points="113,334 113,291 165,291 165,334" stroke="#6d725c" /></g><g id="3A15" stroke="red"><polyline points="37,324 37,288 94,288 94,324" stroke="#6d725c" /></g><g id="3A16" stroke="red"><polyline points="165,334 165,377 118,377 117,377 116,377 115,377 115,376 114,376 114,375 113,375 113,374 113,373 113,372 113,334" stroke="#6d725c" /></g><g id="3A17" stroke="red"><polyline points="37,360 37,324 94,324 94,360" stroke="#6d725c" /></g><g id="3A19" stroke="red"><polyline points="37,396 37,360 94,360 94,396" stroke="#6d725c" /></g><g id="3A21" stroke="red"><polyline points="37,433 37,396 94,396 94,433" stroke="#6d725c" /></g><g id="3A22" stroke="red"><polyline points="113,447 113,393 140,393 140,447" stroke="#6d725c" /></g><g id="3A23" stroke="red"><polyline points="37,469 37,433 94,433 94,469" stroke="#6d725c" /></g><g id="3A24" stroke="red"><polyline points="140,501 113,501 113,447 140,447 140,474" stroke="#6d725c" /></g><g id="3A25" stroke="red"><polyline points="37,505 37,469 94,469 94,505" stroke="#6d725c" /></g><g id="3A26" stroke="red"><polyline points="162,592 144,592 135,592 121,592 121,541 116,541 116,519 162,519 162,541" stroke="#6d725c" /></g><g id="3A27" stroke="red"><polyline points="94,505 94,541 37,541 37,505" stroke="#6d725c" /></g><g id="3B02" stroke="red"><polyline points="157,73 202,73 202,85 157,85" stroke="#6d725c" /></g><g id="3B03" stroke="red"><polyline points="140,146 140,103 167,103 167,146" stroke="#6d725c" /></g><g id="3B04" stroke="red"><polyline points="183,146 183,103 211,103 211,146" stroke="#6d725c" /></g><g id="3B05" stroke="red"><polyline points="140,189 140,146 167,146 167,189" stroke="#6d725c" /></g><g id="3B06" stroke="red"><polyline points="183,189 183,146 211,146 211,189" stroke="#6d725c" /></g><g id="3B07" stroke="red"><polyline points="140,189 140,189 167,189 167,232 140,232" stroke="#6d725c" /></g><g id="3B08" stroke="red"><polyline points="183,232 183,189 211,189 211,232" stroke="#6d725c" /></g><g id="3B09" stroke="red"><polyline points="140,447 140,393 167,393 167,447" stroke="#6d725c" /></g><g id="3B10" stroke="red"><polyline points="183,447 183,393 211,393 211,447" stroke="#6d725c" /></g><g id="3B11A" stroke="red"><polyline points="140,474 140,447 167,447 167,474" stroke="#6d725c" /></g><g id="3B11B" stroke="red"><polyline points="140,474 167,474 167,501 140,501" stroke="#6d725c" /></g><g id="3B12" stroke="red"><polyline points="183,501 183,447 211,447 211,501" stroke="#6d725c" /></g><g id="3B16" stroke="red"><polyline points="162,519 212,519 212,541 162,541" stroke="#6d725c" /></g><g id="3C01" stroke="red"><polyline points="265,85 226,85 226,73 227,73 227,39 265,39" stroke="#6d725c" /></g><g id="3C02" stroke="red"><polyline points="265,85 265,39 304,39 304,85" stroke="#6d725c" /></g><g id="3C03" stroke="red"><polyline points="211,146 211,103 240,103 240,146" stroke="#6d725c" /></g><g id="3C04" stroke="red"><polyline points="255,146 255,103 293,103 293,146" stroke="#6d725c" /></g><g id="3C05" stroke="red"><polyline points="211,189 211,146 240,146 240,189" stroke="#6d725c" /></g><g id="3C06" stroke="red"><polyline points="255,189 255,146 293,146 293,189" stroke="#6d725c" /></g><g id="3C07" stroke="red"><polyline points="211,189 240,189 240,232 211,232" stroke="#6d725c" /></g><g id="3C08" stroke="red"><polyline points="255,232 255,189 293,189 293,226" stroke="#6d725c" /></g><g id="3C09" stroke="red"><polyline points="206,291 206,247 240,247 240,291" stroke="#6d725c" /></g><g id="3C10" stroke="red"><polyline points="293,309 255,309 255,247 293,241 293,285" stroke="#6d725c" /></g><g id="3C11" stroke="red"><polyline points="206,334 206,291 240,291 240,334" stroke="#6d725c" /></g><g id="3C12" stroke="red"><polyline points="293,372 255,377 255,309 293,309 293,328" stroke="#6d725c" /></g><g id="3C13" stroke="red"><polyline points="240,334 240,377 206,377 206,334" stroke="#6d725c" /></g><g id="3C15" stroke="red"><polyline points="211,447 211,393 240,393 240,447" stroke="#6d725c" /></g><g id="3C16" stroke="red"><polyline points="255,427 255,393 293,387 293,427" stroke="#6d725c" /></g><g id="3C17" stroke="red"><polyline points="211,447 240,447 240,501 211,501" stroke="#6d725c" /></g><g id="3C18" stroke="red"><polyline points="255,466 255,427 293,427 293,466" stroke="#6d725c" /></g><g id="3C20" stroke="red"><polyline points="255,501 255,466 293,466 293,501" stroke="#6d725c" /></g><g id="3C22" stroke="red"><polyline points="233,541 233,519 285,519 285,541" stroke="#6d725c" /></g><g id="3D01" stroke="red"><polyline points="304,85 304,39 343,39 343,85" stroke="#6d725c" /></g><g id="3D02" stroke="red"><polyline points="343,39 382,39 382,85 343,85" stroke="#6d725c" /></g><g id="3D03" stroke="red"><polyline points="293,146 293,103 330,103 330,146" stroke="#6d725c" /></g><g id="3D04" stroke="red"><polyline points="345,139 345,103 381,103 381,139" stroke="#6d725c" /></g><g id="3D05" stroke="red"><polyline points="293,189 293,146 330,146 330,220 293,226" stroke="#6d725c" /></g><g id="3D06" stroke="red"><polyline points="345,175 345,139 381,139 381,175" stroke="#6d725c" /></g><g id="3D08" stroke="red"><polyline points="345,217 345,175 381,175 381,211" stroke="#6d725c" /></g><g id="3D09" stroke="red"><polyline points="293,285 293,241 330,235 330,285" stroke="#6d725c" /></g><g id="3D10" stroke="red"><polyline points="345,270 345,233 381,227 381,270" stroke="#6d725c" /></g><g id="3D11" stroke="red"><polyline points="293,328 293,309 293,285 330,285 330,328" stroke="#6d725c" /></g><g id="3D12" stroke="red"><polyline points="345,314 345,270 381,270 381,314" stroke="#6d725c" /></g><g id="3D13" stroke="red"><polyline points="293,328 330,328 330,366 293,372" stroke="#6d725c" /></g><g id="3D14" stroke="red"><polyline points="345,363 345,314 381,314 381,358" stroke="#6d725c" /></g><g id="3D15" stroke="red"><polyline points="293,427 293,387 330,381 330,427" stroke="#6d725c" /></g><g id="3D16" stroke="red"><polyline points="345,416 345,379 381,373 381,416" stroke="#6d725c" /></g><g id="3D17" stroke="red"><polyline points="330,466 293,466 293,427 330,427" stroke="#6d725c" /></g><g id="3D18" stroke="red"><polyline points="345,458 345,416 381,416 381,458" stroke="#6d725c" /></g><g id="3D19" stroke="red"><polyline points="293,466 330,466 330,501 293,501" stroke="#6d725c" /></g><g id="3D20" stroke="red"><polyline points="345,501 345,458 381,458 381,501" stroke="#6d725c" /></g><g id="3D21" stroke="red"><polyline points="310,592 310,541 305,541 305,519 344,519 344,592" stroke="#6d725c" /></g><g id="3D22" stroke="red"><polyline points="344,519 382,519 382,539 380,539 380,592 344,592" stroke="#6d725c" /></g><g id="3E01" stroke="red"><polyline points="384,85 384,39 422,39 422,85" stroke="#6d725c" /></g><g id="3E02" stroke="red"><polyline points="422,85 422,39 460,39 460,85" stroke="#6d725c" /></g><g id="3E03" stroke="red"><polyline points="381,139 381,103 415,103 415,139" stroke="#6d725c" /></g><g id="3E04" stroke="red"><polyline points="430,148 430,103 456,103 456,148" stroke="#6d725c" /></g><g id="3E05" stroke="red"><polyline points="381,175 381,139 415,139 415,175" stroke="#6d725c" /></g><g id="3E06" stroke="red"><polyline points="430,203 430,148 456,148 456,199" stroke="#6d725c" /></g><g id="3E07" stroke="red"><polyline points="381,175 415,175 415,206 381,211" stroke="#6d725c" /></g><g id="3E08" stroke="red"><polyline points="430,258 430,219 458,215 458,258" stroke="#6d725c" /></g><g id="3E09" stroke="red"><polyline points="381,270 381,227 415,222 415,270" stroke="#6d725c" /></g><g id="3E10" stroke="red"><polyline points="430,302 430,258 458,258 458,302" stroke="#6d725c" /></g><g id="3E11" stroke="red"><polyline points="381,314 381,270 415,270 415,314" stroke="#6d725c" /></g><g id="3E12" stroke="red"><polyline points="430,350 430,302 458,302 458,345" stroke="#6d725c" /></g><g id="3E13" stroke="red"><polyline points="381,314 415,314 415,352 381,358" stroke="#6d725c" /></g><g id="3E14" stroke="red"><polyline points="430,408 430,366 458,361 458,408" stroke="#6d725c" /></g><g id="3E15" stroke="red"><polyline points="381,416 381,373 415,368 415,416" stroke="#6d725c" /></g><g id="3E16" stroke="red"><polyline points="430,454 430,408 458,408 458,454" stroke="#6d725c" /></g><g id="3E17" stroke="red"><polyline points="381,458 381,416 415,416 415,458" stroke="#6d725c" /></g><g id="3E18" stroke="red"><polyline points="430,501 430,454 458,454 458,501" stroke="#6d725c" /></g><g id="3E19" stroke="red"><polyline points="381,458 415,458 415,501 381,501" stroke="#6d725c" /></g><g id="3E20" stroke="red"><polyline points="430,541 430,519 469,519 469,541" stroke="#6d725c" /></g><g id="3E21" stroke="red"><polyline points="384,541 384,519 415,519 415,541" stroke="#6d725c" /></g><g id="3F01" stroke="red"><polyline points="460,85 460,39 498,39 498,85" stroke="#6d725c" /></g><g id="3F02" stroke="red"><polyline points="498,39 536,39 536,85 498,85" stroke="#6d725c" /></g><g id="3F03" stroke="red"><polyline points="456,148 456,103 491,103 491,148" stroke="#6d725c" /></g><g id="3F04A" stroke="red"><polyline points="507,142 507,103 555,103 555,142" stroke="#6d725c" /></g><g id="3F04B" stroke="red"><polyline points="507,182 507,142 555,142 555,182" stroke="#6d725c" /></g><g id="3F05" stroke="red"><polyline points="456,148 491,148 491,193 456,199" stroke="#6d725c" /></g><g id="3F07" stroke="red"><polyline points="458,258 458,215 491,209 491,258" stroke="#6d725c" /></g><g id="3F08" stroke="red"><polyline points="564,251 560,226 548,201 567,198 599,198 599,251" stroke="#6d725c" /></g><g id="3F09" stroke="red"><polyline points="458,302 458,258 491,258 491,302" stroke="#6d725c" /></g><g id="3F11" stroke="red"><polyline points="458,302 491,302 491,340 458,345" stroke="#6d725c" /></g><g id="3F12" stroke="red"><polyline points="599,251 599,258 599,329 551,329 560,309 566,268 564,251" stroke="#6d725c" /></g><g id="3F13" stroke="red"><polyline points="458,408 458,361 491,356 491,408" stroke="#6d725c" /></g><g id="3F14" stroke="red"><polyline points="544,386 507,386 507,353 544,348 544,369" stroke="#6d725c" /></g><g id="3F15" stroke="red"><polyline points="458,454 458,408 491,408 491,454" stroke="#6d725c" /></g><g id="3F16" stroke="red"><polyline points="544,386 544,423 507,423 507,386" stroke="#6d725c" /></g><g id="3F17" stroke="red"><polyline points="458,454 491,454 491,501 458,501" stroke="#6d725c" /></g><g id="3F18" stroke="red"><polyline points="507,472 507,440 544,440 544,472" stroke="#6d725c" /></g><g id="3F20" stroke="red"><polyline points="507,501 507,472 544,472 544,472 544,501" stroke="#6d725c" /></g><g id="3F21" stroke="red"><polyline points="490,541 490,519 532,519 532,541" stroke="#6d725c" /></g><g id="3F22" stroke="red"><polyline points="544,472 582,472 582,501 544,501" stroke="#6d725c" /></g><g id="3F23" stroke="red"><polyline points="532,519 574,519 574,541 532,541" stroke="#6d725c" /></g><g id="3F24" stroke="red"><polyline points="592,501 592,472 627,472 627,501" stroke="#6d725c" /></g><g id="3F25" stroke="red"><polyline points="595,541 595,519 635,519 635,541" stroke="#6d725c" /></g><g id="3F26" stroke="red"><polyline points="627,501 627,472 662,472 662,501" stroke="#6d725c" /></g><g id="3G02" stroke="red"><polyline points="561,85 561,73 606,73 606,85" stroke="#6d725c" /></g><g id="3G04A" stroke="red"><polyline points="555,142 555,103 602,103 602,142" stroke="#6d725c" /></g><g id="3G04B" stroke="red"><polyline points="555,142 602,142 602,182 555,182" stroke="#6d725c" /></g><g id="3G06" stroke="red"><polyline points="507,268 507,207 532,203 545,231 551,268" stroke="#6d725c" /></g><g id="3G10" stroke="red"><polyline points="551,268 545,305 534,329 507,329 507,305 507,268" stroke="#6d725c" /></g><g id="3G13" stroke="red"><polyline points="544,369 544,348 563,345 603,345 603,369" stroke="#6d725c" /></g><g id="3G14" stroke="red"><polyline points="603,369 603,345 662,345 662,369" stroke="#6d725c" /></g><g id="3H01" stroke="red"><polyline points="606,85 606,73 606,39 645,39 645,85" stroke="#6d725c" /></g><g id="3H02" stroke="red"><polyline points="685,85 645,85 645,39 685,39 685,47" stroke="#6d725c" /></g><g id="3H04" stroke="red"><polyline points="618,142 618,103 697,103 697,142" stroke="#6d725c" /></g><g id="3H06" stroke="red"><polyline points="697,142 697,182 618,182 618,142" stroke="#6d725c" /></g><g id="3H08" stroke="red"><polyline points="645,263 645,231 645,203 645,198 686,198 697,209 697,231 697,263" stroke="#6d725c" /></g><g id="3H12" stroke="red"><polyline points="645,298 645,298 645,263 697,263 697,298" stroke="#6d725c" /></g><g id="3H14" stroke="red"><polyline points="697,298 697,311 685,329 645,329 645,298" stroke="#6d725c" /></g><g id="3I01" stroke="red"><polyline points="685,85 685,85 685,47 693,47 693,39 774,39 715,85" stroke="#6d725c" /></g><g id="3I02" stroke="red"><polyline points="715,176 715,85 774,39 774,176 738,176" stroke="#6d725c" /></g><g id="3I08" stroke="red"><polyline points="738,176 738,233 715,233 715,176" stroke="#6d725c" /></g><g id="3I10" stroke="red"><polyline points="738,264 774,264 774,287 715,287 715,249 738,249" stroke="#6d725c" /></g><g id="3I12" stroke="red"><polyline points="715,320 715,287 774,287 774,320" stroke="#6d725c" /></g><g id="3I14" stroke="red"><polyline points="715,354 715,320 774,320 774,354" stroke="#6d725c" /></g><g id="3I15" stroke="red"><polyline points="662,345 697,345 697,377 662,377 662,369" stroke="#6d725c" /></g><g id="3I16" stroke="red"><polyline points="715,388 715,354 774,354 774,388" stroke="#6d725c" /></g><g id="3I17" stroke="red"><polyline points="662,423 662,392 697,392 697,423" stroke="#6d725c" /></g><g id="3I18" stroke="red"><polyline points="715,422 715,422 715,388 774,388 774,422" stroke="#6d725c" /></g><g id="3I19" stroke="red"><polyline points="662,472 662,440 697,440 697,501 662,501" stroke="#6d725c" /></g><g id="3I20" stroke="red"><polyline points="715,455 715,422 774,422 774,455" stroke="#6d725c" /></g><g id="3I22" stroke="red"><polyline points="774,455 774,455 774,489 715,489 715,455 715,455" stroke="#6d725c" /></g><g id="3I23" stroke="red"><polyline points="741,581 738,583 734,585 731,587 727,588 724,589 720,590 716,591 712,591 708,592 704,592 680,592 680,541 656,541 656,519 715,519" stroke="#6d725c" /></g></svg>