<?xml version="1.0" encoding="utf-8" ?>
<svg baseProfile="full" height="625" version="1.1" width="800" xmlns="http://www.w3.org/2000/svg" xmlns:ev="http://www.w3.org/2001/xml-events" xmlns:xlink="http://www.w3.org/1999/xlink"><defs /><g id="1A01" stroke="red"><polyline fill="#FFFFFF" points="62,134 62,116 43,116 43,39 97,39 97,54 99,54 99,134" stroke="#6d725c" /></g><g id="1A02" stroke="red"><polyline fill="#FFFFFF" points="233,84 233,100 219,100 126,100 126,100 126,36 160,36 160,73 219,73 219,84 226,84 227,84" stroke="#6d725c" /></g><g id="1A03" stroke="red"><polyline fill="#FFFFFF" points="55,193 43,193 43,172 62,172 62,134 99,134 99,204 55,204" stroke="#6d725c" /></g><g id="1A04" stroke="red"><polyline fill="#FFFFFF" points="219,100 233,100 233,156 131,156 130,156 129,156 129,155 128,155 127,154 127,154 126,153 126,152 126,152 126,151 126,100" stroke="#6d725c" /></g><g id="1A05" stroke="red"><polyline fill="#FFFFFF" points="59,249 59,227 55,227 55,204 99,204 99,249" stroke="#6d725c" /></g><g id="1A06" stroke="red"><polyline fill="#FFFFFF" points="122,230 121,229 120,229 119,229 119,229 118,228 117,227 117,227 117,226 117,225 117,225 117,183 117,181 117,180 118,178 119,176 120,175 122,173 123,172 125,171 127,171 129,171 169,171 169,217 169,219 169,221 168,223 167,224 166,226 164,227 162,228 161,229 159,229 157,230" stroke="#6d725c" /></g><g id="1A09" stroke="red"><polyline fill="#FFFFFF" points="59,291 59,249 99,249 99,291" stroke="#6d725c" /></g><g id="1A10" stroke="red"><polyline fill="#FFFFFF" points="117,313 117,247 117,246 117,246 117,245 117,244 118,244 119,243 119,243 120,242 121,242 122,242 169,242 169,313" stroke="#6d725c" /></g><g id="1A11" stroke="red"><polyline fill="#FFFFFF" points="43,332 43,317 59,317 59,291 99,291 99,332" stroke="#6d725c" /></g><g id="1A13" stroke="red"><polyline fill="#FFFFFF" points="99,332 99,368 58,368 58,362 43,362 43,332" stroke="#6d725c" /></g><g id="1A14" stroke="red"><polyline fill="#FFFFFF" points="169,313 188,313 188,363 188,364 188,364 187,365 187,366 186,366 186,367 185,367 184,368 184,368 183,368 122,368 121,368 120,368 119,367 119,367 118,366 117,366 117,365 117,364 117,364 117,363 117,313 117,313" stroke="#6d725c" /></g><g id="1A15" stroke="red"><polyline fill="#FFFFFF" points="43,424 43,388 58,388 58,383 99,383 99,424" stroke="#6d725c" /></g><g id="1A16" stroke="red"><polyline fill="#FFFFFF" points="122,462 121,462 120,461 119,461 119,461 118,460 117,460 117,459 117,458 117,457 117,457 117,388 117,387 117,386 117,386 117,385 118,384 119,384 119,383 120,383 121,383 122,383 152,383 152,462" stroke="#6d725c" /></g><g id="1A17" stroke="red"><polyline fill="#FFFFFF" points="43,466 43,466 43,424 43,424 99,424 99,466" stroke="#6d725c" /></g><g id="1A19" stroke="red"><polyline fill="#FFFFFF" points="114,526 43,526 43,466 99,466 99,466 99,479 114,479" stroke="#6d725c" /></g><g id="1A20" stroke="red"><polyline fill="#FFFFFF" points="165,564 134,564 134,576 119,576 119,526 114,526 114,479 165,479 165,526" stroke="#6d725c" /></g><g id="1B08" stroke="red"><polyline fill="#FFFFFF" points="199,230 197,229 195,229 194,228 192,227 190,226 189,224 188,223 187,221 187,219 187,217 187,183 187,181 187,180 188,178 189,176 190,175 192,173 194,172 195,171 197,171 199,171 239,171 239,225 239,225 239,226 239,227 238,227 238,228 237,229 237,229 236,229 235,229 234,230" stroke="#6d725c" /></g><g id="1B10" stroke="red"><polyline fill="#FFFFFF" points="205,283 187,283 187,247 187,246 187,246 187,245 188,244 188,244 189,243 189,243 190,242 191,242 192,242 240,242 240,283" stroke="#6d725c" /></g><g id="1B15" stroke="red"><polyline fill="#FFFFFF" points="152,383 182,383 183,383 183,383 184,383 185,384 185,384 186,385 186,386 187,386 187,387 187,388 187,457 187,457 187,458 186,459 186,460 185,460 185,461 184,461 183,461 183,462 182,462 152,462" stroke="#6d725c" /></g><g id="1B16" stroke="red"><polyline fill="#FFFFFF" points="240,283 240,363 240,364 239,364 239,365 239,366 238,366 238,367 237,367 236,368 235,368 235,368 210,368 209,368 208,368 207,367 207,367 206,366 206,366 205,365 205,364 205,364 205,363 205,283" stroke="#6d725c" /></g><g id="1B18" stroke="red"><polyline fill="#FFFFFF" points="207,462 206,462 205,461 205,461 204,461 203,460 203,460 203,459 202,458 202,457 202,457 202,388 202,387 202,386 203,386 203,385 203,384 204,384 205,383 205,383 206,383 207,383 240,383 240,462" stroke="#6d725c" /></g><g id="1B19" stroke="red"><polyline fill="#FFFFFF" points="165,479 208,479 209,479 209,480 210,480 211,480 211,481 212,481 212,482 213,483 213,483 213,484 213,509 213,526 165,526" stroke="#6d725c" /></g><g id="1B20" stroke="red"><polyline fill="#FFFFFF" points="234,506 234,484 234,483 234,483 234,482 235,481 235,481 236,480 237,480 237,480 238,479 239,479 304,479 304,506" stroke="#6d725c" /></g><g id="1C01" stroke="red"><polyline fill="#FFFFFF" points="309,156 233,156 233,84 233,84 227,84 227,39 239,39 239,36 309,36 309,108" stroke="#6d725c" /></g><g id="1C07" stroke="red"><polyline fill="#FFFFFF" points="260,230 259,229 258,229 258,229 257,229 256,228 256,227 255,227 255,226 255,225 255,225 255,176 255,175 255,174 255,174 256,173 256,172 257,172 258,171 258,171 259,171 260,171 313,171 313,171 314,171 315,171 316,172 316,172 317,173 317,174 317,174 318,175 318,176 318,225 318,225 317,226 317,227 317,227 316,228 316,229 315,229 314,229 313,229 313,230" stroke="#6d725c" /></g><g id="1C09" stroke="red"><polyline fill="#FFFFFF" points="255,305 255,247 255,246 255,246 255,245 256,244 256,244 257,243 258,243 258,242 259,242 260,242 313,242 313,242 314,242 315,243 316,243 316,244 317,244 317,245 317,246 318,246 318,247 318,305" stroke="#6d725c" /></g><g id="1C15" stroke="red"><polyline fill="#FFFFFF" points="318,305 318,363 318,364 317,364 317,365 317,366 316,366 316,367 315,367 314,368 313,368 313,368 260,368 259,368 258,368 258,367 257,367 256,366 256,366 255,365 255,364 255,364 255,363 255,305" stroke="#6d725c" /></g><g id="1C17" stroke="red"><polyline fill="#FFFFFF" points="260,462 259,462 258,461 258,461 257,461 256,460 256,460 255,459 255,458 255,457 255,457 255,388 255,387 255,386 255,386 256,385 256,384 257,384 258,383 258,383 259,383 260,383 313,383 313,383 314,383 315,383 316,384 316,384 317,385 317,386 317,386 318,387 318,388 318,457 318,457 317,458 317,459 317,460 316,460 316,461 315,461 314,461 313,462 313,462" stroke="#6d725c" /></g><g id="1C20" stroke="red"><polyline fill="#FFFFFF" points="308,576 308,526 304,526 304,506 304,479 341,479 341,576" stroke="#6d725c" /></g><g id="1D01" stroke="red"><polyline fill="#FFFFFF" points="309,108 309,36 354,36 354,39 376,39 376,60 380,60 380,108" stroke="#6d725c" /></g><g id="1D03" stroke="red"><polyline fill="#FFFFFF" points="309,108 380,108 381,135 380,138 379,141 378,144 376,147 374,150 372,152 369,154 366,155 363,156 360,156 309,156" stroke="#6d725c" /></g><g id="1D04" stroke="red"><polyline fill="#FFFFFF" points="402,142 402,125 423,125 423,142" stroke="#6d725c" /></g><g id="1D07" stroke="red"><polyline fill="#FFFFFF" points="340,230 339,229 339,229 338,229 337,229 337,228 336,227 336,227 335,226 335,225 335,225 335,176 335,175 335,174 336,174 336,173 337,172 337,172 338,171 339,171 339,171 340,171 395,171 396,171 396,171 397,171 398,172 398,172 399,173 399,174 400,174 400,175 400,176 400,225 400,225 400,226 399,227 399,227 398,228 398,229 397,229 396,229 396,229 395,230" stroke="#6d725c" /></g><g id="1D09" stroke="red"><polyline fill="#FFFFFF" points="335,305 335,247 335,246 335,246 336,245 336,244 337,244 337,243 338,243 339,242 339,242 340,242 395,242 396,242 396,242 397,243 398,243 398,244 399,244 399,245 400,246 400,246 400,247 400,305" stroke="#6d725c" /></g><g id="1D15" stroke="red"><polyline fill="#FFFFFF" points="400,305 400,363 400,364 400,364 399,365 399,366 398,366 398,367 397,367 396,368 396,368 395,368 340,368 339,368 339,368 338,367 337,367 337,366 336,366 336,365 335,364 335,364 335,363 335,305" stroke="#6d725c" /></g><g id="1D19" stroke="red"><polyline fill="#FFFFFF" points="341,479 378,479 378,525 376,525 376,576 341,576" stroke="#6d725c" /></g><g id="1D20" stroke="red"><polyline fill="#FFFFFF" points="431,576 378,576 378,530 380,530 380,509 380,479 417,479 417,531 431,531" stroke="#6d725c" /></g><g id="1E02" stroke="red"><polyline fill="#FFFFFF" points="444,108 444,60 448,60 448,36 499,36 499,53 512,53 512,73 520,73 520,88 520,95 520,108" stroke="#6d725c" /></g><g id="1E04" stroke="red"><polyline fill="#FFFFFF" points="520,108 520,151 520,152 520,152 520,153 519,154 519,154 518,155 518,155 517,156 516,156 515,156 465,156 462,156 459,155 456,154 453,152 450,150 448,147 446,144 445,141 444,138 444,135 444,108" stroke="#6d725c" /></g><g id="1E06" stroke="red"><polyline fill="#FFFFFF" points="430,230 429,229 428,229 428,229 427,229 426,228 426,227 425,227 425,226 425,225 425,225 425,176 425,175 425,174 425,174 426,173 426,172 427,172 428,171 428,171 429,171 430,171 523,171 523,225 523,225 523,226 522,227 522,227 521,228 521,229 520,229 519,229 519,229 518,230" stroke="#6d725c" /></g><g id="1E10" stroke="red"><polyline fill="#FFFFFF" points="425,305 425,304 425,247 425,246 425,246 425,245 426,244 426,244 427,243 428,243 428,242 429,242 430,242 475,242 475,304 475,305" stroke="#6d725c" /></g><g id="1E14" stroke="red"><polyline fill="#FFFFFF" points="436,367 434,368 433,368 431,368 430,367 428,366 427,365 426,364 426,363 425,361 425,360 425,305 475,305 475,354" stroke="#6d725c" /></g><g id="1E16" stroke="red"><polyline fill="#FFFFFF" points="535,408 535,459 513,459 513,459 513,462 430,462 429,462 428,461 428,461 427,461 426,460 426,460 425,459 425,458 425,457 425,457 425,393 425,392 425,391 425,390 426,389 426,388 427,388 428,387 429,386 430,386 431,385 499,362 535,352 535,359" stroke="#6d725c" /></g><g id="1E20" stroke="red"><polyline fill="#FFFFFF" points="431,531 417,531 417,479 444,479 444,531" stroke="#6d725c" /></g><g id="1F06" stroke="red"><polyline fill="#FFFFFF" points="538,198 538,176 538,175 538,174 539,174 539,173 540,172 540,172 541,171 542,171 542,171 543,171 594,171 594,198" stroke="#6d725c" /></g><g id="1F08" stroke="red"><polyline fill="#FFFFFF" points="538,225 538,198 594,198 594,225" stroke="#6d725c" /></g><g id="1F09" stroke="red"><polyline fill="#FFFFFF" points="475,305 475,304 475,242 523,242 523,305" stroke="#6d725c" /></g><g id="1F10" stroke="red"><polyline fill="#FFFFFF" points="538,252 538,225 594,225 594,252 587,252" stroke="#6d725c" /></g><g id="1F12" stroke="red"><polyline fill="#FFFFFF" points="538,290 538,252 587,252 587,290" stroke="#6d725c" /></g><g id="1F13" stroke="red"><polyline fill="#FFFFFF" points="475,305 523,305 523,334 523,334 523,335 523,336 522,336 522,337 522,337 521,338 521,338 520,338 520,338 475,354" stroke="#6d725c" /></g><g id="1F14" stroke="red"><polyline fill="#FFFFFF" points="587,290 587,321 544,332 543,332 542,332 542,332 541,331 540,331 539,330 539,330 538,329 538,328 538,327 538,290" stroke="#6d725c" /></g><g id="1F19" stroke="red"><polyline fill="#FFFFFF" points="444,479 490,479 491,479 492,480 493,480 493,480 494,481 494,481 495,482 495,483 495,483 495,484 495,509 495,526 459,526 459,531 444,531" stroke="#6d725c" /></g><g id="1F20" stroke="red"><polyline fill="#FFFFFF" points="535,459 562,459 562,506 518,506 517,506 516,505 516,505 515,505 514,504 514,503 513,503 513,502 513,501 513,501 513,459" stroke="#6d725c" /></g><g id="1F22" stroke="red"><polyline fill="#FFFFFF" points="589,506 589,459 619,459 619,506" stroke="#6d725c" /></g><g id="1F24" stroke="red"><polyline fill="#FFFFFF" points="619,459 645,459 645,506 619,506" stroke="#6d725c" /></g><g id="1G04A" stroke="red"><polyline fill="#FFFFFF" points="694,246 644,246 644,246 644,36 694,36 694,54" stroke="#6d725c" /></g><g id="1G04B" stroke="red"><polyline fill="#FFFFFF" points="684,380 667,380 667,359 644,359 644,338 644,246 684,246" stroke="#6d725c" /></g><g id="1G04C" stroke="red"><polyline fill="#FFFFFF" points="723,380 684,380 684,246 723,246 723,258" stroke="#6d725c" /></g><g id="1G04D" stroke="red"><polyline fill="#FFFFFF" points="723,258 758,258 758,380 723,380" stroke="#6d725c" /></g><g id="1G12" stroke="red"><polyline fill="#FFFFFF" points="535,359 535,352 589,338 589,359" stroke="#6d725c" /></g><g id="1G13" stroke="red"><polyline fill="#FFFFFF" points="589,359 589,338 631,338 644,338 644,359" stroke="#6d725c" /></g><g id="1Y01" stroke="red"><polyline fill="#FFFFFF" points="694,246 694,54 696,54 696,39 758,39 758,173 723,173 723,246" stroke="#6d725c" /></g><g id="1Y02" stroke="red"><polyline fill="#FFFFFF" points="536,156 536,73 595,73 595,36 627,36 627,135 626,138 626,141 624,144 623,147 620,150 618,152 615,154 612,155 609,156 606,156 598,156 575,156" stroke="#6d725c" /></g></svg>