<?xml version="1.0" encoding="utf-8" ?>
<svg baseProfile="full" height="498" version="1.1" width="800" xmlns="http://www.w3.org/2000/svg" xmlns:ev="http://www.w3.org/2001/xml-events" xmlns:xlink="http://www.w3.org/1999/xlink"><defs /><g id="4A01" stroke="red"><polyline fill="#FFFFFF" points="79,464 79,427 95,427 95,414 138,414 138,464" stroke="#6d725c" /></g><g id="4A02" stroke="red"><polyline fill="#FFFFFF" points="138,414 176,414 176,464 138,464" stroke="#6d725c" /></g><g id="4A03" stroke="red"><polyline fill="#FFFFFF" points="120,396 74,396 74,355 74,355 120,355" stroke="#6d725c" /></g><g id="4A04" stroke="red"><polyline fill="#FFFFFF" points="138,396 138,356 166,356 166,396" stroke="#6d725c" /></g><g id="4A05" stroke="red"><polyline fill="#FFFFFF" points="74,355 74,340 75,340 75,314 120,314 120,355" stroke="#6d725c" /></g><g id="4A06" stroke="red"><polyline fill="#FFFFFF" points="166,356 138,356 138,316 166,316 166,356" stroke="#6d725c" /></g><g id="4A07" stroke="red"><polyline fill="#FFFFFF" points="75,314 75,266 120,266 120,314 120,314" stroke="#6d725c" /></g><g id="4A08" stroke="red"><polyline fill="#FFFFFF" points="179,267 179,300 138,300 138,267" stroke="#6d725c" /></g><g id="4A10" stroke="red"><polyline fill="#FFFFFF" points="138,267 138,234 179,234 179,267" stroke="#6d725c" /></g><g id="4A11" stroke="red"><polyline fill="#FFFFFF" points="120,209 120,249 74,249 74,209" stroke="#6d725c" /></g><g id="4A12" stroke="red"><polyline fill="#FFFFFF" points="138,234 138,202 179,202 179,234" stroke="#6d725c" /></g><g id="4A13" stroke="red"><polyline fill="#FFFFFF" points="74,209 74,172 81,172 81,169 120,169 120,209" stroke="#6d725c" /></g><g id="4A14" stroke="red"><polyline fill="#FFFFFF" points="138,202 138,169 179,169 179,202" stroke="#6d725c" /></g><g id="4A15" stroke="red"><polyline fill="#FFFFFF" points="90,153 90,142 91,142 91,97 120,97 120,153" stroke="#6d725c" /></g><g id="4A16" stroke="red"><polyline fill="#FFFFFF" points="138,153 138,97 166,97 166,153" stroke="#6d725c" /></g><g id="4B01" stroke="red"><polyline fill="#FFFFFF" points="214,464 176,464 176,414 214,414" stroke="#6d725c" /></g><g id="4B02" stroke="red"><polyline fill="#FFFFFF" points="214,464 214,414 252,414 252,464" stroke="#6d725c" /></g><g id="4B03" stroke="red"><polyline fill="#FFFFFF" points="166,356 166,356 194,356 194,356 194,396 166,396" stroke="#6d725c" /></g><g id="4B04" stroke="red"><polyline fill="#FFFFFF" points="237,396 210,396 210,356 237,356 237,396" stroke="#6d725c" /></g><g id="4B05" stroke="red"><polyline fill="#FFFFFF" points="166,356 166,316 194,316 194,356" stroke="#6d725c" /></g><g id="4B06" stroke="red"><polyline fill="#FFFFFF" points="237,356 210,356 210,316 237,316 237,356" stroke="#6d725c" /></g><g id="4B07" stroke="red"><polyline fill="#FFFFFF" points="166,97 194,97 194,153 166,153 166,153" stroke="#6d725c" /></g><g id="4B08" stroke="red"><polyline fill="#FFFFFF" points="210,153 210,97 237,97 237,153" stroke="#6d725c" /></g><g id="4C01" stroke="red"><polyline fill="#FFFFFF" points="252,464 252,414 290,414 290,464" stroke="#6d725c" /></g><g id="4C02" stroke="red"><polyline fill="#FFFFFF" points="328,464 290,464 290,414 328,414" stroke="#6d725c" /></g><g id="4C03" stroke="red"><polyline fill="#FFFFFF" points="237,356 265,356 265,356 265,396 237,396" stroke="#6d725c" /></g><g id="4C04" stroke="red"><polyline fill="#FFFFFF" points="281,396 281,356 317,356 317,396" stroke="#6d725c" /></g><g id="4C05" stroke="red"><polyline fill="#FFFFFF" points="237,356 237,316 265,316 265,356" stroke="#6d725c" /></g><g id="4C06" stroke="red"><polyline fill="#FFFFFF" points="281,356 281,316 317,316 317,356" stroke="#6d725c" /></g><g id="4C07" stroke="red"><polyline fill="#FFFFFF" points="265,266 265,300 229,300 229,266" stroke="#6d725c" /></g><g id="4C08" stroke="red"><polyline fill="#FFFFFF" points="317,264 317,264 317,300 281,300 281,264" stroke="#6d725c" /></g><g id="4C09" stroke="red"><polyline fill="#FFFFFF" points="229,266 229,233 265,233 265,266" stroke="#6d725c" /></g><g id="4C10" stroke="red"><polyline fill="#FFFFFF" points="281,264 281,228 317,228 317,264" stroke="#6d725c" /></g><g id="4C11" stroke="red"><polyline fill="#FFFFFF" points="229,233 229,201 265,201 265,233" stroke="#6d725c" /></g><g id="4C12" stroke="red"><polyline fill="#FFFFFF" points="281,228 281,175 317,193 317,228" stroke="#6d725c" /></g><g id="4C13" stroke="red"><polyline fill="#FFFFFF" points="229,201 229,169 265,169 265,201" stroke="#6d725c" /></g><g id="4C14" stroke="red"><polyline fill="#FFFFFF" points="317,174 281,157 281,137 317,137 317,174" stroke="#6d725c" /></g><g id="4C15" stroke="red"><polyline fill="#FFFFFF" points="237,153 237,97 265,97 265,153 237,153 237,153" stroke="#6d725c" /></g><g id="4C16" stroke="red"><polyline fill="#FFFFFF" points="281,137 281,97 317,97 317,137" stroke="#6d725c" /></g><g id="4C17" stroke="red"><polyline fill="#FFFFFF" points="222,78 222,75 222,67 294,67 294,78" stroke="#6d725c" /></g><g id="4D01" stroke="red"><polyline fill="#FFFFFF" points="328,414 366,414 366,464 328,464" stroke="#6d725c" /></g><g id="4D02" stroke="red"><polyline fill="#FFFFFF" points="366,464 366,414 403,414 403,464" stroke="#6d725c" /></g><g id="4D03" stroke="red"><polyline fill="#FFFFFF" points="317,356 352,356 352,396 317,396" stroke="#6d725c" /></g><g id="4D04" stroke="red"><polyline fill="#FFFFFF" points="368,396 368,356 403,356 403,396" stroke="#6d725c" /></g><g id="4D05" stroke="red"><polyline fill="#FFFFFF" points="317,356 317,316 352,316 352,356" stroke="#6d725c" /></g><g id="4D06" stroke="red"><polyline fill="#FFFFFF" points="368,356 368,316 403,316 403,356" stroke="#6d725c" /></g><g id="4D07" stroke="red"><polyline fill="#FFFFFF" points="352,264 352,300 317,300 317,264" stroke="#6d725c" /></g><g id="4D08" stroke="red"><polyline fill="#FFFFFF" points="368,300 368,264 403,264 403,300" stroke="#6d725c" /></g><g id="4D09" stroke="red"><polyline fill="#FFFFFF" points="317,264 317,228 352,228 352,264" stroke="#6d725c" /></g><g id="4D10" stroke="red"><polyline fill="#FFFFFF" points="368,264 368,228 403,228 403,264" stroke="#6d725c" /></g><g id="4D11" stroke="red"><polyline fill="#FFFFFF" points="317,228 317,193 352,193 352,228" stroke="#6d725c" /></g><g id="4D12" stroke="red"><polyline fill="#FFFFFF" points="403,228 403,228 368,228 368,193 403,193" stroke="#6d725c" /></g><g id="4D13" stroke="red"><polyline fill="#FFFFFF" points="317,137 317,137 352,137 352,137 352,177 323,177 317,174" stroke="#6d725c" /></g><g id="4D14" stroke="red"><polyline fill="#FFFFFF" points="403,177 368,177 368,137 403,137 403,137" stroke="#6d725c" /></g><g id="4D15" stroke="red"><polyline fill="#FFFFFF" points="317,137 317,97 352,97 352,137" stroke="#6d725c" /></g><g id="4D16" stroke="red"><polyline fill="#FFFFFF" points="403,137 368,137 368,97 403,97 403,136" stroke="#6d725c" /></g><g id="4D17" stroke="red"><polyline fill="#FFFFFF" points="294,67 294,26 325,26 325,59 339,59 339,78 294,78" stroke="#6d725c" /></g><g id="4E01" stroke="red"><polyline fill="#FFFFFF" points="403,464 403,414 442,414 442,464" stroke="#6d725c" /></g><g id="4E02" stroke="red"><polyline fill="#FFFFFF" points="442,464 442,414 481,414 481,464" stroke="#6d725c" /></g><g id="4E03" stroke="red"><polyline fill="#FFFFFF" points="403,356 439,356 439,396 403,396" stroke="#6d725c" /></g><g id="4E04" stroke="red"><polyline fill="#FFFFFF" points="455,396 455,356 490,356 490,396" stroke="#6d725c" /></g><g id="4E05" stroke="red"><polyline fill="#FFFFFF" points="403,356 403,316 439,316 439,356" stroke="#6d725c" /></g><g id="4E06" stroke="red"><polyline fill="#FFFFFF" points="455,356 455,316 490,316 490,356" stroke="#6d725c" /></g><g id="4E07" stroke="red"><polyline fill="#FFFFFF" points="403,264 403,264 439,264 439,300 403,300" stroke="#6d725c" /></g><g id="4E08" stroke="red"><polyline fill="#FFFFFF" points="455,300 455,264 490,264 490,300" stroke="#6d725c" /></g><g id="4E09" stroke="red"><polyline fill="#FFFFFF" points="439,264 403,264 403,228 439,228" stroke="#6d725c" /></g><g id="4E10" stroke="red"><polyline fill="#FFFFFF" points="490,228 490,264 455,264 455,264 455,228 490,228" stroke="#6d725c" /></g><g id="4E11" stroke="red"><polyline fill="#FFFFFF" points="403,228 403,193 439,193 439,228" stroke="#6d725c" /></g><g id="4E12" stroke="red"><polyline fill="#FFFFFF" points="490,228 455,228 455,193 490,193 490,193" stroke="#6d725c" /></g><g id="4E13" stroke="red"><polyline fill="#FFFFFF" points="439,177 403,177 403,137 439,137" stroke="#6d725c" /></g><g id="4E14" stroke="red"><polyline fill="#FFFFFF" points="484,177 455,177 455,137 490,137 490,174" stroke="#6d725c" /></g><g id="4E15" stroke="red"><polyline fill="#FFFFFF" points="403,137 403,136 403,97 439,97 439,137" stroke="#6d725c" /></g><g id="4E16" stroke="red"><polyline fill="#FFFFFF" points="490,137 455,137 455,137 455,137 455,97 490,97 490,137" stroke="#6d725c" /></g><g id="4E17" stroke="red"><polyline fill="#FFFFFF" points="402,78 402,66 486,66 486,78" stroke="#6d725c" /></g><g id="4F01" stroke="red"><polyline fill="#FFFFFF" points="481,464 481,414 531,414 531,427 525,427 525,464 481,464 481,464" stroke="#6d725c" /></g><g id="4F03" stroke="red"><polyline fill="#FFFFFF" points="490,356 526,356 526,396 490,396" stroke="#6d725c" /></g><g id="4F04" stroke="red"><polyline fill="#FFFFFF" points="542,396 542,356 570,356 570,396" stroke="#6d725c" /></g><g id="4F05" stroke="red"><polyline fill="#FFFFFF" points="490,356 490,316 526,316 526,356" stroke="#6d725c" /></g><g id="4F06" stroke="red"><polyline fill="#FFFFFF" points="542,356 542,316 570,316 570,356" stroke="#6d725c" /></g><g id="4F07" stroke="red"><polyline fill="#FFFFFF" points="490,264 526,264 526,300 490,300" stroke="#6d725c" /></g><g id="4F08" stroke="red"><polyline fill="#FFFFFF" points="578,266 578,300 542,300 542,266" stroke="#6d725c" /></g><g id="4F09" stroke="red"><polyline fill="#FFFFFF" points="490,264 490,228 526,228 526,264" stroke="#6d725c" /></g><g id="4F10" stroke="red"><polyline fill="#FFFFFF" points="542,266 542,233 578,233 578,266" stroke="#6d725c" /></g><g id="4F12" stroke="red"><polyline fill="#FFFFFF" points="542,233 542,201 578,201 578,233" stroke="#6d725c" /></g><g id="4F13" stroke="red"><polyline fill="#FFFFFF" points="490,228 490,193 526,175 526,228" stroke="#6d725c" /></g><g id="4F14" stroke="red"><polyline fill="#FFFFFF" points="542,201 542,169 578,169 578,201" stroke="#6d725c" /></g><g id="4F15" stroke="red"><polyline fill="#FFFFFF" points="490,137 490,137 490,137 526,137 526,137 526,157 490,174 490,174" stroke="#6d725c" /></g><g id="4F16" stroke="red"><polyline fill="#FFFFFF" points="542,153 542,97 570,97 570,153" stroke="#6d725c" /></g><g id="4F17" stroke="red"><polyline fill="#FFFFFF" points="490,137 490,97 526,97 526,137" stroke="#6d725c" /></g><g id="4F18" stroke="red"><polyline fill="#FFFFFF" points="549,78 549,26 587,26 587,78" stroke="#6d725c" /></g><g id="4F19" stroke="red"><polyline fill="#FFFFFF" points="502,78 502,66 511,66 511,26 549,26 549,78" stroke="#6d725c" /></g><g id="4G01" stroke="red"><polyline fill="#FFFFFF" points="547,427 547,414 628,414 628,427" stroke="#6d725c" /></g><g id="4G03" stroke="red"><polyline fill="#FFFFFF" points="570,356 597,356 597,396 570,396" stroke="#6d725c" /></g><g id="4G04" stroke="red"><polyline fill="#FFFFFF" points="613,396 613,356 641,356 641,396" stroke="#6d725c" /></g><g id="4G05" stroke="red"><polyline fill="#FFFFFF" points="570,356 570,316 597,316 597,356" stroke="#6d725c" /></g><g id="4G06" stroke="red"><polyline fill="#FFFFFF" points="613,356 613,316 641,316 641,356" stroke="#6d725c" /></g><g id="4G07" stroke="red"><polyline fill="#FFFFFF" points="570,97 597,97 597,153 570,153" stroke="#6d725c" /></g><g id="4G08" stroke="red"><polyline fill="#FFFFFF" points="613,153 613,97 641,97 641,153" stroke="#6d725c" /></g><g id="4G09" stroke="red"><polyline fill="#FFFFFF" points="587,78 587,26 626,26 626,78" stroke="#6d725c" /></g><g id="4H01" stroke="red"><polyline fill="#FFFFFF" points="630,464 630,459 634,459 634,437 628,437 628,427 628,414 688,414 688,464" stroke="#6d725c" /></g><g id="4H02" stroke="red"><polyline fill="#FFFFFF" points="688,389 718,389 733,389 733,391 756,415 705,464 705,464 688,464" stroke="#6d725c" /></g><g id="4H03" stroke="red"><polyline fill="#FFFFFF" points="641,356 669,356 669,396 641,396" stroke="#6d725c" /></g><g id="4H04" stroke="red"><polyline fill="#FFFFFF" points="688,389 688,339 718,339 718,389" stroke="#6d725c" /></g><g id="4H05" stroke="red"><polyline fill="#FFFFFF" points="641,356 641,316 669,316 669,356" stroke="#6d725c" /></g><g id="4H06" stroke="red"><polyline fill="#FFFFFF" points="733,284 733,298 726,298 726,323 688,323 688,284 688,284" stroke="#6d725c" /></g><g id="4H07" stroke="red"><polyline fill="#FFFFFF" points="669,267 669,300 628,300 628,267" stroke="#6d725c" /></g><g id="4H08" stroke="red"><polyline fill="#FFFFFF" points="688,284 688,244 688,244 733,244 733,284" stroke="#6d725c" /></g><g id="4H09" stroke="red"><polyline fill="#FFFFFF" points="628,267 628,234 628,234 669,234 669,267" stroke="#6d725c" /></g><g id="4H10" stroke="red"><polyline fill="#FFFFFF" points="688,244 688,193 726,193 726,219 752,219 752,245 738,245 738,244 733,244" stroke="#6d725c" /></g><g id="4H11" stroke="red"><polyline fill="#FFFFFF" points="628,234 628,202 669,202 669,234" stroke="#6d725c" /></g><g id="4H13" stroke="red"><polyline fill="#FFFFFF" points="628,202 628,169 669,169 669,202" stroke="#6d725c" /></g><g id="4H14" stroke="red"><polyline fill="#FFFFFF" points="726,136 726,177 688,177 688,136" stroke="#6d725c" /></g><g id="4H15" stroke="red"><polyline fill="#FFFFFF" points="641,97 669,97 669,153 641,153" stroke="#6d725c" /></g><g id="4H16" stroke="red"><polyline fill="#FFFFFF" points="688,136 688,96 733,96 733,136 726,136" stroke="#6d725c" /></g><g id="4H17" stroke="red"><polyline fill="#FFFFFF" points="626,78 626,26 664,26 664,78" stroke="#6d725c" /></g><g id="4H18" stroke="red"><polyline fill="#FFFFFF" points="664,26 703,26 703,78 664,78" stroke="#6d725c" /></g></svg>