<?xml version="1.0" encoding="utf-8" ?>
<svg baseProfile="full" height="498" version="1.1" width="800" xmlns="http://www.w3.org/2000/svg" xmlns:ev="http://www.w3.org/2001/xml-events" xmlns:xlink="http://www.w3.org/1999/xlink"><defs /><g id="5H01" stroke="red"><polyline fill="#FFFFFF" points="649,299 649,169 709,169 709,299" stroke="#6d725c" /></g><g id="5H02" stroke="red"><polyline fill="#FFFFFF" points="606,134 606,78 618,78 618,27 677,27 677,79 709,79 709,134" stroke="#6d725c" /></g><g id="5H03" stroke="red"><polyline fill="#FFFFFF" points="328,449 254,449 254,316 328,316 328,388" stroke="#6d725c" /></g><g id="5T02A" stroke="red"><polyline fill="#FFFFFF" points="403,238 403,263 402,263 402,263 401,263 400,262 399,262 398,262 398,262 397,261 396,261 396,260 394,258 392,256 391,254 390,252 389,250 388,248 387,245 387,243 387,240 386,238 387,235 387,233 387,230 388,228 389,225 390,223 391,221 392,219 394,217 396,215 396,215 397,214 398,214 398,213 399,213 400,213 401,213 402,213 402,213 403,212" stroke="#6d725c" /></g><g id="5T02B" stroke="red"><polyline fill="#FFFFFF" points="403,238 420,238 420,240 419,242 419,244 418,246 418,249 417,251 416,253 415,255 414,257 413,258 412,259 411,260 410,261 409,261 408,262 407,262 406,262 405,263 404,263 403,263" stroke="#6d725c" /></g><g id="5T02C" stroke="red"><polyline fill="#FFFFFF" points="403,238 403,212 404,213 405,213 406,213 407,213 408,214 409,214 410,215 411,215 412,216 413,217 414,219 415,221 416,223 417,225 418,227 418,229 419,231 419,233 420,235 420,238" stroke="#6d725c" /></g><g id="5Y01" stroke="red"><polyline fill="#FFFFFF" points="227,295 227,178 258,178 258,295" stroke="#6d725c" /></g><g id="5Y02" stroke="red"><polyline fill="#FFFFFF" points="175,449 175,316 254,316 254,449" stroke="#6d725c" /></g><g id="XAA5W01" stroke="red"><polyline fill="#FFFFFF" points="569,254 569,237 578,237 578,254" stroke="#6d725c" /></g><g id="XAA5W02" stroke="red"><polyline fill="#FFFFFF" points="569,221 569,204 578,204 578,221" stroke="#6d725c" /></g><g id="XAA5W04" stroke="red"><polyline fill="#FFFFFF" points="558,372 551,366 561,353 569,358" stroke="#6d725c" /></g><g id="XAA5W06" stroke="red"><polyline fill="#FFFFFF" points="569,286 569,270 578,270 578,286" stroke="#6d725c" /></g><g id="XAA5W06" stroke="red"><polyline fill="#FFFFFF" points="569,286 569,270 578,270 578,286" stroke="#6d725c" /></g><g id="XAA5W06" stroke="red"><polyline fill="#FFFFFF" points="569,188 569,171 578,171 578,188" stroke="#6d725c" /></g><g id="XAA5W06" stroke="red"><polyline fill="#FFFFFF" points="569,188 569,171 578,171 578,188" stroke="#6d725c" /></g><g id="XAA5X01" stroke="red"><polyline fill="#FFFFFF" points="291,134 291,85 328,85 328,134" stroke="#6d725c" /></g><g id="XAA5X02" stroke="red"><polyline fill="#FFFFFF" points="328,134 328,85 365,85 365,134" stroke="#6d725c" /></g><g id="XAA5X03" stroke="red"><polyline fill="#FFFFFF" points="365,134 365,85 402,85 402,134" stroke="#6d725c" /></g><g id="XAA5X04" stroke="red"><polyline fill="#FFFFFF" points="402,134 402,85 442,85 442,134" stroke="#6d725c" /></g><g id="XAA5X05" stroke="red"><polyline fill="#FFFFFF" points="442,85 480,85 480,134 442,134" stroke="#6d725c" /></g><g id="XAA5X06" stroke="red"><polyline fill="#FFFFFF" points="497,134 497,85 533,85 533,134" stroke="#6d725c" /></g><g id="XAA5X07" stroke="red"><polyline fill="#FFFFFF" points="533,134 533,85 569,85 569,134" stroke="#6d725c" /></g><g id="XAA5X08" stroke="red"><polyline fill="#FFFFFF" points="569,85 605,85 605,134 569,134" stroke="#6d725c" /></g><g id="XAA5X09" stroke="red"><polyline fill="#FFFFFF" points="477,388 528,388 528,407 513,407 513,434 477,434" stroke="#6d725c" /></g><g id="XAA5X10" stroke="red"><polyline fill="#FFFFFF" points="477,449 440,449 440,388 477,388 477,434 477,434" stroke="#6d725c" /></g><g id="XAA5X11" stroke="red"><polyline fill="#FFFFFF" points="403,449 403,388 440,388 440,449" stroke="#6d725c" /></g><g id="XAA5X12" stroke="red"><polyline fill="#FFFFFF" points="366,388 402,388 402,449 366,449" stroke="#6d725c" /></g><g id="XAA5X13" stroke="red"><polyline fill="#FFFFFF" points="328,449 328,388 366,388 366,449" stroke="#6d725c" /></g><g id="XAA5Z02" stroke="red"><polyline fill="#FFFFFF" points="183,134 183,102 272,102 272,134" stroke="#6d725c" /></g><g id="XAA5Z03" stroke="red"><polyline fill="#FFFFFF" points="627,465 627,460 634,460 634,438 627,438 627,427 627,427 548,427 548,388 561,371 574,353 649,353 649,465" stroke="#6d725c" /></g><g id="XAA5Z04" stroke="red"><polyline fill="#FFFFFF" points="649,353 649,353 649,317 705,317 705,465 649,465" stroke="#6d725c" /></g><g id="XAA5Z06" stroke="red"><polyline fill="#FFFFFF" points="74,439 74,168 153,168 153,439" stroke="#6d725c" /></g></svg>