<?xml version="1.0" encoding="utf-8" ?>
<svg baseProfile="full" height="498" version="1.1" width="800" xmlns="http://www.w3.org/2000/svg" xmlns:ev="http://www.w3.org/2001/xml-events" xmlns:xlink="http://www.w3.org/1999/xlink"><defs /><g id="3A01" stroke="red"><polyline points="136,464 77,464 77,426 98,426 98,415 136,415" stroke="#6d725c" /></g><g id="3A02" stroke="red"><polyline points="136,464 136,415 177,415 177,464" stroke="#6d725c" /></g><g id="3A03" stroke="red"><polyline points="116,356 116,396 70,396 70,356" stroke="#6d725c" /></g><g id="3A04A" stroke="red"><polyline points="135,396 135,355 163,355 163,396" stroke="#6d725c" /></g><g id="3A04B" stroke="red"><polyline points="135,355 135,315 163,315 163,355" stroke="#6d725c" /></g><g id="3A05" stroke="red"><polyline points="71,315 116,315 116,356 70,356" stroke="#6d725c" /></g><g id="3A06A" stroke="red"><polyline points="176,273 176,299 135,299 135,273" stroke="#6d725c" /></g><g id="3A06B" stroke="red"><polyline points="135,273 135,247 176,247 176,273" stroke="#6d725c" /></g><g id="3A07" stroke="red"><polyline points="71,315 71,265 116,265 116,315" stroke="#6d725c" /></g><g id="3A08" stroke="red"><polyline points="135,247 135,221 176,221 176,247" stroke="#6d725c" /></g><g id="3A09" stroke="red"><polyline points="116,249 71,249 71,209 71,209 116,209 116,209" stroke="#6d725c" /></g><g id="3A10A" stroke="red"><polyline points="135,221 135,195 176,195 176,221" stroke="#6d725c" /></g><g id="3A10B" stroke="red"><polyline points="135,195 135,169 176,169 176,195" stroke="#6d725c" /></g><g id="3A11" stroke="red"><polyline points="116,209 71,209 71,172 78,172 78,168 116,168 116,209" stroke="#6d725c" /></g><g id="3A12" stroke="red"><polyline points="135,153 135,96 163,96 163,153" stroke="#6d725c" /></g><g id="3A13" stroke="red"><polyline points="87,152 87,96 116,96 116,152" stroke="#6d725c" /></g><g id="3A14" stroke="red"><polyline points="106,77 106,26 159,26 159,77" stroke="#6d725c" /></g><g id="3B01" stroke="red"><polyline points="177,464 177,415 214,415 214,464" stroke="#6d725c" /></g><g id="3B02" stroke="red"><polyline points="251,464 214,464 214,415 251,415" stroke="#6d725c" /></g><g id="3B03A" stroke="red"><polyline points="163,355 190,355 190,396 163,396" stroke="#6d725c" /></g><g id="3B03B" stroke="red"><polyline points="163,355 163,315 190,315 190,355 190,355" stroke="#6d725c" /></g><g id="3B04A" stroke="red"><polyline points="234,335 234,355 206,355 206,355 206,315 234,315" stroke="#6d725c" /></g><g id="3B04B" stroke="red"><polyline points="234,355 234,396 206,396 206,355" stroke="#6d725c" /></g><g id="3B05" stroke="red"><polyline points="163,96 190,96 190,153 163,153" stroke="#6d725c" /></g><g id="3B06A" stroke="red"><polyline points="234,153 206,153 206,124 221,124 234,124" stroke="#6d725c" /></g><g id="3B06B" stroke="red"><polyline points="221,124 206,124 206,96 234,96 234,124" stroke="#6d725c" /></g><g id="3B07" stroke="red"><polyline points="159,26 197,26 197,77 159,77" stroke="#6d725c" /></g><g id="3B08" stroke="red"><polyline points="236,77 197,77 197,26 236,26" stroke="#6d725c" /></g><g id="3C01" stroke="red"><polyline points="288,464 251,464 251,415 288,415 288,464 288,464" stroke="#6d725c" /></g><g id="3C02" stroke="red"><polyline points="326,464 288,464 288,415 326,415" stroke="#6d725c" /></g><g id="3C04" stroke="red"><polyline points="313,355 313,396 278,396 278,355 313,355" stroke="#6d725c" /></g><g id="3C05A" stroke="red"><polyline points="262,355 262,355 262,355 262,396 234,396 234,355" stroke="#6d725c" /></g><g id="3C05B" stroke="red"><polyline points="234,355 234,355 234,355 234,335 234,315 262,315 262,355" stroke="#6d725c" /></g><g id="3C06" stroke="red"><polyline points="313,355 278,355 278,315 313,315 313,327" stroke="#6d725c" /></g><g id="3C07A" stroke="red"><polyline points="262,275 262,299 225,299 225,275" stroke="#6d725c" /></g><g id="3C07B" stroke="red"><polyline points="262,275 225,275 225,249 262,249" stroke="#6d725c" /></g><g id="3C08" stroke="red"><polyline points="278,299 278,246 313,246 313,299" stroke="#6d725c" /></g><g id="3C09" stroke="red"><polyline points="262,209 262,249 225,249 225,209 262,209" stroke="#6d725c" /></g><g id="3C10A" stroke="red"><polyline points="313,246 278,246 278,215 313,215" stroke="#6d725c" /></g><g id="3C10B" stroke="red"><polyline points="313,215 278,215 278,175 313,193" stroke="#6d725c" /></g><g id="3C11" stroke="red"><polyline points="225,209 225,169 262,169 262,209" stroke="#6d725c" /></g><g id="3C12" stroke="red"><polyline points="313,175 278,157 278,136 313,136" stroke="#6d725c" /></g><g id="3C13" stroke="red"><polyline points="234,96 262,96 262,153 234,153" stroke="#6d725c" /></g><g id="3C14" stroke="red"><polyline points="278,136 278,96 313,96 313,136" stroke="#6d725c" /></g><g id="3C15" stroke="red"><polyline points="236,77 236,26 274,26 274,77" stroke="#6d725c" /></g><g id="3C16" stroke="red"><polyline points="274,57 327,57 327,77 274,77" stroke="#6d725c" /></g><g id="3D01" stroke="red"><polyline points="326,415 363,415 363,464 326,464" stroke="#6d725c" /></g><g id="3D02" stroke="red"><polyline points="400,464 363,464 363,415 400,415" stroke="#6d725c" /></g><g id="3D03" stroke="red"><polyline points="349,355 349,396 313,396 313,355" stroke="#6d725c" /></g><g id="3D04" stroke="red"><polyline points="365,396 365,355 400,355 400,355 400,396" stroke="#6d725c" /></g><g id="3D05" stroke="red"><polyline points="313,355 313,355 313,355 313,355 313,327 313,315 349,315 349,355" stroke="#6d725c" /></g><g id="3D06" stroke="red"><polyline points="400,355 365,355 365,315 400,315 400,347" stroke="#6d725c" /></g><g id="3D07" stroke="red"><polyline points="349,299 313,299 313,299 313,299 313,246 349,246" stroke="#6d725c" /></g><g id="3D08" stroke="red"><polyline points="400,299 365,299 365,244 400,244 400,244 400,246" stroke="#6d725c" /></g><g id="3D09" stroke="red"><polyline points="313,246 313,215 313,193 349,193 349,246" stroke="#6d725c" /></g><g id="3D10" stroke="red"><polyline points="365,244 365,193 400,193 400,244" stroke="#6d725c" /></g><g id="3D11" stroke="red"><polyline points="349,136 349,177 317,177 313,175 313,136 348,136 349,136" stroke="#6d725c" /></g><g id="3D12" stroke="red"><polyline points="400,177 365,177 365,136 400,136" stroke="#6d725c" /></g><g id="3D13" stroke="red"><polyline points="348,136 313,136 313,136 313,96 349,96 349,136" stroke="#6d725c" /></g><g id="3D14" stroke="red"><polyline points="365,96 400,96 400,136 365,136" stroke="#6d725c" /></g><g id="3D16" stroke="red"><polyline points="396,77 343,77 343,57 396,57 396,66" stroke="#6d725c" /></g><g id="3E01" stroke="red"><polyline points="400,464 400,415 400,415 443,415 443,464" stroke="#6d725c" /></g><g id="3E02" stroke="red"><polyline points="485,464 443,464 443,415 485,415" stroke="#6d725c" /></g><g id="3E03" stroke="red"><polyline points="400,355 435,355 435,396 400,396" stroke="#6d725c" /></g><g id="3E04" stroke="red"><polyline points="451,396 451,355 451,355 487,355 487,396" stroke="#6d725c" /></g><g id="3E05" stroke="red"><polyline points="400,355 400,355 400,355 400,355 400,347 400,315 435,315 435,355 435,355" stroke="#6d725c" /></g><g id="3E06" stroke="red"><polyline points="487,323 487,355 487,355 451,355 451,315 487,315" stroke="#6d725c" /></g><g id="3E07" stroke="red"><polyline points="435,299 400,299 400,246 400,246 400,246 435,246" stroke="#6d725c" /></g><g id="3E08" stroke="red"><polyline points="487,299 451,299 451,246 487,246 487,298" stroke="#6d725c" /></g><g id="3E09" stroke="red"><polyline points="400,246 400,193 435,193 435,246" stroke="#6d725c" /></g><g id="3E10" stroke="red"><polyline points="487,213 487,246 487,246 487,246 487,246 451,246 451,193 487,193" stroke="#6d725c" /></g><g id="3E11" stroke="red"><polyline points="400,136 435,136 435,177 400,177" stroke="#6d725c" /></g><g id="3E12" stroke="red"><polyline points="487,175 483,177 451,177 451,136 487,136 487,136 487,136 487,136" stroke="#6d725c" /></g><g id="3E13" stroke="red"><polyline points="400,136 400,96 435,96 435,136" stroke="#6d725c" /></g><g id="3E14" stroke="red"><polyline points="451,136 451,96 487,96 487,136" stroke="#6d725c" /></g><g id="3E15" stroke="red"><polyline points="396,77 396,66 439,66 439,77" stroke="#6d725c" /></g><g id="3E16" stroke="red"><polyline points="439,66 483,66 483,77 439,77" stroke="#6d725c" /></g><g id="3F01" stroke="red"><polyline points="485,415 528,415 528,427 522,427 522,464 485,464" stroke="#6d725c" /></g><g id="3F02" stroke="red"><polyline points="544,427 544,415 609,415 609,427" stroke="#6d725c" /></g><g id="3F03" stroke="red"><polyline points="522,396 487,396 487,355 487,355 487,355 522,355" stroke="#6d725c" /></g><g id="3F04A" stroke="red"><polyline points="538,396 538,355 566,355 566,396" stroke="#6d725c" /></g><g id="3F04B" stroke="red"><polyline points="538,355 538,315 566,315 566,355" stroke="#6d725c" /></g><g id="3F05" stroke="red"><polyline points="522,355 487,355 487,323 487,315 522,315 522,355 522,355" stroke="#6d725c" /></g><g id="3F06" stroke="red"><polyline points="575,299 538,299 538,249 575,249" stroke="#6d725c" /></g><g id="3F07" stroke="red"><polyline points="487,298 487,246 522,246 522,299 487,299" stroke="#6d725c" /></g><g id="3F08" stroke="red"><polyline points="538,249 538,249 538,209 575,209 575,249" stroke="#6d725c" /></g><g id="3F09A" stroke="red"><polyline points="522,246 487,246 487,213 522,213" stroke="#6d725c" /></g><g id="3F09B" stroke="red"><polyline points="522,213 487,213 487,193 522,175 522,213 522,213" stroke="#6d725c" /></g><g id="3F10" stroke="red"><polyline points="538,209 538,169 575,169 575,209" stroke="#6d725c" /></g><g id="3F11" stroke="red"><polyline points="487,136 522,136 522,157 487,175" stroke="#6d725c" /></g><g id="3F12" stroke="red"><polyline points="538,153 538,96 566,96 566,153" stroke="#6d725c" /></g><g id="3F13" stroke="red"><polyline points="487,136 487,96 522,96 522,136 487,136" stroke="#6d725c" /></g><g id="3F15" stroke="red"><polyline points="499,77 499,66 507,66 507,26 545,26 545,77" stroke="#6d725c" /></g><g id="3G01A" stroke="red"><polyline points="566,376 594,376 594,396 566,396" stroke="#6d725c" /></g><g id="3G01B" stroke="red"><polyline points="566,355 566,315 594,315 594,355 594,355" stroke="#6d725c" /></g><g id="3G01C" stroke="red"><polyline points="566,376 566,355 594,355 594,376" stroke="#6d725c" /></g><g id="3G02A" stroke="red"><polyline points="610,396 610,355 638,355 638,396" stroke="#6d725c" /></g><g id="3G02B" stroke="red"><polyline points="610,355 610,315 638,315 638,355" stroke="#6d725c" /></g><g id="3G03" stroke="red"><polyline points="566,96 594,96 594,153 566,153" stroke="#6d725c" /></g><g id="3G04" stroke="red"><polyline points="638,153 610,153 610,96 638,96 638,124" stroke="#6d725c" /></g><g id="3G05" stroke="red"><polyline points="545,77 545,26 584,26 584,77" stroke="#6d725c" /></g><g id="3G06" stroke="red"><polyline points="584,77 584,26 623,26 623,77" stroke="#6d725c" /></g><g id="3H01" stroke="red"><polyline points="694,462 694,462 694,462 691,462 691,464 627,464 627,458 631,458 631,436 624,436 624,427 609,427 609,415 660,415" stroke="#6d725c" /></g><g id="3H02" stroke="red"><polyline points="753,415 702,463 694,462 694,462 660,415 660,415 685,391 702,391 730,391" stroke="#6d725c" /></g><g id="3H04" stroke="red"><polyline points="730,391 702,391 685,391 685,339 723,339 723,383 730,383 730,391 730,391" stroke="#6d725c" /></g><g id="3H05A" stroke="red"><polyline points="638,355 638,355 666,355 666,355 666,383 652,396 638,396" stroke="#6d725c" /></g><g id="3H05B" stroke="red"><polyline points="638,355 638,315 666,315 666,355" stroke="#6d725c" /></g><g id="3H06" stroke="red"><polyline points="730,283 730,298 723,298 723,323 685,323 685,283" stroke="#6d725c" /></g><g id="3H07" stroke="red"><polyline points="666,299 624,299 624,249 666,249" stroke="#6d725c" /></g><g id="3H08" stroke="red"><polyline points="685,244 730,244 730,283 685,283" stroke="#6d725c" /></g><g id="3H09" stroke="red"><polyline points="624,249 624,209 666,209 666,249 666,249" stroke="#6d725c" /></g><g id="3H10" stroke="red"><polyline points="730,244 685,244 685,193 723,193 723,219 748,219 748,244 736,244 736,244 730,244" stroke="#6d725c" /></g><g id="3H11" stroke="red"><polyline points="624,209 624,169 666,169 666,209 666,209" stroke="#6d725c" /></g><g id="3H12" stroke="red"><polyline points="723,177 685,177 685,136 723,136" stroke="#6d725c" /></g><g id="3H13A" stroke="red"><polyline points="638,124 666,124 666,153 638,153" stroke="#6d725c" /></g><g id="3H13B" stroke="red"><polyline points="638,124 638,96 666,96 666,124" stroke="#6d725c" /></g><g id="3H14" stroke="red"><polyline points="723,136 685,136 685,136 685,96 729,96 730,96 730,136 723,136" stroke="#6d725c" /></g><g id="3H15" stroke="red"><polyline points="623,77 623,26 662,26 662,77" stroke="#6d725c" /></g><g id="3H16" stroke="red"><polyline points="662,26 699,26 699,77 662,77" stroke="#6d725c" /></g></svg>