<?xml version="1.0" encoding="utf-8" ?>
<svg baseProfile="full" height="498" version="1.1" width="800" xmlns="http://www.w3.org/2000/svg" xmlns:ev="http://www.w3.org/2001/xml-events" xmlns:xlink="http://www.w3.org/1999/xlink"><defs /><g id="1A02" stroke="red"><polyline fill="#FFFFFF" points="177,424 177,431 130,431 130,423 177,423 177,424" stroke="#6d725c" /></g><g id="1A03" stroke="red"><polyline fill="#FFFFFF" points="116,345 106,397 103,397 103,391 70,391 70,345 116,345" stroke="#6d725c" /></g><g id="1A04A" stroke="red"><polyline fill="#FFFFFF" points="186,365 186,405 134,405 134,365" stroke="#6d725c" /></g><g id="1A04B" stroke="red"><polyline fill="#FFFFFF" points="134,365 134,324 186,324 186,365" stroke="#6d725c" /></g><g id="1A05" stroke="red"><polyline fill="#FFFFFF" points="87,345 87,292 104,292 104,275 116,275 116,345" stroke="#6d725c" /></g><g id="1A06" stroke="red"><polyline fill="#FFFFFF" points="175,271 175,309 134,309 134,271" stroke="#6d725c" /></g><g id="1A07" stroke="red"><polyline fill="#FFFFFF" points="116,219 116,259 106,259 106,255 71,255 71,219" stroke="#6d725c" /></g><g id="1A08A" stroke="red"><polyline fill="#FFFFFF" points="175,271 134,271 134,241 175,241 175,271 175,271" stroke="#6d725c" /></g><g id="1A08B" stroke="red"><polyline fill="#FFFFFF" points="134,241 134,210 175,210 175,241" stroke="#6d725c" /></g><g id="1A09" stroke="red"><polyline fill="#FFFFFF" points="71,219 71,181 77,181 77,178 116,178 116,219" stroke="#6d725c" /></g><g id="1A10" stroke="red"><polyline fill="#FFFFFF" points="134,210 134,210 134,178 175,178 175,210" stroke="#6d725c" /></g><g id="1A11" stroke="red"><polyline fill="#FFFFFF" points="116,162 85,162 85,152 87,152 87,87 106,87 106,53 124,53 124,87 116,87 116,114" stroke="#6d725c" /></g><g id="1A12" stroke="red"><polyline fill="#FFFFFF" points="134,162 134,130 190,130 190,162" stroke="#6d725c" /></g><g id="1A14" stroke="red"><polyline fill="#FFFFFF" points="116,114 116,87 124,87 124,53 124,35 163,35 163,49 176,49 176,114" stroke="#6d725c" /></g><g id="1B03" stroke="red"><polyline fill="#FFFFFF" points="202,405 202,324 261,324 261,405" stroke="#6d725c" /></g><g id="1B04A" stroke="red"><polyline fill="#FFFFFF" points="277,280 277,243 312,243 312,280" stroke="#6d725c" /></g><g id="1B05A" stroke="red"><polyline fill="#FFFFFF" points="261,243 261,309 225,309 225,243" stroke="#6d725c" /></g><g id="1B05B" stroke="red"><polyline fill="#FFFFFF" points="225,243 225,211 261,211 261,243" stroke="#6d725c" /></g><g id="1B06A" stroke="red"><polyline fill="#FFFFFF" points="277,309 277,280 312,280 312,309" stroke="#6d725c" /></g><g id="1B06B" stroke="red"><polyline fill="#FFFFFF" points="312,280 312,243 348,243 348,309 312,309" stroke="#6d725c" /></g><g id="1B07" stroke="red"><polyline fill="#FFFFFF" points="225,211 225,178 261,178 261,211" stroke="#6d725c" /></g><g id="1B09" stroke="red"><polyline fill="#FFFFFF" points="206,162 206,130 261,130 261,162" stroke="#6d725c" /></g><g id="1B11A" stroke="red"><polyline fill="#FFFFFF" points="176,114 176,49 197,49 197,35 214,35 214,114" stroke="#6d725c" /></g><g id="1B11B" stroke="red"><polyline fill="#FFFFFF" points="214,114 214,35 250,35 250,114" stroke="#6d725c" /></g><g id="1C02A" stroke="red"><polyline fill="#FFFFFF" points="277,365 277,324 332,324 332,365" stroke="#6d725c" /></g><g id="1C02B" stroke="red"><polyline fill="#FFFFFF" points="332,365 332,405 277,405 277,365" stroke="#6d725c" /></g><g id="1C04" stroke="red"><polyline fill="#FFFFFF" points="348,405 348,324 403,324 403,405" stroke="#6d725c" /></g><g id="1C05A" stroke="red"><polyline fill="#FFFFFF" points="312,211 312,178 348,178 348,211" stroke="#6d725c" /></g><g id="1C05B" stroke="red"><polyline fill="#FFFFFF" points="312,243 312,211 312,211 348,211 348,243" stroke="#6d725c" /></g><g id="1C06" stroke="red"><polyline fill="#FFFFFF" points="399,243 435,243 435,309 364,309 364,243" stroke="#6d725c" /></g><g id="1C07" stroke="red"><polyline fill="#FFFFFF" points="277,162 277,130 348,130 348,162" stroke="#6d725c" /></g><g id="1C08" stroke="red"><polyline fill="#FFFFFF" points="399,243 364,243 364,178 399,178 399,178" stroke="#6d725c" /></g><g id="1C10" stroke="red"><polyline fill="#FFFFFF" points="364,162 364,130 435,130 435,162" stroke="#6d725c" /></g><g id="1C11" stroke="red"><polyline fill="#FFFFFF" points="325,114 325,35 362,35 362,114" stroke="#6d725c" /></g><g id="1C12" stroke="red"><polyline fill="#FFFFFF" points="395,114 362,114 362,35 395,35 395,75" stroke="#6d725c" /></g><g id="1C13A" stroke="red"><polyline fill="#FFFFFF" points="288,114 250,114 250,35 291,35 291,114" stroke="#6d725c" /></g><g id="1C13B" stroke="red"><polyline fill="#FFFFFF" points="291,114 291,35 292,35 325,35 325,114" stroke="#6d725c" /></g><g id="1D01" stroke="red"><polyline fill="#FFFFFF" points="521,474 475,474 475,424 521,424 521,437" stroke="#6d725c" /></g><g id="1D02" stroke="red"><polyline fill="#FFFFFF" points="470,405 470,324 525,324 525,405" stroke="#6d725c" /></g><g id="1D04A" stroke="red"><polyline fill="#FFFFFF" points="451,309 451,243 486,243 486,309" stroke="#6d725c" /></g><g id="1D04B" stroke="red"><polyline fill="#FFFFFF" points="486,243 522,243 522,309 486,309" stroke="#6d725c" /></g><g id="1D05" stroke="red"><polyline fill="#FFFFFF" points="399,243 399,178 435,178 435,243" stroke="#6d725c" /></g><g id="1D06" stroke="red"><polyline fill="#FFFFFF" points="451,243 451,178 486,178 486,243" stroke="#6d725c" /></g><g id="1D08" stroke="red"><polyline fill="#FFFFFF" points="451,162 451,130 459,130 522,157 522,162" stroke="#6d725c" /></g><g id="1D09" stroke="red"><polyline fill="#FFFFFF" points="395,75 486,75 486,114 395,114" stroke="#6d725c" /></g><g id="1E01" stroke="red"><polyline fill="#FFFFFF" points="572,428 572,423 572,423 637,423 637,431 622,431 622,437 572,437" stroke="#6d725c" /></g><g id="1E02" stroke="red"><polyline fill="#FFFFFF" points="572,437 572,437 572,437 521,437 521,424 572,424 572,428" stroke="#6d725c" /></g><g id="1E03" stroke="red"><polyline fill="#FFFFFF" points="399,424 418,424 418,447 399,447" stroke="#6d725c" /></g><g id="1E04" stroke="red"><polyline fill="#FFFFFF" points="541,405 541,324 587,324 587,324 587,325 587,325 588,325 588,325 588,325 588,325 588,325 588,325 589,325 607,344 607,344 607,344 607,344 608,344 608,345 608,345 608,345 608,345 608,345 608,346 608,384 608,385 608,385 608,385 608,385 608,385 608,386 607,386 607,386 607,386 607,386 589,405 588,405 588,405 588,405 588,405 588,405 588,405 587,405 587,405 587,405 587,405" stroke="#6d725c" /></g><g id="1E05" stroke="red"><polyline fill="#FFFFFF" points="486,243 486,178 522,178 522,243" stroke="#6d725c" /></g><g id="1E06" stroke="red"><polyline fill="#FFFFFF" points="574,243 574,309 538,309 538,243" stroke="#6d725c" /></g><g id="1E08" stroke="red"><polyline fill="#FFFFFF" points="538,243 538,178 574,178 574,243" stroke="#6d725c" /></g><g id="1E10" stroke="red"><polyline fill="#FFFFFF" points="637,159 575,159 502,128 502,108 637,108 637,108" stroke="#6d725c" /></g><g id="1Y01" stroke="red"><polyline fill="#FFFFFF" points="288,424 288,474 288,474 258,474 249,474 249,465 232,465 232,474 177,474 177,431 177,431 177,424 288,424" stroke="#6d725c" /></g><g id="1Y02" stroke="red"><polyline fill="#FFFFFF" points="399,474 288,474 288,424 399,424 399,447" stroke="#6d725c" /></g><g id="1Y03" stroke="red"><polyline fill="#FFFFFF" points="637,159 637,108 728,108 728,113 729,113 729,143 722,143 722,229 731,229 747,229 747,254 729,254 729,308 722,308 722,392 701,405 659,405 658,405 658,405 658,405 658,405 658,405 657,405 657,405 657,405 657,405 657,405 638,386 638,386 638,386 638,386 638,386 638,385 638,385 638,385 637,385 637,385 637,384 637,159" stroke="#6d725c" /></g><g id="1Y04" stroke="red"><polyline fill="#FFFFFF" points="549,474 549,457 622,457 622,474" stroke="#6d725c" /></g><g id="XAA1B08A" stroke="red"><polyline fill="#FFFFFF" points="312,207 277,207 277,178 312,178" stroke="#6d725c" /></g><g id="XAA1B08B" stroke="red"><polyline fill="#FFFFFF" points="312,243 277,243 277,207 312,207 312,211" stroke="#6d725c" /></g></svg>