<?xml version="1.0" encoding="utf-8" ?>
<svg baseProfile="full" height="498" version="1.1" width="800" xmlns="http://www.w3.org/2000/svg" xmlns:ev="http://www.w3.org/2001/xml-events" xmlns:xlink="http://www.w3.org/1999/xlink"><defs /><g id="0A01" stroke="red"><polyline points="250,467 250,454 233,454 233,467 77,467 77,432 178,432 178,343 401,343 401,467" stroke="#6d725c" /></g><g id="0A02" stroke="red"><polyline points="575,153 575,343 623,343 623,427 623,467 401,467 401,343 401,327 226,327 226,153 178,153 178,105 625,102 625,153" stroke="#6d725c" /></g><g id="0A03" stroke="red"><polyline points="181,284 181,246 202,246 202,284" stroke="#6d725c" /></g><g id="0A04" stroke="red"><polyline points="625,102 713,102 713,153 708,153 708,196 724,196 724,223 749,223 749,247 730,247 730,302 724,302 724,327 625,327 625,153" stroke="#6d725c" /></g><g id="0A05" stroke="red"><polyline points="623,427 676,427 676,343 724,343 724,386 753,418 702,467 623,467" stroke="#6d725c" /></g><g id="0A07" stroke="red"><polyline points="101,253 118,253 162,253 176,253 176,327 115,327 115,414 72,414 72,339 88,339 88,253" stroke="#6d725c" /></g><g id="0A09" stroke="red"><polyline points="178,153 101,153 101,105 178,105 178,105" stroke="#6d725c" /></g><g id="0A10" stroke="red"><polyline points="118,253 118,208 162,208 162,253" stroke="#6d725c" /></g><g id="0A11" stroke="red"><polyline points="118,208 118,172 162,172 162,208" stroke="#6d725c" /></g></svg>