<?xml version="1.0" encoding="utf-8" ?>
<svg baseProfile="full" height="498" version="1.1" width="800" xmlns="http://www.w3.org/2000/svg" xmlns:ev="http://www.w3.org/2001/xml-events" xmlns:xlink="http://www.w3.org/1999/xlink"><defs /><g id="2A01" stroke="red"><polyline points="70,290 70,261 158,261 158,290" stroke="#6d725c" /></g><g id="2A02" stroke="red"><polyline points="158,290 158,319 70,319 70,290" stroke="#6d725c" /></g><g id="2A03" stroke="red"><polyline points="108,205 108,245 70,245 70,205" stroke="#6d725c" /></g><g id="2A05" stroke="red"><polyline points="70,205 70,167 77,167 77,165 108,165 108,205" stroke="#6d725c" /></g><g id="2A06A" stroke="red"><polyline points="158,205 158,245 126,245 126,205" stroke="#6d725c" /></g><g id="2A06B" stroke="red"><polyline points="126,205 126,165 158,165 158,205" stroke="#6d725c" /></g><g id="2A07" stroke="red"><polyline points="86,149 86,92 108,92 108,149" stroke="#6d725c" /></g><g id="2A08A" stroke="red"><polyline points="126,149 126,120 159,120 159,149" stroke="#6d725c" /></g><g id="2A08B" stroke="red"><polyline points="126,120 126,92 159,92 159,120" stroke="#6d725c" /></g><g id="2A09A" stroke="red"><polyline points="159,120 189,120 189,149 159,149" stroke="#6d725c" /></g><g id="2A09B" stroke="red"><polyline points="159,120 159,92 189,92 189,120 189,120" stroke="#6d725c" /></g><g id="2A11" stroke="red"><polyline points="105,73 105,22 140,22 140,73" stroke="#6d725c" /></g><g id="2A12" stroke="red"><polyline points="140,73 140,22 176,22 176,73" stroke="#6d725c" /></g><g id="2A13" stroke="red"><polyline points="176,73 176,22 211,22 211,73" stroke="#6d725c" /></g><g id="2A14" stroke="red"><polyline points="211,73 211,22 246,22 246,73" stroke="#6d725c" /></g><g id="2B01A" stroke="red"><polyline points="261,297 261,319 234,319 234,297" stroke="#6d725c" /></g><g id="2B01B" stroke="red"><polyline points="234,297 234,275 261,275 261,297" stroke="#6d725c" /></g><g id="2B02A" stroke="red"><polyline points="277,319 277,286 312,286 312,319" stroke="#6d725c" /></g><g id="2B02B" stroke="red"><polyline points="277,286 277,254 312,254 312,286" stroke="#6d725c" /></g><g id="2B03" stroke="red"><polyline points="261,242 261,264 234,264 234,242" stroke="#6d725c" /></g><g id="2B04" stroke="red"><polyline points="277,254 277,221 312,221 312,221 312,254" stroke="#6d725c" /></g><g id="2B05" stroke="red"><polyline points="234,242 234,220 261,220 261,242" stroke="#6d725c" /></g><g id="2B06" stroke="red"><polyline points="312,221 277,221 277,171 312,189" stroke="#6d725c" /></g><g id="2B07A" stroke="red"><polyline points="261,187 261,209 234,209 234,187" stroke="#6d725c" /></g><g id="2B07B" stroke="red"><polyline points="234,187 234,165 261,165 261,187" stroke="#6d725c" /></g><g id="2B08" stroke="red"><polyline points="277,153 277,132 312,132 312,171" stroke="#6d725c" /></g><g id="2B09A" stroke="red"><polyline points="261,120 261,120 261,149 233,149 233,120" stroke="#6d725c" /></g><g id="2B09B" stroke="red"><polyline points="233,120 233,92 233,92 261,92 261,120" stroke="#6d725c" /></g><g id="2B10" stroke="red"><polyline points="312,132 277,132 277,92 312,92 312,119 312,132" stroke="#6d725c" /></g><g id="2B11A" stroke="red"><polyline points="233,149 205,149 205,120 233,120" stroke="#6d725c" /></g><g id="2B11B" stroke="red"><polyline points="233,120 205,120 205,92 233,92 233,120" stroke="#6d725c" /></g><g id="2B12" stroke="red"><polyline points="288,53 327,53 327,73 288,73" stroke="#6d725c" /></g><g id="2B13" stroke="red"><polyline points="288,53 288,73 288,73 246,73 246,22 273,22 273,53 288,53 288,53" stroke="#6d725c" /></g><g id="2C01A" stroke="red"><polyline points="347,319 312,319 312,319 312,286 347,286" stroke="#6d725c" /></g><g id="2C01B" stroke="red"><polyline points="312,286 312,254 347,254 347,254 347,286 347,286" stroke="#6d725c" /></g><g id="2C02A" stroke="red"><polyline points="399,286 399,319 363,319 363,286" stroke="#6d725c" /></g><g id="2C02B" stroke="red"><polyline points="363,286 363,286 363,254 363,254 399,254 399,286" stroke="#6d725c" /></g><g id="2C03" stroke="red"><polyline points="312,254 312,221 347,221 347,254" stroke="#6d725c" /></g><g id="2C04" stroke="red"><polyline points="363,254 363,221 399,221 399,254" stroke="#6d725c" /></g><g id="2C05" stroke="red"><polyline points="312,221 312,221 312,189 347,189 347,221" stroke="#6d725c" /></g><g id="2C06" stroke="red"><polyline points="399,221 363,221 363,189 399,189 399,221" stroke="#6d725c" /></g><g id="2C07" stroke="red"><polyline points="312,132 347,132 347,173 316,173 312,171" stroke="#6d725c" /></g><g id="2C08" stroke="red"><polyline points="363,173 363,132 399,132 399,173" stroke="#6d725c" /></g><g id="2C09" stroke="red"><polyline points="312,132 312,119 312,92 347,92 347,132" stroke="#6d725c" /></g><g id="2C10" stroke="red"><polyline points="399,132 399,132 363,132 363,92 399,92 399,132" stroke="#6d725c" /></g><g id="2C12" stroke="red"><polyline points="343,73 343,53 395,53 395,73" stroke="#6d725c" /></g><g id="2D01A" stroke="red"><polyline points="434,286 434,319 399,319 399,286" stroke="#6d725c" /></g><g id="2D01B" stroke="red"><polyline points="399,286 399,254 434,254 434,254 434,286 434,286" stroke="#6d725c" /></g><g id="2D02A" stroke="red"><polyline points="486,319 450,319 450,286 486,286 486,319" stroke="#6d725c" /></g><g id="2D02B" stroke="red"><polyline points="450,286 450,286 450,254 450,254 486,254 486,286" stroke="#6d725c" /></g><g id="2D03" stroke="red"><polyline points="399,254 399,221 434,221 434,254" stroke="#6d725c" /></g><g id="2D04" stroke="red"><polyline points="450,254 450,221 486,221 486,254" stroke="#6d725c" /></g><g id="2D05" stroke="red"><polyline points="399,221 399,221 399,189 434,189 434,221" stroke="#6d725c" /></g><g id="2D06" stroke="red"><polyline points="486,221 450,221 450,189 486,189 486,221" stroke="#6d725c" /></g><g id="2D07" stroke="red"><polyline points="399,132 434,132 434,132 434,132 434,173 399,173" stroke="#6d725c" /></g><g id="2D08" stroke="red"><polyline points="482,173 450,173 450,132 486,132 486,171" stroke="#6d725c" /></g><g id="2D09" stroke="red"><polyline points="399,132 399,92 434,92 434,132" stroke="#6d725c" /></g><g id="2D10" stroke="red"><polyline points="450,132 450,132 450,92 486,92 486,132" stroke="#6d725c" /></g><g id="2D11" stroke="red"><polyline points="438,73 395,73 395,62 438,62 438,62" stroke="#6d725c" /></g><g id="2D12" stroke="red"><polyline points="438,62 482,62 482,73 438,73" stroke="#6d725c" /></g><g id="2E01" stroke="red"><polyline points="486,286 521,286 521,319 486,319" stroke="#6d725c" /></g><g id="2E02" stroke="red"><polyline points="537,319 537,275 564,275 564,319" stroke="#6d725c" /></g><g id="2E04A" stroke="red"><polyline points="564,242 564,264 537,264 537,242" stroke="#6d725c" /></g><g id="2E04B" stroke="red"><polyline points="537,242 537,220 564,220 564,242" stroke="#6d725c" /></g><g id="2E05A" stroke="red"><polyline points="486,286 486,254 521,254 521,286" stroke="#6d725c" /></g><g id="2E05B" stroke="red"><polyline points="486,254 486,221 486,221 521,221 521,254" stroke="#6d725c" /></g><g id="2E06" stroke="red"><polyline points="537,209 537,165 564,165 564,209" stroke="#6d725c" /></g><g id="2E07" stroke="red"><polyline points="486,221 486,189 521,171 521,221" stroke="#6d725c" /></g><g id="2E09" stroke="red"><polyline points="486,132 521,132 521,132 521,153 486,171" stroke="#6d725c" /></g><g id="2E10A" stroke="red"><polyline points="537,149 537,120 568,120 568,149" stroke="#6d725c" /></g><g id="2E10B" stroke="red"><polyline points="537,120 537,92 568,92 568,120" stroke="#6d725c" /></g><g id="2E11" stroke="red"><polyline points="486,132 486,132 486,92 521,92 521,132" stroke="#6d725c" /></g><g id="2E12A" stroke="red"><polyline points="599,149 568,149 568,120 599,120" stroke="#6d725c" /></g><g id="2E12B" stroke="red"><polyline points="568,120 568,92 599,92 599,120" stroke="#6d725c" /></g><g id="2E13" stroke="red"><polyline points="498,73 498,62 506,62 506,22 544,22 544,73" stroke="#6d725c" /></g><g id="2E14" stroke="red"><polyline points="583,73 544,73 544,22 583,22 583,22" stroke="#6d725c" /></g><g id="2E16" stroke="red"><polyline points="583,73 583,22 622,22 622,73 622,73" stroke="#6d725c" /></g><g id="2Y01" stroke="red"><polyline points="324,399 324,460 324,460 78,460 78,422 91,422 91,392 86,392 86,338 324,338 324,392" stroke="#6d725c" /></g><g id="2Y02" stroke="red"><polyline points="324,392 324,392 324,392 324,338 399,338 399,392" stroke="#6d725c" /></g><g id="2Y03A" stroke="red"><polyline points="714,387 728,387 751,411 700,460 623,460 623,423 543,423 543,338 714,338" stroke="#6d725c" /></g><g id="2Y03B" stroke="red"><polyline points="324,392 399,392 399,392 399,338 460,338 521,338 521,460 324,460" stroke="#6d725c" /></g><g id="2Y04" stroke="red"><polyline points="622,73 622,22 622,22 725,22 725,77 728,77 728,99 728,99 728,132 722,132 722,215 747,215 747,240 728,240 728,247 728,247 728,294 722,294 722,319 622,319 622,73" stroke="#6d725c" /></g></svg>