<?xml version="1.0" encoding="utf-8" ?>
<svg baseProfile="full" height="392" version="1.1" width="800" xmlns="http://www.w3.org/2000/svg" xmlns:ev="http://www.w3.org/2001/xml-events" xmlns:xlink="http://www.w3.org/1999/xlink"><defs /><g id="0Y01" stroke="red"><polyline points="606,382 598,382 554,382 554,366 542,366 542,371 539,371 518,371 518,382 493,382 493,371 471,371 471,321 440,321 440,362 424,362 424,382 194,382 194,363 202,363 202,300 162,300 162,322 133,322 133,204 131,204 131,181 131,181 131,156 204,156 204,153 212,150 219,145 226,140 231,133 237,127 241,119 244,111 247,103 248,95 249,86 353,86 353,48 353,48 587,48 588,48 606,48 606,21 637,21 642,88 605,88" stroke="#6d725c" /></g></svg>