<?xml version="1.0" encoding="utf-8" ?>
<svg baseProfile="full" height="699" version="1.1" width="800" xmlns="http://www.w3.org/2000/svg" xmlns:ev="http://www.w3.org/2001/xml-events" xmlns:xlink="http://www.w3.org/1999/xlink"><defs /><g id="3A01" stroke="red"><polyline points="168,514 216,514 228,514 228,590 168,590" stroke="#6d725c" /></g><g id="3A02A" stroke="red"><polyline points="293,607 251,607 251,514 293,514" stroke="#6d725c" /></g><g id="3A03" stroke="red"><polyline points="168,590 144,590 144,567 90,567 90,521 90,514 134,514 168,514" stroke="#6d725c" /></g><g id="3A04A" stroke="red"><polyline points="207,441 216,441 229,441 229,429 247,429 247,480 241,480 207,480" stroke="#6d725c" /></g><g id="3A04B" stroke="red"><polyline points="174,480 174,441 207,441 207,480" stroke="#6d725c" /></g><g id="3A04C" stroke="red"><polyline points="207,441 174,441 174,403 216,403 216,441" stroke="#6d725c" /></g><g id="3A04D" stroke="red"><polyline points="174,403 174,368 216,368 216,403" stroke="#6d725c" /></g><g id="3A05" stroke="red"><polyline points="90,514 90,521 70,521 70,448 107,448 128,448 128,448 128,448 128,438 134,438 134,514" stroke="#6d725c" /></g><g id="3A06A" stroke="red"><polyline points="174,368 174,334 216,334 216,368" stroke="#6d725c" /></g><g id="3A06B" stroke="red"><polyline points="174,334 174,300 216,300 216,334" stroke="#6d725c" /></g><g id="3A06C" stroke="red"><polyline points="174,300 174,266 216,266 216,300" stroke="#6d725c" /></g><g id="3A06D" stroke="red"><polyline points="174,266 174,231 216,231 216,266" stroke="#6d725c" /></g><g id="3A06E" stroke="red"><polyline points="174,231 174,197 216,197 216,231" stroke="#6d725c" /></g><g id="3A07" stroke="red"><polyline points="128,438 128,448 107,448 70,448 70,403 88,403 88,364 128,364 134,364 134,438" stroke="#6d725c" /></g><g id="3A08A" stroke="red"><polyline points="153,151 153,110 220,110 220,151" stroke="#6d725c" /></g><g id="3A08B" stroke="red"><polyline points="226,61 220,61 220,110 153,110 142,110 142,24 226,24 226,24" stroke="#6d725c" /></g><g id="3A11" stroke="red"><polyline points="90,342 90,238 128,238 128,342" stroke="#6d725c" /></g><g id="3A13" stroke="red"><polyline points="90,238 90,186 128,186 128,238" stroke="#6d725c" /></g><g id="3A14" stroke="red"><polyline points="86,151 86,110 142,110 153,110 153,151" stroke="#6d725c" /></g><g id="3B01" stroke="red"><polyline points="293,514 339,514 339,561 324,607 293,607" stroke="#6d725c" /></g><g id="3B03A" stroke="red"><polyline points="297,433 339,433 339,480 297,480" stroke="#6d725c" /></g><g id="3B03B" stroke="red"><polyline points="297,433 297,376 339,376 339,433" stroke="#6d725c" /></g><g id="3B03C" stroke="red"><polyline points="297,376 297,342 339,342 339,376" stroke="#6d725c" /></g><g id="3B03D" stroke="red"><polyline points="297,342 297,305 339,305 339,342" stroke="#6d725c" /></g><g id="3B05A" stroke="red"><polyline points="297,305 297,271 339,271 339,305" stroke="#6d725c" /></g><g id="3B05B" stroke="red"><polyline points="297,271 297,236 339,236 339,271" stroke="#6d725c" /></g><g id="3B08A" stroke="red"><polyline points="297,151 297,103 339,103 339,151" stroke="#6d725c" /></g><g id="3B08B" stroke="red"><polyline points="297,103 297,61 291,61 291,55 339,55 339,103" stroke="#6d725c" /></g><g id="3B08C" stroke="red"><polyline points="291,55 291,61 226,61 226,24 339,24 339,55" stroke="#6d725c" /></g><g id="3C01" stroke="red"><polyline points="348,607 363,561 363,513 363,512 363,510 364,509 364,507 365,506 366,505 367,504 368,503 370,502 371,502 454,479 456,479 458,479 460,479 462,480 464,481 465,483 466,484 467,486 468,488 468,490 468,550 412,550 412,607" stroke="#6d725c" /></g><g id="3C02" stroke="red"><polyline points="502,362 502,274 553,274 553,362" stroke="#6d725c" /></g><g id="3C03" stroke="red"><polyline points="375,441 373,441 371,440 369,440 368,439 366,438 365,436 364,435 364,433 363,431 363,430 363,197 363,195 364,193 364,192 365,190 366,189 368,188 369,187 371,186 373,186 375,186 457,186 458,186 460,186 462,187 463,188 465,189 466,190 467,192 467,193 468,195 468,197 468,430 468,431 467,433 467,435 466,436 465,438 463,439 462,440 460,440 458,441 457,441" stroke="#6d725c" /></g><g id="3C04" stroke="red"><polyline points="502,274 502,197 502,195 503,193 504,192 504,190 506,189 507,188 509,187 510,186 512,186 514,186 541,186 543,186 545,186 547,187 548,188 549,189 551,190 552,192 552,193 553,195 553,197 553,274" stroke="#6d725c" /></g><g id="3C05" stroke="red"><polyline points="339,151 339,103 339,55 339,24 413,24 413,151" stroke="#6d725c" /></g><g id="3C06" stroke="red"><polyline points="413,24 510,24 510,48 514,48 514,151 413,151" stroke="#6d725c" /></g><g id="3Y01" stroke="red"><polyline points="761,426 761,574 699,574 699,558 609,558 609,550 575,550 575,515 502,515 502,487 502,485 503,483 504,482 504,480 506,479 507,478 509,477 510,476 512,475 514,475 517,475 521,475 524,475 528,474 532,473 535,472 538,471 542,470 545,468 548,467 552,464 556,462 560,459 564,456 567,453 570,449 573,445 576,442 578,438 580,433 583,426 629,426" stroke="#6d725c" /></g><g id="3Y02" stroke="red"><polyline points="601,116 601,48 605,48 605,24 678,24 688,25 698,27 706,30 715,35 722,42 729,49 734,57 738,66 740,75 741,85 743,116" stroke="#6d725c" /></g><g id="3Y03" stroke="red"><polyline points="553,362 553,406 535,432 535,435 533,436 531,437 529,438 527,439 526,439 524,440 522,440 520,441 518,441 516,441 502,441 502,362" stroke="#6d725c" /></g><g id="3Y04" stroke="red"><polyline points="629,426 629,232 602,187 602,142 680,142 680,238 700,238 700,268 753,268 757,334 761,426 761,426" stroke="#6d725c" /></g></svg>