<?xml version="1.0" encoding="utf-8" ?>
<svg baseProfile="full" height="392" version="1.1" width="800" xmlns="http://www.w3.org/2000/svg" xmlns:ev="http://www.w3.org/2001/xml-events" xmlns:xlink="http://www.w3.org/1999/xlink"><defs /><g id="5Y01" stroke="red"><polyline fill="#ebf7d1" points="768,413 768,603 706,603 706,582 703,582 703,564 633,564 633,547 613,467 406,467 358,467 358,547 411,547 411,561 417,561 417,615 220,615 220,667 123,667 123,653 131,653 131,593 127,593 127,615 110,615 110,611 104,611 104,594 75,594 75,443 84,443 84,414 82,414 82,411 98,411 98,412 164,412 164,317 526,317 526,56 595,56 594,412 767,412" stroke="#6d725c" /></g></svg>