<?xml version="1.0" encoding="utf-8" ?>
<svg baseProfile="full" height="686" version="1.1" width="800" xmlns="http://www.w3.org/2000/svg" xmlns:ev="http://www.w3.org/2001/xml-events" xmlns:xlink="http://www.w3.org/1999/xlink"><defs /><g id="4T01A" stroke="red"><polyline fill="#FFFFFF" points="555,159 555,122 555,120 556,119 556,117 557,115 559,114 560,113 561,112 563,111 565,111 567,111 583,111 584,111 584,111 585,111 586,111 587,111 588,112 588,112 589,113 590,113 590,114 620,141 623,144 624,149 624,159" stroke="#6d725c" /></g><g id="4T02A" stroke="red"><polyline fill="#FFFFFF" points="624,159 624,195 624,197 624,199 623,200 622,202 621,203 620,204 618,205 616,206 615,206 613,207 567,207 565,206 563,206 561,205 560,204 559,203 557,202 556,200 556,199 555,197 555,195 555,159" stroke="#6d725c" /></g><g id="4Y01A" stroke="red"><polyline fill="#FFFFFF" points="729,55 731,58 733,61 735,64 736,68 737,71 738,75 739,79 740,83 740,86 742,120 699,120 699,124 657,124 653,124 598,75 598,74 597,73 596,72 596,72 595,71 595,70 595,69 595,68 594,67 594,66 594,51 604,51 604,28 677,27 683,28 689,29 694,30 700,32 705,34 710,37 714,40 719,43 723,47 727,51" stroke="#6d725c" /></g><g id="4Y02A" stroke="red"><polyline fill="#FFFFFF" points="664,221 655,144 699,144 699,221" stroke="#6d725c" /></g><g id="4Y03A" stroke="red"><polyline fill="#FFFFFF" points="666,344 666,253 666,241 678,241 699,241 699,272 752,272 756,344" stroke="#6d725c" /></g><g id="4Y04A" stroke="red"><polyline fill="#FFFFFF" points="760,476 666,476 666,344 666,344 756,344 760,430" stroke="#6d725c" /></g><g id="4Y05A" stroke="red"><polyline fill="#FFFFFF" points="760,564 730,564 730,577 703,577 703,577 703,558 576,558 576,558 576,542 576,542 576,542 576,541 576,541 576,541 576,541 576,541 576,541 577,541 577,541 653,491 655,490 656,488 658,487 659,486 661,484 662,483 663,481 664,479 665,477 666,476 760,476 760,513" stroke="#6d725c" /></g><g id="4Y06A" stroke="red"><polyline fill="#FFFFFF" points="608,325 608,241 626,241 627,241 628,242 629,242 630,242 630,243 631,244 631,244 632,245 632,246 632,247 632,325" stroke="#6d725c" /></g><g id="4Y08A" stroke="red"><polyline fill="#FFFFFF" points="632,325 632,402 632,403 632,404 631,405 631,406 630,406 630,407 629,407 628,408 627,408 626,408 608,408 608,325" stroke="#6d725c" /></g><g id="4Y09A" stroke="red"><polyline fill="#FFFFFF" points="603,480 603,480 602,480 601,480 601,480 600,479 600,479 599,478 599,478 598,477 578,439 577,438 577,436 577,435 577,433 578,432 579,431 580,430 581,429 582,429 584,429 625,429 626,429 627,429 628,429 629,430 630,431 631,432 631,432 632,433 632,435 632,436 632,460 632,461 632,461 632,462 631,463 631,463 631,464 630,464 630,465 629,465 629,466 608,479 608,480 607,480 607,480 607,480 606,480 606,480 605,480 605,480 605,480 604,480" stroke="#6d725c" /></g><g id="4Y11A" stroke="red"><polyline fill="#FFFFFF" points="503,577 467,577 467,553 401,553 401,543 401,542 402,541 402,540 402,539 403,538 404,538 405,537 406,537 407,536 408,536 539,536 539,542 503,542" stroke="#6d725c" /></g><g id="4Y12A" stroke="red"><polyline fill="#FFFFFF" points="323,436 378,436 378,470 367,505 367,579 367,580 367,581 366,582 366,583 365,583 364,584 363,585 362,585 361,585 360,585 335,585 334,584 333,582 332,581 331,579 329,578 328,577 327,575 326,574 324,573 323,572" stroke="#6d725c" /></g><g id="4Y14A" stroke="red"><polyline fill="#FFFFFF" points="408,502 407,502 407,502 407,502 406,501 406,501 406,501 406,501 406,500 405,500 405,500 405,494 406,492 406,490 407,489 408,487 409,486 410,485 412,484 413,483 415,483 417,482 494,482 494,502" stroke="#6d725c" /></g><g id="4Y16" stroke="red"><polyline fill="#FFFFFF" points="323,436 323,572 323,572 323,572 323,572 323,572 323,572 323,572 323,572 323,572 323,572 323,572 323,611 319,611 319,664 22,664 22,27 512,28 512,244 526,244 526,438 515,438 515,444 405,444 405,436 378,436" stroke="#6d725c" /></g></svg>