<?xml version="1.0" encoding="utf-8" ?>
<svg baseProfile="full" height="392" version="1.1" width="800" xmlns="http://www.w3.org/2000/svg" xmlns:ev="http://www.w3.org/2001/xml-events" xmlns:xlink="http://www.w3.org/1999/xlink"><defs /><g id="0Y05" stroke="red"><polyline fill="#FFFFFF" points="452,69 452,69 452,69 452,69 452,69 452,69 452,69 452,69 452,69 452,69 452,69 452,86 544,86 544,218 607,218 607,380 543,380 542,321 518,321 518,378 493,378 493,298 474,298 474,297 468,297 468,321 440,321 440,380 405,380 405,379 266,379 266,346 203,346 203,299 164,299 164,202 131,202 131,156 200,156 205,156 205,153 212,149 220,145 226,139 232,133 237,126 241,119 245,111 247,103 249,94 249,86 353,86 353,48 417,48 417,56 452,56 452,58" stroke="#6d725c" /></g><g id="0Y06" stroke="red"><polyline fill="#FFFFFF" points="455,72 454,71 454,71 454,71 453,71 453,71 453,71 453,70 453,70 452,70 452,69 452,69 452,58 460,58 460,50 515,50 515,72" stroke="#6d725c" /></g><g id="0Y07" stroke="red"><polyline fill="#FFFFFF" points="515,50 575,50 553,70 553,71 553,71 552,71 552,71 552,71 551,71 551,71 551,72 550,72 550,72 515,72" stroke="#6d725c" /></g><g id="0Y08" stroke="red"><polyline fill="#FFFFFF" points="557,126 557,86 582,64 588,64 588,88 605,88 605,126 581,126" stroke="#6d725c" /></g><g id="0Y09" stroke="red"><polyline fill="#FFFFFF" points="557,172 557,126 557,126 557,126 581,126 605,126 605,172" stroke="#6d725c" /></g><g id="0Y10" stroke="red"><polyline fill="#FFFFFF" points="605,172 605,172 605,218 557,218 557,172" stroke="#6d725c" /></g></svg>