<?xml version="1.0" encoding="utf-8" ?>
<svg baseProfile="full" height="699" version="1.1" width="800" xmlns="http://www.w3.org/2000/svg" xmlns:ev="http://www.w3.org/2001/xml-events" xmlns:xlink="http://www.w3.org/1999/xlink"><defs /><g id="2A01" stroke="red"><polyline fill="#ebf7d1" points="658,272 658,122 658,27 682,27 690,27 697,29 703,31 710,33 716,37 722,41 727,46 732,51 736,57 739,63 742,68 742,70 743,72 743,74 744,76 744,78 745,80 745,82 745,84 745,86 745,88 747,120 704,120 704,272" stroke="#6d725c" /></g><g id="2A03" stroke="red"><polyline fill="#ebf7d1" points="658,430 658,272 704,272 704,272 757,272 762,344 765,430" stroke="#6d725c" /></g><g id="2A04A" stroke="red"><polyline fill="#ebf7d1" points="635,197 635,198 635,199 634,200 634,201 633,202 632,203 631,203 630,204 629,204 628,204 568,204 568,141 635,141" stroke="#6d725c" /></g><g id="2A05" stroke="red"><polyline fill="#ebf7d1" points="765,430 765,430 765,519 658,519 658,430" stroke="#6d725c" /></g><g id="2A08" stroke="red"><polyline fill="#ebf7d1" points="615,327 615,327 615,241 635,241 635,327" stroke="#6d725c" /></g><g id="2A10" stroke="red"><polyline fill="#ebf7d1" points="635,327 635,410 615,410 615,327" stroke="#6d725c" /></g><g id="2A12" stroke="red"><polyline fill="#ebf7d1" points="585,476 585,433 635,433 635,476" stroke="#6d725c" /></g><g id="2A14" stroke="red"><polyline fill="#ebf7d1" points="635,476 635,519 585,519 585,476" stroke="#6d725c" /></g><g id="2A17" stroke="red"><polyline fill="#ebf7d1" points="581,577 581,541 676,541 676,577" stroke="#6d725c" /></g><g id="2C05A" stroke="red"><polyline fill="#ebf7d1" points="568,204 501,204 501,141 568,141" stroke="#6d725c" /></g><g id="2C07A" stroke="red"><polyline fill="#ebf7d1" points="498,273 498,234 498,233 499,232 499,231 500,230 500,229 501,228 502,228 503,227 504,227 505,227 550,227 551,227 552,227 553,228 554,228 555,229 555,230 556,231 556,232 557,233 557,234 557,273" stroke="#6d725c" /></g><g id="2C07B" stroke="red"><polyline fill="#ebf7d1" points="498,305 498,273 557,273 557,305" stroke="#6d725c" /></g><g id="2C08A" stroke="red"><polyline fill="#ebf7d1" points="501,204 456,204 456,141 501,141" stroke="#6d725c" /></g><g id="2C08B" stroke="red"><polyline fill="#ebf7d1" points="456,204 418,204 417,204 416,204 415,203 414,203 413,202 412,201 412,200 411,199 411,198 411,197 411,141 456,141" stroke="#6d725c" /></g><g id="2C09" stroke="red"><polyline fill="#ebf7d1" points="498,337 498,305 557,305 557,337" stroke="#6d725c" /></g><g id="2C10C" stroke="red"><polyline fill="#ebf7d1" points="440,280 440,280 413,280 413,227 474,227 475,227 476,227 477,228 478,228 479,229 480,230 480,231 481,232 481,233 481,234 481,280" stroke="#6d725c" /></g><g id="2C11" stroke="red"><polyline fill="#ebf7d1" points="498,375 498,337 557,337 557,375" stroke="#6d725c" /></g><g id="2C12A" stroke="red"><polyline fill="#ebf7d1" points="481,280 481,320 440,320 440,280" stroke="#6d725c" /></g><g id="2C12B" stroke="red"><polyline fill="#ebf7d1" points="440,320 395,320 395,280 413,280 440,280" stroke="#6d725c" /></g><g id="2C13" stroke="red"><polyline fill="#ebf7d1" points="557,375 557,375 557,410 498,410 498,375" stroke="#6d725c" /></g><g id="2C14" stroke="red"><polyline fill="#ebf7d1" points="440,375 413,375 413,337 481,337 481,375" stroke="#6d725c" /></g><g id="2C15" stroke="red"><polyline fill="#ebf7d1" points="498,474 498,429 520,429 520,433 563,433 563,474" stroke="#6d725c" /></g><g id="2C16A" stroke="red"><polyline fill="#ebf7d1" points="440,375 481,375 481,410 440,410" stroke="#6d725c" /></g><g id="2C16B" stroke="red"><polyline fill="#ebf7d1" points="395,410 395,375 413,375 440,375 440,410" stroke="#6d725c" /></g><g id="2C17" stroke="red"><polyline fill="#ebf7d1" points="563,519 498,519 498,474 563,474" stroke="#6d725c" /></g><g id="2C18" stroke="red"><polyline fill="#ebf7d1" points="417,489 417,429 481,429 481,489" stroke="#6d725c" /></g><g id="2C20" stroke="red"><polyline fill="#ebf7d1" points="417,489 481,489 481,519 417,519" stroke="#6d725c" /></g><g id="2C22" stroke="red"><polyline fill="#ebf7d1" points="508,577 472,577 472,553 448,553 448,541 508,541" stroke="#6d725c" /></g><g id="2D08A" stroke="red"><polyline fill="#ebf7d1" points="350,204 302,204 302,141 350,141" stroke="#6d725c" /></g><g id="2D08B" stroke="red"><polyline fill="#ebf7d1" points="302,204 254,204 254,141 296,141 302,141" stroke="#6d725c" /></g><g id="2D09" stroke="red"><polyline fill="#ebf7d1" points="397,197 397,198 397,199 396,200 396,201 395,202 394,203 393,203 392,204 391,204 390,204 350,204 350,141 397,141" stroke="#6d725c" /></g><g id="2D10A" stroke="red"><polyline fill="#ebf7d1" points="278,273 278,234 278,233 278,232 279,231 279,230 280,229 281,228 282,228 283,227 284,227 285,227 330,227 331,227 332,227 333,228 334,228 335,229 335,230 336,231 336,232 336,233 337,234 337,273" stroke="#6d725c" /></g><g id="2D10B" stroke="red"><polyline fill="#ebf7d1" points="278,305 278,305 278,273 278,273 337,273 337,305" stroke="#6d725c" /></g><g id="2D11B" stroke="red"><polyline fill="#ebf7d1" points="395,280 354,280 354,234 354,233 354,232 354,231 355,230 356,229 357,228 357,228 358,227 359,227 361,227 413,227 413,280" stroke="#6d725c" /></g><g id="2D12" stroke="red"><polyline fill="#ebf7d1" points="278,337 278,337 278,305 337,305 337,337" stroke="#6d725c" /></g><g id="2D13A" stroke="red"><polyline fill="#ebf7d1" points="395,320 354,320 354,280 395,280" stroke="#6d725c" /></g><g id="2D14" stroke="red"><polyline fill="#ebf7d1" points="278,375 278,337 337,337 337,375" stroke="#6d725c" /></g><g id="2D15A" stroke="red"><polyline fill="#ebf7d1" points="395,375 354,375 354,337 413,337 413,375" stroke="#6d725c" /></g><g id="2D16" stroke="red"><polyline fill="#ebf7d1" points="337,375 337,410 278,410 278,375 278,375" stroke="#6d725c" /></g><g id="2D17A" stroke="red"><polyline fill="#ebf7d1" points="354,410 354,375 395,375 395,410" stroke="#6d725c" /></g><g id="2D18" stroke="red"><polyline fill="#ebf7d1" points="284,474 284,433 315,433 315,429 337,429 337,474" stroke="#6d725c" /></g><g id="2D20" stroke="red"><polyline fill="#ebf7d1" points="337,519 284,519 284,474 337,474" stroke="#6d725c" /></g><g id="2D22" stroke="red"><polyline fill="#ebf7d1" points="273,541 328,541 328,587 273,587 273,587" stroke="#6d725c" /></g><g id="2D23" stroke="red"><polyline fill="#ebf7d1" points="351,610 351,541 416,541 416,610" stroke="#6d725c" /></g><g id="2D24" stroke="red"><polyline fill="#ebf7d1" points="354,489 354,429 417,429 417,489" stroke="#6d725c" /></g><g id="2D25" stroke="red"><polyline fill="#ebf7d1" points="354,519 354,489 417,489 417,519" stroke="#6d725c" /></g><g id="2E10" stroke="red"><polyline fill="#ebf7d1" points="213,474 213,433 251,433 261,433 261,474" stroke="#6d725c" /></g><g id="2E12" stroke="red"><polyline fill="#ebf7d1" points="213,474 261,474 261,519 213,519" stroke="#6d725c" /></g><g id="2E14" stroke="red"><polyline fill="#ebf7d1" points="219,587 219,541 273,541 273,587" stroke="#6d725c" /></g><g id="2F04" stroke="red"><polyline fill="#ebf7d1" points="71,210 71,169 90,169 90,147 133,147 133,210" stroke="#6d725c" /></g><g id="2F05C" stroke="red"><polyline fill="#ebf7d1" points="194,164 234,164 234,197 234,198 233,199 233,200 232,201 232,202 231,203 230,203 229,204 228,204 227,204 194,204" stroke="#6d725c" /></g><g id="2F05D" stroke="red"><polyline fill="#ebf7d1" points="160,204 159,204 158,204 157,203 156,203 155,202 155,201 154,200 154,199 153,198 153,197 153,164 194,164 194,204" stroke="#6d725c" /></g><g id="2F06" stroke="red"><polyline fill="#ebf7d1" points="94,284 94,230 142,230 142,284" stroke="#6d725c" /></g><g id="2F07" stroke="red"><polyline fill="#ebf7d1" points="165,261 165,234 165,233 165,232 165,231 166,230 167,229 167,228 168,228 169,227 170,227 171,227 214,227 215,227 216,227 217,228 218,228 219,229 220,230 220,231 220,232 221,233 221,234 221,261" stroke="#6d725c" /></g><g id="2F08" stroke="red"><polyline fill="#ebf7d1" points="94,337 94,284 142,284 142,337" stroke="#6d725c" /></g><g id="2F09A" stroke="red"><polyline fill="#ebf7d1" points="165,294 165,261 165,261 221,261 221,294" stroke="#6d725c" /></g><g id="2F09B" stroke="red"><polyline fill="#ebf7d1" points="165,327 165,294 221,294 221,327" stroke="#6d725c" /></g><g id="2F10" stroke="red"><polyline fill="#ebf7d1" points="94,387 94,337 142,337 142,337 142,387" stroke="#6d725c" /></g><g id="2F11" stroke="red"><polyline fill="#ebf7d1" points="165,359 165,327 221,327 221,359" stroke="#6d725c" /></g><g id="2F12" stroke="red"><polyline fill="#ebf7d1" points="74,436 74,408 94,408 94,387 142,387 142,436" stroke="#6d725c" /></g><g id="2F13" stroke="red"><polyline fill="#ebf7d1" points="221,359 221,410 165,410 165,359" stroke="#6d725c" /></g><g id="2F14" stroke="red"><polyline fill="#ebf7d1" points="142,436 142,436 142,524 74,524 74,436" stroke="#6d725c" /></g><g id="2F15" stroke="red"><polyline fill="#ebf7d1" points="213,474 165,474 165,432 184,432 204,432 213,432 213,433" stroke="#6d725c" /></g><g id="2F17" stroke="red"><polyline fill="#ebf7d1" points="165,519 165,474 213,474 213,519" stroke="#6d725c" /></g><g id="2F18A" stroke="red"><polyline fill="#ebf7d1" points="126,599 101,599 101,610 73,610 73,580 74,580 74,541 74,541 126,541" stroke="#6d725c" /></g><g id="2F18B" stroke="red"><polyline fill="#ebf7d1" points="165,600 126,600 126,541 126,541 165,541 165,600" stroke="#6d725c" /></g><g id="2F19" stroke="red"><polyline fill="#ebf7d1" points="165,541 219,541 219,600 165,600" stroke="#6d725c" /></g><g id="2Y04" stroke="red"><polyline fill="#ebf7d1" points="254,141 222,141 222,141 133,141 133,94 147,94 147,62 133,62 133,27 296,27 296,141" stroke="#6d725c" /></g><g id="2Y05" stroke="red"><polyline fill="#ebf7d1" points="658,122 635,122 635,141 568,141 501,141 456,141 411,141 397,141 350,141 302,141 296,141 296,27 514,27 514,51 609,51 609,27 658,27" stroke="#6d725c" /></g></svg>