<?xml version="1.0" encoding="utf-8" ?>
<svg baseProfile="full" height="699" version="1.1" width="800" xmlns="http://www.w3.org/2000/svg" xmlns:ev="http://www.w3.org/2001/xml-events" xmlns:xlink="http://www.w3.org/1999/xlink"><defs /><g id="1A01" stroke="red"><polyline points="740,81 746,78 746,79 750,90 749,90 749,92 747,92 748,108 750,108 752,129 683,129" stroke="#6d725c" /></g><g id="1A02" stroke="red"><polyline points="617,60 617,60 617,37 617,37 687,37 651,122 650,122 650,123 650,124 649,124 648,125 648,125 647,125 646,126 645,126 645,126 617,126" stroke="#6d725c" /></g><g id="1A03A" stroke="red"><polyline points="683,179 683,179 683,129 706,129 706,179" stroke="#6d725c" /></g><g id="1A04" stroke="red"><polyline points="599,222 598,222 597,221 596,221 595,220 594,220 593,219 593,218 592,217 592,216 592,215 592,160 592,159 592,158 593,157 593,156 594,155 595,154 596,154 597,154 598,153 599,153 626,153 654,153 655,153 656,154 657,154 658,154 658,155 659,156 660,157 660,158 660,159 660,160 660,215 660,216 660,217 660,218 659,219 658,220 658,220 657,221 656,221 655,222 654,222 626,222" stroke="#6d725c" /></g><g id="1A05" stroke="red"><polyline points="706,179 706,230 683,230 683,179" stroke="#6d725c" /></g><g id="1A06A" stroke="red"><polyline points="609,345 609,247 609,246 609,245 610,244 610,243 611,242 612,241 613,241 614,240 615,240 616,240 654,240 655,240 656,240 657,241 658,241 658,242 659,243 660,244 660,245 660,246 660,247 660,345" stroke="#6d725c" /></g><g id="1A07" stroke="red"><polyline points="683,281 683,250 706,250 706,281" stroke="#6d725c" /></g><g id="1A07A" stroke="red"><polyline points="769,528 769,551 741,551 741,528" stroke="#6d725c" /></g><g id="1A07B" stroke="red"><polyline points="683,346 683,281 706,281 706,281 761,281 765,346" stroke="#6d725c" /></g><g id="1A09" stroke="red"><polyline points="683,392 683,346 765,346 768,392" stroke="#6d725c" /></g><g id="1A10A" stroke="red"><polyline points="660,345 660,345 660,413 660,414 660,415 660,416 659,417 658,418 658,418 657,419 656,419 655,419 654,420 616,420 615,419 614,419 613,419 612,418 611,418 610,417 610,416 609,415 609,414 609,413 609,345" stroke="#6d725c" /></g><g id="1A11" stroke="red"><polyline points="683,392 768,392 769,420 769,430 683,430" stroke="#6d725c" /></g><g id="1A13" stroke="red"><polyline points="769,430 769,494 683,494 683,430" stroke="#6d725c" /></g><g id="1A14" stroke="red"><polyline points="620,439 660,439 660,505 620,505" stroke="#6d725c" /></g><g id="1A16" stroke="red"><polyline points="587,505 587,439 620,439 620,505" stroke="#6d725c" /></g><g id="1A17" stroke="red"><polyline points="741,551 689,551 689,528 689,528 741,528 741,528" stroke="#6d725c" /></g><g id="1A18" stroke="red"><polyline points="689,551 637,551 637,551 637,528 689,528 689,528" stroke="#6d725c" /></g><g id="1A19" stroke="red"><polyline points="637,551 587,551 587,528 637,528 637,528" stroke="#6d725c" /></g><g id="1B06" stroke="red"><polyline points="508,474 508,443 564,443 564,474" stroke="#6d725c" /></g><g id="1B08" stroke="red"><polyline points="564,505 508,505 508,474 564,474" stroke="#6d725c" /></g><g id="1B10" stroke="red"><polyline points="587,551 509,551 509,528 587,528 587,551" stroke="#6d725c" /></g><g id="1C01" stroke="red"><polyline points="617,126 499,126 499,126 499,103 499,37 525,37 525,60 601,60 617,60" stroke="#6d725c" /></g><g id="1C03" stroke="red"><polyline points="515,222 514,222 513,221 512,221 511,220 510,220 510,219 509,218 509,217 509,216 508,215 508,153 539,153 562,153 563,153 564,154 565,154 566,154 567,155 568,156 568,157 569,158 569,159 569,160 569,215 569,216 569,217 568,218 568,219 567,220 566,220 565,221 564,221 563,222 562,222 539,222" stroke="#6d725c" /></g><g id="1C04A" stroke="red"><polyline points="419,153 484,153 485,153 487,154 488,154 488,154 489,155 490,156 491,157 491,158 491,159 491,160 491,215 491,216 491,217 491,218 490,219 489,220 488,220 488,221 487,221 485,222 484,222 419,222" stroke="#6d725c" /></g><g id="1C05" stroke="red"><polyline points="508,293 508,240 567,240 567,293" stroke="#6d725c" /></g><g id="1C06A" stroke="red"><polyline points="419,280 419,240 419,240 484,240 485,240 487,240 488,241 488,241 489,242 490,243 491,244 491,245 491,246 491,247 491,315 491,316 491,317 491,318 490,319 489,320 488,320 488,321 487,321 485,322 484,322 419,322 419,322" stroke="#6d725c" /></g><g id="1C07" stroke="red"><polyline points="508,346 508,293 567,293 567,293 567,346" stroke="#6d725c" /></g><g id="1C09" stroke="red"><polyline points="508,384 508,346 508,346 567,346 567,384" stroke="#6d725c" /></g><g id="1C10A" stroke="red"><polyline points="419,380 419,339 484,339 485,339 487,339 488,340 488,340 489,341 490,342 491,343 491,344 491,345 491,346 491,413 491,414 491,415 491,416 490,417 489,418 488,418 488,419 487,419 485,419 484,420 419,420" stroke="#6d725c" /></g><g id="1C11" stroke="red"><polyline points="567,384 567,420 508,420 508,384" stroke="#6d725c" /></g><g id="1C14" stroke="red"><polyline points="419,472 419,439 491,439 491,472" stroke="#6d725c" /></g><g id="1C16" stroke="red"><polyline points="419,472 491,472 491,505 419,505" stroke="#6d725c" /></g><g id="1C17" stroke="red"><polyline points="435,126 435,103 499,103 499,126" stroke="#6d725c" /></g><g id="1C18" stroke="red"><polyline points="435,103 435,126 435,126 435,126 367,126 367,37 435,37 435,103" stroke="#6d725c" /></g><g id="1C18A" stroke="red"><polyline points="509,586 472,586 472,528 509,528 509,551" stroke="#6d725c" /></g><g id="1C18B" stroke="red"><polyline points="423,528 472,528 472,562 423,562" stroke="#6d725c" /></g><g id="1D03A" stroke="red"><polyline points="354,222 353,222 352,221 351,221 350,220 349,220 349,219 348,218 348,217 347,216 347,215 347,160 347,159 348,158 348,157 349,156 349,155 350,154 351,154 352,154 353,153 354,153 419,153 419,222" stroke="#6d725c" /></g><g id="1D04A" stroke="red"><polyline points="269,222 268,222 267,221 266,221 265,220 264,220 263,219 263,218 262,217 262,216 262,215 262,160 262,159 262,158 263,157 263,156 264,155 265,154 266,154 267,154 268,153 269,153 296,153 330,153 330,215 330,216 330,217 329,218 329,219 328,220 327,220 326,221 325,221 324,222 323,222 296,222" stroke="#6d725c" /></g><g id="1D05" stroke="red"><polyline points="347,280 347,240 419,240 419,280" stroke="#6d725c" /></g><g id="1D06A" stroke="red"><polyline points="272,330 272,247 272,246 272,245 273,244 273,243 274,242 275,241 276,241 277,240 278,240 279,240 323,240 324,240 325,240 326,241 327,241 328,242 329,243 329,244 330,245 330,246 330,247 330,330" stroke="#6d725c" /></g><g id="1D07" stroke="red"><polyline points="347,322 347,280 419,280 419,322" stroke="#6d725c" /></g><g id="1D08A" stroke="red"><polyline points="330,330 330,413 330,414 330,415 329,416 329,417 328,418 327,418 326,419 325,419 324,419 323,420 279,420 278,419 277,419 276,419 275,418 274,418 273,417 273,416 272,415 272,414 272,413 272,330" stroke="#6d725c" /></g><g id="1D09" stroke="red"><polyline points="419,380 347,380 347,339 419,339 419,339" stroke="#6d725c" /></g><g id="1D11" stroke="red"><polyline points="347,420 347,380 419,380 419,420" stroke="#6d725c" /></g><g id="1D13" stroke="red"><polyline points="347,472 347,439 419,439 419,472" stroke="#6d725c" /></g><g id="1D14" stroke="red"><polyline points="274,484 274,443 316,443 316,439 330,439 330,484" stroke="#6d725c" /></g><g id="1D15" stroke="red"><polyline points="347,519 347,472 419,472 419,505" stroke="#6d725c" /></g><g id="1D16" stroke="red"><polyline points="330,484 330,520 274,525 274,484" stroke="#6d725c" /></g><g id="1D17" stroke="red"><polyline points="387,620 353,620 353,541 387,535" stroke="#6d725c" /></g><g id="1D18" stroke="red"><polyline points="284,547 330,543 330,597 284,597" stroke="#6d725c" /></g><g id="1D19" stroke="red"><polyline points="423,562 418,562 418,620 387,620 387,535 423,528 423,562 423,562" stroke="#6d725c" /></g><g id="1E02" stroke="red"><polyline points="214,484 214,439 234,439 234,443 251,443 251,528 214,528" stroke="#6d725c" /></g><g id="1E03" stroke="red"><polyline points="284,597 234,597 234,551 284,547 284,597" stroke="#6d725c" /></g><g id="1E04" stroke="red"><polyline points="183,551 234,551 234,609 183,609" stroke="#6d725c" /></g><g id="1F02" stroke="red"><polyline points="32,99 32,37 113,37 113,63 136,63 136,99" stroke="#6d725c" /></g><g id="1F04" stroke="red"><polyline points="136,99 136,161 73,161 73,131 32,131 32,99" stroke="#6d725c" /></g><g id="1F06A" stroke="red"><polyline points="73,254 73,254 73,182 136,182 136,254 136,254" stroke="#6d725c" /></g><g id="1F07A" stroke="red"><polyline points="164,222 163,222 162,221 161,221 160,220 159,220 159,219 158,218 158,217 158,216 157,215 157,160 158,159 158,158 158,157 159,156 159,155 160,154 161,154 162,154 163,153 164,153 198,153 198,222" stroke="#6d725c" /></g><g id="1F07B" stroke="red"><polyline points="198,153 239,153 239,215 239,216 239,217 238,218 238,219 237,220 236,220 235,221 234,221 233,222 232,222 198,222" stroke="#6d725c" /></g><g id="1F09" stroke="red"><polyline points="157,285 157,240 229,240 229,285" stroke="#6d725c" /></g><g id="1F10A" stroke="red"><polyline points="136,254 136,326 73,326 73,254" stroke="#6d725c" /></g><g id="1F11" stroke="red"><polyline points="157,330 157,285 229,285 229,330" stroke="#6d725c" /></g><g id="1F13" stroke="red"><polyline points="157,376 157,330 157,330 229,330 229,376" stroke="#6d725c" /></g><g id="1F14" stroke="red"><polyline points="100,400 100,346 136,346 136,400" stroke="#6d725c" /></g><g id="1F15" stroke="red"><polyline points="229,376 229,420 157,420 157,376" stroke="#6d725c" /></g><g id="1F16" stroke="red"><polyline points="76,446 76,418 100,418 100,400 100,400 136,400 136,446 132,446" stroke="#6d725c" /></g><g id="1F17" stroke="red"><polyline points="157,484 157,484 157,439 214,439 214,484" stroke="#6d725c" /></g><g id="1F18A" stroke="red"><polyline points="90,486 132,486 132,532 90,532" stroke="#6d725c" /></g><g id="1F18B" stroke="red"><polyline points="90,486 90,532 76,532 76,446 132,446 132,478 132,486" stroke="#6d725c" /></g><g id="1F19" stroke="red"><polyline points="157,528 157,484 214,484 214,528" stroke="#6d725c" /></g><g id="1F21" stroke="red"><polyline points="183,609 132,609 132,551 183,551 183,609" stroke="#6d725c" /></g><g id="1Y04" stroke="red"><polyline points="276,37 311,37 311,126 250,126 193,126 192,126 191,125 190,125 189,124 188,124 187,123 187,122 186,121 186,120 186,119 186,37" stroke="#6d725c" /></g><g id="1Y08" stroke="red"><polyline points="367,126 367,126 311,126 311,37 367,37 367,37" stroke="#6d725c" /></g></svg>