<?xml version="1.0" encoding="utf-8" ?>
<svg baseProfile="full" height="576" version="1.1" width="800" xmlns="http://www.w3.org/2000/svg" xmlns:ev="http://www.w3.org/2001/xml-events" xmlns:xlink="http://www.w3.org/1999/xlink"><defs /><g id="1A06A" stroke="red"><polyline fill="#FFFFFF" points="643,458 643,410 685,410 685,432" stroke="#6d725c" /></g><g id="1A07" stroke="red"><polyline fill="#FFFFFF" points="569,521 569,482 616,482 616,521" stroke="#6d725c" /></g><g id="1A08" stroke="red"><polyline fill="#FFFFFF" points="581,410 627,410 627,462 581,462" stroke="#6d725c" /></g><g id="1A09" stroke="red"><polyline fill="#FFFFFF" points="559,521 542,521 542,540 522,540 522,515 521,515 521,482 569,482 569,521" stroke="#6d725c" /></g><g id="1A10" stroke="red"><polyline fill="#FFFFFF" points="521,462 521,410 581,410 581,462" stroke="#6d725c" /></g><g id="1A11" stroke="red"><polyline fill="#FFFFFF" points="391,482 457,482 457,540 410,540 410,495 391,495" stroke="#6d725c" /></g><g id="1A12" stroke="red"><polyline fill="#FFFFFF" points="416,410 458,410 458,462 416,462" stroke="#6d725c" /></g><g id="1A13" stroke="red"><polyline fill="#FFFFFF" points="375,462 375,410 416,410 416,462" stroke="#6d725c" /></g><g id="1A14" stroke="red"><polyline fill="#FFFFFF" points="297,462 297,410 358,410 358,462" stroke="#6d725c" /></g><g id="1A15" stroke="red"><polyline fill="#FFFFFF" points="280,487 280,540 247,540 247,487" stroke="#6d725c" /></g><g id="1A16" stroke="red"><polyline fill="#FFFFFF" points="208,454 208,421 280,421 280,454" stroke="#6d725c" /></g><g id="1A17" stroke="red"><polyline fill="#FFFFFF" points="247,487 208,487 208,454 280,454 280,487" stroke="#6d725c" /></g><g id="1B02" stroke="red"><polyline fill="#FFFFFF" points="726,426 726,336 773,336 773,426 773,426" stroke="#6d725c" /></g><g id="1B04" stroke="red"><polyline fill="#FFFFFF" points="706,352 706,393 663,393 663,352" stroke="#6d725c" /></g><g id="1B06" stroke="red"><polyline fill="#FFFFFF" points="609,351 609,393 565,393 565,351" stroke="#6d725c" /></g><g id="1B08" stroke="red"><polyline fill="#FFFFFF" points="511,355 548,355 548,393 511,393" stroke="#6d725c" /></g><g id="1B10" stroke="red"><polyline fill="#FFFFFF" points="475,393 475,355 511,355 511,393" stroke="#6d725c" /></g><g id="1B12" stroke="red"><polyline fill="#FFFFFF" points="416,355 458,355 458,393 416,393" stroke="#6d725c" /></g><g id="1B14" stroke="red"><polyline fill="#FFFFFF" points="375,393 375,355 416,355 416,393" stroke="#6d725c" /></g><g id="1B16A" stroke="red"><polyline fill="#FFFFFF" points="358,363 358,393 301,393 301,363" stroke="#6d725c" /></g><g id="1B16B" stroke="red"><polyline fill="#FFFFFF" points="301,363 301,363 301,355 358,355 358,363" stroke="#6d725c" /></g><g id="1C01" stroke="red"><polyline fill="#FFFFFF" points="726,336 726,280 773,280 773,336" stroke="#6d725c" /></g><g id="1C03A" stroke="red"><polyline fill="#FFFFFF" points="663,352 663,332 706,332 706,352" stroke="#6d725c" /></g><g id="1C03B" stroke="red"><polyline fill="#FFFFFF" points="663,332 663,311 706,311 706,332" stroke="#6d725c" /></g><g id="1C04" stroke="red"><polyline fill="#FFFFFF" points="663,311 663,311 663,270 706,270 706,311" stroke="#6d725c" /></g><g id="1C05A" stroke="red"><polyline fill="#FFFFFF" points="565,351 565,333 609,333 609,351" stroke="#6d725c" /></g><g id="1C05B" stroke="red"><polyline fill="#FFFFFF" points="609,309 609,333 565,333 565,309" stroke="#6d725c" /></g><g id="1C06" stroke="red"><polyline fill="#FFFFFF" points="565,309 565,267 609,267 609,309" stroke="#6d725c" /></g><g id="1C07" stroke="red"><polyline fill="#FFFFFF" points="511,355 511,318 548,318 548,355" stroke="#6d725c" /></g><g id="1C08" stroke="red"><polyline fill="#FFFFFF" points="511,263 548,263 548,300 511,300" stroke="#6d725c" /></g><g id="1C09" stroke="red"><polyline fill="#FFFFFF" points="475,355 475,318 511,318 511,355" stroke="#6d725c" /></g><g id="1C10" stroke="red"><polyline fill="#FFFFFF" points="475,300 475,263 511,263 511,300" stroke="#6d725c" /></g><g id="1C11" stroke="red"><polyline fill="#FFFFFF" points="416,355 416,318 458,318 458,355" stroke="#6d725c" /></g><g id="1C12" stroke="red"><polyline fill="#FFFFFF" points="416,263 458,263 458,300 416,300" stroke="#6d725c" /></g><g id="1C13" stroke="red"><polyline fill="#FFFFFF" points="375,355 375,318 416,318 416,355" stroke="#6d725c" /></g><g id="1C14" stroke="red"><polyline fill="#FFFFFF" points="375,300 375,263 416,263 416,300" stroke="#6d725c" /></g><g id="1C15" stroke="red"><polyline fill="#FFFFFF" points="301,355 301,316 358,316 358,355" stroke="#6d725c" /></g><g id="1C16" stroke="red"><polyline fill="#FFFFFF" points="301,316 301,278 358,278 358,316" stroke="#6d725c" /></g><g id="1D02" stroke="red"><polyline fill="#FFFFFF" points="773,165 773,224 726,224 726,165" stroke="#6d725c" /></g><g id="1D04" stroke="red"><polyline fill="#FFFFFF" points="675,159 706,159 706,208 675,208" stroke="#6d725c" /></g><g id="1D05" stroke="red"><polyline fill="#FFFFFF" points="663,270 663,226 706,234 706,270" stroke="#6d725c" /></g><g id="1D06" stroke="red"><polyline fill="#FFFFFF" points="644,208 644,159 675,159 675,208" stroke="#6d725c" /></g><g id="1D08" stroke="red"><polyline fill="#FFFFFF" points="596,168 627,168 627,208 596,208" stroke="#6d725c" /></g><g id="1D09" stroke="red"><polyline fill="#FFFFFF" points="565,267 565,225 609,225 609,267" stroke="#6d725c" /></g><g id="1D10" stroke="red"><polyline fill="#FFFFFF" points="565,208 565,168 596,168 596,208" stroke="#6d725c" /></g><g id="1D11" stroke="red"><polyline fill="#FFFFFF" points="511,263 511,225 548,225 548,263" stroke="#6d725c" /></g><g id="1D12" stroke="red"><polyline fill="#FFFFFF" points="511,153 540,143 541,143 543,143 544,143 545,144 546,144 546,145 547,146 547,147 548,148 548,149 548,202 548,203 548,204 547,205 547,205 546,206 546,207 545,207 544,208 543,208 542,208 511,208" stroke="#6d725c" /></g><g id="1D13" stroke="red"><polyline fill="#FFFFFF" points="475,263 475,225 511,225 511,263" stroke="#6d725c" /></g><g id="1D14" stroke="red"><polyline fill="#FFFFFF" points="481,208 480,208 479,208 478,207 477,207 477,206 476,205 476,205 475,204 475,203 475,202 475,169 475,168 475,168 475,167 476,166 476,166 476,165 477,165 478,164 478,164 479,164 511,153 511,208" stroke="#6d725c" /></g><g id="1D15" stroke="red"><polyline fill="#FFFFFF" points="416,263 416,225 458,225 458,263" stroke="#6d725c" /></g><g id="1D16" stroke="red"><polyline fill="#FFFFFF" points="375,208 375,205 375,205 375,204 375,203 375,203 376,202 376,202 377,201 377,201 377,201 378,200 396,191 450,173 451,173 453,173 454,173 455,173 456,174 456,175 457,176 457,177 458,178 458,179 458,202 458,203 458,204 457,205 457,205 456,206 456,207 455,207 454,208 453,208 452,208" stroke="#6d725c" /></g><g id="1D17" stroke="red"><polyline fill="#FFFFFF" points="375,263 375,225 416,225 416,263" stroke="#6d725c" /></g><g id="1D21" stroke="red"><polyline fill="#FFFFFF" points="301,278 301,225 358,225 358,278" stroke="#6d725c" /></g><g id="1E01" stroke="red"><polyline fill="#FFFFFF" points="726,165 726,106 773,106 773,165" stroke="#6d725c" /></g><g id="1E02" stroke="red"><polyline fill="#FFFFFF" points="677,30 695,26 692,14 697,13 696,7 707,6 718,7 729,9 740,14 749,20 758,28 764,38 769,48 772,59 773,70 773,83 688,83" stroke="#6d725c" /></g><g id="1E03" stroke="red"><polyline fill="#FFFFFF" points="675,159 675,106 675,106 691,103 706,103 706,159" stroke="#6d725c" /></g><g id="1E04" stroke="red"><polyline fill="#FFFFFF" points="688,83 612,99 609,82 608,82 607,78 597,28 616,24 671,12 675,31 677,30" stroke="#6d725c" /></g><g id="1E05" stroke="red"><polyline fill="#FFFFFF" points="644,159 644,113 675,106 675,159" stroke="#6d725c" /></g><g id="1E07" stroke="red"><polyline fill="#FFFFFF" points="596,168 596,125 617,118 620,118 621,118 622,118 623,118 624,118 625,119 625,120 626,120 627,121 627,122 627,123 627,168" stroke="#6d725c" /></g><g id="1E08" stroke="red"><polyline fill="#FFFFFF" points="566,114 565,114 564,114 563,114 563,114 562,114 561,113 560,112 560,112 559,111 559,110 554,82 608,82 609,82 612,99" stroke="#6d725c" /></g><g id="1E09" stroke="red"><polyline fill="#FFFFFF" points="565,168 565,140 565,139 565,138 565,138 566,137 566,136 566,136 567,135 568,135 568,134 569,134 596,125 596,168" stroke="#6d725c" /></g><g id="1E12" stroke="red"><polyline fill="#FFFFFF" points="487,103 491,102 538,102 542,117 542,118 542,118 542,119 541,120 541,121 541,122 540,122 539,123 539,123 538,123 494,138" stroke="#6d725c" /></g><g id="1E14" stroke="red"><polyline fill="#FFFFFF" points="494,138 430,158 419,105 419,105 418,103 448,97 468,107 487,103" stroke="#6d725c" /></g><g id="1E17" stroke="red"><polyline fill="#FFFFFF" points="389,172 380,131 380,131 376,114 419,105 430,158" stroke="#6d725c" /></g><g id="1E19" stroke="red"><polyline fill="#FFFFFF" points="352,192 351,192 350,192 349,192 348,192 347,192 346,191 345,191 344,190 344,189 344,188 334,140 380,131 389,172" stroke="#6d725c" /></g><g id="1E20" stroke="red"><polyline fill="#FFFFFF" points="256,188 239,143 291,132 295,146 305,144 317,201 317,202 317,203 317,204 317,205 316,206 315,206 315,207 314,207 313,208 312,208 256,208" stroke="#6d725c" /></g><g id="1E22" stroke="red"><polyline fill="#FFFFFF" points="212,208 212,149 239,143 256,188 256,208" stroke="#6d725c" /></g><g id="1E24A" stroke="red"><polyline fill="#FFFFFF" points="212,208 165,208 165,127 190,122 196,152 212,149" stroke="#6d725c" /></g><g id="1E26" stroke="red"><polyline fill="#FFFFFF" points="248,267 229,267 229,260 142,260 142,238 156,238 156,225 248,225" stroke="#6d725c" /></g><g id="1W01" stroke="red"><polyline fill="#FFFFFF" points="83,540 83,489 104,489 104,540" stroke="#6d725c" /></g><g id="1Y01" stroke="red"><polyline fill="#FFFFFF" points="140,409 206,409 206,487 77,487 77,431 31,431 31,382 140,382" stroke="#6d725c" /></g><g id="1Y02" stroke="red"><polyline fill="#FFFFFF" points="391,540 309,540 309,482 391,482 391,495" stroke="#6d725c" /></g><g id="1Y03" stroke="red"><polyline fill="#FFFFFF" points="616,540 616,521 616,482 643,477 643,540" stroke="#6d725c" /></g><g id="1Y04" stroke="red"><polyline fill="#FFFFFF" points="643,477 643,458 685,432 694,426 726,426 773,426 773,487 691,487 691,540 643,540" stroke="#6d725c" /></g><g id="1Y05" stroke="red"><polyline fill="#FFFFFF" points="559,540 559,521 569,521 616,521 616,540" stroke="#6d725c" /></g><g id="1Y07" stroke="red"><polyline fill="#FFFFFF" points="165,208 142,208 142,175 42,175 42,146 142,125 144,131 165,127" stroke="#6d725c" /></g></svg>