<?xml version="1.0" encoding="utf-8" ?>
<svg baseProfile="full" height="508" version="1.1" width="800" xmlns="http://www.w3.org/2000/svg" xmlns:ev="http://www.w3.org/2001/xml-events" xmlns:xlink="http://www.w3.org/1999/xlink"><defs /><g id="0A01" stroke="red"><polyline fill="#FFFFFF" points="532,460 532,462 532,462 531,462 531,426 531,426 531,419 537,419 583,407 583,408" stroke="#6d725c" /></g><g id="0A02" stroke="red"><polyline fill="#FFFFFF" points="546,378 552,398 536,402 520,402 520,378" stroke="#6d725c" /></g><g id="0A03" stroke="red"><polyline fill="#FFFFFF" points="470,443 470,419 520,419 520,443" stroke="#6d725c" /></g><g id="0A04" stroke="red"><polyline fill="#FFFFFF" points="482,378 506,378 506,402 482,402" stroke="#6d725c" /></g><g id="0A06" stroke="red"><polyline fill="#FFFFFF" points="458,402 458,378 482,378 482,402" stroke="#6d725c" /></g><g id="0A08" stroke="red"><polyline fill="#FFFFFF" points="443,378 443,402 417,402 417,378" stroke="#6d725c" /></g><g id="0A10" stroke="red"><polyline fill="#FFFFFF" points="377,378 403,378 403,402 377,402" stroke="#6d725c" /></g><g id="0A11" stroke="red"><polyline fill="#FFFFFF" points="396,426 398,426 398,461 396,461 396,468 396,468 396,472 365,472 365,419 377,419 396,419" stroke="#6d725c" /></g><g id="0A12" stroke="red"><polyline fill="#FFFFFF" points="350,402 350,378 377,378 377,402" stroke="#6d725c" /></g><g id="0A13" stroke="red"><polyline fill="#FFFFFF" points="332,472 332,419 365,419 365,472" stroke="#6d725c" /></g><g id="0A15" stroke="red"><polyline fill="#FFFFFF" points="283,420 330,420 330,497 283,497" stroke="#6d725c" /></g><g id="0A17" stroke="red"><polyline fill="#FFFFFF" points="237,497 237,420 283,420 283,497" stroke="#6d725c" /></g><g id="0A19" stroke="red"><polyline fill="#FFFFFF" points="237,497 195,497 195,497 195,420 237,420 237,497" stroke="#6d725c" /></g><g id="0A21" stroke="red"><polyline fill="#FFFFFF" points="195,497 159,497 159,468 159,428 159,420 195,420" stroke="#6d725c" /></g><g id="0A23" stroke="red"><polyline fill="#FFFFFF" points="143,428 143,468 159,468 159,497 86,497 86,424 114,424 114,420 159,420 159,428" stroke="#6d725c" /></g><g id="0B01" stroke="red"><polyline fill="#FFFFFF" points="520,378 520,354 543,354 546,376 546,378" stroke="#6d725c" /></g><g id="0B02" stroke="red"><polyline fill="#FFFFFF" points="550,309 550,310 549,310 549,311 549,312 549,313 549,314 548,314 548,315 548,316 548,317 543,340 520,340 520,309" stroke="#6d725c" /></g><g id="0B03A" stroke="red"><polyline fill="#FFFFFF" points="458,378 458,354 482,354 482,378" stroke="#6d725c" /></g><g id="0B03B" stroke="red"><polyline fill="#FFFFFF" points="482,378 482,354 506,354 506,378" stroke="#6d725c" /></g><g id="0B04A" stroke="red"><polyline fill="#FFFFFF" points="458,340 458,309 482,309 482,340" stroke="#6d725c" /></g><g id="0B04B" stroke="red"><polyline fill="#FFFFFF" points="482,309 506,309 506,340 482,340" stroke="#6d725c" /></g><g id="0B05" stroke="red"><polyline fill="#FFFFFF" points="417,378 417,354 443,354 443,378" stroke="#6d725c" /></g><g id="0B06" stroke="red"><polyline fill="#FFFFFF" points="443,309 443,340 417,340 417,309" stroke="#6d725c" /></g><g id="0B07" stroke="red"><polyline fill="#FFFFFF" points="377,378 377,354 403,354 403,378" stroke="#6d725c" /></g><g id="0B08" stroke="red"><polyline fill="#FFFFFF" points="403,305 403,340 373,340 373,305" stroke="#6d725c" /></g><g id="0B09" stroke="red"><polyline fill="#FFFFFF" points="350,378 350,354 377,354 377,378" stroke="#6d725c" /></g><g id="0B11A" stroke="red"><polyline fill="#FFFFFF" points="309,378 309,354 328,354 328,378" stroke="#6d725c" /></g><g id="0B11B" stroke="red"><polyline fill="#FFFFFF" points="289,378 289,354 309,354 309,378" stroke="#6d725c" /></g><g id="0B11C" stroke="red"><polyline fill="#FFFFFF" points="289,402 289,378 309,378 309,402" stroke="#6d725c" /></g><g id="0B11D" stroke="red"><polyline fill="#FFFFFF" points="309,378 328,378 328,402 309,402" stroke="#6d725c" /></g><g id="0B13A" stroke="red"><polyline fill="#FFFFFF" points="256,378 256,354 275,354 275,378" stroke="#6d725c" /></g><g id="0B13B" stroke="red"><polyline fill="#FFFFFF" points="236,378 236,354 256,354 256,378" stroke="#6d725c" /></g><g id="0B13C" stroke="red"><polyline fill="#FFFFFF" points="236,402 236,378 256,378 256,402" stroke="#6d725c" /></g><g id="0B13D" stroke="red"><polyline fill="#FFFFFF" points="256,378 275,378 275,402 256,402" stroke="#6d725c" /></g><g id="0B15A" stroke="red"><polyline fill="#FFFFFF" points="207,378 207,354 222,354 222,378" stroke="#6d725c" /></g><g id="0B15B" stroke="red"><polyline fill="#FFFFFF" points="191,378 191,354 207,354 207,378" stroke="#6d725c" /></g><g id="0B15C" stroke="red"><polyline fill="#FFFFFF" points="191,402 191,378 207,378 207,402" stroke="#6d725c" /></g><g id="0B15D" stroke="red"><polyline fill="#FFFFFF" points="207,378 222,378 222,402 207,402" stroke="#6d725c" /></g><g id="0B17A" stroke="red"><polyline fill="#FFFFFF" points="149,378 149,354 169,354 169,378" stroke="#6d725c" /></g><g id="0B17B" stroke="red"><polyline fill="#FFFFFF" points="130,378 130,354 149,354 149,378" stroke="#6d725c" /></g><g id="0B17C" stroke="red"><polyline fill="#FFFFFF" points="130,402 130,378 149,378 149,402" stroke="#6d725c" /></g><g id="0B17D" stroke="red"><polyline fill="#FFFFFF" points="149,378 169,378 169,402 149,402" stroke="#6d725c" /></g><g id="0C01" stroke="red"><polyline fill="#FFFFFF" points="587,332 586,335 585,338 585,342 585,345 585,349 585,352 585,355 585,359 585,362 564,369 563,365 562,360 562,355 562,351 562,346 562,341 563,336 563,332 564,327 565,322 576,325 587,328" stroke="#6d725c" /></g><g id="0C01A" stroke="red"><polyline fill="#FFFFFF" points="576,325 565,322 567,318 568,314 570,309 572,305 574,301 576,297 578,293 581,289 583,286 586,282 603,298 601,301 599,304 597,306 595,309 593,312 592,315 591,319 589,322 588,325 587,328" stroke="#6d725c" /></g><g id="0C02" stroke="red"><polyline fill="#FFFFFF" points="545,232 569,232 569,263 545,263" stroke="#6d725c" /></g><g id="0C03" stroke="red"><polyline fill="#FFFFFF" points="520,309 520,278 561,278 561,284 560,285 559,287 558,289 557,290 557,292 556,294 555,295 554,297 554,299 553,301 553,301 552,302 552,303 552,304 551,305 551,306 551,306 551,307 550,308 550,309" stroke="#6d725c" /></g><g id="0C04" stroke="red"><polyline fill="#FFFFFF" points="520,263 520,232 545,232 545,263" stroke="#6d725c" /></g><g id="0C05" stroke="red"><polyline fill="#FFFFFF" points="482,309 482,278 506,278 506,309" stroke="#6d725c" /></g><g id="0C06" stroke="red"><polyline fill="#FFFFFF" points="482,232 506,232 506,263 482,263" stroke="#6d725c" /></g><g id="0C07" stroke="red"><polyline fill="#FFFFFF" points="458,309 458,278 482,278 482,309" stroke="#6d725c" /></g><g id="0C08" stroke="red"><polyline fill="#FFFFFF" points="458,263 458,232 482,232 482,263" stroke="#6d725c" /></g><g id="0C09" stroke="red"><polyline fill="#FFFFFF" points="417,309 417,278 443,278 443,309" stroke="#6d725c" /></g><g id="0C10" stroke="red"><polyline fill="#FFFFFF" points="443,232 443,263 417,263 417,232" stroke="#6d725c" /></g><g id="0C11" stroke="red"><polyline fill="#FFFFFF" points="373,305 373,270 403,270 403,305" stroke="#6d725c" /></g><g id="0C12" stroke="red"><polyline fill="#FFFFFF" points="373,270 373,236 403,236 403,270" stroke="#6d725c" /></g><g id="0C13A" stroke="red"><polyline fill="#FFFFFF" points="309,309 309,278 328,278 328,309" stroke="#6d725c" /></g><g id="0C13B" stroke="red"><polyline fill="#FFFFFF" points="289,309 289,278 309,278 309,309" stroke="#6d725c" /></g><g id="0C13C" stroke="red"><polyline fill="#FFFFFF" points="289,340 289,309 309,309 309,340" stroke="#6d725c" /></g><g id="0C13D" stroke="red"><polyline fill="#FFFFFF" points="309,309 328,309 328,340 309,340" stroke="#6d725c" /></g><g id="0C15A" stroke="red"><polyline fill="#FFFFFF" points="256,309 256,278 275,278 275,309" stroke="#6d725c" /></g><g id="0C15B" stroke="red"><polyline fill="#FFFFFF" points="236,309 236,278 256,278 256,309" stroke="#6d725c" /></g><g id="0C15C" stroke="red"><polyline fill="#FFFFFF" points="236,340 236,309 256,309 256,340" stroke="#6d725c" /></g><g id="0C15D" stroke="red"><polyline fill="#FFFFFF" points="256,309 275,309 275,340 256,340" stroke="#6d725c" /></g><g id="0C17A" stroke="red"><polyline fill="#FFFFFF" points="207,309 207,278 222,278 222,309" stroke="#6d725c" /></g><g id="0C17B" stroke="red"><polyline fill="#FFFFFF" points="191,309 191,278 207,278 207,309" stroke="#6d725c" /></g><g id="0C17C" stroke="red"><polyline fill="#FFFFFF" points="191,340 191,309 207,309 207,340" stroke="#6d725c" /></g><g id="0C17D" stroke="red"><polyline fill="#FFFFFF" points="207,309 222,309 222,340 207,340" stroke="#6d725c" /></g><g id="0C19A" stroke="red"><polyline fill="#FFFFFF" points="149,309 149,278 169,278 169,309" stroke="#6d725c" /></g><g id="0C19B" stroke="red"><polyline fill="#FFFFFF" points="130,309 130,278 149,278 149,309" stroke="#6d725c" /></g><g id="0C19C" stroke="red"><polyline fill="#FFFFFF" points="130,340 130,309 149,309 149,340" stroke="#6d725c" /></g><g id="0C19D" stroke="red"><polyline fill="#FFFFFF" points="149,309 169,309 169,340 149,340" stroke="#6d725c" /></g><g id="0D05A" stroke="red"><polyline fill="#FFFFFF" points="632,234 672,234 672,245 666,245 666,248 663,248 659,249 656,249 652,249 649,250 646,251 642,252 639,253 636,254 632,255" stroke="#6d725c" /></g><g id="0D07A" stroke="red"><polyline fill="#FFFFFF" points="631,255 630,256 629,256 628,257 626,258 625,258 624,259 623,259 622,260 620,261 616,263 614,264 614,264 609,267 598,252 593,234 632,234 632,255" stroke="#6d725c" /></g><g id="0D09A" stroke="red"><polyline fill="#FFFFFF" points="593,224 593,201 632,201 632,224" stroke="#6d725c" /></g><g id="0D09B" stroke="red"><polyline fill="#FFFFFF" points="632,201 672,201 672,224 632,224" stroke="#6d725c" /></g><g id="0D11" stroke="red"><polyline fill="#FFFFFF" points="545,232 545,201 569,201 569,232" stroke="#6d725c" /></g><g id="0D12" stroke="red"><polyline fill="#FFFFFF" points="545,160 569,160 569,186 545,186" stroke="#6d725c" /></g><g id="0D13" stroke="red"><polyline fill="#FFFFFF" points="520,232 520,201 545,201 545,232" stroke="#6d725c" /></g><g id="0D14" stroke="red"><polyline fill="#FFFFFF" points="520,186 520,160 545,160 545,186" stroke="#6d725c" /></g><g id="0D15" stroke="red"><polyline fill="#FFFFFF" points="482,232 482,201 506,201 506,232" stroke="#6d725c" /></g><g id="0D16" stroke="red"><polyline fill="#FFFFFF" points="482,160 506,160 506,186 482,186" stroke="#6d725c" /></g><g id="0D17" stroke="red"><polyline fill="#FFFFFF" points="458,232 458,201 482,201 482,232" stroke="#6d725c" /></g><g id="0D18" stroke="red"><polyline fill="#FFFFFF" points="458,186 458,160 482,160 482,186" stroke="#6d725c" /></g><g id="0D19" stroke="red"><polyline fill="#FFFFFF" points="417,232 417,201 443,201 443,232" stroke="#6d725c" /></g><g id="0D20" stroke="red"><polyline fill="#FFFFFF" points="443,160 443,186 417,186 417,160" stroke="#6d725c" /></g><g id="0D21" stroke="red"><polyline fill="#FFFFFF" points="373,236 373,201 403,201 403,236" stroke="#6d725c" /></g><g id="0D22" stroke="red"><polyline fill="#FFFFFF" points="377,160 403,160 403,186 377,186" stroke="#6d725c" /></g><g id="0D23A" stroke="red"><polyline fill="#FFFFFF" points="309,232 309,201 328,201 328,232" stroke="#6d725c" /></g><g id="0D23B" stroke="red"><polyline fill="#FFFFFF" points="289,232 289,201 309,201 309,232" stroke="#6d725c" /></g><g id="0D23C" stroke="red"><polyline fill="#FFFFFF" points="289,263 289,232 309,232 309,263" stroke="#6d725c" /></g><g id="0D23D" stroke="red"><polyline fill="#FFFFFF" points="309,232 328,232 328,263 309,263" stroke="#6d725c" /></g><g id="0D24" stroke="red"><polyline fill="#FFFFFF" points="350,186 350,160 377,160 377,186" stroke="#6d725c" /></g><g id="0D25A" stroke="red"><polyline fill="#FFFFFF" points="256,232 256,201 275,201 275,232" stroke="#6d725c" /></g><g id="0D25B" stroke="red"><polyline fill="#FFFFFF" points="236,232 236,201 256,201 256,232" stroke="#6d725c" /></g><g id="0D25C" stroke="red"><polyline fill="#FFFFFF" points="236,263 236,232 256,232 256,263" stroke="#6d725c" /></g><g id="0D25D" stroke="red"><polyline fill="#FFFFFF" points="256,232 275,232 275,263 256,263" stroke="#6d725c" /></g><g id="0D27A" stroke="red"><polyline fill="#FFFFFF" points="203,232 203,201 222,201 222,232" stroke="#6d725c" /></g><g id="0D27B" stroke="red"><polyline fill="#FFFFFF" points="183,232 183,201 203,201 203,232" stroke="#6d725c" /></g><g id="0D27C" stroke="red"><polyline fill="#FFFFFF" points="183,263 183,232 203,232 203,263" stroke="#6d725c" /></g><g id="0D27D" stroke="red"><polyline fill="#FFFFFF" points="203,232 222,232 222,263 203,263" stroke="#6d725c" /></g><g id="0D29A" stroke="red"><polyline fill="#FFFFFF" points="149,232 149,201 169,201 169,232" stroke="#6d725c" /></g><g id="0D29B" stroke="red"><polyline fill="#FFFFFF" points="130,232 130,201 149,201 149,232" stroke="#6d725c" /></g><g id="0D29C" stroke="red"><polyline fill="#FFFFFF" points="130,263 130,232 149,232 149,263" stroke="#6d725c" /></g><g id="0D29D" stroke="red"><polyline fill="#FFFFFF" points="149,232 169,232 169,263 149,263" stroke="#6d725c" /></g><g id="0E04" stroke="red"><polyline fill="#FFFFFF" points="652,78 686,78 686,118 652,118" stroke="#6d725c" /></g><g id="0E06" stroke="red"><polyline fill="#FFFFFF" points="618,118 618,78 652,78 652,118" stroke="#6d725c" /></g><g id="0E08" stroke="red"><polyline fill="#FFFFFF" points="584,118 584,78 618,78 618,118" stroke="#6d725c" /></g><g id="0E09" stroke="red"><polyline fill="#FFFFFF" points="583,186 583,134 635,134 635,186" stroke="#6d725c" /></g><g id="0E10" stroke="red"><polyline fill="#FFFFFF" points="550,118 550,78 584,78 584,118" stroke="#6d725c" /></g><g id="0E11" stroke="red"><polyline fill="#FFFFFF" points="545,160 545,134 569,134 569,160" stroke="#6d725c" /></g><g id="0E12" stroke="red"><polyline fill="#FFFFFF" points="516,118 516,78 550,78 550,118" stroke="#6d725c" /></g><g id="0E13" stroke="red"><polyline fill="#FFFFFF" points="520,160 520,134 545,134 545,160" stroke="#6d725c" /></g><g id="0E14" stroke="red"><polyline fill="#FFFFFF" points="482,118 482,78 516,78 516,118" stroke="#6d725c" /></g><g id="0E15" stroke="red"><polyline fill="#FFFFFF" points="482,160 482,134 506,134 506,160" stroke="#6d725c" /></g><g id="0E16" stroke="red"><polyline fill="#FFFFFF" points="448,118 448,78 482,78 482,118" stroke="#6d725c" /></g><g id="0E17" stroke="red"><polyline fill="#FFFFFF" points="458,160 458,134 482,134 482,160" stroke="#6d725c" /></g><g id="0E18" stroke="red"><polyline fill="#FFFFFF" points="414,118 414,78 448,78 448,118" stroke="#6d725c" /></g><g id="0E19" stroke="red"><polyline fill="#FFFFFF" points="417,160 417,134 443,134 443,160" stroke="#6d725c" /></g><g id="0E20" stroke="red"><polyline fill="#FFFFFF" points="379,118 379,78 414,78 414,118" stroke="#6d725c" /></g><g id="0E21" stroke="red"><polyline fill="#FFFFFF" points="377,160 377,134 403,134 403,160" stroke="#6d725c" /></g><g id="0E22" stroke="red"><polyline fill="#FFFFFF" points="344,118 344,78 379,78 379,118" stroke="#6d725c" /></g><g id="0E23" stroke="red"><polyline fill="#FFFFFF" points="350,160 350,134 377,134 377,160" stroke="#6d725c" /></g><g id="0E24" stroke="red"><polyline fill="#FFFFFF" points="280,118 280,95 328,95 328,118" stroke="#6d725c" /></g><g id="0E25A" stroke="red"><polyline fill="#FFFFFF" points="309,160 309,134 328,134 328,160" stroke="#6d725c" /></g><g id="0E25B" stroke="red"><polyline fill="#FFFFFF" points="289,160 289,134 309,134 309,160" stroke="#6d725c" /></g><g id="0E25C" stroke="red"><polyline fill="#FFFFFF" points="289,186 289,160 309,160 309,160 309,186" stroke="#6d725c" /></g><g id="0E25D" stroke="red"><polyline fill="#FFFFFF" points="309,160 328,160 328,186 309,186" stroke="#6d725c" /></g><g id="0E26" stroke="red"><polyline fill="#FFFFFF" points="130,118 130,108 133,107 132,104 216,86 216,118" stroke="#6d725c" /></g><g id="0E27A" stroke="red"><polyline fill="#FFFFFF" points="256,160 256,134 275,134 275,160" stroke="#6d725c" /></g><g id="0E27B" stroke="red"><polyline fill="#FFFFFF" points="236,160 236,134 256,134 256,160" stroke="#6d725c" /></g><g id="0E27C" stroke="red"><polyline fill="#FFFFFF" points="236,186 236,160 256,160 256,186" stroke="#6d725c" /></g><g id="0E27D" stroke="red"><polyline fill="#FFFFFF" points="256,160 275,160 275,186 256,186" stroke="#6d725c" /></g><g id="0E29A" stroke="red"><polyline fill="#FFFFFF" points="203,160 203,134 222,134 222,160" stroke="#6d725c" /></g><g id="0E29B" stroke="red"><polyline fill="#FFFFFF" points="183,160 183,134 203,134 203,160" stroke="#6d725c" /></g><g id="0E29C" stroke="red"><polyline fill="#FFFFFF" points="183,186 183,160 203,160 203,186" stroke="#6d725c" /></g><g id="0E29D" stroke="red"><polyline fill="#FFFFFF" points="203,160 222,160 222,186 203,186" stroke="#6d725c" /></g><g id="0E31A" stroke="red"><polyline fill="#FFFFFF" points="149,160 149,134 169,134 169,160" stroke="#6d725c" /></g><g id="0E31B" stroke="red"><polyline fill="#FFFFFF" points="130,160 130,134 149,134 149,160" stroke="#6d725c" /></g><g id="0E31C" stroke="red"><polyline fill="#FFFFFF" points="130,186 130,160 149,160 149,186" stroke="#6d725c" /></g><g id="0E31D" stroke="red"><polyline fill="#FFFFFF" points="149,160 169,160 169,186 149,186" stroke="#6d725c" /></g><g id="0F02" stroke="red"><polyline fill="#FFFFFF" points="44,152 44,126 114,111 114,152" stroke="#6d725c" /></g><g id="0F03" stroke="red"><polyline fill="#FFFFFF" points="114,152 114,182 114,182 114,183 114,184 113,184 113,185 112,185 112,186 111,186 110,186 110,186 49,186 48,186 47,186 47,186 46,186 45,185 45,185 44,184 44,183 44,183 44,182 44,152" stroke="#6d725c" /></g><g id="0F04" stroke="red"><polyline fill="#FFFFFF" points="65,249 65,196 110,196 110,196 111,197 112,197 112,197 113,198 114,198 114,199 114,200 114,200 114,201 114,249" stroke="#6d725c" /></g><g id="0F05" stroke="red"><polyline fill="#FFFFFF" points="114,249 114,341 65,341 65,249" stroke="#6d725c" /></g><g id="0F07" stroke="red"><polyline fill="#FFFFFF" points="727,92 727,92 727,182 756,182 763,228 740,251 740,252 739,252 724,266 703,266 703,92" stroke="#6d725c" /></g><g id="0T01" stroke="red"><polyline fill="#FFFFFF" points="23,422 23,371 35,371 36,371 37,371 38,371 39,372 40,373 41,374 42,375 42,376 43,377 43,379 43,422" stroke="#6d725c" /></g><g id="0T02" stroke="red"><polyline fill="#FFFFFF" points="674,266 668,266 663,266 658,267 652,267 647,269 642,270 637,272 632,274 628,277 623,280 612,268 612,268 617,265 623,261 629,259 635,256 641,254 648,252 654,251 661,250 667,250 674,250" stroke="#6d725c" /></g><g id="0Y01" stroke="red"><polyline fill="#FFFFFF" points="86,402 86,358 108,358 108,402" stroke="#6d725c" /></g></svg>