<?xml version="1.0" encoding="utf-8" ?>
<svg baseProfile="full" height="508" version="1.1" width="800" xmlns="http://www.w3.org/2000/svg" xmlns:ev="http://www.w3.org/2001/xml-events" xmlns:xlink="http://www.w3.org/1999/xlink"><defs /><g id="4A01" stroke="red"><polyline points="785,454 785,508 696,508 696,454" stroke="#6d725c" /></g><g id="4A03" stroke="red"><polyline points="645,502 676,502 676,546 699,546 699,557 697,557 697,562 645,562" stroke="#6d725c" /></g><g id="4A04" stroke="red"><polyline points="696,454 696,400 785,400 785,454" stroke="#6d725c" /></g><g id="4A05" stroke="red"><polyline points="614,562 614,502 645,502 645,562" stroke="#6d725c" /></g><g id="4A06" stroke="red"><polyline points="656,481 656,428 678,428 678,481" stroke="#6d725c" /></g><g id="4A07" stroke="red"><polyline points="575,562 575,502 614,502 614,562" stroke="#6d725c" /></g><g id="4A08" stroke="red"><polyline points="608,428 638,428 638,481 608,481" stroke="#6d725c" /></g><g id="4A09" stroke="red"><polyline points="535,562 535,502 575,502 575,562" stroke="#6d725c" /></g><g id="4A10" stroke="red"><polyline points="578,481 578,428 608,428 608,481" stroke="#6d725c" /></g><g id="4A11" stroke="red"><polyline points="492,562 492,502 535,502 535,562" stroke="#6d725c" /></g><g id="4A12" stroke="red"><polyline points="518,455 561,455 561,481 518,481" stroke="#6d725c" /></g><g id="4A13" stroke="red"><polyline points="448,562 448,502 492,502 492,562" stroke="#6d725c" /></g><g id="4A14" stroke="red"><polyline points="474,481 474,455 518,455 518,481" stroke="#6d725c" /></g><g id="4A15" stroke="red"><polyline points="397,562 397,502 448,502 448,562" stroke="#6d725c" /></g><g id="4A16" stroke="red"><polyline points="414,455 457,455 457,481 414,481" stroke="#6d725c" /></g><g id="4A17" stroke="red"><polyline points="347,562 347,502 397,502 397,562" stroke="#6d725c" /></g><g id="4A18" stroke="red"><polyline points="372,481 372,455 414,455 414,481" stroke="#6d725c" /></g><g id="4A19" stroke="red"><polyline points="306,562 306,502 347,502 347,562" stroke="#6d725c" /></g><g id="4A20" stroke="red"><polyline points="311,455 354,455 354,481 311,481" stroke="#6d725c" /></g><g id="4A21" stroke="red"><polyline points="264,562 264,502 306,502 306,562" stroke="#6d725c" /></g><g id="4A22" stroke="red"><polyline points="268,481 268,455 311,455 311,481" stroke="#6d725c" /></g><g id="4B04" stroke="red"><polyline points="696,400 696,350 785,350 785,400" stroke="#6d725c" /></g><g id="4B07" stroke="red"><polyline points="518,455 518,428 561,428 561,455" stroke="#6d725c" /></g><g id="4B08" stroke="red"><polyline points="614,370 614,410 578,410 578,370" stroke="#6d725c" /></g><g id="4B09" stroke="red"><polyline points="474,455 474,428 518,428 518,455" stroke="#6d725c" /></g><g id="4B10" stroke="red"><polyline points="518,373 561,373 561,410 518,410" stroke="#6d725c" /></g><g id="4B11" stroke="red"><polyline points="414,455 414,428 457,428 457,455" stroke="#6d725c" /></g><g id="4B12" stroke="red"><polyline points="474,410 474,373 518,373 518,410" stroke="#6d725c" /></g><g id="4B13" stroke="red"><polyline points="372,455 372,428 414,428 414,455" stroke="#6d725c" /></g><g id="4B14" stroke="red"><polyline points="414,373 457,373 457,410 414,410" stroke="#6d725c" /></g><g id="4B15" stroke="red"><polyline points="311,455 311,428 354,428 354,455" stroke="#6d725c" /></g><g id="4B16" stroke="red"><polyline points="372,410 372,373 414,373 414,410" stroke="#6d725c" /></g><g id="4B17" stroke="red"><polyline points="268,455 268,428 311,428 311,455" stroke="#6d725c" /></g><g id="4B18" stroke="red"><polyline points="354,371 354,410 295,410 295,371" stroke="#6d725c" /></g><g id="4C03" stroke="red"><polyline points="696,350 696,301 785,301 785,350" stroke="#6d725c" /></g><g id="4C04" stroke="red"><polyline points="696,301 696,258 785,258 785,301" stroke="#6d725c" /></g><g id="4C05" stroke="red"><polyline points="578,370 578,329 614,329 614,370" stroke="#6d725c" /></g><g id="4C06" stroke="red"><polyline points="578,329 578,288 614,288 614,329" stroke="#6d725c" /></g><g id="4C07" stroke="red"><polyline points="518,373 518,336 561,336 561,373" stroke="#6d725c" /></g><g id="4C08" stroke="red"><polyline points="518,285 561,285 561,322 518,322" stroke="#6d725c" /></g><g id="4C09" stroke="red"><polyline points="474,373 474,336 518,336 518,373" stroke="#6d725c" /></g><g id="4C10" stroke="red"><polyline points="474,322 474,285 518,285 518,322" stroke="#6d725c" /></g><g id="4C11" stroke="red"><polyline points="414,373 414,336 457,336 457,373" stroke="#6d725c" /></g><g id="4C12" stroke="red"><polyline points="414,285 457,285 457,322 414,322" stroke="#6d725c" /></g><g id="4C13" stroke="red"><polyline points="372,373 372,336 414,336 414,373" stroke="#6d725c" /></g><g id="4C14" stroke="red"><polyline points="372,322 372,285 414,285 414,322" stroke="#6d725c" /></g><g id="4C15" stroke="red"><polyline points="295,371 295,331 354,331 354,371" stroke="#6d725c" /></g><g id="4C16" stroke="red"><polyline points="295,331 295,291 354,291 354,331" stroke="#6d725c" /></g><g id="4D01" stroke="red"><polyline points="696,258 696,222 785,222 785,258" stroke="#6d725c" /></g><g id="4D02" stroke="red"><polyline points="696,222 696,187 785,187 785,222" stroke="#6d725c" /></g><g id="4D08" stroke="red"><polyline points="627,185 675,185 675,230 627,230" stroke="#6d725c" /></g><g id="4D09" stroke="red"><polyline points="578,288 578,248 614,248 614,288" stroke="#6d725c" /></g><g id="4D10" stroke="red"><polyline points="627,230 627,230 578,230 578,185 627,185 627,185" stroke="#6d725c" /></g><g id="4D11" stroke="red"><polyline points="518,285 518,248 561,248 561,285" stroke="#6d725c" /></g><g id="4D12" stroke="red"><polyline points="518,187 561,187 561,230 518,230" stroke="#6d725c" /></g><g id="4D13" stroke="red"><polyline points="474,285 474,248 518,248 518,285" stroke="#6d725c" /></g><g id="4D14" stroke="red"><polyline points="474,230 474,187 518,187 518,230" stroke="#6d725c" /></g><g id="4D15" stroke="red"><polyline points="414,285 414,248 457,248 457,285" stroke="#6d725c" /></g><g id="4D16" stroke="red"><polyline points="414,200 457,200 457,230 414,230" stroke="#6d725c" /></g><g id="4D17" stroke="red"><polyline points="372,285 372,248 414,248 414,285" stroke="#6d725c" /></g><g id="4D18" stroke="red"><polyline points="372,230 372,200 414,200 414,230" stroke="#6d725c" /></g><g id="4D19" stroke="red"><polyline points="295,291 295,248 354,248 354,291" stroke="#6d725c" /></g><g id="4D20" stroke="red"><polyline points="320,191 340,184 354,184 354,230 320,230" stroke="#6d725c" /></g><g id="4D22" stroke="red"><polyline points="269,230 269,211 320,191 320,230" stroke="#6d725c" /></g><g id="4E01" stroke="red"><polyline points="696,187 696,145 785,145 785,187" stroke="#6d725c" /></g><g id="4E02" stroke="red"><polyline points="696,145 696,103 736,103 736,88 785,88 785,145" stroke="#6d725c" /></g><g id="4E06" stroke="red"><polyline points="604,88 651,88 651,121 604,121" stroke="#6d725c" /></g><g id="4E07" stroke="red"><polyline points="627,185 627,140 627,140 675,140 675,185" stroke="#6d725c" /></g><g id="4E08" stroke="red"><polyline points="557,121 557,88 604,88 604,121" stroke="#6d725c" /></g><g id="4E09" stroke="red"><polyline points="578,185 578,140 627,140 627,185" stroke="#6d725c" /></g><g id="4E11" stroke="red"><polyline points="518,187 518,140 561,140 561,187" stroke="#6d725c" /></g><g id="4E12" stroke="red"><polyline points="480,112 520,104 535,110 535,121 511,121 484,128" stroke="#6d725c" /></g><g id="4E13" stroke="red"><polyline points="474,187 474,152 518,140 518,187" stroke="#6d725c" /></g><g id="4E14" stroke="red"><polyline points="484,128 454,136 441,89 456,89 473,85 480,112" stroke="#6d725c" /></g><g id="4E15" stroke="red"><polyline points="414,200 414,168 457,156 457,200" stroke="#6d725c" /></g><g id="4E16" stroke="red"><polyline points="454,136 426,143 417,112 411,81 447,74 447,82 441,82 441,89" stroke="#6d725c" /></g><g id="4E17" stroke="red"><polyline points="372,200 372,179 414,168 414,200" stroke="#6d725c" /></g><g id="4E18" stroke="red"><polyline points="382,155 373,121 417,112 426,143" stroke="#6d725c" /></g><g id="4E20" stroke="red"><polyline points="319,172 310,139 357,129 365,160" stroke="#6d725c" /></g><g id="4E22" stroke="red"><polyline points="237,150 290,139 291,143 293,142 302,176 247,197" stroke="#6d725c" /></g><g id="4E24" stroke="red"><polyline points="235,197 215,201 207,161 209,160 208,156 237,150 247,197" stroke="#6d725c" /></g><g id="4Y02A" stroke="red"><polyline points="240,280 221,280 221,272 129,272 129,219 240,219" stroke="#6d725c" /></g><g id="4Y02B" stroke="red"><polyline points="187,165 189,164 196,198 141,198 141,185 136,185 136,137 139,136 138,131 178,123" stroke="#6d725c" /></g><g id="4Y02C" stroke="red"><polyline points="84,352 84,352 84,408 15,408 15,408 15,197 111,197 111,352" stroke="#6d725c" /></g><g id="4Y03" stroke="red"><polyline points="84,408 84,408 84,352 111,352 111,352 111,447 247,447 247,526 183,526 183,562 39,562 39,557 34,557 34,515 35,515 35,505 63,505 63,449 15,449 15,408" stroke="#6d725c" /></g></svg>