<?xml version="1.0" encoding="utf-8" ?>
<svg baseProfile="full" height="577" version="1.1" width="800" xmlns="http://www.w3.org/2000/svg" xmlns:ev="http://www.w3.org/2001/xml-events" xmlns:xlink="http://www.w3.org/1999/xlink"><defs /><g id="2A06" stroke="red"><polyline fill="#FFFFFF" points="616,376 616,418 580,418 580,376" stroke="#6d725c" /></g><g id="2A08" stroke="red"><polyline fill="#FFFFFF" points="520,380 562,380 562,418 520,418" stroke="#6d725c" /></g><g id="2A10" stroke="red"><polyline fill="#FFFFFF" points="478,418 478,380 520,380 520,418" stroke="#6d725c" /></g><g id="2A12" stroke="red"><polyline fill="#FFFFFF" points="418,380 460,380 460,418 418,418 418,418" stroke="#6d725c" /></g><g id="2A14" stroke="red"><polyline fill="#FFFFFF" points="418,418 375,418 375,380 418,380 418,380" stroke="#6d725c" /></g><g id="2A15" stroke="red"><polyline fill="#FFFFFF" points="292,488 292,439 373,439 373,488" stroke="#6d725c" /></g><g id="2A16" stroke="red"><polyline fill="#FFFFFF" points="358,376 358,418 299,418 299,376" stroke="#6d725c" /></g><g id="2A17" stroke="red"><polyline fill="#FFFFFF" points="373,488 373,439 454,439 454,488" stroke="#6d725c" /></g><g id="2A23" stroke="red"><polyline fill="#FFFFFF" points="133,485 133,445 275,445 275,473 251,473 251,525 133,525" stroke="#6d725c" /></g><g id="2B03" stroke="red"><polyline fill="#FFFFFF" points="698,390 696,390 696,330 787,330 787,390" stroke="#6d725c" /></g><g id="2B05" stroke="red"><polyline fill="#FFFFFF" points="580,376 580,334 616,334 616,376" stroke="#6d725c" /></g><g id="2B06" stroke="red"><polyline fill="#FFFFFF" points="580,334 580,292 616,292 616,292 616,334 616,334" stroke="#6d725c" /></g><g id="2B07" stroke="red"><polyline fill="#FFFFFF" points="520,343 562,343 562,380 520,380" stroke="#6d725c" /></g><g id="2B08" stroke="red"><polyline fill="#FFFFFF" points="520,287 562,287 562,325 520,325 520,325" stroke="#6d725c" /></g><g id="2B09" stroke="red"><polyline fill="#FFFFFF" points="520,380 478,380 478,343 520,343 520,343" stroke="#6d725c" /></g><g id="2B10" stroke="red"><polyline fill="#FFFFFF" points="478,325 478,287 520,287 520,325" stroke="#6d725c" /></g><g id="2B11" stroke="red"><polyline fill="#FFFFFF" points="418,343 460,343 460,380 418,380" stroke="#6d725c" /></g><g id="2B12" stroke="red"><polyline fill="#FFFFFF" points="460,287 460,325 418,325 418,287" stroke="#6d725c" /></g><g id="2B13" stroke="red"><polyline fill="#FFFFFF" points="375,380 375,343 418,343 418,380" stroke="#6d725c" /></g><g id="2B14" stroke="red"><polyline fill="#FFFFFF" points="418,287 418,325 375,325 375,287" stroke="#6d725c" /></g><g id="2B15" stroke="red"><polyline fill="#FFFFFF" points="299,376 299,333 358,333 358,376" stroke="#6d725c" /></g><g id="2B16" stroke="red"><polyline fill="#FFFFFF" points="299,333 299,291 358,291 358,333" stroke="#6d725c" /></g><g id="2C03" stroke="red"><polyline fill="#FFFFFF" points="696,330 696,249 787,249 787,330 787,330" stroke="#6d725c" /></g><g id="2C04" stroke="red"><polyline fill="#FFFFFF" points="696,249 696,196 787,196 787,249" stroke="#6d725c" /></g><g id="2C06" stroke="red"><polyline fill="#FFFFFF" points="625,187 671,187 671,232 625,232" stroke="#6d725c" /></g><g id="2C08" stroke="red"><polyline fill="#FFFFFF" points="578,232 578,187 625,187 625,232" stroke="#6d725c" /></g><g id="2C09" stroke="red"><polyline fill="#FFFFFF" points="580,292 580,249 616,249 616,292" stroke="#6d725c" /></g><g id="2C11" stroke="red"><polyline fill="#FFFFFF" points="520,287 520,249 562,249 562,287" stroke="#6d725c" /></g><g id="2C12" stroke="red"><polyline fill="#FFFFFF" points="562,232 520,232 520,190 562,190" stroke="#6d725c" /></g><g id="2C13" stroke="red"><polyline fill="#FFFFFF" points="478,287 478,249 520,249 520,287" stroke="#6d725c" /></g><g id="2C14" stroke="red"><polyline fill="#FFFFFF" points="520,232 520,232 478,232 478,190 520,190" stroke="#6d725c" /></g><g id="2C15" stroke="red"><polyline fill="#FFFFFF" points="418,249 460,249 460,287 418,287" stroke="#6d725c" /></g><g id="2C16" stroke="red"><polyline fill="#FFFFFF" points="418,196 460,196 460,232 418,232" stroke="#6d725c" /></g><g id="2C17" stroke="red"><polyline fill="#FFFFFF" points="418,287 418,287 375,287 375,249 418,249 418,287 418,287" stroke="#6d725c" /></g><g id="2C18" stroke="red"><polyline fill="#FFFFFF" points="375,232 375,196 418,196 418,232" stroke="#6d725c" /></g><g id="2C19" stroke="red"><polyline fill="#FFFFFF" points="299,291 299,249 358,249 358,291" stroke="#6d725c" /></g><g id="2D04" stroke="red"><polyline fill="#FFFFFF" points="717,143 696,143 696,106 738,106 738,89 787,89 787,143" stroke="#6d725c" /></g><g id="2D05" stroke="red"><polyline fill="#FFFFFF" points="696,196 696,143 717,143 787,143 787,196" stroke="#6d725c" /></g><g id="2D06" stroke="red"><polyline fill="#FFFFFF" points="639,122 639,89 681,89 681,122" stroke="#6d725c" /></g><g id="2D07" stroke="red"><polyline fill="#FFFFFF" points="625,187 625,143 671,143 671,187" stroke="#6d725c" /></g><g id="2D08" stroke="red"><polyline fill="#FFFFFF" points="559,122 559,89 624,89 624,122" stroke="#6d725c" /></g><g id="2D09" stroke="red"><polyline fill="#FFFFFF" points="578,187 578,143 625,143 625,187" stroke="#6d725c" /></g><g id="2D11" stroke="red"><polyline fill="#FFFFFF" points="520,190 520,148 542,143 562,143 562,190" stroke="#6d725c" /></g><g id="2D12" stroke="red"><polyline fill="#FFFFFF" points="482,113 519,105 537,113 539,122 487,134" stroke="#6d725c" /></g><g id="2D13" stroke="red"><polyline fill="#FFFFFF" points="520,190 478,190 478,157 520,148 520,190" stroke="#6d725c" /></g><g id="2D14" stroke="red"><polyline fill="#FFFFFF" points="487,134 428,147 414,82 451,75 452,74 452,90 459,90 476,86 478,93 478,93 482,113" stroke="#6d725c" /></g><g id="2D15" stroke="red"><polyline fill="#FFFFFF" points="375,190 375,180 460,161 460,190" stroke="#6d725c" /></g><g id="2D16" stroke="red"><polyline fill="#FFFFFF" points="385,157 377,126 379,126 379,122 421,113 428,147" stroke="#6d725c" /></g><g id="2Y01" stroke="red"><polyline fill="#FFFFFF" points="133,525 133,525 133,527 181,527 181,561 38,561 38,522 20,522 20,504 68,504 68,461 71,461 71,443 20,443 20,415 31,415 31,408 20,408 20,220 143,220 143,221 145,221 145,198 141,198 141,185 195,174 193,165 212,161 212,157 294,140 295,144 348,132 348,199 358,199 358,232 244,232 244,280 224,280 224,272 133,272 133,485" stroke="#6d725c" /></g><g id="2Y02" stroke="red"><polyline fill="#FFFFFF" points="373,488 454,488 454,561 268,561 268,525 266,525 266,488 292,488" stroke="#6d725c" /></g><g id="2Y03" stroke="red"><polyline fill="#FFFFFF" points="460,561 460,439 678,439 678,561" stroke="#6d725c" /></g><g id="2Y04" stroke="red"><polyline fill="#FFFFFF" points="787,390 787,508 701,508 701,415 698,415 698,390" stroke="#6d725c" /></g></svg>