<?xml version="1.0" encoding="utf-8" ?>
<svg baseProfile="full" height="576" version="1.1" width="800" xmlns="http://www.w3.org/2000/svg" xmlns:ev="http://www.w3.org/2001/xml-events" xmlns:xlink="http://www.w3.org/1999/xlink"><defs /><g id="3A01" stroke="red"><polyline fill="#ebf7d1" points="785,472 785,512 737,512 737,472" stroke="#6d725c" /></g><g id="3A02" stroke="red"><polyline fill="#ebf7d1" points="737,472 737,433 785,433 785,472" stroke="#6d725c" /></g><g id="3A03" stroke="red"><polyline fill="#ebf7d1" points="646,506 676,506 676,551 700,551 700,561 697,561 697,566 646,566" stroke="#6d725c" /></g><g id="3A04" stroke="red"><polyline fill="#ebf7d1" points="657,485 657,432 717,432 717,485" stroke="#6d725c" /></g><g id="3A05" stroke="red"><polyline fill="#ebf7d1" points="615,566 615,506 646,506 646,566" stroke="#6d725c" /></g><g id="3A07" stroke="red"><polyline fill="#ebf7d1" points="575,566 575,506 615,506 615,566" stroke="#6d725c" /></g><g id="3A08" stroke="red"><polyline fill="#ebf7d1" points="579,485 579,432 639,432 639,485" stroke="#6d725c" /></g><g id="3A09" stroke="red"><polyline fill="#ebf7d1" points="536,566 536,506 575,506 575,566" stroke="#6d725c" /></g><g id="3A10" stroke="red"><polyline fill="#ebf7d1" points="518,432 561,432 561,485 518,485" stroke="#6d725c" /></g><g id="3A11" stroke="red"><polyline fill="#ebf7d1" points="492,566 492,506 536,506 536,566" stroke="#6d725c" /></g><g id="3A12" stroke="red"><polyline fill="#ebf7d1" points="475,485 475,432 518,432 518,485" stroke="#6d725c" /></g><g id="3A13" stroke="red"><polyline fill="#ebf7d1" points="448,566 448,506 492,506 492,566" stroke="#6d725c" /></g><g id="3A15" stroke="red"><polyline fill="#ebf7d1" points="398,566 398,506 448,506 448,566" stroke="#6d725c" /></g><g id="3A16" stroke="red"><polyline fill="#ebf7d1" points="415,432 457,432 457,485 415,485" stroke="#6d725c" /></g><g id="3A17" stroke="red"><polyline fill="#ebf7d1" points="347,566 347,506 398,506 398,566" stroke="#6d725c" /></g><g id="3A18" stroke="red"><polyline fill="#ebf7d1" points="372,485 372,432 415,432 415,485" stroke="#6d725c" /></g><g id="3A19" stroke="red"><polyline fill="#ebf7d1" points="306,566 306,506 347,506 347,566" stroke="#6d725c" /></g><g id="3A20" stroke="red"><polyline fill="#ebf7d1" points="311,432 355,432 355,485 311,485" stroke="#6d725c" /></g><g id="3A21" stroke="red"><polyline fill="#ebf7d1" points="265,566 265,506 306,506 306,566" stroke="#6d725c" /></g><g id="3A22" stroke="red"><polyline fill="#ebf7d1" points="268,485 268,432 311,432 311,485" stroke="#6d725c" /></g><g id="3B01" stroke="red"><polyline fill="#ebf7d1" points="737,433 737,393 785,393 785,433" stroke="#6d725c" /></g><g id="3B02" stroke="red"><polyline fill="#ebf7d1" points="737,393 737,353 785,353 785,393" stroke="#6d725c" /></g><g id="3B04" stroke="red"><polyline fill="#ebf7d1" points="717,375 717,414 671,414 671,375" stroke="#6d725c" /></g><g id="3B06" stroke="red"><polyline fill="#ebf7d1" points="579,414 579,360 614,360 614,414" stroke="#6d725c" /></g><g id="3B08" stroke="red"><polyline fill="#ebf7d1" points="518,377 561,377 561,414 518,414" stroke="#6d725c" /></g><g id="3B10" stroke="red"><polyline fill="#ebf7d1" points="475,414 475,377 518,377 518,414" stroke="#6d725c" /></g><g id="3B12" stroke="red"><polyline fill="#ebf7d1" points="415,377 457,377 457,414 415,414" stroke="#6d725c" /></g><g id="3B14" stroke="red"><polyline fill="#ebf7d1" points="372,414 372,377 415,377 415,414" stroke="#6d725c" /></g><g id="3B16" stroke="red"><polyline fill="#ebf7d1" points="355,374 355,414 296,414 296,374" stroke="#6d725c" /></g><g id="3C01" stroke="red"><polyline fill="#ebf7d1" points="737,353 737,313 785,313 785,353" stroke="#6d725c" /></g><g id="3C02" stroke="red"><polyline fill="#ebf7d1" points="737,313 737,274 785,274 785,274 785,313" stroke="#6d725c" /></g><g id="3C03" stroke="red"><polyline fill="#ebf7d1" points="671,375 671,336 717,336 717,375" stroke="#6d725c" /></g><g id="3C04" stroke="red"><polyline fill="#ebf7d1" points="671,336 671,297 717,297 717,336" stroke="#6d725c" /></g><g id="3C05" stroke="red"><polyline fill="#ebf7d1" points="614,306 614,360 579,360 579,306" stroke="#6d725c" /></g><g id="3C07" stroke="red"><polyline fill="#ebf7d1" points="518,377 518,340 561,340 561,377" stroke="#6d725c" /></g><g id="3C08" stroke="red"><polyline fill="#ebf7d1" points="518,288 561,288 561,326 518,326" stroke="#6d725c" /></g><g id="3C09" stroke="red"><polyline fill="#ebf7d1" points="475,377 475,340 518,340 518,377" stroke="#6d725c" /></g><g id="3C10" stroke="red"><polyline fill="#ebf7d1" points="475,326 475,288 518,288 518,326" stroke="#6d725c" /></g><g id="3C11" stroke="red"><polyline fill="#ebf7d1" points="415,377 415,340 457,340 457,377" stroke="#6d725c" /></g><g id="3C12" stroke="red"><polyline fill="#ebf7d1" points="415,288 457,288 457,326 415,326" stroke="#6d725c" /></g><g id="3C13" stroke="red"><polyline fill="#ebf7d1" points="372,377 372,340 415,340 415,377" stroke="#6d725c" /></g><g id="3C14" stroke="red"><polyline fill="#ebf7d1" points="372,326 372,288 415,288 415,326" stroke="#6d725c" /></g><g id="3C15" stroke="red"><polyline fill="#ebf7d1" points="296,374 296,335 355,335 355,374" stroke="#6d725c" /></g><g id="3C16" stroke="red"><polyline fill="#ebf7d1" points="296,335 296,295 355,295 355,335" stroke="#6d725c" /></g><g id="3D01" stroke="red"><polyline fill="#ebf7d1" points="737,274 737,234 785,234 785,274" stroke="#6d725c" /></g><g id="3D02" stroke="red"><polyline fill="#ebf7d1" points="737,234 737,191 785,191 785,234" stroke="#6d725c" /></g><g id="3D03" stroke="red"><polyline fill="#ebf7d1" points="671,297 671,251 717,251 717,297" stroke="#6d725c" /></g><g id="3D06" stroke="red"><polyline fill="#ebf7d1" points="656,234 656,144 688,144 688,234" stroke="#6d725c" /></g><g id="3D08" stroke="red"><polyline fill="#ebf7d1" points="609,144 639,144 639,234 609,234 609,234" stroke="#6d725c" /></g><g id="3D09" stroke="red"><polyline fill="#ebf7d1" points="579,306 579,251 614,251 614,306" stroke="#6d725c" /></g><g id="3D10" stroke="red"><polyline fill="#ebf7d1" points="579,234 579,144 609,144 609,234" stroke="#6d725c" /></g><g id="3D11" stroke="red"><polyline fill="#ebf7d1" points="518,288 518,251 561,251 561,288" stroke="#6d725c" /></g><g id="3D12" stroke="red"><polyline fill="#ebf7d1" points="518,191 561,191 561,234 518,234" stroke="#6d725c" /></g><g id="3D13" stroke="red"><polyline fill="#ebf7d1" points="475,288 475,251 518,251 518,288" stroke="#6d725c" /></g><g id="3D14" stroke="red"><polyline fill="#ebf7d1" points="475,234 475,191 518,191 518,234" stroke="#6d725c" /></g><g id="3D15" stroke="red"><polyline fill="#ebf7d1" points="415,288 415,251 457,251 457,288" stroke="#6d725c" /></g><g id="3D16" stroke="red"><polyline fill="#ebf7d1" points="407,198 457,198 457,234 407,234" stroke="#6d725c" /></g><g id="3D17" stroke="red"><polyline fill="#ebf7d1" points="372,288 372,251 415,251 415,288" stroke="#6d725c" /></g><g id="3D18" stroke="red"><polyline fill="#ebf7d1" points="407,234 372,234 372,183 407,174 407,198" stroke="#6d725c" /></g><g id="3D19" stroke="red"><polyline fill="#ebf7d1" points="296,295 296,251 355,251 355,295" stroke="#6d725c" /></g><g id="3D20A" stroke="red"><polyline fill="#ebf7d1" points="269,234 269,215 321,195 321,234" stroke="#6d725c" /></g><g id="3D20B" stroke="red"><polyline fill="#ebf7d1" points="321,195 340,188 355,188 355,234 321,234" stroke="#6d725c" /></g><g id="3D22" stroke="red"><polyline fill="#ebf7d1" points="129,226 201,226 240,226 240,284 221,284 221,276 129,276" stroke="#6d725c" /></g><g id="3E01" stroke="red"><polyline fill="#ebf7d1" points="737,191 737,144 785,144 785,191" stroke="#6d725c" /></g><g id="3E02" stroke="red"><polyline fill="#ebf7d1" points="737,144 737,92 785,92 785,144" stroke="#6d725c" /></g><g id="3E03" stroke="red"><polyline fill="#ebf7d1" points="688,144 717,144 717,234 688,234" stroke="#6d725c" /></g><g id="3E04" stroke="red"><polyline fill="#ebf7d1" points="669,124 669,92 723,92 723,124" stroke="#6d725c" /></g><g id="3E06" stroke="red"><polyline fill="#ebf7d1" points="604,92 651,92 651,124 604,124" stroke="#6d725c" /></g><g id="3E08" stroke="red"><polyline fill="#ebf7d1" points="557,124 557,92 604,92 604,124" stroke="#6d725c" /></g><g id="3E09" stroke="red"><polyline fill="#ebf7d1" points="518,191 518,144 561,144 561,191" stroke="#6d725c" /></g><g id="3E10" stroke="red"><polyline fill="#ebf7d1" points="481,116 521,107 536,114 536,124 512,124 485,132" stroke="#6d725c" /></g><g id="3E11" stroke="red"><polyline fill="#ebf7d1" points="475,191 475,155 518,144 518,191" stroke="#6d725c" /></g><g id="3E12" stroke="red"><polyline fill="#ebf7d1" points="485,132 455,139 426,147 418,116 411,85 449,77 449,92 456,92 474,89 481,116" stroke="#6d725c" /></g><g id="3E13" stroke="red"><polyline fill="#ebf7d1" points="407,198 407,174 457,160 457,198" stroke="#6d725c" /></g><g id="3E14" stroke="red"><polyline fill="#ebf7d1" points="382,159 374,125 418,116 426,147" stroke="#6d725c" /></g><g id="3E16" stroke="red"><polyline fill="#ebf7d1" points="319,176 311,142 357,133 365,163" stroke="#6d725c" /></g><g id="3E18" stroke="red"><polyline fill="#ebf7d1" points="237,154 291,143 291,147 293,146 302,180 248,201" stroke="#6d725c" /></g><g id="3E20" stroke="red"><polyline fill="#ebf7d1" points="235,201 215,205 207,164 209,164 208,160 237,154 248,201" stroke="#6d725c" /></g><g id="3Y01" stroke="red"><polyline fill="#ebf7d1" points="129,226 129,276 129,344 245,344 245,368 129,368 129,431 207,431 207,426 207,426 207,397 200,397 200,371 242,371 242,422 231,422 231,431 247,431 247,530 183,530 183,566 34,566 34,527 15,527 15,509 63,509 63,471 66,471 66,453 15,453 15,201 136,201 136,176 187,165 188,169 189,168 201,226" stroke="#6d725c" /></g></svg>