<?xml version="1.0" encoding="utf-8" ?>
<svg baseProfile="full" height="508" version="1.1" width="800" xmlns="http://www.w3.org/2000/svg" xmlns:ev="http://www.w3.org/2001/xml-events" xmlns:xlink="http://www.w3.org/1999/xlink"><defs /><g id="4A01" stroke="red"><polyline points="784,472 784,526 695,526 695,472" stroke="#6d725c" /></g><g id="4A03" stroke="red"><polyline points="644,520 675,520 675,564 698,564 698,575 696,575 696,580 644,580" stroke="#6d725c" /></g><g id="4A04" stroke="red"><polyline points="695,472 695,418 784,418 784,472" stroke="#6d725c" /></g><g id="4A05" stroke="red"><polyline points="614,580 614,520 644,520 644,580" stroke="#6d725c" /></g><g id="4A06" stroke="red"><polyline points="655,499 655,446 677,446 677,499" stroke="#6d725c" /></g><g id="4A07" stroke="red"><polyline points="574,580 574,520 614,520 614,580" stroke="#6d725c" /></g><g id="4A08" stroke="red"><polyline points="608,446 638,446 638,499 608,499" stroke="#6d725c" /></g><g id="4A09" stroke="red"><polyline points="535,580 535,520 574,520 574,580" stroke="#6d725c" /></g><g id="4A10" stroke="red"><polyline points="578,499 578,446 608,446 608,499" stroke="#6d725c" /></g><g id="4A11" stroke="red"><polyline points="491,580 491,520 535,520 535,580" stroke="#6d725c" /></g><g id="4A12" stroke="red"><polyline points="517,473 560,473 560,499 517,499" stroke="#6d725c" /></g><g id="4A13" stroke="red"><polyline points="447,580 447,520 491,520 491,580" stroke="#6d725c" /></g><g id="4A14" stroke="red"><polyline points="474,499 474,473 517,473 517,499" stroke="#6d725c" /></g><g id="4A15" stroke="red"><polyline points="397,580 397,520 447,520 447,580" stroke="#6d725c" /></g><g id="4A16" stroke="red"><polyline points="414,473 456,473 456,499 414,499" stroke="#6d725c" /></g><g id="4A17" stroke="red"><polyline points="346,580 346,520 397,520 397,580" stroke="#6d725c" /></g><g id="4A18" stroke="red"><polyline points="371,499 371,473 414,473 414,499" stroke="#6d725c" /></g><g id="4A19" stroke="red"><polyline points="305,580 305,520 346,520 346,580" stroke="#6d725c" /></g><g id="4A20" stroke="red"><polyline points="310,473 353,473 353,499 310,499" stroke="#6d725c" /></g><g id="4A21" stroke="red"><polyline points="264,580 264,520 305,520 305,580" stroke="#6d725c" /></g><g id="4A22" stroke="red"><polyline points="267,499 267,473 310,473 310,499" stroke="#6d725c" /></g><g id="4B04" stroke="red"><polyline points="695,418 695,368 784,368 784,418" stroke="#6d725c" /></g><g id="4B07" stroke="red"><polyline points="517,473 517,446 560,446 560,473" stroke="#6d725c" /></g><g id="4B08" stroke="red"><polyline points="613,388 613,429 578,429 578,388" stroke="#6d725c" /></g><g id="4B09" stroke="red"><polyline points="474,473 474,446 517,446 517,473" stroke="#6d725c" /></g><g id="4B10" stroke="red"><polyline points="517,391 560,391 560,429 517,429" stroke="#6d725c" /></g><g id="4B11" stroke="red"><polyline points="414,473 414,446 456,446 456,473" stroke="#6d725c" /></g><g id="4B12" stroke="red"><polyline points="474,429 474,391 517,391 517,429" stroke="#6d725c" /></g><g id="4B13" stroke="red"><polyline points="371,473 371,446 414,446 414,473" stroke="#6d725c" /></g><g id="4B14" stroke="red"><polyline points="414,391 456,391 456,429 414,429" stroke="#6d725c" /></g><g id="4B15" stroke="red"><polyline points="310,473 310,446 353,446 353,473" stroke="#6d725c" /></g><g id="4B16" stroke="red"><polyline points="371,429 371,391 414,391 414,429" stroke="#6d725c" /></g><g id="4B17" stroke="red"><polyline points="267,473 267,446 310,446 310,473" stroke="#6d725c" /></g><g id="4B18" stroke="red"><polyline points="353,389 353,429 295,429 295,389" stroke="#6d725c" /></g><g id="4C03" stroke="red"><polyline points="695,368 695,320 784,320 784,368" stroke="#6d725c" /></g><g id="4C04" stroke="red"><polyline points="695,320 695,276 784,276 784,320" stroke="#6d725c" /></g><g id="4C05" stroke="red"><polyline points="578,388 578,347 613,347 613,388" stroke="#6d725c" /></g><g id="4C06" stroke="red"><polyline points="578,347 578,306 613,306 613,347" stroke="#6d725c" /></g><g id="4C07" stroke="red"><polyline points="517,391 517,354 560,354 560,391" stroke="#6d725c" /></g><g id="4C08" stroke="red"><polyline points="517,303 560,303 560,340 517,340" stroke="#6d725c" /></g><g id="4C09" stroke="red"><polyline points="474,391 474,354 517,354 517,391" stroke="#6d725c" /></g><g id="4C10" stroke="red"><polyline points="474,340 474,303 517,303 517,340" stroke="#6d725c" /></g><g id="4C11" stroke="red"><polyline points="414,391 414,354 456,354 456,391" stroke="#6d725c" /></g><g id="4C12" stroke="red"><polyline points="414,303 456,303 456,340 414,340" stroke="#6d725c" /></g><g id="4C13" stroke="red"><polyline points="371,391 371,354 414,354 414,391" stroke="#6d725c" /></g><g id="4C14" stroke="red"><polyline points="371,340 371,303 414,303 414,340" stroke="#6d725c" /></g><g id="4C15" stroke="red"><polyline points="295,389 295,349 353,349 353,389" stroke="#6d725c" /></g><g id="4C16" stroke="red"><polyline points="295,349 295,309 353,309 353,349" stroke="#6d725c" /></g><g id="4D06" stroke="red"><polyline points="784,132 784,276 695,276 695,248 657,248 657,158 667,158 667,122 720,122 720,132 748,132" stroke="#6d725c" /></g><g id="4D08" stroke="red"><polyline points="607,205 637,205 637,248 607,248" stroke="#6d725c" /></g><g id="4D09" stroke="red"><polyline points="578,306 578,266 613,266 613,306" stroke="#6d725c" /></g><g id="4D10" stroke="red"><polyline points="607,248 578,248 578,205 607,205 607,248 607,248" stroke="#6d725c" /></g><g id="4D11" stroke="red"><polyline points="517,303 517,266 560,266 560,303" stroke="#6d725c" /></g><g id="4D12" stroke="red"><polyline points="517,205 560,205 560,248 517,248" stroke="#6d725c" /></g><g id="4D13" stroke="red"><polyline points="474,303 474,266 517,266 517,303" stroke="#6d725c" /></g><g id="4D14" stroke="red"><polyline points="474,248 474,205 517,205 517,248" stroke="#6d725c" /></g><g id="4D15" stroke="red"><polyline points="414,303 414,266 456,266 456,303" stroke="#6d725c" /></g><g id="4D16" stroke="red"><polyline points="414,219 456,219 456,248 414,248" stroke="#6d725c" /></g><g id="4D17" stroke="red"><polyline points="371,303 371,266 414,266 414,303" stroke="#6d725c" /></g><g id="4D18" stroke="red"><polyline points="371,248 371,219 414,219 414,248" stroke="#6d725c" /></g><g id="4D19" stroke="red"><polyline points="295,309 295,266 353,266 353,309" stroke="#6d725c" /></g><g id="4D20" stroke="red"><polyline points="319,209 339,202 353,202 353,248 319,248" stroke="#6d725c" /></g><g id="4D22" stroke="red"><polyline points="268,248 268,229 319,209 319,248" stroke="#6d725c" /></g><g id="4E04" stroke="red"><polyline points="748,132 748,122 736,122 736,106 784,106 784,132" stroke="#6d725c" /></g><g id="4E06" stroke="red"><polyline points="603,106 650,106 650,139 603,139" stroke="#6d725c" /></g><g id="4E07" stroke="red"><polyline points="607,205 607,158 637,158 637,205" stroke="#6d725c" /></g><g id="4E08" stroke="red"><polyline points="556,139 556,106 603,106 603,139" stroke="#6d725c" /></g><g id="4E09" stroke="red"><polyline points="607,205 578,205 578,158 607,158 607,205" stroke="#6d725c" /></g><g id="4E11" stroke="red"><polyline points="517,205 517,158 560,158 560,205" stroke="#6d725c" /></g><g id="4E12" stroke="red"><polyline points="479,130 520,122 535,128 535,139 510,139 483,146" stroke="#6d725c" /></g><g id="4E13" stroke="red"><polyline points="474,205 474,170 517,158 517,205" stroke="#6d725c" /></g><g id="4E14" stroke="red"><polyline points="483,146 453,154 440,107 455,107 472,103 479,130" stroke="#6d725c" /></g><g id="4E15" stroke="red"><polyline points="414,219 414,186 456,175 456,219" stroke="#6d725c" /></g><g id="4E16" stroke="red"><polyline points="453,154 425,161 417,130 410,100 446,92 446,100 440,100 440,107" stroke="#6d725c" /></g><g id="4E17" stroke="red"><polyline points="371,219 371,197 414,186 414,219" stroke="#6d725c" /></g><g id="4E18" stroke="red"><polyline points="381,173 372,139 417,130 425,161" stroke="#6d725c" /></g><g id="4E20" stroke="red"><polyline points="318,190 309,157 356,147 364,178" stroke="#6d725c" /></g><g id="4E22" stroke="red"><polyline points="236,168 289,157 290,161 292,160 301,194 247,216" stroke="#6d725c" /></g><g id="4E24" stroke="red"><polyline points="234,216 214,219 206,179 208,178 207,175 236,168 247,216" stroke="#6d725c" /></g><g id="4Y02A" stroke="red"><polyline points="239,298 220,298 220,290 128,290 128,237 239,237" stroke="#6d725c" /></g><g id="4Y02B" stroke="red"><polyline points="187,183 189,182 195,216 141,216 141,203 135,203 135,155 138,154 137,149 178,141" stroke="#6d725c" /></g><g id="4Y02C" stroke="red"><polyline points="83,370 83,370 83,427 14,427 14,427 14,216 110,216 110,370" stroke="#6d725c" /></g><g id="4Y03" stroke="red"><polyline points="83,427 83,427 83,370 110,370 110,370 110,465 246,465 246,544 182,544 182,580 38,580 38,575 33,575 33,534 34,534 34,523 63,523 63,467 14,467 14,427" stroke="#6d725c" /></g></svg>