<?xml version="1.0" encoding="utf-8" ?>
<svg baseProfile="full" height="576" version="1.1" width="800" xmlns="http://www.w3.org/2000/svg" xmlns:ev="http://www.w3.org/2001/xml-events" xmlns:xlink="http://www.w3.org/1999/xlink"><defs /><g id="1A06A" stroke="red"><polyline fill="#FFFFFF" points="649,458 649,410 691,410 691,432" stroke="#6d725c" /></g><g id="1A07" stroke="red"><polyline fill="#FFFFFF" points="575,521 575,482 622,482 622,521" stroke="#6d725c" /></g><g id="1A08" stroke="red"><polyline fill="#FFFFFF" points="586,410 633,410 633,462 586,462" stroke="#6d725c" /></g><g id="1A09" stroke="red"><polyline fill="#FFFFFF" points="565,521 548,521 548,540 528,540 528,515 527,515 527,482 575,482 575,521" stroke="#6d725c" /></g><g id="1A10" stroke="red"><polyline fill="#FFFFFF" points="527,462 527,410 586,410 586,462" stroke="#6d725c" /></g><g id="1A11" stroke="red"><polyline fill="#FFFFFF" points="396,482 463,482 463,540 415,540 415,495 396,495" stroke="#6d725c" /></g><g id="1A12" stroke="red"><polyline fill="#FFFFFF" points="422,410 464,410 464,462 422,462" stroke="#6d725c" /></g><g id="1A13" stroke="red"><polyline fill="#FFFFFF" points="381,462 381,410 422,410 422,462" stroke="#6d725c" /></g><g id="1A14" stroke="red"><polyline fill="#FFFFFF" points="303,462 303,410 364,410 364,462" stroke="#6d725c" /></g><g id="1A15" stroke="red"><polyline fill="#FFFFFF" points="286,487 286,540 252,540 252,487" stroke="#6d725c" /></g><g id="1A16" stroke="red"><polyline fill="#FFFFFF" points="214,454 214,421 286,421 286,454" stroke="#6d725c" /></g><g id="1A17" stroke="red"><polyline fill="#FFFFFF" points="252,487 214,487 214,454 286,454 286,487" stroke="#6d725c" /></g><g id="1B02" stroke="red"><polyline fill="#FFFFFF" points="732,426 732,336 779,336 779,426 779,426" stroke="#6d725c" /></g><g id="1B04" stroke="red"><polyline fill="#FFFFFF" points="712,352 712,393 669,393 669,352" stroke="#6d725c" /></g><g id="1B06" stroke="red"><polyline fill="#FFFFFF" points="615,351 615,393 571,393 571,351" stroke="#6d725c" /></g><g id="1B08" stroke="red"><polyline fill="#FFFFFF" points="517,355 554,355 554,393 517,393" stroke="#6d725c" /></g><g id="1B10" stroke="red"><polyline fill="#FFFFFF" points="481,393 481,355 517,355 517,393" stroke="#6d725c" /></g><g id="1B12" stroke="red"><polyline fill="#FFFFFF" points="422,355 464,355 464,393 422,393" stroke="#6d725c" /></g><g id="1B14" stroke="red"><polyline fill="#FFFFFF" points="381,393 381,355 422,355 422,393" stroke="#6d725c" /></g><g id="1B16A" stroke="red"><polyline fill="#FFFFFF" points="364,363 364,393 307,393 307,363" stroke="#6d725c" /></g><g id="1B16B" stroke="red"><polyline fill="#FFFFFF" points="307,363 307,363 307,355 364,355 364,363" stroke="#6d725c" /></g><g id="1C01" stroke="red"><polyline fill="#FFFFFF" points="732,336 732,280 779,280 779,336" stroke="#6d725c" /></g><g id="1C03A" stroke="red"><polyline fill="#FFFFFF" points="669,352 669,332 712,332 712,352" stroke="#6d725c" /></g><g id="1C03B" stroke="red"><polyline fill="#FFFFFF" points="669,332 669,311 712,311 712,332" stroke="#6d725c" /></g><g id="1C04" stroke="red"><polyline fill="#FFFFFF" points="669,311 669,311 669,270 712,270 712,311" stroke="#6d725c" /></g><g id="1C05" stroke="red"><polyline fill="#FFFFFF" points="571,351 571,309 615,309 615,351" stroke="#6d725c" /></g><g id="1C06" stroke="red"><polyline fill="#FFFFFF" points="615,267 615,309 571,309 571,267" stroke="#6d725c" /></g><g id="1C07" stroke="red"><polyline fill="#FFFFFF" points="517,355 517,318 554,318 554,355" stroke="#6d725c" /></g><g id="1C08" stroke="red"><polyline fill="#FFFFFF" points="517,263 554,263 554,300 517,300" stroke="#6d725c" /></g><g id="1C09" stroke="red"><polyline fill="#FFFFFF" points="481,355 481,318 517,318 517,355" stroke="#6d725c" /></g><g id="1C10" stroke="red"><polyline fill="#FFFFFF" points="481,300 481,263 517,263 517,300" stroke="#6d725c" /></g><g id="1C11" stroke="red"><polyline fill="#FFFFFF" points="422,355 422,318 464,318 464,355" stroke="#6d725c" /></g><g id="1C12" stroke="red"><polyline fill="#FFFFFF" points="422,263 464,263 464,300 422,300" stroke="#6d725c" /></g><g id="1C13" stroke="red"><polyline fill="#FFFFFF" points="381,355 381,318 422,318 422,355" stroke="#6d725c" /></g><g id="1C14" stroke="red"><polyline fill="#FFFFFF" points="381,300 381,263 422,263 422,300" stroke="#6d725c" /></g><g id="1C15" stroke="red"><polyline fill="#FFFFFF" points="307,355 307,316 364,316 364,355" stroke="#6d725c" /></g><g id="1C16" stroke="red"><polyline fill="#FFFFFF" points="307,316 307,278 364,278 364,316" stroke="#6d725c" /></g><g id="1D02" stroke="red"><polyline fill="#FFFFFF" points="779,165 779,224 732,224 732,165" stroke="#6d725c" /></g><g id="1D04" stroke="red"><polyline fill="#FFFFFF" points="681,159 712,159 712,208 681,208" stroke="#6d725c" /></g><g id="1D05" stroke="red"><polyline fill="#FFFFFF" points="669,270 669,226 712,234 712,270" stroke="#6d725c" /></g><g id="1D06" stroke="red"><polyline fill="#FFFFFF" points="650,208 650,159 681,159 681,208" stroke="#6d725c" /></g><g id="1D08" stroke="red"><polyline fill="#FFFFFF" points="602,168 633,168 633,208 602,208" stroke="#6d725c" /></g><g id="1D09" stroke="red"><polyline fill="#FFFFFF" points="571,267 571,225 615,225 615,267" stroke="#6d725c" /></g><g id="1D10" stroke="red"><polyline fill="#FFFFFF" points="571,208 571,168 602,168 602,208" stroke="#6d725c" /></g><g id="1D11" stroke="red"><polyline fill="#FFFFFF" points="517,263 517,225 554,225 554,263" stroke="#6d725c" /></g><g id="1D12" stroke="red"><polyline fill="#FFFFFF" points="517,153 546,143 547,143 548,143 549,143 550,144 551,144 552,145 553,146 553,147 554,148 554,149 554,202 554,203 553,204 553,205 553,205 552,206 551,207 551,207 550,208 549,208 548,208 517,208" stroke="#6d725c" /></g><g id="1D13" stroke="red"><polyline fill="#FFFFFF" points="481,263 481,225 517,225 517,263" stroke="#6d725c" /></g><g id="1D14" stroke="red"><polyline fill="#FFFFFF" points="486,208 486,208 485,208 484,207 483,207 482,206 482,205 481,205 481,204 481,203 481,202 481,169 481,168 481,168 481,167 481,166 482,166 482,165 483,165 483,164 484,164 485,164 517,153 517,208" stroke="#6d725c" /></g><g id="1D15" stroke="red"><polyline fill="#FFFFFF" points="422,263 422,225 464,225 464,263" stroke="#6d725c" /></g><g id="1D16" stroke="red"><polyline fill="#FFFFFF" points="381,208 381,205 381,205 381,204 381,203 381,203 382,202 382,202 382,201 383,201 383,201 384,200 402,191 456,173 457,173 458,173 459,173 460,173 461,174 462,175 463,176 463,177 464,178 464,179 464,202 464,203 463,204 463,205 463,205 462,206 461,207 461,207 460,208 459,208 458,208" stroke="#6d725c" /></g><g id="1D17" stroke="red"><polyline fill="#FFFFFF" points="381,263 381,225 422,225 422,263" stroke="#6d725c" /></g><g id="1D21" stroke="red"><polyline fill="#FFFFFF" points="307,278 307,225 364,225 364,278" stroke="#6d725c" /></g><g id="1E01" stroke="red"><polyline fill="#FFFFFF" points="732,165 732,106 779,106 779,165" stroke="#6d725c" /></g><g id="1E02" stroke="red"><polyline fill="#FFFFFF" points="683,30 701,26 698,14 702,13 701,7 713,6 724,7 735,9 746,14 755,20 764,28 770,38 775,48 778,59 779,70 779,83 694,83" stroke="#6d725c" /></g><g id="1E03" stroke="red"><polyline fill="#FFFFFF" points="681,159 681,106 681,106 696,103 712,103 712,159" stroke="#6d725c" /></g><g id="1E04" stroke="red"><polyline fill="#FFFFFF" points="694,83 618,99 614,82 614,82 613,78 602,28 622,24 677,12 681,31 683,30" stroke="#6d725c" /></g><g id="1E05" stroke="red"><polyline fill="#FFFFFF" points="650,159 650,113 681,106 681,159" stroke="#6d725c" /></g><g id="1E07" stroke="red"><polyline fill="#FFFFFF" points="602,168 602,125 623,118 626,118 627,118 628,118 629,118 630,118 631,119 631,120 632,120 632,121 633,122 633,123 633,168" stroke="#6d725c" /></g><g id="1E08" stroke="red"><polyline fill="#FFFFFF" points="572,114 571,114 570,114 569,114 568,114 567,114 567,113 566,112 565,112 565,111 565,110 559,82 614,82 614,82 618,99" stroke="#6d725c" /></g><g id="1E09" stroke="red"><polyline fill="#FFFFFF" points="571,168 571,140 571,139 571,138 571,138 571,137 572,136 572,136 573,135 573,135 574,134 575,134 602,125 602,168" stroke="#6d725c" /></g><g id="1E12" stroke="red"><polyline fill="#FFFFFF" points="492,103 497,102 544,102 547,117 548,118 548,118 547,119 547,120 547,121 546,122 546,122 545,123 544,123 544,123 500,138" stroke="#6d725c" /></g><g id="1E14" stroke="red"><polyline fill="#FFFFFF" points="500,138 436,158 425,105 425,105 424,103 454,97 474,107 492,103" stroke="#6d725c" /></g><g id="1E17" stroke="red"><polyline fill="#FFFFFF" points="394,172 386,131 386,131 382,114 425,105 436,158" stroke="#6d725c" /></g><g id="1E19" stroke="red"><polyline fill="#FFFFFF" points="358,192 357,192 356,192 355,192 354,192 353,192 352,191 351,191 350,190 350,189 349,188 339,140 386,131 394,172" stroke="#6d725c" /></g><g id="1E20" stroke="red"><polyline fill="#FFFFFF" points="261,188 245,143 297,132 300,146 311,144 323,201 323,202 323,203 323,204 323,205 322,206 321,206 320,207 320,207 319,208 318,208 261,208" stroke="#6d725c" /></g><g id="1E22" stroke="red"><polyline fill="#FFFFFF" points="218,208 218,149 245,143 261,188 261,208" stroke="#6d725c" /></g><g id="1E24A" stroke="red"><polyline fill="#FFFFFF" points="218,208 171,208 171,127 195,122 202,152 218,149" stroke="#6d725c" /></g><g id="1E24B" stroke="red"><polyline fill="#FFFFFF" points="171,208 148,208 148,175 48,175 48,146 148,125 150,131 171,127" stroke="#6d725c" /></g><g id="1E26" stroke="red"><polyline fill="#FFFFFF" points="254,267 235,267 235,260 148,260 148,238 162,238 162,225 254,225" stroke="#6d725c" /></g><g id="1W01" stroke="red"><polyline fill="#FFFFFF" points="88,540 88,489 110,489 110,540" stroke="#6d725c" /></g><g id="1Y01" stroke="red"><polyline fill="#FFFFFF" points="146,409 212,409 212,487 83,487 83,431 36,431 36,382 146,382" stroke="#6d725c" /></g><g id="1Y02" stroke="red"><polyline fill="#FFFFFF" points="396,540 315,540 315,482 396,482 396,495" stroke="#6d725c" /></g><g id="1Y03" stroke="red"><polyline fill="#FFFFFF" points="622,540 622,521 622,482 649,477 649,540" stroke="#6d725c" /></g><g id="1Y04" stroke="red"><polyline fill="#FFFFFF" points="649,477 649,458 691,432 700,426 732,426 779,426 779,487 697,487 697,540 649,540" stroke="#6d725c" /></g><g id="1Y05" stroke="red"><polyline fill="#FFFFFF" points="565,540 565,521 575,521 622,521 622,540" stroke="#6d725c" /></g></svg>