<?xml version="1.0" encoding="utf-8" ?>
<svg baseProfile="full" height="502" version="1.1" width="800" xmlns="http://www.w3.org/2000/svg" xmlns:ev="http://www.w3.org/2001/xml-events" xmlns:xlink="http://www.w3.org/1999/xlink"><defs /><g id="2A01" stroke="red"><polyline fill="#ebf7d1" points="702,85 702,60 702,14 775,14 785,25 780,25 780,32 785,32 785,80 786,80 786,85" stroke="#6d725c" /></g><g id="2A02" stroke="red"><polyline fill="#ebf7d1" points="640,111 640,80 682,80 682,111" stroke="#6d725c" /></g><g id="2A03" stroke="red"><polyline fill="#ebf7d1" points="649,60 649,60 649,14 702,14 702,60" stroke="#6d725c" /></g><g id="2A04" stroke="red"><polyline fill="#ebf7d1" points="597,111 597,80 640,80 640,111" stroke="#6d725c" /></g><g id="2A05" stroke="red"><polyline fill="#ebf7d1" points="649,60 597,60 597,14 649,14 649,14" stroke="#6d725c" /></g><g id="2A06" stroke="red"><polyline fill="#ebf7d1" points="538,80 580,80 580,116 538,116" stroke="#6d725c" /></g><g id="2A08" stroke="red"><polyline fill="#ebf7d1" points="538,116 496,116 496,80 538,80 538,116" stroke="#6d725c" /></g><g id="2A09" stroke="red"><polyline fill="#ebf7d1" points="434,14 473,14 473,48 489,48 489,60 434,60" stroke="#6d725c" /></g><g id="2A10" stroke="red"><polyline fill="#ebf7d1" points="454,80 496,80 496,116 454,116" stroke="#6d725c" /></g><g id="2A11" stroke="red"><polyline fill="#ebf7d1" points="391,60 391,42 391,14 434,14 434,60" stroke="#6d725c" /></g><g id="2A12" stroke="red"><polyline fill="#ebf7d1" points="454,116 412,116 412,80 454,80 454,116" stroke="#6d725c" /></g><g id="2A13" stroke="red"><polyline fill="#ebf7d1" points="315,60 315,42 391,42 391,60" stroke="#6d725c" /></g><g id="2A14" stroke="red"><polyline fill="#ebf7d1" points="355,108 339,108 339,80 394,80 394,108" stroke="#6d725c" /></g><g id="2A15" stroke="red"><polyline fill="#ebf7d1" points="271,88 260,88 257,88 257,42 315,42 315,60" stroke="#6d725c" /></g><g id="2A16" stroke="red"><polyline fill="#ebf7d1" points="277,108 321,80 339,80 339,108" stroke="#6d725c" /></g><g id="2A17" stroke="red"><polyline fill="#ebf7d1" points="97,88 97,25 14,25 14,14 174,14 174,88" stroke="#6d725c" /></g><g id="2B01" stroke="red"><polyline fill="#ebf7d1" points="640,111 682,111 682,142 640,142" stroke="#6d725c" /></g><g id="2B02" stroke="red"><polyline fill="#ebf7d1" points="640,189 640,160 682,160 682,189" stroke="#6d725c" /></g><g id="2B03" stroke="red"><polyline fill="#ebf7d1" points="597,142 597,111 640,111 640,142" stroke="#6d725c" /></g><g id="2B04" stroke="red"><polyline fill="#ebf7d1" points="597,189 597,160 640,160 640,189" stroke="#6d725c" /></g><g id="2B06" stroke="red"><polyline fill="#ebf7d1" points="534,196 534,167 580,167 580,196" stroke="#6d725c" /></g><g id="2B08" stroke="red"><polyline fill="#ebf7d1" points="412,196 412,167 458,167 458,196" stroke="#6d725c" /></g><g id="2B09" stroke="red"><polyline fill="#ebf7d1" points="355,108 394,108 394,142 355,142" stroke="#6d725c" /></g><g id="2B10" stroke="red"><polyline fill="#ebf7d1" points="355,189 355,160 394,160 394,189" stroke="#6d725c" /></g><g id="2B11" stroke="red"><polyline fill="#ebf7d1" points="316,142 316,108 339,108 355,108 355,142" stroke="#6d725c" /></g><g id="2B12" stroke="red"><polyline fill="#ebf7d1" points="316,189 316,160 355,160 355,189" stroke="#6d725c" /></g><g id="2B13" stroke="red"><polyline fill="#ebf7d1" points="277,142 277,108 316,108 316,142" stroke="#6d725c" /></g><g id="2B14" stroke="red"><polyline fill="#ebf7d1" points="277,189 277,160 316,160 316,189" stroke="#6d725c" /></g><g id="2B15" stroke="red"><polyline fill="#ebf7d1" points="176,88 257,88 260,88 260,140 176,140" stroke="#6d725c" /></g><g id="2B17" stroke="red"><polyline fill="#ebf7d1" points="92,140 92,88 97,88 174,88 176,88 176,140" stroke="#6d725c" /></g><g id="2B24" stroke="red"><polyline fill="#ebf7d1" points="30,209 30,177 72,177 72,209" stroke="#6d725c" /></g><g id="2C01" stroke="red"><polyline fill="#ebf7d1" points="640,189 682,189 682,218 640,218" stroke="#6d725c" /></g><g id="2C02" stroke="red"><polyline fill="#ebf7d1" points="640,269 640,235 682,235 682,269" stroke="#6d725c" /></g><g id="2C03" stroke="red"><polyline fill="#ebf7d1" points="597,218 597,189 640,189 640,218" stroke="#6d725c" /></g><g id="2C04" stroke="red"><polyline fill="#ebf7d1" points="597,269 597,235 640,235 640,269" stroke="#6d725c" /></g><g id="2C05" stroke="red"><polyline fill="#ebf7d1" points="534,196 580,196 580,218 534,218" stroke="#6d725c" /></g><g id="2C06" stroke="red"><polyline fill="#ebf7d1" points="549,269 549,235 580,235 580,269" stroke="#6d725c" /></g><g id="2C07" stroke="red"><polyline fill="#ebf7d1" points="534,218 496,218 496,167 534,167 534,196" stroke="#6d725c" /></g><g id="2C08" stroke="red"><polyline fill="#ebf7d1" points="517,269 517,235 549,235 549,269" stroke="#6d725c" /></g><g id="2C09" stroke="red"><polyline fill="#ebf7d1" points="458,218 458,196 458,167 496,167 496,218" stroke="#6d725c" /></g><g id="2C10" stroke="red"><polyline fill="#ebf7d1" points="456,269 456,235 500,235 500,269" stroke="#6d725c" /></g><g id="2C11" stroke="red"><polyline fill="#ebf7d1" points="412,218 412,196 458,196 458,218" stroke="#6d725c" /></g><g id="2C12" stroke="red"><polyline fill="#ebf7d1" points="412,269 412,235 456,235 456,269" stroke="#6d725c" /></g><g id="2C13" stroke="red"><polyline fill="#ebf7d1" points="355,189 394,189 394,218 355,218" stroke="#6d725c" /></g><g id="2C14" stroke="red"><polyline fill="#ebf7d1" points="355,269 355,235 394,235 394,269" stroke="#6d725c" /></g><g id="2C15" stroke="red"><polyline fill="#ebf7d1" points="316,218 316,189 355,189 355,218" stroke="#6d725c" /></g><g id="2C16" stroke="red"><polyline fill="#ebf7d1" points="316,269 316,235 355,235 355,269" stroke="#6d725c" /></g><g id="2C17" stroke="red"><polyline fill="#ebf7d1" points="277,218 277,189 316,189 316,218" stroke="#6d725c" /></g><g id="2C18" stroke="red"><polyline fill="#ebf7d1" points="277,269 277,235 316,235 316,269" stroke="#6d725c" /></g><g id="2C19" stroke="red"><polyline fill="#ebf7d1" points="227,160 260,160 260,218 227,218" stroke="#6d725c" /></g><g id="2C21" stroke="red"><polyline fill="#ebf7d1" points="179,218 179,189 179,160 227,160 227,218" stroke="#6d725c" /></g><g id="2C25" stroke="red"><polyline fill="#ebf7d1" points="179,218 92,218 92,160 179,160 179,189" stroke="#6d725c" /></g><g id="2C27" stroke="red"><polyline fill="#ebf7d1" points="30,245 30,209 72,209 72,245" stroke="#6d725c" /></g><g id="2C28" stroke="red"><polyline fill="#ebf7d1" points="14,284 14,245 30,245 72,245 72,284" stroke="#6d725c" /></g><g id="2D01" stroke="red"><polyline fill="#ebf7d1" points="640,269 682,269 682,302 640,302" stroke="#6d725c" /></g><g id="2D02" stroke="red"><polyline fill="#ebf7d1" points="640,349 640,319 682,319 682,349" stroke="#6d725c" /></g><g id="2D03" stroke="red"><polyline fill="#ebf7d1" points="597,302 597,269 640,269 640,302" stroke="#6d725c" /></g><g id="2D04" stroke="red"><polyline fill="#ebf7d1" points="597,349 597,319 640,319 640,349" stroke="#6d725c" /></g><g id="2D05" stroke="red"><polyline fill="#ebf7d1" points="549,269 580,269 580,302 549,302" stroke="#6d725c" /></g><g id="2D06" stroke="red"><polyline fill="#ebf7d1" points="549,349 549,319 580,319 580,349" stroke="#6d725c" /></g><g id="2D07" stroke="red"><polyline fill="#ebf7d1" points="517,302 517,269 549,269 549,302" stroke="#6d725c" /></g><g id="2D08" stroke="red"><polyline fill="#ebf7d1" points="517,349 517,319 549,319 549,349" stroke="#6d725c" /></g><g id="2D09" stroke="red"><polyline fill="#ebf7d1" points="456,269 500,269 500,302 456,302" stroke="#6d725c" /></g><g id="2D10" stroke="red"><polyline fill="#ebf7d1" points="456,349 456,319 500,319 500,349" stroke="#6d725c" /></g><g id="2D11" stroke="red"><polyline fill="#ebf7d1" points="412,302 412,269 456,269 456,302" stroke="#6d725c" /></g><g id="2D12" stroke="red"><polyline fill="#ebf7d1" points="412,349 412,319 456,319 456,349" stroke="#6d725c" /></g><g id="2D13" stroke="red"><polyline fill="#ebf7d1" points="355,269 394,269 394,302 355,302" stroke="#6d725c" /></g><g id="2D14" stroke="red"><polyline fill="#ebf7d1" points="355,349 355,319 394,319 394,349" stroke="#6d725c" /></g><g id="2D15" stroke="red"><polyline fill="#ebf7d1" points="316,302 316,269 355,269 355,302" stroke="#6d725c" /></g><g id="2D16" stroke="red"><polyline fill="#ebf7d1" points="316,349 316,319 355,319 355,349" stroke="#6d725c" /></g><g id="2D17" stroke="red"><polyline fill="#ebf7d1" points="277,302 277,269 316,269 316,302" stroke="#6d725c" /></g><g id="2D18" stroke="red"><polyline fill="#ebf7d1" points="277,349 277,319 316,319 316,349" stroke="#6d725c" /></g><g id="2D21" stroke="red"><polyline fill="#ebf7d1" points="37,323 14,323 14,284 72,284 72,323" stroke="#6d725c" /></g><g id="2D22" stroke="red"><polyline fill="#ebf7d1" points="72,323 72,358 37,358 37,323" stroke="#6d725c" /></g><g id="2D23" stroke="red"><polyline fill="#ebf7d1" points="228,303 260,303 260,319 260,379 228,379" stroke="#6d725c" /></g><g id="2E03" stroke="red"><polyline fill="#ebf7d1" points="640,349 682,349 682,379 640,379" stroke="#6d725c" /></g><g id="2E05" stroke="red"><polyline fill="#ebf7d1" points="597,379 597,349 640,349 640,379" stroke="#6d725c" /></g><g id="2E07" stroke="red"><polyline fill="#ebf7d1" points="549,349 580,349 580,379 549,379" stroke="#6d725c" /></g><g id="2E09" stroke="red"><polyline fill="#ebf7d1" points="517,379 517,349 549,349 549,379" stroke="#6d725c" /></g><g id="2E11" stroke="red"><polyline fill="#ebf7d1" points="456,349 500,349 500,379 456,379" stroke="#6d725c" /></g><g id="2E12" stroke="red"><polyline fill="#ebf7d1" points="467,399 497,399 497,438 467,438" stroke="#6d725c" /></g><g id="2E13" stroke="red"><polyline fill="#ebf7d1" points="412,379 412,349 456,349 456,379" stroke="#6d725c" /></g><g id="2E14" stroke="red"><polyline fill="#ebf7d1" points="438,438 438,399 467,399 467,438" stroke="#6d725c" /></g><g id="2E15" stroke="red"><polyline fill="#ebf7d1" points="355,349 394,349 394,379 355,379" stroke="#6d725c" /></g><g id="2E16" stroke="red"><polyline fill="#ebf7d1" points="381,399 415,399 415,438 381,438 381,424" stroke="#6d725c" /></g><g id="2E17" stroke="red"><polyline fill="#ebf7d1" points="316,379 316,349 355,349 355,379" stroke="#6d725c" /></g><g id="2E18" stroke="red"><polyline fill="#ebf7d1" points="333,424 333,399 381,399 381,424" stroke="#6d725c" /></g><g id="2E19" stroke="red"><polyline fill="#ebf7d1" points="277,379 277,349 316,349 316,379" stroke="#6d725c" /></g><g id="2E20" stroke="red"><polyline fill="#ebf7d1" points="284,399 314,399 314,438 284,438" stroke="#6d725c" /></g><g id="2E21" stroke="red"><polyline fill="#ebf7d1" points="169,350 169,319 169,303 228,303 228,379" stroke="#6d725c" /></g><g id="2E22" stroke="red"><polyline fill="#ebf7d1" points="255,438 255,399 284,399 284,438" stroke="#6d725c" /></g><g id="2E23" stroke="red"><polyline fill="#ebf7d1" points="120,350 92,338 92,303 169,303 169,319 169,350" stroke="#6d725c" /></g><g id="2E24" stroke="red"><polyline fill="#ebf7d1" points="204,387 233,399 233,438 204,438" stroke="#6d725c" /></g><g id="2E26" stroke="red"><polyline fill="#ebf7d1" points="204,438 174,438 174,407 179,407 179,401 175,401 175,374 204,387" stroke="#6d725c" /></g><g id="2S09" stroke="red"><polyline fill="#ebf7d1" points="660,404 660,399 678,399 678,404" stroke="#6d725c" /></g><g id="2S10" stroke="red"><polyline fill="#ebf7d1" points="633,399 651,399 651,404 633,404" stroke="#6d725c" /></g><g id="2S11" stroke="red"><polyline fill="#ebf7d1" points="616,404 616,399 633,399 633,404" stroke="#6d725c" /></g><g id="2S12" stroke="red"><polyline fill="#ebf7d1" points="599,404 599,399 616,399 616,404" stroke="#6d725c" /></g><g id="2S13" stroke="red"><polyline fill="#ebf7d1" points="552,399 569,399 569,404 552,404" stroke="#6d725c" /></g><g id="2S14" stroke="red"><polyline fill="#ebf7d1" points="535,404 535,399 552,399 552,404" stroke="#6d725c" /></g><g id="2S15" stroke="red"><polyline fill="#ebf7d1" points="518,404 518,399 535,399 535,404" stroke="#6d725c" /></g><g id="2Y01" stroke="red"><polyline fill="#ebf7d1" points="786,85 786,439 770,439 770,486 687,486 687,404 702,404 702,134 702,117 702,100 702,85" stroke="#6d725c" /></g></svg>