<?xml version="1.0" encoding="utf-8" ?>
<svg baseProfile="full" height="472" version="1.1" width="800" xmlns="http://www.w3.org/2000/svg" xmlns:ev="http://www.w3.org/2001/xml-events" xmlns:xlink="http://www.w3.org/1999/xlink"><defs /><g id="0A01A" stroke="red"><polyline points="669,260 669,234 706,234 706,260" stroke="#6d725c" /></g><g id="0A01B" stroke="red"><polyline points="706,260 706,234 744,234 744,260" stroke="#6d725c" /></g><g id="0A03" stroke="red"><polyline points="669,296 669,260 706,260 744,260 744,296" stroke="#6d725c" /></g><g id="0A05" stroke="red"><polyline points="669,330 669,296 744,296 744,330" stroke="#6d725c" /></g><g id="0A07" stroke="red"><polyline points="669,365 669,364 669,330 744,330 744,365" stroke="#6d725c" /></g><g id="0A09" stroke="red"><polyline points="744,401 622,401 622,364 669,364 669,365 744,365" stroke="#6d725c" /></g><g id="0B04" stroke="red"><polyline points="635,279 635,251 652,251 652,279" stroke="#6d725c" /></g><g id="0B06" stroke="red"><polyline points="635,279 652,279 652,307 635,307" stroke="#6d725c" /></g><g id="0B08" stroke="red"><polyline points="637,323 652,323 652,348 637,348" stroke="#6d725c" /></g><g id="0C01" stroke="red"><polyline points="619,279 619,251 635,251 635,279" stroke="#6d725c" /></g><g id="0C02" stroke="red"><polyline points="586,279 586,251 602,251 602,279" stroke="#6d725c" /></g><g id="0C03" stroke="red"><polyline points="619,307 619,279 635,279 635,307" stroke="#6d725c" /></g><g id="0C04" stroke="red"><polyline points="586,279 602,279 602,307 586,307" stroke="#6d725c" /></g><g id="0C05" stroke="red"><polyline points="619,348 619,323 637,323 637,348" stroke="#6d725c" /></g><g id="0C06" stroke="red"><polyline points="586,323 602,323 602,348 586,348" stroke="#6d725c" /></g><g id="0C10" stroke="red"><polyline points="622,418 608,418 608,443 549,443 549,401 549,364 622,364 622,401" stroke="#6d725c" /></g><g id="0D03" stroke="red"><polyline points="586,216 627,216 627,234 586,234" stroke="#6d725c" /></g><g id="0D05" stroke="red"><polyline points="558,234 556,233 554,233 552,232 550,231 549,230 547,228 546,226 545,224 545,222 545,220 545,216 586,216 586,234" stroke="#6d725c" /></g><g id="0D07" stroke="red"><polyline points="569,279 569,251 586,251 586,279" stroke="#6d725c" /></g><g id="0D08" stroke="red"><polyline points="535,279 535,251 553,251 553,279" stroke="#6d725c" /></g><g id="0D09" stroke="red"><polyline points="569,307 569,279 586,279 586,307" stroke="#6d725c" /></g><g id="0D10" stroke="red"><polyline points="535,279 553,279 553,307 535,307" stroke="#6d725c" /></g><g id="0D11" stroke="red"><polyline points="569,348 569,323 586,323 586,348" stroke="#6d725c" /></g><g id="0D12" stroke="red"><polyline points="534,323 553,323 553,348 534,348" stroke="#6d725c" /></g><g id="0D16" stroke="red"><polyline points="494,401 494,364 549,364 549,401" stroke="#6d725c" /></g><g id="0E02" stroke="red"><polyline points="468,199 468,164 501,164 501,199" stroke="#6d725c" /></g><g id="0E06" stroke="red"><polyline points="501,199 501,234 468,234 468,199" stroke="#6d725c" /></g><g id="0E07" stroke="red"><polyline points="517,279 517,251 535,251 535,279" stroke="#6d725c" /></g><g id="0E08" stroke="red"><polyline points="484,279 484,251 501,251 501,279" stroke="#6d725c" /></g><g id="0E09" stroke="red"><polyline points="517,307 517,279 535,279 535,307" stroke="#6d725c" /></g><g id="0E10" stroke="red"><polyline points="484,279 501,279 501,307 484,307" stroke="#6d725c" /></g><g id="0E11" stroke="red"><polyline points="517,348 517,323 534,323 534,348" stroke="#6d725c" /></g><g id="0E12" stroke="red"><polyline points="484,323 501,323 501,348 484,348" stroke="#6d725c" /></g><g id="0F01" stroke="red"><polyline points="545,117 545,68 573,68 573,113 572,113 572,117" stroke="#6d725c" /></g><g id="0F02" stroke="red"><polyline points="416,140 416,123 469,123 469,140" stroke="#6d725c" /></g><g id="0F06" stroke="red"><polyline points="435,199 435,164 451,164 451,199" stroke="#6d725c" /></g><g id="0F08" stroke="red"><polyline points="435,199 451,199 451,234 418,234 418,199" stroke="#6d725c" /></g><g id="0F09" stroke="red"><polyline points="468,279 468,251 484,251 484,279" stroke="#6d725c" /></g><g id="0F10" stroke="red"><polyline points="435,279 435,251 451,251 451,279" stroke="#6d725c" /></g><g id="0F11" stroke="red"><polyline points="468,307 468,279 484,279 484,307" stroke="#6d725c" /></g><g id="0F12" stroke="red"><polyline points="435,279 451,279 451,307 435,307" stroke="#6d725c" /></g><g id="0F13" stroke="red"><polyline points="468,348 468,323 484,323 484,348" stroke="#6d725c" /></g><g id="0F14" stroke="red"><polyline points="435,323 451,323 451,348 435,348" stroke="#6d725c" /></g><g id="0F17" stroke="red"><polyline points="572,117 572,126 573,126 573,144 552,144 552,139 545,139 545,117" stroke="#6d725c" /></g><g id="0F18" stroke="red"><polyline points="418,401 418,364 474,364 474,401" stroke="#6d725c" /></g><g id="0F19" stroke="red"><polyline points="481,95 467,95 467,68 503,68 503,95" stroke="#6d725c" /></g><g id="0F20" stroke="red"><polyline points="433,95 433,68 467,68 467,95" stroke="#6d725c" /></g><g id="0F21" stroke="red"><polyline points="399,95 399,68 433,68 433,95" stroke="#6d725c" /></g><g id="0G02" stroke="red"><polyline points="503,68 545,68 545,95 503,95" stroke="#6d725c" /></g><g id="0G03" stroke="red"><polyline points="418,199 418,164 435,164 435,199" stroke="#6d725c" /></g><g id="0G09" stroke="red"><polyline points="418,279 418,251 435,251 435,279" stroke="#6d725c" /></g><g id="0G11" stroke="red"><polyline points="418,307 418,279 435,279 435,307" stroke="#6d725c" /></g><g id="0G13" stroke="red"><polyline points="418,348 418,323 435,323 435,348" stroke="#6d725c" /></g><g id="0T01A" stroke="red"><polyline points="352,269 352,250 381,250 381,269" stroke="#6d725c" /></g><g id="0T02A" stroke="red"><polyline points="381,269 381,287 352,287 352,269" stroke="#6d725c" /></g><g id="0T04A" stroke="red"><polyline points="268,215 268,193 383,193 383,215" stroke="#6d725c" /></g><g id="0V01" stroke="red"><polyline points="35,185 21,185 21,129 73,129 73,185" stroke="#6d725c" /></g><g id="0X01A" stroke="red"><polyline points="171,146 142,146 142,101 180,101 180,141 171,141" stroke="#6d725c" /></g><g id="0X02A" stroke="red"><polyline points="215,146 171,146 171,141 180,141 180,101 215,101 215,146" stroke="#6d725c" /></g><g id="0X03A" stroke="red"><polyline points="215,146 215,101 252,101 252,146" stroke="#6d725c" /></g><g id="0X04A" stroke="red"><polyline points="252,146 252,101 286,101 286,146" stroke="#6d725c" /></g><g id="0X05A" stroke="red"><polyline points="286,146 286,101 320,101 320,146" stroke="#6d725c" /></g><g id="0X06A" stroke="red"><polyline points="320,146 320,101 352,101 352,146" stroke="#6d725c" /></g><g id="0X07A" stroke="red"><polyline points="352,101 352,89 377,89 377,146 352,146" stroke="#6d725c" /></g><g id="0X08A" stroke="red"><polyline points="193,387 193,338 226,338 226,387" stroke="#6d725c" /></g><g id="0X09A" stroke="red"><polyline points="226,387 226,338 259,338 259,387" stroke="#6d725c" /></g><g id="0X10A" stroke="red"><polyline points="259,387 259,338 293,338 293,387" stroke="#6d725c" /></g><g id="0X11A" stroke="red"><polyline points="293,387 293,338 326,338 326,387" stroke="#6d725c" /></g><g id="0X12A" stroke="red"><polyline points="326,387 326,338 360,338 360,387" stroke="#6d725c" /></g><g id="0X13A" stroke="red"><polyline points="360,338 397,338 397,387 360,387" stroke="#6d725c" /></g><g id="0X14A" stroke="red"><polyline points="73,185 73,218 82,218 82,289 101,289 101,310 42,310 42,308 42,292 21,292 21,222 21,218 35,218 35,185" stroke="#6d725c" /></g><g id="0Y01" stroke="red"><polyline points="622,141 622,16 744,16 744,141" stroke="#6d725c" /></g></svg>