<?xml version="1.0" encoding="utf-8" ?>
<svg baseProfile="full" height="709" version="1.1" width="1200" xmlns="http://www.w3.org/2000/svg" xmlns:ev="http://www.w3.org/2001/xml-events" xmlns:xlink="http://www.w3.org/1999/xlink"><defs /><g id="0A01A" stroke="red"><polyline fill="#FFFFFF" points="1003,391 1003,351 1059,351 1059,391" stroke="#6d725c" /></g><g id="0A01B" stroke="red"><polyline fill="#FFFFFF" points="1059,391 1059,351 1116,351 1116,391" stroke="#6d725c" /></g><g id="0A03" stroke="red"><polyline fill="#FFFFFF" points="1003,444 1003,391 1059,391 1116,391 1116,444" stroke="#6d725c" /></g><g id="0A05" stroke="red"><polyline fill="#FFFFFF" points="1003,496 1003,444 1116,444 1116,496" stroke="#6d725c" /></g><g id="0A07" stroke="red"><polyline fill="#FFFFFF" points="1024,547 1003,547 1003,496 1116,496 1116,547" stroke="#6d725c" /></g><g id="0A09" stroke="red"><polyline fill="#FFFFFF" points="1116,547 1116,602 1024,602 1024,547" stroke="#6d725c" /></g><g id="0B04" stroke="red"><polyline fill="#FFFFFF" points="953,419 953,376 978,376 978,419" stroke="#6d725c" /></g><g id="0B06" stroke="red"><polyline fill="#FFFFFF" points="953,419 978,419 978,461 953,461" stroke="#6d725c" /></g><g id="0B08" stroke="red"><polyline fill="#FFFFFF" points="956,522 956,485 978,485 978,522" stroke="#6d725c" /></g><g id="0B10" stroke="red"><polyline fill="#FFFFFF" points="956,522 978,522 978,560 956,560" stroke="#6d725c" /></g><g id="0B12" stroke="red"><polyline fill="#FFFFFF" points="934,584 1004,584 1004,602 934,602" stroke="#6d725c" /></g><g id="0C01" stroke="red"><polyline fill="#FFFFFF" points="929,419 929,376 953,376 953,419" stroke="#6d725c" /></g><g id="0C02" stroke="red"><polyline fill="#FFFFFF" points="879,419 879,376 904,376 904,419" stroke="#6d725c" /></g><g id="0C03" stroke="red"><polyline fill="#FFFFFF" points="929,461 929,419 953,419 953,461" stroke="#6d725c" /></g><g id="0C04" stroke="red"><polyline fill="#FFFFFF" points="879,419 904,419 904,461 879,461" stroke="#6d725c" /></g><g id="0C05" stroke="red"><polyline fill="#FFFFFF" points="929,522 929,485 956,485 956,522" stroke="#6d725c" /></g><g id="0C06" stroke="red"><polyline fill="#FFFFFF" points="879,522 879,485 904,485 904,522" stroke="#6d725c" /></g><g id="0C07" stroke="red"><polyline fill="#FFFFFF" points="929,560 929,522 956,522 956,560" stroke="#6d725c" /></g><g id="0C08" stroke="red"><polyline fill="#FFFFFF" points="879,522 904,522 904,560 879,560" stroke="#6d725c" /></g><g id="0C10" stroke="red"><polyline fill="#FFFFFF" points="934,627 912,627 912,664 879,664 879,584 934,584 934,602" stroke="#6d725c" /></g><g id="0D03" stroke="red"><polyline fill="#FFFFFF" points="879,324 941,324 941,351 879,351" stroke="#6d725c" /></g><g id="0D05" stroke="red"><polyline fill="#FFFFFF" points="838,351 834,350 831,350 828,348 826,347 823,345 821,342 820,340 818,337 818,334 817,331 817,324 879,324 879,351" stroke="#6d725c" /></g><g id="0D07" stroke="red"><polyline fill="#FFFFFF" points="854,419 854,376 879,376 879,419" stroke="#6d725c" /></g><g id="0D08" stroke="red"><polyline fill="#FFFFFF" points="803,419 803,376 829,376 829,419" stroke="#6d725c" /></g><g id="0D09" stroke="red"><polyline fill="#FFFFFF" points="854,461 854,419 879,419 879,461" stroke="#6d725c" /></g><g id="0D10" stroke="red"><polyline fill="#FFFFFF" points="803,419 829,419 829,461 803,461" stroke="#6d725c" /></g><g id="0D11" stroke="red"><polyline fill="#FFFFFF" points="854,522 854,485 879,485 879,522" stroke="#6d725c" /></g><g id="0D12" stroke="red"><polyline fill="#FFFFFF" points="802,522 802,485 829,485 829,522" stroke="#6d725c" /></g><g id="0D13" stroke="red"><polyline fill="#FFFFFF" points="854,560 854,522 879,522 879,560" stroke="#6d725c" /></g><g id="0D14" stroke="red"><polyline fill="#FFFFFF" points="802,522 829,522 829,560 802,560" stroke="#6d725c" /></g><g id="0D15" stroke="red"><polyline fill="#FFFFFF" points="824,664 824,601 824,584 879,584 879,664" stroke="#6d725c" /></g><g id="0D16" stroke="red"><polyline fill="#FFFFFF" points="741,601 741,584 824,584 824,601" stroke="#6d725c" /></g><g id="0E02" stroke="red"><polyline fill="#FFFFFF" points="702,298 702,246 751,246 751,298" stroke="#6d725c" /></g><g id="0E06" stroke="red"><polyline fill="#FFFFFF" points="751,298 751,351 702,351 702,298" stroke="#6d725c" /></g><g id="0E07" stroke="red"><polyline fill="#FFFFFF" points="776,419 776,376 803,376 803,419" stroke="#6d725c" /></g><g id="0E08" stroke="red"><polyline fill="#FFFFFF" points="727,419 727,376 751,376 751,419" stroke="#6d725c" /></g><g id="0E09" stroke="red"><polyline fill="#FFFFFF" points="776,461 776,419 803,419 803,461" stroke="#6d725c" /></g><g id="0E10" stroke="red"><polyline fill="#FFFFFF" points="727,419 751,419 751,461 727,461" stroke="#6d725c" /></g><g id="0E11" stroke="red"><polyline fill="#FFFFFF" points="776,522 776,485 802,485 802,522" stroke="#6d725c" /></g><g id="0E12" stroke="red"><polyline fill="#FFFFFF" points="727,522 727,485 751,485 751,522" stroke="#6d725c" /></g><g id="0E13" stroke="red"><polyline fill="#FFFFFF" points="776,560 776,522 802,522 802,560" stroke="#6d725c" /></g><g id="0E14" stroke="red"><polyline fill="#FFFFFF" points="727,522 751,522 751,560 727,560" stroke="#6d725c" /></g><g id="0F01" stroke="red"><polyline fill="#FFFFFF" points="817,175 817,102 860,102 860,170 859,170 859,175" stroke="#6d725c" /></g><g id="0F02" stroke="red"><polyline fill="#FFFFFF" points="624,210 624,185 703,185 703,210" stroke="#6d725c" /></g><g id="0F06" stroke="red"><polyline fill="#FFFFFF" points="652,298 652,246 677,246 677,298" stroke="#6d725c" /></g><g id="0F08" stroke="red"><polyline fill="#FFFFFF" points="652,298 677,298 677,351 627,351 627,298" stroke="#6d725c" /></g><g id="0F09" stroke="red"><polyline fill="#FFFFFF" points="702,419 702,376 727,376 727,419" stroke="#6d725c" /></g><g id="0F10" stroke="red"><polyline fill="#FFFFFF" points="652,419 652,376 677,376 677,419" stroke="#6d725c" /></g><g id="0F11" stroke="red"><polyline fill="#FFFFFF" points="702,461 702,419 727,419 727,461" stroke="#6d725c" /></g><g id="0F12" stroke="red"><polyline fill="#FFFFFF" points="652,419 677,419 677,461 652,461" stroke="#6d725c" /></g><g id="0F13" stroke="red"><polyline fill="#FFFFFF" points="702,522 702,485 727,485 727,522" stroke="#6d725c" /></g><g id="0F14" stroke="red"><polyline fill="#FFFFFF" points="652,522 652,485 677,485 677,522" stroke="#6d725c" /></g><g id="0F15" stroke="red"><polyline fill="#FFFFFF" points="702,560 702,522 727,522 727,560" stroke="#6d725c" /></g><g id="0F16" stroke="red"><polyline fill="#FFFFFF" points="652,522 677,522 677,560 652,560" stroke="#6d725c" /></g><g id="0F17" stroke="red"><polyline fill="#FFFFFF" points="859,175 859,190 860,190 860,217 828,217 828,208 817,208 817,175" stroke="#6d725c" /></g><g id="0F18" stroke="red"><polyline fill="#FFFFFF" points="628,601 628,584 711,584 711,601" stroke="#6d725c" /></g><g id="0F19" stroke="red"><polyline fill="#FFFFFF" points="722,142 701,142 701,102 755,102 755,142" stroke="#6d725c" /></g><g id="0F20" stroke="red"><polyline fill="#FFFFFF" points="650,142 650,102 701,102 701,142" stroke="#6d725c" /></g><g id="0F21" stroke="red"><polyline fill="#FFFFFF" points="599,142 599,102 650,102 650,142" stroke="#6d725c" /></g><g id="0G02" stroke="red"><polyline fill="#FFFFFF" points="755,102 817,102 817,142 755,142" stroke="#6d725c" /></g><g id="0G03" stroke="red"><polyline fill="#FFFFFF" points="627,298 627,246 652,246 652,298" stroke="#6d725c" /></g><g id="0G09" stroke="red"><polyline fill="#FFFFFF" points="627,419 627,376 652,376 652,419" stroke="#6d725c" /></g><g id="0G11" stroke="red"><polyline fill="#FFFFFF" points="627,461 627,419 652,419 652,461" stroke="#6d725c" /></g><g id="0G13" stroke="red"><polyline fill="#FFFFFF" points="627,522 627,485 652,485 652,522" stroke="#6d725c" /></g><g id="0G15" stroke="red"><polyline fill="#FFFFFF" points="627,560 627,522 652,522 652,560" stroke="#6d725c" /></g><g id="0T01" stroke="red"><polyline fill="#FFFFFF" points="550,408 529,408 529,375 572,375 572,408" stroke="#6d725c" /></g><g id="0T02" stroke="red"><polyline fill="#FFFFFF" points="529,431 529,408 550,408 550,431" stroke="#6d725c" /></g><g id="0T03" stroke="red"><polyline fill="#FFFFFF" points="550,408 572,408 572,431 550,431" stroke="#6d725c" /></g><g id="0T04" stroke="red"><polyline fill="#FFFFFF" points="525,349 525,280 575,280 575,349" stroke="#6d725c" /></g><g id="0V01" stroke="red"><polyline fill="#FFFFFF" points="53,325 53,278 121,278 121,325 120,325" stroke="#6d725c" /></g><g id="0X01" stroke="red"><polyline fill="#FFFFFF" points="257,219 214,219 214,152 270,152 270,211 257,211" stroke="#6d725c" /></g><g id="0X02" stroke="red"><polyline fill="#FFFFFF" points="323,219 257,219 257,211 270,211 270,152 323,152 323,219" stroke="#6d725c" /></g><g id="0X03" stroke="red"><polyline fill="#FFFFFF" points="323,219 323,152 378,152 378,219" stroke="#6d725c" /></g><g id="0X04" stroke="red"><polyline fill="#FFFFFF" points="378,219 378,152 429,152 429,219" stroke="#6d725c" /></g><g id="0X05" stroke="red"><polyline fill="#FFFFFF" points="429,219 429,152 480,152 480,219" stroke="#6d725c" /></g><g id="0X06" stroke="red"><polyline fill="#FFFFFF" points="480,219 480,152 528,152 528,219" stroke="#6d725c" /></g><g id="0X07" stroke="red"><polyline fill="#FFFFFF" points="528,152 528,134 566,134 566,219 528,219" stroke="#6d725c" /></g><g id="0X08" stroke="red"><polyline fill="#FFFFFF" points="290,581 290,507 339,507 339,581" stroke="#6d725c" /></g><g id="0X09" stroke="red"><polyline fill="#FFFFFF" points="339,581 339,507 389,507 389,581" stroke="#6d725c" /></g><g id="0X10" stroke="red"><polyline fill="#FFFFFF" points="389,581 389,507 439,507 439,581" stroke="#6d725c" /></g><g id="0X11" stroke="red"><polyline fill="#FFFFFF" points="439,581 439,507 489,507 489,581" stroke="#6d725c" /></g><g id="0X12" stroke="red"><polyline fill="#FFFFFF" points="489,581 489,507 541,507 541,581" stroke="#6d725c" /></g><g id="0X13" stroke="red"><polyline fill="#FFFFFF" points="541,507 596,507 596,581 541,581" stroke="#6d725c" /></g><g id="0X14" stroke="red"><polyline fill="#FFFFFF" points="121,434 151,434 151,474 105,474 105,488 63,488 63,438 32,438 32,333 32,328 53,328 121,328" stroke="#6d725c" /></g><g id="0Y01" stroke="red"><polyline fill="#FFFFFF" points="933,212 933,24 1116,24 1116,212" stroke="#6d725c" /></g></svg>