<?xml version="1.0" encoding="utf-8" ?>
<svg baseProfile="full" height="709" version="1.1" width="1200" xmlns="http://www.w3.org/2000/svg" xmlns:ev="http://www.w3.org/2001/xml-events" xmlns:xlink="http://www.w3.org/1999/xlink"><defs /><g id="4A01" stroke="red"><polyline fill="#FFFFFF" points="716,71 716,50 724,50 724,5 759,5 769,15 765,15 765,23 770,23 770,71 765,71 765,71" stroke="#6d725c" /></g><g id="4A02" stroke="red"><polyline fill="#FFFFFF" points="716,114 716,71 765,71 771,71 771,114" stroke="#6d725c" /></g><g id="4A03" stroke="red"><polyline fill="#FFFFFF" points="684,50 684,5 724,5 724,50 716,50" stroke="#6d725c" /></g><g id="4A05" stroke="red"><polyline fill="#FFFFFF" points="644,50 644,5 684,5 684,50" stroke="#6d725c" /></g><g id="4A06" stroke="red"><polyline fill="#FFFFFF" points="582,101 582,70 639,70 639,101" stroke="#6d725c" /></g><g id="4A07" stroke="red"><polyline fill="#FFFFFF" points="611,50 611,5 644,5 644,50" stroke="#6d725c" /></g><g id="4A08" stroke="red"><polyline fill="#FFFFFF" points="639,101 639,70 696,70 696,101" stroke="#6d725c" /></g><g id="4A09" stroke="red"><polyline fill="#FFFFFF" points="578,50 578,5 611,5 611,50" stroke="#6d725c" /></g><g id="4A10" stroke="red"><polyline fill="#FFFFFF" points="326,5 459,5 459,39 475,39 475,57 563,57 563,90 326,90" stroke="#6d725c" /></g><g id="4A11" stroke="red"><polyline fill="#FFFFFF" points="79,90 79,70 79,65 80,65 80,64 84,64 84,22 86,22 86,16 1,16 1,5 326,5 326,90" stroke="#6d725c" /></g><g id="4A18" stroke="red"><polyline fill="#FFFFFF" points="85,207 85,109 266,109 266,207" stroke="#6d725c" /></g><g id="4A30" stroke="red"><polyline fill="#FFFFFF" points="1,98 1,64 59,64 59,98" stroke="#6d725c" /></g><g id="4B01" stroke="red"><polyline fill="#FFFFFF" points="716,154 716,114 771,114 771,154" stroke="#6d725c" /></g><g id="4B02" stroke="red"><polyline fill="#FFFFFF" points="716,194 716,194 716,154 771,154 771,194" stroke="#6d725c" /></g><g id="4B03" stroke="red"><polyline fill="#FFFFFF" points="639,133 639,101 696,101 696,133" stroke="#6d725c" /></g><g id="4B05" stroke="red"><polyline fill="#FFFFFF" points="582,133 582,101 639,101 639,133" stroke="#6d725c" /></g><g id="4B06" stroke="red"><polyline fill="#FFFFFF" points="639,133 696,133 696,174 639,174" stroke="#6d725c" /></g><g id="4B08" stroke="red"><polyline fill="#FFFFFF" points="582,174 582,133 639,133 639,174" stroke="#6d725c" /></g><g id="4B29" stroke="red"><polyline fill="#FFFFFF" points="1,132 1,98 59,98 59,132" stroke="#6d725c" /></g><g id="4B30" stroke="red"><polyline fill="#FFFFFF" points="2,166 2,157 6,157 6,154 8,154 8,139 1,139 1,132 59,132 59,166" stroke="#6d725c" /></g><g id="4C09" stroke="red"><polyline fill="#FFFFFF" points="402,234 266,234 266,207 266,109 381,109 381,169 402,169" stroke="#6d725c" /></g><g id="4C10" stroke="red"><polyline fill="#FFFFFF" points="382,310 266,310 266,234 402,234 402,310" stroke="#6d725c" /></g><g id="4C33" stroke="red"><polyline fill="#FFFFFF" points="18,200 18,200 2,200 2,166 59,166 59,200" stroke="#6d725c" /></g><g id="4C34" stroke="red"><polyline fill="#FFFFFF" points="59,235 18,235 18,200 59,200 59,235 59,235" stroke="#6d725c" /></g><g id="4C36" stroke="red"><polyline fill="#FFFFFF" points="59,274 2,274 2,235 18,235 18,235 59,235" stroke="#6d725c" /></g><g id="4D07" stroke="red"><polyline fill="#FFFFFF" points="382,310 402,310 565,310 565,407 382,407" stroke="#6d725c" /></g><g id="4D09" stroke="red"><polyline fill="#FFFFFF" points="266,407 266,310 382,310 382,407" stroke="#6d725c" /></g><g id="4D23" stroke="red"><polyline fill="#FFFFFF" points="163,280 247,280 247,289 228,294 163,294" stroke="#6d725c" /></g><g id="4D24" stroke="red"><polyline fill="#FFFFFF" points="197,329 197,309 247,309 247,329 247,329" stroke="#6d725c" /></g><g id="4D26" stroke="red"><polyline fill="#FFFFFF" points="197,334 197,358 165,348 165,309 197,309 197,329" stroke="#6d725c" /></g><g id="4D28" stroke="red"><polyline fill="#FFFFFF" points="122,335 122,309 165,309 165,348" stroke="#6d725c" /></g><g id="4D29" stroke="red"><polyline fill="#FFFFFF" points="98,294 79,289 79,280 163,280 163,294" stroke="#6d725c" /></g><g id="4D30" stroke="red"><polyline fill="#FFFFFF" points="107,330 78,321 79,309 122,309 122,335" stroke="#6d725c" /></g><g id="4D31" stroke="red"><polyline fill="#FFFFFF" points="24,313 1,313 1,274 2,274 59,274 59,274 59,313" stroke="#6d725c" /></g><g id="4D32" stroke="red"><polyline fill="#FFFFFF" points="59,313 59,348 24,348 24,313" stroke="#6d725c" /></g><g id="4E23" stroke="red"><polyline fill="#FFFFFF" points="197,334 197,329 197,329 247,329 247,358 224,358 197,358" stroke="#6d725c" /></g><g id="4E26" stroke="red"><polyline fill="#FFFFFF" points="191,376 220,389 220,428 191,428" stroke="#6d725c" /></g><g id="4E28" stroke="red"><polyline fill="#FFFFFF" points="191,428 161,428 161,397 165,397 165,390 162,390 162,364 191,376" stroke="#6d725c" /></g><g id="4Y01" stroke="red"><polyline fill="#FFFFFF" points="716,194 771,194 771,428 755,428 755,441 751,441 716,395" stroke="#6d725c" /></g><g id="4Y02" stroke="red"><polyline fill="#FFFFFF" points="696,369 582,369 582,194 716,194 716,395" stroke="#6d725c" /></g><g id="4Y03" stroke="red"><polyline fill="#FFFFFF" points="698,475 676,475 676,392 698,422" stroke="#6d725c" /></g><g id="4Y04" stroke="red"><polyline fill="#FFFFFF" points="625,446 603,446 603,428 581,428 581,389 637,389 638,396 625,396" stroke="#6d725c" /></g><g id="4Y06" stroke="red"><polyline fill="#FFFFFF" points="402,234 402,169 565,169 565,234" stroke="#6d725c" /></g><g id="4Y07" stroke="red"><polyline fill="#FFFFFF" points="402,310 402,234 565,234 565,310" stroke="#6d725c" /></g></svg>