<?xml version="1.0" encoding="utf-8" ?>
<svg baseProfile="full" height="497" version="1.1" width="800" xmlns="http://www.w3.org/2000/svg" xmlns:ev="http://www.w3.org/2001/xml-events" xmlns:xlink="http://www.w3.org/1999/xlink"><defs /><g id="3A01" stroke="red"><polyline fill="#ebf7d1" points="734,85 733,85 733,64 740,64 740,19 776,19 786,29 782,29 782,37 787,36 787,84 782,84 782,85" stroke="#6d725c" /></g><g id="3A03" stroke="red"><polyline fill="#ebf7d1" points="701,64 701,19 740,19 740,64 733,64" stroke="#6d725c" /></g><g id="3A04" stroke="red"><polyline fill="#ebf7d1" points="733,128 733,85 734,85 782,85 788,85 788,128 787,128" stroke="#6d725c" /></g><g id="3A05" stroke="red"><polyline fill="#ebf7d1" points="661,64 661,19 701,19 701,64" stroke="#6d725c" /></g><g id="3A06A" stroke="red"><polyline fill="#ebf7d1" points="684,115 684,84 713,84 713,115" stroke="#6d725c" /></g><g id="3A06B" stroke="red"><polyline fill="#ebf7d1" points="656,115 656,84 684,84 684,115" stroke="#6d725c" /></g><g id="3A07" stroke="red"><polyline fill="#ebf7d1" points="627,64 627,19 661,19 661,64" stroke="#6d725c" /></g><g id="3A08A" stroke="red"><polyline fill="#ebf7d1" points="627,115 627,84 656,84 656,115" stroke="#6d725c" /></g><g id="3A08B" stroke="red"><polyline fill="#ebf7d1" points="599,115 599,84 627,84 627,115" stroke="#6d725c" /></g><g id="3A09" stroke="red"><polyline fill="#ebf7d1" points="594,64 594,19 627,19 627,64" stroke="#6d725c" /></g><g id="3A10" stroke="red"><polyline fill="#ebf7d1" points="540,120 540,84 582,84 582,120" stroke="#6d725c" /></g><g id="3A11" stroke="red"><polyline fill="#ebf7d1" points="446,19 475,19 475,52 491,52 491,64 446,64" stroke="#6d725c" /></g><g id="3A12" stroke="red"><polyline fill="#ebf7d1" points="498,120 498,84 540,84 540,120" stroke="#6d725c" /></g><g id="3A13" stroke="red"><polyline fill="#ebf7d1" points="414,64 414,19 446,19 446,64" stroke="#6d725c" /></g><g id="3A14" stroke="red"><polyline fill="#ebf7d1" points="455,84 455,84 498,84 498,120 455,120" stroke="#6d725c" /></g><g id="3A15" stroke="red"><polyline fill="#ebf7d1" points="379,64 379,19 414,19 414,64" stroke="#6d725c" /></g><g id="3A16" stroke="red"><polyline fill="#ebf7d1" points="413,120 413,84 455,84 455,120" stroke="#6d725c" /></g><g id="3A17" stroke="red"><polyline fill="#ebf7d1" points="338,64 338,19 379,19 379,64" stroke="#6d725c" /></g><g id="3A18" stroke="red"><polyline fill="#ebf7d1" points="338,115 338,84 396,84 396,115" stroke="#6d725c" /></g><g id="3A19" stroke="red"><polyline fill="#ebf7d1" points="298,64 298,19 338,19 338,64" stroke="#6d725c" /></g><g id="3A20" stroke="red"><polyline fill="#ebf7d1" points="309,115 279,115 279,84 338,84 338,115" stroke="#6d725c" /></g><g id="3A21" stroke="red"><polyline fill="#ebf7d1" points="198,222 198,164 262,164 262,222" stroke="#6d725c" /></g><g id="3A22" stroke="red"><polyline fill="#ebf7d1" points="198,147 198,84 262,84 262,147" stroke="#6d725c" /></g><g id="3A23" stroke="red"><polyline fill="#ebf7d1" points="258,64 258,19 298,19 298,64" stroke="#6d725c" /></g><g id="3A25" stroke="red"><polyline fill="#ebf7d1" points="176,64 176,19 258,19 258,64" stroke="#6d725c" /></g><g id="3A26" stroke="red"><polyline fill="#ebf7d1" points="94,147 94,127 141,84 181,84 181,147" stroke="#6d725c" /></g><g id="3A27" stroke="red"><polyline fill="#ebf7d1" points="133,64 103,92 103,84 95,84 95,78 99,78 99,36 102,36 102,29 16,29 16,19 176,19 176,64" stroke="#6d725c" /></g><g id="3A28" stroke="red"><polyline fill="#ebf7d1" points="16,112 16,78 74,78 74,112" stroke="#6d725c" /></g><g id="3B01" stroke="red"><polyline fill="#ebf7d1" points="733,168 733,168 733,128 787,128 787,168" stroke="#6d725c" /></g><g id="3B02" stroke="red"><polyline fill="#ebf7d1" points="733,208 733,168 787,168 787,208" stroke="#6d725c" /></g><g id="3B03A" stroke="red"><polyline fill="#ebf7d1" points="684,115 713,115 713,147 684,147" stroke="#6d725c" /></g><g id="3B03B" stroke="red"><polyline fill="#ebf7d1" points="656,147 656,115 684,115 684,147" stroke="#6d725c" /></g><g id="3B04" stroke="red"><polyline fill="#ebf7d1" points="656,193 656,164 713,164 713,193" stroke="#6d725c" /></g><g id="3B05" stroke="red"><polyline fill="#ebf7d1" points="599,147 599,115 627,115 656,115 656,147" stroke="#6d725c" /></g><g id="3B06" stroke="red"><polyline fill="#ebf7d1" points="599,193 599,164 656,164 656,193" stroke="#6d725c" /></g><g id="3B07" stroke="red"><polyline fill="#ebf7d1" points="338,115 396,115 396,147 338,147" stroke="#6d725c" /></g><g id="3B08" stroke="red"><polyline fill="#ebf7d1" points="338,193 338,164 396,164 396,193" stroke="#6d725c" /></g><g id="3B09A" stroke="red"><polyline fill="#ebf7d1" points="309,147 309,115 338,115 338,147" stroke="#6d725c" /></g><g id="3B09B" stroke="red"><polyline fill="#ebf7d1" points="279,147 279,115 309,115 309,147" stroke="#6d725c" /></g><g id="3B10" stroke="red"><polyline fill="#ebf7d1" points="279,193 279,164 338,164 338,193" stroke="#6d725c" /></g><g id="3B16" stroke="red"><polyline fill="#ebf7d1" points="17,180 17,171 21,171 21,168 23,168 23,153 16,153 16,146 74,146 74,180" stroke="#6d725c" /></g><g id="3B19" stroke="red"><polyline fill="#ebf7d1" points="16,146 16,112 74,112 74,146" stroke="#6d725c" /></g><g id="3C01" stroke="red"><polyline fill="#ebf7d1" points="733,248 733,208 787,208 787,248" stroke="#6d725c" /></g><g id="3C02" stroke="red"><polyline fill="#ebf7d1" points="733,288 733,248 733,248 787,248 787,288" stroke="#6d725c" /></g><g id="3C03" stroke="red"><polyline fill="#ebf7d1" points="656,193 713,193 713,222 656,222" stroke="#6d725c" /></g><g id="3C04" stroke="red"><polyline fill="#ebf7d1" points="656,272 656,239 713,239 713,272" stroke="#6d725c" /></g><g id="3C05" stroke="red"><polyline fill="#ebf7d1" points="599,222 599,193 656,193 656,222" stroke="#6d725c" /></g><g id="3C06" stroke="red"><polyline fill="#ebf7d1" points="627,272 599,272 599,239 656,239 656,272" stroke="#6d725c" /></g><g id="3C07" stroke="red"><polyline fill="#ebf7d1" points="540,171 582,171 582,222 540,222" stroke="#6d725c" /></g><g id="3C08A" stroke="red"><polyline fill="#ebf7d1" points="550,272 550,239 582,239 582,272" stroke="#6d725c" /></g><g id="3C08B" stroke="red"><polyline fill="#ebf7d1" points="519,272 519,239 550,239 550,272" stroke="#6d725c" /></g><g id="3C09" stroke="red"><polyline fill="#ebf7d1" points="498,222 498,171 540,171 540,222" stroke="#6d725c" /></g><g id="3C10" stroke="red"><polyline fill="#ebf7d1" points="458,272 458,239 502,239 502,272" stroke="#6d725c" /></g><g id="3C11" stroke="red"><polyline fill="#ebf7d1" points="455,222 455,171 498,171 498,222" stroke="#6d725c" /></g><g id="3C12" stroke="red"><polyline fill="#ebf7d1" points="413,272 413,239 458,239 458,272" stroke="#6d725c" /></g><g id="3C13" stroke="red"><polyline fill="#ebf7d1" points="413,222 413,171 455,171 455,222" stroke="#6d725c" /></g><g id="3C14" stroke="red"><polyline fill="#ebf7d1" points="338,272 338,239 396,239 396,272" stroke="#6d725c" /></g><g id="3C15" stroke="red"><polyline fill="#ebf7d1" points="338,193 396,193 396,222 338,222" stroke="#6d725c" /></g><g id="3C16" stroke="red"><polyline fill="#ebf7d1" points="279,272 279,239 338,239 338,272" stroke="#6d725c" /></g><g id="3C17" stroke="red"><polyline fill="#ebf7d1" points="279,222 279,193 338,193 338,222" stroke="#6d725c" /></g><g id="3C25" stroke="red"><polyline fill="#ebf7d1" points="94,222 94,164 181,164 181,222" stroke="#6d725c" /></g><g id="3C27" stroke="red"><polyline fill="#ebf7d1" points="33,214 33,214 17,214 17,180 74,180 74,214" stroke="#6d725c" /></g><g id="3C28" stroke="red"><polyline fill="#ebf7d1" points="33,249 33,214 74,214 74,249" stroke="#6d725c" /></g><g id="3C30" stroke="red"><polyline fill="#ebf7d1" points="74,249 74,288 16,288 16,249 33,249" stroke="#6d725c" /></g><g id="3D01" stroke="red"><polyline fill="#ebf7d1" points="733,328 733,288 787,288 787,328" stroke="#6d725c" /></g><g id="3D02" stroke="red"><polyline fill="#ebf7d1" points="733,367 733,328 787,328 787,367" stroke="#6d725c" /></g><g id="3D03" stroke="red"><polyline fill="#ebf7d1" points="656,272 713,272 713,306 656,306" stroke="#6d725c" /></g><g id="3D04" stroke="red"><polyline fill="#ebf7d1" points="684,353 656,353 656,323 713,323 713,353" stroke="#6d725c" /></g><g id="3D05A" stroke="red"><polyline fill="#ebf7d1" points="599,306 599,272 627,272 627,306" stroke="#6d725c" /></g><g id="3D05B" stroke="red"><polyline fill="#ebf7d1" points="627,306 627,272 656,272 656,306" stroke="#6d725c" /></g><g id="3D06A" stroke="red"><polyline fill="#ebf7d1" points="627,353 627,323 656,323 656,353" stroke="#6d725c" /></g><g id="3D06B" stroke="red"><polyline fill="#ebf7d1" points="599,353 599,323 627,323 627,353" stroke="#6d725c" /></g><g id="3D07A" stroke="red"><polyline fill="#ebf7d1" points="519,306 519,272 550,272 550,306" stroke="#6d725c" /></g><g id="3D07B" stroke="red"><polyline fill="#ebf7d1" points="550,272 582,272 582,306 550,306" stroke="#6d725c" /></g><g id="3D08" stroke="red"><polyline fill="#ebf7d1" points="519,353 519,323 582,323 582,353" stroke="#6d725c" /></g><g id="3D09" stroke="red"><polyline fill="#ebf7d1" points="458,272 502,272 502,306 458,306" stroke="#6d725c" /></g><g id="3D10" stroke="red"><polyline fill="#ebf7d1" points="458,353 458,323 502,323 502,353" stroke="#6d725c" /></g><g id="3D11" stroke="red"><polyline fill="#ebf7d1" points="413,306 413,272 458,272 458,306" stroke="#6d725c" /></g><g id="3D12" stroke="red"><polyline fill="#ebf7d1" points="413,353 413,323 458,323 458,353" stroke="#6d725c" /></g><g id="3D13" stroke="red"><polyline fill="#ebf7d1" points="338,272 396,272 396,306 338,306" stroke="#6d725c" /></g><g id="3D14" stroke="red"><polyline fill="#ebf7d1" points="338,353 338,323 396,323 396,353" stroke="#6d725c" /></g><g id="3D15" stroke="red"><polyline fill="#ebf7d1" points="279,306 279,272 338,272 338,306" stroke="#6d725c" /></g><g id="3D16" stroke="red"><polyline fill="#ebf7d1" points="279,353 279,323 338,323 338,353" stroke="#6d725c" /></g><g id="3D18" stroke="red"><polyline fill="#ebf7d1" points="197,353 197,306 262,306 262,353" stroke="#6d725c" /></g><g id="3D20" stroke="red"><polyline fill="#ebf7d1" points="137,353 137,323 137,306 197,306 197,353" stroke="#6d725c" /></g><g id="3D21" stroke="red"><polyline fill="#ebf7d1" points="39,327 16,327 16,288 74,288 74,327" stroke="#6d725c" /></g><g id="3D22" stroke="red"><polyline fill="#ebf7d1" points="120,353 94,342 94,306 137,306 137,323 137,353" stroke="#6d725c" /></g><g id="3D24" stroke="red"><polyline fill="#ebf7d1" points="74,327 74,362 39,362 39,327" stroke="#6d725c" /></g><g id="3E01" stroke="red"><polyline fill="#ebf7d1" points="740,411 740,404 734,404 733,403 733,367 787,367 787,411" stroke="#6d725c" /></g><g id="3E02" stroke="red"><polyline fill="#ebf7d1" points="787,411 787,442 772,442 772,455 768,455 734,411 740,411" stroke="#6d725c" /></g><g id="3E03A" stroke="red"><polyline fill="#ebf7d1" points="684,353 713,353 713,383 684,383" stroke="#6d725c" /></g><g id="3E03B" stroke="red"><polyline fill="#ebf7d1" points="656,383 656,353 684,353 684,383" stroke="#6d725c" /></g><g id="3E04" stroke="red"><polyline fill="#ebf7d1" points="715,489 693,489 693,407 715,436" stroke="#6d725c" /></g><g id="3E06" stroke="red"><polyline fill="#ebf7d1" points="619,403 654,403 654,410 641,410 641,461 619,461 619,442" stroke="#6d725c" /></g><g id="3E07" stroke="red"><polyline fill="#ebf7d1" points="599,383 599,353 627,353 656,353 656,383" stroke="#6d725c" /></g><g id="3E08" stroke="red"><polyline fill="#ebf7d1" points="581,442 581,403 619,403 619,442" stroke="#6d725c" /></g><g id="3E09" stroke="red"><polyline fill="#ebf7d1" points="582,353 582,383 519,383 519,353" stroke="#6d725c" /></g><g id="3E10" stroke="red"><polyline fill="#ebf7d1" points="519,442 519,403 581,403 581,442" stroke="#6d725c" /></g><g id="3E11" stroke="red"><polyline fill="#ebf7d1" points="458,353 502,353 502,383 458,383" stroke="#6d725c" /></g><g id="3E12" stroke="red"><polyline fill="#ebf7d1" points="440,442 440,403 498,403 498,442" stroke="#6d725c" /></g><g id="3E13" stroke="red"><polyline fill="#ebf7d1" points="413,383 413,353 458,353 458,383" stroke="#6d725c" /></g><g id="3E14" stroke="red"><polyline fill="#ebf7d1" points="383,403 383,403 417,403 417,442 383,442 383,428" stroke="#6d725c" /></g><g id="3E15" stroke="red"><polyline fill="#ebf7d1" points="338,353 396,353 396,383 338,383" stroke="#6d725c" /></g><g id="3E16" stroke="red"><polyline fill="#ebf7d1" points="334,428 334,403 383,403 383,428" stroke="#6d725c" /></g><g id="3E17" stroke="red"><polyline fill="#ebf7d1" points="279,383 279,353 338,353 338,383" stroke="#6d725c" /></g><g id="3E18" stroke="red"><polyline fill="#ebf7d1" points="257,442 257,403 315,403 315,442" stroke="#6d725c" /></g><g id="3E19" stroke="red"><polyline fill="#ebf7d1" points="262,353 262,383 239,383 197,365 197,353" stroke="#6d725c" /></g><g id="3E20" stroke="red"><polyline fill="#ebf7d1" points="206,391 235,403 235,442 206,442" stroke="#6d725c" /></g><g id="3E22" stroke="red"><polyline fill="#ebf7d1" points="206,442 176,442 176,411 181,411 181,405 177,405 177,378 206,391" stroke="#6d725c" /></g></svg>