<?xml version="1.0" encoding="utf-8" ?>
<svg baseProfile="full" height="503" version="1.1" width="800" xmlns="http://www.w3.org/2000/svg" xmlns:ev="http://www.w3.org/2001/xml-events" xmlns:xlink="http://www.w3.org/1999/xlink"><defs /><g id="1A01" stroke="red"><polyline fill="#FFFFFF" points="731,90 731,94 651,94 651,17 735,17 774,17 784,27 784,82 784,90 764,90 731,90" stroke="#6d725c" /></g><g id="1A03" stroke="red"><polyline fill="#FFFFFF" points="599,94 599,17 651,17 651,94" stroke="#6d725c" /></g><g id="1A04" stroke="red"><polyline fill="#FFFFFF" points="654,161 654,114 711,114 711,161" stroke="#6d725c" /></g><g id="1A06" stroke="red"><polyline fill="#FFFFFF" points="597,161 597,114 654,114 654,161" stroke="#6d725c" /></g><g id="1A07" stroke="red"><polyline fill="#FFFFFF" points="473,50 489,50 489,68 580,68 580,94 473,94" stroke="#6d725c" /></g><g id="1A08" stroke="red"><polyline fill="#FFFFFF" points="296,90 341,90 341,38 376,38 376,136 376,137 376,138 375,140 374,141 374,142 373,143 371,143 370,144 369,144 368,144 296,144" stroke="#6d725c" /></g><g id="1A09" stroke="red"><polyline fill="#FFFFFF" points="473,50 473,94 473,94 473,94 414,94 414,17 473,17 473,30" stroke="#6d725c" /></g><g id="1A12" stroke="red"><polyline fill="#FFFFFF" points="263,144 196,144 196,90 296,90 296,144" stroke="#6d725c" /></g><g id="1B02" stroke="red"><polyline fill="#FFFFFF" points="654,187 654,161 711,161 711,187" stroke="#6d725c" /></g><g id="1B04" stroke="red"><polyline fill="#FFFFFF" points="597,187 597,161 654,161 654,187" stroke="#6d725c" /></g><g id="1B10" stroke="red"><polyline fill="#FFFFFF" points="336,187 336,161 392,161 392,187" stroke="#6d725c" /></g><g id="1B12" stroke="red"><polyline fill="#FFFFFF" points="280,187 280,161 336,161 336,187" stroke="#6d725c" /></g><g id="1B16" stroke="red"><polyline fill="#FFFFFF" points="196,184 196,144 263,144 263,184" stroke="#6d725c" /></g><g id="1B18" stroke="red"><polyline fill="#FFFFFF" points="196,224 75,224 34,224 34,169 19,169 19,125 127,125 127,144 146,144 146,203 196,203" stroke="#6d725c" /></g><g id="1C01" stroke="red"><polyline fill="#FFFFFF" points="654,187 711,187 711,212 654,212" stroke="#6d725c" /></g><g id="1C02" stroke="red"><polyline fill="#FFFFFF" points="654,266 654,229 711,229 711,266" stroke="#6d725c" /></g><g id="1C03" stroke="red"><polyline fill="#FFFFFF" points="597,212 597,187 654,187 654,212" stroke="#6d725c" /></g><g id="1C04" stroke="red"><polyline fill="#FFFFFF" points="597,266 597,229 654,229 654,266" stroke="#6d725c" /></g><g id="1C05" stroke="red"><polyline fill="#FFFFFF" points="537,170 580,170 580,212 537,212" stroke="#6d725c" /></g><g id="1C06" stroke="red"><polyline fill="#FFFFFF" points="549,266 549,229 580,229 580,266" stroke="#6d725c" /></g><g id="1C07" stroke="red"><polyline fill="#FFFFFF" points="495,212 495,170 537,170 537,212" stroke="#6d725c" /></g><g id="1C08" stroke="red"><polyline fill="#FFFFFF" points="518,266 518,229 549,229 549,266" stroke="#6d725c" /></g><g id="1C09" stroke="red"><polyline fill="#FFFFFF" points="452,212 452,170 495,170 495,212" stroke="#6d725c" /></g><g id="1C10" stroke="red"><polyline fill="#FFFFFF" points="455,266 455,229 501,229 501,266" stroke="#6d725c" /></g><g id="1C11" stroke="red"><polyline fill="#FFFFFF" points="409,212 409,170 452,170 452,212" stroke="#6d725c" /></g><g id="1C12" stroke="red"><polyline fill="#FFFFFF" points="409,266 409,229 455,229 455,266" stroke="#6d725c" /></g><g id="1C13" stroke="red"><polyline fill="#FFFFFF" points="336,187 392,187 392,212 336,212" stroke="#6d725c" /></g><g id="1C14" stroke="red"><polyline fill="#FFFFFF" points="336,266 336,229 392,229 392,266" stroke="#6d725c" /></g><g id="1C15" stroke="red"><polyline fill="#FFFFFF" points="280,212 280,187 336,187 336,212" stroke="#6d725c" /></g><g id="1C16" stroke="red"><polyline fill="#FFFFFF" points="280,266 280,229 336,229 336,266" stroke="#6d725c" /></g><g id="1C17" stroke="red"><polyline fill="#FFFFFF" points="196,184 263,184 263,224 196,224" stroke="#6d725c" /></g><g id="1C18" stroke="red"><polyline fill="#FFFFFF" points="18,285 18,246 34,246 34,224 75,224 75,285" stroke="#6d725c" /></g><g id="1D01" stroke="red"><polyline fill="#FFFFFF" points="654,266 711,266 711,303 654,303" stroke="#6d725c" /></g><g id="1D02" stroke="red"><polyline fill="#FFFFFF" points="645,347 645,320 693,320 693,347" stroke="#6d725c" /></g><g id="1D03" stroke="red"><polyline fill="#FFFFFF" points="597,303 597,266 654,266 654,303" stroke="#6d725c" /></g><g id="1D04" stroke="red"><polyline fill="#FFFFFF" points="597,347 597,320 645,320 645,347" stroke="#6d725c" /></g><g id="1D05" stroke="red"><polyline fill="#FFFFFF" points="549,266 580,266 580,303 549,303" stroke="#6d725c" /></g><g id="1D06" stroke="red"><polyline fill="#FFFFFF" points="549,347 549,320 580,320 580,347" stroke="#6d725c" /></g><g id="1D07" stroke="red"><polyline fill="#FFFFFF" points="518,303 518,266 549,266 549,303" stroke="#6d725c" /></g><g id="1D08" stroke="red"><polyline fill="#FFFFFF" points="518,347 518,320 549,320 549,347" stroke="#6d725c" /></g><g id="1D09" stroke="red"><polyline fill="#FFFFFF" points="455,266 501,266 501,303 455,303" stroke="#6d725c" /></g><g id="1D10" stroke="red"><polyline fill="#FFFFFF" points="455,347 455,320 501,320 501,347" stroke="#6d725c" /></g><g id="1D11" stroke="red"><polyline fill="#FFFFFF" points="409,303 409,266 455,266 455,303" stroke="#6d725c" /></g><g id="1D12" stroke="red"><polyline fill="#FFFFFF" points="409,347 409,320 455,320 455,347" stroke="#6d725c" /></g><g id="1D13" stroke="red"><polyline fill="#FFFFFF" points="336,266 392,266 392,303 336,303" stroke="#6d725c" /></g><g id="1D14" stroke="red"><polyline fill="#FFFFFF" points="336,347 336,320 392,320 392,347" stroke="#6d725c" /></g><g id="1D15" stroke="red"><polyline fill="#FFFFFF" points="280,303 280,266 336,266 336,303" stroke="#6d725c" /></g><g id="1D16" stroke="red"><polyline fill="#FFFFFF" points="280,347 280,320 336,320 336,347" stroke="#6d725c" /></g><g id="1D19" stroke="red"><polyline fill="#FFFFFF" points="95,374 95,306 263,306 263,408 178,408 178,374 170,374 101,374" stroke="#6d725c" /></g><g id="1E01" stroke="red"><polyline fill="#FFFFFF" points="645,347 693,347 693,375 645,375" stroke="#6d725c" /></g><g id="1E03" stroke="red"><polyline fill="#FFFFFF" points="597,375 597,347 645,347 645,375" stroke="#6d725c" /></g><g id="1E05" stroke="red"><polyline fill="#FFFFFF" points="549,347 580,347 580,375 549,375" stroke="#6d725c" /></g><g id="1E06" stroke="red"><polyline fill="#FFFFFF" points="575,438 575,395 669,395 669,438 618,438" stroke="#6d725c" /></g><g id="1E07" stroke="red"><polyline fill="#FFFFFF" points="518,375 518,347 549,347 549,375" stroke="#6d725c" /></g><g id="1E08" stroke="red"><polyline fill="#FFFFFF" points="518,438 518,395 575,395 575,438" stroke="#6d725c" /></g><g id="1E09" stroke="red"><polyline fill="#FFFFFF" points="455,347 501,347 501,375 455,375" stroke="#6d725c" /></g><g id="1E10" stroke="red"><polyline fill="#FFFFFF" points="498,438 439,438 439,421 402,421 402,395 498,395" stroke="#6d725c" /></g><g id="1E11" stroke="red"><polyline fill="#FFFFFF" points="409,375 409,347 455,347 455,375" stroke="#6d725c" /></g><g id="1E13" stroke="red"><polyline fill="#FFFFFF" points="336,347 392,347 392,375 336,375" stroke="#6d725c" /></g><g id="1E15" stroke="red"><polyline fill="#FFFFFF" points="280,375 280,347 336,347 336,375" stroke="#6d725c" /></g><g id="1E16" stroke="red"><polyline fill="#FFFFFF" points="337,438 337,395 385,395 385,438" stroke="#6d725c" /></g><g id="1E18" stroke="red"><polyline fill="#FFFFFF" points="280,438 280,395 316,395 316,438" stroke="#6d725c" /></g><g id="1S01" stroke="red"><polyline fill="#FFFFFF" points="727,188 727,171 732,171 732,188" stroke="#6d725c" /></g><g id="1S02" stroke="red"><polyline fill="#FFFFFF" points="727,205 727,188 732,188 732,205" stroke="#6d725c" /></g><g id="1S03" stroke="red"><polyline fill="#FFFFFF" points="727,222 727,205 732,205 732,222" stroke="#6d725c" /></g><g id="1S04" stroke="red"><polyline fill="#FFFFFF" points="732,222 732,239 727,239 727,222" stroke="#6d725c" /></g><g id="1S05" stroke="red"><polyline fill="#FFFFFF" points="731,168 726,168 726,151 731,151 731,164 731,164" stroke="#6d725c" /></g><g id="1S06" stroke="red"><polyline fill="#FFFFFF" points="726,151 726,134 731,134 731,151" stroke="#6d725c" /></g><g id="1S07" stroke="red"><polyline fill="#FFFFFF" points="726,134 726,117 731,117 731,134" stroke="#6d725c" /></g><g id="1Y01" stroke="red"><polyline fill="#FFFFFF" points="731,151 731,134 731,117 731,117 731,94 731,94 731,90 784,90 784,119 785,119 785,164 731,164" stroke="#6d725c" /></g><g id="1Y02" stroke="red"><polyline fill="#FFFFFF" points="669,438 669,395 731,395 731,320 757,320 757,325 785,325 785,439 769,439 769,485 687,485 687,475 656,475 656,457 639,457 639,485 618,485 618,438" stroke="#6d725c" /></g><g id="1Y03" stroke="red"><polyline fill="#FFFFFF" points="146,125 127,125 19,125 19,85 58,85 58,76 99,76 99,87 146,87" stroke="#6d725c" /></g><g id="1Y05" stroke="red"><polyline fill="#FFFFFF" points="18,27 18,17 75,17 75,27" stroke="#6d725c" /></g><g id="1Y06" stroke="red"><polyline fill="#FFFFFF" points="473,17 559,17 559,29 493,29 493,30 473,30" stroke="#6d725c" /></g><g id="1Y08" stroke="red"><polyline fill="#FFFFFF" points="385,438 416,438 416,477 407,477 407,485 337,485 337,438" stroke="#6d725c" /></g><g id="1Y09" stroke="red"><polyline fill="#FFFFFF" points="146,203 146,144 127,144 127,125 146,125 146,87 146,87 146,17 146,17 177,17 177,27 174,27 174,34 174,87 196,87 196,203" stroke="#6d725c" /></g><g id="1Y10" stroke="red"><polyline fill="#FFFFFF" points="75,374 95,374 101,374 101,406 29,406 29,395 18,395 18,374" stroke="#6d725c" /></g><g id="1Y11" stroke="red"><polyline fill="#FFFFFF" points="18,374 18,360 41,360 41,323 38,323 38,316 23,316 23,321 18,321 18,285 75,285 75,374" stroke="#6d725c" /></g></svg>