<?xml version="1.0" encoding="utf-8" ?>
<svg baseProfile="full" height="666" version="1.1" width="800" xmlns="http://www.w3.org/2000/svg" xmlns:ev="http://www.w3.org/2001/xml-events" xmlns:xlink="http://www.w3.org/1999/xlink"><defs /><g id="2B01" stroke="red"><polyline fill="#FFFFFF" points="363,502 405,502 405,529 323,529 323,502" stroke="#6d725c" /></g><g id="2B02" stroke="red"><polyline fill="#FFFFFF" points="323,502 323,466 363,466 363,502" stroke="#6d725c" /></g><g id="2B03" stroke="red"><polyline fill="#FFFFFF" points="323,466 323,466 323,431 360,431 360,431 361,431 361,431 362,431 362,432 362,432 362,432 363,433 363,433 363,434 363,466" stroke="#6d725c" /></g><g id="2B05" stroke="red"><polyline fill="#FFFFFF" points="363,366 363,413 363,413 363,414 362,414 362,415 362,415 362,415 361,415 361,416 360,416 360,416 323,416 323,366" stroke="#6d725c" /></g><g id="2B07" stroke="red"><polyline fill="#FFFFFF" points="323,366 323,329 363,329 363,366" stroke="#6d725c" /></g><g id="2B09" stroke="red"><polyline fill="#FFFFFF" points="323,329 323,286 360,286 360,286 361,286 361,286 362,286 362,287 362,287 362,287 363,288 363,288 363,289 363,329" stroke="#6d725c" /></g><g id="2B12" stroke="red"><polyline fill="#FFFFFF" points="399,247 399,269 353,269 352,269 352,269 351,269 351,269 351,268 350,268 350,268 350,267 350,267 350,266 350,247" stroke="#6d725c" /></g><g id="2C01" stroke="red"><polyline fill="#FFFFFF" points="427,456 427,479 427,480 427,480 427,481 426,481 426,481 426,482 425,482 425,482 424,482 424,482 385,482 385,482 384,482 384,482 383,482 383,481 383,481 383,481 382,480 382,480 382,479 382,456" stroke="#6d725c" /></g><g id="2C03" stroke="red"><polyline fill="#FFFFFF" points="382,456 382,434 382,433 382,433 383,432 383,432 383,432 383,431 384,431 384,431 385,431 385,431 424,431 424,431 425,431 425,431 426,431 426,432 426,432 427,432 427,433 427,433 427,434 427,456" stroke="#6d725c" /></g><g id="2C04" stroke="red"><polyline fill="#FFFFFF" points="496,515 445,490 445,490 445,490 444,490 444,489 444,489 444,489 444,489 444,488 444,488 444,488 444,463 444,463 444,463 444,462 444,462 444,461 445,461 445,461 445,461 446,461 446,461 496,461 496,497" stroke="#6d725c" /></g><g id="2C05" stroke="red"><polyline fill="#FFFFFF" points="385,415 385,415 384,415 384,415 383,414 383,414 383,414 383,413 382,413 382,413 382,412 382,385 382,385 382,385 383,384 383,384 383,383 383,383 384,383 384,383 385,383 385,383 424,383 424,383 425,383 425,383 426,383 426,383 426,384 427,384 427,385 427,385 427,385 427,412 427,413 427,413 427,413 426,414 426,414 426,414 425,415 425,415 424,415 424,415" stroke="#6d725c" /></g><g id="2C06" stroke="red"><polyline fill="#FFFFFF" points="446,417 446,417 445,416 445,416 445,416 444,416 444,415 444,415 444,415 444,414 444,414 444,385 444,385 444,385 444,384 444,384 444,383 445,383 445,383 445,383 446,383 446,383 478,383 478,417" stroke="#6d725c" /></g><g id="2C07" stroke="red"><polyline fill="#FFFFFF" points="427,322 427,363 427,364 427,364 427,364 426,365 426,365 426,365 425,366 425,366 424,366 424,366 385,366 385,366 384,366 384,366 383,365 383,365 383,365 383,364 382,364 382,364 382,363 382,322" stroke="#6d725c" /></g><g id="2C08" stroke="red"><polyline fill="#FFFFFF" points="446,366 446,366 445,366 445,366 445,365 444,365 444,365 444,364 444,364 444,364 444,363 444,328 475,328 475,366" stroke="#6d725c" /></g><g id="2C09" stroke="red"><polyline fill="#FFFFFF" points="382,322 382,289 382,288 382,288 383,287 383,287 383,287 383,286 384,286 384,286 385,286 385,286 424,286 424,286 425,286 425,286 426,286 426,287 426,287 427,287 427,288 427,288 427,289 427,322" stroke="#6d725c" /></g><g id="2C10" stroke="red"><polyline fill="#FFFFFF" points="444,328 444,289 444,288 444,288 444,287 444,287 444,287 445,286 445,286 445,286 446,286 446,286 475,286 475,328" stroke="#6d725c" /></g><g id="2C13" stroke="red"><polyline fill="#FFFFFF" points="439,197 439,229 405,229 405,197 422,197" stroke="#6d725c" /></g><g id="2C15" stroke="red"><polyline fill="#FFFFFF" points="422,197 405,197 405,166 422,166 439,166 439,197 439,197" stroke="#6d725c" /></g><g id="2C16" stroke="red"><polyline fill="#FFFFFF" points="495,222 456,222 456,194 456,194 495,194" stroke="#6d725c" /></g><g id="2C17" stroke="red"><polyline fill="#FFFFFF" points="439,166 422,166 405,166 405,167 405,145 413,145 414,135 423,135 423,119 431,119 439,119 439,166 439,166" stroke="#6d725c" /></g><g id="2C18" stroke="red"><polyline fill="#FFFFFF" points="495,152 495,194 495,194 456,194 456,152 495,152" stroke="#6d725c" /></g><g id="2C19" stroke="red"><polyline fill="#FFFFFF" points="431,119 423,119 423,119 423,97 405,97 405,80 407,80 407,76 439,76 439,119 439,119" stroke="#6d725c" /></g><g id="2C20" stroke="red"><polyline fill="#FFFFFF" points="495,152 456,152 456,118 456,118 495,118" stroke="#6d725c" /></g><g id="2C21" stroke="red"><polyline fill="#FFFFFF" points="420,63 420,13 455,13 455,63" stroke="#6d725c" /></g><g id="2C22" stroke="red"><polyline fill="#FFFFFF" points="456,118 456,80 495,80 495,118 495,118" stroke="#6d725c" /></g><g id="2C27" stroke="red"><polyline fill="#FFFFFF" points="455,63 455,13 501,13 501,63" stroke="#6d725c" /></g><g id="2D05A" stroke="red"><polyline fill="#FFFFFF" points="478,417 478,383 499,383 499,417" stroke="#6d725c" /></g><g id="2D05B" stroke="red"><polyline fill="#FFFFFF" points="499,417 499,383 519,383 519,417" stroke="#6d725c" /></g><g id="2D06" stroke="red"><polyline fill="#FFFFFF" points="519,383 556,383 557,383 557,383 558,383 558,383 558,383 559,384 559,384 559,385 559,385 559,385 559,414 559,414 559,415 559,415 559,415 558,416 558,416 558,416 557,416 557,417 556,417 519,417" stroke="#6d725c" /></g><g id="2D07" stroke="red"><polyline fill="#FFFFFF" points="475,328 507,328 507,363 507,364 507,364 507,364 507,365 506,365 506,365 506,366 505,366 505,366 504,366 475,366" stroke="#6d725c" /></g><g id="2D08" stroke="red"><polyline fill="#FFFFFF" points="559,328 559,346 559,363 559,364 559,364 559,364 559,365 558,365 558,365 558,366 557,366 557,366 556,366 527,366 526,366 526,366 525,366 525,365 525,365 524,365 524,364 524,364 524,364 524,363 524,328" stroke="#6d725c" /></g><g id="2D09" stroke="red"><polyline fill="#FFFFFF" points="475,328 475,286 504,286 505,286 505,286 506,286 506,286 506,287 507,287 507,287 507,288 507,288 507,289 507,328" stroke="#6d725c" /></g><g id="2D10" stroke="red"><polyline fill="#FFFFFF" points="524,328 524,289 524,288 524,288 524,287 524,287 525,287 525,286 525,286 526,286 526,286 527,286 556,286 557,286 557,286 558,286 558,286 558,287 559,287 559,287 559,288 559,288 559,289 559,328" stroke="#6d725c" /></g><g id="2D12" stroke="red"><polyline fill="#FFFFFF" points="546,238 546,269 511,269 511,238" stroke="#6d725c" /></g><g id="2D14" stroke="red"><polyline fill="#FFFFFF" points="511,238 511,206 546,206 546,207 546,238" stroke="#6d725c" /></g><g id="2D16" stroke="red"><polyline fill="#FFFFFF" points="511,206 511,174 546,174 546,176 546,206" stroke="#6d725c" /></g><g id="2D18" stroke="red"><polyline fill="#FFFFFF" points="511,174 511,174 511,143 511,143 546,143 546,143 546,144 546,174" stroke="#6d725c" /></g><g id="2D20" stroke="red"><polyline fill="#FFFFFF" points="511,143 511,111 511,111 546,111 546,111 546,113 546,143" stroke="#6d725c" /></g><g id="2D22" stroke="red"><polyline fill="#FFFFFF" points="511,111 511,80 546,80 546,111" stroke="#6d725c" /></g><g id="2D24" stroke="red"><polyline fill="#FFFFFF" points="501,13 546,13 546,63 501,63" stroke="#6d725c" /></g><g id="2E01" stroke="red"><polyline fill="#FFFFFF" points="507,607 476,607 476,536 478,536 478,529 480,529 507,542 507,607" stroke="#6d725c" /></g><g id="2E03" stroke="red"><polyline fill="#FFFFFF" points="543,607 507,607 507,607 507,542 543,559" stroke="#6d725c" /></g><g id="2E05" stroke="red"><polyline fill="#FFFFFF" points="580,607 580,607 543,607 543,607 543,559 580,559 580,559" stroke="#6d725c" /></g><g id="2E06" stroke="red"><polyline fill="#FFFFFF" points="618,607 580,607 580,559 618,559 618,607" stroke="#6d725c" /></g><g id="2E07" stroke="red"><polyline fill="#FFFFFF" points="496,497 528,497 559,497 559,537 559,538 559,538 559,538 559,539 558,539 558,539 558,540 557,540 557,540 556,540 548,540 548,540 548,540 548,540 547,540 547,540 547,540 547,540 547,540 547,540 547,540 496,515" stroke="#6d725c" /></g><g id="2E08" stroke="red"><polyline fill="#FFFFFF" points="624,498 624,537 624,538 624,538 624,538 623,539 623,539 623,539 622,540 622,540 622,540 621,540 579,540 578,540 578,540 577,540 577,539 577,539 576,539 576,538 576,538 576,538 576,537 576,498" stroke="#6d725c" /></g><g id="2E09" stroke="red"><polyline fill="#FFFFFF" points="528,497 496,497 496,461 556,461 557,461 557,461 558,461 558,461 558,461 559,462 559,462 559,463 559,463 559,463 559,497" stroke="#6d725c" /></g><g id="2E10" stroke="red"><polyline fill="#FFFFFF" points="576,498 576,457 576,457 576,457 576,456 576,456 577,455 577,455 577,455 578,455 578,455 579,455 624,455 624,498" stroke="#6d725c" /></g><g id="2E12" stroke="red"><polyline fill="#FFFFFF" points="618,438 579,438 578,438 578,438 577,438 577,437 577,437 576,437 576,436 576,436 576,436 576,435 576,406 618,406" stroke="#6d725c" /></g><g id="2E14" stroke="red"><polyline fill="#FFFFFF" points="618,406 618,406 618,406 576,406 576,386 576,385 576,385 576,384 576,384 577,384 577,383 577,383 578,383 578,383 579,383 635,383 635,383 636,383 636,383 636,383 636,383 637,383 637,383 637,383 637,384 637,384 654,406" stroke="#6d725c" /></g><g id="2E16" stroke="red"><polyline fill="#FFFFFF" points="579,366 578,366 578,366 577,366 577,365 577,365 576,365 576,364 576,364 576,364 576,363 576,328 606,328 606,366" stroke="#6d725c" /></g><g id="2E18" stroke="red"><polyline fill="#FFFFFF" points="576,328 576,289 576,288 576,288 576,287 576,287 577,287 577,286 577,286 578,286 578,286 579,286 606,286 606,328" stroke="#6d725c" /></g><g id="2F01" stroke="red"><polyline fill="#FFFFFF" points="655,607 618,607 618,559 655,559 655,607" stroke="#6d725c" /></g><g id="2F03" stroke="red"><polyline fill="#FFFFFF" points="655,559 684,559 685,559 686,560 686,560 687,560 688,560 688,560 689,561 690,561 690,562 691,562 724,604 727,607 655,607" stroke="#6d725c" /></g><g id="2F06" stroke="red"><polyline fill="#FFFFFF" points="756,493 756,493 756,530 761,530 761,536 766,536 766,566 764,564 719,532 719,532 718,531 718,530 717,530 717,529 716,528 716,527 716,527 716,526 716,525 716,493" stroke="#6d725c" /></g><g id="2F07B" stroke="red"><polyline fill="#FFFFFF" points="696,498 696,537 696,538 696,538 696,538 696,539 696,539 695,539 695,540 694,540 694,540 694,540 646,540 646,540 645,540 645,540 645,539 644,539 644,539 644,538 644,538 644,538 643,537 643,498" stroke="#6d725c" /></g><g id="2F08" stroke="red"><polyline fill="#FFFFFF" points="716,493 716,457 761,457 761,464 756,464 756,493" stroke="#6d725c" /></g><g id="2F10" stroke="red"><polyline fill="#FFFFFF" points="716,457 716,456 696,422 766,422 766,456 766,457 761,457" stroke="#6d725c" /></g><g id="2F11" stroke="red"><polyline fill="#FFFFFF" points="643,498 643,457 644,457 644,457 644,456 644,456 644,455 645,455 645,455 645,455 646,455 646,455 694,455 694,455 694,455 695,455 695,455 696,455 696,456 696,456 696,457 696,457 696,457 696,498" stroke="#6d725c" /></g><g id="2F12" stroke="red"><polyline fill="#FFFFFF" points="673,356 693,356 693,385 688,385 688,391 691,391 691,396 672,396 671,396 671,396 671,396 671,396 670,395 670,395 670,395 670,395 669,395 669,395 654,374 654,374 654,373 653,373 653,373 653,373 653,373 653,373 653,372 653,372 653,372 653,356" stroke="#6d725c" /></g><g id="2F13" stroke="red"><polyline fill="#FFFFFF" points="673,432 674,432 674,433 674,434 674,435 674,435 674,436 673,437 673,437 672,438 671,438 618,438 618,406 654,406" stroke="#6d725c" /></g><g id="2F14" stroke="red"><polyline fill="#FFFFFF" points="673,356 653,356 653,337 653,317 653,317 653,316 653,316 654,316 654,315 654,315 655,315 655,315 656,315 656,315 660,315 660,326 690,326 690,319 693,319 693,356" stroke="#6d725c" /></g><g id="2F15" stroke="red"><polyline fill="#FFFFFF" points="606,328 636,328 636,363 636,364 636,364 636,364 636,365 636,365 635,365 635,366 635,366 634,366 634,366 606,366" stroke="#6d725c" /></g><g id="2F17" stroke="red"><polyline fill="#FFFFFF" points="606,328 606,286 634,286 634,286 635,286 635,286 635,286 636,287 636,287 636,287 636,288 636,288 636,289 636,328" stroke="#6d725c" /></g><g id="2F18" stroke="red"><polyline fill="#FFFFFF" points="672,206 672,239 659,239 659,248 615,248 615,206" stroke="#6d725c" /></g><g id="2F20" stroke="red"><polyline fill="#FFFFFF" points="615,206 615,164 672,164 672,206" stroke="#6d725c" /></g><g id="2G01" stroke="red"><polyline fill="#FFFFFF" points="350,247 350,202 391,202 391,217 399,217 399,247" stroke="#6d725c" /></g><g id="2Y01" stroke="red"><polyline fill="#FFFFFF" points="322,530 171,377 171,369 185,369 186,369 187,368 188,368 189,367 189,366 190,365 189,364 189,363 188,362 187,361 187,322 192,322 192,309 184,309 184,247 333,247 333,285 322,285" stroke="#6d725c" /></g><g id="2Z01" stroke="red"><polyline fill="#FFFFFF" points="615,164 615,63 564,63 563,63 563,63 562,63 562,63 562,62 561,62 561,62 561,61 561,61 561,60 561,46 615,46 620,46 620,13 628,13 636,15 644,18 651,22 657,27 662,33 667,40 670,47 671,55 672,63 672,164" stroke="#6d725c" /></g></svg>