<?xml version="1.0" encoding="utf-8" ?>
<svg baseProfile="full" height="666" version="1.1" width="800" xmlns="http://www.w3.org/2000/svg" xmlns:ev="http://www.w3.org/2001/xml-events" xmlns:xlink="http://www.w3.org/1999/xlink"><defs /><g id="1A02" stroke="red"><polyline fill="#ebf7d1" points="330,549 280,499 319,461 320,461 320,460 320,460 321,460 321,460 321,460 322,460 322,460 322,460 323,460 364,481" stroke="#6d725c" /></g><g id="1A03" stroke="red"><polyline fill="#ebf7d1" points="299,351 299,376 299,376 299,376 298,377 298,377 298,377 298,377 298,377 298,378 298,378 298,378 248,428 238,404 238,351" stroke="#6d725c" /></g><g id="1A04" stroke="red"><polyline fill="#ebf7d1" points="335,431 333,431 330,431 328,430 327,429 325,427 323,426 322,424 322,422 321,420 321,418 321,388 321,387 321,387 321,386 321,386 322,386 322,385 322,385 323,385 323,385 324,385 373,385 373,431" stroke="#6d725c" /></g><g id="1A05" stroke="red"><polyline fill="#ebf7d1" points="238,351 238,298 238,297 238,297 238,296 238,296 239,296 239,295 239,295 240,295 240,295 240,295 296,295 296,295 297,295 297,295 297,295 298,296 298,296 298,296 298,297 299,297 299,298 299,351" stroke="#6d725c" /></g><g id="1A06" stroke="red"><polyline fill="#ebf7d1" points="324,368 323,368 323,368 322,368 322,368 322,367 321,367 321,367 321,366 321,366 321,365 321,298 321,297 321,297 321,296 321,296 322,296 322,295 322,295 323,295 323,295 324,295 373,295 373,368" stroke="#6d725c" /></g><g id="1A09" stroke="red"><polyline fill="#ebf7d1" points="404,278 181,278 181,258 337,258 337,171 366,171 366,233 389,233 389,266 404,266" stroke="#6d725c" /></g><g id="1B01" stroke="red"><polyline fill="#ebf7d1" points="344,542 343,542 342,543 342,543 341,543 340,544 340,544 339,545 339,546 339,547 339,547 339,556 339,556 339,557 339,557 339,558 339,558 339,558 339,559 340,559 340,559 340,560 330,549 364,481 435,517 423,542" stroke="#6d725c" /></g><g id="1B01A" stroke="red"><polyline fill="#ebf7d1" points="435,517 453,526 447,543 446,543 446,613 446,617 445,624 443,630 441,636 438,641 433,646 429,651 423,654 417,657 411,659 405,660 397,660 397,660 396,660 396,660 395,660 395,660 394,660 394,660 393,660 393,660 392,659 392,650 399,650 399,627 374,627 374,616 360,616 357,616 357,612 358,606 359,600 362,594 366,589 370,584 374,580 380,577 386,574 392,572 398,571 398,571 398,575 402,575 402,547 405,547 405,544 422,544 423,543 423,542" stroke="#6d725c" /></g><g id="1B02" stroke="red"><polyline fill="#ebf7d1" points="501,528 444,499 444,499 443,499 443,499 443,499 443,498 443,498 443,498 442,498 442,497 442,497 442,471 442,471 443,470 443,470 443,469 443,469 444,469 444,469 444,468 445,468 445,468 501,468 501,496" stroke="#6d725c" /></g><g id="1B03" stroke="red"><polyline fill="#ebf7d1" points="378,467 378,467 378,466 378,466 378,466 377,466 377,465 377,465 377,465 377,464 378,464 384,451 385,450 385,450 385,449 386,449 386,449 387,449 387,448 388,448 388,448 389,448 406,448 406,480" stroke="#6d725c" /></g><g id="1B04" stroke="red"><polyline fill="#ebf7d1" points="500,449 495,449 445,449 445,448 444,448 444,448 444,448 443,448 443,447 443,447 443,447 442,446 442,446 442,388 442,387 443,387 443,386 443,386 443,386 444,385 444,385 444,385 445,385 445,385 500,385 500,431" stroke="#6d725c" /></g><g id="1B05" stroke="red"><polyline fill="#ebf7d1" points="373,385 423,385 423,385 424,385 424,385 425,385 425,386 425,386 425,386 426,387 426,387 426,388 426,426 426,427 425,428 425,428 425,429 424,430 423,430 423,431 422,431 421,431 420,431 373,431" stroke="#6d725c" /></g><g id="1B06" stroke="red"><polyline fill="#ebf7d1" points="445,368 445,368 444,368 444,368 444,368 443,367 443,367 443,367 443,366 442,366 442,365 442,298 442,297 443,297 443,296 443,296 443,296 444,295 444,295 444,295 445,295 445,295 504,295 504,295 505,295 505,295 506,295 506,296 506,296 506,296 507,297 507,297 507,298 507,365 507,366 507,366 506,367 506,367 506,367 506,368 505,368 505,368 504,368 504,368" stroke="#6d725c" /></g><g id="1B07" stroke="red"><polyline fill="#ebf7d1" points="373,295 423,295 423,295 424,295 424,295 425,295 425,296 425,296 425,296 426,297 426,297 426,298 426,365 426,366 426,366 425,367 425,367 425,367 425,368 424,368 424,368 423,368 423,368 373,368" stroke="#6d725c" /></g><g id="1B08" stroke="red"><polyline fill="#ebf7d1" points="506,220 506,278 466,278 466,220" stroke="#6d725c" /></g><g id="1B09" stroke="red"><polyline fill="#ebf7d1" points="404,266 404,193 449,193 449,278 404,278" stroke="#6d725c" /></g><g id="1B10" stroke="red"><polyline fill="#ebf7d1" points="466,220 466,163 506,163 506,220" stroke="#6d725c" /></g><g id="1B11" stroke="red"><polyline fill="#ebf7d1" points="404,193 404,156 412,156 413,146 421,146 421,108 449,108 449,193" stroke="#6d725c" /></g><g id="1B12" stroke="red"><polyline fill="#ebf7d1" points="466,163 466,93 506,93 506,163" stroke="#6d725c" /></g><g id="1C01" stroke="red"><polyline fill="#ebf7d1" points="501,496 557,496 557,545 557,546 557,546 557,547 557,547 557,547 556,548 556,548 555,548 555,548 555,548 541,548 501,528" stroke="#6d725c" /></g><g id="1C03" stroke="red"><polyline fill="#ebf7d1" points="501,496 501,468 507,468 507,451 555,451 555,451 555,451 556,451 556,451 557,452 557,452 557,452 557,453 557,453 557,454 557,496" stroke="#6d725c" /></g><g id="1C05" stroke="red"><polyline fill="#ebf7d1" points="500,385 555,385 556,385 556,385 557,385 557,385 557,386 558,386 558,386 558,387 558,387 558,388 558,428 558,428 558,429 558,429 558,429 557,430 557,430 557,430 556,430 556,431 555,431 501,431 500,431" stroke="#6d725c" /></g><g id="1C07" stroke="red"><polyline fill="#ebf7d1" points="526,368 526,368 525,368 525,368 525,368 524,367 524,367 524,367 524,366 523,366 523,365 523,298 523,297 524,297 524,296 524,296 524,296 525,295 525,295 525,295 526,295 526,295 555,295 556,295 556,295 557,295 557,295 557,296 558,296 558,296 558,297 558,297 558,298 558,365 558,366 558,366 558,367 558,367 557,367 557,368 557,368 556,368 556,368 555,368" stroke="#6d725c" /></g><g id="1C09" stroke="red"><polyline fill="#ebf7d1" points="551,206 551,278 523,278 523,206" stroke="#6d725c" /></g><g id="1C11" stroke="red"><polyline fill="#ebf7d1" points="523,206 523,128 551,128 551,206" stroke="#6d725c" /></g><g id="1D01" stroke="red"><polyline fill="#ebf7d1" points="588,557 588,557 587,557 587,557 586,556 586,556 586,556 586,555 585,555 585,555 585,554 585,520 585,520 585,519 586,519 586,519 586,518 586,518 587,518 587,518 588,518 588,518 633,518 633,557" stroke="#6d725c" /></g><g id="1D03" stroke="red"><polyline fill="#ebf7d1" points="588,501 588,501 587,501 587,501 586,500 586,500 586,500 586,499 585,499 585,498 585,498 585,464 585,464 585,463 586,463 586,462 586,462 586,462 587,462 587,461 588,461 588,461 619,461 619,501" stroke="#6d725c" /></g><g id="1D05" stroke="red"><polyline fill="#ebf7d1" points="588,445 588,445 587,445 587,444 586,444 586,444 586,444 586,443 585,443 585,442 585,442 585,388 585,387 585,387 586,386 586,386 586,386 586,385 587,385 587,385 588,385 588,385 617,385 618,385 618,385 618,385 618,385 619,385 619,385 619,386 619,386 620,386 620,386 647,441 647,441 647,442 647,442 647,443 647,443 646,444 646,444 646,444 645,445 644,445" stroke="#6d725c" /></g><g id="1D07" stroke="red"><polyline fill="#ebf7d1" points="588,368 588,368 587,368 587,368 586,368 586,367 586,367 586,367 585,366 585,366 585,365 585,298 585,297 585,297 586,296 586,296 586,296 586,295 587,295 587,295 588,295 588,295 621,295 621,295 622,295 622,295 622,295 623,296 623,296 623,296 623,297 624,297 624,298 624,365 624,366 623,366 623,367 623,367 623,367 622,368 622,368 622,368 621,368 621,368" stroke="#6d725c" /></g><g id="1E01" stroke="red"><polyline fill="#ebf7d1" points="633,518 684,518 684,518 684,518 685,518 685,518 685,518 685,518 686,518 686,519 686,519 686,519 696,539 696,554 696,555 696,555 696,555 695,556 695,556 695,556 694,557 694,557 694,557 693,557 633,557" stroke="#6d725c" /></g><g id="1E03" stroke="red"><polyline fill="#ebf7d1" points="619,461 656,461 656,461 656,461 656,462 657,462 657,462 657,462 657,462 658,462 658,463 658,463 675,497 675,497 675,498 675,498 675,499 675,500 675,500 674,500 674,501 673,501 672,501 619,501" stroke="#6d725c" /></g><g id="1E04" stroke="red"><polyline fill="#ebf7d1" points="759,471 759,474 755,474 755,519 710,519 709,519 709,519 709,519 708,519 708,519 708,519 708,518 708,518 707,518 707,518 686,476 686,471" stroke="#6d725c" /></g><g id="1E06" stroke="red"><polyline fill="#ebf7d1" points="659,337 689,337 689,330 692,330 692,330 692,368 692,395 687,395 687,402 690,402 690,410 659,410 659,410 658,410 658,410 658,410 658,410 657,409 657,409 657,409 657,409 657,408 643,378 643,378 642,378 642,378 642,377 642,377 642,377 642,377 642,377 642,377 642,377 642,368 642,328 642,328 642,327 643,327 643,327 643,326 643,326 644,326 644,326 645,325 645,325 659,325" stroke="#6d725c" /></g><g id="1E12" stroke="red"><polyline fill="#ebf7d1" points="671,209 671,250 658,250 658,259 614,259 614,209" stroke="#6d725c" /></g><g id="1E14" stroke="red"><polyline fill="#ebf7d1" points="614,209 614,166 671,166 671,209" stroke="#6d725c" /></g><g id="1E16" stroke="red"><polyline fill="#ebf7d1" points="671,127 671,166 614,166 614,110 642,110 642,127 671,127" stroke="#6d725c" /></g><g id="1Y01" stroke="red"><polyline fill="#ebf7d1" points="199,405 237,405 247,428 228,447 171,389 171,381 199,381" stroke="#6d725c" /></g><g id="1Y02A" stroke="red"><polyline fill="#ebf7d1" points="549,93 550,93 550,103 549,103 549,110 524,110 524,24 545,24 545,57 549,57" stroke="#6d725c" /></g><g id="1Y02B" stroke="red"><polyline fill="#ebf7d1" points="642,127 642,110 614,110 560,110 560,57 619,57 619,29 622,29 622,24 629,24 636,26 643,29 649,32 655,37 660,42 664,48 667,55 669,62 671,69 671,127" stroke="#6d725c" /></g><g id="1Y03" stroke="red"><polyline fill="#ebf7d1" points="421,108 404,108 404,105 406,105 406,25 411,25 411,24 431,24 431,25 440,25 440,24 491,24 491,77 449,77 449,108" stroke="#6d725c" /></g><g id="1Y04" stroke="red"><polyline fill="#ebf7d1" points="513,617 477,617 477,612 474,612 474,548 478,548 478,539 478,538 513,556 552,575 552,575 553,576 553,576 553,576 553,576 553,577 554,577 554,577 554,578 554,578 554,617 547,617" stroke="#6d725c" /></g><g id="1Y05" stroke="red"><polyline fill="#ebf7d1" points="513,617 547,617 547,655 475,665 475,617 477,617" stroke="#6d725c" /></g><g id="1Y06" stroke="red"><polyline fill="#ebf7d1" points="686,471 686,433 765,433 765,471 759,471" stroke="#6d725c" /></g><g id="CQD1F01" stroke="red"><polyline fill="#ebf7d1" points="344,559 344,559 343,559 343,558 342,558 342,558 342,558 342,557 341,557 341,556 341,556 341,548 341,547 341,547 342,546 342,546 342,546 342,545 343,545 343,545 344,545 344,545 400,545 400,559" stroke="#6d725c" /></g></svg>