<?xml version="1.0" encoding="utf-8" ?>
<svg baseProfile="full" height="451" version="1.1" width="800" xmlns="http://www.w3.org/2000/svg" xmlns:ev="http://www.w3.org/2001/xml-events" xmlns:xlink="http://www.w3.org/1999/xlink"><defs /><g id="0Y01" stroke="red"><polyline fill="#ebf7d1" points="189,112 189,112 189,78 233,70 279,70 279,112" stroke="#6d725c" /></g><g id="0Y02" stroke="red"><polyline fill="#ebf7d1" points="282,265 282,299 244,299 244,265" stroke="#6d725c" /></g><g id="0Y03" stroke="red"><polyline fill="#ebf7d1" points="244,265 244,231 282,231 282,265" stroke="#6d725c" /></g><g id="0Y04" stroke="red"><polyline fill="#ebf7d1" points="244,231 244,197 282,197 282,231" stroke="#6d725c" /></g><g id="0Y05" stroke="red"><polyline fill="#ebf7d1" points="244,197 244,163 282,163 282,197" stroke="#6d725c" /></g><g id="0Y06" stroke="red"><polyline fill="#ebf7d1" points="340,384 340,357 439,357 439,384" stroke="#6d725c" /></g><g id="0Y07" stroke="red"><polyline fill="#ebf7d1" points="548,311 460,311 429,302 340,302 340,120 529,120 548,139" stroke="#6d725c" /></g></svg>