<?xml version="1.0" encoding="utf-8" ?>
<svg baseProfile="full" height="451" version="1.1" width="800" xmlns="http://www.w3.org/2000/svg" xmlns:ev="http://www.w3.org/2001/xml-events" xmlns:xlink="http://www.w3.org/1999/xlink"><defs /><g id="5Z05" stroke="red"><polyline fill="#FFFFFF" points="606,235 606,103 675,103 675,235" stroke="#6d725c" /></g><g id="CQA5T01" stroke="red"><polyline fill="#FFFFFF" points="485,289 485,302 485,305 485,307 484,309 482,312 481,313 479,315 477,316 474,317 472,318 470,318 426,318 426,289 426,289" stroke="#6d725c" /></g><g id="CQA5T02" stroke="red"><polyline fill="#FFFFFF" points="568,298 567,298 566,298 565,298 564,297 564,297 563,296 563,295 562,295 562,294 562,293 562,270 562,270 562,269 563,268 563,267 564,267 564,266 565,266 566,265 567,265 568,265 593,265 594,265 595,265 596,266 597,266 597,267 598,267 598,268 599,269 599,270 599,270 599,293 599,294 599,295 598,295 598,296 597,297 597,297 596,298 595,298 594,298 593,298" stroke="#6d725c" /></g><g id="CQA5X03" stroke="red"><polyline fill="#FFFFFF" points="328,293 328,295 328,318 288,318 288,270 288,268 288,266 289,265 290,263 291,262 292,261 294,260 295,259 297,259 299,259 328,259 328,265" stroke="#6d725c" /></g><g id="CQA5X04" stroke="red"><polyline fill="#FFFFFF" points="328,318 328,295 328,293 328,265 373,265 373,294 369,294 369,318" stroke="#6d725c" /></g><g id="CQA5X05" stroke="red"><polyline fill="#FFFFFF" points="369,294 373,294 373,265 373,250 403,250 403,266 413,266 413,318 369,318" stroke="#6d725c" /></g><g id="CQA5X06" stroke="red"><polyline fill="#FFFFFF" points="426,246 485,246 485,289 463,289 426,289" stroke="#6d725c" /></g><g id="CQA5X07" stroke="red"><polyline fill="#FFFFFF" points="426,246 426,197 485,197 485,246" stroke="#6d725c" /></g><g id="CQA5X08" stroke="red"><polyline fill="#FFFFFF" points="426,197 408,197 408,162 413,162 413,157 485,157 485,197" stroke="#6d725c" /></g><g id="CQA5X09" stroke="red"><polyline fill="#FFFFFF" points="413,157 413,148 408,148 408,140 417,140 417,128 408,128 408,118 408,117 421,117 485,117 485,157" stroke="#6d725c" /></g><g id="CQA5X10" stroke="red"><polyline fill="#FFFFFF" points="421,117 421,78 485,78 485,117" stroke="#6d725c" /></g><g id="CQA5X11" stroke="red"><polyline fill="#FFFFFF" points="404,514 408,508 411,509 413,510 416,511 418,513 421,514 423,514 426,515 429,516 432,517 434,517 434,584 397,584 397,556 398,556 398,556 399,556 399,556 400,556 401,556 401,556 402,556 402,556 403,556 403,559 408,559 408,554 408,525 405,525 404,525" stroke="#6d725c" /></g><g id="CQA5X12" stroke="red"><polyline fill="#FFFFFF" points="404,514 404,525 403,525 403,526 343,526 343,524 343,522 342,519 342,517 341,515 341,512 340,510 340,508 339,505 339,503 387,484 388,486 390,489 392,492 394,494 396,497 398,499 401,501 403,504 406,506 408,508" stroke="#6d725c" /></g><g id="CQA5X13" stroke="red"><polyline fill="#FFFFFF" points="339,503 338,499 337,495 335,491 334,487 333,484 331,480 329,476 328,473 326,469 324,465 324,465 367,443 370,447 372,451 374,455 376,459 378,463 380,467 381,471 383,475 385,479 387,484" stroke="#6d725c" /></g><g id="CQA5X14" stroke="red"><polyline fill="#FFFFFF" points="324,465 322,462 320,459 318,455 316,452 314,449 312,446 310,443 308,439 305,436 303,433 340,403 343,406 345,409 348,413 351,417 353,420 356,424 358,428 361,431 363,435 365,439 367,443 367,443" stroke="#6d725c" /></g><g id="CQA5X15" stroke="red"><polyline fill="#FFFFFF" points="528,8 549,8 549,42 554,42 555,42 555,87 528,87" stroke="#6d725c" /></g><g id="CQA5X16" stroke="red"><polyline fill="#FFFFFF" points="505,87 505,64 462,64 462,8 528,8 528,87" stroke="#6d725c" /></g><g id="CQA5Z01" stroke="red"><polyline fill="#FFFFFF" points="576,618 476,622 476,603 479,603 479,523 576,523 576,617 576,617" stroke="#6d725c" /></g><g id="CQA5Z02" stroke="red"><polyline fill="#FFFFFF" points="576,523 629,523 634,524 639,525 643,526 648,527 652,529 656,531 660,534 664,537 667,540 671,543 732,604 730,605 729,605 727,606 725,607 723,607 721,608 720,609 718,609 716,610 714,610 712,611 710,611 708,611 707,612 705,612 703,612 701,612 699,612 697,612 695,612 576,617" stroke="#6d725c" /></g><g id="CQA5Z03" stroke="red"><polyline fill="#FFFFFF" points="694,417 769,417 769,426 780,426 780,528 780,531 779,535 779,539 778,542 778,546 777,550 776,553 775,557 773,560 772,563 711,505 704,499 697,494 690,489 682,484 675,480 667,477 658,474 650,472 642,470 633,469 631,469 629,468 628,468 626,467 624,467 623,466 622,464 620,463 619,461 619,460 619,416 619,415 619,414 619,413 620,412 621,411 622,410 623,409 624,408 626,408 627,408 694,408" stroke="#6d725c" /></g><g id="CQA5Z04" stroke="red"><polyline fill="#FFFFFF" points="663,321 693,321 693,314 697,314 697,380 694,380 694,391 691,391 619,391 619,310 663,310" stroke="#6d725c" /></g><g id="CQA5Z06" stroke="red"><polyline fill="#FFFFFF" points="303,433 303,434 294,424 284,415 273,406 262,399 251,392 239,386 226,381 213,377 200,375 187,373 136,373 131,372 126,370 121,368 117,365 113,362 110,357 108,353 106,348 105,343 104,338 104,338 104,338 104,338 104,338 104,338 104,338 104,338 104,338 104,338 104,338 104,314 106,314 106,312 109,312 109,318 113,318 113,332 125,332 126,334 127,336 129,338 130,339 132,340 135,340 137,341 139,340 141,339 143,338 144,338 144,337 145,337 145,336 146,335 146,335 146,334 147,333 147,333 147,332 157,332 157,338 180,338 180,316 182,316 182,317 186,317 186,242 268,242 268,347 276,352 284,356 292,361 300,366 307,371 314,377 321,383 328,389 334,396 340,403" stroke="#6d725c" /></g><g id="CQD5A01" stroke="red"><polyline fill="#FFFFFF" points="68,120 171,120 171,274 132,274 132,267 92,267 92,294 30,293 30,281 18,281 18,229 18,155 18,155 19,144 20,134 23,124 27,115 32,106 37,97 44,90 51,82 59,76 68,70" stroke="#6d725c" /></g></svg>