<?xml version="1.0" encoding="utf-8" ?>
<svg baseProfile="full" height="666" version="1.1" width="800" xmlns="http://www.w3.org/2000/svg" xmlns:ev="http://www.w3.org/2001/xml-events" xmlns:xlink="http://www.w3.org/1999/xlink"><defs /><g id="4A01" stroke="red"><polyline points="109,78 111,81 112,82 113,84 114,87 115,89 115,92 115,106 112,106 112,193 167,193 167,291 128,291 128,284 88,284 88,299 36,299 36,289 36,279 14,279 14,248 14,165 15,158 16,151 18,144 20,138 23,131 26,125 29,119 33,113 38,107 43,102 45,100 47,98 50,96 52,95 54,93 57,91 60,89 62,88 65,86 67,85 70,84 72,83 75,82 77,81 80,80 82,79 85,78 87,77 90,77 92,76 93,76 94,76 96,76 97,76 98,76 99,76 100,76 101,77 102,77 103,77 103,74 107,77" stroke="#6d725c" /></g><g id="4A02" stroke="red"><polyline points="332,469 327,476 320,482 318,479 316,475 314,472 312,469 309,465 307,462 304,459 302,456 299,452 297,449 297,414 344,414 344,457" stroke="#6d725c" /></g><g id="4B02" stroke="red"><polyline points="339,542 338,536 337,529 336,523 334,517 332,511 330,505 328,499 326,494 323,488 320,482 327,476 332,469 344,457 380,493" stroke="#6d725c" /></g><g id="4B04" stroke="red"><polyline points="392,477 363,448 363,448 363,447 363,447 363,446 363,445 363,445 363,444 364,444 365,444 365,444 398,444 398,479" stroke="#6d725c" /></g><g id="4B10" stroke="red"><polyline points="362,378 362,334 394,334 402,334 402,378" stroke="#6d725c" /></g><g id="4B14" stroke="red"><polyline points="394,334 362,334 362,298 402,298 402,320 402,334" stroke="#6d725c" /></g><g id="4B18" stroke="red"><polyline points="399,276 399,278 399,281 399,283 352,283 352,283 351,283 351,283 351,283 350,282 350,282 350,282 350,281 350,281 349,280 349,269 349,255 385,255 385,269 399,269" stroke="#6d725c" /></g><g id="4C01" stroke="red"><polyline points="379,543 356,543 356,546 398,546 398,548 400,548 400,560 345,560 344,560 344,560 343,560 343,559 343,559 342,559 342,558 342,558 342,558 342,557 342,543 339,543 339,542 380,493 413,509" stroke="#6d725c" /></g><g id="4C02" stroke="red"><polyline points="413,509 446,524 446,543 446,595 403,595 403,541 398,541 398,543 398,543 379,543" stroke="#6d725c" /></g><g id="4C03" stroke="red"><polyline points="398,444 421,444 421,444 422,444 422,444 422,444 423,444 423,445 423,445 423,446 423,446 423,446 423,487 423,488 423,488 423,489 423,489 422,490 422,490 421,490 421,490 420,490 419,490 398,479" stroke="#6d725c" /></g><g id="4C04" stroke="red"><polyline points="445,502 444,501 444,501 444,501 444,501 443,501 443,500 443,500 443,500 443,499 443,499 443,475 443,475 443,475 443,474 443,474 444,473 444,473 444,473 445,473 445,473 446,473 469,473 479,473 482,473 482,519" stroke="#6d725c" /></g><g id="4C05" stroke="red"><polyline points="362,427 362,395 423,395 424,395 424,395 425,395 425,395 425,396 426,396 426,396 426,397 426,397 426,398 426,424 426,425 426,425 426,425 426,426 425,426 425,426 425,427 424,427 424,427 423,427" stroke="#6d725c" /></g><g id="4C06" stroke="red"><polyline points="446,429 445,429 445,428 444,428 444,428 444,428 443,427 443,427 443,427 443,426 443,426 443,398 443,397 443,397 443,396 443,396 444,396 444,395 444,395 445,395 445,395 446,395 478,395 478,395 478,404 478,429" stroke="#6d725c" /></g><g id="4C08" stroke="red"><polyline points="446,378 445,378 445,378 444,378 444,378 444,377 443,377 443,377 443,376 443,376 443,375 443,340 475,340 475,378" stroke="#6d725c" /></g><g id="4C09" stroke="red"><polyline points="402,334 402,320 402,298 423,298 424,298 424,298 425,298 425,298 425,299 426,299 426,299 426,300 426,300 426,301 426,375 426,376 426,376 426,377 426,377 425,377 425,378 425,378 424,378 424,378 423,378 402,378" stroke="#6d725c" /></g><g id="4C10" stroke="red"><polyline points="443,340 443,301 443,300 443,300 443,299 443,299 444,299 444,298 444,298 445,298 445,298 446,298 475,298 475,323 475,332 475,340" stroke="#6d725c" /></g><g id="4C11" stroke="red"><polyline points="399,278 399,276 399,269 399,262 409,262 409,248 404,248 404,237 426,237 426,278 426,279 426,279 426,280 426,280 425,280 425,281 425,281 424,281 424,281 423,281 399,281" stroke="#6d725c" /></g><g id="4C12" stroke="red"><polyline points="446,281 445,281 445,281 444,281 444,281 444,280 443,280 443,280 443,279 443,279 443,278 443,262 467,262 475,262 475,281" stroke="#6d725c" /></g><g id="4C13" stroke="red"><polyline points="404,237 404,192 426,192 426,237" stroke="#6d725c" /></g><g id="4C14" stroke="red"><polyline points="467,262 443,262 443,245 443,244 443,244 443,244 443,243 444,243 444,243 444,242 445,242 445,242 446,242 475,242 475,248 475,262" stroke="#6d725c" /></g><g id="4C15" stroke="red"><polyline points="404,192 404,179 409,179 409,165 404,165 404,157 413,157 413,147 426,147 426,192" stroke="#6d725c" /></g><g id="4C16" stroke="red"><polyline points="446,231 445,231 445,231 444,231 444,230 444,230 443,230 443,229 443,229 443,229 443,228 443,212 475,212 475,231" stroke="#6d725c" /></g><g id="4C17" stroke="red"><polyline points="406,109 406,92 406,89 423,89 424,89 424,89 425,89 425,90 425,90 426,90 426,91 426,91 426,91 426,92 426,109 422,109" stroke="#6d725c" /></g><g id="4C18" stroke="red"><polyline points="443,212 443,196 443,195 443,195 443,194 443,194 444,194 444,193 444,193 445,193 445,193 446,193 475,193 475,212" stroke="#6d725c" /></g><g id="4C19" stroke="red"><polyline points="419,75 419,25 449,25 449,75" stroke="#6d725c" /></g><g id="4C20" stroke="red"><polyline points="446,182 445,182 445,182 444,182 444,181 444,181 443,181 443,180 443,180 443,179 443,179 443,163 475,163 475,182" stroke="#6d725c" /></g><g id="4C22" stroke="red"><polyline points="443,163 443,147 443,146 443,146 443,145 443,145 444,145 444,144 444,144 445,144 445,144 446,144 475,144 475,163" stroke="#6d725c" /></g><g id="4C24" stroke="red"><polyline points="446,133 445,133 445,132 444,132 444,132 444,132 443,131 443,131 443,131 443,130 443,130 443,114 475,114 475,133" stroke="#6d725c" /></g><g id="4C26" stroke="red"><polyline points="443,114 443,97 443,97 443,97 443,96 443,96 444,95 444,95 444,95 445,95 445,95 446,95 475,95 475,95 475,103 475,114" stroke="#6d725c" /></g><g id="4C28" stroke="red"><polyline points="449,75 449,25 471,25 471,30 477,30 477,25 485,25 485,75" stroke="#6d725c" /></g><g id="4D05" stroke="red"><polyline points="478,429 478,404 478,395 478,395 518,395 518,429" stroke="#6d725c" /></g><g id="4D06" stroke="red"><polyline points="518,395 556,395 556,395 557,395 557,395 557,395 558,396 558,396 558,396 558,397 558,397 558,398 558,426 558,426 558,427 558,427 558,427 558,428 557,428 557,428 557,428 556,429 556,429 518,429" stroke="#6d725c" /></g><g id="4D07" stroke="red"><polyline points="475,340 506,340 506,375 506,376 506,376 506,377 506,377 506,377 505,378 505,378 505,378 504,378 504,378 475,378" stroke="#6d725c" /></g><g id="4D08" stroke="red"><polyline points="558,340 558,375 558,376 558,376 558,377 558,377 558,377 557,378 557,378 557,378 556,378 556,378 526,378 526,378 525,378 525,378 524,378 524,377 524,377 523,377 523,376 523,376 523,375 523,340" stroke="#6d725c" /></g><g id="4D09" stroke="red"><polyline points="475,340 475,332 475,323 475,298 504,298 504,298 505,298 505,298 505,298 506,299 506,299 506,299 506,300 506,300 506,301 506,340" stroke="#6d725c" /></g><g id="4D10" stroke="red"><polyline points="523,340 523,301 523,300 523,300 523,299 524,299 524,299 524,298 525,298 525,298 526,298 526,298 556,298 556,298 557,298 557,298 557,298 558,299 558,299 558,299 558,300 558,300 558,301 558,340" stroke="#6d725c" /></g><g id="4D11" stroke="red"><polyline points="475,262 481,262 506,262 506,278 506,279 506,279 506,280 506,280 506,280 505,281 505,281 505,281 504,281 504,281 475,281" stroke="#6d725c" /></g><g id="4D12" stroke="red"><polyline points="546,239 546,251 542,251 542,260 550,260 550,278 550,279 550,279 550,280 550,280 549,280 549,281 549,281 548,281 548,281 547,281 526,281 526,281 525,281 525,281 524,281 524,280 524,280 523,280 523,279 523,279 523,278 523,239" stroke="#6d725c" /></g><g id="4D13" stroke="red"><polyline points="481,262 475,262 475,248 475,242 504,242 504,242 505,242 505,242 505,243 506,243 506,243 506,244 506,244 506,244 506,245 506,262" stroke="#6d725c" /></g><g id="4D14A" stroke="red"><polyline points="523,239 523,212 546,212 546,239" stroke="#6d725c" /></g><g id="4D14B" stroke="red"><polyline points="523,212 523,185 546,185 546,212" stroke="#6d725c" /></g><g id="4D15" stroke="red"><polyline points="475,212 506,212 506,228 506,229 506,229 506,229 506,230 506,230 505,230 505,231 505,231 504,231 504,231 475,231" stroke="#6d725c" /></g><g id="4D16" stroke="red"><polyline points="523,185 523,131 545,131 545,131 546,131 546,167 546,176 546,185" stroke="#6d725c" /></g><g id="4D17" stroke="red"><polyline points="475,212 475,193 504,193 504,193 505,193 505,193 505,193 506,194 506,194 506,194 506,195 506,195 506,196 506,212" stroke="#6d725c" /></g><g id="4D18" stroke="red"><polyline points="523,131 523,97 523,97 523,97 523,96 524,96 524,95 524,95 525,95 525,95 526,95 526,95 551,95 551,127 550,127 545,127 545,131" stroke="#6d725c" /></g><g id="4D19" stroke="red"><polyline points="475,163 506,163 506,179 506,179 506,180 506,180 506,181 506,181 505,181 505,182 505,182 504,182 504,182 475,182" stroke="#6d725c" /></g><g id="4D21" stroke="red"><polyline points="475,163 475,144 504,144 504,144 505,144 505,144 505,144 506,145 506,145 506,145 506,146 506,146 506,147 506,163" stroke="#6d725c" /></g><g id="4D23" stroke="red"><polyline points="475,114 506,114 506,130 506,130 506,131 506,131 506,131 506,132 505,132 505,132 505,132 504,133 504,133 475,133" stroke="#6d725c" /></g><g id="4D25" stroke="red"><polyline points="475,114 475,103 475,95 475,95 504,95 504,95 505,95 505,95 505,95 506,95 506,96 506,96 506,97 506,97 506,97 506,114" stroke="#6d725c" /></g><g id="4D26" stroke="red"><polyline points="485,25 543,25 543,31 545,31 545,58 545,72 545,73 545,73 545,74 545,74 545,74 544,75 544,75 544,75 543,75 543,75 485,75" stroke="#6d725c" /></g><g id="4E01" stroke="red"><polyline points="510,637 472,639 472,620 477,620 477,614 475,614 475,548 478,548 478,541 479,541 479,540 510,555" stroke="#6d725c" /></g><g id="4E03" stroke="red"><polyline points="553,635 510,637 510,555 553,575" stroke="#6d725c" /></g><g id="4E05" stroke="red"><polyline points="589,634 553,635 553,575 554,575 589,575" stroke="#6d725c" /></g><g id="4E06" stroke="red"><polyline points="589,634 589,575 629,575 629,632" stroke="#6d725c" /></g><g id="4E07" stroke="red"><polyline points="513,534 482,519 482,473 513,473 513,511" stroke="#6d725c" /></g><g id="4E08" stroke="red"><polyline points="629,632 629,575 670,575 670,630" stroke="#6d725c" /></g><g id="4E09" stroke="red"><polyline points="513,511 558,511 558,551 558,552 558,552 558,553 558,553 557,554 557,554 556,554 556,554 555,554 554,554 545,549 542,548 513,534" stroke="#6d725c" /></g><g id="4E10" stroke="red"><polyline points="578,556 577,556 577,555 577,555 576,555 576,555 576,554 575,554 575,554 575,553 575,553 575,512 615,512 615,540 615,549 615,556" stroke="#6d725c" /></g><g id="4E11" stroke="red"><polyline points="513,511 513,473 542,473 550,473 556,473 556,473 557,473 557,473 557,473 558,473 558,474 558,474 558,475 558,475 558,475 558,511" stroke="#6d725c" /></g><g id="4E12" stroke="red"><polyline points="615,556 615,549 615,540 615,512 661,512 661,556" stroke="#6d725c" /></g><g id="4E14" stroke="red"><polyline points="575,512 575,470 575,470 575,469 575,469 576,468 576,468 576,468 577,468 577,467 577,467 578,467 615,467 615,468 615,477 615,512" stroke="#6d725c" /></g><g id="4E16" stroke="red"><polyline points="615,512 615,477 615,468 615,467 661,467 661,512" stroke="#6d725c" /></g><g id="4E18" stroke="red"><polyline points="578,451 577,450 577,450 577,450 576,450 576,450 576,449 575,449 575,449 575,448 575,448 575,418 618,418 618,451" stroke="#6d725c" /></g><g id="4E20A" stroke="red"><polyline points="575,418 575,398 575,397 575,397 575,396 576,396 576,396 576,395 577,395 577,395 577,395 578,395 618,395 618,418" stroke="#6d725c" /></g><g id="4E20B" stroke="red"><polyline points="618,418 618,395 634,395 635,395 635,395 635,395 635,395 636,395 636,395 636,395 636,396 637,396 637,396 653,418" stroke="#6d725c" /></g><g id="4E22" stroke="red"><polyline points="578,378 578,378 577,378 577,378 576,378 576,377 576,377 575,377 575,376 575,376 575,375 575,340 605,340 605,378" stroke="#6d725c" /></g><g id="4E24" stroke="red"><polyline points="575,340 575,301 575,300 575,300 575,299 576,299 576,299 576,298 577,298 577,298 578,298 578,298 605,298 605,340" stroke="#6d725c" /></g><g id="4E38" stroke="red"><polyline points="563,75 563,75 562,75 562,75 561,75 561,74 561,74 561,74 560,73 560,73 560,72 560,58 615,58 615,75" stroke="#6d725c" /></g><g id="4F02" stroke="red"><polyline points="776,516 776,545 776,548 775,552 775,556 774,559 774,563 773,566 772,570 771,573 769,577 768,580 764,576 728,545 728,545 728,545 728,545 727,544 727,544 727,544 727,544 727,544 727,543 727,543 727,516" stroke="#6d725c" /></g><g id="4F03" stroke="red"><polyline points="661,512 708,512 708,553 708,553 707,554 707,554 707,554 707,555 706,555 706,555 706,555 705,556 705,556 698,556 661,556" stroke="#6d725c" /></g><g id="4F04" stroke="red"><polyline points="727,516 727,469 759,469 768,469 776,469 776,516" stroke="#6d725c" /></g><g id="4F05" stroke="red"><polyline points="661,512 661,467 696,467 697,467 697,467 697,467 697,467 697,467 698,467 698,468 698,468 698,468 698,468 707,476 707,476 707,477 707,477 707,477 707,477 707,477 707,478 708,478 708,478 708,478 708,512" stroke="#6d725c" /></g><g id="4F06" stroke="red"><polyline points="768,469 759,469 727,469 690,434 695,434 695,434 696,434 696,434 697,434 697,434 698,434 698,434 719,434 764,434 764,434 764,434 764,434 764,434 764,434 765,434 765,434 765,434 765,434 765,434 765,443 776,443 776,469" stroke="#6d725c" /></g><g id="4F07" stroke="red"><polyline points="618,418 653,418 673,444 673,444 673,444 673,445 673,445 673,445 673,445 673,445 673,445 673,446 673,446 673,448 673,448 673,449 673,449 673,449 672,450 672,450 672,450 671,450 671,450 670,451 618,451" stroke="#6d725c" /></g><g id="4F08" stroke="red"><polyline points="693,368 693,397 690,397 690,408 671,408 671,408 670,408 670,408 670,408 670,407 669,407 669,407 669,407 669,407 669,407 653,386 653,386 653,385 653,385 653,385 653,385 653,385 653,385 653,384 653,384 653,384 653,368" stroke="#6d725c" /></g><g id="4F09" stroke="red"><polyline points="605,340 636,340 636,375 636,376 636,376 636,377 635,377 635,377 635,378 634,378 634,378 634,378 633,378 605,378" stroke="#6d725c" /></g><g id="4F10" stroke="red"><polyline points="653,368 653,329 653,329 653,328 653,328 653,328 653,327 654,327 654,327 655,327 655,327 655,327 659,327 659,338 689,338 689,331 693,331 693,368" stroke="#6d725c" /></g><g id="4F11" stroke="red"><polyline points="605,340 605,298 633,298 634,298 634,298 634,298 635,298 635,299 635,299 636,299 636,300 636,300 636,301 636,340" stroke="#6d725c" /></g><g id="4F13" stroke="red"><polyline points="636,251 636,281 604,281 604,251" stroke="#6d725c" /></g><g id="4F15" stroke="red"><polyline points="604,251 604,95 624,95 624,104 671,104 671,251 636,251" stroke="#6d725c" /></g><g id="4Z01" stroke="red"><polyline points="297,414 257,414 256,414 250,411 244,407 238,404 231,402 225,399 219,397 212,395 205,393 199,392 192,391 183,390 132,390 131,390 129,389 128,389 126,389 125,389 124,388 122,388 121,387 120,387 118,386 115,384 112,381 110,379 107,376 105,373 104,369 102,366 101,362 100,358 100,354 100,329 105,329 105,334 109,334 109,349 121,349 122,352 124,354 126,356 129,357 132,357 135,357 138,356 140,354 142,352 143,349 153,349 153,355 176,355 176,333 178,333 178,321 183,321 183,276 257,276 333,276 333,320 344,320 344,414" stroke="#6d725c" /></g><g id="CQA4F01" stroke="red"><polyline points="670,575 693,575 694,575 694,575 694,575 694,575 695,575 695,576 695,576 695,576 696,576 696,576 724,616 728,621 725,622 721,624 718,625 714,626 710,627 706,628 703,628 699,629 695,629 691,629 670,630" stroke="#6d725c" /></g></svg>