<?xml version="1.0" encoding="utf-8" ?>
<svg baseProfile="full" height="666" version="1.1" width="800" xmlns="http://www.w3.org/2000/svg" xmlns:ev="http://www.w3.org/2001/xml-events" xmlns:xlink="http://www.w3.org/1999/xlink"><defs /><g id="1A02" stroke="red"><polyline fill="#FFFFFF" points="367,505 322,460 358,424 358,424 358,424 358,424 359,423 359,423 359,423 360,423 360,423 360,423 361,424 399,443" stroke="#6d725c" /></g><g id="1A03" stroke="red"><polyline fill="#FFFFFF" points="339,323 339,346 339,346 338,346 338,347 338,347 338,347 338,347 338,347 338,347 338,348 338,348 292,393 283,372 283,323" stroke="#6d725c" /></g><g id="1A04" stroke="red"><polyline fill="#FFFFFF" points="372,397 370,397 368,396 366,396 364,395 363,393 361,392 360,390 360,388 359,386 359,384 359,357 359,356 359,356 359,355 359,355 360,355 360,355 360,354 361,354 361,354 362,354 407,354 407,397" stroke="#6d725c" /></g><g id="1A05" stroke="red"><polyline fill="#FFFFFF" points="283,323 283,274 283,273 283,273 283,273 283,272 283,272 284,272 284,271 284,271 285,271 285,271 336,271 336,271 337,271 337,271 337,272 338,272 338,272 338,273 338,273 338,273 339,274 339,323" stroke="#6d725c" /></g><g id="1A06" stroke="red"><polyline fill="#FFFFFF" points="362,339 361,339 361,339 360,338 360,338 360,338 359,338 359,337 359,337 359,337 359,336 359,274 359,273 359,273 359,273 359,272 360,272 360,272 360,271 361,271 361,271 362,271 407,271 407,339" stroke="#6d725c" /></g><g id="1A09" stroke="red"><polyline fill="#FFFFFF" points="435,256 230,256 230,237 374,237 374,157 400,157 400,214 422,214 422,245 435,245" stroke="#6d725c" /></g><g id="1B01" stroke="red"><polyline fill="#FFFFFF" points="380,499 380,499 379,499 378,499 377,500 377,500 376,501 376,502 376,502 375,503 375,504 375,511 375,512 375,512 375,513 376,513 376,513 376,514 376,514 376,514 376,515 377,515 367,505 399,443 464,476 453,499" stroke="#6d725c" /></g><g id="1B01A" stroke="red"><polyline fill="#FFFFFF" points="464,476 481,484 475,499 474,499 474,564 474,568 473,574 472,580 469,585 466,590 463,595 458,599 453,602 448,605 442,607 436,608 429,608 429,607 428,607 428,607 428,607 427,607 427,607 426,607 426,607 425,607 425,607 425,598 431,598 431,577 408,577 408,567 395,567 392,567 392,563 393,558 395,552 397,547 400,542 404,538 408,534 413,531 419,528 424,527 430,526 430,526 430,529 434,529 434,503 436,503 436,501 452,501 453,499 453,499" stroke="#6d725c" /></g><g id="1B02" stroke="red"><polyline fill="#FFFFFF" points="525,486 472,460 472,459 472,459 472,459 471,459 471,459 471,458 471,458 471,458 471,458 471,457 471,433 471,433 471,433 471,432 471,432 472,432 472,431 472,431 473,431 473,431 473,431 525,431 525,456" stroke="#6d725c" /></g><g id="1B03" stroke="red"><polyline fill="#FFFFFF" points="437,442 412,429 412,429 412,429 411,429 411,429 411,428 411,428 411,428 411,428 411,427 411,427 417,415 418,414 418,414 418,414 419,413 419,413 419,413 420,413 420,412 421,412 421,412 437,412" stroke="#6d725c" /></g><g id="1B04" stroke="red"><polyline fill="#FFFFFF" points="524,413 519,413 473,413 473,413 473,413 472,412 472,412 472,412 471,412 471,411 471,411 471,411 471,410 471,357 471,356 471,356 471,355 471,355 472,355 472,355 472,354 473,354 473,354 473,354 524,354 524,396" stroke="#6d725c" /></g><g id="1B05" stroke="red"><polyline fill="#FFFFFF" points="407,354 453,354 453,354 454,354 454,354 454,355 455,355 455,355 455,355 455,356 455,356 455,357 455,392 455,393 455,393 455,394 455,395 454,396 453,396 453,396 452,397 451,397 450,397 407,397" stroke="#6d725c" /></g><g id="1B06" stroke="red"><polyline fill="#FFFFFF" points="473,339 473,339 473,339 472,338 472,338 472,338 471,338 471,337 471,337 471,337 471,336 471,274 471,273 471,273 471,273 471,272 472,272 472,272 472,271 473,271 473,271 473,271 527,271 528,271 528,271 529,271 529,272 529,272 530,272 530,273 530,273 530,273 530,274 530,336 530,337 530,337 530,337 530,338 529,338 529,338 529,338 528,339 528,339 527,339" stroke="#6d725c" /></g><g id="1B07" stroke="red"><polyline fill="#FFFFFF" points="407,271 453,271 453,271 454,271 454,271 454,272 455,272 455,272 455,273 455,273 455,273 455,274 455,336 455,337 455,337 455,337 455,338 455,338 454,338 454,338 454,339 453,339 453,339 407,339" stroke="#6d725c" /></g><g id="1B08" stroke="red"><polyline fill="#FFFFFF" points="529,171 529,256 492,256 492,171" stroke="#6d725c" /></g><g id="1B09" stroke="red"><polyline fill="#FFFFFF" points="435,245 435,178 477,178 477,256 435,256" stroke="#6d725c" /></g><g id="1B11" stroke="red"><polyline fill="#FFFFFF" points="435,178 435,143 443,143 444,135 452,135 452,100 477,100 477,178" stroke="#6d725c" /></g><g id="1B12" stroke="red"><polyline fill="#FFFFFF" points="492,171 492,86 529,86 529,171" stroke="#6d725c" /></g><g id="1C01" stroke="red"><polyline fill="#FFFFFF" points="525,456 577,456 577,502 577,502 577,503 576,503 576,503 576,504 576,504 575,504 575,504 575,504 574,504 562,504 525,486" stroke="#6d725c" /></g><g id="1C03" stroke="red"><polyline fill="#FFFFFF" points="525,456 525,431 530,431 530,415 574,415 575,415 575,415 575,415 576,415 576,416 576,416 576,416 577,417 577,417 577,417 577,456" stroke="#6d725c" /></g><g id="1C05" stroke="red"><polyline fill="#FFFFFF" points="524,354 575,354 575,354 576,354 576,354 576,355 577,355 577,355 577,355 577,356 577,356 577,357 577,394 577,394 577,394 577,395 577,395 577,395 576,396 576,396 576,396 575,396 575,396 524,396 524,396" stroke="#6d725c" /></g><g id="1C07" stroke="red"><polyline fill="#FFFFFF" points="548,339 548,339 547,339 547,338 546,338 546,338 546,338 546,337 546,337 545,337 545,336 545,274 545,273 546,273 546,273 546,272 546,272 546,272 547,271 547,271 548,271 548,271 575,271 575,271 576,271 576,271 576,272 577,272 577,272 577,273 577,273 577,273 577,274 577,336 577,337 577,337 577,337 577,338 577,338 576,338 576,338 576,339 575,339 575,339" stroke="#6d725c" /></g><g id="1C09" stroke="red"><polyline fill="#FFFFFF" points="571,190 571,256 545,256 545,190" stroke="#6d725c" /></g><g id="1C11" stroke="red"><polyline fill="#FFFFFF" points="545,190 545,118 571,118 571,190" stroke="#6d725c" /></g><g id="1D01" stroke="red"><polyline fill="#FFFFFF" points="605,513 604,513 604,512 604,512 603,512 603,512 603,511 603,511 602,511 602,510 602,510 602,479 602,478 602,478 603,478 603,477 603,477 603,477 604,476 604,476 604,476 605,476 646,476 646,513" stroke="#6d725c" /></g><g id="1D03" stroke="red"><polyline fill="#FFFFFF" points="605,461 604,461 604,461 604,461 603,460 603,460 603,460 603,459 602,459 602,459 602,458 602,427 602,427 602,426 603,426 603,426 603,425 603,425 604,425 604,425 604,425 605,425 633,425 633,461" stroke="#6d725c" /></g><g id="1D05" stroke="red"><polyline fill="#FFFFFF" points="605,409 604,409 604,409 604,409 603,409 603,408 603,408 603,408 602,407 602,407 602,407 602,357 602,356 602,356 603,355 603,355 603,355 603,355 604,354 604,354 604,354 605,354 632,354 632,354 632,354 633,354 633,354 633,354 633,355 634,355 634,355 634,355 634,355 659,405 659,406 659,406 659,407 659,407 659,408 659,408 658,409 658,409 657,409 657,409" stroke="#6d725c" /></g><g id="1D07" stroke="red"><polyline fill="#FFFFFF" points="605,339 604,339 604,339 604,338 603,338 603,338 603,338 603,337 602,337 602,337 602,336 602,274 602,273 602,273 603,273 603,272 603,272 603,272 604,271 604,271 604,271 605,271 635,271 635,271 636,271 636,271 637,272 637,272 637,272 637,273 638,273 638,273 638,274 638,336 638,337 638,337 637,337 637,338 637,338 637,338 636,338 636,339 635,339 635,339" stroke="#6d725c" /></g><g id="1E01" stroke="red"><polyline fill="#FFFFFF" points="646,476 693,476 693,476 693,476 694,476 694,476 694,477 694,477 695,477 695,477 695,477 695,478 704,496 704,510 704,510 704,511 704,511 704,511 703,512 703,512 703,512 702,512 702,513 702,513 646,513" stroke="#6d725c" /></g><g id="1E03" stroke="red"><polyline fill="#FFFFFF" points="633,425 667,425 667,425 668,425 668,425 668,425 668,425 669,425 669,425 669,425 669,426 669,426 685,457 685,458 685,458 685,459 685,459 685,460 684,460 684,460 684,461 683,461 683,461 633,461" stroke="#6d725c" /></g><g id="1E04" stroke="red"><polyline fill="#FFFFFF" points="762,433 762,436 759,436 759,478 717,478 717,478 716,478 716,478 716,477 716,477 715,477 715,477 715,477 715,477 715,476 695,438 695,433" stroke="#6d725c" /></g><g id="1E06" stroke="red"><polyline fill="#FFFFFF" points="670,310 698,310 698,304 701,304 701,304 701,339 701,363 696,363 696,370 698,370 698,377 670,377 670,377 670,377 669,377 669,377 669,377 669,377 668,376 668,376 668,376 668,376 655,348 655,348 655,348 655,347 655,347 655,347 655,347 655,347 655,347 655,347 655,347 655,339 655,302 655,302 655,301 655,301 655,300 656,300 656,300 656,300 657,300 657,299 657,299 670,299" stroke="#6d725c" /></g><g id="1E12" stroke="red"><polyline fill="#FFFFFF" points="681,193 681,230 669,230 669,238 628,238 628,193" stroke="#6d725c" /></g><g id="1E14" stroke="red"><polyline fill="#FFFFFF" points="628,193 628,153 681,153 681,193" stroke="#6d725c" /></g><g id="1E16" stroke="red"><polyline fill="#FFFFFF" points="681,117 681,153 628,153 628,102 655,102 655,117 681,117" stroke="#6d725c" /></g><g id="1Y01" stroke="red"><polyline fill="#FFFFFF" points="247,373 282,373 291,394 274,411 221,358 221,350 247,350" stroke="#6d725c" /></g><g id="1Y02A" stroke="red"><polyline fill="#FFFFFF" points="569,86 570,86 570,94 569,94 569,102 546,102 546,22 565,22 565,53 569,53" stroke="#6d725c" /></g><g id="1Y02B" stroke="red"><polyline fill="#FFFFFF" points="655,117 655,102 628,102 579,102 579,53 634,53 634,27 636,27 636,22 643,22 649,24 656,26 661,30 667,34 671,39 675,45 678,51 680,57 681,64 681,117" stroke="#6d725c" /></g><g id="1Y03" stroke="red"><polyline fill="#FFFFFF" points="452,100 435,100 435,97 437,97 437,23 442,23 442,22 460,22 460,23 469,23 469,22 515,22 515,71 477,71 477,100" stroke="#6d725c" /></g><g id="1Y04" stroke="red"><polyline fill="#FFFFFF" points="536,568 503,568 503,563 500,563 500,504 503,504 503,496 503,495 536,512 572,529 572,530 572,530 573,530 573,530 573,530 573,531 573,531 573,531 573,531 573,532 573,568 567,568" stroke="#6d725c" /></g><g id="1Y05" stroke="red"><polyline fill="#FFFFFF" points="536,568 567,568 567,603 501,611 501,568 503,568" stroke="#6d725c" /></g><g id="1Y06" stroke="red"><polyline fill="#FFFFFF" points="695,433 695,398 768,398 768,433 762,433" stroke="#6d725c" /></g><g id="CQD1F01" stroke="red"><polyline fill="#FFFFFF" points="380,514 380,514 380,514 379,514 379,514 379,513 378,513 378,513 378,512 378,512 378,512 378,504 378,503 378,503 378,503 378,502 379,502 379,502 379,502 380,501 380,501 380,501 432,501 432,514" stroke="#6d725c" /></g></svg>