<?xml version="1.0" encoding="utf-8" ?>
<svg baseProfile="full" height="666" version="1.1" width="800" xmlns="http://www.w3.org/2000/svg" xmlns:ev="http://www.w3.org/2001/xml-events" xmlns:xlink="http://www.w3.org/1999/xlink"><defs /><g id="3A01" stroke="red"><polyline points="329,487 320,472 310,458 299,446 286,434 273,424 258,415 243,407 227,402 211,397 194,394 194,393 141,393 139,393 138,392 136,392 134,392 133,391 131,391 130,390 128,389 127,388 125,388 123,385 120,383 118,381 116,378 115,375 113,372 112,369 111,366 111,362 111,359 111,335 111,334 114,334 114,339 118,339 118,354 130,354 131,356 133,359 135,361 138,362 141,362 144,362 147,361 149,359 151,356 152,354 162,354 162,360 185,360 185,339 200,339 200,325 210,325 211,325 211,325 212,325 213,326 213,326 214,326 215,327 215,327 216,327 216,328 353,462" stroke="#6d725c" /></g><g id="3A03" stroke="red"><polyline points="223,307 223,307 223,306 222,306 222,305 223,304 223,304 223,303 224,303 225,303 225,303 295,303 295,378" stroke="#6d725c" /></g><g id="3A05" stroke="red"><polyline points="190,264 286,264 286,286 190,286" stroke="#6d725c" /></g><g id="3B03" stroke="red"><polyline points="393,548 409,548 409,565 354,565 353,565 353,564 352,564 352,564 352,564 351,563 351,563 351,563 351,562 351,562 351,548 348,548 347,541 389,497 389,497 424,514" stroke="#6d725c" /></g><g id="3B04" stroke="red"><polyline points="401,481 372,453 372,453 371,452 371,451 371,451 371,450 372,450 372,449 373,449 373,448 374,448 407,448 407,473 407,481 407,484" stroke="#6d725c" /></g><g id="3B05" stroke="red"><polyline points="347,541 346,536 345,530 344,524 342,519 340,513 338,508 336,502 334,497 332,492 329,487 353,462 389,497" stroke="#6d725c" /></g><g id="3B09" stroke="red"><polyline points="295,303 355,303 355,430 355,431 355,431 355,432 354,432 354,433 353,433 352,433 352,433 351,433 351,432 295,378" stroke="#6d725c" /></g><g id="3B10" stroke="red"><polyline points="372,382 372,339 403,339 411,339 411,340 411,382" stroke="#6d725c" /></g><g id="3B11" stroke="red"><polyline points="353,286 312,286 312,264 340,264 340,265 340,266 341,267 341,268 342,269 343,270 344,270 345,271 346,272 347,272 353,272" stroke="#6d725c" /></g><g id="3B14" stroke="red"><polyline points="403,339 372,339 372,303 411,303 411,324 411,339" stroke="#6d725c" /></g><g id="3B18" stroke="red"><polyline points="411,286 353,286 353,272 353,270 347,270 346,269 345,269 345,269 344,268 344,267 343,267 343,266 342,265 342,264 342,264 342,262 342,257 391,257 391,272 411,272 411,281" stroke="#6d725c" /></g><g id="3C02" stroke="red"><polyline points="393,548 424,514 455,529 455,611 411,611 411,575 412,575 412,548 409,548" stroke="#6d725c" /></g><g id="3C03" stroke="red"><polyline points="407,481 407,473 407,448 427,448 427,448 428,448 429,449 429,449 430,449 431,449 431,450 432,450 432,451 432,451 432,492 432,493 432,493 432,494 432,494 431,494 431,495 430,495 429,495 429,495 428,495 407,484" stroke="#6d725c" /></g><g id="3C04" stroke="red"><polyline points="506,532 453,507 453,507 453,506 453,506 452,506 452,506 452,505 452,505 452,505 452,505 452,504 452,480 452,480 452,479 452,479 452,479 453,478 453,478 453,478 454,478 454,477 455,477 478,477 488,477 506,477 506,514" stroke="#6d725c" /></g><g id="3C05" stroke="red"><polyline points="372,432 372,399 432,399 433,399 433,399 434,399 434,400 434,400 435,400 435,401 435,401 435,401 435,402 435,429 435,429 435,430 435,430 435,431 434,431 434,431 434,431 433,432 433,432 432,432" stroke="#6d725c" /></g><g id="3C06" stroke="red"><polyline points="455,433 454,433 454,433 453,433 453,433 453,432 452,432 452,432 452,431 452,431 452,430 452,402 452,401 452,401 452,401 452,400 453,400 453,400 453,399 454,399 454,399 455,399 487,399 487,400 487,409 487,433" stroke="#6d725c" /></g><g id="3C07" stroke="red"><polyline points="411,340 411,339 411,324 411,303 432,303 433,303 433,303 434,303 434,303 434,303 435,304 435,304 435,305 435,305 435,305 435,380 435,380 435,380 435,381 435,381 434,381 434,382 434,382 433,382 433,382 432,382 411,382" stroke="#6d725c" /></g><g id="3C08" stroke="red"><polyline points="455,382 454,382 454,382 453,382 453,382 453,381 452,381 452,381 452,380 452,380 452,380 452,328 479,328 484,328 484,336 484,382" stroke="#6d725c" /></g><g id="3C09" stroke="red"><polyline points="411,281 413,281 413,220 435,220 435,283 435,284 435,284 435,284 435,285 434,285 434,285 434,286 433,286 433,286 432,286 411,286" stroke="#6d725c" /></g><g id="3C10" stroke="red"><polyline points="487,328 484,328 479,328 452,328 452,305 452,305 452,305 452,304 452,304 453,303 453,303 453,303 454,303 454,303 455,303 513,303 513,303 513,303 514,303 514,303 515,303 515,304 515,304 515,305 515,305 515,305 515,328" stroke="#6d725c" /></g><g id="3C12" stroke="red"><polyline points="452,260 452,219 452,219 452,219 452,218 452,218 453,217 453,217 453,217 454,217 454,217 455,217 484,217 484,260" stroke="#6d725c" /></g><g id="3C15" stroke="red"><polyline points="413,220 413,152 435,152 435,220" stroke="#6d725c" /></g><g id="3C16" stroke="red"><polyline points="452,181 452,140 484,140 484,181" stroke="#6d725c" /></g><g id="3C17" stroke="red"><polyline points="402,80 402,86 369,86 369,71 368,67 367,63 364,60 361,57 358,55 354,55 350,55 346,56 343,59 340,62 340,53 340,49 341,46 342,43 344,40 347,37 349,35 352,33 355,32 359,31 362,31 382,31 382,30 435,30 435,80" stroke="#6d725c" /></g><g id="3C18" stroke="red"><polyline points="452,140 452,102 452,102 452,101 452,101 452,100 453,100 453,100 453,100 454,99 454,99 455,99 484,99 484,140" stroke="#6d725c" /></g><g id="3C20" stroke="red"><polyline points="435,80 435,30 479,30 479,80" stroke="#6d725c" /></g><g id="3D05A" stroke="red"><polyline points="487,434 487,433 487,409 487,400 487,399 507,399 507,434" stroke="#6d725c" /></g><g id="3D05B" stroke="red"><polyline points="527,434 507,434 507,399 527,399 527,433" stroke="#6d725c" /></g><g id="3D06" stroke="red"><polyline points="527,399 565,399 565,399 565,399 566,399 566,400 567,400 567,400 567,401 567,401 567,401 567,402 567,430 567,431 567,431 567,432 567,432 567,432 566,433 566,433 565,433 565,433 565,433 527,433" stroke="#6d725c" /></g><g id="3D07" stroke="red"><polyline points="484,336 484,328 487,328 515,328 515,380 515,380 515,380 515,381 515,381 515,381 514,382 514,382 513,382 513,382 513,382 484,382" stroke="#6d725c" /></g><g id="3D08" stroke="red"><polyline points="567,345 567,380 567,380 567,380 567,381 567,381 567,381 566,382 566,382 565,382 565,382 565,382 535,382 534,382 534,382 534,382 533,382 533,381 533,381 532,381 532,380 532,380 532,380 532,345" stroke="#6d725c" /></g><g id="3D09" stroke="red"><polyline points="484,260 515,260 515,283 515,284 515,284 515,284 515,285 515,285 514,285 514,286 513,286 513,286 513,286 455,286 454,286 454,286 453,286 453,285 453,285 452,285 452,284 452,284 452,284 452,283 452,260" stroke="#6d725c" /></g><g id="3D10" stroke="red"><polyline points="532,345 532,305 532,305 532,305 532,304 533,304 533,303 533,303 534,303 534,303 534,303 535,303 565,303 565,303 565,303 566,303 566,303 567,303 567,304 567,304 567,305 567,305 567,305 567,345" stroke="#6d725c" /></g><g id="3D11" stroke="red"><polyline points="484,260 484,217 513,217 513,217 513,217 514,217 514,217 515,217 515,218 515,218 515,219 515,219 515,219 515,260" stroke="#6d725c" /></g><g id="3D12" stroke="red"><polyline points="555,224 555,255 560,255 560,283 560,284 560,284 560,284 559,285 559,285 559,285 558,286 558,286 558,286 557,286 535,286 534,286 534,286 534,286 533,285 533,285 533,285 532,284 532,284 532,284 532,283 532,224" stroke="#6d725c" /></g><g id="3D13" stroke="red"><polyline points="484,181 484,140 515,140 515,181" stroke="#6d725c" /></g><g id="3D13A" stroke="red"><polyline points="484,181 515,181 515,200 515,200 515,201 515,201 515,202 515,202 514,202 514,202 513,203 513,203 513,203 484,203 455,203 454,203 454,203 453,202 453,202 453,202 452,202 452,201 452,201 452,200 452,200 452,181" stroke="#6d725c" /></g><g id="3D14" stroke="red"><polyline points="532,224 532,161 555,161 555,224" stroke="#6d725c" /></g><g id="3D15" stroke="red"><polyline points="484,140 484,99 513,99 513,99 513,99 514,100 514,100 515,100 515,100 515,101 515,101 515,102 515,102 515,140" stroke="#6d725c" /></g><g id="3D16" stroke="red"><polyline points="532,161 532,102 532,102 532,101 532,101 533,100 533,100 533,100 534,100 534,99 534,99 535,99 561,99 561,129 555,129 555,161" stroke="#6d725c" /></g><g id="3D17" stroke="red"><polyline points="479,80 479,30 517,30 517,80" stroke="#6d725c" /></g><g id="3D18" stroke="red"><polyline points="517,30 554,30 554,77 554,77 554,78 554,78 554,79 554,79 553,79 553,80 552,80 552,80 552,80 517,80" stroke="#6d725c" /></g><g id="3E01" stroke="red"><polyline points="518,642 481,644 481,625 486,625 486,618 484,618 484,553 487,553 487,546 488,546 488,545 518,559" stroke="#6d725c" /></g><g id="3E03" stroke="red"><polyline points="518,642 518,559 559,579 559,640" stroke="#6d725c" /></g><g id="3E04" stroke="red"><polyline points="595,639 595,580 631,580 631,637" stroke="#6d725c" /></g><g id="3E05" stroke="red"><polyline points="559,640 559,580 595,580 595,639" stroke="#6d725c" /></g><g id="3E06" stroke="red"><polyline points="631,637 631,580 675,580 675,635" stroke="#6d725c" /></g><g id="3E07" stroke="red"><polyline points="506,514 567,514 567,557 567,558 567,558 567,559 567,559 566,560 566,560 565,560 564,560 564,560 563,560 551,554 551,554 506,532" stroke="#6d725c" /></g><g id="3E08" stroke="red"><polyline points="587,560 586,560 586,560 586,560 585,560 585,560 585,559 584,559 584,558 584,558 584,558 584,516 624,516 624,545 624,554 624,560" stroke="#6d725c" /></g><g id="3E09" stroke="red"><polyline points="506,514 506,477 551,477 559,477 565,477 565,477 565,478 566,478 566,478 567,478 567,479 567,479 567,479 567,480 567,480 567,514" stroke="#6d725c" /></g><g id="3E10" stroke="red"><polyline points="624,560 624,554 624,545 624,516 670,516 670,560" stroke="#6d725c" /></g><g id="3E12" stroke="red"><polyline points="584,516 584,474 584,474 584,473 584,473 585,473 585,472 585,472 586,472 586,472 586,471 587,471 624,471 624,472 624,482 624,516" stroke="#6d725c" /></g><g id="3E14" stroke="red"><polyline points="624,516 624,482 624,472 624,471 670,471 670,516" stroke="#6d725c" /></g><g id="3E16" stroke="red"><polyline points="659,427 676,444 676,444 677,444 677,445 677,445 677,445 677,445 677,445 677,446 677,446 677,446 677,452 677,452 677,453 677,453 677,454 676,454 676,454 676,454 675,455 675,455 674,455 587,455 586,455 586,455 586,454 585,454 585,454 585,454 584,453 584,453 584,452 584,452 584,427" stroke="#6d725c" /></g><g id="3F01" stroke="red"><polyline points="675,580 690,580 702,580 703,580 703,580 703,580 703,580 704,580 704,580 704,580 704,581 704,581 705,581 737,625 734,627 730,628 726,630 723,631 719,632 715,632 712,633 708,634 704,634 700,634 675,635" stroke="#6d725c" /></g><g id="3F02" stroke="red"><polyline points="785,519 785,549 785,553 784,557 784,560 783,564 783,568 782,571 781,575 780,578 778,582 777,585 773,581 737,550 737,550 737,550 736,549 736,549 736,549 736,549 736,548 736,548 736,548 736,548 736,533 736,519" stroke="#6d725c" /></g><g id="3F03" stroke="red"><polyline points="670,516 716,516 716,554 716,554 716,554 716,554 716,554 716,555 716,555 716,555 716,555 716,555 716,556 712,560 712,560 711,560 711,560 711,560 711,560 711,560 710,560 710,560 710,560 710,560 670,560" stroke="#6d725c" /></g><g id="3F04" stroke="red"><polyline points="736,519 736,473 785,473 785,519" stroke="#6d725c" /></g><g id="3F05" stroke="red"><polyline points="670,516 670,471 705,471 705,471 706,471 706,471 706,472 706,472 707,472 707,472 707,472 707,472 707,472 716,481 716,481 716,481 716,481 716,482 716,482 716,482 716,482 716,482 716,483 716,483 716,516" stroke="#6d725c" /></g><g id="3F06" stroke="red"><polyline points="736,473 699,439 772,439 774,439 774,447 785,447 785,473" stroke="#6d725c" /></g><g id="3F07" stroke="red"><polyline points="584,427 584,402 584,401 584,401 584,401 585,400 585,400 585,400 586,399 586,399 586,399 587,399 630,399 630,399 631,399 631,399 631,399 631,399 632,399 632,399 632,400 632,400 632,400 659,427" stroke="#6d725c" /></g><g id="3F08" stroke="red"><polyline points="677,373 702,373 702,401 699,401 699,412 673,412 673,412 673,412 673,412 673,412 672,412 672,412 672,412 672,412 672,412 671,412 653,393 652,393 652,392 652,392 652,392 652,392 652,392 652,391 652,391 652,391 652,391 652,373" stroke="#6d725c" /></g><g id="3F09" stroke="red"><polyline points="632,345 632,380 632,380 632,380 632,381 632,381 632,381 631,382 631,382 630,382 630,382 630,382 587,382 586,382 586,382 586,382 585,382 585,381 585,381 584,381 584,380 584,380 584,380 584,345" stroke="#6d725c" /></g><g id="3F10" stroke="red"><polyline points="677,373 652,373 652,373 652,334 652,334 652,333 652,333 652,332 653,332 653,332 653,332 654,331 654,331 655,331 702,331 702,373" stroke="#6d725c" /></g><g id="3F11" stroke="red"><polyline points="584,345 584,305 584,305 584,305 584,304 585,304 585,303 585,303 586,303 586,303 586,303 587,303 630,303 630,303 630,303 631,303 631,303 632,303 632,304 632,304 632,305 632,305 632,305 632,345" stroke="#6d725c" /></g><g id="3F13" stroke="red"><polyline points="633,206 633,283 632,284 632,284 632,284 632,285 632,285 631,285 631,286 631,286 630,286 630,286 602,286 602,286 601,286 601,286 601,285 600,285 600,285 600,284 600,284 600,284 599,283 599,233 599,206" stroke="#6d725c" /></g><g id="3F16" stroke="red"><polyline points="680,197 680,197 680,256 655,256 654,256 654,256 654,256 653,256 653,255 653,255 652,255 652,254 652,254 652,253 652,197" stroke="#6d725c" /></g><g id="3F17" stroke="red"><polyline points="599,206 599,140 633,140 633,206" stroke="#6d725c" /></g><g id="3F18a" stroke="red"><polyline points="652,158 652,119 680,119 680,158" stroke="#6d725c" /></g><g id="3F18b" stroke="red"><polyline points="652,197 652,158 680,158 680,197" stroke="#6d725c" /></g><g id="3F19" stroke="red"><polyline points="599,140 599,99 633,99 633,140" stroke="#6d725c" /></g><g id="3F20" stroke="red"><polyline points="652,119 652,80 680,80 680,119" stroke="#6d725c" /></g><g id="3F21" stroke="red"><polyline points="572,80 572,80 571,80 571,80 570,79 570,79 570,79 570,78 569,78 569,77 569,77 569,63 624,63 624,80" stroke="#6d725c" /></g><g id="3F22" stroke="red"><polyline points="652,80 624,80 624,63 630,63 630,61 629,61 629,35 631,35 631,30 638,30 645,32 651,34 657,37 663,41 667,46 672,51 675,57 678,63 679,70 679,71 680,72 680,73 680,74 680,75 680,76 680,77 680,78 680,79 680,80 680,80" stroke="#6d725c" /></g><g id="3Z01" stroke="red"><polyline points="190,286 190,336 128,336 128,325 124,325 124,311 118,311 118,328 87,328 35,328 23,328 23,170 25,157 28,144 33,132 40,121 48,111 57,102 68,94 79,88 92,83 104,81 105,81 106,81 107,81 107,80 108,80 109,80 109,81 110,81 111,81 112,81 112,52 337,52 337,161 337,173 190,173 190,264" stroke="#6d725c" /></g></svg>