<?xml version="1.0" encoding="utf-8" ?>
<svg baseProfile="full" height="530" version="1.1" width="800" xmlns="http://www.w3.org/2000/svg" xmlns:ev="http://www.w3.org/2001/xml-events" xmlns:xlink="http://www.w3.org/1999/xlink"><defs /><g id="5Y01" stroke="red"><polyline fill="#FFFFFF" points="675,13 676,13 676,48 680,48 680,45 704,45 704,48 706,48 706,61 743,61 743,89 781,89 781,95 786,95 786,195 783,195 783,196 704,196 704,200 706,200 706,230 706,259 707,259 707,257 781,257 781,259 786,259 786,266 786,266 786,267 792,267 792,327 786,327 786,328 786,328 786,335 781,335 781,337 709,337 704,337 704,341 706,341 706,376 707,376 707,374 782,374 782,376 786,376 786,492 88,492 88,482 91,482 91,438 7,438 7,376 11,376 11,374 91,374 91,370 88,370 88,335 84,335 84,337 12,337 12,335 7,335 7,280 22,280 22,253 7,253 7,233 86,233 89,233 89,230 88,230 88,177 88,170 84,170 84,173 48,173 48,153 88,153 88,125 108,125 108,115 162,115 162,120 164,120 164,124 330,124 330,96 331,96 331,91 335,91 335,105 367,105 367,91 418,91 418,95 423,95 423,93 457,93 457,91 455,91 455,13 462,13 462,11 482,11 482,15 487,15 487,47 569,47 569,17 571,17 571,11 675,11" stroke="#6d725c" /></g></svg>