<?xml version="1.0" encoding="utf-8" ?>
<svg baseProfile="full" height="505" version="1.1" width="800" xmlns="http://www.w3.org/2000/svg" xmlns:ev="http://www.w3.org/2001/xml-events" xmlns:xlink="http://www.w3.org/1999/xlink"><defs /><g id="3A01" stroke="red"><polyline fill="#FFFFFF" points="665,448 700,448 700,448 700,491 665,491" stroke="#6d725c" /></g><g id="3A04" stroke="red"><polyline fill="#FFFFFF" points="642,394 679,394 679,424 679,425 679,425 679,426 679,426 678,426 678,427 678,427 677,427 677,427 676,427 642,427" stroke="#6d725c" /></g><g id="3A06" stroke="red"><polyline fill="#FFFFFF" points="642,394 642,360 676,360 677,360 677,361 678,361 678,361 678,361 679,362 679,362 679,363 679,363 679,364 679,394" stroke="#6d725c" /></g><g id="3A07" stroke="red"><polyline fill="#FFFFFF" points="789,308 789,328 782,328 782,338 700,338 700,308" stroke="#6d725c" /></g><g id="3A08" stroke="red"><polyline fill="#FFFFFF" points="679,311 679,340 679,340 679,341 679,341 679,342 678,342 678,342 678,343 677,343 677,343 676,343 642,343 642,311" stroke="#6d725c" /></g><g id="3A09" stroke="red"><polyline fill="#FFFFFF" points="700,308 700,281 700,281 700,280 700,280 700,279 701,279 701,279 701,278 702,278 702,278 703,278 789,278 789,308" stroke="#6d725c" /></g><g id="3A10" stroke="red"><polyline fill="#FFFFFF" points="642,311 642,311 642,279 676,279 677,279 677,279 678,279 678,280 678,280 679,280 679,281 679,281 679,282 679,282 679,311" stroke="#6d725c" /></g><g id="3A12" stroke="red"><polyline fill="#FFFFFF" points="642,217 679,217 679,258 679,259 679,259 679,260 679,260 678,261 678,261 678,261 677,261 677,262 676,262 642,262" stroke="#6d725c" /></g><g id="3A14" stroke="red"><polyline fill="#FFFFFF" points="642,217 642,172 676,172 677,172 677,172 678,172 678,172 678,173 679,173 679,174 679,174 679,175 679,175 679,217" stroke="#6d725c" /></g><g id="3A15" stroke="red"><polyline fill="#FFFFFF" points="782,163 782,199 700,199 700,163" stroke="#6d725c" /></g><g id="3A16" stroke="red"><polyline fill="#FFFFFF" points="642,118 679,118 679,148 679,149 679,149 679,150 679,150 678,151 678,151 678,151 677,151 677,151 676,152 642,152" stroke="#6d725c" /></g><g id="3A17" stroke="red"><polyline fill="#FFFFFF" points="700,163 700,127 782,127 782,127 782,163" stroke="#6d725c" /></g><g id="3A18" stroke="red"><polyline fill="#FFFFFF" points="642,118 642,84 676,84 677,84 677,84 678,84 678,85 678,85 679,85 679,86 679,86 679,87 679,87 679,118" stroke="#6d725c" /></g><g id="3A19" stroke="red"><polyline fill="#FFFFFF" points="700,127 700,92 782,92 782,127" stroke="#6d725c" /></g><g id="3B01" stroke="red"><polyline fill="#FFFFFF" points="597,491 597,448 631,448 631,491" stroke="#6d725c" /></g><g id="3B02" stroke="red"><polyline fill="#FFFFFF" points="563,491 563,448 597,448 597,491" stroke="#6d725c" /></g><g id="3B03" stroke="red"><polyline fill="#FFFFFF" points="608,427 607,427 607,427 606,427 606,427 606,426 605,426 605,426 605,425 605,425 605,424 605,394 642,394 642,427" stroke="#6d725c" /></g><g id="3B05" stroke="red"><polyline fill="#FFFFFF" points="605,394 605,364 605,363 605,363 605,362 605,362 606,361 606,361 606,361 607,361 607,360 608,360 642,360 642,394" stroke="#6d725c" /></g><g id="3B07" stroke="red"><polyline fill="#FFFFFF" points="642,311 642,343 608,343 607,343 607,343 606,343 606,342 606,342 605,342 605,341 605,341 605,340 605,340 605,311" stroke="#6d725c" /></g><g id="3B08" stroke="red"><polyline fill="#FFFFFF" points="587,257 587,340 587,340 587,341 587,341 587,342 586,342 586,342 586,343 585,343 585,343 584,343 563,343 563,257" stroke="#6d725c" /></g><g id="3B09" stroke="red"><polyline fill="#FFFFFF" points="605,311 605,282 605,282 605,281 605,281 605,280 606,280 606,280 606,279 607,279 607,279 608,279 642,279 642,311" stroke="#6d725c" /></g><g id="3B11" stroke="red"><polyline fill="#FFFFFF" points="642,262 608,262 607,262 607,261 606,261 606,261 606,261 605,260 605,260 605,259 605,259 605,258 605,217 625,217 642,217 642,217" stroke="#6d725c" /></g><g id="3B12" stroke="red"><polyline fill="#FFFFFF" points="563,257 563,172 584,172 585,172 585,172 586,172 586,172 586,173 587,173 587,174 587,174 587,175 587,175 587,257" stroke="#6d725c" /></g><g id="3B13" stroke="red"><polyline fill="#FFFFFF" points="625,217 605,217 605,175 605,175 605,174 605,174 605,173 606,173 606,172 606,172 607,172 607,172 608,172 642,172 642,217" stroke="#6d725c" /></g><g id="3B15" stroke="red"><polyline fill="#FFFFFF" points="608,152 607,151 607,151 606,151 606,151 606,151 605,150 605,150 605,149 605,149 605,148 605,118 642,118 642,152" stroke="#6d725c" /></g><g id="3B16" stroke="red"><polyline fill="#FFFFFF" points="587,118 587,148 587,149 587,149 587,150 587,150 586,151 586,151 586,151 585,151 585,151 584,152 557,152 556,151 556,151 555,151 555,151 554,151 554,150 554,150 554,149 553,149 553,148 553,118" stroke="#6d725c" /></g><g id="3B17" stroke="red"><polyline fill="#FFFFFF" points="605,118 605,87 605,87 605,86 605,86 605,85 606,85 606,85 606,84 607,84 607,84 608,84 642,84 642,118" stroke="#6d725c" /></g><g id="3B18" stroke="red"><polyline fill="#FFFFFF" points="553,118 553,87 553,87 554,86 554,86 554,85 554,85 555,85 555,84 556,84 556,84 557,84 584,84 585,84 585,84 586,84 586,85 586,85 587,85 587,86 587,86 587,87 587,87 587,118" stroke="#6d725c" /></g><g id="3B20" stroke="red"><polyline fill="#FFFFFF" points="563,67 563,50 567,50 567,14 603,14 603,67" stroke="#6d725c" /></g><g id="3C01" stroke="red"><polyline fill="#FFFFFF" points="523,448 563,448 563,491 523,491" stroke="#6d725c" /></g><g id="3C02" stroke="red"><polyline fill="#FFFFFF" points="483,491 483,448 523,448 523,491" stroke="#6d725c" /></g><g id="3C03" stroke="red"><polyline fill="#FFFFFF" points="587,394 587,424 587,425 587,425 587,426 587,426 586,426 586,427 586,427 585,427 585,427 584,427 541,427 541,427 541,427 540,427 540,427 539,426 539,426 539,426 538,425 538,425 538,424 538,394" stroke="#6d725c" /></g><g id="3C04" stroke="red"><polyline fill="#FFFFFF" points="521,394 521,424 521,425 521,425 521,426 520,426 520,426 520,427 519,427 519,427 518,427 518,427 475,427 475,427 474,427 474,427 473,427 473,426 473,426 472,426 472,425 472,425 472,424 472,394" stroke="#6d725c" /></g><g id="3C05" stroke="red"><polyline fill="#FFFFFF" points="538,394 538,364 538,363 538,363 539,362 539,362 539,361 540,361 540,361 541,361 541,360 541,360 584,360 585,360 585,361 586,361 586,361 586,361 587,362 587,362 587,363 587,363 587,364 587,394" stroke="#6d725c" /></g><g id="3C06" stroke="red"><polyline fill="#FFFFFF" points="472,394 472,364 472,363 472,363 472,362 473,362 473,361 473,361 474,361 474,361 475,360 475,360 518,360 518,360 519,361 519,361 520,361 520,361 520,362 521,362 521,363 521,363 521,364 521,394" stroke="#6d725c" /></g><g id="3C08" stroke="red"><polyline fill="#FFFFFF" points="507,108 529,91 529,90 530,90 530,90 530,90 530,90 530,90 531,90 531,90 531,90 531,90 533,90 533,90 534,90 534,90 535,90 535,91 535,91 536,92 536,92 536,93 536,93 536,148 536,149 536,149 536,150 535,150 535,151 535,151 534,151 534,151 533,151 533,152 507,152" stroke="#6d725c" /></g><g id="3C10" stroke="red"><polyline fill="#FFFFFF" points="490,50 546,50 546,67 531,67 490,99" stroke="#6d725c" /></g><g id="3D01" stroke="red"><polyline fill="#FFFFFF" points="444,491 444,448 483,448 483,491" stroke="#6d725c" /></g><g id="3D02" stroke="red"><polyline fill="#FFFFFF" points="405,491 405,448 444,448 444,491" stroke="#6d725c" /></g><g id="3D04" stroke="red"><polyline fill="#FFFFFF" points="403,427 403,394 454,394 454,424 454,425 454,425 454,426 454,426 454,426 453,427 453,427 452,427 452,427 451,427 403,427" stroke="#6d725c" /></g><g id="3D06" stroke="red"><polyline fill="#FFFFFF" points="403,394 403,360 451,360 452,360 452,361 453,361 453,361 454,361 454,362 454,362 454,363 454,363 454,364 454,394" stroke="#6d725c" /></g><g id="3D08" stroke="red"><polyline fill="#FFFFFF" points="403,311 454,311 454,340 454,340 454,341 454,341 454,342 454,342 453,342 453,343 452,343 452,343 451,343 403,343" stroke="#6d725c" /></g><g id="3D09" stroke="red"><polyline fill="#FFFFFF" points="475,343 475,343 474,343 474,343 473,342 473,342 473,342 472,341 472,341 472,340 472,340 472,300 526,300 526,340 526,340 525,341 525,341 525,342 525,342 524,342 524,343 523,343 523,343 522,343" stroke="#6d725c" /></g><g id="3D10" stroke="red"><polyline fill="#FFFFFF" points="403,311 403,279 451,279 452,280 452,280 453,280 453,280 454,280 454,281 454,281 454,282 454,282 454,283 454,311" stroke="#6d725c" /></g><g id="3D11" stroke="red"><polyline fill="#FFFFFF" points="526,257 526,300 472,300 472,257" stroke="#6d725c" /></g><g id="3D12" stroke="red"><polyline fill="#FFFFFF" points="403,217 454,217 454,259 454,259 454,260 454,260 454,261 454,261 453,261 453,262 452,262 452,262 451,262 403,262" stroke="#6d725c" /></g><g id="3D13" stroke="red"><polyline fill="#FFFFFF" points="472,257 472,215 526,215 526,257" stroke="#6d725c" /></g><g id="3D15" stroke="red"><polyline fill="#FFFFFF" points="472,215 472,175 472,175 472,174 472,174 473,173 473,173 473,172 474,172 474,172 475,172 475,172 522,172 523,172 523,172 524,172 524,172 525,173 525,173 525,174 525,174 526,175 526,175 526,215" stroke="#6d725c" /></g><g id="3D16" stroke="red"><polyline fill="#FFFFFF" points="403,217 403,172 451,172 452,172 452,172 453,172 453,172 454,173 454,173 454,174 454,174 454,175 454,175 454,217" stroke="#6d725c" /></g><g id="3D17" stroke="red"><polyline fill="#FFFFFF" points="475,152 475,151 474,151 474,151 473,151 473,151 473,150 472,150 472,149 472,149 472,148 472,137 472,136 472,136 472,136 472,136 472,135 472,135 473,135 473,135 473,134 473,134 507,108 507,152" stroke="#6d725c" /></g><g id="3D18" stroke="red"><polyline fill="#FFFFFF" points="422,152 422,113 456,113 456,124 456,124 456,125 456,125 456,125 456,125 455,126 455,126 455,126 455,126 455,126 422,152" stroke="#6d725c" /></g><g id="3D19" stroke="red"><polyline fill="#FFFFFF" points="490,99 454,99 454,14 486,14 486,50 490,50" stroke="#6d725c" /></g><g id="3E01" stroke="red"><polyline fill="#FFFFFF" points="367,491 367,448 405,448 405,491" stroke="#6d725c" /></g><g id="3E02" stroke="red"><polyline fill="#FFFFFF" points="328,491 328,482 328,448 367,448 367,491" stroke="#6d725c" /></g><g id="3E03" stroke="red"><polyline fill="#FFFFFF" points="352,427 351,427 351,427 351,427 350,427 350,426 349,426 349,426 349,425 349,425 349,424 349,394 403,394 403,427 403,427" stroke="#6d725c" /></g><g id="3E05" stroke="red"><polyline fill="#FFFFFF" points="349,394 349,364 349,363 349,363 349,362 349,362 350,361 350,361 351,361 351,361 351,360 352,360 403,360 403,394" stroke="#6d725c" /></g><g id="3E06" stroke="red"><polyline fill="#FFFFFF" points="288,300 331,300 331,300 331,343 291,343 291,343 291,343 290,343 290,342 289,342 289,342 289,341 288,341 288,340 288,340 288,300" stroke="#6d725c" /></g><g id="3E07" stroke="red"><polyline fill="#FFFFFF" points="352,343 351,343 351,343 351,343 350,342 350,342 349,342 349,341 349,341 349,340 349,340 349,311 403,311 403,343" stroke="#6d725c" /></g><g id="3E08" stroke="red"><polyline fill="#FFFFFF" points="288,300 288,257 295,257 324,257 331,257 331,300" stroke="#6d725c" /></g><g id="3E09" stroke="red"><polyline fill="#FFFFFF" points="349,311 349,283 349,282 349,282 349,281 349,281 350,280 350,280 351,280 351,280 351,280 352,279 403,279 403,311" stroke="#6d725c" /></g><g id="3E10" stroke="red"><polyline fill="#FFFFFF" points="324,257 295,257 288,257 288,215 331,215 331,215 331,257" stroke="#6d725c" /></g><g id="3E11" stroke="red"><polyline fill="#FFFFFF" points="352,262 351,262 351,262 351,262 350,261 350,261 349,261 349,260 349,260 349,259 349,259 349,217 403,217 403,262" stroke="#6d725c" /></g><g id="3E12" stroke="red"><polyline fill="#FFFFFF" points="288,215 288,215 288,175 288,175 288,174 289,174 289,173 289,173 290,172 290,172 291,172 291,172 291,172 331,172 331,215" stroke="#6d725c" /></g><g id="3E13" stroke="red"><polyline fill="#FFFFFF" points="349,217 349,175 349,175 349,174 349,174 349,173 350,173 350,172 351,172 351,172 351,172 352,172 403,172 403,217" stroke="#6d725c" /></g><g id="3E15" stroke="red"><polyline fill="#FFFFFF" points="324,152 324,127 330,127 330,94 335,94 335,108 367,108 367,94 379,94 379,152" stroke="#6d725c" /></g><g id="3E16" stroke="red"><polyline fill="#FFFFFF" points="247,127 247,127 307,127 307,152 247,152 247,152" stroke="#6d725c" /></g><g id="3E17" stroke="red"><polyline fill="#FFFFFF" points="422,152 422,152 379,152 379,94 422,94 422,113" stroke="#6d725c" /></g><g id="3F01" stroke="red"><polyline fill="#FFFFFF" points="288,482 288,448 328,448 328,482" stroke="#6d725c" /></g><g id="3F02" stroke="red"><polyline fill="#FFFFFF" points="247,482 247,448 288,448 288,482" stroke="#6d725c" /></g><g id="3F03" stroke="red"><polyline fill="#FFFFFF" points="331,394 331,424 331,425 331,425 331,426 331,426 330,426 330,427 330,427 329,427 329,427 328,427 286,427 286,427 285,427 285,427 284,427 284,426 284,426 283,426 283,425 283,425 283,424 283,394" stroke="#6d725c" /></g><g id="3F04" stroke="red"><polyline fill="#FFFFFF" points="266,394 266,424 266,425 266,425 265,426 265,426 265,426 264,427 264,427 264,427 263,427 263,427 221,427 220,427 220,427 219,427 219,427 218,426 218,426 218,426 218,425 218,425 217,424 217,394" stroke="#6d725c" /></g><g id="3F05" stroke="red"><polyline fill="#FFFFFF" points="283,394 283,364 283,363 283,363 283,362 284,362 284,361 284,361 285,361 285,361 286,360 286,360 328,360 329,360 329,361 330,361 330,361 330,361 331,362 331,362 331,363 331,363 331,364 331,394" stroke="#6d725c" /></g><g id="3F06" stroke="red"><polyline fill="#FFFFFF" points="217,394 217,364 218,363 218,363 218,362 218,362 218,361 219,361 219,361 220,361 220,360 221,360 263,360 263,360 264,361 264,361 264,361 265,361 265,362 265,362 266,363 266,363 266,364 266,394" stroke="#6d725c" /></g><g id="3G01" stroke="red"><polyline fill="#FFFFFF" points="247,491 209,491 209,448 247,448 247,482" stroke="#6d725c" /></g><g id="3G04" stroke="red"><polyline fill="#FFFFFF" points="157,394 200,394 200,424 200,425 200,425 200,426 199,426 199,426 199,427 198,427 198,427 197,427 197,427 157,427" stroke="#6d725c" /></g><g id="3G06" stroke="red"><polyline fill="#FFFFFF" points="157,394 157,360 197,360 197,360 198,361 198,361 199,361 199,361 199,362 200,362 200,363 200,363 200,364 200,394" stroke="#6d725c" /></g><g id="3G08" stroke="red"><polyline fill="#FFFFFF" points="157,311 200,311 200,340 200,340 200,341 200,341 199,342 199,342 199,342 198,343 198,343 197,343 197,343 157,343" stroke="#6d725c" /></g><g id="3G09" stroke="red"><polyline fill="#FFFFFF" points="251,300 251,343 221,343 220,343 220,343 219,343 219,342 218,342 218,342 218,341 218,341 218,340 217,340 217,300" stroke="#6d725c" /></g><g id="3G10" stroke="red"><polyline fill="#FFFFFF" points="157,311 157,279 197,279 197,279 198,279 198,279 199,280 199,280 199,280 200,281 200,281 200,282 200,282 200,311 200,311" stroke="#6d725c" /></g><g id="3G11" stroke="red"><polyline fill="#FFFFFF" points="217,300 217,257 244,257 251,257 251,300" stroke="#6d725c" /></g><g id="3G12" stroke="red"><polyline fill="#FFFFFF" points="157,217 200,217 200,258 200,259 200,259 200,260 199,260 199,261 199,261 198,261 198,261 197,262 197,262 157,262" stroke="#6d725c" /></g><g id="3G13" stroke="red"><polyline fill="#FFFFFF" points="244,257 217,257 217,215 251,215 251,257" stroke="#6d725c" /></g><g id="3G15" stroke="red"><polyline fill="#FFFFFF" points="217,215 217,175 218,175 218,174 218,174 218,173 218,173 219,172 219,172 220,172 220,172 221,172 251,172 251,215" stroke="#6d725c" /></g><g id="3G16" stroke="red"><polyline fill="#FFFFFF" points="157,217 157,172 197,172 197,172 198,172 198,172 199,172 199,173 199,173 200,174 200,174 200,175 200,175 200,217" stroke="#6d725c" /></g><g id="3G17" stroke="red"><polyline fill="#FFFFFF" points="186,152 186,127 247,127 247,152" stroke="#6d725c" /></g><g id="3H02" stroke="red"><polyline fill="#FFFFFF" points="90,491 90,482 93,482 93,448 132,448 132,491" stroke="#6d725c" /></g><g id="3H05" stroke="red"><polyline fill="#FFFFFF" points="117,427 116,427 116,427 115,427 115,427 115,426 114,426 114,426 114,425 114,425 114,424 114,394 157,394 157,427" stroke="#6d725c" /></g><g id="3H06" stroke="red"><polyline fill="#FFFFFF" points="10,407 10,375 93,375 93,407" stroke="#6d725c" /></g><g id="3H07" stroke="red"><polyline fill="#FFFFFF" points="114,394 114,364 114,363 114,363 114,362 114,362 115,361 115,361 115,361 116,361 116,360 117,360 157,360 157,394" stroke="#6d725c" /></g><g id="3H09" stroke="red"><polyline fill="#FFFFFF" points="117,343 116,343 116,343 115,343 115,342 115,342 114,342 114,341 114,341 114,340 114,340 114,311 157,311 157,343" stroke="#6d725c" /></g><g id="3H10" stroke="red"><polyline fill="#FFFFFF" points="93,338 86,338 85,338 10,338 10,300 93,300" stroke="#6d725c" /></g><g id="3H11" stroke="red"><polyline fill="#FFFFFF" points="114,311 114,282 114,282 114,281 114,281 114,280 115,280 115,280 115,279 116,279 116,279 117,279 157,279 157,311" stroke="#6d725c" /></g><g id="3H12" stroke="red"><polyline fill="#FFFFFF" points="27,300 27,262 93,262 93,300" stroke="#6d725c" /></g><g id="3H13" stroke="red"><polyline fill="#FFFFFF" points="117,262 116,262 116,261 115,261 115,261 115,261 114,260 114,260 114,259 114,259 114,258 114,217 157,217 157,262" stroke="#6d725c" /></g><g id="3H15" stroke="red"><polyline fill="#FFFFFF" points="114,217 114,175 114,175 114,174 114,174 114,173 115,173 115,172 115,172 116,172 116,172 117,172 157,172 157,217" stroke="#6d725c" /></g><g id="3H18" stroke="red"><polyline fill="#FFFFFF" points="166,127 169,127 169,152 90,152 90,128 110,128 110,118 166,118" stroke="#6d725c" /></g><g id="ZBD3A02" stroke="red"><polyline fill="#FFFFFF" points="631,491 631,448 665,448 665,491" stroke="#6d725c" /></g><g id="ZBD3A03" stroke="red"><polyline fill="#FFFFFF" points="700,448 700,411 729,411 729,448 700,448" stroke="#6d725c" /></g><g id="ZBD3A05" stroke="red"><polyline fill="#FFFFFF" points="700,411 700,387 729,387 729,411" stroke="#6d725c" /></g><g id="ZBD3A20" stroke="red"><polyline fill="#FFFFFF" points="638,14 674,14 674,51 674,67 638,67" stroke="#6d725c" /></g><g id="ZBD3B19" stroke="red"><polyline fill="#FFFFFF" points="603,67 603,14 638,14 638,67" stroke="#6d725c" /></g><g id="ZBD3G02" stroke="red"><polyline fill="#FFFFFF" points="170,491 170,448 209,448 209,491" stroke="#6d725c" /></g><g id="ZBD3H01" stroke="red"><polyline fill="#FFFFFF" points="132,491 132,448 170,448 170,491" stroke="#6d725c" /></g><g id="ZBD3H04" stroke="red"><polyline fill="#FFFFFF" points="93,407 93,438 10,438 10,407" stroke="#6d725c" /></g></svg>