<?xml version="1.0" encoding="utf-8" ?>
<svg baseProfile="full" height="525" version="1.1" width="800" xmlns="http://www.w3.org/2000/svg" xmlns:ev="http://www.w3.org/2001/xml-events" xmlns:xlink="http://www.w3.org/1999/xlink"><defs /><g id="1A01" stroke="red"><polyline points="761,426 776,426 776,525 695,525 695,411 761,411" stroke="#6d725c" /></g><g id="1A02" stroke="red"><polyline points="639,467 667,467 667,525 639,525" stroke="#6d725c" /></g><g id="1A04" stroke="red"><polyline points="639,467 639,407 653,407 655,407 657,408 659,409 661,410 663,411 664,413 665,415 666,417 667,419 667,421 667,467" stroke="#6d725c" /></g><g id="1A05" stroke="red"><polyline points="695,375 695,325 748,325 748,375" stroke="#6d725c" /></g><g id="1A06" stroke="red"><polyline points="643,327 675,327 675,381 675,382 675,382 675,383 675,383 675,383 674,384 674,384 673,384 673,384 673,384 643,384" stroke="#6d725c" /></g><g id="1A08" stroke="red"><polyline points="643,327 643,270 675,270 675,327" stroke="#6d725c" /></g><g id="1A09" stroke="red"><polyline points="776,186 776,238 695,238 695,186" stroke="#6d725c" /></g><g id="1A10" stroke="red"><polyline points="643,270 643,212 673,212 673,212 673,212 674,213 674,213 675,213 675,213 675,214 675,214 675,215 675,215 675,270" stroke="#6d725c" /></g><g id="1A11" stroke="red"><polyline points="695,186 695,134 776,134 776,186" stroke="#6d725c" /></g><g id="1A12" stroke="red"><polyline points="639,159 676,159 676,189 676,190 676,190 676,191 675,191 675,191 675,192 674,192 674,192 673,192 673,192 639,192" stroke="#6d725c" /></g><g id="1A14" stroke="red"><polyline points="639,159 639,127 673,127 673,127 674,127 674,127 675,127 675,127 675,128 676,128 676,129 676,129 676,130 676,159" stroke="#6d725c" /></g><g id="1A16" stroke="red"><polyline points="635,58 670,58 670,104 670,105 670,106 670,106 669,107 669,108 668,108 667,109 666,109 665,109 665,109 635,109" stroke="#6d725c" /></g><g id="1B01" stroke="red"><polyline points="639,525 565,525 565,407 639,407 639,467" stroke="#6d725c" /></g><g id="1B02" stroke="red"><polyline points="492,525 492,462 492,407 565,407 565,525" stroke="#6d725c" /></g><g id="1B05" stroke="red"><polyline points="610,384 610,384 609,384 609,384 608,384 608,383 608,383 608,383 607,382 607,382 607,381 607,327 643,327 643,384" stroke="#6d725c" /></g><g id="1B06" stroke="red"><polyline points="590,338 590,381 590,382 590,382 590,383 590,383 589,383 589,384 589,384 588,384 588,384 587,384 547,384 547,384 546,384 546,384 546,384 545,383 545,383 545,383 545,382 544,382 544,381 544,338" stroke="#6d725c" /></g><g id="1B07" stroke="red"><polyline points="607,327 607,270 643,270 643,327" stroke="#6d725c" /></g><g id="1B08" stroke="red"><polyline points="544,338 544,292 562,292 590,292 590,338" stroke="#6d725c" /></g><g id="1B09" stroke="red"><polyline points="607,270 607,215 607,215 607,214 608,214 608,213 608,213 608,213 609,213 609,212 610,212 610,212 643,212 643,270" stroke="#6d725c" /></g><g id="1B10" stroke="red"><polyline points="562,292 562,212 587,212 588,212 588,212 589,213 589,213 589,213 590,213 590,214 590,214 590,215 590,215 590,292" stroke="#6d725c" /></g><g id="1B11" stroke="red"><polyline points="606,192 606,192 605,192 605,192 604,192 604,191 604,191 603,191 603,190 603,190 603,189 603,159 639,159 639,192" stroke="#6d725c" /></g><g id="1B12" stroke="red"><polyline points="586,159 586,189 586,190 586,190 586,191 585,191 585,191 585,192 584,192 584,192 583,192 583,192 556,192 555,192 555,192 554,192 554,192 554,191 553,191 553,191 553,190 553,190 553,189 553,159" stroke="#6d725c" /></g><g id="1B13" stroke="red"><polyline points="603,159 603,130 603,129 603,129 603,128 604,128 604,127 604,127 605,127 605,127 606,127 606,127 639,127 639,159" stroke="#6d725c" /></g><g id="1B14" stroke="red"><polyline points="553,159 553,130 553,129 553,129 553,128 553,128 554,127 554,127 554,127 555,127 555,127 556,127 583,127 583,127 584,127 584,127 585,127 585,127 585,128 586,128 586,129 586,129 586,130 586,159" stroke="#6d725c" /></g><g id="1B15" stroke="red"><polyline points="601,109 601,58 635,58 635,109" stroke="#6d725c" /></g><g id="1B16" stroke="red"><polyline points="566,109 566,93 566,93 566,58 601,58 601,109" stroke="#6d725c" /></g><g id="1C02" stroke="red"><polyline points="448,525 448,462 492,462 492,525" stroke="#6d725c" /></g><g id="1C03" stroke="red"><polyline points="525,342 525,381 525,382 525,382 525,383 525,383 524,383 524,384 523,384 523,384 523,384 522,384 483,384 483,342" stroke="#6d725c" /></g><g id="1C04" stroke="red"><polyline points="448,462 448,421 448,419 448,417 449,415 450,413 452,411 454,410 455,409 457,408 460,407 462,407 492,407 492,462" stroke="#6d725c" /></g><g id="1C05" stroke="red"><polyline points="483,342 483,300 525,300 525,342" stroke="#6d725c" /></g><g id="1C07" stroke="red"><polyline points="483,300 483,256 542,256 542,300 525,300" stroke="#6d725c" /></g><g id="1C09" stroke="red"><polyline points="483,256 483,212 542,212 542,256" stroke="#6d725c" /></g><g id="1C12" stroke="red"><polyline points="476,192 476,192 475,192 475,192 474,192 474,191 474,191 473,191 473,190 473,190 473,189 473,178 473,178 473,177 473,177 473,177 473,177 474,176 474,176 474,176 474,176 474,175 507,150 507,192" stroke="#6d725c" /></g><g id="1C14" stroke="red"><polyline points="507,150 529,133 529,133 529,133 530,132 530,132 530,132 530,132 530,132 531,132 531,132 531,132 533,132 533,132 534,132 534,132 534,133 535,133 535,133 535,134 536,134 536,135 536,135 536,189 536,190 536,190 535,191 535,191 535,191 534,192 534,192 534,192 533,192 533,192 507,192" stroke="#6d725c" /></g><g id="1C16" stroke="red"><polyline points="531,109 489,142 486,144 486,138 488,138 488,93 566,93 566,109" stroke="#6d725c" /></g><g id="1D02" stroke="red"><polyline points="399,467 399,467 398,467 398,467 398,466 397,466 397,466 397,466 397,465 397,465 397,464 397,444 397,444 397,443 397,443 397,443 397,442 398,442 398,442 398,442 399,442 399,442 421,442 421,442 421,442 422,442 422,442 422,442 423,443 423,443 423,443 423,444 423,444 423,464 423,465 423,465 423,466 423,466 422,466 422,466 422,467 421,467 421,467 421,467" stroke="#6d725c" /></g><g id="1D03" stroke="red"><polyline points="410,351 466,351 466,381 466,382 466,382 466,383 465,383 465,383 465,384 464,384 464,384 463,384 463,384 410,384" stroke="#6d725c" /></g><g id="1D05" stroke="red"><polyline points="410,351 410,317 463,317 463,318 464,318 464,318 465,318 465,318 465,319 466,319 466,320 466,320 466,321 466,351" stroke="#6d725c" /></g><g id="1D07A" stroke="red"><polyline points="410,256 466,256 466,297 466,298 466,298 466,299 465,299 465,300 465,300 464,300 464,300 463,300 463,300 410,300" stroke="#6d725c" /></g><g id="1D07B" stroke="red"><polyline points="410,256 410,212 463,212 463,212 464,212 464,213 465,213 465,213 465,214 466,214 466,214 466,215 466,215 466,256" stroke="#6d725c" /></g><g id="1D09" stroke="red"><polyline points="425,192 425,138 486,138 486,144" stroke="#6d725c" /></g><g id="1D10" stroke="red"><polyline points="425,138 425,138 425,192 383,192 383,136 425,136 425,138" stroke="#6d725c" /></g><g id="1E01" stroke="red"><polyline points="328,466 372,466 372,525 328,525" stroke="#6d725c" /></g><g id="1E02" stroke="red"><polyline points="328,525 254,525 254,407 328,407 328,466" stroke="#6d725c" /></g><g id="1E03" stroke="red"><polyline points="328,466 328,407 358,407 360,407 362,408 364,409 366,410 368,411 369,413 370,415 371,417 372,419 372,421 372,466" stroke="#6d725c" /></g><g id="1E04" stroke="red"><polyline points="336,342 336,384 297,384 297,384 296,384 296,384 295,384 295,383 295,383 294,383 294,382 294,382 294,381 294,342" stroke="#6d725c" /></g><g id="1E05" stroke="red"><polyline points="356,384 356,384 355,384 355,384 354,384 354,383 354,383 354,383 353,382 353,382 353,381 353,351 410,351 410,384" stroke="#6d725c" /></g><g id="1E06" stroke="red"><polyline points="294,342 294,300 336,300 336,342" stroke="#6d725c" /></g><g id="1E07" stroke="red"><polyline points="353,351 353,321 353,320 353,320 354,319 354,319 354,318 354,318 355,318 355,318 356,318 356,317 410,317 410,351" stroke="#6d725c" /></g><g id="1E08" stroke="red"><polyline points="294,300 277,300 277,256 336,256 336,300" stroke="#6d725c" /></g><g id="1E09A" stroke="red"><polyline points="356,300 356,300 355,300 355,300 354,300 354,300 354,299 354,299 353,298 353,298 353,297 353,256 410,256 410,300" stroke="#6d725c" /></g><g id="1E09B" stroke="red"><polyline points="353,256 353,215 353,215 353,214 354,214 354,214 354,213 354,213 355,213 355,212 356,212 356,212 410,212 410,256" stroke="#6d725c" /></g><g id="1E10" stroke="red"><polyline points="277,256 277,212 336,212 336,256" stroke="#6d725c" /></g><g id="1E11" stroke="red"><polyline points="334,192 334,192 334,168 334,136 339,136 339,150 371,150 371,136 383,136 383,192" stroke="#6d725c" /></g><g id="1E12" stroke="red"><polyline points="217,192 217,168 334,168 334,192" stroke="#6d725c" /></g><g id="1F01" stroke="red"><polyline points="184,525 184,520 177,520 177,510 173,510 173,465 173,407 254,407 254,525" stroke="#6d725c" /></g><g id="1F05" stroke="red"><polyline points="275,342 275,381 275,382 275,382 275,383 274,383 274,383 274,384 273,384 273,384 272,384 272,384 228,384 228,384 227,384 227,384 226,384 226,383 226,383 226,383 225,382 225,382 225,381 225,342" stroke="#6d725c" /></g><g id="1F06" stroke="red"><polyline points="166,327 208,327 208,381 208,382 208,382 208,383 208,383 207,383 207,384 207,384 206,384 206,384 205,384 166,384" stroke="#6d725c" /></g><g id="1F07" stroke="red"><polyline points="225,342 225,300 257,300 275,300 275,342" stroke="#6d725c" /></g><g id="1F08" stroke="red"><polyline points="166,327 166,270 208,270 208,327" stroke="#6d725c" /></g><g id="1F09" stroke="red"><polyline points="225,300 225,256 257,256 257,300" stroke="#6d725c" /></g><g id="1F10" stroke="red"><polyline points="166,270 166,212 205,212 206,212 206,212 207,213 207,213 207,213 208,213 208,214 208,214 208,215 208,215 208,270" stroke="#6d725c" /></g><g id="1F11" stroke="red"><polyline points="225,256 225,215 225,215 225,214 226,214 226,213 226,213 226,213 227,213 227,212 228,212 228,212 257,212 257,256" stroke="#6d725c" /></g><g id="1F12" stroke="red"><polyline points="176,192 176,168 217,168 217,192" stroke="#6d725c" /></g><g id="1G01" stroke="red"><polyline points="168,510 168,525 131,525 131,465 173,465 173,510" stroke="#6d725c" /></g><g id="1G02" stroke="red"><polyline points="103,464 103,525 22,525 22,464" stroke="#6d725c" /></g><g id="1G03" stroke="red"><polyline points="131,465 131,421 132,419 132,417 133,415 134,413 136,411 137,410 139,409 141,408 143,407 146,407 173,407 173,465" stroke="#6d725c" /></g><g id="1G06" stroke="red"><polyline points="22,464 22,426 38,426 38,428 103,428 103,464" stroke="#6d725c" /></g><g id="1G07" stroke="red"><polyline points="126,384 125,384 125,384 124,384 124,384 124,383 123,383 123,383 123,382 123,382 123,381 123,327 166,327 166,384" stroke="#6d725c" /></g><g id="1G08" stroke="red"><polyline points="103,340 103,375 50,375 50,340" stroke="#6d725c" /></g><g id="1G09" stroke="red"><polyline points="123,327 123,270 166,270 166,327" stroke="#6d725c" /></g><g id="1G10" stroke="red"><polyline points="50,340 50,306 103,306 103,340" stroke="#6d725c" /></g><g id="1G11" stroke="red"><polyline points="123,270 123,215 123,215 123,214 123,214 123,213 124,213 124,213 124,213 125,212 125,212 126,212 166,212 166,270" stroke="#6d725c" /></g><g id="1G13" stroke="red"><polyline points="176,192 176,192 100,192 100,160 176,160 176,168" stroke="#6d725c" /></g></svg>