<?xml version="1.0" encoding="utf-8" ?>
<svg baseProfile="full" height="504" version="1.1" width="800" xmlns="http://www.w3.org/2000/svg" xmlns:ev="http://www.w3.org/2001/xml-events" xmlns:xlink="http://www.w3.org/1999/xlink"><defs /><g id="2A01" stroke="red"><polyline points="644,503 644,462 686,462 686,503" stroke="#6d725c" /></g><g id="2A02" stroke="red"><polyline points="605,503 605,462 644,462 644,503" stroke="#6d725c" /></g><g id="2A03" stroke="red"><polyline points="632,411 666,411 666,440 666,440 666,441 666,441 666,442 665,442 665,442 665,442 664,443 664,443 663,443 632,443" stroke="#6d725c" /></g><g id="2A04" stroke="red"><polyline points="632,332 668,332 668,360 668,360 668,361 668,361 667,361 667,362 667,362 667,362 666,362 666,362 665,363 632,363" stroke="#6d725c" /></g><g id="2A05" stroke="red"><polyline points="632,411 632,379 663,379 664,379 664,379 665,379 665,380 665,380 666,380 666,381 666,381 666,381 666,382 666,411" stroke="#6d725c" /></g><g id="2A06" stroke="red"><polyline points="632,332 632,302 665,302 666,302 666,302 667,302 667,302 667,303 667,303 668,303 668,304 668,304 668,304 668,332" stroke="#6d725c" /></g><g id="2A07A" stroke="red"><polyline points="686,462 686,431 766,431 766,503 686,503" stroke="#6d725c" /></g><g id="2A07B" stroke="red"><polyline points="686,431 686,393 766,393 766,431" stroke="#6d725c" /></g><g id="2A08" stroke="red"><polyline points="632,257 668,257 668,282 668,283 668,283 668,284 667,284 667,284 667,285 667,285 666,285 666,285 665,285 632,285" stroke="#6d725c" /></g><g id="2A09" stroke="red"><polyline points="687,358 687,318 687,317 688,317 688,317 688,316 688,316 689,316 689,315 689,315 690,315 690,315 766,315 766,358" stroke="#6d725c" /></g><g id="2A10" stroke="red"><polyline points="632,257 632,228 668,228 668,257" stroke="#6d725c" /></g><g id="2A12" stroke="red"><polyline points="632,228 632,200 665,200 666,200 666,200 667,200 667,200 667,201 667,201 668,201 668,202 668,202 668,203 668,228" stroke="#6d725c" /></g><g id="2A14" stroke="red"><polyline points="630,160 663,160 663,181 630,181" stroke="#6d725c" /></g><g id="2A15" stroke="red"><polyline points="630,123 663,123 663,144 630,144" stroke="#6d725c" /></g><g id="2A16" stroke="red"><polyline points="628,50 663,50 663,106 628,106" stroke="#6d725c" /></g><g id="2A18" stroke="red"><polyline points="687,225 687,175 732,175 732,225" stroke="#6d725c" /></g><g id="2A19" stroke="red"><polyline points="687,175 687,124 732,124 732,175" stroke="#6d725c" /></g><g id="2B01" stroke="red"><polyline points="600,443 599,443 599,443 599,442 598,442 598,442 598,442 597,441 597,441 597,440 597,440 597,411 632,411 632,443" stroke="#6d725c" /></g><g id="2B02" stroke="red"><polyline points="597,411 597,382 597,381 597,381 597,381 598,380 598,380 598,380 599,379 599,379 599,379 600,379 632,379 632,411" stroke="#6d725c" /></g><g id="2B03" stroke="red"><polyline points="600,363 599,362 599,362 599,362 598,362 598,362 598,361 597,361 597,361 597,360 597,360 597,332 632,332 632,363" stroke="#6d725c" /></g><g id="2B04" stroke="red"><polyline points="567,503 567,462 605,462 605,503" stroke="#6d725c" /></g><g id="2B05" stroke="red"><polyline points="597,332 597,304 597,304 597,304 597,303 598,303 598,303 598,302 599,302 599,302 599,302 600,302 632,302 632,332" stroke="#6d725c" /></g><g id="2B06" stroke="red"><polyline points="581,308 581,360 581,360 580,361 580,361 580,361 580,362 579,362 579,362 579,362 578,362 578,363 558,363 558,308" stroke="#6d725c" /></g><g id="2B07" stroke="red"><polyline points="600,285 599,285 599,285 599,285 598,285 598,284 598,284 597,284 597,283 597,283 597,282 597,257 632,257 632,285" stroke="#6d725c" /></g><g id="2B08" stroke="red"><polyline points="558,308 558,254 581,254 581,308" stroke="#6d725c" /></g><g id="2B09" stroke="red"><polyline points="597,257 597,228 632,228 632,257" stroke="#6d725c" /></g><g id="2B10" stroke="red"><polyline points="558,254 558,200 578,200 578,200 579,200 579,200 579,200 580,201 580,201 580,201 580,202 581,202 581,203 581,254" stroke="#6d725c" /></g><g id="2B11" stroke="red"><polyline points="597,228 597,203 597,202 597,202 597,201 598,201 598,201 598,200 599,200 599,200 599,200 600,200 632,200 632,228" stroke="#6d725c" /></g><g id="2B13" stroke="red"><polyline points="597,181 597,160 630,160 630,181" stroke="#6d725c" /></g><g id="2B14" stroke="red"><polyline points="597,144 597,123 630,123 630,144" stroke="#6d725c" /></g><g id="2B15" stroke="red"><polyline points="593,106 593,50 628,50 628,106" stroke="#6d725c" /></g><g id="2B16" stroke="red"><polyline points="593,106 558,106 558,84 562,84 562,50 593,50" stroke="#6d725c" /></g><g id="2C01" stroke="red"><polyline points="489,503 489,462 528,462 528,503" stroke="#6d725c" /></g><g id="2C02" stroke="red"><polyline points="541,123 541,123 541,123 541,123 541,123 541,123 541,123 541,123 541,123 541,123 578,123 578,123 579,123 579,123 579,124 580,124 580,124 580,125 581,125 581,126 581,126 581,177 580,177 580,178 580,178 580,179 580,179 579,180 579,180 578,180 578,181 577,181 542,181 541,181 541,180 540,180 540,180 539,179 539,179 539,178 539,178 539,177 539,177 539,126 539,125 539,125 539,125 539,124 539,124 540,124 540,123 540,123 541,123 541,123" stroke="#6d725c" /></g><g id="2C03" stroke="red"><polyline points="528,503 528,462 567,462 567,503" stroke="#6d725c" /></g><g id="2C04" stroke="red"><polyline points="484,84 541,84 541,100 541,100 541,101 541,101 541,101 541,102 541,102 541,103 541,103 541,104 541,104 525,123 525,123 524,123 524,123 523,123 523,123 522,123 522,123 522,123 521,123 521,123 484,123" stroke="#6d725c" /></g><g id="2C05" stroke="red"><polyline points="560,379 578,379 578,379 579,379 579,379 579,380 580,380 580,380 580,381 580,381 581,381 581,382 581,411 581,440 581,440 580,441 580,441 580,442 580,442 579,442 579,442 579,443 578,443 578,443 560,443" stroke="#6d725c" /></g><g id="2C06" stroke="red"><polyline points="522,411 522,440 522,440 522,441 522,441 521,442 521,442 521,442 520,442 520,443 520,443 519,443 483,443 483,443 483,443 482,442 482,442 481,442 481,442 481,441 481,441 481,440 481,440 481,411" stroke="#6d725c" /></g><g id="2C07" stroke="red"><polyline points="541,443 541,443 540,443 540,442 540,442 539,442 539,442 539,441 539,441 539,440 539,440 539,411 539,382 539,381 539,381 539,381 539,380 539,380 540,380 540,379 540,379 541,379 541,379 560,379 560,443" stroke="#6d725c" /></g><g id="2C08" stroke="red"><polyline points="481,411 481,382 481,381 481,381 481,381 481,380 481,380 482,380 482,379 483,379 483,379 483,379 519,379 520,379 520,379 520,379 521,380 521,380 521,380 522,381 522,381 522,381 522,382 522,411" stroke="#6d725c" /></g><g id="2D01" stroke="red"><polyline points="412,503 412,462 451,462 451,503" stroke="#6d725c" /></g><g id="2D02" stroke="red"><polyline points="409,411 464,411 464,440 464,440 464,441 464,441 464,442 463,442 463,442 463,442 462,443 462,443 461,443 409,443" stroke="#6d725c" /></g><g id="2D03" stroke="red"><polyline points="451,503 451,462 489,462 489,503" stroke="#6d725c" /></g><g id="2D04" stroke="red"><polyline points="409,411 409,379 461,379 462,379 462,379 463,379 463,380 463,380 464,380 464,381 464,381 464,381 464,382 464,411" stroke="#6d725c" /></g><g id="2D05" stroke="red"><polyline points="522,322 522,360 522,360 522,360 522,361 521,361 521,362 521,362 520,362 520,362 519,362 519,363 481,363 481,322" stroke="#6d725c" /></g><g id="2D06" stroke="red"><polyline points="409,332 464,332 464,360 464,360 464,361 464,361 464,361 463,362 463,362 463,362 462,362 462,362 461,363 409,363" stroke="#6d725c" /></g><g id="2D07" stroke="red"><polyline points="481,322 481,281 522,281 522,281 522,322 522,322" stroke="#6d725c" /></g><g id="2D08" stroke="red"><polyline points="409,332 409,302 461,302 462,302 462,302 463,302 463,303 463,303 464,303 464,304 464,304 464,305 464,305 464,332" stroke="#6d725c" /></g><g id="2D09" stroke="red"><polyline points="481,281 481,241 522,241 522,281" stroke="#6d725c" /></g><g id="2D10" stroke="red"><polyline points="409,257 464,257 464,283 464,283 464,284 464,284 464,284 463,285 463,285 463,285 462,285 462,286 461,286 409,286" stroke="#6d725c" /></g><g id="2D11" stroke="red"><polyline points="481,241 481,200 519,200 519,200 520,200 520,200 521,201 521,201 521,201 522,202 522,202 522,202 522,203 522,241" stroke="#6d725c" /></g><g id="2D12" stroke="red"><polyline points="409,257 409,229 464,229 464,257" stroke="#6d725c" /></g><g id="2D13" stroke="red"><polyline points="519,144 519,145 520,145 520,145 521,145 521,146 521,146 522,147 522,148 522,148 522,177 522,177 522,178 521,179 521,179 520,180 520,180 519,180 519,180 518,181 517,181 475,181 475,181 474,180 474,180 474,180 473,180 473,179 473,179 473,179 472,178 472,178 472,148 472,147 473,147 473,146 473,146 473,145 474,145 474,145 475,144 476,144 476,144 517,144 517,144 517,144 517,144 518,144 518,144 518,144 518,144 518,144 518,144 518,144" stroke="#6d725c" /></g><g id="2D14" stroke="red"><polyline points="409,229 409,200 461,200 462,200 462,200 463,200 463,200 463,201 464,201 464,201 464,202 464,202 464,203 464,229" stroke="#6d725c" /></g><g id="2D15" stroke="red"><polyline points="484,123 484,130 454,130 454,50 484,50 484,84" stroke="#6d725c" /></g><g id="2D16" stroke="red"><polyline points="424,144 456,144 456,178 456,178 456,179 455,179 455,179 455,180 455,180 454,180 454,180 453,181 453,181 424,181" stroke="#6d725c" /></g><g id="2E01" stroke="red"><polyline points="357,443 356,443 356,443 355,442 355,442 355,442 355,442 354,441 354,441 354,440 354,440 354,411 409,411 409,443" stroke="#6d725c" /></g><g id="2E02" stroke="red"><polyline points="373,503 373,462 412,462 412,503" stroke="#6d725c" /></g><g id="2E03" stroke="red"><polyline points="354,411 354,382 354,381 354,381 354,381 355,380 355,380 355,380 355,379 356,379 356,379 357,379 409,379 409,411" stroke="#6d725c" /></g><g id="2E04" stroke="red"><polyline points="335,503 335,494 335,462 373,462 373,503" stroke="#6d725c" /></g><g id="2E05" stroke="red"><polyline points="409,363 357,363 356,362 356,362 355,362 355,362 355,362 355,361 354,361 354,361 354,360 354,360 354,332 409,332" stroke="#6d725c" /></g><g id="2E06" stroke="red"><polyline points="337,322 337,363 300,363 299,362 299,362 298,362 298,362 297,362 297,361 297,361 297,360 297,360 297,360 297,322" stroke="#6d725c" /></g><g id="2E07" stroke="red"><polyline points="354,332 354,305 354,305 354,304 354,304 355,303 355,303 355,303 355,302 356,302 356,302 357,302 409,302 409,332" stroke="#6d725c" /></g><g id="2E08" stroke="red"><polyline points="297,322 297,281 337,281 337,322" stroke="#6d725c" /></g><g id="2E09" stroke="red"><polyline points="357,286 356,286 356,285 355,285 355,285 355,285 355,284 354,284 354,284 354,283 354,283 354,257 409,257 409,286" stroke="#6d725c" /></g><g id="2E10" stroke="red"><polyline points="297,281 297,241 337,241 337,281" stroke="#6d725c" /></g><g id="2E11" stroke="red"><polyline points="354,257 354,229 409,229 409,257" stroke="#6d725c" /></g><g id="2E12" stroke="red"><polyline points="297,241 297,203 297,202 297,202 297,202 297,201 297,201 298,201 298,200 299,200 299,200 300,200 337,200 337,241" stroke="#6d725c" /></g><g id="2E13" stroke="red"><polyline points="354,229 354,203 354,202 354,202 354,201 355,201 355,201 355,200 355,200 356,200 356,200 357,200 409,200 409,229" stroke="#6d725c" /></g><g id="2E14" stroke="red"><polyline points="257,158 314,158 314,181 257,181" stroke="#6d725c" /></g><g id="2E15" stroke="red"><polyline points="383,181 331,181 331,158 336,158 336,126 341,126 341,140 371,140 371,126 383,126 383,181" stroke="#6d725c" /></g><g id="2E17" stroke="red"><polyline points="424,181 383,181 383,126 424,126 424,181" stroke="#6d725c" /></g><g id="2F01" stroke="red"><polyline points="296,494 296,462 335,462 335,494" stroke="#6d725c" /></g><g id="2F02" stroke="red"><polyline points="257,494 257,462 296,462 296,494" stroke="#6d725c" /></g><g id="2F03" stroke="red"><polyline points="337,411 337,440 337,440 337,441 337,441 337,442 337,442 336,442 336,442 336,443 335,443 335,443 294,443 294,443 294,443 293,442 293,442 292,442 292,442 292,441 292,441 292,440 292,440 292,411" stroke="#6d725c" /></g><g id="2F05" stroke="red"><polyline points="292,411 292,382 292,381 292,381 292,381 292,380 292,380 293,380 293,379 294,379 294,379 294,379 335,379 335,379 336,379 336,379 336,380 337,380 337,380 337,381 337,381 337,381 337,382 337,411" stroke="#6d725c" /></g><g id="2F06" stroke="red"><polyline points="255,424 255,379 275,379 275,424" stroke="#6d725c" /></g><g id="2G01" stroke="red"><polyline points="257,503 221,503 221,462 257,462 257,494" stroke="#6d725c" /></g><g id="2G02" stroke="red"><polyline points="184,503 184,462 221,462 221,503" stroke="#6d725c" /></g><g id="2G03" stroke="red"><polyline points="255,424 275,424 275,443 234,443 234,424" stroke="#6d725c" /></g><g id="2G04" stroke="red"><polyline points="174,411 218,411 218,443 174,443" stroke="#6d725c" /></g><g id="2G05" stroke="red"><polyline points="234,424 234,379 255,379 255,424" stroke="#6d725c" /></g><g id="2G06" stroke="red"><polyline points="174,411 174,379 218,379 218,411" stroke="#6d725c" /></g><g id="2G07" stroke="red"><polyline points="261,281 261,363 234,363 234,281" stroke="#6d725c" /></g><g id="2G08" stroke="red"><polyline points="174,340 218,340 218,363 174,363" stroke="#6d725c" /></g><g id="2G10" stroke="red"><polyline points="174,340 174,318 218,318 218,340" stroke="#6d725c" /></g><g id="2G12" stroke="red"><polyline points="174,281 218,281 218,304 174,304" stroke="#6d725c" /></g><g id="2G14" stroke="red"><polyline points="174,281 174,259 218,259 218,281" stroke="#6d725c" /></g><g id="2G15" stroke="red"><polyline points="234,281 234,200 261,200 261,281" stroke="#6d725c" /></g><g id="2G16" stroke="red"><polyline points="174,222 218,222 218,245 174,245" stroke="#6d725c" /></g><g id="2G17" stroke="red"><polyline points="257,181 200,181 200,158 257,158 257,181" stroke="#6d725c" /></g><g id="2G18" stroke="red"><polyline points="174,222 174,200 218,200 218,222" stroke="#6d725c" /></g><g id="2H01" stroke="red"><polyline points="148,503 148,462 184,462 184,503" stroke="#6d725c" /></g><g id="2H02" stroke="red"><polyline points="109,503 109,462 111,462 148,462 148,503" stroke="#6d725c" /></g><g id="2H03" stroke="red"><polyline points="131,443 131,411 174,411 174,443" stroke="#6d725c" /></g><g id="2H04" stroke="red"><polyline points="109,462 87,462 87,427 111,427 111,462" stroke="#6d725c" /></g><g id="2H05" stroke="red"><polyline points="131,411 131,379 174,379 174,411" stroke="#6d725c" /></g><g id="2H06" stroke="red"><polyline points="87,427 87,393 111,393 111,427" stroke="#6d725c" /></g><g id="2H07" stroke="red"><polyline points="131,363 131,340 174,340 174,363" stroke="#6d725c" /></g><g id="2H08" stroke="red"><polyline points="33,358 33,322 48,322 48,286 111,286 111,358" stroke="#6d725c" /></g><g id="2H09" stroke="red"><polyline points="131,340 131,318 174,318 174,340" stroke="#6d725c" /></g><g id="2H11" stroke="red"><polyline points="131,304 131,281 174,281 174,304" stroke="#6d725c" /></g><g id="2H13" stroke="red"><polyline points="131,281 131,259 174,259 174,281" stroke="#6d725c" /></g><g id="2H15" stroke="red"><polyline points="131,245 131,222 174,222 174,245" stroke="#6d725c" /></g><g id="2H17" stroke="red"><polyline points="131,222 131,200 174,200 174,222" stroke="#6d725c" /></g><g id="2H18" stroke="red"><polyline points="108,181 108,158 127,158 127,149 146,149 146,181" stroke="#6d725c" /></g><g id="2H19" stroke="red"><polyline points="146,149 180,149 180,158 183,158 183,181 146,181" stroke="#6d725c" /></g><g id="ZBD2A20" stroke="red"><polyline points="732,175 732,124 766,124 766,225 732,225" stroke="#6d725c" /></g></svg>