<?xml version="1.0" encoding="utf-8" ?>
<svg baseProfile="full" height="510" version="1.1" width="800" xmlns="http://www.w3.org/2000/svg" xmlns:ev="http://www.w3.org/2001/xml-events" xmlns:xlink="http://www.w3.org/1999/xlink"><defs /><g id="4Y04" stroke="red"><polyline points="330,476 248,476 248,486 92,486 92,476 95,476 95,433 12,433 12,402 12,370 91,370 91,338 96,338 96,333 12,333 12,295 28,295 28,257 28,256 12,256 12,230 91,230 91,175 91,170 12,170 12,112 167,112 167,122 326,122 326,165 333,165 333,442 330,442" stroke="#6d725c" /></g></svg>