<?xml version="1.0" encoding="utf-8" ?>
<svg baseProfile="full" height="530" version="1.1" width="800" xmlns="http://www.w3.org/2000/svg" xmlns:ev="http://www.w3.org/2001/xml-events" xmlns:xlink="http://www.w3.org/1999/xlink"><defs /><g id="5Y01" stroke="red"><polyline points="675,13 676,13 676,48 680,48 680,45 704,45 704,48 706,48 706,61 743,61 743,89 781,89 781,95 786,95 786,195 783,195 783,196 704,196 704,200 706,200 706,230 706,259 708,259 708,257 781,257 781,259 786,259 786,266 786,266 786,267 793,267 793,327 786,327 786,328 786,328 786,335 781,335 781,337 710,337 704,337 704,341 706,341 706,376 708,376 708,374 782,374 782,376 786,376 786,492 88,492 88,482 91,482 91,438 8,438 8,376 12,376 12,374 92,374 92,370 88,370 88,335 84,335 84,337 12,337 12,335 8,335 8,280 22,280 22,253 8,253 8,233 86,233 89,233 89,230 88,230 88,177 88,170 84,170 84,173 7,173 7,115 86,115 86,125 108,125 108,115 162,115 162,120 165,120 165,124 330,124 330,96 331,96 331,91 335,91 335,105 367,105 367,91 418,91 418,95 423,95 423,93 457,93 457,91 455,91 455,13 462,13 462,11 482,11 482,15 487,15 487,47 569,47 569,17 571,17 571,11 675,11" stroke="#6d725c" /></g></svg>