<?xml version="1.0" encoding="utf-8" ?>
<svg baseProfile="full" height="920" version="1.1" width="800" xmlns="http://www.w3.org/2000/svg" xmlns:ev="http://www.w3.org/2001/xml-events" xmlns:xlink="http://www.w3.org/1999/xlink"><defs /><g id="1B01" stroke="red"><polyline fill="#ebf7d1" points="247,944 182,944 182,886 182,883 166,883 166,775 247,775 247,819" stroke="#6d725c" /></g><g id="1B06" stroke="red"><polyline fill="#ebf7d1" points="227,750 226,750 226,750 225,750 225,749 224,749 224,748 224,748 223,747 223,747 223,746 223,665 272,665 272,750" stroke="#6d725c" /></g><g id="1B07" stroke="red"><polyline fill="#ebf7d1" points="154,246 201,246 201,406 154,406" stroke="#6d725c" /></g><g id="1B08" stroke="red"><polyline fill="#ebf7d1" points="223,665 223,582 223,582 223,581 224,581 224,580 224,580 225,579 225,579 226,579 226,578 227,578 272,578 272,665" stroke="#6d725c" /></g><g id="1B10" stroke="red"><polyline fill="#ebf7d1" points="227,557 226,557 226,556 225,556 225,556 224,556 224,555 224,555 223,554 223,553 223,553 223,492 272,492 272,557" stroke="#6d725c" /></g><g id="1B12" stroke="red"><polyline fill="#ebf7d1" points="223,492 223,431 223,431 223,430 224,429 224,429 224,428 225,428 225,428 226,427 226,427 227,427 272,427 272,492" stroke="#6d725c" /></g><g id="1B14" stroke="red"><polyline fill="#ebf7d1" points="227,406 226,405 226,405 225,405 225,405 224,404 224,404 224,403 223,403 223,402 223,402 223,333 265,333 265,406" stroke="#6d725c" /></g><g id="1B16" stroke="red"><polyline fill="#ebf7d1" points="265,333 223,333 223,246 297,246 297,333" stroke="#6d725c" /></g><g id="1B20" stroke="red"><polyline fill="#ebf7d1" points="354,152 354,224 256,224 256,152 339,152" stroke="#6d725c" /></g><g id="1C01" stroke="red"><polyline fill="#ebf7d1" points="247,819 321,819 321,916 317,916 317,944 247,944" stroke="#6d725c" /></g><g id="1C03" stroke="red"><polyline fill="#ebf7d1" points="247,819 247,775 297,775 301,776 304,777 308,778 311,780 314,782 316,785 318,788 320,792 321,796 321,799 321,819" stroke="#6d725c" /></g><g id="1C04" stroke="red"><polyline fill="#ebf7d1" points="369,849 367,849 365,849 364,848 362,847 361,846 359,844 358,843 358,841 357,839 357,837 357,825 393,825 393,837 393,839 393,841 392,843 391,844 390,846 388,847 387,848 385,849 383,849 381,849" stroke="#6d725c" /></g><g id="1C05" stroke="red"><polyline fill="#ebf7d1" points="272,665 321,665 321,750 272,750" stroke="#6d725c" /></g><g id="1C06" stroke="red"><polyline fill="#ebf7d1" points="354,750 353,750 353,750 352,750 352,749 351,749 351,748 350,748 350,747 350,747 350,746 350,665 393,665 393,750" stroke="#6d725c" /></g><g id="1C07" stroke="red"><polyline fill="#ebf7d1" points="272,665 272,578 317,578 318,578 318,579 319,579 319,579 320,580 320,580 321,581 321,581 321,582 321,582 321,665" stroke="#6d725c" /></g><g id="1C08" stroke="red"><polyline fill="#ebf7d1" points="350,665 350,582 350,582 350,581 350,581 351,580 351,580 352,579 352,579 353,579 353,578 354,578 393,578 393,665" stroke="#6d725c" /></g><g id="1C09" stroke="red"><polyline fill="#ebf7d1" points="272,492 321,492 321,553 321,553 321,554 321,555 320,555 320,556 319,556 319,556 318,556 318,557 317,557 272,557" stroke="#6d725c" /></g><g id="1C10" stroke="red"><polyline fill="#ebf7d1" points="354,557 353,557 353,556 352,556 352,556 351,556 351,555 350,555 350,554 350,553 350,553 350,492 394,492 394,557" stroke="#6d725c" /></g><g id="1C11" stroke="red"><polyline fill="#ebf7d1" points="272,492 272,427 317,427 318,427 318,427 319,428 319,428 320,428 320,429 321,429 321,430 321,431 321,431 321,492" stroke="#6d725c" /></g><g id="1C12" stroke="red"><polyline fill="#ebf7d1" points="350,492 350,447 350,447 350,446 350,446 350,446 350,446 350,445 351,445 351,445 351,444 351,444 367,428 367,428 367,428 368,428 368,428 368,428 369,427 369,427 369,427 369,427 370,427 394,427 394,492" stroke="#6d725c" /></g><g id="1C13" stroke="red"><polyline fill="#ebf7d1" points="265,333 297,333 319,333 319,406 265,406" stroke="#6d725c" /></g><g id="1C15" stroke="red"><polyline fill="#ebf7d1" points="329,318 329,246 340,246 340,246 341,246 341,246 342,247 342,247 343,248 343,248 343,249 343,249 344,250 344,314 343,314 343,315 343,315 343,316 342,316 342,317 341,317 341,317 340,318 340,318" stroke="#6d725c" /></g><g id="1C18" stroke="red"><polyline fill="#ebf7d1" points="354,224 354,152 412,152 449,152 449,224" stroke="#6d725c" /></g><g id="1D01" stroke="red"><polyline fill="#ebf7d1" points="500,865 500,934 493,934 493,944 419,944 419,825 483,825 548,825 548,865" stroke="#6d725c" /></g><g id="1D02" stroke="red"><polyline fill="#ebf7d1" points="419,825 419,796 419,792 420,788 421,785 423,782 426,779 429,776 432,774 436,773 439,772 443,772 483,772 483,825" stroke="#6d725c" /></g><g id="1D05" stroke="red"><polyline fill="#ebf7d1" points="393,665 436,665 436,746 436,747 436,747 435,748 435,748 435,749 434,749 434,750 433,750 433,750 432,750 393,750" stroke="#6d725c" /></g><g id="1D06" stroke="red"><polyline fill="#ebf7d1" points="491,665 509,665 509,750 458,750 458,665" stroke="#6d725c" /></g><g id="1D07" stroke="red"><polyline fill="#ebf7d1" points="393,665 393,578 432,578 433,578 433,579 434,579 434,579 435,580 435,580 435,581 436,581 436,582 436,582 436,665" stroke="#6d725c" /></g><g id="1D08" stroke="red"><polyline fill="#ebf7d1" points="458,665 458,582 458,582 458,581 458,581 458,580 459,580 459,579 460,579 460,579 461,578 462,578 491,578 491,665" stroke="#6d725c" /></g><g id="1D09" stroke="red"><polyline fill="#ebf7d1" points="394,492 436,492 436,553 436,553 436,554 435,555 435,555 435,556 434,556 434,556 433,556 433,557 432,557 394,557" stroke="#6d725c" /></g><g id="1D10" stroke="red"><polyline fill="#ebf7d1" points="462,557 461,557 460,556 460,556 459,556 459,556 458,555 458,555 458,554 458,553 458,553 458,492 503,492 503,557" stroke="#6d725c" /></g><g id="1D11" stroke="red"><polyline fill="#ebf7d1" points="394,492 394,427 432,427 433,427 433,427 434,428 434,428 435,428 435,429 435,429 436,430 436,431 436,431 436,492" stroke="#6d725c" /></g><g id="1D12" stroke="red"><polyline fill="#ebf7d1" points="458,492 458,431 458,431 458,430 458,429 458,429 459,428 459,428 460,428 460,427 461,427 462,427 503,427 503,492" stroke="#6d725c" /></g><g id="1D14" stroke="red"><polyline fill="#ebf7d1" points="503,406 462,406 461,405 460,405 460,405 459,405 459,404 458,404 458,403 458,403 458,402 458,402 458,326 503,326" stroke="#6d725c" /></g><g id="1D16" stroke="red"><polyline fill="#ebf7d1" points="503,326 458,326 458,250 458,249 458,249 458,248 458,248 459,247 459,247 460,246 460,246 461,246 462,246 503,246 503,326" stroke="#6d725c" /></g><g id="1E03" stroke="red"><polyline fill="#ebf7d1" points="483,825 483,772 524,772 527,772 531,773 534,774 538,776 541,779 543,782 545,785 546,788 547,792 548,796 548,825" stroke="#6d725c" /></g><g id="1E05" stroke="red"><polyline fill="#ebf7d1" points="548,665 548,746 548,747 547,747 547,748 547,748 547,749 546,749 546,750 545,750 544,750 544,750 533,750 533,665" stroke="#6d725c" /></g><g id="1E07" stroke="red"><polyline fill="#ebf7d1" points="533,665 515,665 515,578 544,578 544,578 545,579 546,579 546,579 547,580 547,580 547,581 547,581 548,582 548,582 548,665" stroke="#6d725c" /></g><g id="1E09" stroke="red"><polyline fill="#ebf7d1" points="503,492 548,492 548,553 548,553 547,554 547,555 547,555 547,556 546,556 546,556 545,556 544,557 544,557 503,557" stroke="#6d725c" /></g><g id="1E11" stroke="red"><polyline fill="#ebf7d1" points="503,492 503,427 544,427 544,427 545,427 546,428 546,428 547,428 547,429 547,429 547,430 548,431 548,431 548,492" stroke="#6d725c" /></g><g id="1E13" stroke="red"><polyline fill="#ebf7d1" points="548,326 548,402 548,402 547,403 547,403 547,404 547,404 546,405 546,405 545,405 544,405 544,406 503,406 503,326 503,326" stroke="#6d725c" /></g><g id="1E15" stroke="red"><polyline fill="#ebf7d1" points="503,326 503,246 544,246 544,246 545,246 546,246 546,247 547,247 547,248 547,248 547,249 548,249 548,250 548,326" stroke="#6d725c" /></g><g id="1E17" stroke="red"><polyline fill="#ebf7d1" points="449,152 484,152 548,152 548,220 548,221 547,221 547,222 547,222 547,223 546,223 546,223 545,224 544,224 544,224 449,224" stroke="#6d725c" /></g><g id="1E19" stroke="red"><polyline fill="#ebf7d1" points="484,152 484,114 545,114 545,114 546,114 546,114 546,115 547,115 547,115 547,116 548,116 548,117 548,117 548,152" stroke="#6d725c" /></g><g id="1E21" stroke="red"><polyline fill="#ebf7d1" points="627,128 575,128 575,82 597,82 597,56 517,56 517,42 627,42" stroke="#6d725c" /></g><g id="1F15" stroke="red"><polyline fill="#ebf7d1" points="569,314 569,254 659,254 659,314" stroke="#6d725c" /></g><g id="1Y01" stroke="red"><polyline fill="#ebf7d1" points="182,944 136,944 136,947 115,947 115,941 112,941 112,917 113,917 113,886 182,886 182,944" stroke="#6d725c" /></g><g id="1Y02" stroke="red"><polyline fill="#ebf7d1" points="548,944 493,944 493,934 500,934 500,865 548,865" stroke="#6d725c" /></g><g id="1Y03" stroke="red"><polyline fill="#ebf7d1" points="619,944 619,783 619,783 664,746 726,746 726,745 749,745 749,749 751,749 751,911 751,944" stroke="#6d725c" /></g><g id="1Y06" stroke="red"><polyline fill="#ebf7d1" points="154,427 201,427 201,750 154,750 154,775 166,775 166,883 113,883 106,862 81,862 47,896 51,900 47,903 44,908 43,913 44,919 47,923 52,926 57,927 62,927 67,924 70,919 70,944 45,944 26,925 26,747 77,747 77,587 26,587 26,331 69,331 69,246 154,246 154,246 154,406" stroke="#6d725c" /></g><g id="1Y07" stroke="red"><polyline fill="#ebf7d1" points="619,944 584,944 584,806 584,806 584,806 584,805 584,805 584,805 584,804 585,804 585,804 585,803 585,803 619,776 619,776 619,783" stroke="#6d725c" /></g><g id="1Y08" stroke="red"><polyline fill="#ebf7d1" points="231,128 87,128 87,42 166,42 166,112 166,112 231,112" stroke="#6d725c" /></g><g id="1Y09" stroke="red"><polyline fill="#ebf7d1" points="726,746 664,746 619,783 619,776 619,776 619,776 619,776 604,776 598,776 593,774 588,772 583,770 579,766 575,762 573,757 571,752 570,746 569,741 569,314 659,314 663,314 663,312 746,312 746,442 690,442 690,584 746,584 746,664 726,664 726,745" stroke="#6d725c" /></g><g id="1Y10" stroke="red"><polyline fill="#ebf7d1" points="256,152 256,42 339,42 339,152" stroke="#6d725c" /></g><g id="1Y11" stroke="red"><polyline fill="#ebf7d1" points="354,152 339,152 339,42 412,42 412,152" stroke="#6d725c" /></g><g id="1Y12" stroke="red"><polyline fill="#ebf7d1" points="484,152 449,152 412,152 412,42 484,42 484,114" stroke="#6d725c" /></g><g id="1Y13" stroke="red"><polyline fill="#ebf7d1" points="166,112 166,112 166,42 255,42 255,89 231,89 231,112" stroke="#6d725c" /></g></svg>