<?xml version="1.0" encoding="utf-8" ?>
<svg baseProfile="full" height="925" version="1.1" width="800" xmlns="http://www.w3.org/2000/svg" xmlns:ev="http://www.w3.org/2001/xml-events" xmlns:xlink="http://www.w3.org/1999/xlink"><defs /><g id="5Y01" stroke="red"><polyline points="196,731 290,731 310,731 333,731 333,676 333,622 497,622 497,731 564,731 564,790 536,790 536,845 146,845 146,731" stroke="#6d725c" /></g><g id="5Y02" stroke="red"><polyline points="497,399 497,442 497,442 497,483 497,483 497,526 497,622 497,622 333,622 333,622 333,622 333,622 333,676 333,731 310,731 269,731 269,731 269,647 269,622 224,622 224,622 224,399 317,399 317,224 380,224 380,291 497,291" stroke="#6d725c" /></g><g id="5Y03" stroke="red"><polyline points="269,731 196,731 146,731 146,731 134,731 134,622 179,622 224,622 224,622 224,622 269,622 269,647" stroke="#6d725c" /></g><g id="5Y04" stroke="red"><polyline points="179,622 134,622 134,399 224,399 224,622" stroke="#6d725c" /></g><g id="5Y06" stroke="red"><polyline points="224,378 134,378 134,224 224,224 224,291" stroke="#6d725c" /></g><g id="5Y07" stroke="red"><polyline points="113,276 113,624 53,624 53,276" stroke="#6d725c" /></g><g id="5Y08" stroke="red"><polyline points="53,276 53,213 65,213 65,201 113,201 113,276" stroke="#6d725c" /></g><g id="DQD5B14" stroke="red"><polyline points="224,291 261,291 261,378 224,378" stroke="#6d725c" /></g><g id="DQD5B16" stroke="red"><polyline points="224,291 224,224 261,224 261,291" stroke="#6d725c" /></g><g id="DQD5B18" stroke="red"><polyline points="253,203 253,112 311,112 311,203" stroke="#6d725c" /></g><g id="DQD5C17" stroke="red"><polyline points="311,203 311,112 356,112 356,203" stroke="#6d725c" /></g><g id="DQD5C18" stroke="red"><polyline points="356,203 356,112 403,112 403,203" stroke="#6d725c" /></g><g id="DQD5D18" stroke="red"><polyline points="497,291 380,291 380,224 497,224 497,285" stroke="#6d725c" /></g><g id="DQD5D19" stroke="red"><polyline points="403,203 403,112 449,112 449,203" stroke="#6d725c" /></g><g id="DQD5D20" stroke="red"><polyline points="449,203 449,112 497,112 497,203" stroke="#6d725c" /></g><g id="DQD5E02" stroke="red"><polyline points="557,868 557,811 609,811 609,868" stroke="#6d725c" /></g><g id="DQD5E04" stroke="red"><polyline points="609,868 609,811 662,811 662,868" stroke="#6d725c" /></g><g id="DQD5E06" stroke="red"><polyline points="585,790 585,731 636,731 636,790" stroke="#6d725c" /></g><g id="DQD5E07" stroke="red"><polyline points="564,622 564,710 549,710 549,698 543,698 543,622 543,622" stroke="#6d725c" /></g><g id="DQD5E09" stroke="red"><polyline points="543,622 543,547 564,547 564,622" stroke="#6d725c" /></g><g id="DQD5E10" stroke="red"><polyline points="636,710 585,710 585,627 636,627" stroke="#6d725c" /></g><g id="DQD5E11" stroke="red"><polyline points="497,483 564,483 564,526 497,526" stroke="#6d725c" /></g><g id="DQD5E12" stroke="red"><polyline points="636,627 585,627 585,547 585,547 636,547" stroke="#6d725c" /></g><g id="DQD5E13" stroke="red"><polyline points="497,483 497,442 564,442 564,483" stroke="#6d725c" /></g><g id="DQD5E14" stroke="red"><polyline points="585,526 585,462 627,462 627,526" stroke="#6d725c" /></g><g id="DQD5E15" stroke="red"><polyline points="497,442 497,399 564,399 564,442" stroke="#6d725c" /></g><g id="DQD5E17" stroke="red"><polyline points="564,331 564,378 497,378 497,331" stroke="#6d725c" /></g><g id="DQD5E19" stroke="red"><polyline points="497,331 497,285 564,285 564,331" stroke="#6d725c" /></g><g id="DQD5E21" stroke="red"><polyline points="497,285 497,285 497,224 564,224 564,285" stroke="#6d725c" /></g><g id="DQD5E22" stroke="red"><polyline points="541,112 587,112 587,203 541,203" stroke="#6d725c" /></g><g id="DQD5E23" stroke="red"><polyline points="497,203 497,112 541,112 541,203" stroke="#6d725c" /></g><g id="DQD5F01" stroke="red"><polyline points="709,868 662,868 662,811 709,811 709,868" stroke="#6d725c" /></g><g id="DQD5F02" stroke="red"><polyline points="709,811 709,785 754,785 754,868 709,868" stroke="#6d725c" /></g><g id="DQD5F03" stroke="red"><polyline points="636,731 688,731 688,790 636,790" stroke="#6d725c" /></g><g id="DQD5F06" stroke="red"><polyline points="788,666 788,666 788,707 709,707 709,666" stroke="#6d725c" /></g><g id="DQD5F07" stroke="red"><polyline points="636,627 688,627 688,710 636,710" stroke="#6d725c" /></g><g id="DQD5F08" stroke="red"><polyline points="709,666 709,626 748,626 788,626 788,666" stroke="#6d725c" /></g><g id="DQD5F09" stroke="red"><polyline points="636,627 636,547 670,547 688,621 688,627" stroke="#6d725c" /></g><g id="DQD5F10" stroke="red"><polyline points="709,626 709,618 692,551 748,551 748,626" stroke="#6d725c" /></g><g id="DQD5F11" stroke="red"><polyline points="627,462 627,462 670,462 670,526 627,526" stroke="#6d725c" /></g></svg>