<?xml version="1.0" encoding="utf-8" ?>
<svg baseProfile="full" height="917" version="1.1" width="800" xmlns="http://www.w3.org/2000/svg" xmlns:ev="http://www.w3.org/2001/xml-events" xmlns:xlink="http://www.w3.org/1999/xlink"><defs /><g id="3A01" stroke="red"><polyline fill="#ebf7d1" points="108,803 108,803 107,803 107,804 107,804 107,804 107,804 107,804 107,804 107,804 99,817 99,817 99,817 99,817 98,818 98,818 98,818 97,818 97,818 97,818 96,818 94,818 94,813 90,813 90,803 31,803 31,756 31,708 108,708 108,802 108,802 108,802 108,802 108,803 108,803 108,803 108,803 108,803 108,803 108,803" stroke="#6d725c" /></g><g id="3A02" stroke="red"><polyline fill="#ebf7d1" points="195,863 195,896 148,896 148,866 133,866 133,863 133,849 133,848 133,848 133,847 134,847 134,846 134,846 134,846 134,845 135,845 135,844 147,832 148,832 148,832 148,831 148,831 149,831 149,831 149,831 150,831 150,831 150,831 195,831" stroke="#6d725c" /></g><g id="3A03" stroke="red"><polyline fill="#ebf7d1" points="156,807 132,790 132,734 132,733 132,733 133,732 133,732 133,731 134,731 134,731 135,731 135,730 136,730 221,730 222,730 222,730 223,731 223,731 223,731 224,731 224,732 224,732 225,732 225,733 246,797 247,799 247,800 246,801 246,802 245,804 244,805 243,805 242,806 241,806 240,807" stroke="#6d725c" /></g><g id="3A05" stroke="red"><polyline fill="#ebf7d1" points="178,627 224,627 224,709 132,709 132,627" stroke="#6d725c" /></g><g id="3A07" stroke="red"><polyline fill="#ebf7d1" points="108,517 108,601 108,602 108,602 107,603 107,603 107,604 106,604 106,605 105,605 105,605 104,605 89,605 89,551 31,551 31,517" stroke="#6d725c" /></g><g id="3A08" stroke="red"><polyline fill="#ebf7d1" points="132,627 132,545 178,545 178,627" stroke="#6d725c" /></g><g id="3A09" stroke="red"><polyline fill="#ebf7d1" points="31,517 31,476 108,476 108,517" stroke="#6d725c" /></g><g id="3A10" stroke="red"><polyline fill="#ebf7d1" points="136,524 135,524 135,523 134,523 134,523 133,523 133,522 133,522 132,521 132,520 132,520 132,461 178,461 178,524" stroke="#6d725c" /></g><g id="3A11" stroke="red"><polyline fill="#ebf7d1" points="31,476 31,434 108,434 108,476" stroke="#6d725c" /></g><g id="3A12" stroke="red"><polyline fill="#ebf7d1" points="132,461 132,403 132,402 132,402 133,401 133,401 133,400 134,400 134,400 135,399 135,399 136,399 178,399 178,461" stroke="#6d725c" /></g><g id="3A13" stroke="red"><polyline fill="#ebf7d1" points="31,434 31,392 108,392 108,434" stroke="#6d725c" /></g><g id="3A15" stroke="red"><polyline fill="#ebf7d1" points="31,392 31,350 108,350 108,392" stroke="#6d725c" /></g><g id="3A16" stroke="red"><polyline fill="#ebf7d1" points="132,378 132,331 178,331 178,378" stroke="#6d725c" /></g><g id="3A17" stroke="red"><polyline fill="#ebf7d1" points="31,350 31,307 108,307 108,350" stroke="#6d725c" /></g><g id="3A19" stroke="red"><polyline fill="#ebf7d1" points="96,284 96,201 108,201 108,284" stroke="#6d725c" /></g><g id="3A20" stroke="red"><polyline fill="#ebf7d1" points="132,331 132,283 178,283 178,331" stroke="#6d725c" /></g><g id="3A21" stroke="red"><polyline fill="#ebf7d1" points="171,204 171,181 219,181 219,204" stroke="#6d725c" /></g><g id="3A22" stroke="red"><polyline fill="#ebf7d1" points="132,283 132,229 132,228 132,228 133,227 133,227 133,226 134,226 134,225 135,225 135,225 136,225 178,225 178,283" stroke="#6d725c" /></g><g id="3B01" stroke="red"><polyline fill="#ebf7d1" points="195,896 195,863 195,831 242,831 242,896" stroke="#6d725c" /></g><g id="3B02" stroke="red"><polyline fill="#ebf7d1" points="242,896 242,831 288,831 288,896" stroke="#6d725c" /></g><g id="3B04" stroke="red"><polyline fill="#ebf7d1" points="271,807 270,806 270,806 269,806 269,806 269,806 268,806 268,805 268,805 268,804 267,804 246,735 246,734 246,734 246,733 246,732 247,732 247,731 248,731 248,731 249,730 250,730 298,730 298,807" stroke="#6d725c" /></g><g id="3B06" stroke="red"><polyline fill="#ebf7d1" points="249,709 248,709 247,709 247,709 246,709 246,708 246,708 245,707 245,707 245,706 245,706 245,627 292,627 292,709" stroke="#6d725c" /></g><g id="3B08" stroke="red"><polyline fill="#ebf7d1" points="245,627 245,548 245,548 245,547 245,547 246,546 246,546 246,545 247,545 247,545 248,545 249,545 292,545 292,627" stroke="#6d725c" /></g><g id="3B09" stroke="red"><polyline fill="#ebf7d1" points="178,627 178,545 178,545 224,545 224,627" stroke="#6d725c" /></g><g id="3B10" stroke="red"><polyline fill="#ebf7d1" points="249,524 248,524 247,523 247,523 246,523 246,523 246,522 245,522 245,521 245,520 245,520 245,461 292,461 292,524" stroke="#6d725c" /></g><g id="3B11" stroke="red"><polyline fill="#ebf7d1" points="178,461 224,461 224,520 224,520 224,521 224,522 223,522 223,523 222,523 222,523 221,523 221,524 220,524 178,524" stroke="#6d725c" /></g><g id="3B12" stroke="red"><polyline fill="#ebf7d1" points="245,461 245,403 245,402 245,402 245,401 246,401 246,400 246,400 247,400 247,399 248,399 249,399 292,399 292,461" stroke="#6d725c" /></g><g id="3B13" stroke="red"><polyline fill="#ebf7d1" points="178,461 178,399 220,399 221,399 221,399 222,400 222,400 223,400 223,401 224,401 224,402 224,402 224,403 224,461" stroke="#6d725c" /></g><g id="3B15" stroke="red"><polyline fill="#ebf7d1" points="178,331 178,331 236,331 236,375 236,375 236,376 236,376 235,377 235,377 234,378 234,378 233,378 233,378 232,378 178,378" stroke="#6d725c" /></g><g id="3B17" stroke="red"><polyline fill="#ebf7d1" points="178,331 178,283 236,283 236,331" stroke="#6d725c" /></g><g id="3B19" stroke="red"><polyline fill="#ebf7d1" points="178,283 178,283 178,225 232,225 233,225 233,225 234,225 234,226 235,226 235,227 236,227 236,228 236,228 236,229 236,283" stroke="#6d725c" /></g><g id="3B20" stroke="red"><polyline fill="#ebf7d1" points="266,85 266,18 313,18 313,85" stroke="#6d725c" /></g><g id="3C01" stroke="red"><polyline fill="#ebf7d1" points="288,896 288,831 332,831 332,896" stroke="#6d725c" /></g><g id="3C02" stroke="red"><polyline fill="#ebf7d1" points="370,896 370,831 407,831 407,896" stroke="#6d725c" /></g><g id="3C03" stroke="red"><polyline fill="#ebf7d1" points="332,896 332,831 370,831 370,896" stroke="#6d725c" /></g><g id="3C04" stroke="red"><polyline fill="#ebf7d1" points="363,807 363,806 362,806 362,806 361,806 361,806 360,805 360,805 360,804 360,804 360,803 360,734 360,733 360,733 360,732 360,732 361,731 361,731 362,731 362,731 363,730 363,730 405,730 405,807" stroke="#6d725c" /></g><g id="3C05" stroke="red"><polyline fill="#ebf7d1" points="298,730 335,730 336,730 336,731 337,731 337,731 338,731 338,732 338,732 339,733 339,733 339,734 339,803 339,804 339,804 338,805 338,805 338,806 337,806 337,806 336,806 336,806 335,807 298,807" stroke="#6d725c" /></g><g id="3C06" stroke="red"><polyline fill="#ebf7d1" points="364,709 363,709 362,709 362,709 361,709 361,708 360,708 360,707 360,707 360,706 360,706 360,627 405,627 405,709" stroke="#6d725c" /></g><g id="3C07" stroke="red"><polyline fill="#ebf7d1" points="292,627 339,627 339,709 292,709" stroke="#6d725c" /></g><g id="3C08" stroke="red"><polyline fill="#ebf7d1" points="360,627 360,548 360,548 360,547 360,547 360,546 361,546 361,545 362,545 362,545 363,545 364,545 405,545 405,627" stroke="#6d725c" /></g><g id="3C09" stroke="red"><polyline fill="#ebf7d1" points="292,627 292,627 292,545 335,545 336,545 336,545 337,545 337,545 338,546 338,546 338,547 339,547 339,548 339,548 339,627" stroke="#6d725c" /></g><g id="3C10" stroke="red"><polyline fill="#ebf7d1" points="364,524 363,524 362,523 362,523 361,523 361,523 360,522 360,522 360,521 360,520 360,520 360,461 405,461 405,524" stroke="#6d725c" /></g><g id="3C11" stroke="red"><polyline fill="#ebf7d1" points="292,461 339,461 339,520 339,520 339,521 338,522 338,522 338,523 337,523 337,523 336,523 336,524 335,524 292,524" stroke="#6d725c" /></g><g id="3C12" stroke="red"><polyline fill="#ebf7d1" points="360,461 360,403 360,402 360,402 360,401 360,401 361,400 361,400 362,400 362,399 363,399 364,399 405,399 405,461" stroke="#6d725c" /></g><g id="3C13" stroke="red"><polyline fill="#ebf7d1" points="292,461 292,399 335,399 336,399 336,399 337,400 337,400 338,400 338,401 338,401 339,402 339,402 339,403 339,461" stroke="#6d725c" /></g><g id="3C14" stroke="red"><polyline fill="#ebf7d1" points="364,378 363,378 362,378 362,378 361,378 361,377 360,377 360,376 360,376 360,375 360,375 360,302 405,302 405,378" stroke="#6d725c" /></g><g id="3C15" stroke="red"><polyline fill="#ebf7d1" points="339,302 339,375 339,375 339,376 338,376 338,377 338,377 337,378 337,378 336,378 336,378 335,378 310,378 310,302" stroke="#6d725c" /></g><g id="3C17" stroke="red"><polyline fill="#ebf7d1" points="310,302 310,229 310,228 310,227 310,227 311,226 311,226 311,226 312,225 312,225 313,225 313,225 335,225 336,225 336,225 337,225 337,226 338,226 338,226 338,227 339,227 339,228 339,229 339,302" stroke="#6d725c" /></g><g id="3C18" stroke="red"><polyline fill="#ebf7d1" points="360,302 360,229 360,228 360,228 360,227 360,227 361,226 361,226 362,225 362,225 363,225 364,225 405,225 405,302" stroke="#6d725c" /></g><g id="3C19" stroke="red"><polyline fill="#ebf7d1" points="277,204 276,204 276,204 275,204 275,203 274,203 274,203 274,202 273,202 273,201 273,200 273,113 273,112 273,112 274,111 274,110 274,110 275,110 275,109 276,109 276,109 277,109 335,109 336,109 336,109 337,109 337,110 338,110 338,110 338,111 339,112 339,112 339,113 339,200 339,201 339,202 338,202 338,203 338,203 337,203 337,204 336,204 336,204 335,204" stroke="#6d725c" /></g><g id="3C20" stroke="red"><polyline fill="#ebf7d1" points="364,204 363,204 362,204 362,204 361,203 361,203 360,203 360,202 360,202 360,201 360,200 360,157 405,157 405,157 405,204" stroke="#6d725c" /></g><g id="3C22" stroke="red"><polyline fill="#ebf7d1" points="360,157 360,113 360,112 360,112 360,111 360,110 361,110 361,110 362,109 362,109 363,109 364,109 405,109 405,157" stroke="#6d725c" /></g><g id="3C23" stroke="red"><polyline fill="#ebf7d1" points="313,85 313,18 359,18 359,85" stroke="#6d725c" /></g><g id="3C24" stroke="red"><polyline fill="#ebf7d1" points="359,85 359,18 405,18 405,85" stroke="#6d725c" /></g><g id="3D01" stroke="red"><polyline fill="#ebf7d1" points="407,896 407,831 452,831 452,896" stroke="#6d725c" /></g><g id="3D02" stroke="red"><polyline fill="#ebf7d1" points="497,896 497,831 541,831 541,896" stroke="#6d725c" /></g><g id="3D03" stroke="red"><polyline fill="#ebf7d1" points="452,896 452,831 497,831 497,896" stroke="#6d725c" /></g><g id="3D04" stroke="red"><polyline fill="#ebf7d1" points="474,807 473,806 473,806 472,806 472,806 471,806 471,805 471,805 470,804 470,804 470,803 470,734 470,733 470,733 471,732 471,732 471,731 472,731 472,731 473,731 473,730 474,730 516,730 516,807" stroke="#6d725c" /></g><g id="3D05" stroke="red"><polyline fill="#ebf7d1" points="405,730 446,730 446,730 447,731 447,731 448,731 448,731 449,732 449,732 449,733 449,733 449,734 449,803 449,804 449,804 449,805 449,805 448,806 448,806 447,806 447,806 446,806 446,807 405,807" stroke="#6d725c" /></g><g id="3D06" stroke="red"><polyline fill="#ebf7d1" points="501,701 495,701 495,709 470,709 470,627 501,627" stroke="#6d725c" /></g><g id="3D07" stroke="red"><polyline fill="#ebf7d1" points="405,627 449,627 449,706 449,706 449,707 449,707 449,708 448,708 448,709 447,709 447,709 446,709 446,709 405,709" stroke="#6d725c" /></g><g id="3D08" stroke="red"><polyline fill="#ebf7d1" points="470,627 470,627 470,548 470,548 470,547 471,547 471,546 471,546 472,545 472,545 473,545 473,545 474,545 501,545 501,627" stroke="#6d725c" /></g><g id="3D09" stroke="red"><polyline fill="#ebf7d1" points="405,627 405,545 446,545 446,545 447,545 447,545 448,545 448,546 449,546 449,547 449,547 449,548 449,548 449,627" stroke="#6d725c" /></g><g id="3D10" stroke="red"><polyline fill="#ebf7d1" points="474,524 473,524 473,523 472,523 472,523 471,523 471,522 471,522 470,521 470,520 470,520 470,461 516,461 516,524" stroke="#6d725c" /></g><g id="3D11" stroke="red"><polyline fill="#ebf7d1" points="405,461 449,461 449,520 449,520 449,521 449,522 449,522 448,523 448,523 447,523 447,523 446,524 446,524 405,524" stroke="#6d725c" /></g><g id="3D12" stroke="red"><polyline fill="#ebf7d1" points="470,461 470,403 470,402 470,402 471,401 471,401 471,400 472,400 472,400 473,399 473,399 474,399 516,399 516,461" stroke="#6d725c" /></g><g id="3D13" stroke="red"><polyline fill="#ebf7d1" points="405,461 405,399 446,399 446,399 447,399 447,400 448,400 448,400 449,401 449,401 449,402 449,402 449,403 449,461" stroke="#6d725c" /></g><g id="3D14" stroke="red"><polyline fill="#ebf7d1" points="474,378 473,378 473,378 472,378 472,378 471,377 471,377 471,376 470,376 470,375 470,375 470,302 516,302 516,378" stroke="#6d725c" /></g><g id="3D15" stroke="red"><polyline fill="#ebf7d1" points="405,302 449,302 449,375 449,375 449,376 449,376 449,377 448,377 448,378 447,378 447,378 446,378 446,378 405,378" stroke="#6d725c" /></g><g id="3D18" stroke="red"><polyline fill="#ebf7d1" points="470,302 470,229 470,228 470,228 471,227 471,227 471,226 472,226 472,225 473,225 473,225 474,225 516,225 516,302" stroke="#6d725c" /></g><g id="3D19" stroke="red"><polyline fill="#ebf7d1" points="405,302 405,225 446,225 446,225 447,225 447,225 448,226 448,226 449,227 449,227 449,228 449,228 449,229 449,302" stroke="#6d725c" /></g><g id="3D20" stroke="red"><polyline fill="#ebf7d1" points="474,204 473,204 473,204 472,204 472,203 471,203 471,203 471,202 470,202 470,201 470,200 470,157 516,157 516,204" stroke="#6d725c" /></g><g id="3D21" stroke="red"><polyline fill="#ebf7d1" points="405,157 405,157 449,157 449,200 449,201 449,202 449,202 449,203 448,203 448,203 447,204 447,204 446,204 446,204 405,204" stroke="#6d725c" /></g><g id="3D22" stroke="red"><polyline fill="#ebf7d1" points="470,157 470,113 470,112 470,112 471,111 471,110 471,110 472,110 472,109 473,109 473,109 474,109 516,109 516,157" stroke="#6d725c" /></g><g id="3D23" stroke="red"><polyline fill="#ebf7d1" points="405,157 405,109 446,109 446,109 447,109 447,109 448,110 448,110 449,110 449,111 449,112 449,112 449,113 449,157" stroke="#6d725c" /></g><g id="3D24" stroke="red"><polyline fill="#ebf7d1" points="450,18 496,18 496,85 450,85" stroke="#6d725c" /></g><g id="3D25" stroke="red"><polyline fill="#ebf7d1" points="405,85 405,18 450,18 450,85" stroke="#6d725c" /></g><g id="3E01" stroke="red"><polyline fill="#ebf7d1" points="541,896 541,831 588,831 588,896" stroke="#6d725c" /></g><g id="3E02" stroke="red"><polyline fill="#ebf7d1" points="588,896 588,831 634,831 634,896" stroke="#6d725c" /></g><g id="3E03" stroke="red"><polyline fill="#ebf7d1" points="516,730 557,730 558,730 558,731 559,731 559,731 560,731 560,732 560,732 561,733 561,733 561,734 561,803 561,804 561,804 560,805 560,805 560,806 559,806 559,806 558,806 558,806 557,807 516,807" stroke="#6d725c" /></g><g id="3E04" stroke="red"><polyline fill="#ebf7d1" points="585,807 585,806 584,806 584,806 583,806 583,805 582,805 582,804 582,804 582,803 582,803 582,734 582,734 582,733 582,732 582,732 583,731 583,731 584,731 584,731 585,730 585,730 636,730 636,768 636,807" stroke="#6d725c" /></g><g id="3E05" stroke="red"><polyline fill="#ebf7d1" points="561,706 561,707 561,707 560,708 560,708 560,708 559,709 559,709 558,709 558,709 557,709 548,709 548,702 541,702 541,627 543,627 548,627 554,627 561,627" stroke="#6d725c" /></g><g id="3E06" stroke="red"><polyline fill="#ebf7d1" points="585,709 585,709 584,709 584,709 583,709 583,708 582,708 582,707 582,707 582,706 582,706 582,627 636,627 636,709" stroke="#6d725c" /></g><g id="3E07" stroke="red"><polyline fill="#ebf7d1" points="554,627 548,627 543,627 543,553 548,553 548,545 557,545 558,545 558,545 559,545 559,545 560,546 560,546 560,546 561,547 561,548 561,548 561,627" stroke="#6d725c" /></g><g id="3E08" stroke="red"><polyline fill="#ebf7d1" points="636,586 636,586 636,627 582,627 582,545 636,545 636,545" stroke="#6d725c" /></g><g id="3E09" stroke="red"><polyline fill="#ebf7d1" points="516,461 561,461 561,520 561,520 561,521 560,522 560,522 560,523 559,523 559,523 558,523 558,524 557,524 516,524" stroke="#6d725c" /></g><g id="3E10" stroke="red"><polyline fill="#ebf7d1" points="585,524 585,524 584,523 584,523 583,523 583,523 582,522 582,522 582,521 582,520 582,520 582,461 625,461 625,524" stroke="#6d725c" /></g><g id="3E11" stroke="red"><polyline fill="#ebf7d1" points="516,461 516,399 557,399 558,399 558,399 559,400 559,400 560,400 560,401 560,401 561,402 561,402 561,403 561,461" stroke="#6d725c" /></g><g id="3E12" stroke="red"><polyline fill="#ebf7d1" points="625,461 582,461 582,403 582,402 582,402 582,401 582,401 583,400 583,400 584,400 584,399 585,399 585,399 625,399 625,461" stroke="#6d725c" /></g><g id="3E13" stroke="red"><polyline fill="#ebf7d1" points="516,302 561,302 561,375 561,375 561,376 560,376 560,377 560,377 559,378 559,378 558,378 558,378 557,378 516,378" stroke="#6d725c" /></g><g id="3E14" stroke="red"><polyline fill="#ebf7d1" points="582,378 582,331 625,331 625,378" stroke="#6d725c" /></g><g id="3E16" stroke="red"><polyline fill="#ebf7d1" points="582,331 582,283 582,283 625,283 625,331" stroke="#6d725c" /></g><g id="3E17" stroke="red"><polyline fill="#ebf7d1" points="516,302 516,225 557,225 558,225 558,225 559,225 559,226 560,226 560,227 560,227 561,228 561,228 561,229 561,302" stroke="#6d725c" /></g><g id="3E18" stroke="red"><polyline fill="#ebf7d1" points="582,283 582,229 582,228 582,228 582,227 582,227 583,226 583,226 584,225 584,225 585,225 585,225 625,225 625,283" stroke="#6d725c" /></g><g id="3E19" stroke="red"><polyline fill="#ebf7d1" points="516,157 561,157 561,200 561,201 561,202 560,202 560,203 560,203 559,203 559,204 558,204 558,204 557,204 516,204" stroke="#6d725c" /></g><g id="3E21" stroke="red"><polyline fill="#ebf7d1" points="516,157 516,109 557,109 558,109 558,109 559,109 559,110 560,110 560,110 560,111 561,112 561,112 561,113 561,157" stroke="#6d725c" /></g><g id="3E23" stroke="red"><polyline fill="#ebf7d1" points="519,85 519,65 604,65 604,85" stroke="#6d725c" /></g><g id="3F01" stroke="red"><polyline fill="#ebf7d1" points="634,896 634,831 680,831 680,896" stroke="#6d725c" /></g><g id="3F02" stroke="red"><polyline fill="#ebf7d1" points="752,896 680,896 680,831 697,831 714,831 714,854 752,854" stroke="#6d725c" /></g><g id="3F04" stroke="red"><polyline fill="#ebf7d1" points="714,854 714,831 714,783 752,783 752,854" stroke="#6d725c" /></g><g id="3F05" stroke="red"><polyline fill="#ebf7d1" points="636,768 636,730 686,730 687,730 687,731 688,731 688,731 689,731 689,732 689,732 690,733 690,734 690,734 690,803 690,803 690,804 689,804 689,805 689,805 688,806 688,806 687,806 687,806 686,807 636,807" stroke="#6d725c" /></g><g id="3F06" stroke="red"><polyline fill="#ebf7d1" points="728,705 752,705 752,765 714,765 714,644 728,644" stroke="#6d725c" /></g><g id="3F07" stroke="red"><polyline fill="#ebf7d1" points="636,668 636,627 668,627 689,627 690,630 690,709 636,709 636,709" stroke="#6d725c" /></g><g id="3F09" stroke="red"><polyline fill="#ebf7d1" points="636,627 636,586 636,586 636,545 669,545 689,627 668,627" stroke="#6d725c" /></g><g id="3F10" stroke="red"><polyline fill="#ebf7d1" points="714,627 695,550 745,550 745,624 728,624 728,627" stroke="#6d725c" /></g><g id="3F11" stroke="red"><polyline fill="#ebf7d1" points="625,461 669,461 669,520 669,520 669,521 668,522 668,522 668,523 667,523 667,523 666,523 666,524 665,524 625,524" stroke="#6d725c" /></g><g id="3F13" stroke="red"><polyline fill="#ebf7d1" points="625,461 625,399 665,399 666,399 666,399 667,400 667,400 668,400 668,401 668,401 669,402 669,402 669,403 669,461" stroke="#6d725c" /></g><g id="3F14" stroke="red"><polyline fill="#ebf7d1" points="745,357 745,414 693,414 693,357" stroke="#6d725c" /></g><g id="3F15" stroke="red"><polyline fill="#ebf7d1" points="625,331 669,331 669,378 625,378" stroke="#6d725c" /></g><g id="3F16" stroke="red"><polyline fill="#ebf7d1" points="693,357 693,300 745,300 745,357" stroke="#6d725c" /></g><g id="3F17" stroke="red"><polyline fill="#ebf7d1" points="625,331 625,283 669,283 669,283 669,331" stroke="#6d725c" /></g><g id="3F18" stroke="red"><polyline fill="#ebf7d1" points="693,300 693,243 745,243 745,300" stroke="#6d725c" /></g><g id="3F19" stroke="red"><polyline fill="#ebf7d1" points="625,283 625,225 665,225 666,225 666,225 667,225 667,226 668,226 668,227 668,227 669,228 669,228 669,229 669,283" stroke="#6d725c" /></g><g id="3F20" stroke="red"><polyline fill="#ebf7d1" points="693,243 693,186 745,186 745,243" stroke="#6d725c" /></g><g id="3F22" stroke="red"><polyline fill="#ebf7d1" points="693,186 693,130 745,130 745,186" stroke="#6d725c" /></g><g id="3F24" stroke="red"><polyline fill="#ebf7d1" points="693,130 693,85 693,73 745,73 745,130" stroke="#6d725c" /></g><g id="3F25" stroke="red"><polyline fill="#ebf7d1" points="604,85 604,65 604,26 589,26 589,18 658,18 658,85" stroke="#6d725c" /></g><g id="3F26" stroke="red"><polyline fill="#ebf7d1" points="693,73 693,85 658,85 658,85 658,18 745,18 745,73" stroke="#6d725c" /></g><g id="DQD3G03" stroke="red"><polyline fill="#ebf7d1" points="92,85 92,18 136,18 136,85" stroke="#6d725c" /></g><g id="DQD3G04" stroke="red"><polyline fill="#ebf7d1" points="136,85 136,18 178,18 178,85" stroke="#6d725c" /></g><g id="DQD3G05" stroke="red"><polyline fill="#ebf7d1" points="178,85 178,18 220,18 220,85" stroke="#6d725c" /></g><g id="DQD3G06" stroke="red"><polyline fill="#ebf7d1" points="220,85 220,18 266,18 266,85" stroke="#6d725c" /></g></svg>