<?xml version="1.0" encoding="utf-8" ?>
<svg baseProfile="full" height="922" version="1.1" width="800" xmlns="http://www.w3.org/2000/svg" xmlns:ev="http://www.w3.org/2001/xml-events" xmlns:xlink="http://www.w3.org/1999/xlink"><defs /><g id="2A01" stroke="red"><polyline fill="#FFFFFF" points="248,749 100,749 100,709 96,709 96,647 133,647 133,702 221,702" stroke="#6d725c" /></g><g id="2A03" stroke="red"><polyline fill="#FFFFFF" points="133,702 133,647 217,647 217,694 221,702" stroke="#6d725c" /></g><g id="2A05" stroke="red"><polyline fill="#FFFFFF" points="217,587 217,630 96,630 96,623 85,623 85,587" stroke="#6d725c" /></g><g id="2A07" stroke="red"><polyline fill="#FFFFFF" points="85,587 85,587 85,551 27,551 27,516 27,516 100,516 133,544 217,544 217,587 217,587" stroke="#6d725c" /></g><g id="2A10" stroke="red"><polyline fill="#FFFFFF" points="128,523 128,523 127,523 126,523 126,522 125,522 125,522 125,521 125,521 124,520 124,519 124,460 171,460 171,523" stroke="#6d725c" /></g><g id="2A11" stroke="red"><polyline fill="#FFFFFF" points="27,516 27,516 27,475 100,475 100,475 100,516" stroke="#6d725c" /></g><g id="2A13" stroke="red"><polyline fill="#FFFFFF" points="27,475 27,434 100,434 100,475" stroke="#6d725c" /></g><g id="2A14" stroke="red"><polyline fill="#FFFFFF" points="124,460 124,402 124,401 125,400 125,400 125,399 125,399 126,399 126,398 127,398 128,398 128,398 171,398 171,460" stroke="#6d725c" /></g><g id="2A15" stroke="red"><polyline fill="#FFFFFF" points="27,434 27,434 27,393 100,393 100,434" stroke="#6d725c" /></g><g id="2A16" stroke="red"><polyline fill="#FFFFFF" points="124,377 124,325 171,325 171,377" stroke="#6d725c" /></g><g id="2A17" stroke="red"><polyline fill="#FFFFFF" points="27,393 27,349 100,349 100,393" stroke="#6d725c" /></g><g id="2A18" stroke="red"><polyline fill="#FFFFFF" points="124,325 124,274 171,274 171,325" stroke="#6d725c" /></g><g id="2A19" stroke="red"><polyline fill="#FFFFFF" points="27,349 27,305 100,305 100,349" stroke="#6d725c" /></g><g id="2A21" stroke="red"><polyline fill="#FFFFFF" points="88,281 88,198 100,198 100,281" stroke="#6d725c" /></g><g id="2A22" stroke="red"><polyline fill="#FFFFFF" points="124,274 124,226 124,225 125,225 125,224 125,224 125,223 126,223 126,223 127,222 128,222 128,222 171,222 171,274" stroke="#6d725c" /></g><g id="2A24" stroke="red"><polyline fill="#FFFFFF" points="164,201 164,178 212,178 212,201" stroke="#6d725c" /></g><g id="2B04" stroke="red"><polyline fill="#FFFFFF" points="255,710 239,683 238,683 238,682 238,682 238,682 238,682 238,682 238,681 238,681 238,681 238,681 238,655 285,655 285,710" stroke="#6d725c" /></g><g id="2B06" stroke="red"><polyline fill="#FFFFFF" points="238,655 238,600 285,600 285,655" stroke="#6d725c" /></g><g id="2B08" stroke="red"><polyline fill="#FFFFFF" points="238,600 238,548 238,547 238,547 238,546 239,546 239,545 240,545 240,545 241,544 241,544 242,544 285,544 285,600" stroke="#6d725c" /></g><g id="2B09" stroke="red"><polyline fill="#FFFFFF" points="171,460 217,460 217,519 217,520 217,521 216,521 216,522 216,522 215,522 215,523 214,523 214,523 213,523 171,523" stroke="#6d725c" /></g><g id="2B10" stroke="red"><polyline fill="#FFFFFF" points="242,523 241,523 241,523 240,523 240,522 239,522 239,522 238,521 238,521 238,520 238,519 238,460 285,460 285,523" stroke="#6d725c" /></g><g id="2B11" stroke="red"><polyline fill="#FFFFFF" points="171,460 171,398 213,398 214,398 214,398 215,398 215,399 216,399 216,399 216,400 217,400 217,401 217,402 217,460" stroke="#6d725c" /></g><g id="2B12" stroke="red"><polyline fill="#FFFFFF" points="238,460 238,402 238,401 238,400 238,400 239,399 239,399 240,399 240,398 241,398 241,398 242,398 285,398 285,460" stroke="#6d725c" /></g><g id="2B13" stroke="red"><polyline fill="#FFFFFF" points="171,325 217,325 217,377 171,377" stroke="#6d725c" /></g><g id="2B14" stroke="red"><polyline fill="#FFFFFF" points="280,324 280,373 280,374 280,374 279,375 279,375 279,376 278,376 278,376 277,377 277,377 276,377 242,377 241,377 241,377 240,376 240,376 239,376 239,375 238,375 238,374 238,374 238,373 238,324" stroke="#6d725c" /></g><g id="2B15" stroke="red"><polyline fill="#FFFFFF" points="171,325 171,274 217,274 217,325" stroke="#6d725c" /></g><g id="2B16" stroke="red"><polyline fill="#FFFFFF" points="238,324 238,280 238,280 238,280 238,280 238,280 238,280 238,280 238,279 238,279 238,279 238,279 250,246 251,246 251,245 251,245 251,244 252,244 252,244 253,244 253,244 253,244 254,243 258,243 258,298 280,298 280,324" stroke="#6d725c" /></g><g id="2B17" stroke="red"><polyline fill="#FFFFFF" points="171,274 171,222 230,222 231,222 232,223 233,223 233,224 234,225 234,226 235,226 235,227 234,228 234,229 218,274 217,274" stroke="#6d725c" /></g><g id="2B20" stroke="red"><polyline fill="#FFFFFF" points="260,80 260,18 306,18 306,80" stroke="#6d725c" /></g><g id="2B21" stroke="red"><polyline fill="#FFFFFF" points="213,80 213,18 260,18 260,80" stroke="#6d725c" /></g><g id="2B22" stroke="red"><polyline fill="#FFFFFF" points="171,80 171,18 213,18 213,80" stroke="#6d725c" /></g><g id="2C01" stroke="red"><polyline fill="#FFFFFF" points="284,749 284,739 284,737 284,736 284,735 285,734 286,734 287,733 287,732 288,732 290,732 291,732 321,732 321,749" stroke="#6d725c" /></g><g id="2C02" stroke="red"><polyline fill="#FFFFFF" points="321,749 321,732 376,732 376,749" stroke="#6d725c" /></g><g id="2C03" stroke="red"><polyline fill="#FFFFFF" points="285,655 333,655 333,707 333,707 333,708 332,708 332,709 332,709 331,710 331,710 330,710 330,710 329,710 285,710" stroke="#6d725c" /></g><g id="2C04" stroke="red"><polyline fill="#FFFFFF" points="358,710 357,710 356,710 356,710 355,710 355,709 355,709 354,708 354,708 354,707 354,707 354,655 395,655 395,710" stroke="#6d725c" /></g><g id="2C05" stroke="red"><polyline fill="#FFFFFF" points="285,655 285,600 333,600 333,655" stroke="#6d725c" /></g><g id="2C06" stroke="red"><polyline fill="#FFFFFF" points="395,655 354,655 354,600 395,600 395,627" stroke="#6d725c" /></g><g id="2C07" stroke="red"><polyline fill="#FFFFFF" points="285,600 285,544 329,544 330,544 330,544 331,545 331,545 332,545 332,546 332,546 333,547 333,547 333,548 333,600" stroke="#6d725c" /></g><g id="2C08" stroke="red"><polyline fill="#FFFFFF" points="354,600 354,548 354,547 354,547 354,546 355,546 355,545 355,545 356,545 356,544 357,544 358,544 395,544 395,600" stroke="#6d725c" /></g><g id="2C09" stroke="red"><polyline fill="#FFFFFF" points="285,460 333,460 333,519 333,520 333,521 332,521 332,522 332,522 331,522 331,523 330,523 330,523 329,523 285,523" stroke="#6d725c" /></g><g id="2C10" stroke="red"><polyline fill="#FFFFFF" points="358,523 357,523 356,523 356,523 355,522 355,522 355,522 354,521 354,521 354,520 354,519 354,460 392,460 392,523" stroke="#6d725c" /></g><g id="2C11" stroke="red"><polyline fill="#FFFFFF" points="285,460 285,398 329,398 330,398 330,398 331,398 331,399 332,399 332,399 332,400 333,400 333,401 333,402 333,460" stroke="#6d725c" /></g><g id="2C12" stroke="red"><polyline fill="#FFFFFF" points="354,460 354,402 354,401 354,400 354,400 355,399 355,399 355,399 356,398 356,398 357,398 358,398 392,398 392,460" stroke="#6d725c" /></g><g id="2C17" stroke="red"><polyline fill="#FFFFFF" points="282,298 282,226 282,225 282,225 283,224 283,224 283,223 284,223 284,223 285,222 285,222 286,222 309,222 309,298" stroke="#6d725c" /></g><g id="2C19" stroke="red"><polyline fill="#FFFFFF" points="270,201 270,201 269,201 269,201 268,200 268,200 267,199 267,199 267,198 267,198 267,197 267,109 267,108 267,108 267,107 267,107 268,106 268,106 269,105 269,105 270,105 270,105 327,105 328,105 328,105 329,105 329,106 330,106 330,107 330,107 331,108 331,108 331,109 331,197 331,198 331,198 330,199 330,199 330,200 329,200 329,201 328,201 328,201 327,201" stroke="#6d725c" /></g><g id="2C21" stroke="red"><polyline fill="#FFFFFF" points="306,80 306,18 353,18 353,80" stroke="#6d725c" /></g><g id="2C22" stroke="red"><polyline fill="#FFFFFF" points="353,80 353,18 399,18 399,80" stroke="#6d725c" /></g><g id="2D01" stroke="red"><polyline fill="#FFFFFF" points="376,732 431,732 431,749 376,749" stroke="#6d725c" /></g><g id="2D02" stroke="red"><polyline fill="#FFFFFF" points="499,749 452,749 452,732 518,732 518,749" stroke="#6d725c" /></g><g id="2D03" stroke="red"><polyline fill="#FFFFFF" points="395,655 395,627 431,627 431,707 431,707 431,708 430,708 430,709 430,709 429,710 429,710 428,710 428,710 427,710 395,710" stroke="#6d725c" /></g><g id="2D04" stroke="red"><polyline fill="#FFFFFF" points="496,627 496,710 456,710 455,710 454,710 454,710 453,710 453,709 453,709 452,708 452,708 452,707 452,707 452,627" stroke="#6d725c" /></g><g id="2D07" stroke="red"><polyline fill="#FFFFFF" points="395,627 395,600 395,544 427,544 428,544 428,544 429,545 429,545 430,545 430,546 430,546 431,547 431,547 431,548 431,627" stroke="#6d725c" /></g><g id="2D08" stroke="red"><polyline fill="#FFFFFF" points="452,627 452,548 452,547 452,547 452,546 453,546 453,545 453,545 454,545 454,544 455,544 456,544 496,544 496,627" stroke="#6d725c" /></g><g id="2D09" stroke="red"><polyline fill="#FFFFFF" points="392,460 431,460 431,519 431,520 431,521 430,521 430,522 430,522 429,522 429,523 428,523 428,523 427,523 392,523" stroke="#6d725c" /></g><g id="2D10" stroke="red"><polyline fill="#FFFFFF" points="456,523 455,523 454,523 454,523 453,522 453,522 453,522 452,521 452,521 452,520 452,519 452,460 504,460 504,523" stroke="#6d725c" /></g><g id="2D11" stroke="red"><polyline fill="#FFFFFF" points="392,460 392,398 427,398 428,398 428,398 429,398 429,399 430,399 430,399 430,400 431,400 431,401 431,402 431,460" stroke="#6d725c" /></g><g id="2D12" stroke="red"><polyline fill="#FFFFFF" points="452,460 452,402 452,401 452,400 452,400 453,399 453,399 453,399 454,398 454,398 455,398 456,398 504,398 504,460" stroke="#6d725c" /></g><g id="2D13" stroke="red"><polyline fill="#FFFFFF" points="431,338 431,373 431,374 431,374 430,375 430,375 430,376 429,376 429,376 428,377 428,377 427,377 355,377 355,338" stroke="#6d725c" /></g><g id="2D14" stroke="red"><polyline fill="#FFFFFF" points="504,377 504,377 456,377 455,377 454,377 454,376 453,376 453,376 453,375 452,375 452,374 452,374 452,373 452,325 452,325 504,325" stroke="#6d725c" /></g><g id="2D15" stroke="red"><polyline fill="#FFFFFF" points="355,338 355,299 431,299 431,338" stroke="#6d725c" /></g><g id="2D16" stroke="red"><polyline fill="#FFFFFF" points="504,325 452,325 452,274 504,274 504,300" stroke="#6d725c" /></g><g id="2D17" stroke="red"><polyline fill="#FFFFFF" points="355,299 355,261 431,261 431,299" stroke="#6d725c" /></g><g id="2D18" stroke="red"><polyline fill="#FFFFFF" points="452,226 452,225 452,225 452,224 453,224 453,223 453,223 454,223 454,222 455,222 456,222 504,222 504,222 504,274 452,274" stroke="#6d725c" /></g><g id="2D19" stroke="red"><polyline fill="#FFFFFF" points="355,261 355,222 427,222 428,222 428,222 429,223 429,223 430,223 430,224 430,224 431,225 431,225 431,226 431,261" stroke="#6d725c" /></g><g id="2D20" stroke="red"><polyline fill="#FFFFFF" points="504,201 456,201 455,201 454,201 454,201 453,200 453,200 453,199 452,199 452,198 452,198 452,197 452,153 504,153" stroke="#6d725c" /></g><g id="2D21" stroke="red"><polyline fill="#FFFFFF" points="427,201 427,201 427,201 427,201 427,201 427,201 427,201 427,201 427,201 427,201 356,201 355,201 355,201 354,201 353,200 353,200 353,199 352,199 352,198 352,198 352,197 352,109 352,108 352,108 352,107 353,107 353,106 353,106 354,105 355,105 355,105 356,105 427,105 428,105 428,105 429,105 429,106 430,106 430,107 430,107 431,108 431,108 431,109 431,197 431,198 431,198 430,199 430,199 430,200 429,200 429,201 428,201 428,201 427,201" stroke="#6d725c" /></g><g id="2D22" stroke="red"><polyline fill="#FFFFFF" points="452,153 452,109 452,108 452,108 452,107 453,107 453,106 453,106 454,105 454,105 455,105 456,105 504,105 504,153" stroke="#6d725c" /></g><g id="2D24" stroke="red"><polyline fill="#FFFFFF" points="445,18 491,18 491,80 445,80" stroke="#6d725c" /></g><g id="2D25" stroke="red"><polyline fill="#FFFFFF" points="399,80 399,18 445,18 445,80" stroke="#6d725c" /></g><g id="2E01" stroke="red"><polyline fill="#FFFFFF" points="519,732 587,732 587,749 519,749" stroke="#6d725c" /></g><g id="2E02" stroke="red"><polyline fill="#FFFFFF" points="609,749 609,732 674,732 674,749" stroke="#6d725c" /></g><g id="2E03" stroke="red"><polyline fill="#FFFFFF" points="556,621 556,707 556,707 556,708 556,708 556,709 555,709 555,710 554,710 554,710 553,710 553,710 537,710 537,621" stroke="#6d725c" /></g><g id="2E04" stroke="red"><polyline fill="#FFFFFF" points="581,710 581,710 580,710 580,710 579,710 579,709 578,709 578,708 578,708 578,707 578,707 578,665 613,665 613,710" stroke="#6d725c" /></g><g id="2E05" stroke="red"><polyline fill="#FFFFFF" points="537,621 537,544 553,544 553,544 554,544 554,545 555,545 555,545 556,546 556,546 556,547 556,547 556,548 556,621" stroke="#6d725c" /></g><g id="2E06" stroke="red"><polyline fill="#FFFFFF" points="578,665 578,624 578,623 578,623 578,622 578,622 579,621 579,621 580,620 580,620 581,620 581,620 613,620 613,665" stroke="#6d725c" /></g><g id="2E07" stroke="red"><polyline fill="#FFFFFF" points="504,460 556,460 556,519 556,520 556,521 556,521 556,522 555,522 555,522 554,523 554,523 553,523 553,523 504,523" stroke="#6d725c" /></g><g id="2E08" stroke="red"><polyline fill="#FFFFFF" points="581,603 581,602 580,602 580,602 579,602 579,601 578,601 578,600 578,600 578,599 578,599 578,576 578,576 621,576 621,603" stroke="#6d725c" /></g><g id="2E09" stroke="red"><polyline fill="#FFFFFF" points="504,460 504,398 553,398 553,398 554,398 554,398 555,399 555,399 556,399 556,400 556,400 556,401 556,402 556,460" stroke="#6d725c" /></g><g id="2E10" stroke="red"><polyline fill="#FFFFFF" points="621,576 578,576 578,544 621,544 621,557 621,576" stroke="#6d725c" /></g><g id="2E11" stroke="red"><polyline fill="#FFFFFF" points="504,377 504,325 556,325 556,325 556,373 556,374 556,374 556,375 556,375 555,376 555,376 554,376 554,377 553,377 553,377 504,377" stroke="#6d725c" /></g><g id="2E12" stroke="red"><polyline fill="#FFFFFF" points="581,523 581,523 580,523 580,523 579,522 579,522 578,522 578,521 578,521 578,520 578,519 578,475 621,475 621,523" stroke="#6d725c" /></g><g id="2E13" stroke="red"><polyline fill="#FFFFFF" points="556,325 504,325 504,300 504,274 556,274" stroke="#6d725c" /></g><g id="2E14" stroke="red"><polyline fill="#FFFFFF" points="581,458 581,458 580,458 580,457 579,457 579,457 578,456 578,456 578,455 578,455 578,454 578,428 621,428 621,458" stroke="#6d725c" /></g><g id="2E15" stroke="red"><polyline fill="#FFFFFF" points="504,274 504,222 504,222 553,222 553,222 554,222 554,223 555,223 555,223 556,224 556,224 556,225 556,225 556,226 556,274" stroke="#6d725c" /></g><g id="2E16" stroke="red"><polyline fill="#FFFFFF" points="578,428 578,402 578,401 578,400 578,400 578,399 579,399 579,399 580,398 580,398 581,398 581,398 621,398 621,428" stroke="#6d725c" /></g><g id="2E17" stroke="red"><polyline fill="#FFFFFF" points="504,153 556,153 556,197 556,198 556,198 556,199 556,199 555,200 555,200 554,201 554,201 553,201 553,201 504,201" stroke="#6d725c" /></g><g id="2E18" stroke="red"><polyline fill="#FFFFFF" points="578,377 578,340 621,340 621,340 621,377" stroke="#6d725c" /></g><g id="2E19" stroke="red"><polyline fill="#FFFFFF" points="504,153 504,105 553,105 553,105 554,105 554,105 555,106 555,106 556,107 556,107 556,108 556,108 556,109 556,153" stroke="#6d725c" /></g><g id="2E20" stroke="red"><polyline fill="#FFFFFF" points="578,340 578,310 578,310 578,309 578,309 578,308 579,308 579,307 580,307 580,307 581,306 581,306 621,306 621,340" stroke="#6d725c" /></g><g id="2E21" stroke="red"><polyline fill="#FFFFFF" points="514,80 514,61 600,61 600,80" stroke="#6d725c" /></g><g id="2E22" stroke="red"><polyline fill="#FFFFFF" points="621,251 621,289 578,289 578,251" stroke="#6d725c" /></g><g id="2E24" stroke="red"><polyline fill="#FFFFFF" points="621,250 621,251 578,251 578,251 578,251 578,226 578,225 578,225 578,224 578,224 579,223 579,223 580,223 580,222 581,222 581,222 621,222" stroke="#6d725c" /></g><g id="2F02" stroke="red"><polyline fill="#FFFFFF" points="725,669 725,728 674,711 674,669" stroke="#6d725c" /></g><g id="2F03" stroke="red"><polyline fill="#FFFFFF" points="613,665 649,665 649,707 649,707 649,708 649,708 648,709 648,709 647,710 647,710 646,710 646,710 645,710 613,710" stroke="#6d725c" /></g><g id="2F04" stroke="red"><polyline fill="#FFFFFF" points="674,669 674,627 725,627 725,669" stroke="#6d725c" /></g><g id="2F05" stroke="red"><polyline fill="#FFFFFF" points="613,665 613,620 645,620 646,620 646,620 647,620 647,621 648,621 648,622 649,622 649,623 649,623 649,624 649,665" stroke="#6d725c" /></g><g id="2F06" stroke="red"><polyline fill="#FFFFFF" points="674,627 682,588 683,588 743,588 743,625 725,625 725,627" stroke="#6d725c" /></g><g id="2F07" stroke="red"><polyline fill="#FFFFFF" points="621,576 660,576 660,576 655,600 655,600 654,600 654,601 654,601 653,602 653,602 652,602 652,602 651,602 651,603 621,603" stroke="#6d725c" /></g><g id="2F08" stroke="red"><polyline fill="#FFFFFF" points="683,588 682,588 691,549 739,549 739,551 743,551 743,588" stroke="#6d725c" /></g><g id="2F09" stroke="red"><polyline fill="#FFFFFF" points="660,576 621,576 621,557 621,544 665,544 665,552 660,576" stroke="#6d725c" /></g><g id="2F10" stroke="red"><polyline fill="#FFFFFF" points="743,355 743,412 690,412 690,355" stroke="#6d725c" /></g><g id="2F11" stroke="red"><polyline fill="#FFFFFF" points="621,475 665,475 665,519 665,520 665,521 665,521 665,522 664,522 664,522 663,523 663,523 662,523 662,523 621,523" stroke="#6d725c" /></g><g id="2F12" stroke="red"><polyline fill="#FFFFFF" points="690,355 690,298 743,298 743,355" stroke="#6d725c" /></g><g id="2F13" stroke="red"><polyline fill="#FFFFFF" points="621,428 665,428 665,454 665,455 665,455 665,456 665,456 664,457 664,457 663,457 663,458 662,458 662,458 621,458" stroke="#6d725c" /></g><g id="2F14" stroke="red"><polyline fill="#FFFFFF" points="690,298 690,240 743,240 743,298" stroke="#6d725c" /></g><g id="2F15" stroke="red"><polyline fill="#FFFFFF" points="621,428 621,398 662,398 662,398 663,398 663,398 664,399 664,399 665,399 665,400 665,400 665,401 665,402 665,428" stroke="#6d725c" /></g><g id="2F16" stroke="red"><polyline fill="#FFFFFF" points="690,240 690,183 743,183 743,240" stroke="#6d725c" /></g><g id="2F17" stroke="red"><polyline fill="#FFFFFF" points="621,340 665,340 665,340 665,377 621,377" stroke="#6d725c" /></g><g id="2F18" stroke="red"><polyline fill="#FFFFFF" points="690,183 690,126 743,126 743,183" stroke="#6d725c" /></g><g id="2F19" stroke="red"><polyline fill="#FFFFFF" points="621,340 621,306 662,306 662,306 663,307 663,307 664,307 664,308 665,308 665,309 665,309 665,310 665,310 665,340" stroke="#6d725c" /></g><g id="2F20" stroke="red"><polyline fill="#FFFFFF" points="690,126 690,80 690,69 743,69 743,126" stroke="#6d725c" /></g><g id="2F21" stroke="red"><polyline fill="#FFFFFF" points="665,289 621,289 621,251 665,251" stroke="#6d725c" /></g><g id="2F22" stroke="red"><polyline fill="#FFFFFF" points="690,69 690,80 655,80 655,18 743,18 743,69" stroke="#6d725c" /></g><g id="2F23" stroke="red"><polyline fill="#FFFFFF" points="665,251 621,251 621,250 621,222 662,222 662,222 663,222 663,223 664,223 664,223 665,224 665,224 665,225 665,225 665,226 665,251 665,251" stroke="#6d725c" /></g><g id="2F25" stroke="red"><polyline fill="#FFFFFF" points="600,80 600,61 600,18 655,18 655,80" stroke="#6d725c" /></g><g id="2Y01" stroke="red"><polyline fill="#FFFFFF" points="284,749 284,900 141,900 141,869 123,869 116,885 103,898 86,903 68,901 53,891 43,875 42,857 48,840 61,828 79,822 82,822 82,805 27,805 27,709 96,709 100,709 100,749 248,749" stroke="#6d725c" /></g><g id="2Y02" stroke="red"><polyline fill="#FFFFFF" points="499,749 499,824 538,824 538,900 284,900 284,749 321,749 376,749 431,749 431,732 431,732 452,732 452,749 452,749" stroke="#6d725c" /></g><g id="2Y03" stroke="red"><polyline fill="#FFFFFF" points="674,749 728,749 728,785 749,785 749,872 783,872 783,900 538,900 538,824 499,824 499,749 518,749 519,749 587,749 587,732 608,732 608,749 609,749" stroke="#6d725c" /></g><g id="DQD2G03" stroke="red"><polyline fill="#FFFFFF" points="88,80 88,18 128,18 128,80" stroke="#6d725c" /></g><g id="DQD2G04" stroke="red"><polyline fill="#FFFFFF" points="128,80 128,18 171,18 171,80" stroke="#6d725c" /></g></svg>