<?xml version="1.0" encoding="utf-8" ?>
<svg baseProfile="full" height="925" version="1.1" width="800" xmlns="http://www.w3.org/2000/svg" xmlns:ev="http://www.w3.org/2001/xml-events" xmlns:xlink="http://www.w3.org/1999/xlink"><defs /><g id="5Y01" stroke="red"><polyline points="333,731 333,676 333,622 497,622 497,731 564,731 564,790 536,790 536,845 146,845 146,731 290,731 310,731" stroke="#6d725c" /></g><g id="5Y02" stroke="red"><polyline points="333,622 333,622 333,622 333,622 333,676 333,731 310,731 269,731 269,731 134,731 134,622 134,622 134,622 224,622 224,622 224,399 317,399 317,224 380,224 380,291 497,291 497,622 497,622" stroke="#6d725c" /></g><g id="5Y04" stroke="red"><polyline points="134,622 134,399 224,399 224,622" stroke="#6d725c" /></g><g id="5Y06" stroke="red"><polyline points="134,378 134,224 224,224 224,378" stroke="#6d725c" /></g><g id="5Y07" stroke="red"><polyline points="113,276 113,624 53,624 53,276" stroke="#6d725c" /></g><g id="5Y08" stroke="red"><polyline points="53,276 53,213 65,213 65,201 113,201 113,276" stroke="#6d725c" /></g></svg>