<?xml version="1.0" encoding="utf-8" ?>
<svg baseProfile="full" height="925" version="1.1" width="800" xmlns="http://www.w3.org/2000/svg" xmlns:ev="http://www.w3.org/2001/xml-events" xmlns:xlink="http://www.w3.org/1999/xlink"><defs /><g id="4Y01" stroke="red"><polyline fill="#ebf7d1" points="154,694 154,694 154,695 153,695 153,696 153,697 153,697 153,698 152,698 152,699 152,699 97,783 97,796 35,796 35,621 57,621 57,624 60,624 60,697 57,697 57,703 114,703 114,701 111,701 111,618 154,618 154,624" stroke="#6d725c" /></g><g id="4Y02" stroke="red"><polyline fill="#ebf7d1" points="154,887 154,825 155,822 156,820 196,759 197,758 197,757 198,757 199,756 200,755 201,755 201,755 202,754 203,754 205,754 338,754 338,887" stroke="#6d725c" /></g><g id="4Y03A" stroke="red"><polyline fill="#ebf7d1" points="694,556 581,556 581,459 582,456 582,452 584,449 586,446 588,443 591,441 594,439 597,438 601,437 604,436 677,436 677,479 694,479 694,547" stroke="#6d725c" /></g><g id="4Y03B" stroke="red"><polyline fill="#ebf7d1" points="694,556 694,547 743,547 743,620 722,620 722,703 581,703 581,556" stroke="#6d725c" /></g><g id="4Y04" stroke="red"><polyline fill="#ebf7d1" points="454,481 452,481 451,481 449,480 448,479 447,478 446,477 445,475 444,474 444,472 444,471 444,315 444,250 444,248 444,246 445,245 446,244 447,242 448,241 449,240 451,240 452,239 454,239 537,239 538,239 540,240 541,240 543,241 544,242 545,244 546,245 546,246 547,248 547,250 547,471 547,472 546,474 546,475 545,477 544,478 543,479 541,480 540,481 538,481 537,481" stroke="#6d725c" /></g><g id="4Y05" stroke="red"><polyline fill="#ebf7d1" points="313,19 496,19 496,62 499,62 499,205 313,205" stroke="#6d725c" /></g><g id="4Y06" stroke="red"><polyline fill="#ebf7d1" points="326,407 325,407 324,406 323,406 322,405 321,405 320,404 320,403 319,402 319,401 319,400 319,239 399,239 401,239 402,240 404,240 405,241 406,242 407,244 408,245 409,246 409,248 409,250 409,396 409,398 409,400 408,401 407,403 406,404 405,405 404,406 402,406 401,407 399,407" stroke="#6d725c" /></g><g id="4Y07" stroke="red"><polyline fill="#ebf7d1" points="154,618 111,618 95,618 95,546 35,546 35,308 93,308 93,285 85,285 85,203 187,203 244,251 244,399 265,399 319,476 319,481 229,618 225,624 154,624" stroke="#6d725c" /></g><g id="4Y09" stroke="red"><polyline fill="#ebf7d1" points="409,754 547,754 552,754 558,753 563,750 567,748 571,744 575,740 578,736 580,731 581,725 581,720 731,720 731,777 747,777 747,887 540,887 478,887 409,887" stroke="#6d725c" /></g><g id="4Y10" stroke="red"><polyline fill="#ebf7d1" points="257,205 257,115 95,115 95,19 313,19 313,205" stroke="#6d725c" /></g><g id="4Y11" stroke="red"><polyline fill="#ebf7d1" points="689,115 660,115 584,115 519,115 519,54 588,54 588,19 743,19 743,115" stroke="#6d725c" /></g><g id="4Y12" stroke="red"><polyline fill="#ebf7d1" points="338,887 338,754 409,754 409,887" stroke="#6d725c" /></g><g id="4Y13" stroke="red"><polyline fill="#ebf7d1" points="743,115 743,412 604,412 600,412 597,411 594,410 591,408 588,406 586,403 584,400 582,397 581,393 581,390 581,229 689,229 689,115" stroke="#6d725c" /></g><g id="4Y14" stroke="red"><polyline fill="#ebf7d1" points="584,115 584,205 519,205 519,115" stroke="#6d725c" /></g></svg>