<?xml version="1.0" encoding="utf-8" ?>
<svg baseProfile="full" height="442" version="1.1" width="800" xmlns="http://www.w3.org/2000/svg" xmlns:ev="http://www.w3.org/2001/xml-events" xmlns:xlink="http://www.w3.org/1999/xlink"><defs /><g id="3Y01" stroke="red"><polyline points="138,391 147,391 147,400 31,400 29,400 27,399 26,398 24,397 23,396 21,394 21,392 20,390 20,388 20,386 37,302 92,302 145,291 145,347 138,347" stroke="#6d725c" /></g><g id="3Y02" stroke="red"><polyline points="172,251 82,270 82,272 44,272 78,100 79,96 86,98 87,85 91,74 96,62 103,52 112,43 122,35 132,29 144,25 156,22 168,21 168,11 172,11 172,100 172,129" stroke="#6d725c" /></g><g id="3Y03" stroke="red"><polyline points="336,20 336,63 419,63 419,79 427,79 427,129 172,129 172,100 172,11 336,11" stroke="#6d725c" /></g><g id="3Y04" stroke="red"><polyline points="568,72 568,129 444,129 444,63 444,20 336,20 336,11 444,11 633,11 633,72" stroke="#6d725c" /></g><g id="3Y05" stroke="red"><polyline points="633,11 679,11 679,38 696,38 696,19 719,19 727,20 734,23 741,26 748,30 753,35 758,41 762,48 765,55 768,62 769,70 769,74 770,74 770,187 698,187 698,104 689,104 689,89 672,89 672,72 633,72" stroke="#6d725c" /></g><g id="3Y06" stroke="red"><polyline points="580,194 636,194 636,200 654,200 654,277 588,277 534,261 534,146 588,146 588,148 580,148" stroke="#6d725c" /></g><g id="3Y07" stroke="red"><polyline points="586,389 369,389 369,347 360,347 360,330 360,274 521,274 586,294" stroke="#6d725c" /></g><g id="3Y08" stroke="red"><polyline points="162,347 162,288 228,274 343,274 343,347" stroke="#6d725c" /></g><g id="3Y09" stroke="red"><polyline points="196,251 196,153 311,153 311,251" stroke="#6d725c" /></g><g id="3Y10" stroke="red"><polyline points="331,188 331,153 510,153 510,188" stroke="#6d725c" /></g></svg>