<?xml version="1.0" encoding="utf-8" ?>
<svg baseProfile="full" height="437" version="1.1" width="800" xmlns="http://www.w3.org/2000/svg" xmlns:ev="http://www.w3.org/2001/xml-events" xmlns:xlink="http://www.w3.org/1999/xlink"><defs /><g id="2A01" stroke="red"><polyline fill="#FFFFFF" points="131,65 118,53 153,18 171,18 171,65" stroke="#6d725c" /></g><g id="2A02" stroke="red"><polyline fill="#FFFFFF" points="124,102 78,93 118,53 131,65" stroke="#6d725c" /></g><g id="2A03" stroke="red"><polyline fill="#FFFFFF" points="171,65 171,18 209,18 209,65" stroke="#6d725c" /></g><g id="2A04" stroke="red"><polyline fill="#FFFFFF" points="171,105 144,105 147,88 147,87 148,87 148,86 148,86 148,86 149,85 149,85 150,85 150,85 151,85 199,85 199,85 200,85 201,85 201,86 201,86 202,86 202,87 202,87 202,88 203,89 203,105" stroke="#6d725c" /></g><g id="2A05" stroke="red"><polyline fill="#FFFFFF" points="209,65 209,18 248,18 248,65" stroke="#6d725c" /></g><g id="2A06" stroke="red"><polyline fill="#FFFFFF" points="242,145 223,145 223,145 222,144 221,144 221,144 220,144 220,143 220,143 220,142 219,142 219,141 219,89 219,88 220,87 220,87 220,86 220,86 221,86 221,85 222,85 223,85 223,85 242,85 242,114 242,115" stroke="#6d725c" /></g><g id="2A07" stroke="red"><polyline fill="#FFFFFF" points="248,65 248,18 286,18 286,65" stroke="#6d725c" /></g><g id="2A08" stroke="red"><polyline fill="#FFFFFF" points="242,115 242,114 242,85 298,85 299,85 299,85 300,85 300,86 301,86 301,86 301,87 302,87 302,88 302,89 302,115" stroke="#6d725c" /></g><g id="2A09" stroke="red"><polyline fill="#FFFFFF" points="286,18 325,18 325,65 286,65" stroke="#6d725c" /></g><g id="2A10" stroke="red"><polyline fill="#FFFFFF" points="319,115 319,89 319,88 319,87 319,87 319,86 320,86 320,86 321,85 321,85 322,85 322,85 364,85 364,115" stroke="#6d725c" /></g><g id="2A12" stroke="red"><polyline fill="#FFFFFF" points="364,115 364,85 409,85 409,115" stroke="#6d725c" /></g><g id="2A14" stroke="red"><polyline fill="#FFFFFF" points="409,115 409,85 455,85 455,115" stroke="#6d725c" /></g><g id="2A15" stroke="red"><polyline fill="#FFFFFF" points="440,65 439,65 439,64 438,64 438,64 437,63 437,63 437,63 437,62 436,61 436,61 436,18 481,18 481,65" stroke="#6d725c" /></g><g id="2A16" stroke="red"><polyline fill="#FFFFFF" points="455,115 455,85 496,85 497,85 498,85 498,85 499,86 499,86 499,86 500,87 500,87 500,88 500,89 500,115" stroke="#6d725c" /></g><g id="2A17" stroke="red"><polyline fill="#FFFFFF" points="481,65 481,18 525,18 525,65" stroke="#6d725c" /></g><g id="2A18" stroke="red"><polyline fill="#FFFFFF" points="521,145 520,145 520,144 519,144 519,144 518,144 518,143 517,143 517,142 517,142 517,141 517,89 517,88 517,87 517,87 518,86 518,86 519,86 519,85 520,85 520,85 521,85 545,85 546,85 546,85 547,85 547,86 548,86 548,86 549,87 549,87 549,88 549,89 549,141 549,142 549,142 549,143 548,143 548,144 547,144 547,144 546,144 546,145 545,145" stroke="#6d725c" /></g><g id="2B01" stroke="red"><polyline fill="#FFFFFF" points="124,102 116,140 66,130 71,107 77,107 77,95 76,95 78,93 124,102" stroke="#6d725c" /></g><g id="2B02" stroke="red"><polyline fill="#FFFFFF" points="109,178 59,168 66,130 116,140" stroke="#6d725c" /></g><g id="2B03" stroke="red"><polyline fill="#FFFFFF" points="140,145 140,145 139,144 138,144 138,144 137,143 137,143 137,142 137,142 137,141 137,140 144,105 171,105 171,145" stroke="#6d725c" /></g><g id="2B05" stroke="red"><polyline fill="#FFFFFF" points="171,105 203,105 203,105 203,141 202,142 202,142 202,143 202,143 201,144 201,144 201,144 200,144 199,145 199,145 171,145" stroke="#6d725c" /></g><g id="2B06" stroke="red"><polyline fill="#FFFFFF" points="131,191 131,191 130,191 129,190 129,190 128,190 128,189 128,188 128,188 128,187 128,186 132,164 132,164 132,164 133,163 133,163 133,162 134,162 134,162 135,162 135,162 136,162 156,162 199,162 199,162 200,162 201,162 201,162 201,163 202,163 202,164 202,164 202,165 203,165 203,187 202,188 202,188 202,189 202,189 201,190 201,190 201,190 200,191 199,191 199,191" stroke="#6d725c" /></g><g id="2B09" stroke="red"><polyline fill="#FFFFFF" points="242,115 302,115 302,141 302,142 302,142 301,143 301,143 301,144 300,144 300,144 299,144 299,145 298,145 242,145" stroke="#6d725c" /></g><g id="2B10" stroke="red"><polyline fill="#FFFFFF" points="223,191 223,191 222,191 221,190 221,190 220,190 220,189 220,189 220,188 219,188 219,187 219,165 219,165 220,164 220,164 220,163 220,163 221,162 221,162 222,162 223,162 223,162 242,162 298,162 299,162 299,162 300,162 300,162 301,163 301,163 301,164 302,164 302,165 302,165 302,187 302,188 302,188 301,189 301,189 301,190 300,190 300,190 299,191 299,191 298,191" stroke="#6d725c" /></g><g id="2B11" stroke="red"><polyline fill="#FFFFFF" points="322,145 322,145 321,144 321,144 320,144 320,144 319,143 319,143 319,142 319,142 319,141 319,115 364,115 364,145" stroke="#6d725c" /></g><g id="2B12" stroke="red"><polyline fill="#FFFFFF" points="319,184 319,165 319,165 319,164 319,164 319,163 320,163 320,162 321,162 321,162 322,162 322,162 379,162 379,184" stroke="#6d725c" /></g><g id="2B13" stroke="red"><polyline fill="#FFFFFF" points="364,145 364,115 409,115 409,145" stroke="#6d725c" /></g><g id="2B14" stroke="red"><polyline fill="#FFFFFF" points="379,184 379,162 440,162 440,184" stroke="#6d725c" /></g><g id="2B15" stroke="red"><polyline fill="#FFFFFF" points="409,145 409,115 455,115 455,145" stroke="#6d725c" /></g><g id="2B16" stroke="red"><polyline fill="#FFFFFF" points="440,162 496,162 497,162 498,162 498,162 499,162 499,163 499,163 500,164 500,164 500,165 500,165 500,184 440,184" stroke="#6d725c" /></g><g id="2B17" stroke="red"><polyline fill="#FFFFFF" points="455,115 500,115 500,141 500,142 500,142 500,143 499,143 499,144 499,144 498,144 498,144 497,145 496,145 455,145" stroke="#6d725c" /></g><g id="2B18" stroke="red"><polyline fill="#FFFFFF" points="521,209 520,209 520,209 519,208 519,208 518,208 518,207 517,207 517,206 517,206 517,205 517,165 517,165 517,164 517,164 518,163 518,163 519,162 519,162 520,162 520,162 521,162 545,162 546,162 546,162 547,162 547,162 548,163 548,163 549,164 549,164 549,165 549,165 549,205 549,206 549,206 549,207 548,207 548,208 547,208 547,208 546,209 546,209 545,209" stroke="#6d725c" /></g><g id="2B20" stroke="red"><polyline fill="#FFFFFF" points="569,232 569,190 625,190 625,195 643,195 643,232" stroke="#6d725c" /></g><g id="2C01" stroke="red"><polyline fill="#FFFFFF" points="100,219 51,210 59,168 109,178" stroke="#6d725c" /></g><g id="2C02" stroke="red"><polyline fill="#FFFFFF" points="94,248 42,248 51,210 100,219" stroke="#6d725c" /></g><g id="2C04" stroke="red"><polyline fill="#FFFFFF" points="117,273 117,273 116,273 116,273 115,272 115,272 114,272 114,271 114,271 114,270 114,269 114,256 114,256 114,256 114,256 114,256 114,256 114,256 114,256 114,256 114,256 114,256 123,211 123,210 123,210 123,209 124,209 124,209 124,208 125,208 125,208 126,208 126,208 160,208 160,273" stroke="#6d725c" /></g><g id="2C06" stroke="red"><polyline fill="#FFFFFF" points="160,208 199,208 199,208 200,208 201,208 201,208 201,209 202,209 202,210 202,210 202,211 203,211 203,269 202,270 202,271 202,271 202,272 201,272 201,272 201,273 200,273 199,273 199,273 160,273" stroke="#6d725c" /></g><g id="2C08" stroke="red"><polyline fill="#FFFFFF" points="223,273 223,273 222,273 221,273 221,272 220,272 220,272 220,271 220,271 219,270 219,269 219,211 219,211 220,210 220,210 220,209 220,209 221,208 221,208 222,208 223,208 223,208 261,208 261,273" stroke="#6d725c" /></g><g id="2C10" stroke="red"><polyline fill="#FFFFFF" points="261,208 298,208 299,208 299,208 300,208 300,208 301,209 301,209 301,210 302,210 302,211 302,211 302,269 302,270 302,271 301,271 301,272 301,272 300,272 300,273 299,273 299,273 298,273 261,273" stroke="#6d725c" /></g><g id="2D02" stroke="red"><polyline fill="#FFFFFF" points="46,299 32,299 33,293 133,293 29,384" stroke="#6d725c" /></g><g id="2D04" stroke="red"><polyline fill="#FFFFFF" points="197,342 197,293 241,293 241,342" stroke="#6d725c" /></g><g id="2D06" stroke="red"><polyline fill="#FFFFFF" points="153,342 153,293 197,293 197,342" stroke="#6d725c" /></g><g id="2D08a" stroke="red"><polyline fill="#FFFFFF" points="241,342 241,293 286,293 286,342" stroke="#6d725c" /></g><g id="2D10a" stroke="red"><polyline fill="#FFFFFF" points="286,293 330,293 330,342 286,342" stroke="#6d725c" /></g><g id="2D11" stroke="red"><polyline fill="#FFFFFF" points="322,273 322,273 321,273 321,273 320,272 320,272 319,272 319,271 319,271 319,270 319,269 319,247 319,247 319,246 319,246 319,245 320,245 320,245 321,244 321,244 322,244 322,244 379,244 379,273" stroke="#6d725c" /></g><g id="2D12" stroke="red"><polyline fill="#FFFFFF" points="350,331 350,293 413,293 413,331" stroke="#6d725c" /></g><g id="2D13" stroke="red"><polyline fill="#FFFFFF" points="379,273 379,244 440,244 440,273" stroke="#6d725c" /></g><g id="2D14" stroke="red"><polyline fill="#FFFFFF" points="477,310 456,331 413,331 413,293 490,293 490,310" stroke="#6d725c" /></g><g id="2D15" stroke="red"><polyline fill="#FFFFFF" points="440,244 500,244 500,269 500,270 500,271 500,271 499,272 499,272 499,272 498,273 498,273 497,273 496,273 440,273" stroke="#6d725c" /></g><g id="2D16" stroke="red"><polyline fill="#FFFFFF" points="490,293 550,293 550,310 490,310" stroke="#6d725c" /></g><g id="2D17" stroke="red"><polyline fill="#FFFFFF" points="521,273 520,273 520,273 519,273 519,272 518,272 518,272 517,271 517,271 517,270 517,269 517,229 517,229 517,228 517,228 518,227 518,227 519,226 519,226 520,226 520,226 521,226 545,226 546,226 546,226 547,226 547,226 548,227 548,227 549,228 549,228 549,229 549,229 549,269 549,270 549,271 549,271 548,272 548,272 547,272 547,273 546,273 546,273 545,273" stroke="#6d725c" /></g><g id="2D18" stroke="red"><polyline fill="#FFFFFF" points="133,293 133,342 127,342 127,384 29,384" stroke="#6d725c" /></g><g id="2D19" stroke="red"><polyline fill="#FFFFFF" points="643,232 643,269 573,269 572,269 572,269 571,269 571,269 570,268 570,268 570,267 569,267 569,266 569,266 569,232" stroke="#6d725c" /></g><g id="2Y02" stroke="red"><polyline fill="#FFFFFF" points="525,18 670,18 670,38 681,30 704,15 704,34 742,70 746,70 746,69 758,69 758,70 759,70 759,182 687,182 687,99 678,99 678,85 569,85 569,65 525,65" stroke="#6d725c" /></g></svg>