<?xml version="1.0" encoding="utf-8" ?>
<svg baseProfile="full" height="437" version="1.1" width="800" xmlns="http://www.w3.org/2000/svg" xmlns:ev="http://www.w3.org/2001/xml-events" xmlns:xlink="http://www.w3.org/1999/xlink"><defs /><g id="1A03" stroke="red"><polyline fill="#ebf7d1" points="264,206 264,173 264,173 265,172 265,172 265,171 266,171 266,170 266,170 267,170 268,170 268,170 321,170 322,170 322,170 323,170 323,170 324,171 324,171 324,172 325,172 325,173 325,173 325,206" stroke="#6d725c" /></g><g id="1A05" stroke="red"><polyline fill="#ebf7d1" points="343,210 343,172 343,171 343,171 343,170 343,170 344,169 344,169 345,168 345,168 346,168 346,168 378,168 378,210" stroke="#6d725c" /></g><g id="1A05a" stroke="red"><polyline fill="#ebf7d1" points="378,210 435,210 435,211 435,233 435,243 346,243 346,243 345,243 345,242 344,242 344,242 343,241 343,241 343,240 343,239 343,239 343,210 378,210" stroke="#6d725c" /></g><g id="1B01b" stroke="red"><polyline fill="#ebf7d1" points="235,270 234,273 233,277 232,280 230,283 228,286 225,288 222,290 219,291 215,292 212,292 198,292 195,292 193,292 190,292 187,291 185,291 182,290 180,289 177,289 175,288 173,286 123,262 73,251 85,196 235,229" stroke="#6d725c" /></g><g id="1B01c" stroke="red"><polyline fill="#ebf7d1" points="85,196 100,132 103,124 131,131 222,179 224,180 226,181 227,182 229,184 230,185 231,187 232,189 233,191 234,193 235,194 235,229" stroke="#6d725c" /></g><g id="1B08" stroke="red"><polyline fill="#ebf7d1" points="325,206 325,239 325,240 325,240 324,241 324,241 324,242 323,242 323,243 322,243 322,243 321,243 264,243 264,206" stroke="#6d725c" /></g><g id="1B10" stroke="red"><polyline fill="#ebf7d1" points="378,210 378,210 378,168 435,168 435,210" stroke="#6d725c" /></g><g id="1B14" stroke="red"><polyline fill="#ebf7d1" points="435,210 435,168 531,168 531,168 532,168 532,168 533,169 533,169 534,170 534,170 534,171 534,171 534,172 534,207 534,208 534,208 534,209 534,209 533,210 533,210 532,211 532,211 531,211 531,211 435,211" stroke="#6d725c" /></g><g id="1C02" stroke="red"><polyline fill="#ebf7d1" points="261,292 260,292 260,292 259,292 259,292 259,291 259,291 258,290 258,290 258,290 258,266 258,266 258,265 259,265 259,264 259,264 260,263 260,263 261,263 261,263 262,263 319,263 319,263 320,263 320,263 321,263 321,264 322,264 322,265 322,265 322,266 322,266 322,289 322,289 322,290 322,290 322,291 321,291 321,292 320,292 320,292 319,292 319,292 262,292 262,292 262,292 262,292 262,292 262,292 261,292 261,292 261,292 261,292 261,292" stroke="#6d725c" /></g><g id="1D02" stroke="red"><polyline fill="#ebf7d1" points="134,324 99,324 99,292 134,308" stroke="#6d725c" /></g><g id="1D06" stroke="red"><polyline fill="#ebf7d1" points="134,308 183,317 183,409 156,409 156,324 134,324" stroke="#6d725c" /></g><g id="1D08" stroke="red"><polyline fill="#ebf7d1" points="272,368 203,368 203,318 272,318" stroke="#6d725c" /></g><g id="1D10" stroke="red"><polyline fill="#ebf7d1" points="272,368 272,318 354,318 354,368" stroke="#6d725c" /></g><g id="1D11" stroke="red"><polyline fill="#ebf7d1" points="346,292 346,292 345,292 345,292 344,292 344,291 343,291 343,290 343,290 343,289 343,289 343,268 343,267 343,266 343,266 343,265 344,265 344,265 345,264 345,264 346,264 346,264 435,264 435,292" stroke="#6d725c" /></g><g id="1D12" stroke="red"><polyline fill="#ebf7d1" points="394,409 354,409 354,368 354,318 354,318 394,318 394,359" stroke="#6d725c" /></g><g id="1D13" stroke="red"><polyline fill="#ebf7d1" points="435,292 435,264 435,243 435,233 490,233 490,292" stroke="#6d725c" /></g><g id="1D14" stroke="red"><polyline fill="#ebf7d1" points="394,359 394,318 456,318 456,359" stroke="#6d725c" /></g><g id="1D15" stroke="red"><polyline fill="#ebf7d1" points="490,233 531,233 531,234 532,234 532,234 533,234 533,235 534,235 534,235 534,236 534,237 534,237 534,289 534,289 534,290 534,290 534,291 533,291 533,292 532,292 532,292 531,292 531,292 490,292" stroke="#6d725c" /></g><g id="1D16" stroke="red"><polyline fill="#ebf7d1" points="456,359 456,318 497,318 497,359" stroke="#6d725c" /></g><g id="1D17" stroke="red"><polyline fill="#ebf7d1" points="558,276 558,215 597,215 601,215 601,276" stroke="#6d725c" /></g><g id="1D18" stroke="red"><polyline fill="#ebf7d1" points="497,359 497,318 548,318 548,359" stroke="#6d725c" /></g><g id="1D20" stroke="red"><polyline fill="#ebf7d1" points="548,318 623,318 623,373 605,373 605,359 548,359" stroke="#6d725c" /></g><g id="1D23" stroke="red"><polyline fill="#ebf7d1" points="431,85 433,85 433,48 444,48 444,43 516,43 516,149 431,149" stroke="#6d725c" /></g><g id="1Y01A" stroke="red"><polyline fill="#ebf7d1" points="562,99 562,43 603,43 603,99" stroke="#6d725c" /></g><g id="1Y01B" stroke="red"><polyline fill="#ebf7d1" points="558,215 558,121 605,121 605,122 605,122 605,171 597,171 597,215" stroke="#6d725c" /></g><g id="1Y02" stroke="red"><polyline fill="#ebf7d1" points="603,43 688,43 688,48 694,48 694,59 697,59 709,55 709,59 713,59 713,55 712,55 712,49 732,38 732,59 732,61 734,63 714,84 714,128 709,128 709,123 706,123 706,110 689,110 689,125 676,125 676,110 603,110 603,99" stroke="#6d725c" /></g><g id="1Y03" stroke="red"><polyline fill="#ebf7d1" points="601,215 696,215 696,276 601,276" stroke="#6d725c" /></g><g id="1Y05" stroke="red"><polyline fill="#ebf7d1" points="431,149 270,149 270,43 353,43 353,85 431,85" stroke="#6d725c" /></g><g id="1Y06" stroke="red"><polyline fill="#ebf7d1" points="226,149 187,68 187,48 190,48 190,43 270,43 270,149" stroke="#6d725c" /></g></svg>