<?xml version="1.0" encoding="utf-8" ?>
<svg baseProfile="full" height="437" version="1.1" width="800" xmlns="http://www.w3.org/2000/svg" xmlns:ev="http://www.w3.org/2001/xml-events" xmlns:xlink="http://www.w3.org/1999/xlink"><defs /><g id="4W01a" stroke="red"><polyline fill="#FFFFFF" points="360,276 358,276 356,276 354,275 353,274 352,273 350,272 350,270 349,269 348,267 348,265 348,254 527,254 527,265 527,267 527,269 526,270 525,272 524,273 522,274 521,275 519,276 518,276 516,276" stroke="#6d725c" /></g><g id="4Y01b" stroke="red"><polyline fill="#FFFFFF" points="352,119 346,119 341,120 335,121 330,124 325,128 321,132 318,136 315,142 314,147 313,153 83,153 93,104 99,106 101,94 104,82 109,72 116,62 123,53 132,45 142,38 153,34 164,30 176,28 176,33 186,33 186,23 183,23 183,18 352,18 352,71" stroke="#6d725c" /></g><g id="4Y02b" stroke="red"><polyline fill="#FFFFFF" points="313,153 313,268 313,269 313,270 312,271 312,272 311,273 310,273 309,274 308,274 307,275 306,275 58,275 83,153" stroke="#6d725c" /></g><g id="4Y04a" stroke="red"><polyline fill="#FFFFFF" points="563,194 562,194 352,194 352,119 352,119 352,71 462,71 462,28 650,28 692,28 692,33 698,33 698,97 692,97 679,97 605,97 605,108 604,108 604,119 607,119 607,158 599,158 599,175 599,194" stroke="#6d725c" /></g><g id="4Y04b" stroke="red"><polyline fill="#FFFFFF" points="563,194 599,194 599,203 656,203 656,209 674,209 674,284 597,284 591,283 586,282 581,280 577,277 572,274 569,269 566,265 564,260 563,255 562,249 562,194" stroke="#6d725c" /></g><g id="4Y05" stroke="red"><polyline fill="#FFFFFF" points="153,357 153,403 161,402 161,411 44,411 42,411 40,410 38,409 37,408 35,407 34,405 33,403 33,401 33,399 33,397 50,317 50,317 58,317 58,312 102,312 102,309 263,309 348,309 348,357" stroke="#6d725c" /></g><g id="4Y08" stroke="red"><polyline fill="#FFFFFF" points="348,309 605,309 605,400 386,400 386,357 348,357" stroke="#6d725c" /></g></svg>