<?xml version="1.0" encoding="utf-8" ?>
<svg baseProfile="full" height="437" version="1.1" width="800" xmlns="http://www.w3.org/2000/svg" xmlns:ev="http://www.w3.org/2001/xml-events" xmlns:xlink="http://www.w3.org/1999/xlink"><defs /><g id="5Y01" stroke="red"><polyline fill="#ebf7d1" points="706,96 614,96 614,116 616,116 616,185 608,185 608,201 664,201 664,207 688,207 688,201 715,201 715,291 736,291 736,396 707,396 707,327 722,327 722,320 709,320 709,301 614,301 614,396 397,396 397,354 166,354 166,398 175,398 175,407 59,407 57,407 55,406 54,405 52,404 51,403 49,401 49,399 48,397 48,395 48,393 107,103 114,105 115,92 119,81 124,69 131,59 140,50 150,42 160,36 172,32 184,29 196,28 196,18 364,18 364,71 472,71 472,18 659,18 659,28 706,28 706,32" stroke="#6d725c" /></g></svg>