<?xml version="1.0" encoding="utf-8" ?>
<svg baseProfile="full" height="442" version="1.1" width="800" xmlns="http://www.w3.org/2000/svg" xmlns:ev="http://www.w3.org/2001/xml-events" xmlns:xlink="http://www.w3.org/1999/xlink"><defs /><g id="3Y01a" stroke="red"><polyline points="639,89 586,89 586,111 588,111 588,148 580,148 580,194 636,194 636,200 654,200 654,274 687,274 687,294 586,294 586,389 369,389 369,347 250,347 250,72 336,72 336,72 336,63 444,63 444,11 639,11 639,72" stroke="#6d725c" /></g><g id="3Y02" stroke="red"><polyline points="250,72 250,72 250,347 138,347 138,391 147,391 147,400 31,400 29,400 27,399 26,398 24,397 23,396 21,394 21,392 20,390 20,388 20,386 79,96 86,98 87,86 91,75 95,64 102,54 110,45 118,38 128,31 139,26 150,23 162,21 162,26 172,26 172,16 168,16 168,11 336,11 336,72" stroke="#6d725c" /></g><g id="3Y03" stroke="red"><polyline points="715,72 715,72 639,72 639,11 688,11 688,17 679,17 679,38 696,38 696,19 719,19 727,20 734,23 741,26 748,30 753,35 758,41 762,48 765,55 768,62 769,70 769,72" stroke="#6d725c" /></g><g id="3Y04" stroke="red"><polyline points="769,72 769,72 770,72 770,187 715,187 715,72" stroke="#6d725c" /></g></svg>