<?xml version="1.0" encoding="utf-8" ?>
<svg baseProfile="full" height="498" version="1.1" width="800" xmlns="http://www.w3.org/2000/svg" xmlns:ev="http://www.w3.org/2001/xml-events" xmlns:xlink="http://www.w3.org/1999/xlink"><defs /><g id="3A01" stroke="red"><polyline fill="#FFFFFF" points="250,401 180,401 191,401 180,401 180,380 250,380" stroke="#6d725c" /></g><g id="3A02" stroke="red"><polyline fill="#FFFFFF" points="316,424 250,424 250,410 250,401 250,380 316,380" stroke="#6d725c" /></g><g id="3A03" stroke="red"><polyline fill="#FFFFFF" points="208,359 208,346 249,346 249,359" stroke="#6d725c" /></g><g id="3A04" stroke="red"><polyline fill="#FFFFFF" points="260,359 260,346 281,346 281,359" stroke="#6d725c" /></g><g id="3A05" stroke="red"><polyline fill="#FFFFFF" points="208,242 208,229 281,229 281,239 279,239 279,242" stroke="#6d725c" /></g><g id="3A06" stroke="red"><polyline fill="#FFFFFF" points="334,212 280,212 280,176 273,176 273,175 273,167 334,167" stroke="#6d725c" /></g><g id="3A07A" stroke="red"><polyline fill="#FFFFFF" points="235,212 201,212 201,163 221,163 233,175 235,175" stroke="#6d725c" /></g><g id="3A07B" stroke="red"><polyline fill="#FFFFFF" points="235,175 271,175 271,186 280,186 280,212 235,212" stroke="#6d725c" /></g><g id="3A09" stroke="red"><polyline fill="#FFFFFF" points="161,212 161,163 201,163 201,212" stroke="#6d725c" /></g><g id="3A10A" stroke="red"><polyline fill="#FFFFFF" points="107,212 107,186 110,186 110,176 85,176 85,163 161,163 161,212" stroke="#6d725c" /></g><g id="3A10B" stroke="red"><polyline fill="#FFFFFF" points="44,289 44,285 44,285 44,236 48,236 48,234 99,234 99,239 108,239 108,289" stroke="#6d725c" /></g><g id="3A10C" stroke="red"><polyline fill="#FFFFFF" points="108,323 44,323 44,289 108,289" stroke="#6d725c" /></g><g id="3A10D" stroke="red"><polyline fill="#FFFFFF" points="180,401 180,410 191,410 191,410 241,410 250,410 250,424 135,424 135,425 107,425 107,410 108,410 108,408 152,408 152,410 161,410 161,401 161,401 161,384 119,384 119,380 180,380 180,401" stroke="#6d725c" /></g><g id="3A10E" stroke="red"><polyline fill="#FFFFFF" points="152,346 196,346 196,359 152,359" stroke="#6d725c" /></g><g id="3A10F" stroke="red"><polyline fill="#FFFFFF" points="152,359 129,359 129,274 153,274 153,340 152,340 152,346" stroke="#6d725c" /></g><g id="3A10G" stroke="red"><polyline fill="#FFFFFF" points="152,248 153,248 153,263 129,263 129,229 152,229 152,242" stroke="#6d725c" /></g><g id="3A10H" stroke="red"><polyline fill="#FFFFFF" points="152,229 196,229 196,242 152,242" stroke="#6d725c" /></g><g id="3A10J" stroke="red"><polyline fill="#FFFFFF" points="44,425 44,418 44,418 44,356 108,356 108,384 106,384 106,425" stroke="#6d725c" /></g><g id="3B01" stroke="red"><polyline fill="#FFFFFF" points="374,424 316,424 316,380 374,380 374,380" stroke="#6d725c" /></g><g id="3B02" stroke="red"><polyline fill="#FFFFFF" points="441,425 441,425 387,425 387,424 374,424 374,424 374,380 441,380 441,380" stroke="#6d725c" /></g><g id="3B03A" stroke="red"><polyline fill="#FFFFFF" points="312,359 312,229 365,229 365,359" stroke="#6d725c" /></g><g id="3B03B" stroke="red"><polyline fill="#FFFFFF" points="447,294 447,359 382,359 382,294" stroke="#6d725c" /></g><g id="3B03C" stroke="red"><polyline fill="#FFFFFF" points="382,294 382,262 415,262 447,262 447,294" stroke="#6d725c" /></g><g id="3B03D" stroke="red"><polyline fill="#FFFFFF" points="382,262 382,229 415,229 415,262" stroke="#6d725c" /></g><g id="3B03E" stroke="red"><polyline fill="#FFFFFF" points="415,262 415,229 447,229 447,262" stroke="#6d725c" /></g><g id="3B04" stroke="red"><polyline fill="#FFFFFF" points="387,182 387,182 443,182 443,174 450,180 450,181 447,184 447,212 387,212" stroke="#6d725c" /></g><g id="3B05" stroke="red"><polyline fill="#FFFFFF" points="387,212 387,212 334,212 334,167 343,167 343,174 359,174 359,182 387,182" stroke="#6d725c" /></g><g id="3C01" stroke="red"><polyline fill="#FFFFFF" points="478,424 476,424 475,425 473,425 472,425 471,425 469,425 468,425 467,425 465,425 464,425 441,425 441,380 478,380" stroke="#6d725c" /></g><g id="3C02A" stroke="red"><polyline fill="#FFFFFF" points="564,369 516,321 534,303 560,330 557,333 573,348 570,352 573,355 575,353 577,356 564,369" stroke="#6d725c" /></g><g id="3C02B" stroke="red"><polyline fill="#FFFFFF" points="539,394 510,365 511,364 512,362 513,360 514,359 515,357 515,355 516,353 516,351 516,349 516,347 516,321 564,369 564,369" stroke="#6d725c" /></g><g id="3C02C" stroke="red"><polyline fill="#FFFFFF" points="533,399 528,403 523,407 518,410 513,413 507,416 501,418 496,420 490,422 484,423 478,424 478,380 483,380 484,380 485,380 485,380 486,380 486,379 487,379 488,379 488,379 489,379 489,378 502,372 503,371 504,371 505,370 505,369 506,369 507,368 508,367 508,367 509,366 510,365 539,394" stroke="#6d725c" /></g><g id="3C03" stroke="red"><polyline fill="#FFFFFF" points="475,359 474,359 473,358 472,358 471,357 470,357 470,356 469,355 469,354 468,353 468,352 468,314 468,313 469,312 469,311 470,310 470,309 471,309 472,308 473,308 474,307 475,307 488,307 489,307 490,308 491,308 492,309 493,309 494,310 494,311 495,312 495,313 495,314 495,340 495,343 494,345 493,347 492,350 491,352 489,353 487,355 485,356 483,357 480,358 480,358 480,358 479,358 479,358 479,358 478,358 478,359 477,359 477,359 477,359" stroke="#6d725c" /></g><g id="3C05A" stroke="red"><polyline fill="#FFFFFF" points="468,237 468,193 493,168 511,168 511,237" stroke="#6d725c" /></g><g id="3C05B" stroke="red"><polyline fill="#FFFFFF" points="511,237 511,268 514,268 514,283 514,284 513,285 513,286 512,287 512,288 511,289 510,289 509,290 508,290 507,290 475,290 474,290 473,290 472,289 471,289 470,288 470,287 469,286 469,285 468,284 468,283 468,237" stroke="#6d725c" /></g><g id="3C06" stroke="red"><polyline fill="#FFFFFF" points="629,248 685,248 625,308 618,301 613,306 599,291 571,319 544,292 561,276 562,275 562,274 563,273 564,271 565,270 565,269 565,267 566,266 566,264 566,263 566,163 618,163 618,193 629,193" stroke="#6d725c" /></g><g id="3C08" stroke="red"><polyline fill="#FFFFFF" points="593,151 592,151 592,151 516,151 492,133 474,116 489,101 493,105 493,123 498,123 498,106 510,94 507,90 496,101 492,98 530,61 531,60 531,60 574,17 577,20 562,35 566,38 541,63 538,59 532,65 538,71 540,69 554,83 562,75 617,131 617,151 593,151" stroke="#6d725c" /></g></svg>