<?xml version="1.0" encoding="utf-8" ?>
<svg baseProfile="full" height="636" version="1.1" width="800" xmlns="http://www.w3.org/2000/svg" xmlns:ev="http://www.w3.org/2001/xml-events" xmlns:xlink="http://www.w3.org/1999/xlink"><defs /><g id="5Y01" stroke="red"><polyline fill="#ebf7d1" points="364,196 364,207 364,234 330,234 295,258 294,258 294,271 262,271 221,271 221,278 224,278 224,379 221,379 221,385 260,385 274,385 295,385 295,390 354,390 354,474 354,474 103,474 103,455 103,428 103,198 79,198 79,183 229,183 243,197 287,197 287,188 364,188 364,196" stroke="#6d725c" /></g><g id="5Y02" stroke="red"><polyline fill="#ebf7d1" points="364,196 381,196 381,205 475,205 489,219 493,214 498,220 498,226 498,227 498,229 497,230 497,231 496,232 495,233 494,233 493,234 492,234 490,234 364,234 364,207" stroke="#6d725c" /></g><g id="5Y03" stroke="red"><polyline fill="#ebf7d1" points="680,142 680,192 680,201 670,201 670,216 606,216 606,192 606,189 604,185 603,182 601,180 598,177 596,175 593,174 589,172 586,172 583,171 559,171 547,161 547,140 549,140 549,126 579,96 597,114 625,86" stroke="#6d725c" /></g><g id="5Y04" stroke="red"><polyline fill="#ebf7d1" points="670,251 680,251 680,277 743,277 676,344 668,336 663,341 647,326 616,356 588,328 596,319 598,317 600,314 601,312 602,309 604,306 605,303 605,300 606,297 606,294 606,291 606,226 670,226" stroke="#6d725c" /></g><g id="5Y05" stroke="red"><polyline fill="#ebf7d1" points="465,387 479,387 487,385 496,383 505,381 513,378 522,375 530,371 538,367 546,362 553,357 560,352 561,352 562,351 563,350 564,349 565,348 566,347 568,346 569,345 570,344 571,343 572,342 579,349 583,345 605,367 601,371 619,389 615,393 618,396 620,394 623,397 580,440 574,445 568,450 561,455 554,459 546,463 538,466 530,469 522,471 514,472 506,473 497,474 479,474 465,474 465,474" stroke="#6d725c" /></g><g id="5Y06" stroke="red"><polyline fill="#ebf7d1" points="465,474 354,474 354,390 354,387 465,387" stroke="#6d725c" /></g><g id="5Y07" stroke="red"><polyline fill="#ebf7d1" points="331,365 331,343 331,343 331,262 338,258 490,258 492,258 493,258 494,259 495,259 496,260 497,261 497,262 498,263 498,264 498,266 498,334 498,339 497,344 495,348 492,352 489,356 485,359 481,362 476,364 472,365 467,365 344,365" stroke="#6d725c" /></g><g id="5Y09" stroke="red"><polyline fill="#ebf7d1" points="541,322 522,302 522,189 551,189 551,305 554,309" stroke="#6d725c" /></g></svg>