<?xml version="1.0" encoding="utf-8" ?>
<svg baseProfile="full" height="459" version="1.1" width="800" xmlns="http://www.w3.org/2000/svg" xmlns:ev="http://www.w3.org/2001/xml-events" xmlns:xlink="http://www.w3.org/1999/xlink"><defs /><g id="2A01" stroke="red"><polyline points="90,470 21,470 21,393 93,393 93,424 90,424" stroke="#6d725c" /></g><g id="2A03" stroke="red"><polyline points="93,322 93,357 21,357 21,322" stroke="#6d725c" /></g><g id="2A04A" stroke="red"><polyline points="116,330 116,264 141,264 141,330" stroke="#6d725c" /></g><g id="2A04B" stroke="red"><polyline points="141,396 116,396 116,330 141,330 141,381" stroke="#6d725c" /></g><g id="2A04C" stroke="red"><polyline points="141,381 189,381 189,396 141,396" stroke="#6d725c" /></g><g id="2A06" stroke="red"><polyline points="149,228 129,228 129,203 94,203 94,194 66,194 66,179 149,179" stroke="#6d725c" /></g><g id="2B01A" stroke="red"><polyline points="151,470 151,420 224,420 224,470" stroke="#6d725c" /></g><g id="2B01B" stroke="red"><polyline points="224,470 224,420 249,420 249,470" stroke="#6d725c" /></g><g id="2B02" stroke="red"><polyline points="249,470 249,420 291,420 319,420 319,470" stroke="#6d725c" /></g><g id="2B03" stroke="red"><polyline points="206,396 206,385 207,385 207,382 248,381 248,396" stroke="#6d725c" /></g><g id="2B04" stroke="red"><polyline points="259,396 259,382 283,382 283,396" stroke="#6d725c" /></g><g id="2C01" stroke="red"><polyline points="390,470 319,470 319,420 390,420" stroke="#6d725c" /></g><g id="2C02" stroke="red"><polyline points="390,470 390,420 452,420 452,470" stroke="#6d725c" /></g><g id="2C03" stroke="red"><polyline points="354,324 362,324 362,396 342,396 319,396 319,324" stroke="#6d725c" /></g><g id="2C04" stroke="red"><polyline points="381,396 381,324 425,324 425,396" stroke="#6d725c" /></g><g id="2C05" stroke="red"><polyline points="354,324 319,324 319,261 319,260 319,258 320,257 320,256 321,255 322,254 324,253 325,253 326,252 328,252 362,252 362,324" stroke="#6d725c" /></g><g id="2C06B" stroke="red"><polyline points="381,324 381,303 425,303 425,324" stroke="#6d725c" /></g><g id="2C08" stroke="red"><polyline points="425,303 381,303 381,252 425,252 425,288" stroke="#6d725c" /></g><g id="2C10A" stroke="red"><polyline points="274,248 274,184 318,184 318,233" stroke="#6d725c" /></g><g id="2C10B" stroke="red"><polyline points="372,233 318,233 318,184 352,184 352,192 369,192 369,201 372,201" stroke="#6d725c" /></g><g id="2D01" stroke="red"><polyline points="484,470 452,470 452,420 484,420 484,470" stroke="#6d725c" /></g><g id="2D02A" stroke="red"><polyline points="572,432 568,435 564,439 560,443 556,446 551,449 547,452 542,455 537,457 532,460 527,462 523,463 519,465 515,466 511,467 506,468 502,468 497,469 493,469 489,470 484,470 484,420 504,420 506,420 507,420 508,419 510,419 511,419 512,419 514,419 515,418 516,418 517,417 522,416 525,416 527,415 530,414 532,413 535,412 537,411 539,409 542,408 544,406 546,404 573,431" stroke="#6d725c" /></g><g id="2D02B" stroke="red"><polyline points="546,404 546,404 547,404 547,404 547,403 547,403 548,403 548,402 548,402 549,402 549,402 575,376 601,402 573,431" stroke="#6d725c" /></g><g id="2D03" stroke="red"><polyline points="372,201 463,201 463,192 468,197 469,197 469,198 469,233 372,233" stroke="#6d725c" /></g><g id="2D04" stroke="red"><polyline points="497,396 497,396 496,396 496,395 495,395 495,394 494,394 494,393 494,393 494,392 494,371 494,362 494,345 494,345 494,345 494,345 494,345 494,344 494,344 495,344 495,344 495,344 495,344 521,344 523,344 524,344 526,344 527,345 529,345 530,346 531,346 533,347 534,348 535,349 546,360 547,361 547,362 548,363 548,364 548,366 548,367 548,368 547,369 546,370 546,371 546,371 546,372 546,372 545,372 545,372 545,372 545,372 545,372 545,372 545,372 525,392 524,393 524,393 523,394 522,395 521,395 520,395 519,396 518,396 517,396 516,396 498,396 498,396 498,396 498,396 498,396 498,396 498,396 498,396 498,396 498,396 498,396" stroke="#6d725c" /></g><g id="2D05" stroke="red"><polyline points="425,324 469,324 469,396 425,396" stroke="#6d725c" /></g><g id="2D06A" stroke="red"><polyline points="512,293 512,299 516,303 494,303 494,274 518,274 518,293" stroke="#6d725c" /></g><g id="2D06B" stroke="red"><polyline points="539,307 539,321 539,321 539,322 539,322 539,323 538,323 538,324 538,324 537,325 536,325 536,325 498,325 497,325 497,325 496,324 496,324 495,323 495,323 494,322 494,322 494,321 494,321 494,303 516,303 512,299 512,293 518,293 518,296 533,311 537,307" stroke="#6d725c" /></g><g id="2D06C" stroke="red"><polyline points="537,307 523,294 523,274 539,274 539,307" stroke="#6d725c" /></g><g id="2D07" stroke="red"><polyline points="425,324 425,303 425,288 469,288 469,324" stroke="#6d725c" /></g><g id="2D08A" stroke="red"><polyline points="494,233 494,219 494,213 496,206 499,200 502,194 506,189 512,184 517,181 524,178 530,177 537,176 539,176 539,233" stroke="#6d725c" /></g><g id="2D08B" stroke="red"><polyline points="523,274 518,274 494,274 494,233 539,233 539,274" stroke="#6d725c" /></g><g id="2D09" stroke="red"><polyline points="425,288 425,252 469,252 469,288" stroke="#6d725c" /></g><g id="2D10" stroke="red"><polyline points="519,150 516,147 512,142 518,136 523,136 523,116 537,103 530,95 556,69 582,95 580,97 580,150" stroke="#6d725c" /></g><g id="2E01" stroke="red"><polyline points="668,197 731,197 731,180 744,180 759,194 759,216 744,231 739,231 739,233 741,233 741,246 731,246 731,211 729,211 729,213 668,213 668,273 730,273 664,340 656,332 650,337 635,322 612,344 606,338 606,337 606,337 605,336 605,336 605,335 604,335 604,334 604,334 604,333 604,332 604,105 620,90 668,138" stroke="#6d725c" /></g><g id="2Y01" stroke="red"><polyline points="21,322 21,258 93,258 93,322" stroke="#6d725c" /></g></svg>