<?xml version="1.0" encoding="utf-8" ?>
<svg baseProfile="full" height="498" version="1.1" width="800" xmlns="http://www.w3.org/2000/svg" xmlns:ev="http://www.w3.org/2001/xml-events" xmlns:xlink="http://www.w3.org/1999/xlink"><defs /><g id="4A03A" stroke="red"><polyline points="54,420 103,420 103,468 35,468 35,461 35,461 35,420" stroke="#6d725c" /></g><g id="4A03E" stroke="red"><polyline points="155,398 155,398 134,398 134,357 155,357 155,380" stroke="#6d725c" /></g><g id="4A05A" stroke="red"><polyline points="35,420 35,392 54,392 54,420" stroke="#6d725c" /></g><g id="4A05B" stroke="red"><polyline points="66,368 79,368 92,368 92,405 66,405 66,368 66,368" stroke="#6d725c" /></g><g id="4A05E" stroke="red"><polyline points="134,357 134,296 155,296 155,357" stroke="#6d725c" /></g><g id="4A07B" stroke="red"><polyline points="92,368 79,368 66,368 66,346 92,346 92,359" stroke="#6d725c" /></g><g id="4A08" stroke="red"><polyline points="164,178 164,233 129,233 129,218 105,218 105,193 80,193 80,178 164,178 164,178" stroke="#6d725c" /></g><g id="4A09B" stroke="red"><polyline points="66,334 66,312 92,312 92,334" stroke="#6d725c" /></g><g id="4A09C" stroke="red"><polyline points="92,346 92,346 92,346 118,346 118,405 92,405 92,359" stroke="#6d725c" /></g><g id="4A11B" stroke="red"><polyline points="92,312 66,312 66,312 66,290 92,290 92,312" stroke="#6d725c" /></g><g id="4A13A" stroke="red"><polyline points="54,326 35,326 35,256 54,256 54,278" stroke="#6d725c" /></g><g id="4A15E" stroke="red"><polyline points="155,289 134,289 134,252 155,252 155,266 155,266" stroke="#6d725c" /></g><g id="4A17C" stroke="red"><polyline points="92,312 92,290 118,290 118,334 92,334" stroke="#6d725c" /></g><g id="4A19B" stroke="red"><polyline points="54,256 105,256 105,278 54,278" stroke="#6d725c" /></g><g id="4B01" stroke="red"><polyline points="205,468 164,468 164,422 205,422 205,422" stroke="#6d725c" /></g><g id="4B02" stroke="red"><polyline points="246,468 205,468 205,422 209,422 209,422 209,422 209,422 209,422 241,422 241,422 241,422 241,422 246,422" stroke="#6d725c" /></g><g id="4B02A" stroke="red"><polyline points="273,399 273,381 297,381 297,399" stroke="#6d725c" /></g><g id="4B02B" stroke="red"><polyline points="286,468 246,468 246,422 250,422 250,422 250,422 250,422 251,422 281,422 282,422 282,422 282,422 282,422 286,422" stroke="#6d725c" /></g><g id="4B03" stroke="red"><polyline points="155,380 204,380 204,398 155,398" stroke="#6d725c" /></g><g id="4B04" stroke="red"><polyline points="222,399 222,381 262,381 262,399" stroke="#6d725c" /></g><g id="4B05" stroke="red"><polyline points="155,252 203,252 203,266 155,266" stroke="#6d725c" /></g><g id="4B06" stroke="red"><polyline points="223,266 223,252 297,252 297,262 295,262 295,266 241,266" stroke="#6d725c" /></g><g id="4B07" stroke="red"><polyline points="221,233 221,233 221,233 168,233 164,233 164,178 164,178 221,178 221,178" stroke="#6d725c" /></g><g id="4B08A" stroke="red"><polyline points="251,233 221,233 221,178 231,178 244,192 251,192" stroke="#6d725c" /></g><g id="4B08B" stroke="red"><polyline points="251,233 251,192 286,192 286,233" stroke="#6d725c" /></g><g id="4C01" stroke="red"><polyline points="328,468 328,422 333,422 333,422 333,422 371,422 371,468" stroke="#6d725c" /></g><g id="4C02" stroke="red"><polyline points="371,468 371,422 410,422 410,422 415,422 415,422 415,468" stroke="#6d725c" /></g><g id="4C04" stroke="red"><polyline points="366,192 366,233 286,233 286,192 288,192 288,183 366,183 366,191 366,191" stroke="#6d725c" /></g><g id="4D02" stroke="red"><polyline points="526,465 526,465 526,465 526,465 526,465 526,465 526,465 526,465 526,465 526,465 523,466 521,466 518,467 515,467 513,468 510,468 507,468 504,468 502,468 499,468 415,468 415,468 415,422 415,422 420,422 420,422 420,422 420,422 490,422 492,422 494,422 495,422 497,422 499,422 501,422 503,421 504,421 506,421 508,420 508,420 508,420 508,420 508,420 508,420 508,420 508,420 508,420 508,420 508,420 508,420 508,420 508,420 508,420 508,420 508,420 508,420 508,421 508,421 508,421 508,421 508,421 508,421 508,421 508,421 508,421 508,421 508,421 508,421 508,421 508,421 508,421 508,421 508,421 508,421 508,421 508,420 508,420 508,420 508,420 509,420 509,420 510,420 510,420 511,420 511,420 512,420 512,419 512,419 513,419 526,465" stroke="#6d725c" /></g><g id="4D04" stroke="red"><polyline points="429,399 429,252 482,252 482,399" stroke="#6d725c" /></g><g id="4D06" stroke="red"><polyline points="366,192 366,191 383,191 383,200 477,200 477,233 366,233" stroke="#6d725c" /></g><g id="4E01A" stroke="red"><polyline points="586,431 581,436 576,440 570,445 564,449 559,452 552,456 546,459 540,461 533,463 526,465 526,465 513,419 513,419 514,419 514,419 515,419 515,418 516,418 516,418 517,418 517,418 517,418 517,418 517,418 517,418 517,418 517,418 517,418 517,418 517,418 517,418 517,418 520,417 523,416 525,415 527,414 530,412 532,411 534,409 536,408 539,406 541,404 551,395 586,430" stroke="#6d725c" /></g><g id="4E03" stroke="red"><polyline points="515,389 513,389 511,388 510,387 508,386 507,385 506,383 506,381 505,380 505,378 505,289 505,269 505,210 531,184 552,184 552,357 552,358 552,359 552,360 552,361 551,362 551,363 550,364 550,365 549,366 548,366 535,378 524,387 524,387 523,388 522,388 522,389 521,389 520,389 519,389 518,390 518,390 517,390" stroke="#6d725c" /></g><g id="4E04" stroke="red"><polyline points="670,188 670,197 670,210 682,210 682,272 704,272 744,272 716,300 678,338 670,331 664,336 648,320 619,350 615,354 595,333 595,317 612,300 612,188 635,188" stroke="#6d725c" /></g><g id="4E06" stroke="red"><polyline points="635,188 635,175 642,168 642,125 648,120 670,142 670,188" stroke="#6d725c" /></g><g id="4Y04" stroke="red"><polyline points="332,399 332,252 415,252 415,399" stroke="#6d725c" /></g><g id="4Y06" stroke="red"><polyline points="328,468 286,468 286,422 291,422 291,422 291,422 291,422 291,422 323,422 323,422 323,422 323,422 328,422" stroke="#6d725c" /></g><g id="4Y10" stroke="red"><polyline points="551,395 570,379 593,354 592,354 595,351 607,362 603,366 620,384 616,388 620,391 622,389 625,392 586,430" stroke="#6d725c" /></g></svg>