<?xml version="1.0" encoding="utf-8" ?>
<svg baseProfile="full" height="636" version="1.1" width="800" xmlns="http://www.w3.org/2000/svg" xmlns:ev="http://www.w3.org/2001/xml-events" xmlns:xlink="http://www.w3.org/1999/xlink"><defs /><g id="0Y01" stroke="red"><polyline fill="#ebf7d1" points="418,404 387,404 386,404 385,404 384,404 383,405 383,405 382,406 382,406 381,407 381,408 381,409 381,427 381,480 368,480 368,435 307,435 307,441 309,441 309,524 307,524 307,529 290,529 292,525 290,524 288,524 288,516 288,441 290,441 290,435 250,435 250,530 315,530 315,539 289,539 289,540 225,540 225,520 206,520 206,533 200,533 200,542 205,542 205,579 149,579 149,592 121,592 121,433 218,433 218,404 252,404 252,382 292,382 299,389 309,389 366,331 368,333 370,331 376,337 379,340 382,343 386,345 390,346 395,348 399,349 403,349 408,349 412,348 416,347 416,373 418,373" stroke="#6d725c" /></g><g id="0Y02" stroke="red"><polyline fill="#ebf7d1" points="468,404 468,404 421,404 421,404 421,404 418,404 418,404 418,373 418,372 462,372 462,379 468,379 468,379" stroke="#6d725c" /></g><g id="0Y03" stroke="red"><polyline fill="#ebf7d1" points="468,379 513,379 513,380 515,380 515,379 523,379 523,386 523,393 521,395 519,397 517,398 514,400 512,401 510,402 507,403 505,403 502,403 499,404 468,404" stroke="#6d725c" /></g><g id="0Y04A" stroke="red"><polyline fill="#ebf7d1" points="612,402 602,402 602,358 599,358 599,348 577,348 563,334 572,326 586,326 637,377" stroke="#6d725c" /></g><g id="0Y04B" stroke="red"><polyline fill="#ebf7d1" points="637,377 662,402 619,445 612,445 612,402" stroke="#6d725c" /></g><g id="0Y05A" stroke="red"><polyline fill="#ebf7d1" points="647,539 644,536 658,522 655,519 674,500 658,485 615,528 636,549 631,555 589,513 588,512 587,511 587,510 586,509 586,508 586,507 586,506 587,506 587,505 588,504 649,443 696,491" stroke="#6d725c" /></g><g id="0Y05B" stroke="red"><polyline fill="#ebf7d1" points="649,443 676,416 690,416 690,439 744,439 746,441 696,491" stroke="#6d725c" /></g><g id="0Y06" stroke="red"><polyline fill="#ebf7d1" points="523,547 523,533 548,533 551,533 553,533 556,533 558,534 561,534 563,535 566,536 568,537 570,538 573,539 573,547" stroke="#6d725c" /></g><g id="0Y07" stroke="red"><polyline fill="#ebf7d1" points="418,542 418,532 515,532 515,532 515,532 515,532 518,532 518,540 521,540 521,547 521,575 418,575" stroke="#6d725c" /></g><g id="0Y08" stroke="red"><polyline fill="#ebf7d1" points="418,575 416,575 416,588 368,588 332,588 332,592 322,592 322,584 317,584 317,572 332,572 332,556 338,556 338,556 339,556 340,556 340,556 341,556 341,556 342,555 342,555 343,555 344,555 350,552 350,551 351,551 352,551 352,551 353,551 353,550 354,550 354,550 355,550 356,550 368,550 371,550 374,550 377,549 379,549 382,548 384,546 387,545 389,544 391,542 393,540 394,539 396,538 397,537 399,536 400,535 402,534 404,533 406,533 407,533 409,532 418,532 418,542 418,575" stroke="#6d725c" /></g><g id="0Y09" stroke="red"><polyline fill="#ebf7d1" points="433,437 433,439 434,441 434,443 434,445 435,447 435,449 435,451 435,453 435,455 435,456 435,456 435,456 435,456 435,457 435,457 435,457 435,457 435,458 435,458 434,462 433,466 432,470 431,473 429,477 428,481 426,484 424,488 422,491 419,494 419,496 418,497 417,498 416,499 415,500 414,501 413,502 412,503 411,504 410,505 409,504 409,504 409,504 407,506 405,507 404,509 402,510 400,511 398,512 396,514 394,515 392,516 390,517 390,518 389,518 388,518 387,519 386,519 386,520 385,520 384,520 383,521 382,521 382,481 392,481 392,455 392,435 390,435 390,427 390,426 391,425 391,424 392,423 392,423 393,422 394,421 395,421 396,421 397,421 422,421 423,421 424,421 424,421 425,421 426,422 426,422 427,423 427,423 428,424 428,424 429,425 429,426 429,428 430,429 430,430 431,431 431,432 432,433 432,434 432,435" stroke="#6d725c" /></g><g id="0Y10" stroke="red"><polyline fill="#ebf7d1" points="450,450 450,450 450,450 450,449 450,449 450,449 450,449 450,448 450,448 450,448 450,448 450,447 450,446 450,445 449,444 449,443 449,442 449,441 449,440 449,440 449,439 448,438 448,435 448,433 448,430 449,428 450,426 452,424 454,423 456,422 458,421 461,421 476,421 476,450" stroke="#6d725c" /></g><g id="0Y11" stroke="red"><polyline fill="#ebf7d1" points="500,450 476,450 476,421 478,421 500,421 500,421" stroke="#6d725c" /></g><g id="0Y12" stroke="red"><polyline fill="#ebf7d1" points="510,450 500,450 500,421 519,421 520,421 520,421 521,421 521,421 522,422 522,422 522,423 523,423 523,424 523,424 523,450" stroke="#6d725c" /></g><g id="0Y13" stroke="red"><polyline fill="#ebf7d1" points="497,480 496,480 467,480 467,491 439,491 440,491 440,490 440,489 441,488 441,488 442,487 442,486 442,486 443,485 443,484 443,483 443,483 444,482 444,482 444,481 444,481 445,480 445,479 445,479 445,478 445,478 446,476 447,474 447,472 448,470 448,468 449,466 449,463 449,461 449,459 450,457 450,456 450,455 450,455 450,454 450,453 450,453 450,452 450,451 450,451 450,450 497,450 497,450" stroke="#6d725c" /></g><g id="0Y14" stroke="red"><polyline fill="#ebf7d1" points="497,480 497,450 510,450 523,450 523,450 523,450 523,480" stroke="#6d725c" /></g><g id="0Y15" stroke="red"><polyline fill="#ebf7d1" points="467,513 449,513 448,512 446,512 444,511 443,511 441,510 440,508 439,507 438,506 437,504 437,502 437,501 437,500 437,499 437,498 437,497 437,496 437,496 437,495 438,494 438,493 438,493 438,493 438,492 438,492 439,492 439,492 439,492 439,492 439,492 439,492 439,492 439,492 439,492 439,492 439,492 439,491 439,491 439,491 439,491 439,491 467,491 467,513" stroke="#6d725c" /></g><g id="0Y17A" stroke="red"><polyline fill="#ebf7d1" points="496,513 467,513 467,491 467,480 496,480" stroke="#6d725c" /></g><g id="0Y17B" stroke="red"><polyline fill="#ebf7d1" points="496,480 497,480 497,480 523,480 523,499 523,501 522,503 522,505 521,507 519,509 518,510 516,511 514,512 512,512 510,513 496,513" stroke="#6d725c" /></g><g id="0Y18" stroke="red"><polyline fill="#ebf7d1" points="541,440 541,403 541,398 542,393 544,389 546,384 548,379 551,375 554,371 557,368 561,364 565,361 565,362 566,362 587,362 587,411 598,411 598,431 598,440" stroke="#6d725c" /></g><g id="0Y19" stroke="red"><polyline fill="#ebf7d1" points="598,440 598,466 578,486 574,489 569,491 564,492 559,492 554,491 550,488 546,485 543,481 542,476 541,471 541,440" stroke="#6d725c" /></g></svg>