<?xml version="1.0" encoding="utf-8" ?>
<svg baseProfile="full" height="341" version="1.1" width="800" xmlns="http://www.w3.org/2000/svg" xmlns:ev="http://www.w3.org/2001/xml-events" xmlns:xlink="http://www.w3.org/1999/xlink"><defs /><g id="0Y01" stroke="red"><polyline fill="#FFFFFF" points="370,103 338,103 337,103 337,103 336,103 335,104 334,104 334,105 333,106 333,107 333,107 333,108 333,127 333,182 319,182 319,135 257,135 257,141 259,141 259,227 257,227 257,232 239,232 242,228 239,227 237,227 237,219 237,141 239,141 239,135 198,135 198,233 265,233 265,242 238,242 238,243 172,243 172,223 153,223 153,236 147,236 147,245 152,245 152,283 94,283 94,297 65,297 65,133 165,133 165,103 200,103 200,81 241,81 249,88 258,88 317,29 319,30 321,29 327,34 330,37 334,40 338,42 342,44 347,45 351,46 356,47 360,46 365,46 369,45 369,72 370,72" stroke="#6d725c" /></g><g id="0Y02" stroke="red"><polyline fill="#FFFFFF" points="422,103 422,103 374,103 374,103 374,103 370,103 370,103 370,72 370,70 416,70 416,78 422,78 422,78" stroke="#6d725c" /></g><g id="0Y03" stroke="red"><polyline fill="#FFFFFF" points="422,78 468,78 468,78 471,78 471,78 478,78 478,85 478,92 476,94 474,96 472,97 470,99 467,100 465,101 462,102 460,102 457,103 454,103 422,103" stroke="#6d725c" /></g><g id="0Y04A" stroke="red"><polyline fill="#FFFFFF" points="571,101 559,101 559,56 557,56 557,46 534,46 520,31 529,23 543,23 596,76" stroke="#6d725c" /></g><g id="0Y04B" stroke="red"><polyline fill="#FFFFFF" points="596,76 621,101 578,145 571,145 571,101" stroke="#6d725c" /></g><g id="0Y05A" stroke="red"><polyline fill="#FFFFFF" points="607,242 603,239 617,225 614,222 634,202 617,186 573,230 595,252 589,258 546,215 545,214 545,213 544,212 544,212 544,211 544,210 544,209 544,208 545,207 545,206 608,143 657,192" stroke="#6d725c" /></g><g id="0Y05B" stroke="red"><polyline fill="#FFFFFF" points="608,143 635,116 651,116 651,140 706,140 708,141 657,192" stroke="#6d725c" /></g><g id="0Y06" stroke="red"><polyline fill="#FFFFFF" points="479,250 479,236 504,236 507,236 510,236 512,236 515,237 517,237 520,238 522,239 525,240 527,241 530,242 530,250" stroke="#6d725c" /></g><g id="0Y07" stroke="red"><polyline fill="#FFFFFF" points="370,245 370,235 470,235 470,235 471,235 471,235 473,235 473,243 476,243 476,251 476,279 370,279" stroke="#6d725c" /></g><g id="0Y08" stroke="red"><polyline fill="#FFFFFF" points="370,279 369,279 369,293 319,293 283,293 283,297 272,297 272,289 267,289 267,276 282,276 282,260 288,260 289,260 289,259 290,259 291,259 291,259 292,259 292,259 293,259 294,258 294,258 301,255 301,255 302,254 302,254 303,254 303,254 304,254 305,254 305,254 306,254 307,253 320,253 322,253 325,253 328,253 331,252 333,251 336,250 338,248 341,247 343,245 345,243 346,242 348,241 349,240 351,239 353,238 354,237 356,236 358,236 360,235 362,235 370,235 370,245 370,279" stroke="#6d725c" /></g><g id="0Y09" stroke="red"><polyline fill="#FFFFFF" points="386,137 386,139 387,141 387,143 387,145 388,148 388,150 388,152 388,154 388,156 388,156 388,156 388,157 388,157 388,157 388,158 388,158 388,158 388,158 388,159 387,163 386,167 385,171 384,175 382,178 381,182 379,186 377,189 374,193 372,196 371,197 370,199 369,200 368,201 368,202 367,203 366,204 365,205 363,206 362,207 361,206 361,206 361,206 359,208 358,209 356,211 354,212 352,213 350,215 348,216 346,217 344,218 342,219 342,220 341,220 340,221 339,221 338,222 337,222 337,222 336,223 335,223 334,224 334,183 344,183 344,156 344,135 342,135 342,127 342,126 343,125 343,124 343,123 344,122 345,122 346,121 347,121 348,120 349,120 375,120 376,120 376,120 377,121 378,121 378,121 379,122 380,122 380,123 381,123 381,124 381,125 382,126 382,127 383,128 383,130 384,131 384,132 385,133 385,134 385,135" stroke="#6d725c" /></g><g id="0Y10" stroke="red"><polyline fill="#FFFFFF" points="403,150 403,150 403,150 403,150 403,150 403,149 403,149 403,149 403,149 403,148 403,148 403,148 403,147 403,146 403,145 403,144 403,143 403,142 402,141 402,140 402,139 402,138 401,135 401,133 402,130 403,128 404,126 405,124 407,123 410,121 412,121 414,120 430,120 430,150" stroke="#6d725c" /></g><g id="0Y11" stroke="red"><polyline fill="#FFFFFF" points="455,150 430,150 430,120 432,120 455,120 455,120" stroke="#6d725c" /></g><g id="0Y12" stroke="red"><polyline fill="#FFFFFF" points="465,150 455,150 455,120 474,120 475,120 476,120 476,121 477,121 477,121 478,122 478,122 478,123 478,124 479,124 479,150" stroke="#6d725c" /></g><g id="0Y13" stroke="red"><polyline fill="#FFFFFF" points="451,181 450,181 421,181 421,193 392,193 393,192 393,191 394,191 394,190 395,189 395,188 395,188 396,187 396,186 396,185 397,185 397,184 397,184 397,183 398,182 398,182 398,181 398,181 398,180 399,179 399,179 399,177 400,175 401,173 401,171 402,169 402,166 402,164 403,162 403,160 403,158 403,157 403,156 403,155 403,155 403,154 403,153 403,153 403,152 403,151 403,150 451,150 451,150" stroke="#6d725c" /></g><g id="0Y14" stroke="red"><polyline fill="#FFFFFF" points="451,181 451,150 465,150 479,150 479,150 479,150 479,181" stroke="#6d725c" /></g><g id="0Y15" stroke="red"><polyline fill="#FFFFFF" points="421,215 403,215 401,215 399,214 398,214 396,213 395,212 393,210 392,209 391,208 391,206 390,204 390,203 390,202 390,201 390,200 390,199 390,198 390,197 391,196 391,195 391,194 392,194 392,194 392,194 392,194 392,194 392,194 392,194 392,194 392,194 392,194 392,193 392,193 392,193 392,193 392,193 392,193 392,193 392,193 392,193 392,193 421,193 421,215" stroke="#6d725c" /></g><g id="0Y17A" stroke="red"><polyline fill="#FFFFFF" points="450,215 421,215 421,193 421,181 450,181" stroke="#6d725c" /></g><g id="0Y17B" stroke="red"><polyline fill="#FFFFFF" points="450,181 451,181 451,181 479,181 479,201 478,203 478,205 477,207 476,209 475,211 473,212 471,213 469,214 467,215 465,215 450,215" stroke="#6d725c" /></g><g id="0Y18" stroke="red"><polyline fill="#FFFFFF" points="497,141 497,103 498,97 499,92 500,87 502,83 504,78 507,74 510,69 514,66 518,62 522,59 522,61 522,61 544,61 544,110 556,110 556,131 556,141" stroke="#6d725c" /></g><g id="0Y19" stroke="red"><polyline fill="#FFFFFF" points="556,141 556,167 535,188 531,191 526,193 521,194 516,194 511,192 506,190 502,186 500,182 498,177 497,172 497,141" stroke="#6d725c" /></g></svg>