<?xml version="1.0" encoding="utf-8" ?>
<svg baseProfile="full" height="498" version="1.1" width="800" xmlns="http://www.w3.org/2000/svg" xmlns:ev="http://www.w3.org/2001/xml-events" xmlns:xlink="http://www.w3.org/1999/xlink"><defs /><g id="1A02" stroke="red"><polyline points="261,365 298,365 298,401 292,401 292,401 291,401 291,408 282,408 282,415 262,415 262,408 253,408 253,415 243,415 243,365" stroke="#6d725c" /></g><g id="1A03" stroke="red"><polyline points="369,388 369,369 383,369 383,388" stroke="#6d725c" /></g><g id="1A04" stroke="red"><polyline points="376,329 349,353 327,353 327,293 346,293 346,306 376,306" stroke="#6d725c" /></g><g id="1A05" stroke="red"><polyline points="346,306 346,293 327,293 327,279 376,279 376,306" stroke="#6d725c" /></g><g id="1A06" stroke="red"><polyline points="327,279 327,236 376,236 376,279" stroke="#6d725c" /></g><g id="1A08" stroke="red"><polyline points="291,218 291,184 298,184 298,174 336,174 336,218" stroke="#6d725c" /></g><g id="1B01A" stroke="red"><polyline points="407,362 407,369 393,369 393,363 383,363 383,351 401,335 415,335 415,362" stroke="#6d725c" /></g><g id="1B01B" stroke="red"><polyline points="415,371 415,362 415,362 415,335 454,335 454,371" stroke="#6d725c" /></g><g id="1B02A" stroke="red"><polyline points="461,418 424,418 424,402 461,402 461,415" stroke="#6d725c" /></g><g id="1B02B" stroke="red"><polyline points="461,402 461,371 454,371 454,335 461,335 487,350 488,351 489,351 490,352 491,353 492,354 493,355 493,356 494,357 495,358 495,359 514,396 514,418 461,418 461,415 461,415" stroke="#6d725c" /></g><g id="1B03A" stroke="red"><polyline points="484,250 484,250 484,253 484,284 484,308 462,313 393,313 393,293 393,236 437,236 437,247 453,247 453,235 454,235 455,234 456,234 457,234 458,233 459,233 460,233 461,232 462,232 463,231 466,229 470,227 473,224 476,221 478,217 480,213 482,209 483,205 484,201 484,197 484,234" stroke="#6d725c" /></g><g id="1B04" stroke="red"><polyline points="453,235 453,247 437,247 437,236" stroke="#6d725c" /></g><g id="1B05" stroke="red"><polyline points="373,218 336,218 336,174 354,174 354,181 370,181 370,189 373,189" stroke="#6d725c" /></g><g id="1B06" stroke="red"><polyline points="373,189 461,189 461,197 461,200 460,203 459,206 457,209 455,212 452,214 450,216 446,217 443,218 440,218 373,218" stroke="#6d725c" /></g><g id="1C01" stroke="red"><polyline points="558,350 581,372 559,393 558,394 555,397 552,394 554,391 551,388 548,392 541,385 533,355 533,354 532,353 532,352 532,351 532,350 532,349 532,348 532,347 532,346 532,345 536,325 536,324 537,323 537,321 538,320 538,319 539,318 540,317 540,316 541,315 542,314 548,307 597,311" stroke="#6d725c" /></g><g id="1C03" stroke="red"><polyline points="610,298 597,311 548,307 577,279 577,267 640,267 641,267" stroke="#6d725c" /></g><g id="1C05A" stroke="red"><polyline points="640,267 577,267 577,233 640,233 640,254" stroke="#6d725c" /></g><g id="1C05B" stroke="red"><polyline points="577,233 577,201 588,201 588,201 640,201 640,233" stroke="#6d725c" /></g><g id="1C09" stroke="red"><polyline points="577,201 577,167 577,165 577,163 576,160 575,158 573,156 571,154 570,153 567,152 565,151 563,150 543,147 543,124 588,124 588,201" stroke="#6d725c" /></g><g id="1Y01" stroke="red"><polyline points="243,415 232,415 232,418 202,418 193,418 165,418 165,415 165,408 165,391 128,391 128,363 135,363 135,351 135,343 104,343 104,338 54,338 54,259 56,259 56,259 96,259 96,241 109,241 109,238 163,238 163,365 243,365" stroke="#6d725c" /></g><g id="1Y02" stroke="red"><polyline points="543,124 543,147 534,145 507,140 503,140 486,123 555,54 578,77 591,64 605,78 617,66 626,75 593,108 591,106 589,106 587,106 585,108 583,110 583,112 583,114 584,116 586,118 588,119 588,124" stroke="#6d725c" /></g><g id="1Y03A" stroke="red"><polyline points="484,284 484,253 484,250 484,234 484,213 484,197 484,189 484,187 485,184 485,182 487,180 488,179 490,177 492,176 494,175 496,175 498,175 524,175 524,285 504,304 502,305 500,305 498,305 496,306 494,306 492,306 490,307 488,307 486,307 484,308" stroke="#6d725c" /></g><g id="1Y04" stroke="red"><polyline points="641,267 640,267 640,254 695,254 696,256 669,283 664,288 663,287" stroke="#6d725c" /></g><g id="1Y05" stroke="red"><polyline points="661,290 662,290 638,315 636,313 636,314 635,313 630,318 610,298 641,267 663,287" stroke="#6d725c" /></g></svg>