<?xml version="1.0" encoding="utf-8" ?>
<svg baseProfile="full" height="341" version="1.1" width="800" xmlns="http://www.w3.org/2000/svg" xmlns:ev="http://www.w3.org/2001/xml-events" xmlns:xlink="http://www.w3.org/1999/xlink"><defs /><g id="0Y01A" stroke="red"><polyline points="65,156 65,133 119,133 165,133 165,122 177,122 177,156" stroke="#6d725c" /></g><g id="0Y01B" stroke="red"><polyline points="177,156 177,156 177,243 172,243 172,223 153,223 153,236 152,236 152,283 94,283 94,297 65,297 65,184 65,156" stroke="#6d725c" /></g><g id="0Y02A" stroke="red"><polyline points="369,72 362,72 362,132 360,132 360,129 360,127 360,125 359,124 358,123 357,121 356,120 355,120 353,119 352,119 350,118 315,118 315,31 317,29 319,30 321,29 325,33 329,36 333,39 338,42 343,44 348,46 353,46 358,46 364,46 369,45 369,70" stroke="#6d725c" /></g><g id="0Y02B" stroke="red"><polyline points="362,132 362,72 369,72 369,70 416,70 416,78 479,78 479,149 370,149 369,149 367,148 366,148 364,147 363,146 362,145 361,143 361,142 360,140 360,139 360,132" stroke="#6d725c" /></g><g id="0Y03A" stroke="red"><polyline points="499,119 499,86 499,85 499,84 499,83 500,83 500,82 500,81 501,80 501,80 502,79 502,79 519,62 528,53 528,40 520,31 529,23 543,23 621,101 603,119" stroke="#6d725c" /></g><g id="0Y03B" stroke="red"><polyline points="603,119 526,196 502,173 502,172 501,171 501,171 500,170 500,169 500,169 499,168 499,167 499,166 499,165 499,119" stroke="#6d725c" /></g><g id="0Y04A" stroke="red"><polyline points="598,153 643,199 646,196 650,199 607,242 603,239 617,225 614,222 634,202 617,186 573,230 596,253 576,273 567,265 569,263 569,245 569,244 568,242 568,241 568,240 568,239 567,238 567,238 566,237 565,236 565,235 540,211 598,153 598,153" stroke="#6d725c" /></g><g id="0Y04B" stroke="red"><polyline points="646,196 643,199 598,153 635,117 651,117 651,140 706,140 708,141 650,199" stroke="#6d725c" /></g><g id="0Y05A" stroke="red"><polyline points="476,251 476,279 370,279 369,279 369,293 319,293 283,293 283,297 272,297 272,289 267,289 267,276 282,276 282,260 288,260 289,260 289,259 290,259 291,259 291,259 292,259 292,259 293,259 294,258 294,258 301,255 301,255 302,254 302,254 303,254 303,254 304,254 305,254 305,254 306,254 307,253 320,253 322,253 325,253 328,253 331,252 333,251 336,250 338,248 341,247 343,245 345,243 346,242 348,241 349,240 351,239 353,238 354,237 356,236 358,236 360,235 362,235 478,235 478,251" stroke="#6d725c" /></g><g id="0Y05B" stroke="red"><polyline points="478,235 509,235 510,235 511,235 512,235 513,235 513,235 514,236 515,236 515,237 516,237 517,238 529,251 478,251" stroke="#6d725c" /></g><g id="0Y06" stroke="red"><polyline points="360,214 360,165 479,165 479,214" stroke="#6d725c" /></g><g id="0Y07" stroke="red"><polyline points="321,179 321,139 332,139 332,179" stroke="#6d725c" /></g><g id="0Y08" stroke="red"><polyline points="335,224 335,224 335,224 335,224 335,224 335,224 335,224 335,224 335,224 335,224 335,189 344,189 344,213 344,213 344,213 344,213 344,213 344,214 344,214 344,214 344,214 344,214 344,214 343,216 342,217 342,218 341,219 340,220 339,221 338,222 337,222 336,223 335,224" stroke="#6d725c" /></g><g id="0Y09" stroke="red"><polyline points="226,118 226,81 241,81 249,88 258,88 315,31 315,118" stroke="#6d725c" /></g></svg>