<?xml version="1.0" encoding="utf-8" ?>
<svg baseProfile="full" height="498" version="1.1" width="800" xmlns="http://www.w3.org/2000/svg" xmlns:ev="http://www.w3.org/2001/xml-events" xmlns:xlink="http://www.w3.org/1999/xlink"><defs /><g id="4A03A" stroke="red"><polyline fill="#ebf7d1" points="61,420 111,420 111,468 42,468 42,461 43,461 43,420" stroke="#6d725c" /></g><g id="4A03E" stroke="red"><polyline fill="#ebf7d1" points="162,398 162,398 141,398 141,357 162,357 162,380" stroke="#6d725c" /></g><g id="4A05A" stroke="red"><polyline fill="#ebf7d1" points="43,420 43,392 61,392 61,420" stroke="#6d725c" /></g><g id="4A05B" stroke="red"><polyline fill="#ebf7d1" points="73,368 86,368 99,368 99,405 73,405 73,368 73,368" stroke="#6d725c" /></g><g id="4A05E" stroke="red"><polyline fill="#ebf7d1" points="141,357 141,296 162,296 162,357" stroke="#6d725c" /></g><g id="4A07B" stroke="red"><polyline fill="#ebf7d1" points="99,368 86,368 73,368 73,346 99,346 99,359" stroke="#6d725c" /></g><g id="4A08" stroke="red"><polyline fill="#ebf7d1" points="171,178 171,233 136,233 136,218 112,218 112,193 87,193 87,178 171,178 171,178" stroke="#6d725c" /></g><g id="4A09B" stroke="red"><polyline fill="#ebf7d1" points="73,334 73,312 99,312 99,334" stroke="#6d725c" /></g><g id="4A09C" stroke="red"><polyline fill="#ebf7d1" points="99,346 99,346 99,346 126,346 126,405 99,405 99,359" stroke="#6d725c" /></g><g id="4A11A" stroke="red"><polyline fill="#ebf7d1" points="61,301 61,326 42,326 42,301" stroke="#6d725c" /></g><g id="4A11B" stroke="red"><polyline fill="#ebf7d1" points="99,312 73,312 73,312 73,290 99,290 99,312" stroke="#6d725c" /></g><g id="4A13A" stroke="red"><polyline fill="#ebf7d1" points="61,279 61,301 42,301 42,256 61,256 61,278" stroke="#6d725c" /></g><g id="4A13E" stroke="red"><polyline fill="#ebf7d1" points="162,271 162,289 141,289 141,271" stroke="#6d725c" /></g><g id="4A15E" stroke="red"><polyline fill="#ebf7d1" points="162,271 162,271 141,271 141,252 162,252 162,266 162,266" stroke="#6d725c" /></g><g id="4A17C" stroke="red"><polyline fill="#ebf7d1" points="99,312 99,290 126,290 126,334 99,334" stroke="#6d725c" /></g><g id="4A19B" stroke="red"><polyline fill="#ebf7d1" points="61,256 112,256 112,278 61,278" stroke="#6d725c" /></g><g id="4B01" stroke="red"><polyline fill="#ebf7d1" points="212,468 171,468 171,422 212,422 212,422" stroke="#6d725c" /></g><g id="4B02" stroke="red"><polyline fill="#ebf7d1" points="253,468 212,468 212,422 216,422 216,422 216,422 216,422 217,422 248,422 248,422 248,422 248,422 253,422" stroke="#6d725c" /></g><g id="4B02A" stroke="red"><polyline fill="#ebf7d1" points="281,399 281,381 304,381 304,399" stroke="#6d725c" /></g><g id="4B03" stroke="red"><polyline fill="#ebf7d1" points="162,380 211,380 211,398 162,398" stroke="#6d725c" /></g><g id="4B04" stroke="red"><polyline fill="#ebf7d1" points="229,399 229,381 269,381 269,399" stroke="#6d725c" /></g><g id="4B05" stroke="red"><polyline fill="#ebf7d1" points="162,252 210,252 210,266 162,266" stroke="#6d725c" /></g><g id="4B06" stroke="red"><polyline fill="#ebf7d1" points="231,266 231,252 304,252 304,262 302,262 302,266 248,266" stroke="#6d725c" /></g><g id="4B07" stroke="red"><polyline fill="#ebf7d1" points="228,233 228,233 228,233 176,233 171,233 171,178 171,178 228,178 228,178" stroke="#6d725c" /></g><g id="4B08" stroke="red"><polyline fill="#ebf7d1" points="293,233 228,233 228,178 238,178 252,192 293,192" stroke="#6d725c" /></g><g id="4C01" stroke="red"><polyline fill="#ebf7d1" points="335,468 335,422 340,422 340,422 340,422 378,422 378,468" stroke="#6d725c" /></g><g id="4C04" stroke="red"><polyline fill="#ebf7d1" points="373,192 373,233 293,233 293,192 295,192 295,183 373,183 373,191 373,191" stroke="#6d725c" /></g><g id="4D04" stroke="red"><polyline fill="#ebf7d1" points="422,252 489,252 489,399 422,399" stroke="#6d725c" /></g><g id="4D06" stroke="red"><polyline fill="#ebf7d1" points="373,192 373,191 390,191 390,200 484,200 484,233 373,233" stroke="#6d725c" /></g><g id="4E01A" stroke="red"><polyline fill="#ebf7d1" points="593,431 588,436 583,440 577,445 572,449 566,452 560,456 553,459 547,461 540,463 534,465 534,465 520,419 520,419 521,419 521,419 522,419 522,418 523,418 523,418 524,418 524,418 525,418 525,418 525,418 525,418 525,418 525,418 525,418 525,418 525,418 525,418 525,418 527,417 530,416 532,415 535,414 537,412 539,411 541,409 544,408 546,406 548,404 559,395 594,430" stroke="#6d725c" /></g><g id="4Y01" stroke="red"><polyline fill="#ebf7d1" points="677,188 677,197 677,210 689,210 689,272 711,272 751,272 723,300 685,338 677,331 671,336 656,320 626,350 622,354 602,333 602,317 619,300 619,188 643,188" stroke="#6d725c" /></g><g id="4Y02" stroke="red"><polyline fill="#ebf7d1" points="643,188 643,175 649,168 649,125 655,120 677,142 677,188" stroke="#6d725c" /></g><g id="4Y03" stroke="red"><polyline fill="#ebf7d1" points="639,119 629,109 625,113 625,158 619,164 566,164 564,164 562,164 560,163 559,163 557,162 555,162 554,161 552,160 551,159 549,158 518,126 535,110 539,114 539,135 544,135 544,115 558,102 554,98 542,110 538,106 628,17 631,20 615,37 619,40 588,71 606,90 616,80 647,111 639,119" stroke="#6d725c" /></g><g id="4Y04" stroke="red"><polyline fill="#ebf7d1" points="339,399 339,252 422,252 422,399" stroke="#6d725c" /></g><g id="4Y05" stroke="red"><polyline fill="#ebf7d1" points="293,468 253,468 253,422 258,422 258,422 258,422 258,422 258,422 289,422 289,422 289,422 289,422 289,422 293,422" stroke="#6d725c" /></g><g id="4Y06" stroke="red"><polyline fill="#ebf7d1" points="335,468 293,468 293,422 298,422 298,422 298,422 298,422 298,422 330,422 330,422 330,422 330,422 335,422" stroke="#6d725c" /></g><g id="4Y08" stroke="red"><polyline fill="#ebf7d1" points="378,468 378,422 417,422 417,422 422,422 422,422 422,468" stroke="#6d725c" /></g><g id="4Y09" stroke="red"><polyline fill="#ebf7d1" points="533,465 533,465 533,465 533,465 533,465 533,465 533,465 533,465 533,465 533,465 530,466 528,466 525,467 522,467 520,468 517,468 514,468 512,468 509,468 506,468 422,468 422,468 422,422 422,422 427,422 427,422 427,422 427,422 497,422 499,422 501,422 503,422 504,422 506,422 508,422 510,421 512,421 513,421 515,420 515,420 515,420 515,420 515,420 515,420 515,420 515,420 515,420 515,420 515,420 515,420 515,420 515,420 515,420 515,420 515,420 515,420 515,421 515,421 515,421 515,421 515,421 515,421 515,421 515,421 515,421 515,421 516,421 516,421 516,421 516,421 516,421 516,421 516,421 516,421 516,421 516,420 516,420 516,420 516,420 516,420 516,420 517,420 517,420 518,420 518,420 519,420 519,419 520,419 520,419 534,465" stroke="#6d725c" /></g><g id="4Y10" stroke="red"><polyline fill="#ebf7d1" points="559,395 577,379 600,354 599,354 602,351 614,362 610,366 628,384 623,388 627,391 629,389 632,392 594,430" stroke="#6d725c" /></g><g id="4Y11" stroke="red"><polyline fill="#ebf7d1" points="522,389 520,389 519,388 517,387 516,386 514,385 513,383 513,381 512,380 512,378 512,289 512,269 512,210 538,184 560,184 560,357 559,358 559,359 559,360 559,361 558,362 558,363 557,364 557,365 556,366 555,366 542,378 532,387 531,387 530,388 530,388 529,389 528,389 527,389 526,389 526,390 525,390 524,390" stroke="#6d725c" /></g><g id="XHXD4E04" stroke="red"><polyline fill="#ebf7d1" points="780,215 765,230 760,230 760,232 762,232 762,245 752,245 752,212 750,212 718,212 718,196 750,196 750,198 752,198 752,179 765,179 780,193" stroke="#6d725c" /></g></svg>